<?xml version="1.0" encoding="utf-8"?>
<!-- Generator: Adobe Illustrator 16.0.0, SVG Export Plug-In . SVG Version: 6.00 Build 0)  -->
<!DOCTYPE svg PUBLIC "-//W3C//DTD SVG 1.1//EN" "http://www.w3.org/Graphics/SVG/1.1/DTD/svg11.dtd">
<svg version="1.1" id="Calque_1" xmlns="http://www.w3.org/2000/svg" xmlns:xlink="http://www.w3.org/1999/xlink" x="0px" y="0px"
	 width="89px" height="73px" viewBox="0 0 89 73" enable-background="new 0 0 89 73" xml:space="preserve">
<ellipse fill="#E9B4A9" cx="44.5" cy="62.353" rx="32.289" ry="7.362"/>
<g id="Cheveux_1_2_">
</g>
<g id="Cheveux_1_1_">
</g>
<g id="Cheveux_1_3_">
</g>
<g id="Cheveux_1_4_">
</g>
<g id="Calque_16">
	<path fill="#9B7062" d="M20.87,18.976c0,0,0.66,29.243,0,30.284c-0.661,1.039-0.786,2.771-0.786,2.771l0.786,2.038
		c0,0-2.61,1.431-2.351,1.949c0.259,0.52,4.58,5.582,5.539,5.586c0.959,0.002,3.159,1.687,6.869,0
		c4.229-2.596,4.358-7.405,4.358-7.405s-2.859-0.13-2.924-0.648c-0.064-0.521,1.787-2.079,1.577-2.729
		c-0.211-0.648-1.577-1.56-1.577-1.56l4.478-24.339C36.839,24.921,25.549,18.337,20.87,18.976z"/>
	<path fill="#9B7062" d="M69.717,18.976c0,0-0.66,29.243,0,30.284c0.661,1.039,0.785,2.771,0.785,2.771l-0.785,2.038
		c0,0,2.61,1.431,2.352,1.949c-0.26,0.52-4.58,5.582-5.539,5.586c-0.959,0.002-3.158,1.687-6.869,0
		c-4.229-2.596-4.357-7.405-4.357-7.405s2.859-0.13,2.924-0.648c0.064-0.521-1.787-2.079-1.576-2.729
		c0.211-0.648,1.576-1.56,1.576-1.56l-4.478-24.339C53.748,24.921,65.037,18.337,69.717,18.976z"/>
	<path fill="#9B7062" d="M36.839,24.921c0,0,14.042,2.045,19.501,0c8.838-2.045,13.258-3.613,13.258-3.613s2.598-8.572,0.26-12.08
		C44.13,10.827,21.25,11.373,21.25,11.373s-0.14,8.703-0.26,10.463C20.871,23.595,36.839,24.921,36.839,24.921z"/>
</g>
<g id="Cheveux_1_5_">
</g>
</svg>
