<?xml version="1.0" encoding="utf-8"?>
<!-- Generator: Adobe Illustrator 16.0.0, SVG Export Plug-In . SVG Version: 6.00 Build 0)  -->
<!DOCTYPE svg PUBLIC "-//W3C//DTD SVG 1.1//EN" "http://www.w3.org/Graphics/SVG/1.1/DTD/svg11.dtd">
<svg version="1.1" id="Calque_1" xmlns="http://www.w3.org/2000/svg" xmlns:xlink="http://www.w3.org/1999/xlink" x="0px" y="0px"
	 width="89px" height="73px" viewBox="0 0 89 73" enable-background="new 0 0 89 73" xml:space="preserve">
<rect fill="#FFFFFF" width="89" height="73"/>
<ellipse fill="#E9B4A9" cx="44.5" cy="62.353" rx="32.289" ry="7.362"/>
<g id="Cheveux_1_2_">
</g>
<g id="Cheveux_1_1_">
</g>
<g id="Cheveux_1_3_">
</g>
<g id="Cheveux_1_4_">
</g>
<g id="Calque_18">
	<g>
		<path fill="#8E463A" d="M21.466,16.844c0,0-1.494,22.729-1.144,34.217c8.415,5.377,15.747,0,15.747,0s4.166-28.205,6.604-32.792
			C35.122,16.567,21.466,16.844,21.466,16.844z"/>
		<rect x="17.983" y="48.371" fill="#7F5C52" width="7.332" height="6.6"/>
		<path fill="#AA6944" d="M21.466,16.844c0,0-1.494,22.729-1.144,34.217c8.415,5.377,15.747,0,15.747,0s4.166-28.205,6.604-32.792
			C35.122,16.567,21.466,16.844,21.466,16.844z"/>
		<path fill="#8B493E" d="M22.188,52.91c0,0-2.265-10.855,2.499-11.26c6.866-0.584,9.263,9.621,3.749,13.934
			C22.923,59.9,22.188,52.91,22.188,52.91z"/>
		<path fill="#EDC1AB" d="M20.322,51.061c0,0-1.514-0.674-1.514-1.773s1.467-0.732,1.467-0.732l-0.006-1.65
			c0,0-2.957-0.275-3.4,2.475c-0.444,2.75-0.688,7.355-2.246,9.006c3.208,3.115,16.833,8.523,25.356,0
			c0-3.758-0.732-9.527-3.574-9.541C34.664,49.838,25.502,52.74,20.322,51.061z"/>
		<rect x="63.441" y="48.371" fill="#7F5C52" width="7.332" height="6.6"/>
		<path fill="#AA6944" d="M67.535,16.844c0,0,1.493,22.729,1.143,34.217c-8.414,5.377-15.746,0-15.746,0s-4.166-28.205-6.604-32.792
			C53.879,16.567,67.535,16.844,67.535,16.844z"/>
		<path fill="#8B493E" d="M66.813,52.91c0,0,2.265-10.855-2.499-11.26c-6.866-0.584-9.262,9.621-3.749,13.934
			C66.078,59.9,66.813,52.91,66.813,52.91z"/>
		<path fill="#EDC1AB" d="M68.678,51.061c0,0,1.515-0.674,1.515-1.773s-1.467-0.732-1.467-0.732l0.006-1.65
			c0,0,2.958-0.275,3.4,2.475c0.444,2.75,0.688,7.355,2.246,9.006c-3.207,3.115-16.832,8.523-25.355,0
			c0-3.758,0.732-9.527,3.574-9.541C54.337,49.838,63.498,52.74,68.678,51.061z"/>
		<path fill="#8B493E" d="M48.777,21.243H38.513l-17.219-2.255c0,0-0.56-10.576,0.357-11.492s44.677,0.184,46.808-2.016
			c1.216,3.483,0.479,14.629-0.711,14.831C66.558,20.511,48.777,21.243,48.777,21.243z"/>
	</g>
</g>
<g id="Cheveux_1_5_">
</g>
</svg>
