<?xml version="1.0" encoding="utf-8"?>
<!-- Generator: Adobe Illustrator 16.0.0, SVG Export Plug-In . SVG Version: 6.00 Build 0)  -->
<!DOCTYPE svg PUBLIC "-//W3C//DTD SVG 1.1//EN" "http://www.w3.org/Graphics/SVG/1.1/DTD/svg11.dtd">
<svg version="1.1" id="Calque_1" xmlns="http://www.w3.org/2000/svg" xmlns:xlink="http://www.w3.org/1999/xlink" x="0px" y="0px"
	 width="89px" height="73px" viewBox="0 0 89 73" enable-background="new 0 0 89 73" xml:space="preserve">
<ellipse fill="#E9B4A9" cx="44.5" cy="62.353" rx="32.289" ry="7.362"/>
<g id="Cheveux_1_2_">
</g>
<g id="Cheveux_1_1_">
</g>
<g id="Cheveux_1_3_">
</g>
<g id="Cheveux_1_4_">
</g>
<g id="Calque_11">
	<g>
		<path fill="#506680" d="M27.419,15.133c0,0-0.393,17.018-0.397,19.351c-0.005,2.332-1.368,26.222-1.319,28.553
			c5.095,1.878,10.494,3.361,13.062,0.699c0.458-8.078,1.216-23.187,1.532-25.319c0.316-2.135,1.282-21.348,1.282-21.348
			S35.866,13.583,27.419,15.133z"/>
		<path fill="#506680" d="M66.854,17.269c0,0-0.028,17.812-0.027,20.143c0.002,8.706,1.578,23.333,1.518,25.663
			c-5.103,1.853-10.51,3.311-13.064,0.635c-0.418-8.081-1.103-23.19-1.406-25.327c-0.307-2.138-1.178-21.354-1.178-21.354
			S58.411,14.735,66.854,17.269z"/>
		<path fill="#506680" d="M27.501,16.077c0,0-0.25-13.223,0.779-13.362c1.029-0.14,38.875,0,38.875,0l-0.303,14.553L39.466,19.92
			L27.501,16.077z"/>
	</g>
</g>
<g id="Cheveux_1_5_">
</g>
</svg>
