<?xml version="1.0" encoding="utf-8"?>
<!-- Generator: Adobe Illustrator 16.0.0, SVG Export Plug-In . SVG Version: 6.00 Build 0)  -->
<!DOCTYPE svg PUBLIC "-//W3C//DTD SVG 1.1//EN" "http://www.w3.org/Graphics/SVG/1.1/DTD/svg11.dtd">
<svg version="1.1" id="Calque_1" xmlns="http://www.w3.org/2000/svg" xmlns:xlink="http://www.w3.org/1999/xlink" x="0px" y="0px"
	 width="89px" height="73px" viewBox="0 0 89 73" enable-background="new 0 0 89 73" xml:space="preserve">
<ellipse fill="#E9B4A9" cx="44.5" cy="62.353" rx="32.289" ry="7.362"/>
<g id="Cheveux_1_2_">
</g>
<g id="Cheveux_1_1_">
</g>
<g id="Cheveux_1_3_">
</g>
<g id="Cheveux_1_4_">
</g>
<g id="Jeans">
	<path fill="#5D77B0" d="M65.497,22.898c-0.263,0.101-0.496,0.179-0.674,0.249c-0.632,0.25-1.503-0.789-10.199-0.249
		c-0.086,3.042,1.755,34.543,2.032,36.775c0.475,3.828,4.047,2.937,5.767,1.136c0.515-0.541,3.231-37.893,3.231-37.893
		L65.497,22.898z"/>
	<path fill="#5D77B0" d="M34.722,22.898c-0.263,0.101-0.496,0.179-0.674,0.249c-0.632,0.25-1.502-0.789-10.199-0.249
		c-0.086,3.042,1.754,34.543,2.031,36.775c0.476,3.828,4.048,2.937,5.767,1.136c0.516-0.541,3.233-37.893,3.233-37.893
		L34.722,22.898z"/>
	<path fill="#5D77B0" d="M32.142,24.89c0,0,17.926,2.701,23.737,0.737c0.465-0.157,9.775-0.655,9.775-0.655s0.772-8.185,0-11.786
		c-3.883,0.655-30.729,1.31-42.516,0c-0.546,6.22,0.708,10.968,0.708,10.968L32.142,24.89z"/>
</g>
<g id="Cheveux_1_5_">
</g>
</svg>
