<?xml version="1.0" encoding="utf-8"?>
<!-- Generator: Adobe Illustrator 16.0.0, SVG Export Plug-In . SVG Version: 6.00 Build 0)  -->
<!DOCTYPE svg PUBLIC "-//W3C//DTD SVG 1.1//EN" "http://www.w3.org/Graphics/SVG/1.1/DTD/svg11.dtd">
<svg version="1.1" id="Calque_1" xmlns="http://www.w3.org/2000/svg" xmlns:xlink="http://www.w3.org/1999/xlink" x="0px" y="0px"
	 width="89px" height="73px" viewBox="0 0 89 73" enable-background="new 0 0 89 73" xml:space="preserve">
<ellipse fill="#E9B4A9" cx="44.5" cy="62.353" rx="32.289" ry="7.362"/>
<g id="Cheveux_1_2_">
</g>
<g id="Cheveux_1_1_">
</g>
<g id="Cheveux_1_3_">
</g>
<g id="Cheveux_1_4_">
</g>
<g id="Shorts">
	<path fill="#67628A" d="M15.877,41.572c-0.138,3.322-0.42,14.443,0.064,14.951c2.042,2.138,19.775,4.545,20.341,0
		c0.309-2.5,0.278-10.09,0.188-13.621C28.166,43.023,20.419,42.72,15.877,41.572z"/>
	<path fill="#67628A" d="M70.84,41.672c-0.312,0.12-0.59,0.213-0.8,0.296c-0.75,0.298-8.521-0.282-18.847,0.358
		c-0.104,3.609,0.721,11.547,1.051,14.199c0.564,4.543,18.296,2.138,20.337,0c0.612-0.644-1.556-14.83-1.556-14.83L70.84,41.672z"/>
	<path fill="#67628A" d="M35.515,42.915c0,0,16.34,0.828,18.659,0c9.717,3.353,17.09,0.368,17.09,0.368s-1.154-11.007-2.515-12.95
		c-5.44,1.555-39.645,2.332-51.694,0c-1.943,4.47-1.555,13.604,0,14.965C18.61,46.659,35.515,42.915,35.515,42.915z"/>
</g>
<g id="Cheveux_1_5_">
</g>
</svg>
