<?xml version="1.0" encoding="utf-8"?>
<!-- Generator: Adobe Illustrator 16.0.0, SVG Export Plug-In . SVG Version: 6.00 Build 0)  -->
<!DOCTYPE svg PUBLIC "-//W3C//DTD SVG 1.1//EN" "http://www.w3.org/Graphics/SVG/1.1/DTD/svg11.dtd">
<svg version="1.1" id="Calque_1" xmlns="http://www.w3.org/2000/svg" xmlns:xlink="http://www.w3.org/1999/xlink" x="0px" y="0px"
	 width="89px" height="73px" viewBox="0 0 89 73" enable-background="new 0 0 89 73" xml:space="preserve">
<rect fill="#FFFFFF" width="89" height="73"/>
<ellipse fill="#E9B4A9" cx="44.5" cy="62.353" rx="32.289" ry="7.362"/>
<g id="Cheveux_1_2_">
</g>
<g id="Cheveux_1_1_">
</g>
<g id="Cheveux_1_3_">
</g>
<g id="Cheveux_1_4_">
</g>
<g id="Calque_13">
	<g>
		<path fill="#675D51" d="M19.389,53.775c0,0-1.267,5.705,0,6.654c1.268,0.951,9.4,2.748,12.568,0c0,0,0.931-1.965,0-6.654
			C31.026,49.088,20.551,52.402,19.389,53.775z"/>
		<path fill="#675D51" d="M59.099,53.775c0,0-1.267,5.705,0,6.654c1.268,0.951,9.399,2.748,12.568,0c0,0,0.931-1.965,0-6.654
			C70.736,49.088,60.261,52.402,59.099,53.775z"/>
		<path fill="#7C7264" d="M18.227,24.444c0,0-5.442,7.788-4.217,9.618c1.226,1.83,2.933,5.351,2.08,6.196
			c-0.854,0.846-7.472,4.506-5.642,7.463s12.955,12.25,28.585,5.492c0,0,3.802-2.816,1.689-8.59
			c-2.112-5.774-5.21-2.395-4.365-4.365c0.845-1.971,9.686-8.562,5.949-13.583C38.571,21.655,18.227,24.444,18.227,24.444z"/>
		<path fill="#675D51" d="M16.96,41.631c0,0,12.461,5.387,18.165,0.633C35.23,46.277,28.05,50.291,16.96,41.631z"/>
		<path fill="#675D51" d="M36.393,35.716c0,0-12.462,5.387-18.165,0.634C18.122,40.363,26.936,41.525,36.393,35.716z"/>
		<path fill="#7C7264" d="M71.914,24.444c0,0,5.983,5.112,4.217,9.618c-0.804,2.051-2.933,5.351-2.079,6.196
			c0.854,0.846,6.274,5.955,4.443,8.912s-11.758,10.801-27.388,4.043c0,0-3.802-2.816-1.689-8.59
			c2.111-5.774,5.21-2.395,4.365-4.365c-0.845-1.971-7.785-8.562-4.049-13.583S71.914,24.444,71.914,24.444z"/>
		<path fill="#675D51" d="M73.181,41.631c0,0-12.462,5.387-18.165,0.633C54.91,46.277,62.092,50.291,73.181,41.631z"/>
		<path fill="#675D51" d="M53.748,35.716c0,0,12.463,5.387,18.165,0.634C72.02,40.363,63.206,41.525,53.748,35.716z"/>
	</g>
	<path fill="#675D51" d="M42.839,27.582c0,0,5.539,0.709,5.8,0.712s22.573-3.947,22.573-3.947s4.062-8.028,0.868-13.237
		c-17.065,4.013-35.688,1.743-53.253,0c-2.183,5.915-1.833,12.588-0.599,13.335L42.839,27.582z"/>
</g>
<g id="Cheveux_1_5_">
</g>
</svg>
