<?xml version="1.0" encoding="utf-8"?>
<!-- Generator: Adobe Illustrator 16.0.0, SVG Export Plug-In . SVG Version: 6.00 Build 0)  -->
<!DOCTYPE svg PUBLIC "-//W3C//DTD SVG 1.1//EN" "http://www.w3.org/Graphics/SVG/1.1/DTD/svg11.dtd">
<svg version="1.1" id="Calque_1" xmlns="http://www.w3.org/2000/svg" xmlns:xlink="http://www.w3.org/1999/xlink" x="0px" y="0px"
	 width="238.006px" height="227.919px" viewBox="0 0 238.006 227.919" enable-background="new 0 0 238.006 227.919"
	 xml:space="preserve">
<g>
	<rect x="24.562" y="23.075" opacity="0.14" fill="none" width="190" height="190"/>
	<path opacity="0.14" fill="#47A57B" d="M227.443,171.511c-2.938,10.089-18.518,22.258-18.518,22.258s-15.58-12.169-18.518-22.258
		c-0.308-0.968-0.476-1.996-0.476-3.067c0-5.594,4.535-10.128,10.13-10.128c4.248,0,7.515,2.616,8.843,6.322
		c0.005,0.003,0.021,0.007,0.021,0.007s0.015-0.004,0.02-0.007c1.328-3.706,4.595-6.322,8.844-6.322
		c5.594,0,10.13,4.534,10.13,10.128C227.919,169.515,227.749,170.543,227.443,171.511L227.443,171.511z"/>
	<path opacity="0.14" fill="#47A57B" d="M37.511,171.511c-2.938,10.089-18.518,22.258-18.518,22.258S3.414,181.6,0.475,171.511
		C0.168,170.543,0,169.515,0,168.443c0-5.594,4.536-10.128,10.131-10.128c4.247,0,7.514,2.616,8.843,6.322
		c0.005,0.003,0.019,0.007,0.019,0.007s0.015-0.004,0.02-0.007c1.328-3.706,4.596-6.322,8.844-6.322
		c5.594,0,10.13,4.534,10.13,10.128C37.986,169.515,37.816,170.543,37.511,171.511L37.511,171.511z"/>
	<path opacity="0.14" fill="#47A57B" d="M153.846,123.826l-20.701-23.288l7.764-10.35h25.875l7.762,10.35L153.846,123.826
		L153.846,123.826z M159.56,103.466l-5.714,0.953l-5.715-0.953l5.715,12.381L159.56,103.466L159.56,103.466z M159.667,100.861
		l1.938-0.323h-2.154L159.667,100.861L159.667,100.861z M162.363,102.999l-5.715,12.382l11.428-13.331L162.363,102.999
		L162.363,102.999z M151.041,115.381l-5.714-12.382l-5.714-0.949L151.041,115.381L151.041,115.381z M139.232,99.396l6.85,1.142
		l1.941,0.324l0.215-0.324h-2.156l-3.326-5.543L139.232,99.396L139.232,99.396z M144.789,94.069l3.676,6.131l4.086-6.131H144.789
		L144.789,94.069z M150.35,101.251l3.494,0.583l3.494-0.583l-3.494-5.24L150.35,101.251L150.35,101.251z M155.139,94.069
		l4.086,6.131l3.677-6.131H155.139L155.139,94.069z M164.935,94.993l-3.327,5.545l6.85-1.142L164.935,94.993L164.935,94.993z"/>
	<path opacity="0.14" fill="#47A57B" d="M149.02,212.726h-3.07c-0.297,1.045-0.703,2.041-1.221,2.97l2.152,2.153
		c0.994,0.994,0.994,2.606,0,3.601l-1.801,1.8c-0.993,0.994-2.604,0.994-3.6,0l-2.152-2.153c-0.93,0.519-1.926,0.926-2.971,1.223
		v3.07c0,1.396-1.133,2.53-2.533,2.53h-2.531c-1.398,0-2.532-1.134-2.532-2.53v-3.07c-1.082-0.307-2.11-0.738-3.067-1.283
		l-2.215,2.212c-0.992,0.994-2.604,0.994-3.599,0l-1.8-1.799c-0.996-0.994-0.996-2.605,0-3.602l2.25-2.25
		c-0.49-0.9-0.876-1.864-1.161-2.871h-3.07c-1.399,0-2.534-1.134-2.534-2.533v-2.531c0-1.399,1.135-2.534,2.534-2.534h3.07
		c0.296-1.045,0.703-2.04,1.222-2.97l-2.311-2.312c-0.996-0.994-0.996-2.605,0-3.6l1.8-1.799c0.994-0.996,2.606-0.996,3.599,0
		l2.312,2.312c0.93-0.52,1.926-0.927,2.97-1.224v-3.07c0-1.398,1.135-2.532,2.532-2.532h2.531c1.4,0,2.533,1.134,2.533,2.532v3.07
		c1.007,0.286,1.972,0.671,2.872,1.161l2.251-2.25c0.995-0.996,2.606-0.996,3.6,0l1.801,1.799c0.994,0.994,0.994,2.605,0,3.6
		l-2.212,2.215c0.544,0.957,0.975,1.985,1.28,3.067h3.071c1.397,0,2.533,1.133,2.533,2.534v2.531
		C151.553,211.592,150.418,212.726,149.02,212.726L149.02,212.726z M132.559,201.328c-4.194,0-7.598,3.401-7.598,7.598
		s3.403,7.599,7.598,7.599c4.196,0,7.598-3.402,7.598-7.599S136.756,201.328,132.559,201.328L132.559,201.328z"/>
	<path opacity="0.14" fill="#47A57B" d="M149.02,22.794h-3.07c-0.297,1.045-0.703,2.04-1.221,2.97l2.152,2.152
		c0.994,0.994,0.994,2.606,0,3.601l-1.801,1.8c-0.993,0.994-2.604,0.994-3.6,0l-2.152-2.152c-0.93,0.518-1.926,0.925-2.971,1.221
		v3.069c0,1.398-1.133,2.533-2.533,2.533h-2.531c-1.398,0-2.532-1.135-2.532-2.533v-3.069c-1.082-0.306-2.11-0.737-3.067-1.281
		l-2.215,2.212c-0.992,0.994-2.604,0.994-3.599,0l-1.8-1.8c-0.996-0.994-0.996-2.606,0-3.6l2.25-2.252
		c-0.49-0.9-0.876-1.864-1.161-2.87h-3.07c-1.399,0-2.534-1.135-2.534-2.534v-2.531c0-1.399,1.135-2.534,2.534-2.534h3.07
		c0.296-1.045,0.703-2.04,1.222-2.969l-2.311-2.312c-0.996-0.995-0.996-2.606,0-3.601l1.8-1.8c0.994-0.995,2.606-0.995,3.599,0
		l2.312,2.312c0.93-0.52,1.926-0.927,2.97-1.224v-3.07c0-1.398,1.135-2.532,2.532-2.532h2.531c1.4,0,2.533,1.134,2.533,2.532v3.07
		c1.007,0.286,1.972,0.671,2.872,1.162l2.251-2.251c0.995-0.995,2.606-0.995,3.6,0l1.801,1.8c0.994,0.994,0.994,2.605,0,3.601
		l-2.212,2.212c0.544,0.958,0.975,1.986,1.28,3.068h3.071c1.397,0,2.533,1.133,2.533,2.534v2.531
		C151.553,21.659,150.418,22.794,149.02,22.794L149.02,22.794z M132.559,11.396c-4.194,0-7.598,3.401-7.598,7.599
		c0,4.194,3.403,7.596,7.598,7.596c4.196,0,7.598-3.401,7.598-7.596C140.156,14.798,136.756,11.396,132.559,11.396L132.559,11.396z"
		/>
	<path opacity="0.14" fill="#47A57B" d="M89.479,153.842c-6.486,0-11.744-5.258-11.744-11.745v-13.42
		c0-6.487,5.258-11.746,11.744-11.746c6.488,0,11.744,5.259,11.744,11.746v13.42C101.222,148.584,95.967,153.842,89.479,153.842
		L89.479,153.842z M77.735,153.842v-11.745h23.487v11.745H77.735L77.735,153.842z M89.479,167.262c-1.853,0-3.356-1.503-3.356-3.355
		v-8.388h6.713v8.388C92.835,165.759,91.332,167.262,89.479,167.262L89.479,167.262z"/>
	<path opacity="0.14" fill="#47A57B" d="M18.95,73.438c-4.895,0-8.864-4.667-8.864-8.863c0-4.197,3.969-7.598,8.864-7.598
		c4.895,0,8.864,3.4,8.864,7.598C27.814,68.771,23.845,73.438,18.95,73.438L18.95,73.438z M29.08,62.043
		c-1.571,0-3.166,1.266-3.166,1.266c-1.048,0-1.899-0.567-1.899-1.266c0,0,3.376-2.533,5.065-2.533c1.688,0,5.064,2.533,5.064,2.533
		C34.145,65.419,30.768,62.043,29.08,62.043L29.08,62.043z M39.209,73.438c-4.895,0-8.864-4.667-8.864-8.863
		c0-4.197,3.969-7.598,8.864-7.598c4.895,0,8.863,3.4,8.863,7.598C48.073,68.771,44.105,73.438,39.209,73.438L39.209,73.438z
		 M22.109,53.165c-1.054,0-1.907-1.131-1.907-2.525c0-1.396,0.853-2.525,1.907-2.525c1.052,0,1.906,1.13,1.906,2.525
		C24.015,52.034,23.161,53.165,22.109,53.165L22.109,53.165z M10.086,63.309v-3.038l11.396-12.156h1.266L10.086,63.309
		L10.086,63.309z M35.411,48.114h1.266l11.396,12.156v3.038L35.411,48.114L35.411,48.114z M36.051,53.165
		c-1.053,0-1.906-1.131-1.906-2.525c0-1.396,0.854-2.525,1.906-2.525s1.907,1.13,1.907,2.525
		C37.957,52.034,37.104,53.165,36.051,53.165L36.051,53.165z"/>
	<path opacity="0.14" fill="#47A57B" d="M208.882,73.438c-4.895,0-8.864-4.667-8.864-8.863c0-4.197,3.97-7.598,8.864-7.598
		c4.896,0,8.864,3.4,8.864,7.598C217.746,68.771,213.777,73.438,208.882,73.438L208.882,73.438z M219.013,62.043
		c-1.571,0-3.166,1.266-3.166,1.266c-1.048,0-1.898-0.567-1.898-1.266c0,0,3.376-2.533,5.065-2.533c1.688,0,5.064,2.533,5.064,2.533
		C224.076,65.419,220.7,62.043,219.013,62.043L219.013,62.043z M229.142,73.438c-4.895,0-8.864-4.667-8.864-8.863
		c0-4.197,3.97-7.598,8.864-7.598c4.896,0,8.864,3.4,8.864,7.598C238.006,68.771,234.037,73.438,229.142,73.438L229.142,73.438z
		 M212.042,53.165c-1.054,0-1.907-1.131-1.907-2.525c0-1.396,0.854-2.525,1.907-2.525c1.052,0,1.905,1.13,1.905,2.525
		C213.947,52.034,213.094,53.165,212.042,53.165L212.042,53.165z M200.018,63.309v-3.038l11.396-12.156h1.267L200.018,63.309
		L200.018,63.309z M225.343,48.114h1.267l11.396,12.156v3.038L225.343,48.114L225.343,48.114z M225.982,53.165
		c-1.052,0-1.906-1.131-1.906-2.525c0-1.396,0.854-2.525,1.906-2.525c1.054,0,1.907,1.13,1.907,2.525
		C227.889,52.034,227.036,53.165,225.982,53.165L225.982,53.165z"/>
</g>
</svg>
