<?xml version="1.0" encoding="utf-8"?>
<!-- Generator: Adobe Illustrator 16.0.0, SVG Export Plug-In . SVG Version: 6.00 Build 0)  -->
<!DOCTYPE svg PUBLIC "-//W3C//DTD SVG 1.1//EN" "http://www.w3.org/Graphics/SVG/1.1/DTD/svg11.dtd">
<svg version="1.1" xmlns="http://www.w3.org/2000/svg" xmlns:xlink="http://www.w3.org/1999/xlink" x="0px" y="0px" width="600px"
	 height="22px" viewBox="0 0 600 22" enable-background="new 0 0 600 22" xml:space="preserve">
<g id="bg">
</g>
<g id="Calque_1">
	<g>
		<rect x="-2" y="7" fill="#A25552" width="604" height="16"/>
		<rect y="-1" fill="#D67563" width="639" height="17"/>
		<g opacity="0.4">
			<defs>
				<rect id="SVGID_1_" x="-20" opacity="0.4" width="718" height="16"/>
			</defs>
			<clipPath id="SVGID_2_">
				<use xlink:href="#SVGID_1_"  overflow="visible"/>
			</clipPath>
			<g opacity="0.2" clip-path="url(#SVGID_2_)">
				<path fill="#89271E" d="M43.024-28.433c-0.653-2.017-2.395-7.371-7.739-6.776C26.78-34.264,20.793-12.542,20.793-6.403
					c0,0.317,0.018,0.595,0.049,0.823c0.151,1.073,1.528,1.854,3.078,1.75c1.546-0.104,2.658-1.041,2.528-2.131
					c-0.702-5.031,5.417-22.323,9.379-25.137c0.39,0.459,1.029,1.452,1.702,3.522C43.055-10.612,25.442,6.818,25.264,6.992
					c-0.899,0.877-0.603,2.093,0.66,2.719c1.267,0.625,3.024,0.421,3.928-0.457C30.636,8.489,49.108-9.735,43.024-28.433z"/>
				<path fill="#89271E" d="M163.426-57.003c0.789-1.249,19.208-30.753,7.202-44.592c-0.804-0.925-2.535-1.223-3.865-0.669
					c-1.334,0.554-1.762,1.751-0.964,2.676c10.516,12.122-7.353,40.734-7.531,41.021c-0.164,0.253-0.238,0.519-0.238,0.78
					c0,0.751,0.631,1.468,1.69,1.789C161.144-55.567,162.802-56.017,163.426-57.003z"/>
				<path fill="#89271E" d="M169.007-17.741c-8.467-12.022-2.738-19.779-2.486-20.106c0.731-0.94,0.228-2.121-1.131-2.635
					c-1.363-0.516-3.078-0.167-3.822,0.776c-0.182,0.233-2.788,3.644-2.788,9.31c0,3.846,1.199,8.729,5.167,14.363
					c0.68,0.968,2.365,1.37,3.763,0.898C169.107-15.606,169.697-16.766,169.007-17.741z"/>
				<path fill="#89271E" d="M301.674-23.398c-0.763-3.882-7.973-38.007-26.272-41.002c-5.782-0.95-10.229,0.431-12.207,3.783
					c-0.744,1.265-1.087,2.782-1.087,4.433c0,6.809,5.812,15.906,13.146,18.966c3.202,1.339,5.705,1.449,7.433,0.331
					c1.061-0.686,4.27-2.76-4.779-14.929c-0.708-0.957-2.409-1.333-3.793-0.84c-1.382,0.491-1.933,1.668-1.212,2.626
					c2.698,3.632,4.912,7.556,5.478,9.562c-0.067-0.028-0.142-0.059-0.217-0.089c-6.681-2.788-12.501-13.908-9.755-18.586
					c0.638-1.08,1.813-2.1,5.693-1.462c10.968,1.794,19.311,24.097,21.99,37.731c0.211,1.066,1.63,1.816,3.171,1.671
					C300.804-21.348,301.869-22.322,301.674-23.398z"/>
				<path fill="#89271E" d="M327.034-74.021c0.414-1.037-0.454-2.114-1.954-2.403c-1.498-0.29-3.052,0.315-3.469,1.351
					c-2.008,4.977-14.131,5.064-14.254,5.064c-1.551,0.003-2.806,0.875-2.806,1.95c0,0.001,0,0.001,0,0.003
					c0.001,1.077,1.259,1.946,2.812,1.946C308.036-66.109,323.877-66.199,327.034-74.021z"/>
				<path fill="#89271E" d="M67.871-35.177c-2.838-3.655-10.427-14.154-11.433-18.814c-0.23-1.066-1.664-1.798-3.201-1.641
					c-1.398,0.145-2.401,0.977-2.401,1.927c0,0.095,0.011,0.192,0.032,0.29C52.226-47.13,62.475-33.891,62.91-33.33
					c0.736,0.949,2.444,1.305,3.815,0.794C68.096-33.046,68.604-34.231,67.871-35.177z"/>
				<path fill="#89271E" d="M432.539-46.869c0.97-1.47,0.982-3.109,0.037-4.751c-4.519-7.825-31.729-15.542-34.815-16.397
					c-1.444-0.4-3.083,0.089-3.66,1.088c-0.137,0.237-0.2,0.481-0.2,0.724c0,0.773,0.668,1.506,1.771,1.811
					c10.798,2.99,28.945,9.492,31.675,14.222c0.493,0.854,0.279,1.366,0.072,1.678c-0.93,1.402-2.279,2.113-4.246,2.235
					c-5.584,0.344-13.832-3.946-15.675-5.775c-0.889-0.885-2.644-1.101-3.921-0.487c-1.273,0.616-1.592,1.833-0.7,2.715
					c2.803,2.785,12.684,7.932,20.796,7.432C427.686-42.624,430.751-44.178,432.539-46.869z"/>
				<path fill="#89271E" d="M434.875-26.812c-0.146-1.301-1.168-3.08-5.186-4.166c-6.12-1.658-11.236-1.651-15.208,0.015
					c-5.347,2.243-6.588,6.718-6.874,8.536c-0.012,0.073-0.018,0.144-0.018,0.214c0,0.982,1.069,1.827,2.513,1.936
					c1.547,0.116,2.937-0.658,3.104-1.728c0.196-1.244,0.997-4.281,4.194-5.625c2.392-1.003,5.837-0.907,10.238,0.284
					c0.37,0.099,1.579,0.456,1.623,0.841c0.259,2.362-10.27,8.269-20.279,12.334c-1.342,0.542-1.787,1.736-1.005,2.667
					c0.786,0.93,2.513,1.24,3.853,0.697C417.406-13.068,435.541-20.993,434.875-26.812z"/>
				<path fill="#89271E" d="M451.117-65.977c-1.291-0.602-3.041-0.366-3.91,0.527c-0.325,0.335-0.479,0.713-0.479,1.087
					c0,0.626,0.435,1.244,1.243,1.619c19.196,8.946,13.838,40.894,13.777,41.218c-0.188,1.07,0.914,2.041,2.457,2.171
					c1.542,0.131,2.946-0.63,3.135-1.699C467.587-22.465,473.167-55.703,451.117-65.977z"/>
				<path fill="#89271E" d="M453.896-11.559c0,0.25,0.071,0.503,0.22,0.749c0.598,0.995,2.246,1.465,3.683,1.049
					c7.94-2.291,21.687-6.043,24.764-6.359c1.538-0.158,2.602-1.154,2.373-2.216c-0.229-1.063-1.659-1.801-3.198-1.644
					c-4.779,0.491-23.938,5.994-26.106,6.621C454.551-13.047,453.896-12.323,453.896-11.559z"/>
				<path fill="#89271E" d="M551.707-18.853c2.173-2.375,6.217-6.796,8.114-6.741c0.959,0.026,3.337,1.1,8.533,7.986
					c0.722,0.955,2.422,1.324,3.799,0.827c1.38-0.499,1.911-1.682,1.193-2.631c-5.45-7.225-9.055-9.956-13.286-10.077
					c-4.805-0.139-8.159,3.138-13.112,8.549c-7.935,8.666-37.629,18.16-37.928,18.255c-1.032,0.329-1.643,1.036-1.643,1.774
					c0,0.271,0.084,0.547,0.256,0.811c0.647,0.979,2.319,1.408,3.732,0.96C512.652,0.454,542.881-9.213,551.707-18.853z"/>
				<path fill="#89271E" d="M608.686,18.588v-4.29V1.494v-8.853V-15.6v-10.265v-4.644v-7.574v-8.112v-6.901v-5.039v-4.994v-7.152
					v-4.753v-10.338v-4.392v-7.838v-8.604c0-0.194-0.082-0.37-0.161-0.548c-0.347-0.792-1.365-1.379-2.62-1.379h-1.838H396.015
					h-8.954h-5.475h-5.823h-5.051h-14.037h-6.146h-73.444h-4.937h-9.188c-0.35-0.166-0.741-0.296-1.19-0.34
					c-0.731-0.07-1.426,0.071-1.988,0.34h-10.461h-4.252h-11.229h-6.176H99.138h-4.409H77.651h-4.389H42.064h-6.138h-6.65H22.53
					H0.396c-1.536,0-2.782,0.863-2.782,1.928v65.322v14.936v44.537c0,1.064,1.246,1.927,2.782,1.927h15.018h5.963h25.589h6.737
					h6.347h6.391h17.854h5.968h6.986h5.843h10.21h5.68h9.692h5.845h9.285h6.08h1.949h6.275h6.685h5.656h9.086h5.841h8.19h6.163
					h19.321h33.061h24.748h5.841h7.996h5.668h4.364h5.713h10.101h27.436h7.605h6.34h5.584h6.004h6.866h5.938h2.82h5.961h8.699h5.64
					h3.552h5.633h6.797h5.656h5.203h6.163h6.248h6.84h7.912h9.527h56.471h9.771h10.178h27.471h5.425h14.888h10.865h1.871
					C607.439,20.516,608.686,19.652,608.686,18.588z M603.121-66.389c-5.109-3.151-8.562-5.793-8.935-7.032
					c2.483-0.961,5.925-0.327,8.935,0.687V-66.389z M603.121-76.949c-3.909-0.995-8.432-1.365-12.296,0.38
					c-1.46,0.66-2.278,1.683-2.302,2.876c0,0.018,0,0.032,0,0.049c0,3.25,7.131,8.179,14.598,12.454v3.74
					c-4.192-2.926-9.392-5.866-15.831-8.513c-12.251-5.037-14.611-7.387-14.411-8.496c0.494-2.867,18.496-6.702,26.185-8.337
					c1.409-0.301,2.755-0.621,4.058-0.953V-76.949z M603.121-87.953c-1.796,0.509-3.672,0.995-5.714,1.43
					c-19.778,4.212-29.333,7.021-30.123,11.602c-0.032,0.195-0.049,0.392-0.049,0.586c0,3.867,6.612,7.384,17.18,11.727
					c8.253,3.392,14.293,7.335,18.706,11.028v7.93C585.54-60.003,552.307-80.402,495.27-81.518
					c-1.557-0.031-2.851,0.818-2.895,1.895c-0.003,0.019-0.003,0.039-0.003,0.057c0,1.051,1.209,1.918,2.738,1.948
					c60.143,1.177,92.694,24.647,108.011,40.727v4.168c-35.328-38.637-111.021-43.34-161.385-46.465
					c-16.068-0.996-29.942-1.856-38.332-3.635c-32.809-6.953-38.144-17.578-38.974-21.457h6.048
					c0.414,1.965,1.604,4.545,4.685,7.214c9.686,8.392,31.629,12.754,65.22,12.965c12.726,0.081,26.093,0.386,39.018,0.68
					c52.302,1.199,102.246,2.329,123.721-10.042V-87.953z M564.329-104.279c-14.027,1.871-45.353,5.164-91.965,5.164
					c-35.886,0-54.522-2.793-63.895-5.164H564.329z M396.479-104.279c4.48,2.671,20.942,9.065,75.885,9.065
					c65.49,0,100.36-6.286,101.812-6.552c1.503-0.277,2.397-1.348,1.998-2.386c-0.018-0.047-0.068-0.08-0.09-0.126h18.677
					c-13.286,8.553-55.597,15.73-172.411,9.8c-21.489-1.09-29.878-6.19-33.148-9.8H396.479z M479.586-87.315
					c-12.959-0.299-26.36-0.604-39.152-0.684c-39.37-0.248-54.75-6.322-60.721-11.375c-2.17-1.837-3.109-3.557-3.52-4.906h6.681
					c2.867,4.587,11.729,12.3,39.064,13.688c106.546,5.41,165.62,0.927,180.231-13.688h0.951v5.204
					C586.292-84.882,532.159-86.114,479.586-87.315z M231.853-104.279c1.275,11.034-5.96,23.899-12.073,28.591
					c-1.588,1.221-2.604,1.485-2.747,1.498c-0.007-0.001-0.794-0.387-1.306-2.462c-2.436-9.989,9.333-22.475,14.807-27.627H231.853z
					 M3.181-104.279h16.892c-4.182,7.674-7.556,19.542-8.044,26.474c-0.575,8.247-5.501,12.392-8.848,14.278V-104.279z
					 M3.181-58.861c3.282-1.188,13.577-5.909,14.475-18.756c0.692-9.858,5.217-20.96,8.448-26.662h7.035
					c-4.344,6.519-10.719,18.663-9.365,32.257c0.856,8.414-4.235,12-11.267,16.971c-3,2.118-6.275,4.444-9.325,7.393V-58.861z
					 M69.334,16.661c4.062-6.501,5.536-13.938,6.566-19.276c0.306-1.573,0.655-3.382,1.026-4.715
					c1.889,3.503,2.367,11.55,1.625,18.394c-0.099,1.036,1.045,2.012,2.597,2.092c1.551,0.08,2.904-0.724,3.02-1.799
					c0.346-3.181,1.736-19.247-4.885-23.164c-1.822-1.078-3.461-0.878-4.275-0.663c-3.037,0.803-3.591,3.656-4.688,9.337
					c-1.075,5.549-2.643,13.495-7.194,19.794H56.85C62.387,9.334,68.74-2.375,67.543-16.692c-0.435-5.333,0.924-7.876,2.343-8.481
					c1.081-0.455,2.828,0.117,3.77,0.5c6.74,2.726,16.124,13.194,15.653,23.307c-0.437,8.426-1.89,14.226-3.301,18.028H69.334z
					 M94.937-1.226c0.563-11.14-9.243-23.097-18.439-26.816c-4.731-1.914-8.017-1.106-9.554-0.456
					c-3.859,1.637-5.561,5.688-5.023,12.029c1.189,14.54-6.154,26.452-11.561,33.129H19.718c-3.333-9.016-6.922-28.024,9.363-49.709
					c0.725-0.958,0.181-2.133-1.201-2.627c-1.377-0.497-3.079-0.126-3.795,0.83C14.078-21.523,11.131-9.242,11.131,0.609
					c0,6.581,1.317,12.062,2.723,16.052H3.181V-9.947c0.882-0.254,1.577-0.786,1.723-1.491c5.363-25.61,14.08-30.878,18.799-31.74
					c6.301-1.152,12.272,4.067,12.388,4.168c0.948,0.851,2.714,1.01,3.945,0.356c1.228-0.655,1.466-1.875,0.518-2.734
					c-0.335-0.3-8.312-7.366-18.26-5.566c-8.271,1.495-14.58,8.403-19.114,20.989v-13.993c3.728-5.557,8.727-9.096,13.347-12.361
					c7.142-5.05,13.875-9.824,12.864-19.971c-1.411-13.892,6.071-26.454,10.006-31.989h14.849
					c-19.194,13.977-17.475,43.611-6.881,67.432c11.186,25.135-14.001,49.441-14.259,49.683c-0.364,0.348-0.539,0.75-0.539,1.149
					c0,0.602,0.4,1.194,1.154,1.576c1.255,0.634,3.018,0.446,3.932-0.422c1.112-1.054,27.107-26.109,15.098-53.131
					c-12.292-27.647-9.395-54.243,7.035-64.683c0.672-0.427,0.931-1.021,0.86-1.604h7.442c-5.672,4.9-13.571,14.122-13.571,27.586
					c0,5.998,1.574,12.836,5.614,20.495c6.278,11.885,15.05,20.882,22.789,28.821C96.27-13.682,106.961-2.69,98.955,16.661h-7.139
					C93.209,12.584,94.52,6.786,94.937-1.226z M104.785,16.661c7.903-20.442-3.788-32.467-17.195-46.219
					c-7.557-7.753-16.125-16.542-22.167-27.98c-14.399-27.292,4.084-42.668,10.09-46.741h13.293
					c-7.019,5.22-17.12,15.231-17.12,29.75c0,7.897,2.993,17.119,11.11,27.606c5.398,6.974,12.191,7.704,16.938,7.088
					c15.46-2.002,31.061-21.447,33.671-36.211c1.621-9.115-1.856-15.525-9.778-18.031c-12.751-4.037-24.142-3.54-32.07,1.402
					c-10.091,6.285-12.396,18.38-6.01,31.557c3.543,7.319,9.012,8.55,12.979,8.295c10.479-0.678,19.708-12.527,21.213-20.07
					c1.024-5.142-1.18-8.817-6.051-10.117c-7.756-2.061-12.561-0.33-15.227,1.487c-5.912,4.027-6.17,11.642-4.09,15.593
					c0.538,1.012,2.154,1.53,3.616,1.161c1.458-0.369,2.208-1.489,1.677-2.501c-1.521-2.876-1.204-8.779,2.75-11.475
					c2.191-1.493,5.22-1.697,9.251-0.625c3.043,0.809,2.863,4.07,2.497,5.942c-1.483,7.42-10.092,16.329-16.159,16.72
					c-3.511,0.226-5.809-2.947-7.114-5.65c-5.57-11.497-3.832-22.264,4.436-27.418c6.155-3.836,15.376-4.104,25.959-0.754
					c7.423,2.349,7.282,9.788,6.529,14.01c-2.556,14.464-17.519,31.351-29.111,32.852c-1.574,0.204-6.355,0.825-10.939-5.096
					c-25.111-32.431,1.409-51.079,9.011-55.515h33.663c0.111,0.487,0.479,0.946,1.089,1.264c4.687,2.43,7.495,6.558,8.349,12.271
					c2.602,17.443-14.315,45.541-23.763,52.959c-10.551,8.277-19.513,4.875-19.932,4.709c-1.331-0.545-3.045-0.247-3.848,0.669
					c-0.274,0.314-0.404,0.663-0.404,1.005c0,0.662,0.485,1.305,1.362,1.673c0.13,0.053,13.25,5.345,27.046-5.476
					c10.259-8.055,27.91-37.212,25.14-55.94c-0.837-5.625-3.421-10.015-7.637-13.134h9.426
					c20.584,23.026-11.717,60.726-25.622,76.941l-0.63,0.732c-7.187,8.389-8.979,20.91-8.979,31.316
					c0,4.574,0.345,8.724,0.733,11.951H104.785z M138.245,3.094c0.655,3.904,1.787,9.145,3.614,13.567h-8.771
					c-3.771-10.992-5.542-23.291,0.361-25.227c3.394-1.111,7.387,1.282,9.464,2.809c7.254,5.329,12.71,15.444,10.944,22.418h-6.09
					c-1.549-3.6-3.041-8.741-3.928-14.017c-0.179-1.07-1.58-1.835-3.123-1.711C139.172,1.058,138.037,2.015,138.245,3.094z
					 M170.845,16.661c1.612-29.772-31.16-41.129-31.512-41.247c-1.398-0.468-3.078-0.062-3.758,0.904
					c-0.192,0.272-0.284,0.565-0.284,0.85c0,0.723,0.583,1.417,1.583,1.756c1.291,0.436,29.99,10.519,28.342,37.737h-5.632
					c1.741-8.686-5.137-19.632-12.571-25.093c-5.399-3.966-11.073-5.266-15.973-3.659c-5.287,1.732-7.044,6.559-7.044,12.219
					c0,5.412,1.608,11.585,3.28,16.533h-8.828c-1.204-10.048-2.144-30.132,7.409-41.276l0.626-0.732
					c14.046-16.377,46.174-53.866,27.269-78.932h25.665c12.741,40.882-14.717,55.719-20.353,58.283
					c-9.454,4.298-16.392,14.971-16.684,15.424c-0.165,0.257-0.242,0.527-0.242,0.791c0,0.748,0.623,1.461,1.673,1.782
					c1.418,0.438,3.086-0.003,3.715-0.987c0.067-0.099,6.542-10.071,14.628-13.749c6.137-2.787,35.877-18.798,23.002-61.543h24.539
					c-4.719,4.282-10.975,13.002-11.299,29.316c-0.331,16.75-6.47,20.801-14.24,25.933c-3.467,2.289-7.395,4.885-11.204,8.78
					c-0.328,0.336-0.485,0.718-0.485,1.091c0,0.625,0.434,1.24,1.239,1.618c1.287,0.604,3.038,0.369,3.91-0.521
					c3.47-3.55,7.009-5.886,10.425-8.146c8.385-5.534,15.624-10.314,15.987-28.702c0.412-20.841,10.965-28.014,13.349-29.369h6.227
					c-5.667,5.732-13.838,15.585-13.838,24.835c0,1.162,0.129,2.313,0.41,3.447c1.39,5.659,5.803,5.831,7.634,5.643
					c9.447-0.968,21.192-19.156,19.675-33.926h6.7c-1.925,23.937-25.295,41.686-44.26,56.032
					c-9.193,6.956-17.134,12.963-21.285,18.629c-3.999,5.461-5.4,12.452-5.4,19.572c0,9.937,2.727,20.105,4.933,26.707H170.845z
					 M197.458,16.661c-6.31-11.491-16.02-36.352,7.593-50.887c15.976-9.844,33.406-1.357,40.157,2.748
					c16.803,10.216,28.871,29.702,19.221,39.503c-3.695,3.764-8.458,6.695-13.745,8.636h-12.705
					c6.893-0.922,12.436-3.937,15.498-8.589c4.569-6.926,4.084-18.823-10.958-31.45c-9.027-7.575-19.346-10.28-28.31-7.417
					c-12.162,3.886-18.055,16.872-14.298,31.574c1.66,6.527,5.688,11.979,11.48,15.882H197.458z M218.616-8.542
					c-2.062,4.085,1.742,14.592,8.971,17.334c1.9,0.722,6.875,1.908,12.032-2.629c7.339-6.445,2.917-17.537-5.642-23.461
					c-6.012-4.16-12.879-4.856-18.374-1.857c-8.178,4.469-8.307,14.766-4.213,22.635c3.787,7.259,10.402,11.97,18.185,13.181h-9.043
					c-7.798-3.166-13.138-8.936-15.079-16.561c-3.673-14.445,2.809-24.704,11.114-27.354c6.552-2.092,14.226,0.167,21.605,6.359
					c13.403,11.249,13.857,21.761,10.182,27.347c-2.74,4.159-7.869,6.512-14.44,6.627c-10.603,0.185-15.863-8.316-17.225-10.926
					c-3.921-7.51-2.885-15.358,2.401-18.247c4.215-2.3,8.643-0.015,10.905,1.553c6.729,4.657,10.463,13.66,5.198,18.291
					c-2.764,2.434-4.316,1.845-4.899,1.623c-4.479-1.697-7.696-10-6.361-12.626c0.509-1.017-0.262-2.127-1.728-2.486
					C220.735-10.093,219.129-9.558,218.616-8.542z M260.7,16.661c3.123-1.813,5.96-3.972,8.386-6.441
					c11.74-11.933-1.206-33.101-20.161-44.628c-16.406-9.974-34.209-10.994-47.62-2.73c-12.982,7.995-17.081,18.476-17.081,28.536
					c0,9.698,3.81,18.978,7.151,25.265h-7.39c-3.596-10.585-9.26-32.308-0.323-44.517c3.806-5.189,11.502-11.013,20.419-17.757
					c19.639-14.855,43.854-33.25,45.744-58.666h8.118c-2.218,7.875-10.773,32.597-34.879,51.683
					c-0.467,0.37-0.696,0.827-0.696,1.284c0,0.542,0.324,1.081,0.962,1.469c1.174,0.708,2.952,0.626,3.975-0.185
					c26.09-20.658,34.459-46.851,36.388-54.25h6.701c-3.646,8.509-13.274,30.688-20.96,45.713c-0.886,1.729-1.284,3.378-1.284,4.971
					c0,6.114,5.852,11.422,12.413,17.373c12.349,11.194,27.566,25.012,17.764,52.882H260.7z M284.116,16.661
					c9.736-29.092-6.804-44.123-19.076-55.25c-7.871-7.138-13.565-12.296-10.298-18.675c8.092-15.811,18.304-39.465,21.528-47.015
					h12.106c-4.635,3.292-12.218,9.854-12.601,17.84c-0.01,0.21-0.013,0.422-0.013,0.632c0,5.779,3.838,11.162,11.425,16.009
					c24.676,15.764,29.689,46.517,15.426,57.965c-11.082,8.896-12.434,21.56-12.224,28.494H284.116z M305.293,16.661
					c-1.662-7.565-0.704-19.285,17.181-26.461c6.183-2.481,11.58-2.679,16.043-0.587c6.537,3.066,10.287,10.967,8.735,18.352
					c-0.767,3.63-2.708,6.604-5.547,8.697h-1.788c0.581-0.395,1.144-0.835,1.663-1.359c5.093-5.135,6.423-15.896,0.654-20.667
					c-2.02-1.668-6.672-4.074-15.161-1.413c-14.266,4.469-18.577,15.424-14.384,23.002c0.081,0.147,0.18,0.29,0.27,0.437H305.293z
					 M325.861,1.787c-3.611,1.926-5.529,5.368-4.767,8.552c0.388,1.631,1.791,4.302,6.346,6.321h-8.138
					c-0.515-0.554-0.98-1.153-1.354-1.832c-3.292-5.95,0.521-14.63,11.444-18.055c5.861-1.836,7.863-0.181,8.521,0.363
					c4.047,3.344,2.841,12.103-0.979,15.958c-1.133,1.144-2.219,1.6-3.226,1.361c-4.11-0.973-6.552-2.617-7.059-4.749
					c-0.416-1.781,0.662-3.774,2.644-4.827c1.23-0.659,1.467-1.881,0.516-2.734C328.864,1.291,327.096,1.133,325.861,1.787z
					 M360.547,16.661c5.641-9.24,10.009-23.899-6.767-36.42c-14.588-10.887-22.108-21.764-21.188-30.567
					c0.557-5.31,4.07-9.805,10.444-13.361c7.341-4.097,16.507,1.345,20.106,3.875c11.54,8.106,18.942,22.547,11.187,29.019
					c-3.87,3.225-8.6,3.839-14.063,1.829c-9.983-3.673-19.159-15.319-15.64-23.653c1.184-2.799,3.069-2.938,3.688-2.985
					c4.214-0.31,11.436,3.914,15.454,9.04c3.093,3.941,3.618,7.416,1.409,9.302c-1.267,1.08-2.42,1.628-3.166,1.503
					c-2.478-0.419-5.564-5.471-6.894-9.928c-0.315-1.052-1.806-1.733-3.327-1.515c-1.522,0.217-2.513,1.255-2.19,2.301
					c0.577,1.945,3.822,11.701,11.075,12.928c2.113,0.359,5.37,0.157,8.873-2.831c3.756-3.201,3.45-8.165-0.83-13.621
					c-4.527-5.777-13.429-11.615-21.002-11.055c-2.334,0.17-6.544,1.15-8.497,5.766c-4.325,10.269,6.527,23.818,18.403,28.192
					c7.804,2.873,15.472,1.859,21.04-2.781c10.036-8.372,1.988-24.766-11.507-34.249c-9.737-6.84-20.074-8.401-27.653-4.173
					c-7.531,4.202-11.863,9.773-12.526,16.117c-0.062,0.597-0.093,1.196-0.093,1.807c0,9.629,7.824,20.54,22.766,31.69
					c15.819,11.812,10.413,25.679,4.882,33.771h-5.811c2.018-2.285,3.446-5.011,4.104-8.134c1.875-8.922-2.811-18.233-11.152-22.144
					c-4.401-2.064-11.798-3.663-22.025,0.441c-16.42,6.592-20.404,16.598-20.404,24.768c0,1.8,0.197,3.504,0.495,5.069h-3.678
					c-0.178-6.341,0.996-18.062,10.816-25.946c16.13-12.942,11.325-46.003-15.868-63.377c-6.598-4.215-9.866-8.8-9.601-13.628
					c0.437-9.488,13.896-17.156,14.03-17.231c0.37-0.206,0.608-0.473,0.782-0.757h5.417c-7.655,3.773-13.62,10.318-14.271,16.487
					c-0.041,0.391-0.062,0.776-0.062,1.154c0,5.529,4.334,9.954,12.345,12.538c11.751,3.796,17.076,0.517,19.205-1.773
					c4.768-5.136,1.896-14.312-3.8-17.68c-2.968-1.759-6.681-2.276-10.184-1.421c-3.814,0.933-6.752,3.301-7.49,6.039
					c-0.662,2.49,0.633,4.934,3.583,6.678c1.181,0.701,2.962,0.604,3.969-0.212c1.009-0.815,0.875-2.048-0.307-2.75
					c-1.439-0.852-2.018-1.862-1.706-3.002c0.364-1.349,1.934-2.613,3.823-3.074c1.625-0.399,3.188-0.162,4.652,0.708
					c3.761,2.222,5.845,9.238,2.721,12.603c-2.014,2.171-6.082,2.29-12.084,0.351c-6.479-2.088-9.516-5.415-9.048-9.876
					c0.686-6.522,9.008-13.841,17.8-15.661c5.175-1.072,12.951,3.224,18.084,9.994c5.886,7.76,8.451,19.225-3.706,25.98
					c-16.074,8.935-2.504,37.797-0.903,41.054c0.501,1.021,2.098,1.566,3.57,1.221c1.473-0.347,2.258-1.451,1.763-2.473
					c-3.992-8.146-11.938-30.628-0.902-36.762c14.823-8.238,12.046-21.759,5.168-30.834c-3.027-3.989-6.814-7.167-10.795-9.29
					h12.834c-0.007,0.059-0.045,0.107-0.045,0.164c0,0.077,0.007,0.152,0.02,0.23c0.111,0.656,2.926,16.158,19.942,26.301
					c15.549,9.278,34.84,20.788,34.84,39.688c0,0.296-0.005,0.592-0.014,0.892c-0.317,9.879-6.221,12.295-11.934,14.63
					c-5.069,2.071-10.808,4.421-8.207,11.816c2.832,8.04-1.652,19.97-5.068,27.218H360.547z M392.821,16.661
					c2.52-6.01,5.812-15.678,7.344-27.981c2.556-20.417,5.092-22.804,24.675-23.226c6.83-0.146,11.645,2.02,13.208,5.942
					c2.162,5.404-2.19,13.386-14.665,18.192c-17.138,6.606-21.847,19.737-23.136,27.073H392.821z M405.953,16.661
					c1.323-6.673,5.718-18.095,20.169-23.664c15.015-5.785,20.102-15.762,17.356-22.641c-2.281-5.713-9.313-9.003-18.812-8.8
					c-24.196,0.52-27.497,5.88-30.111,26.789c-1.576,12.657-5.147,22.601-7.624,28.316h-2.903
					c3.464-8.312,7.826-22.281,1.245-28.385c-0.933-0.864-2.696-1.042-3.944-0.397c-1.246,0.642-1.5,1.869-0.572,2.729
					c5.018,4.655,0.965,17.691-2.612,26.054h-6.773c3.515-7.724,7.611-19.585,4.601-28.143c-1.614-4.586,0.647-5.509,5.6-7.537
					c6.039-2.466,14.312-5.849,14.699-17.896c0.619-21.345-20.091-33.667-36.848-43.666c-14.929-8.898-17.806-22.967-17.943-23.698
					h7.785c-0.09,0.574-0.146,1.175-0.146,1.815c0,5.147,3.326,12.303,17.161,19.799c7.761,4.208,18.239,7.377,29.337,10.734
					c24.479,7.407,52.224,15.799,55.69,37.957c2.563,16.354-7.63,21.799-19.422,28.122c-9.354,5.015-19.799,10.627-22.385,22.513
					H405.953z M546.65,16.661c-0.844-0.292-1.358-0.601-1.596-0.878c-0.113-0.129-0.414-0.473,0.297-1.225
					c1.712-1.81,7.805-4.021,15.993-3.271c1.541,0.142,2.958-0.609,3.16-1.675c0.205-1.079-0.881-2.05-2.42-2.19
					c-10.098-0.928-18.434,1.814-21.448,5c-1.31,1.389-1.658,2.876-1.094,4.239h-9.396c1.457-5.438,7.231-16.024,30.186-15.543
					c11.622,0.24,21.225,5.575,21.421,9.831c0.19,2.562-3.386,4.544-9.739,5.712H546.65z M587.385,10.823
					C587.062,3.989,574.25-2.495,560.5-2.782c-19.771-0.414-33.216,6.853-36.057,19.443H510.67c4.03-0.406,6.387-0.733,6.608-0.765
					c1.524-0.218,2.497-1.236,2.192-2.303c-0.312-1.054-1.801-1.733-3.325-1.518c-0.128,0.018-13.066,1.829-32.145,2.279
					c-7.135,0.166-12.427,1.119-16.358,2.306h-9.757c6.251-2.825,16.396-5.356,32.743-5.356c19.646,0,33.478-6.544,45.683-12.32
					c12.357-5.847,22.116-10.465,33.831-5.986c16.015,6.121,22.276,15.19,21.278,20.993c-0.144,0.848-0.487,1.788-1.152,2.669
					h-6.362C586.994,14.513,587.449,12.196,587.385,10.823z M597.014,14.443c1.208-7.061-5.861-17.868-24.148-24.856
					c-14.753-5.641-26.885,0.099-39.729,6.178c-11.534,5.458-24.603,11.64-42.507,11.64c-23.239,0-35.394,4.912-41.603,9.256h-7.188
					c4.8-4.486,13.669-9.741,29.642-11.399c24.087-2.496,58.875-15.617,69.383-29.439c3.894-5.124,4.319-10.163,1.22-14.566
					c-0.68-0.968-2.368-1.37-3.766-0.9c-1.394,0.472-1.979,1.631-1.298,2.61c2.314,3.282,1.93,7-1.142,11.039
					c-9.746,12.822-42.476,25.042-65.23,27.399c-20.585,2.134-30.779,9.718-35.586,15.256h-6.669
					c2.893-5.846,11.317-14.586,35.676-19.801c26.61-5.698,59.146-16.823,63.271-29.436c0.982-2.985,0.719-7.478-6.104-11.837
					c-11.745-7.507-26.688-10-37.184-6.199c-8.412,3.047-12.27,9.645-10.558,18.088c1.487,7.403,7.244,10.273,11.809,11.378
					c8.97,2.171,19.83-0.753,25.926-4.767c4.4-2.896,6.193-6.277,4.928-9.273c-2.748-6.526-12.665-9.79-20.203-8.747
					c-5.257,0.73-10.493,3.852-9.43,10.433c0.26,1.61,1.057,6.511,5.988,7.354c5.202,0.889,10.146-3.669,11.534-5.087
					c0.87-0.89,0.54-2.101-0.746-2.706c-1.286-0.606-3.035-0.376-3.912,0.514c-1.942,1.973-4.666,3.568-5.506,3.498
					c-0.014-0.004-1.193-0.509-1.761-4.009c-0.391-2.442,0.137-5.506,4.938-6.17c4.975-0.691,11.888,1.734,13.689,6.015
					c0.664,1.555-0.585,3.499-3.401,5.354c-4.803,3.162-13.668,5.488-20.188,3.91c-4.487-1.085-7.208-3.855-8.091-8.233
					c-1.376-6.833,1.328-11.825,7.594-14.094c8.261-2.992,20.904-0.687,30.75,5.607c3.943,2.521,5.391,5.18,4.433,8.111
					c-2.866,8.766-27.31,19.692-59.44,26.572C434.188-0.825,425.278,9.859,422.5,16.661h-7.297
					c2.418-9.91,11.049-14.561,20.129-19.43c12.031-6.449,24.466-13.132,21.573-31.623c-3.818-24.406-33.152-33.281-59.034-41.111
					c-10.761-3.255-20.925-6.33-28.121-10.23c-14.186-7.69-15.752-14.501-14.924-18.546h3.901
					c0.662,4.779,6.041,17.349,43.027,25.186c8.95,1.896,23.099,2.773,39.479,3.791c51.512,3.195,130.287,8.092,161.888,50.832
					v8.678c-25.876-34.35-74.589-44.688-74.916-44.747c-33.297-9.268-97.903-12.505-100.637-12.636
					c-1.552-0.077-2.898,0.734-3.006,1.807c-0.005,0.047-0.008,0.093-0.008,0.14c0,1.014,1.134,1.869,2.618,1.941
					c0.662,0.033,66.451,3.325,99.185,12.427c0.564,0.119,54.004,11.521,76.764,50.36v7.462c-4.61-8.162-12.531-18.534-26.157-30.34
					c-33.028-28.611-100.305-31.202-103.152-31.3c-1.553-0.052-2.874,0.777-2.952,1.853c-0.002,0.032-0.002,0.065-0.002,0.098
					c0,1.031,1.171,1.894,2.678,1.946c0.673,0.023,67.569,2.587,99.028,29.836C594.808-7.677,601.793-0.85,603.667,6.576
					l-0.546,10.084h-6.812C596.624,15.958,596.88,15.227,597.014,14.443z"/>
			</g>
		</g>
	</g>
</g>
</svg>
