<?xml version="1.0" encoding="utf-8"?>
<!-- Generator: Adobe Illustrator 16.0.0, SVG Export Plug-In . SVG Version: 6.00 Build 0)  -->
<!DOCTYPE svg PUBLIC "-//W3C//DTD SVG 1.1//EN" "http://www.w3.org/Graphics/SVG/1.1/DTD/svg11.dtd">
<svg version="1.1" xmlns="http://www.w3.org/2000/svg" xmlns:xlink="http://www.w3.org/1999/xlink" x="0px" y="0px" width="176px"
	 height="315px" viewBox="0 0 176 315" enable-background="new 0 0 176 315" xml:space="preserve">
<g id="Base" display="none">
	<g display="inline">
		<path fill="#E1A898" d="M124.879,83.748c0,4.915,2.541,8.898,5.674,8.898c3.132,0,5.677-3.983,5.677-8.898
			c0-4.919-2.545-8.902-5.677-8.902C127.42,74.846,124.879,78.829,124.879,83.748z"/>
		<linearGradient id="SVGID_1_" gradientUnits="userSpaceOnUse" x1="90.5264" y1="105.9463" x2="91.6965" y2="60.6102">
			<stop  offset="0.0917" style="stop-color:#FFE3BB"/>
			<stop  offset="1" style="stop-color:#F4DEBB"/>
		</linearGradient>
		<path fill="url(#SVGID_1_)" d="M129.279,77.328c0.06-1.479-0.246-3.014-0.824-4.584c-0.844-5.094-4.696-24.55-23.499-29.202
			C85.333,38.69,53.619,41.97,53.077,81.468c-0.017,1.297,0.037,2.468,0.182,3.541c-0.038,1.152-0.02,2.302,0.051,3.437
			c0.125,2.039,0.031,2.893-0.233,2.854c0.362,6.563,1.194,12.566,1.194,12.566c25.604,15.319,67.786,3.446,71.508-0.274
			C129.497,99.868,129.279,77.328,129.279,77.328z"/>
		<path fill="#E1A898" d="M47.636,85.476c0,4.916,2.537,8.901,5.67,8.901c3.134,0,5.677-3.985,5.677-8.901s-2.543-8.903-5.677-8.903
			C50.173,76.572,47.636,80.56,47.636,85.476z"/>
		<path opacity="0.5" fill="#FFFFFF" d="M100.407,87.917c0,0.987-4.184,1.782-9.346,1.782c-5.157,0-9.342-0.795-9.342-1.782
			c0-0.984,4.185-1.782,9.342-1.782C96.223,86.135,100.407,86.933,100.407,87.917z"/>
		<path fill="#E1A898" d="M82.233,64.329c-8.756,5.007-10.56,9.606-10.56,18.016c0,14.027,13.751,25.865,31.194,25.865
			c10.134,0,19.148-3.839,24.928-9.808c-0.493,2.404-1.146,4.316-2.016,5.188c-3.723,3.721-45.904,15.594-71.508,0.274
			c0,0-2.18-15.681-1.008-24.068c-0.04,0.011-0.079,0.026-0.122,0.034c1.163-31.506,22.8-39.003,41.183-37.897
			c0.236-0.175,0.376-0.281,0.376-0.281s0.201,0.122,0.551,0.334c0.262,0.022,0.519,0.05,0.778,0.073
			c0.033-0.024,0.088-0.063,0.12-0.09c0.082,0.039,0.179,0.085,0.263,0.125c2.996,0.288,5.883,0.792,8.543,1.447
			c14.314,3.541,19.959,15.657,22.213,23.49c2.116,5.845,2.586,8.313,2.453,11.553C129.622,78.585,117.402,50.208,82.233,64.329z"/>
		<path fill="#5D413A" d="M109.399,78.585c0,0,1.201-1.694,3.064-0.603c1.858,1.097,1.422,7.007,0.657,8.101
			c-0.767,1.093-2.407,1.532-3.721,0C108.085,84.553,108.521,80.056,109.399,78.585z"/>
		<path fill="#5D413A" d="M69.641,79.551c0,0,1.202-1.692,3.064-0.597c1.858,1.092,1.423,6.999,0.657,8.096
			c-0.77,1.093-2.409,1.532-3.721,0C68.327,85.516,68.765,81.026,69.641,79.551z"/>
		<path fill="none" stroke="#F3726C" stroke-linecap="round" stroke-miterlimit="10" d="M108.476,93.523
			c0,0-5.431,3.23-14.388,3.988c-12.36,1.046-15.135-0.628-20.13-2.017"/>
		<path fill="#F3726C" d="M119.943,89.254c0,0,1.905,0.192,2.914,0c1.008-0.192,1.382-2.204,0-2.593
			c-1.57-0.436-3.697-0.188-4.254,0C118.04,86.854,115.575,88.681,119.943,89.254z"/>
		<path fill="#F3726C" d="M62.767,89.254c0,0-1.9,0.192-2.909,0c-1.01-0.192-1.386-2.204,0-2.593c1.569-0.436,3.696-0.188,4.253,0
			C64.674,86.854,67.139,88.681,62.767,89.254z"/>
		<path fill="#E1A898" d="M54.271,103.865c0,0-0.328-2.371-0.652-5.641c4.271,4.131,14.422,9.985,35.775,9.985
			c32.865,0,38.406-9.849,38.412-9.85c-0.495,2.426-0.769,4.351-1.647,5.23C122.44,107.312,79.875,119.185,54.271,103.865z"/>
		<path fill="#E1A898" d="M64.499,199.804c0,0-0.051,31.889,0.239,33.406c0.286,1.522-1.965,39.083,1.817,40.448
			c3.784,1.364,7.373-25.073,7.171-35.376c-0.139-7.217,3.337-38.479,3.337-38.479H64.499z"/>
		<path fill="#E1A898" d="M119.88,198.822c0,0,0.745,32.87,0.458,34.388c-0.289,1.522,1.964,39.083-1.819,40.448
			c-3.784,1.364-7.374-25.073-7.172-35.376c0.144-7.217-3.218-36.482-3.218-36.482L119.88,198.822z"/>
		<path fill="#F4DEBB" d="M127.909,116.199c0,0,20.897,4.341,29.07,37.606l8.753,1.677c0,0-12.245-42.591-40.696-49.016
			C112.302,103.591,127.909,116.199,127.909,116.199z"/>
		<path fill="#F4DEBB" d="M156.979,153.806c0,0-4.924,6.576-4.594,7.89c0.326,1.313,0.419,7.221,2.289,6.458
			c1.866-0.767,2.777-7.662,2.777-7.662s2.263,10.068,0.403,13.021c-1.858,2.953,10.831,7.766,12.146-3.503
			c1.312-11.271-6.976-22.505-6.976-22.505L156.979,153.806z"/>
		<polygon fill="#E1A898" points="157.452,160.491 163.615,156.95 158.417,166.521 		"/>
		<path fill="#E1A898" d="M55.176,114.161c0,0-27.985,6.379-36.154,39.645l-8.758,1.677c0,0,13.144-45.345,41.835-50.624
			C61.165,103.19,55.176,114.161,55.176,114.161z"/>
		<path fill="#E1A898" d="M19.021,153.806c0,0,4.925,6.576,4.594,7.89c-0.327,1.313-0.422,7.221-2.292,6.458
			c-1.864-0.767-2.778-7.662-2.778-7.662s-2.262,10.068-0.403,13.021C20.004,176.466,7.31,181.278,6,170.01
			c-1.314-11.271,6.976-22.505,6.976-22.505L19.021,153.806z"/>
		<polygon fill="#D78779" points="18.546,160.491 12.383,156.95 17.584,166.521 		"/>
		<path fill="#78A585" d="M55.176,104.377c0,0,2.525,45.617,1.94,53.53c-0.813,10.995-1.012,43.085-1.012,43.085
			s71.88,1.817,72.864,0c0.984-1.819-1.162-56.531-1.162-56.531l-1.647-40.87C126.159,103.591,94.104,122.588,55.176,104.377z"/>
		<path fill="#8EBC9C" d="M55.176,104.377c0,0,21.176,38.653,35.537,45.463c10.775-2.154,33.046-44.846,33.046-44.846
			S85.716,119.539,55.176,104.377z"/>
		<path fill="#E1A898" d="M112.302,254.876c0,0,2.88,39.261,5.045,39.799c2.166,0.537,19.198,1.182,19.378-1.328
			c0.179-2.508,1.574-8.213-12.212-6.696c-3.028-5.476-4.044-31.774-4.044-31.774l0,0H112.302z"/>
		<path fill="#E1A898" d="M72.579,252.876c0,0-2.88,39.543-5.046,40.081c-2.165,0.539-19.198,1.325-19.377-1.186
			c-0.18-2.511-1.574-8.427,12.211-6.909c3.028-5.475,4.044-31.986,4.044-31.986l0,0H72.579z"/>
		<path fill="#E1A898" d="M47.636,85.476c0,4.916,2.537,8.901,5.67,8.901c3.134,0,5.677-3.985,5.677-8.901s-2.543-8.903-5.677-8.903
			C50.173,76.572,47.636,80.56,47.636,85.476z"/>
	</g>
</g>
<g id="Shoes_noob" display="none">
	<path display="inline" fill="#763A34" d="M49.093,290.523c0,0-4.281,13.233,0.042,14.777c0,0,9.933,3.771,21.991,0.904
		c0.346-0.081,1.501-0.559,1.934-1.405c0,0,3.073-8.171,0.592-11.382C71.171,290.207,49.093,290.523,49.093,290.523z"/>
	<path display="inline" fill="#C26257" d="M76.364,271.67c0,0-2.026,4.55-1.743,7.974c0.419,5.08,0.388,12.944-1.146,14.996
		c-2.052,2.737-4.777,2.748-7.98,3.151c-2.274,0.283-11.705,1.27-15.696-1.489c-1.647-1.141-1.744-2.645-1.977-5.438
		c0,0-0.79-9.493,4.084-11.493c4.146-1.699,5.68,0.471,8.004-0.282c2.533-0.814,3.025-1.61,3.027-5.28
		C62.942,271.523,76.364,271.67,76.364,271.67z"/>
	<path display="inline" opacity="0.6" fill="#6E493D" d="M63.417,283.683c0,0-0.453-0.534-1.599-1.145
		c0.386-0.22,0.735-0.381,0.998-0.454c0.97-0.276,0.188-0.77,0.188-0.77s-0.298-0.196-0.783-0.49
		c-0.48-0.295-1.417,0.178-1.417,0.178c-0.422,0.216-0.806,0.433-1.155,0.646c-0.391-0.117-0.813-0.235-1.276-0.337
		c0,0-1.024-0.228-1.42,0.177c-0.392,0.401-0.634,0.668-0.634,0.668s-0.635,0.67,0.372,0.699c0.274,0.006,0.652,0.076,1.082,0.193
		c-0.962,0.877-1.269,1.505-1.269,1.505c-0.367,0.624,0.08,1.011,0.08,1.011s0.227,0.159,0.733,0.392
		c0.503,0.237,0.897-0.214,1.417-0.826c0.311-0.426,0.736-0.854,1.199-1.248c0.545,0.27,1.062,0.577,1.473,0.911
		c0.648,0.464,1.143,0.806,1.576,0.454c0.428-0.351,0.609-0.562,0.609-0.562S63.926,284.196,63.417,283.683z"/>
	<path display="inline" fill="#D9DFDF" d="M66.61,253.865c0,0-1.86,0.131-2.709,0.873c-0.872,0.762-1.123,2.411-1.123,4.67
		c0,2.266-0.425,13.746,0.158,14.4c1.259,1.413,7.834,4.334,12.108,1.826c0,0,6.205-16.277,2.906-20.383
		c-0.84-1.051-1.35-1.24-3.171-1.387c0,0-0.322,1.524-0.621,2.299c-0.5,1.293-1.322,2.09-3.284,1.936
		C68.546,257.907,66.042,257.907,66.61,253.865z"/>
	<path display="inline" opacity="0.5" fill="none" stroke="#9F9A99" stroke-linecap="round" stroke-miterlimit="10" d="
		M66.352,258.662c0,0-1.645,9.141-0.682,13.808"/>
	<path display="inline" opacity="0.5" fill="none" stroke="#9F9A99" stroke-linecap="round" stroke-miterlimit="10" d="
		M70.22,259.672c0,0-1.643,9.133-0.679,13.804"/>
	<path display="inline" opacity="0.5" fill="none" stroke="#9F9A99" stroke-linecap="round" stroke-miterlimit="10" d="
		M73.988,259.78c0,0,0.836,6.732-1.202,13.587"/>
	<path display="inline" fill="#E7E6D3" d="M58.3,280.742c0,0-1.024-0.227-1.417,0.177c-0.395,0.402-0.636,0.669-0.636,0.669
		s-0.637,0.669,0.37,0.696c1.007,0.027,3.407,0.864,4.712,1.943c0.654,0.463,1.149,0.804,1.58,0.452
		c0.43-0.356,0.609-0.562,0.609-0.562s0.338-0.49-0.171-1.001C63.348,283.117,62.071,281.592,58.3,280.742z"/>
	<path display="inline" fill="#E7E6D3" d="M60.735,280.437c0,0,0.937-0.472,1.417-0.181c0.479,0.295,0.783,0.49,0.783,0.49
		s0.78,0.494-0.188,0.768c-0.97,0.275-3.089,1.682-4.089,3.047c-0.515,0.612-0.908,1.062-1.411,0.826
		c-0.506-0.233-0.735-0.392-0.735-0.392s-0.448-0.389-0.079-1.012C56.433,283.983,57.294,282.194,60.735,280.437z"/>
	<path display="inline" fill="none" stroke="#4D2D27" stroke-linecap="round" stroke-miterlimit="10" d="M51.928,298.537
		c0,0-0.458,2.595,0,5.494"/>
	<path display="inline" fill="none" stroke="#4D2D27" stroke-linecap="round" stroke-miterlimit="10" d="M55.821,299.348
		c0,0-0.455,2.686,0,5.692"/>
	<path display="inline" fill="none" stroke="#4D2D27" stroke-linecap="round" stroke-miterlimit="10" d="M60.307,299.95
		c0,0-0.457,2.688,0,5.696"/>
	<path display="inline" fill="none" stroke="#4D2D27" stroke-linecap="round" stroke-miterlimit="10" d="M64.22,299.95
		c0,0-0.455,2.688,0,5.696"/>
	<path display="inline" fill="none" stroke="#4D2D27" stroke-linecap="round" stroke-miterlimit="10" d="M68.635,299.678
		c0,0-0.452,2.375,0,5.026"/>
	<path display="inline" fill="#763A34" d="M139.99,290.523c0,0,4.599,13.508,0.336,15.123c0,0-10.311,3.426-22.368,0.559
		c-0.346-0.081-1.5-0.559-1.931-1.405c0,0-3.075-8.171-0.595-11.382S139.99,290.523,139.99,290.523z"/>
	<path display="inline" fill="#C26257" d="M112.721,271.67c0,0,2.026,4.55,1.746,7.974c-0.419,5.08-0.391,13.577,1.147,15.629
		c2.048,2.734,4.774,2.115,7.98,2.519c2.271,0.283,11.704,1.27,15.692-1.489c1.652-1.141,1.742-2.645,1.979-5.438
		c0,0,0.788-9.493-4.086-11.493c-4.142-1.699-5.679,0.471-8.005-0.282c-2.53-0.814-3.025-1.61-3.027-5.28
		C126.146,271.523,112.721,271.67,112.721,271.67z"/>
	<path display="inline" opacity="0.6" fill="#6E493D" d="M125.667,283.683c0,0,0.456-0.534,1.6-1.145
		c-0.384-0.22-0.739-0.381-0.999-0.454c-0.969-0.276-0.184-0.77-0.184-0.77s0.299-0.196,0.78-0.49
		c0.48-0.295,1.417,0.178,1.417,0.178c0.421,0.216,0.808,0.433,1.155,0.646c0.391-0.117,0.815-0.235,1.28-0.337
		c0,0,1.022-0.228,1.414,0.177c0.397,0.401,0.637,0.668,0.637,0.668s0.637,0.67-0.371,0.699c-0.271,0.006-0.651,0.076-1.082,0.193
		c0.961,0.877,1.269,1.505,1.269,1.505c0.366,0.624-0.079,1.011-0.079,1.011s-0.232,0.159-0.735,0.392
		c-0.502,0.237-0.896-0.214-1.417-0.826c-0.309-0.426-0.734-0.854-1.196-1.248c-0.546,0.27-1.064,0.577-1.473,0.911
		c-0.651,0.464-1.146,0.806-1.577,0.454c-0.431-0.351-0.615-0.562-0.615-0.562S125.157,284.196,125.667,283.683z"/>
	<path display="inline" fill="#D9DFDF" d="M122.475,253.865c0,0,1.858,0.131,2.711,0.873c0.869,0.762,1.12,2.411,1.12,4.67
		c0,2.266,0.426,13.746-0.158,14.4c-1.261,1.413-7.835,4.334-12.105,1.826c0,0-6.206-16.277-2.91-20.383
		c0.845-1.051,1.35-1.24,3.175-1.387c0,0,0.321,1.524,0.62,2.299c0.501,1.293,1.323,2.09,3.282,1.936
		C120.538,257.907,123.045,257.907,122.475,253.865z"/>
	<path display="inline" opacity="0.5" fill="none" stroke="#9F9A99" stroke-linecap="round" stroke-miterlimit="10" d="
		M122.735,258.662c0,0,1.643,9.141,0.682,13.808"/>
	<path display="inline" opacity="0.5" fill="none" stroke="#9F9A99" stroke-linecap="round" stroke-miterlimit="10" d="
		M118.861,259.672c0,0,1.646,9.133,0.682,13.804"/>
	<path display="inline" opacity="0.5" fill="none" stroke="#9F9A99" stroke-linecap="round" stroke-miterlimit="10" d="
		M115.096,259.78c0,0-0.833,6.732,1.202,13.587"/>
	<path display="inline" fill="#E7E6D3" d="M130.784,280.742c0,0,1.023-0.227,1.417,0.177c0.394,0.402,0.637,0.669,0.637,0.669
		s0.637,0.669-0.371,0.696c-1.007,0.027-3.408,0.864-4.713,1.943c-0.652,0.463-1.145,0.804-1.576,0.452
		c-0.43-0.356-0.614-0.562-0.614-0.562s-0.336-0.49,0.172-1.001C125.736,283.117,127.017,281.592,130.784,280.742z"/>
	<path display="inline" fill="#E7E6D3" d="M128.354,280.437c0,0-0.94-0.472-1.421-0.181c-0.481,0.295-0.779,0.49-0.779,0.49
		s-0.782,0.494,0.188,0.768c0.97,0.275,3.085,1.682,4.083,3.047c0.52,0.612,0.914,1.062,1.417,0.826
		c0.503-0.233,0.735-0.392,0.735-0.392s0.444-0.389,0.078-1.012C132.654,283.983,131.791,282.194,128.354,280.437z"/>
	<path display="inline" fill="none" stroke="#4D2D27" stroke-linecap="round" stroke-miterlimit="10" d="M137.16,298.537
		c0,0,0.456,2.595,0,5.494"/>
	<path display="inline" fill="none" stroke="#4D2D27" stroke-linecap="round" stroke-miterlimit="10" d="M133.264,299.348
		c0,0,0.458,2.686,0,5.692"/>
	<path display="inline" fill="none" stroke="#4D2D27" stroke-linecap="round" stroke-miterlimit="10" d="M128.775,299.95
		c0,0,0.46,2.688,0,5.696"/>
	<path display="inline" fill="none" stroke="#4D2D27" stroke-linecap="round" stroke-miterlimit="10" d="M124.865,299.95
		c0,0,0.458,2.688,0,5.696"/>
	<path display="inline" fill="none" stroke="#4D2D27" stroke-linecap="round" stroke-miterlimit="10" d="M120.451,299.678
		c0,0,0.453,2.375,0,5.026"/>
</g>
<g id="Shorts" display="none">
	<path display="inline" fill="#666189" d="M58.028,202.835c-0.178,4.275-0.54,14.581,0.082,15.234c2.628,2.75,25.44,5.847,26.168,0
		c0.397-3.216,0.357-8.979,0.242-13.522C73.836,204.703,63.87,204.31,58.028,202.835z"/>
	<path display="inline" fill="#666189" d="M130.733,200.964c-0.401,0.153-0.759,0.272-1.029,0.38
		c-0.965,0.382-11.832,1.569-25.114,2.394c-0.132,4.646-0.203,10.922,0.221,14.332c0.726,5.847,23.537,2.75,26.162,0
		c0.787-0.826,0-17.077,0-17.077L130.733,200.964z"/>
</g>
<g id="T-shirt_Noob">
	<path fill="#E1A898" d="M134.394,109.519c2.488,1.376,4.81,3.051,6.973,4.926c-0.449,2.443-1.837,4.431-4.497,6.146
		c-2.747-2.05-5.483-2.995-7.242-3.724L134.394,109.519z"/>
	<path fill="#548679" d="M130.517,103.591c0,0,8.413,1.781,8.413,3.721c0,1.938-3.622,12.259-10.399,13.567
		c-6.778,1.315-2.315-16.021-2.315-16.021L130.517,103.591z"/>
	<path fill="#548679" d="M54.131,102.748c0,0-12.425,0-13.089,4.563c-0.279,1.918,3.624,12.259,10.4,13.567
		c6.78,1.315,6.256-14.965,6.256-14.965L54.131,102.748z"/>
	<path fill="#9FD3AE" d="M127.53,108.21c0,0,2.735,34.917,3.255,40.171c0.524,5.255,0.355,31.225,0,35.308
		c0,0-48.428,9.389-77.683,1.46c0,0,1.797-23.93,1.336-28.017c-0.458-4.081-1.9-31.602-2.97-45.639
		C51.468,111.493,107.409,120.858,127.53,108.21z"/>
	<path fill="#548679" d="M87.964,150.997c-1.429-4.037-2.066-7.511-2.192-10.49l-1.632,2.688l-23.007-24.309l14.492,1.704
		c-9.575-3.151-16.22-6.396-19.796-9.933c-2.832-0.471-4.964-0.796-4.964-0.796c1.07,14.039,3.116,43.188,3.574,47.27
		c0.461,4.087-1.336,28.017-1.336,28.017c1.152,0.313,2.333,0.591,3.539,0.851l56.972-3.479
		C104.62,179.979,93.532,166.735,87.964,150.997z"/>
	<path fill="#548679" d="M89,133.337c0,0,11.91-1.276,18.66,8.939c4.961,7.507,6.565,15.183,0.24,25.009
		c-6.325,9.827-23.689,9.539-29.028,4.865c-5.341-4.67-10.489-9.691-9.086-22.659C71.191,136.527,86.343,133.491,89,133.337z"/>
	<path fill="#548679" d="M130.392,106.874c0,0,0.067,2.769,0.185,4.252c-6.058,7.324-22.908,17.463-41.333,17.67
		c-15.013,0.17-31.823-6.239-39.998-17.778c-2.512-3.027-0.751-3.221-0.495-4.144C48.75,106.874,110.271,119.52,130.392,106.874z"/>
	<path fill="#9FD3AE" d="M134.805,97.839c-1.21-2.595-4.35-2.36-6.591-1.796c-0.52,3.489-0.982,6.406-2.122,7.548
		c-3.68,3.677-44.299,15.297-70.299,0.77c0,0.004,0,0.012,0,0.017c-2,1.013-5.502,0.988-8.199-0.607
		c10.292,18.884,47.195,20.068,68.545,12.951C137.803,109.5,136.775,102.06,134.805,97.839z"/>
	<path fill="#548679" d="M53.103,184.292c0,0,0.215-0.614,0.155-2.056c-0.155-3.396,22.679,0.84,34.723,0.013
		c0,0-6.774-1.09,4.556-2.01c6.015-0.487,38.428-0.979,38.385-0.379c-0.024,0.355-0.069,2.644-0.332,3.005l-38.166,7.847
		L53.103,184.292z"/>
	<path fill="#9FD3AE" d="M130.858,182.52c0,0,4.82,2.831,4.759,11.033c-0.044,6.236-4.367,7.177-5.914,7.791
		c-2.373,0.939-64.646,6.75-75.43,0.06c0,0-10.026-6.384-1.171-16.255C53.103,185.148,88.266,189.16,130.858,182.52z"/>
	<path fill="#548679" d="M53.103,185.148c-9.262,10.824,1.171,16.255,1.171,16.255c5.82,3.614,26.619,3.585,44.917,2.643
		c0.084-0.021,0.154-0.042,0.195-0.06c1.546-0.61-5.324-2.938-5.279-9.176c0.047-6.226,4.519-7.839,7.14-9.112
		c-2.336,0.146-4.592-0.755-6.81-0.659C78.596,183.59,65.207,185.126,53.103,185.148z"/>
	<path fill="#FFD878" d="M72.964,154.958c0,9.762,7.912,17.677,17.673,17.677c9.762,0,17.675-7.915,17.675-17.677
		c0-9.758-7.914-17.673-17.675-17.673C80.876,137.285,72.964,145.2,72.964,154.958z"/>
	<g>
		<g>
			<path fill="#639A83" d="M106.101,146.36c0,0-0.774,0.595-0.662,1.739c0.111,1.141-0.165,14.491,0.662,15
				c0.83,0.507,10.917,0.891,10.917-3.665c0-4.558-3.823-4.472-4.377-4.598c0,0,4.709,0.04,4.377-4.2
				C116.686,146.403,110.977,143.946,106.101,146.36z"/>
			<path fill="#639A83" d="M62.087,161.532c0,0-1.526-11.475-0.639-17.958c0,0,7.692-0.447,8.328,0.188
				c0.638,0.637,4.004,6.418,4.004,6.418l0.635-6.887c0,0,6.104-0.356,6.104,1.549c0,1.907-1.269,16.402-2.29,16.655
				c-1.017,0.255-6.056-0.951-6.056-0.951s-2.907-6.932-3.606-8.713c-0.19-0.486-0.827,0.059-0.827,0.059s1.081,9.64-0.064,9.64
				C66.533,161.532,65.898,161.532,62.087,161.532z"/>
			<path fill="#E2E2E1" d="M62.087,159.911c0,0-1.526-11.476-0.639-17.96c0,0,7.692-0.443,8.328,0.194
				c0.638,0.633,4.004,6.418,4.004,6.418l0.635-6.894c0,0,6.104-0.352,6.104,1.554s-1.269,16.4-2.29,16.654
				c-1.017,0.255-6.056-0.951-6.056-0.951s-2.907-6.93-3.606-8.711c-0.19-0.486-0.827,0.058-0.827,0.058s1.081,9.638-0.064,9.638
				C66.533,159.911,65.898,159.911,62.087,159.911z"/>
			<path fill="#639A83" d="M88.271,148.563c0,0-4.704-1.02-5.847,3.243c-1.146,4.255,2.415,5.783,3.814,5.846
				c1.398,0.062,6.356-1.462,4.641-6.228C90.88,151.425,90.496,149.452,88.271,148.563z"/>
			<path fill="#FFFFFF" d="M88.271,146.909c0,0-4.704-1.017-5.847,3.245c-1.146,4.258,2.42,5.69,3.814,5.845
				c1.736,0.191,6.356-1.461,4.641-6.23C90.88,149.769,90.496,147.799,88.271,146.909z"/>
			<path fill="#639A83" d="M100.181,148.563c0,0-4.704-1.02-5.848,3.243c-1.147,4.255,2.412,5.783,3.813,5.846
				c1.396,0.062,6.355-1.462,4.638-6.228C102.785,151.425,102.403,149.452,100.181,148.563z"/>
			<path fill="#FFFFFF" d="M100.181,146.909c0,0-4.704-1.017-5.848,3.245c-1.147,4.258,2.42,5.69,3.813,5.845
				c1.737,0.191,6.355-1.461,4.638-6.23C102.785,149.769,102.403,147.799,100.181,146.909z"/>
			<path fill="#639A83" d="M98.178,150.059c0,0,1.354-0.291,1.685,0.938c0.33,1.225-0.696,1.665-1.099,1.685
				c-0.401,0.016-1.827-0.42-1.333-1.798C97.431,150.884,97.54,150.313,98.178,150.059z"/>
			<path fill="#639A83" d="M86.279,150.059c0,0,1.356-0.291,1.686,0.938c0.33,1.225-0.696,1.665-1.099,1.685
				c-0.402,0.016-1.827-0.42-1.335-1.798C85.53,150.884,85.642,150.313,86.279,150.059z"/>
			<path fill="#FFFFFF" d="M106.101,144.582c0,0-0.774,0.592-0.662,1.736c0.111,1.144-0.165,14.493,0.662,15.002
				c0.83,0.507,10.917,0.889,10.917-3.664c0-4.559-3.823-4.474-4.377-4.604c0,0,4.709,0.045,4.377-4.19
				C116.686,144.622,110.977,142.167,106.101,144.582z"/>
			<path fill="#639A83" d="M111.419,147.249c0,0-1.977,1.511-1.317,1.89c0.658,0.379,2.304,0.244,2.384-0.979
				C112.573,146.937,111.419,147.249,111.419,147.249z"/>
			<path fill="#639A83" d="M110.29,156.195c0,0-0.771,1.89,0.462,2.046c1.234,0.153,2.065-0.854,1.444-1.734
				S110.29,156.195,110.29,156.195z"/>
		</g>
	</g>
	<path id="XMLID_4_" fill="none" stroke="#639A83" stroke-linecap="round" stroke-miterlimit="10" d="M98.103,165.525
		c0,0-4.931-7.443-11.868-0.319"/>
	<path fill="#548679" d="M63.048,111.878c0-1.672,0.741-2.819,1.358-3.609c-3.135-1.011-5.028-1.809-7.896-3.41
		c0,0.005-0.818-0.486-0.818-0.481c-2.768,0.481-5.7,0.993-8.428-0.774c3.776,7.694,11.461,11.705,20.869,14.475
		C62.781,116.464,63.048,111.878,63.048,111.878z"/>
</g>
<g id="Cheveux_1" display="none">
	<path display="inline" fill="#E16047" d="M101.844,57.584c0,0,4.05-1.504,4.05-4.892c0,0,4.564,4.656,3.251,6.406
		c0,0,18.999-1.75,20.482,18.486c0,0,9.27-12.574,8.391-25.41c-0.876-12.842-10.242-31.468-28.188-27.966
		c-3.509,0.686-7.51,0.481-8.561,2.762c-0.356,0.769-0.942,1.089-1.437,1.263c-2.403,0.836-4.239-0.687-5.273-1.106
		c-7.983-3.222-4.927,2.038-4.927,2.038s4.767,1.708,7.985,6.627C103.305,44.481,101.844,57.584,101.844,57.584z"/>
	<path display="inline" fill="#E16047" d="M120.008,14.033c-2.455-0.369-8.753,6.894-8.753,6.894s4.049-8.751,2.409-11.05
		c-1.641-2.3-6.255-2.161-6.255-2.161c-2.84,0.399-0.767,5.662,0.499,8.367C104.632,12.34,92.204,0.84,66.749,6.16
		c-31.143,6.509-46.406,58.717-26.95,86.855l45.376-48.376l5.252-5.256l9.113,13.935l6.994-27.242l5.925,0.762
		c0,0,10.064-6.677,11.378-7.553C125.151,18.41,121.755,14.296,120.008,14.033z"/>
	<path display="inline" fill="#852F2E" d="M54.595,93.068c-3.062-0.126-5.522-4.053-5.522-8.892c0-2.104,0.468-4.034,1.247-5.561
		l-0.732-0.806c0,0-7.642,18.656-7.642,19.157c0,0.497-1.479-1.117,3.616,4.45c2.678,2.924,7.529,3.207,9.621,1.959
		C54.938,101.379,54.853,97.044,54.595,93.068z"/>
	<path display="inline" fill="#E16047" d="M17.101,80.937c0,0,3.194,9.431-4.651,7.828c-16.029-3.275-12.717,14.499-2.544,11.132
		c6.133-2.03,12.645-5.24,13.947-20.03L17.101,80.937z"/>
	<path display="inline" fill="#A63939" d="M27.52,38.505c0,0-3.251-2.839-5.714,0.896c-2.469,3.739-1.591,12.477,1.325,24.058
		c2.912,11.573,2.812,33.924-13.53,36.438c0,0,11.086-4.437,7.92-15.096c-2.542-8.559-20.762-37.9-12.298-52.749
		c5.485-9.625,20.586-8.623,25.721,2.598L27.52,38.505z"/>
	<path display="inline" fill="#E16047" d="M30.133,33.115c0.009,0.017,0.02,0.035,0.031,0.051l0.686,1.591l-3.33,3.748
		c0,0-3.251-2.839-5.714,0.896c-1.484,2.249-1.753,6.313-1.101,11.706c-0.004-0.019-0.004-0.037-0.012-0.057
		C12.518,25.085,29.925,33.024,30.133,33.115z"/>
	<path display="inline" fill="#F04544" d="M39.212,34.286c0,0-3.315-4.911-8.153-2.234c0,0-5.773,5.799-2.856,11.128
		c1.585,2.895,5.909,5.103,7.878,2.696C38.049,43.47,39.212,34.286,39.212,34.286z"/>
	<path display="inline" fill="#A63939" d="M97.556,34.63c0,0-3.505-2.264,0-6.185c4.092-4.578-8.887-16.059-21.324-17.102
		c-0.555-0.004-1.107-0.012-1.683-0.012c-14.69,0-27.702,7.3-35.761,18.527c-4.177,8.034-6.831,17.328-7.703,26.692
		c-0.041,0.434-0.087,0.866-0.118,1.302c-0.082,1.09-0.128,2.176-0.161,3.262c0,0.035-0.002,0.073-0.004,0.112
		c-0.017,0.646-0.059,1.292-0.059,1.937c0.024,0.17,0.066,0.331,0.093,0.499c0.249,10.459,3.214,20.748,8.962,29.354
		c0.954-1.742,1.899-3.524,2.818-5.283c0.357,0.38,0.695,0.777,1.064,1.145l41.494-44.238l5.252-5.256l9.113,13.935l2.646-21.676
		C101.703,32.835,100.245,35.975,97.556,34.63z"/>
	<path display="inline" fill="#A63939" d="M122.305,32.841c0,0-8.963-7.769-13.759-4.025l0.059-3.896
		c-1.929-3.346-5.205-3.593-5.526-0.166c-0.646,6.853-3.949,25.133-3.949,27.938l0.41,0.625l0.862,1.941l-0.68,2.529l2.172-0.224
		c0.459-0.185,3.892-0.782,3.892-3.948c0,0,1.715,1.495,2.482,3.126c0.145,0.618,0.294,1.244,0.453,1.89c0,0,2.143-7.25,5.353-7.105
		c3.209,0.146,7.2-2.357,8.111,11.095c0,0,4.417,3.215,6.152,8.399C130.395,77.178,141.367,52.727,122.305,32.841z"/>
	<path display="inline" fill="#E16047" d="M91.186,35.363c0,0-2.911-0.619-7.026,0.171c0,0-6.458,4.223-8.739,7.606
		c-8.647,12.818-17.031,7.736-30.742,19.546c-14.895,12.83-8.646,26.125-4.259,33.285c3.231,4.387,4.112-1.096,4.112-1.096h0.003
		c0.282-3,1.832-6.203,5.881-9.148c0,0,8.76-3.324,19.137-8.992c12.173-6.649,12.688-10.487,15.029-16.632
		c0,0,6.883-4.674,12.635-1.54c1.554,0.849,3.435-0.957,3.435-0.957s-1.802-10.963-5.349-17.563
		C94.196,37.986,92.779,35.686,91.186,35.363z"/>
	<path display="inline" fill="#852F2E" d="M96.946,58.399c0,0-1.502-6.535-2.444-9.033c-0.615-1.63-0.598-2.934-2.555-3.497
		c0,0-2.144-1.542-3.432,1.033c-1.559,3.116-2.476,7.335-3.935,13.141C84.581,60.043,88.093,57.673,96.946,58.399z"/>
	<path display="inline" fill="none" stroke="#A63939" stroke-miterlimit="10" d="M42.675,90.863
		C37.413,79.21,52.923,71.767,52.923,71.767s21.101-9.08,24.718-19.099"/>
	<path display="inline" fill="none" stroke="#E26147" stroke-linecap="round" stroke-miterlimit="10" d="M11.704,29.375
		c0,0-7.267,2.527-5.126,15.057"/>
	<path display="inline" fill="none" stroke="#E26147" stroke-linecap="round" stroke-miterlimit="10" d="M8.564,40.031
		c0,0,0.113,0.982,0.762,2.95"/>
	<path display="inline" fill="#E16047" d="M120.373,63.26c1.093,1.53,1.754-1.671,1.756-1.675c0.239-6.127,1.196-13.23-3.665-16.365
		c-0.814-0.526-4.129-1.141-5.118-1.282c0,0-4.772,1.287-4.626,14.271c0,0-0.42,1.416,2.135,1.309
		c2.381-0.097,4.882-4.702,8.64,2.028C119.905,61.027,119.946,62.662,120.373,63.26z"/>
	<path display="inline" fill="#852F2E" d="M109.354,59.318c0,0,1.142-7.543,4.701-8.095c0.809-0.126,3.506,0.993,3.982,1.503
		c1.711,1.834,2.591,2.886,2.042,9.895C120.079,62.621,118.876,60.043,109.354,59.318z"/>
</g>
<g id="Calque_7" display="none">
	<g id="IMG.tif" display="inline" opacity="0.6">
		
			<image overflow="visible" width="2552" height="3504" id="IMG_2_" xlink:href="4E0F412A9F86DD5A.jpg"  transform="matrix(0.1595 0 0 0.1595 -51.4419 -85.9297)">
		</image>
	</g>
</g>
<g id="Calque_4" display="none">
	<path display="inline" fill="#B7473B" d="M100.355,49.376c0,0,7.194-8,4.649-9.833s-7.353-0.667-13.449,9.5
		c0,0-16.615-4.811-30.638,13.5c-12.125,15.833-6.533,28.735-4.348,35.333c3.308,6.545,8.519,9.586,8.519,9.586
		c-0.643-15.742,6.2-22.848,6.2-22.848c-0.167,2.333-0.103,5.123,2.323,8.059c1.202,0.454-0.568-6.796,6.317-13.227
		c-4.461,7.514-0.542,13.796,1.674,15.401c1.094-5.999-0.567-11.38,5.315-16.097c-3.481,4.092-0.551,16.433,4.691,22.102
		c0.796-0.446,9.517-7.393,11.87-20.31c0.333-1.828,3.349,2.025,3.696-0.194c4.861,13.966-5.457,21.749-1.008,20.446
		c6.5-2.335,7.623-3.393,8.809-5.89l0.632-2.214c0.048-0.464,0.309-0.398,0.41-0.127l0.329,0.945c0,0,1.759,3.147,1.783,12.371
		c1.352,1.34,4.303-2.005,4.303-2.005s10.312-9.875,10.193-18.999C132.517,76.404,131.293,52.377,100.355,49.376z"/>
	<path display="inline" fill="#7D3332" d="M61.543,85.21c-0.007,7.334,3.645,8.62,4.417,11c0.332-2.622,2.125-6.112,2.125-6.112
		c3.204-5.483,3.204-5.483,3.204-5.483s-1.371-4.863,3.338-11.373c-0.878-2.208-4.492-0.896-7.333,1.136
		C63.865,76.828,61.548,80.276,61.543,85.21z"/>
	<path display="inline" fill="#7D3332" d="M103.663,80.228c0,0,1.255-4.954,2.417-4.602c2.713,0.824,2.436,11,2.436,11
		C107.176,81.876,104.596,80.267,103.663,80.228z"/>
	<path display="inline" fill="#7D3332" d="M115.642,92.126c0,0,0.985-4.333-0.911-8.938c-0.5-0.969,0.802-1.516,1.25-1.156
		c5.062,4.062,4.856,10.974,1.692,16.996C116.98,94.47,116.24,93.459,115.642,92.126z"/>
</g>
</svg>
