<?xml version="1.0" encoding="utf-8"?>
<!-- Generator: Adobe Illustrator 16.0.0, SVG Export Plug-In . SVG Version: 6.00 Build 0)  -->
<!DOCTYPE svg PUBLIC "-//W3C//DTD SVG 1.1//EN" "http://www.w3.org/Graphics/SVG/1.1/DTD/svg11.dtd">
<svg version="1.1" id="Calque_1" xmlns="http://www.w3.org/2000/svg" xmlns:xlink="http://www.w3.org/1999/xlink" x="0px" y="0px"
	 width="144.41px" height="267.98px" viewBox="0 0 144.41 267.98" enable-background="new 0 0 144.41 267.98" xml:space="preserve">
<path opacity="0.7" fill="#75A175" enable-background="new    " d="M120.872,258.52c0,5.227-20.446,9.462-45.67,9.462
	c-25.219,0-45.664-4.235-45.664-9.462c0-5.228,20.445-9.465,45.664-9.465C100.426,249.055,120.872,253.292,120.872,258.52z"/>
<g>
	<g>
		<g id="Base_1_">
			<g>
				<path fill="#E1A898" d="M103.264,69.682c0,4.14,2.141,7.495,4.781,7.495c2.637,0,4.779-3.355,4.779-7.495
					c0-4.143-2.143-7.498-4.779-7.498C105.404,62.185,103.264,65.54,103.264,69.682z"/>
				
					<linearGradient id="SVGID_1_" gradientUnits="userSpaceOnUse" x1="-36.6665" y1="-229.3997" x2="-35.6811" y2="-191.2169" gradientTransform="matrix(1 0 0 -1 111 -141.019)">
					<stop  offset="0.0917" style="stop-color:#FFE3BB"/>
					<stop  offset="1" style="stop-color:#F4DEBB"/>
				</linearGradient>
				<path fill="url(#SVGID_1_)" d="M106.969,64.275c0.053-1.245-0.205-2.538-0.691-3.86c-0.709-4.289-3.955-20.674-19.793-24.591
					c-16.527-4.089-43.236-1.324-43.691,31.938c-0.014,1.093,0.029,2.08,0.154,2.982c-0.034,0.971-0.018,1.94,0.042,2.897
					c0.105,1.717,0.026,2.436-0.196,2.402c0.305,5.528,1.006,10.583,1.006,10.583c21.562,12.903,57.087,2.901,60.226-0.231
					C107.154,83.26,106.969,64.275,106.969,64.275z"/>
				<path fill="#E1A898" d="M38.211,71.138c0,4.141,2.137,7.498,4.775,7.498c2.641,0,4.781-3.357,4.781-7.498
					c0-4.14-2.141-7.499-4.781-7.499C40.348,63.639,38.211,66.998,38.211,71.138z"/>
				<path opacity="0.5" fill="#FFFFFF" enable-background="new    " d="M82.654,73.195c0,0.829-3.527,1.5-7.871,1.5
					c-4.343,0-7.869-0.671-7.869-1.5c0-0.829,3.525-1.502,7.869-1.502C79.127,71.693,82.654,72.366,82.654,73.195z"/>
				<path fill="#E1A898" d="M67.347,53.328c-7.375,4.217-8.894,8.089-8.894,15.172c0,11.815,11.582,21.785,26.271,21.785
					c8.537,0,16.127-3.233,20.996-8.261c-0.416,2.025-0.965,3.635-1.697,4.369c-3.137,3.134-38.664,13.136-60.226,0.231
					c0,0-1.835-13.207-0.848-20.27c-0.035,0.008-0.065,0.022-0.104,0.03c0.98-26.535,19.202-32.851,34.686-31.919
					c0.197-0.148,0.317-0.235,0.317-0.235s0.169,0.101,0.465,0.28c0.221,0.018,0.432,0.043,0.652,0.063
					c0.027-0.021,0.074-0.055,0.1-0.077c0.07,0.031,0.152,0.073,0.223,0.104c2.525,0.243,4.953,0.667,7.195,1.22
					c12.057,2.982,16.809,13.187,18.707,19.782c1.783,4.922,2.178,7.002,2.066,9.731C107.258,65.335,96.969,41.436,67.347,53.328z"
					/>
				<path fill="#5D413A" d="M90.227,65.335c0,0,1.01-1.427,2.582-0.507c1.562,0.923,1.195,5.901,0.551,6.822
					c-0.646,0.919-2.023,1.291-3.135,0C89.119,70.361,89.486,66.574,90.227,65.335z"/>
				<path fill="#5D413A" d="M56.743,66.148c0,0,1.014-1.425,2.58-0.501c1.567,0.918,1.2,5.893,0.555,6.816
					c-0.648,0.922-2.028,1.291-3.135,0C55.639,71.172,56.006,67.391,56.743,66.148z"/>
				<path fill="none" stroke="#F3726C" stroke-linecap="round" stroke-miterlimit="10" d="M89.449,77.915
					c0,0-4.572,2.72-12.117,3.359c-10.41,0.882-12.746-0.529-16.953-1.697"/>
				<path fill="#F3726C" d="M99.107,74.32c0,0,1.602,0.162,2.455,0c0.848-0.16,1.164-1.855,0-2.185
					c-1.322-0.367-3.115-0.158-3.584,0C97.506,72.299,95.43,73.838,99.107,74.32z"/>
				<path fill="#F3726C" d="M50.954,74.32c0,0-1.601,0.162-2.449,0c-0.853-0.16-1.168-1.855,0-2.185
					c1.321-0.367,3.112-0.158,3.583,0C52.559,72.299,54.635,73.838,50.954,74.32z"/>
				<path fill="#E1A898" d="M43.799,86.624c0,0-0.277-1.995-0.551-4.75c3.6,3.479,12.146,8.409,30.134,8.409
					c27.676,0,32.342-8.294,32.348-8.296c-0.416,2.044-0.646,3.665-1.385,4.405C101.209,89.53,65.362,99.529,43.799,86.624z"/>
				<path fill="#E1A898" d="M52.413,167.424c0,0-0.043,26.86,0.201,28.136c0.24,1.286-1.654,32.917,1.529,34.067
					c3.188,1.146,6.21-21.118,6.039-29.795c-0.117-6.078,2.81-32.408,2.81-32.408H52.413L52.413,167.424z"/>
				<path fill="#E1A898" d="M99.057,166.597c0,0,0.625,27.684,0.385,28.963c-0.246,1.282,1.65,32.915-1.533,34.065
					c-3.188,1.147-6.213-21.116-6.039-29.793c0.119-6.08-2.713-30.729-2.713-30.729L99.057,166.597z"/>
				<path fill="#F4DEBB" d="M105.816,97.013c0,0,17.6,3.657,24.482,31.671l7.373,1.414c0,0-10.316-35.87-34.275-41.281
					C92.674,86.395,105.816,97.013,105.816,97.013z"/>
				<path fill="#F4DEBB" d="M130.299,128.684c0,0-4.146,5.538-3.869,6.647c0.277,1.105,0.354,6.08,1.928,5.437
					c1.572-0.646,2.34-6.451,2.34-6.451s1.906,8.48,0.34,10.968c-1.566,2.484,9.123,6.538,10.23-2.95
					c1.1-9.495-5.879-18.956-5.879-18.956L130.299,128.684z"/>
				<polygon fill="#E1A898" points="130.697,134.315 135.889,131.333 131.51,139.393 				"/>
				<path fill="#E1A898" d="M44.561,95.296c0,0-23.568,5.374-30.448,33.389l-7.377,1.414c0,0,11.069-38.189,35.234-42.635
					C49.606,86.058,44.561,95.296,44.561,95.296z"/>
				<path fill="#E1A898" d="M14.113,128.684c0,0,4.145,5.538,3.868,6.647c-0.276,1.105-0.355,6.08-1.93,5.437
					c-1.571-0.646-2.341-6.451-2.341-6.451s-1.905,8.48-0.34,10.968c1.569,2.484-9.122,6.538-10.227-2.95
					c-1.106-9.495,5.874-18.956,5.874-18.956L14.113,128.684z"/>
				<polygon fill="#D78779" points="13.712,134.315 8.522,131.333 12.901,139.393 				"/>
				<path fill="#78A585" d="M44.561,87.056c0,0,2.126,38.42,1.635,45.084c-0.686,9.259-0.854,36.284-0.854,36.284
					s60.539,1.529,61.367,0s-0.98-47.609-0.98-47.609l-1.385-34.42C104.346,86.395,77.345,102.392,44.561,87.056z"/>
				<path fill="#8EBC9C" d="M44.561,87.056c0,0,17.835,32.555,29.929,38.29c9.076-1.814,27.832-37.769,27.832-37.769
					S70.282,99.827,44.561,87.056z"/>
				<path fill="#E1A898" d="M92.777,212.68c0,0,2.318,34.191,4.143,34.646c1.826,0.454,16.17,0.995,16.322-1.119
					c0.15-2.113,1.328-6.917-10.285-5.64c-2.551-4.61-3.408-26.761-3.408-26.761l0,0L92.777,212.68z"/>
				<path fill="#E1A898" d="M59.219,212.123c0,0-2.426,33.304-4.252,33.756c-1.821,0.454-16.166,1.117-16.318-1.003
					c-0.152-2.113-1.326-7.094,10.283-5.813c2.553-4.614,3.408-26.939,3.408-26.939l0,0H59.219L59.219,212.123z"/>
				<path fill="#E1A898" d="M38.211,71.138c0,4.141,2.137,7.498,4.775,7.498c2.641,0,4.781-3.357,4.781-7.498
					c0-4.14-2.141-7.499-4.781-7.499C40.348,63.639,38.211,66.998,38.211,71.138z"/>
			</g>
		</g>
		<g id="Shoes_noob_1_">
			<path fill="#763A34" d="M37.754,243.828c0,0-3.605,11.146,0.033,12.445c0,0,8.365,3.177,18.521,0.762
				c0.293-0.069,1.264-0.472,1.629-1.185c0,0,2.588-6.879,0.499-9.587C56.346,243.563,37.754,243.828,37.754,243.828z"/>
			<path fill="#C26257" d="M60.718,227.95c0,0-1.705,3.834-1.466,6.716c0.354,4.28,0.327,10.899-0.965,12.628
				c-1.729,2.307-4.024,2.316-6.721,2.654c-1.916,0.241-9.857,1.069-13.221-1.251c-1.387-0.961-1.467-2.229-1.662-4.581
				c0,0-0.666-7.994,3.438-9.68c3.492-1.433,4.783,0.395,6.741-0.238c2.134-0.684,2.548-1.354,2.548-4.444
				C49.417,227.825,60.718,227.95,60.718,227.95z"/>
			<path opacity="0.6" fill="#6E493D" enable-background="new    " d="M49.819,238.069c0,0-0.383-0.45-1.348-0.966
				c0.325-0.186,0.619-0.321,0.84-0.383c0.818-0.229,0.156-0.645,0.156-0.645s-0.25-0.168-0.658-0.417
				c-0.403-0.246-1.192,0.152-1.192,0.152c-0.355,0.18-0.681,0.363-0.974,0.542c-0.33-0.099-0.686-0.197-1.076-0.284
				c0,0-0.861-0.193-1.195,0.148c-0.331,0.34-0.533,0.564-0.533,0.564s-0.534,0.564,0.312,0.592c0.23,0.002,0.55,0.06,0.914,0.156
				c-0.811,0.742-1.07,1.271-1.07,1.271c-0.309,0.525,0.068,0.851,0.068,0.851s0.193,0.135,0.617,0.332
				c0.422,0.197,0.756-0.182,1.193-0.697c0.263-0.356,0.62-0.718,1.009-1.05c0.46,0.228,0.896,0.485,1.243,0.764
				c0.545,0.394,0.961,0.684,1.326,0.385c0.359-0.294,0.514-0.472,0.514-0.472S50.245,238.5,49.819,238.069z"/>
			<path fill="#D9DFDF" d="M52.506,212.953c0,0-1.567,0.111-2.283,0.738c-0.734,0.642-0.945,2.029-0.945,3.934
				c0,1.908-0.357,11.574,0.133,12.125c1.062,1.188,6.598,3.65,10.199,1.537c0,0,5.225-13.706,2.448-17.163
				c-0.708-0.891-1.141-1.044-2.674-1.171c0,0-0.271,1.285-0.522,1.937c-0.42,1.089-1.115,1.76-2.766,1.63
				C54.137,216.358,52.03,216.358,52.506,212.953z"/>
			
				<path opacity="0.5" fill="none" stroke="#9F9A99" stroke-linecap="round" stroke-miterlimit="10" enable-background="new    " d="
				M52.29,216.995c0,0-1.387,7.696-0.576,11.626"/>
			
				<path opacity="0.5" fill="none" stroke="#9F9A99" stroke-linecap="round" stroke-miterlimit="10" enable-background="new    " d="
				M55.547,217.846c0,0-1.383,7.692-0.572,11.624"/>
			
				<path opacity="0.5" fill="none" stroke="#9F9A99" stroke-linecap="round" stroke-miterlimit="10" enable-background="new    " d="
				M58.719,217.935c0,0,0.705,5.672-1.012,11.446"/>
			<path fill="#E7E6D3" d="M45.506,235.589c0,0-0.861-0.191-1.193,0.152c-0.332,0.338-0.535,0.562-0.535,0.562
				s-0.535,0.562,0.311,0.586c0.848,0.023,2.871,0.729,3.969,1.636c0.551,0.392,0.969,0.678,1.332,0.379
				c0.361-0.3,0.512-0.474,0.512-0.474s0.283-0.412-0.145-0.845C49.76,237.593,48.684,236.308,45.506,235.589z"/>
			<path fill="#E7E6D3" d="M47.559,235.335c0,0,0.787-0.396,1.194-0.154c0.401,0.247,0.659,0.414,0.659,0.414
				s0.656,0.415-0.158,0.644c-0.816,0.233-2.602,1.415-3.443,2.569c-0.434,0.516-0.764,0.895-1.188,0.695
				c-0.427-0.197-0.62-0.332-0.62-0.332s-0.379-0.327-0.066-0.854C43.934,238.319,44.663,236.813,47.559,235.335z"/>
			<path fill="none" stroke="#4D2D27" stroke-linecap="round" stroke-miterlimit="10" d="M40.143,250.578c0,0-0.387,2.185,0,4.627"
				/>
			<path fill="none" stroke="#4D2D27" stroke-linecap="round" stroke-miterlimit="10" d="M43.42,251.259c0,0-0.383,2.264,0,4.795"/>
			<path fill="none" stroke="#4D2D27" stroke-linecap="round" stroke-miterlimit="10" d="M47.198,251.766c0,0-0.385,2.266,0,4.798"
				/>
			<path fill="none" stroke="#4D2D27" stroke-linecap="round" stroke-miterlimit="10" d="M50.493,251.766c0,0-0.382,2.266,0,4.798"
				/>
			<path fill="none" stroke="#4D2D27" stroke-linecap="round" stroke-miterlimit="10" d="M54.211,251.535c0,0-0.381,2.003,0,4.236"
				/>
			<path fill="#763A34" d="M114.307,243.828c0,0,3.875,11.377,0.283,12.735c0,0-8.684,2.887-18.838,0.478
				c-0.291-0.071-1.262-0.478-1.625-1.188c0,0-2.59-6.881-0.502-9.583C95.715,243.565,114.307,243.828,114.307,243.828z"/>
			<path fill="#C26257" d="M91.34,227.95c0,0,1.707,3.834,1.471,6.716c-0.352,4.28-0.332,11.432,0.969,13.161
				c1.723,2.305,4.02,1.783,6.719,2.123c1.908,0.239,9.855,1.071,13.215-1.255c1.389-0.961,1.467-2.227,1.666-4.581
				c0,0,0.662-7.992-3.441-9.678c-3.488-1.433-4.783,0.395-6.742-0.236c-2.129-0.686-2.547-1.356-2.549-4.446
				C102.648,227.825,91.34,227.95,91.34,227.95z"/>
			<path opacity="0.6" fill="#6E493D" enable-background="new    " d="M102.246,238.069c0,0,0.383-0.45,1.346-0.966
				c-0.324-0.186-0.625-0.321-0.842-0.383c-0.814-0.229-0.154-0.645-0.154-0.645s0.252-0.168,0.656-0.417
				c0.406-0.246,1.195,0.152,1.195,0.152c0.354,0.18,0.682,0.363,0.973,0.542c0.33-0.099,0.686-0.197,1.08-0.284
				c0,0,0.861-0.193,1.188,0.148c0.334,0.34,0.537,0.564,0.537,0.564s0.537,0.564-0.311,0.592c-0.23,0.002-0.547,0.06-0.91,0.156
				c0.807,0.742,1.068,1.271,1.068,1.271c0.307,0.525-0.068,0.851-0.068,0.851s-0.195,0.135-0.619,0.332s-0.752-0.182-1.195-0.697
				c-0.258-0.356-0.615-0.718-1.004-1.05c-0.461,0.228-0.898,0.485-1.244,0.764c-0.545,0.394-0.965,0.684-1.33,0.385
				c-0.359-0.294-0.514-0.472-0.514-0.472S101.814,238.5,102.246,238.069z"/>
			<path fill="#D9DFDF" d="M99.553,212.953c0,0,1.568,0.111,2.285,0.738c0.734,0.642,0.943,2.029,0.943,3.934
				c0,1.908,0.359,11.574-0.131,12.125c-1.064,1.188-6.6,3.65-10.193,1.537c0,0-5.229-13.706-2.451-17.163
				c0.713-0.891,1.137-1.044,2.672-1.171c0,0,0.271,1.285,0.523,1.937c0.424,1.089,1.113,1.76,2.764,1.63
				C97.926,216.358,100.035,216.358,99.553,212.953z"/>
			
				<path opacity="0.5" fill="none" stroke="#9F9A99" stroke-linecap="round" stroke-miterlimit="10" enable-background="new    " d="
				M99.773,216.995c0,0,1.389,7.696,0.58,11.626"/>
			
				<path opacity="0.5" fill="none" stroke="#9F9A99" stroke-linecap="round" stroke-miterlimit="10" enable-background="new    " d="
				M96.512,217.846c0,0,1.389,7.692,0.574,11.624"/>
			
				<path opacity="0.5" fill="none" stroke="#9F9A99" stroke-linecap="round" stroke-miterlimit="10" enable-background="new    " d="
				M93.344,217.935c0,0-0.705,5.672,1.01,11.446"/>
			<path fill="#E7E6D3" d="M106.553,235.589c0,0,0.861-0.191,1.195,0.152c0.33,0.338,0.535,0.562,0.535,0.562
				s0.535,0.562-0.314,0.586c-0.848,0.023-2.869,0.729-3.967,1.636c-0.551,0.392-0.965,0.678-1.328,0.379
				c-0.359-0.3-0.52-0.474-0.52-0.474s-0.279-0.412,0.148-0.845C102.303,237.593,103.383,236.308,106.553,235.589z"/>
			<path fill="#E7E6D3" d="M104.508,235.335c0,0-0.791-0.396-1.197-0.154c-0.404,0.247-0.656,0.414-0.656,0.414
				s-0.66,0.415,0.16,0.644c0.82,0.233,2.598,1.415,3.436,2.569c0.441,0.516,0.771,0.895,1.195,0.695
				c0.426-0.197,0.621-0.332,0.621-0.332s0.371-0.327,0.064-0.854C108.129,238.319,107.402,236.813,104.508,235.335z"/>
			<path fill="none" stroke="#4D2D27" stroke-linecap="round" stroke-miterlimit="10" d="M111.926,250.578c0,0,0.383,2.185,0,4.627"
				/>
			<path fill="none" stroke="#4D2D27" stroke-linecap="round" stroke-miterlimit="10" d="M108.643,251.259c0,0,0.383,2.264,0,4.795"
				/>
			<path fill="none" stroke="#4D2D27" stroke-linecap="round" stroke-miterlimit="10" d="M104.863,251.766c0,0,0.381,2.266,0,4.798"
				/>
			<path fill="none" stroke="#4D2D27" stroke-linecap="round" stroke-miterlimit="10" d="M101.568,251.766c0,0,0.387,2.266,0,4.798"
				/>
			<path fill="none" stroke="#4D2D27" stroke-linecap="round" stroke-miterlimit="10" d="M97.852,251.535c0,0,0.381,2.003,0,4.236"
				/>
		</g>
		<g id="Shorts_1_">
			<path fill="#666189" d="M46.962,166.611c-0.149,3.6-0.455,15.649,0.069,16.2c2.214,2.315,21.427,4.924,22.039,0
				c0.333-2.709,0.299-10.933,0.203-14.758C60.276,168.186,51.883,167.854,46.962,166.611z"/>
			<path fill="#666189" d="M106.508,166.721c-0.336,0.129-0.633,0.231-0.863,0.318c-0.814,0.323-9.23-0.305-20.42,0.389
				c-0.111,3.915,0.781,12.512,1.139,15.383c0.613,4.926,19.822,2.315,22.037,0c0.658-0.694-1.688-16.063-1.688-16.063
				L106.508,166.721z"/>
		</g>
		<g id="T-shirt_Noob_1_">
			<path fill="#E1A898" d="M111.277,91.39c2.096,1.158,4.053,2.569,5.875,4.15c-0.379,2.058-1.549,3.731-3.789,5.174
				c-2.311-1.725-4.615-2.522-6.1-3.136L111.277,91.39z"/>
			<path fill="#548679" d="M108.016,86.397c0,0,7.082,1.502,7.082,3.136c0,1.63-3.049,10.321-8.754,11.424
				c-5.711,1.107-1.955-13.493-1.955-13.493L108.016,86.397z"/>
			<path fill="#548679" d="M43.679,85.689c0,0-10.461,0-11.022,3.842c-0.234,1.616,3.053,10.323,8.76,11.426
				c5.709,1.107,5.269-12.603,5.269-12.603L43.679,85.689z"/>
			<path fill="#9FD3AE" d="M105.496,90.287c0,0,2.307,29.409,2.742,33.833c0.439,4.428,0.301,26.298,0,29.736
				c0,0-40.787,7.908-65.425,1.228c0,0,1.514-20.15,1.125-23.59c-0.383-3.438-1.599-26.616-2.5-38.437
				C41.438,93.054,88.553,100.94,105.496,90.287z"/>
			<path fill="#548679" d="M72.174,126.323c-1.203-3.398-1.74-6.327-1.848-8.836l-1.373,2.264L49.577,99.278l12.205,1.437
				c-8.063-2.654-13.658-5.39-16.672-8.366c-2.385-0.396-4.182-0.671-4.182-0.671c0.902,11.823,2.625,36.375,3.01,39.812
				c0.389,3.44-1.125,23.592-1.125,23.592c0.969,0.265,1.966,0.498,2.98,0.719l47.984-2.931
				C86.205,150.73,76.865,139.576,72.174,126.323z"/>
			<path fill="#548679" d="M73.047,111.449c0,0,10.031-1.072,15.715,7.53c4.18,6.323,5.531,12.786,0.203,21.061
				c-5.328,8.278-19.953,8.035-24.448,4.099c-4.497-3.936-8.835-8.164-7.651-19.083C58.048,114.138,70.809,111.581,73.047,111.449z"
				/>
			<path fill="#548679" d="M107.91,89.162c0,0,0.055,2.334,0.156,3.582c-5.104,6.169-19.297,14.708-34.812,14.882
				c-12.644,0.142-26.802-5.255-33.686-14.973c-2.114-2.55-0.635-2.714-0.419-3.491C39.149,89.162,90.961,99.813,107.91,89.162z"/>
			<path fill="#9FD3AE" d="M111.625,81.552c-1.018-2.185-3.662-1.985-5.551-1.512c-0.438,2.938-0.83,5.396-1.789,6.356
				c-3.1,3.099-37.307,12.883-59.205,0.647c0,0.004,0,0.012,0,0.016c-1.685,0.853-4.634,0.831-6.907-0.513
				c8.671,15.904,39.75,16.9,57.729,10.907C114.146,91.375,113.285,85.109,111.625,81.552z"/>
			<path fill="#548679" d="M42.815,154.367c0,0,0.181-0.521,0.129-1.736c-0.129-2.86,19.101,0.708,29.246,0.014
				c0,0-5.709-0.922,3.837-1.695c5.064-0.411,32.363-0.825,32.324-0.32c-0.02,0.301-0.057,2.225-0.279,2.532l-32.144,6.607
				L42.815,154.367z"/>
			<path fill="#9FD3AE" d="M108.299,152.869c0,0,4.061,2.386,4.01,9.295c-0.039,5.25-3.678,6.045-4.98,6.56
				c-1.998,0.792-54.447,5.688-63.527,0.052c0,0-8.441-5.378-0.986-13.692C42.815,155.083,72.429,158.462,108.299,152.869z"/>
			<path fill="#548679" d="M42.815,155.083c-7.801,9.118,0.986,13.688,0.986,13.688c4.902,3.047,22.419,3.023,37.83,2.228
				c0.07-0.016,0.127-0.035,0.162-0.049c1.301-0.515-4.48-2.473-4.444-7.729c0.039-5.245,3.804-6.601,6.013-7.673
				c-1.967,0.121-3.869-0.637-5.734-0.559C64.287,153.774,53.008,155.068,42.815,155.083z"/>
			<path fill="#FFD878" d="M59.542,129.66c0,8.221,6.663,14.885,14.885,14.885c8.22,0,14.884-6.664,14.884-14.885
				c0-8.218-6.664-14.884-14.884-14.884C66.205,114.776,59.542,121.442,59.542,129.66z"/>
			<g>
				<g>
					<path fill="#639A83" d="M87.449,122.417c0,0-0.65,0.504-0.561,1.465c0.098,0.963-0.133,12.206,0.561,12.635
						c0.699,0.425,9.195,0.748,9.195-3.087c0-3.843-3.221-3.768-3.688-3.874c0,0,3.967,0.031,3.688-3.539
						C96.363,122.455,91.555,120.385,87.449,122.417z"/>
					<path fill="#639A83" d="M50.382,135.197c0,0-1.286-9.665-0.538-15.125c0,0,6.477-0.375,7.012,0.158
						c0.539,0.536,3.373,5.404,3.373,5.404l0.535-5.8c0,0,5.141-0.3,5.141,1.305c0,1.606-1.07,13.816-1.928,14.027
						c-0.859,0.217-5.102-0.799-5.102-0.799s-2.449-5.839-3.039-7.339c-0.16-0.408-0.696,0.052-0.696,0.052s0.911,8.118-0.054,8.118
						C54.125,135.197,53.59,135.197,50.382,135.197z"/>
					<path fill="#E2E2E1" d="M50.382,133.83c0,0-1.286-9.664-0.538-15.122c0,0,6.477-0.377,7.012,0.161
						c0.539,0.532,3.373,5.403,3.373,5.403l0.535-5.804c0,0,5.141-0.296,5.141,1.308c0,1.605-1.07,13.811-1.928,14.028
						c-0.859,0.213-5.102-0.802-5.102-0.802s-2.449-5.838-3.039-7.335c-0.16-0.411-0.696,0.048-0.696,0.048s0.911,8.116-0.054,8.116
						C54.125,133.83,53.59,133.83,50.382,133.83z"/>
					<path fill="#639A83" d="M72.433,124.272c0,0-3.961-0.86-4.926,2.731c-0.966,3.586,2.036,4.872,3.214,4.924
						c1.177,0.054,5.353-1.229,3.909-5.245C74.63,126.682,74.309,125.022,72.433,124.272z"/>
					<path fill="#FFFFFF" d="M72.433,122.882c0,0-3.961-0.859-4.926,2.73c-0.966,3.588,2.04,4.794,3.214,4.926
						c1.461,0.16,5.353-1.23,3.909-5.249C74.63,125.289,74.309,123.63,72.433,122.882z"/>
					<path fill="#639A83" d="M82.463,124.272c0,0-3.96-0.86-4.923,2.731c-0.968,3.586,2.03,4.872,3.21,4.924
						c1.178,0.054,5.352-1.229,3.906-5.245C84.656,126.682,84.334,125.022,82.463,124.272z"/>
					<path fill="#FFFFFF" d="M82.463,122.882c0,0-3.96-0.859-4.923,2.73c-0.968,3.588,2.036,4.794,3.21,4.926
						c1.463,0.16,5.352-1.23,3.906-5.249C84.656,125.289,84.334,123.63,82.463,122.882z"/>
					<path fill="#639A83" d="M80.775,125.534c0,0,1.143-0.245,1.422,0.791c0.277,1.031-0.588,1.4-0.928,1.419
						c-0.338,0.014-1.539-0.354-1.123-1.514C80.148,126.23,80.24,125.747,80.775,125.534z"/>
					<path fill="#639A83" d="M70.755,125.534c0,0,1.141-0.245,1.419,0.791c0.278,1.031-0.584,1.4-0.924,1.419
						c-0.34,0.014-1.541-0.354-1.127-1.514C70.125,126.23,70.219,125.747,70.755,125.534z"/>
					<path fill="#FFFFFF" d="M87.449,120.92c0,0-0.65,0.499-0.561,1.464c0.098,0.963-0.133,12.206,0.561,12.634
						c0.699,0.428,9.195,0.75,9.195-3.084c0-3.841-3.221-3.77-3.688-3.88c0,0,3.967,0.039,3.688-3.528
						C96.363,120.955,91.555,118.886,87.449,120.92z"/>
					<path fill="#639A83" d="M91.93,123.167c0,0-1.668,1.273-1.109,1.593c0.553,0.315,1.941,0.206,2.008-0.825
						C92.9,122.905,91.93,123.167,91.93,123.167z"/>
					<path fill="#639A83" d="M90.979,130.7c0,0-0.648,1.593,0.387,1.723c1.043,0.131,1.742-0.719,1.219-1.458
						C92.061,130.224,90.979,130.7,90.979,130.7z"/>
				</g>
			</g>
			<path id="XMLID_2_" fill="none" stroke="#639A83" stroke-linecap="round" stroke-miterlimit="10" d="M80.713,138.56
				c0,0-4.151-6.269-9.994-0.272"/>
			<path fill="#548679" d="M51.192,93.378c0-1.407,0.622-2.374,1.145-3.039c-2.641-0.851-4.234-1.523-6.65-2.872
				c0,0.004-0.69-0.409-0.69-0.405c-2.331,0.405-4.8,0.837-7.097-0.651c3.18,6.479,9.652,9.857,17.574,12.19
				C50.965,97.24,51.192,93.378,51.192,93.378z"/>
		</g>
		<g id="Cheveux_1_2_">
			<path fill="#8C4438" d="M81.295,8.208c0,0,2.424-3.907,2.633-5.999c0.207-2.106-2.193-5.638-9.046,5.79
				c0,0-20.452-5.847-36.209,14.734c-13.631,17.795-7.345,32.3-4.886,39.715c3.716,7.355,9.573,10.775,9.573,10.775
				c-0.722-17.694,6.969-25.681,6.969-25.681c-0.188,2.621-0.115,5.759,2.609,9.058c1.351,0.509-2.44-7.23,5.3-14.458
				c-5.014,8.444,1.194,15.097,3.685,16.901c1.056-5.788,0.008-15.557,4.213-20.832c0.695-0.87,2.329,1.062,3.265,0.312
				c-3.913,4.598-0.313,19.626,5.582,25.999c0.893-0.501,8.888-7.038,11.528-21.559c0.375-2.054,3.766,2.278,4.156-0.219
				c5.463,15.699-5.398,22.357-0.396,20.895c4.045,0.069,7.834-1.727,9.166-4.531l0.709-2.49c0.055-0.521,0.35-0.448,0.463-0.142
				l0.369,1.063c0,0,6.273,1.36,6.297,11.727c1.521,1.505,3.662-2.068,3.662-2.068s8.473-9.107,8.336-19.362
				C119.152,38.312,117.826,10.314,81.295,8.208z"/>
			<path fill="#682E2E" d="M86.262,44.228c0,0,1.209-7.414,3.174-6.791c3.049,0.925,2.744,11.458,2.744,11.458
				C90.68,44.948,87.312,44.274,86.262,44.228z"/>
			<path fill="#682E2E" d="M100.145,56.62c0,0,2.178-4.093-0.021-11.632c-0.564-1.089,3.256,0.819,3.758,1.224
				c5.691,4.564,4.824,13.769,2.418,16.901C104.629,59.771,100.818,58.119,100.145,56.62z"/>
			<path fill="#682E2E" d="M60.429,26.7c0,0,4.65-7.571,12.081-7.29c4.713,0.833,5.083,3.855,5.083,3.855s2.299-4.72,6.088-3.872
				c3.789,0.85,5.844,2.113,10.645,9.072c0,0,1.182-6.046-3.453-10.572c-6.492-6.348-9.803-7.524-14.104-7.419
				C76.77,10.474,67.502,7.576,60.429,26.7z"/>
			<path fill="#682E2E" d="M68.101,41.72c0,0,3.532-7.945,2.106-8.251c-3.077-0.661-5.615,5.726-6.46,9.785
				C65.188,42.563,66.508,41.933,68.101,41.72z"/>
			<path fill="#682E2E" d="M54.08,34.756c0,0-8.591,13.805-17.001,8.498c-7.789-4.918,2.203-20.984,2.572-21.747
				c-0.327,0.403-0.654,0.799-0.979,1.224c-13.631,17.797-7.345,32.3-4.886,39.717c3.716,7.355,9.573,10.775,9.573,10.775
				c-0.655-16.024,5.593-24.09,6.775-25.465C50.42,39.376,54.08,34.756,54.08,34.756z"/>
			<path fill="#682E2E" d="M110.936,67.199c0,0,8.473-9.107,8.336-19.364c-0.045-3.617-0.275-9.763-2.449-16.174l-0.143-0.404
				c0,0,3.449,14.65-5.486,16.108c-8.422,1.374-13.195-10.558-13.195-10.558c3.279,7.72,2.613,18.535,2.613,18.535
				c-0.086,0.292-0.15,0.594-0.209,0.904c0.08,0.02,0.158,0.101,0.205,0.229l0.369,1.063c0,0,6.273,1.36,6.297,11.729
				C108.797,70.774,110.936,67.199,110.936,67.199z"/>
			<path fill="#682E2E" d="M75.682,8.101c0,0-0.071-6.175-2.526-6.807c-2.459-0.632-2.879,4.773,0.49,8.001
				C77.012,12.524,75.682,8.101,75.682,8.101z"/>
			<path fill="#682E2E" d="M85.365,15.471c0,0,5.965-5.458,14.703-2.869c-7.26-4.57-20.311-6.281-25.578-2.127
				C79.469,14.49,85.365,15.471,85.365,15.471z"/>
			<path fill="#682E2E" d="M81.295,8.208c0,0,2.424-3.907,2.633-5.999c0.207-2.106-2.193-5.638-9.046,5.79
				c0,0-0.108-0.029-0.298-0.077c0.562,1.848,1.182,3.876,1.356,4.393c0.219,0.642,4.294-1.981,7.224-3.971
				C82.551,8.289,81.93,8.243,81.295,8.208z"/>
			<path fill="#682E2E" d="M75.635,6.78c-0.247,0.387-0.495,0.789-0.753,1.217c0,0-12.863-3.664-26.049,5.082
				c14.913-4.063,19.127,1.691,19.127,1.691l10.106-4.451L75.635,6.78z"/>
			<path fill="#8C4438" d="M101.52,43.009c0,0,3.879,7.164,3.639,9.24c4.602-4.452,5.754-16.352,5.754-16.352
				S100.266,37.491,101.52,43.009z"/>
			<path fill="#8C4438" d="M108.012,43.546c0,0,3.562,9.996,3.324,12.072c7.094-7.405,5.922-18.965,5.922-18.965
				S106.756,38.026,108.012,43.546z"/>
			<path fill="#8C4438" d="M48.641,41.229c0,0-6.575,6.629-7.025,8.669c-2.903-5.708-0.12-17.337-0.12-17.337
				S51.622,36.417,48.641,41.229z"/>
			<path fill="#8C4438" d="M41.75,40.739c0,0-6.622,8.293-7.072,10.333c-4.298-9.311,0.574-19.859,0.574-19.859
				S44.731,35.93,41.75,40.739z"/>
		</g>
	</g>
</g>
</svg>
