<?xml version="1.0" encoding="utf-8"?>
<!-- Generator: Adobe Illustrator 16.0.0, SVG Export Plug-In . SVG Version: 6.00 Build 0)  -->
<!DOCTYPE svg PUBLIC "-//W3C//DTD SVG 1.1//EN" "http://www.w3.org/Graphics/SVG/1.1/DTD/svg11.dtd">
<svg version="1.1" id="Calque_1" xmlns="http://www.w3.org/2000/svg" xmlns:xlink="http://www.w3.org/1999/xlink" x="0px" y="0px"
	 width="144.41px" height="267.981px" viewBox="0 0 144.41 267.981" enable-background="new 0 0 144.41 267.981"
	 xml:space="preserve">
<g>
	<path opacity="0.7" fill="#75A175" d="M120.872,258.52c0,5.226-20.446,9.462-45.67,9.462c-25.219,0-45.664-4.236-45.664-9.462
		c0-5.228,20.445-9.465,45.664-9.465C100.426,249.055,120.872,253.292,120.872,258.52z"/>
	<g>
		<path fill="#E5B09B" d="M105.687,66.705c0,4.205,2.173,7.613,4.854,7.613c2.68,0,4.857-3.408,4.857-7.613
			c0-4.208-2.178-7.617-4.857-7.617C107.859,59.088,105.687,62.497,105.687,66.705z"/>
		<linearGradient id="SVGID_1_" gradientUnits="userSpaceOnUse" x1="76.2959" y1="85.6958" x2="77.297" y2="46.9098">
			<stop  offset="0.0917" style="stop-color:#FFE7BD"/>
			<stop  offset="1" style="stop-color:#F8E4BE"/>
		</linearGradient>
		<path fill="url(#SVGID_1_)" d="M109.45,61.212c0.052-1.264-0.21-2.578-0.706-3.921c-0.722-4.358-4.017-21.004-20.104-24.983
			c-16.785-4.151-43.919-1.344-44.383,32.447c-0.014,1.11,0.033,2.111,0.155,3.028c-0.031,0.987-0.017,1.97,0.044,2.941
			c0.108,1.745,0.026,2.475-0.199,2.441c0.31,5.616,1.023,10.752,1.023,10.752c21.904,13.105,57.991,2.947,61.176-0.234
			C109.636,80.496,109.45,61.212,109.45,61.212z"/>
		<ellipse fill="#E5B09B" cx="44.457" cy="68.183" rx="4.854" ry="7.616"/>
		<path opacity="0.5" fill="#FFFFFF" d="M84.748,70.271c0,0.845-3.578,1.525-7.995,1.525c-4.411,0-7.99-0.681-7.99-1.525
			c0-0.842,3.579-1.524,7.99-1.524C81.17,68.747,84.748,69.429,84.748,70.271z"/>
		<path fill="#E5B09B" d="M69.201,50.091c-7.491,4.284-9.034,8.22-9.034,15.414c0,12,11.765,22.128,26.687,22.128
			c8.671,0,16.382-3.284,21.327-8.391c-0.422,2.058-0.981,3.691-1.725,4.439c-3.185,3.182-39.271,13.34-61.176,0.234
			c0,0-1.865-13.416-0.863-20.591c-0.034,0.009-0.067,0.022-0.104,0.028c0.996-26.954,19.506-33.368,35.233-32.421
			c0.2-0.15,0.32-0.24,0.32-0.24s0.173,0.104,0.473,0.285c0.224,0.02,0.443,0.043,0.666,0.062c0.028-0.02,0.075-0.054,0.104-0.076
			c0.068,0.034,0.152,0.073,0.225,0.106c2.562,0.247,5.033,0.677,7.308,1.238c12.247,3.029,17.076,13.396,19.003,20.096
			c1.812,5,2.214,7.113,2.1,9.884C109.743,62.288,99.289,38.011,69.201,50.091z"/>
		<path fill="#664539" d="M92.441,62.288c0,0,1.029-1.45,2.623-0.515c1.588,0.937,1.216,5.993,0.561,6.93
			c-0.656,0.934-2.059,1.311-3.184,0C91.318,67.393,91.691,63.546,92.441,62.288z"/>
		<path fill="#664539" d="M58.429,63.115c0,0,1.028-1.449,2.622-0.511c1.589,0.934,1.216,5.988,0.561,6.926
			c-0.658,0.935-2.062,1.31-3.183,0C57.304,68.218,57.68,64.375,58.429,63.115z"/>
		<path fill="none" stroke="#ED6E65" stroke-linecap="round" stroke-miterlimit="10" d="M91.653,75.068c0,0-4.647,2.763-12.31,3.412
			c-10.574,0.896-12.949-0.537-17.222-1.726"/>
		<path fill="#ED6E65" d="M101.463,71.415c0,0,1.63,0.166,2.492,0c0.863-0.164,1.184-1.885,0-2.217
			c-1.342-0.374-3.161-0.162-3.639,0C99.834,69.362,97.727,70.924,101.463,71.415z"/>
		<path fill="#ED6E65" d="M52.548,71.415c0,0-1.626,0.166-2.489,0c-0.863-0.164-1.186-1.885,0-2.217c1.342-0.374,3.161-0.162,3.64,0
			C54.179,69.362,56.288,70.924,52.548,71.415z"/>
		<path fill="#E5B09B" d="M45.28,83.916c0,0-0.281-2.029-0.559-4.826c3.655,3.534,12.338,8.543,30.605,8.543
			c28.117,0,32.858-8.425,32.863-8.426c-0.425,2.074-0.659,3.721-1.409,4.475C103.599,86.863,67.185,97.021,45.28,83.916z"/>
		<path fill="#E5B09B" d="M54.029,165.993c0,0-0.044,27.282,0.205,28.579c0.244,1.304-1.682,33.438,1.554,34.605
			s6.307-21.45,6.135-30.266c-0.119-6.174,2.855-32.919,2.855-32.919H54.029z"/>
		<path fill="#E5B09B" d="M101.41,165.154c0,0,0.636,28.121,0.391,29.418c-0.247,1.304,1.681,33.438-1.557,34.605
			c-3.236,1.167-6.308-21.45-6.137-30.266c0.123-6.174-2.752-31.212-2.752-31.212L101.41,165.154z"/>
		<path fill="#F8E4BE" d="M108.278,94.469c0,0,17.878,3.712,24.869,32.171l7.489,1.437c0,0-10.476-36.438-34.816-41.936
			C94.926,83.682,108.278,94.469,108.278,94.469z"/>
		<path fill="#F8E4BE" d="M133.147,126.64c0,0-4.212,5.628-3.93,6.751c0.279,1.125,0.358,6.177,1.958,5.525
			c1.597-0.657,2.377-6.556,2.377-6.556s1.936,8.614,0.345,11.141c-1.591,2.525,9.266,6.644,10.393-2.996
			c1.121-9.645-5.97-19.255-5.97-19.255L133.147,126.64z"/>
		<polygon fill="#E5B09B" points="133.553,132.36 138.825,129.331 134.378,137.519 		"/>
		<path fill="#E5B09B" d="M46.054,92.723c0,0-23.942,5.458-30.931,33.917l-7.493,1.437c0,0,11.246-38.795,35.792-43.311
			C51.177,83.338,46.054,92.723,46.054,92.723z"/>
		<path fill="#E5B09B" d="M15.123,126.64c0,0,4.214,5.628,3.93,6.751c-0.279,1.125-0.361,6.177-1.96,5.525
			c-1.594-0.657-2.377-6.556-2.377-6.556s-1.935,8.614-0.344,11.141c1.593,2.525-9.268,6.644-10.389-2.996
			c-1.124-9.645,5.968-19.255,5.968-19.255L15.123,126.64z"/>
		<polygon fill="#DA8976" points="14.715,132.36 9.443,129.331 13.893,137.519 		"/>
		<path fill="#80A77F" d="M46.054,84.354c0,0,2.16,39.026,1.659,45.795c-0.695,9.407-0.865,36.861-0.865,36.861
			s61.493,1.556,62.336,0s-0.993-48.363-0.993-48.363l-1.409-34.965C106.781,83.682,79.356,99.933,46.054,84.354z"/>
		<path fill="#99BE98" d="M46.054,84.354c0,0,18.116,33.068,30.401,38.895c9.22-1.844,28.272-38.366,28.272-38.366
			S72.182,97.325,46.054,84.354z"/>
		<path fill="#E5B09B" d="M94.926,212.314c0,0,2.464,33.986,4.316,34.445c1.853,0.461,16.425,1.211,16.578-0.936
			c0.153-2.147,1.347-7.325-10.447-6.029c-2.591-4.683-3.46-27.48-3.46-27.48l0,0H94.926z"/>
		<path fill="#E5B09B" d="M60.942,211.314c0,0-2.464,33.871-4.316,34.332c-1.853,0.459-16.425,1.154-16.578-0.994
			c-0.153-2.146-1.348-7.239,10.447-5.943c2.591-4.683,3.461-27.395,3.461-27.395l0,0H60.942z"/>
		<path fill="#7E3B30" d="M39.134,243.606c0,0-3.664,11.321,0.036,12.642c0,0,8.498,3.227,18.814,0.774
			c0.296-0.069,1.283-0.479,1.655-1.203c0,0,2.629-6.991,0.505-9.738C58.022,243.335,39.134,243.606,39.134,243.606z"/>
		<path fill="#C55F4D" d="M62.465,227.477c0,0-1.733,3.892-1.491,6.82c0.357,4.348,0.331,11.075-0.981,12.83
			c-1.755,2.341-4.087,2.352-6.827,2.696c-1.946,0.244-10.014,1.086-13.429-1.272c-1.409-0.976-1.492-2.265-1.691-4.652
			c0,0-0.676-8.122,3.493-9.834c3.547-1.452,4.861,0.403,6.849-0.239c2.167-0.697,2.587-1.379,2.589-4.519
			C50.981,227.352,62.465,227.477,62.465,227.477z"/>
		<path opacity="0.6" fill="#784C3A" d="M51.389,237.754c0,0-0.388-0.456-1.368-0.981c0.331-0.187,0.629-0.323,0.853-0.386
			c0.831-0.237,0.161-0.658,0.161-0.658s-0.255-0.168-0.67-0.42c-0.411-0.251-1.212,0.15-1.212,0.15
			c-0.361,0.186-0.69,0.372-0.987,0.555c-0.335-0.102-0.696-0.202-1.092-0.29c0,0-0.875-0.194-1.215,0.15
			c-0.335,0.346-0.542,0.572-0.542,0.572s-0.544,0.574,0.316,0.598c0.235,0.007,0.559,0.067,0.926,0.165
			c-0.823,0.751-1.086,1.29-1.086,1.29c-0.313,0.531,0.068,0.865,0.068,0.865s0.194,0.134,0.628,0.333
			c0.431,0.203,0.767-0.183,1.212-0.707c0.266-0.362,0.629-0.729,1.027-1.066c0.465,0.229,0.909,0.493,1.259,0.778
			c0.555,0.397,0.978,0.69,1.348,0.389c0.367-0.3,0.523-0.479,0.523-0.479S51.823,238.194,51.389,237.754z"/>
		<path fill="#E2E6E6" d="M54.119,212.245c0,0-1.59,0.11-2.318,0.745c-0.745,0.652-0.959,2.064-0.959,3.996
			c0,1.938-0.363,11.76,0.135,12.32c1.076,1.208,6.702,3.709,10.358,1.561c0,0,5.309-13.925,2.487-17.436
			c-0.72-0.898-1.154-1.062-2.714-1.187c0,0-0.276,1.304-0.53,1.966c-0.429,1.104-1.131,1.787-2.809,1.656
			C55.776,215.701,53.634,215.701,54.119,212.245z"/>
		<path opacity="0.5" fill="none" stroke="#A8A09E" stroke-linecap="round" stroke-miterlimit="10" d="M53.899,216.349
			c0,0-1.407,7.82-0.583,11.811"/>
		<path opacity="0.5" fill="none" stroke="#A8A09E" stroke-linecap="round" stroke-miterlimit="10" d="M57.208,217.211
			c0,0-1.405,7.813-0.581,11.812"/>
		<path opacity="0.5" fill="none" stroke="#A8A09E" stroke-linecap="round" stroke-miterlimit="10" d="M60.432,217.305
			c0,0,0.716,5.759-1.029,11.624"/>
		<path fill="#EDECD9" d="M47.01,235.239c0,0-0.875-0.194-1.213,0.151c-0.336,0.342-0.542,0.57-0.542,0.57s-0.545,0.572,0.316,0.597
			c0.862,0.023,2.914,0.74,4.031,1.663c0.56,0.395,0.983,0.685,1.351,0.386c0.37-0.305,0.522-0.482,0.522-0.482
			s0.29-0.418-0.146-0.854C51.33,237.27,50.236,235.966,47.01,235.239z"/>
		<path fill="#EDECD9" d="M49.093,234.976c0,0,0.802-0.402,1.213-0.154c0.41,0.253,0.668,0.42,0.668,0.42s0.668,0.423-0.16,0.657
			c-0.83,0.234-2.642,1.438-3.498,2.607c-0.44,0.522-0.778,0.908-1.208,0.707c-0.434-0.201-0.628-0.336-0.628-0.336
			s-0.383-0.333-0.068-0.868C45.413,238.009,46.15,236.48,49.093,234.976z"/>
		<path fill="none" stroke="#553227" stroke-linecap="round" stroke-miterlimit="10" d="M41.558,250.463c0,0-0.39,2.22,0,4.7"/>
		<path fill="none" stroke="#553227" stroke-linecap="round" stroke-miterlimit="10" d="M44.889,251.155c0,0-0.39,2.296,0,4.87"/>
		<path fill="none" stroke="#553227" stroke-linecap="round" stroke-miterlimit="10" d="M48.727,251.671c0,0-0.389,2.301,0,4.873"/>
		<path fill="none" stroke="#553227" stroke-linecap="round" stroke-miterlimit="10" d="M52.075,251.671c0,0-0.389,2.301,0,4.873"/>
		<path fill="none" stroke="#553227" stroke-linecap="round" stroke-miterlimit="10" d="M55.852,251.438c0,0-0.386,2.029,0,4.3"/>
		<path fill="#7E3B30" d="M116.897,243.606c0,0,3.935,11.557,0.288,12.938c0,0-8.821,2.931-19.137,0.479
			c-0.296-0.069-1.283-0.479-1.652-1.203c0,0-2.63-6.991-0.508-9.738C98.01,243.335,116.897,243.606,116.897,243.606z"/>
		<path fill="#C55F4D" d="M93.567,227.477c0,0,1.733,3.892,1.494,6.82c-0.357,4.348-0.333,11.617,0.981,13.371
			c1.753,2.339,4.085,1.811,6.826,2.155c1.944,0.244,10.014,1.086,13.428-1.272c1.412-0.976,1.489-2.265,1.69-4.652
			c0,0,0.677-8.122-3.493-9.834c-3.545-1.452-4.859,0.403-6.851-0.239c-2.163-0.697-2.586-1.379-2.588-4.519
			C105.053,227.352,93.567,227.477,93.567,227.477z"/>
		<path opacity="0.6" fill="#784C3A" d="M104.644,237.754c0,0,0.391-0.456,1.368-0.981c-0.328-0.187-0.633-0.323-0.854-0.386
			c-0.829-0.237-0.156-0.658-0.156-0.658s0.255-0.168,0.666-0.42c0.411-0.251,1.213,0.15,1.213,0.15
			c0.36,0.186,0.69,0.372,0.987,0.555c0.335-0.102,0.697-0.202,1.095-0.29c0,0,0.875-0.194,1.21,0.15
			c0.34,0.346,0.544,0.572,0.544,0.572s0.546,0.574-0.316,0.598c-0.231,0.007-0.558,0.067-0.926,0.165
			c0.824,0.751,1.086,1.29,1.086,1.29c0.313,0.531-0.068,0.865-0.068,0.865s-0.198,0.134-0.628,0.333
			c-0.431,0.203-0.767-0.183-1.213-0.707c-0.264-0.362-0.628-0.729-1.023-1.066c-0.466,0.229-0.91,0.493-1.259,0.778
			c-0.558,0.397-0.98,0.69-1.349,0.389c-0.369-0.3-0.526-0.479-0.526-0.479S104.207,238.194,104.644,237.754z"/>
		<path fill="#E2E6E6" d="M101.913,212.245c0,0,1.59,0.11,2.319,0.745c0.744,0.652,0.958,2.064,0.958,3.996
			c0,1.938,0.363,11.76-0.135,12.32c-1.078,1.208-6.703,3.709-10.355,1.561c0,0-5.31-13.925-2.49-17.436
			c0.723-0.898,1.154-1.062,2.716-1.187c0,0,0.274,1.304,0.531,1.966c0.429,1.104,1.131,1.787,2.808,1.656
			C100.255,215.701,102.4,215.701,101.913,212.245z"/>
		<path opacity="0.5" fill="none" stroke="#A8A09E" stroke-linecap="round" stroke-miterlimit="10" d="M102.136,216.349
			c0,0,1.405,7.82,0.583,11.811"/>
		<path opacity="0.5" fill="none" stroke="#A8A09E" stroke-linecap="round" stroke-miterlimit="10" d="M98.821,217.211
			c0,0,1.407,7.813,0.584,11.812"/>
		<path opacity="0.5" fill="none" stroke="#A8A09E" stroke-linecap="round" stroke-miterlimit="10" d="M95.601,217.305
			c0,0-0.713,5.759,1.028,11.624"/>
		<path fill="#EDECD9" d="M109.022,235.239c0,0,0.875-0.194,1.213,0.151c0.336,0.342,0.543,0.57,0.543,0.57s0.547,0.572-0.316,0.597
			c-0.862,0.023-2.916,0.74-4.033,1.663c-0.556,0.395-0.979,0.685-1.347,0.386c-0.369-0.305-0.526-0.482-0.526-0.482
			s-0.287-0.418,0.147-0.854C104.703,237.27,105.799,235.966,109.022,235.239z"/>
		<path fill="#EDECD9" d="M106.941,234.976c0,0-0.803-0.402-1.215-0.154c-0.412,0.253-0.666,0.42-0.666,0.42
			s-0.669,0.423,0.16,0.657s2.639,1.438,3.492,2.607c0.446,0.522,0.782,0.908,1.213,0.707s0.629-0.336,0.629-0.336
			s0.38-0.333,0.067-0.868C110.622,238.009,109.883,236.48,106.941,234.976z"/>
		<path fill="none" stroke="#553227" stroke-linecap="round" stroke-miterlimit="10" d="M114.478,250.463c0,0,0.39,2.22,0,4.7"/>
		<path fill="none" stroke="#553227" stroke-linecap="round" stroke-miterlimit="10" d="M111.144,251.155c0,0,0.393,2.296,0,4.87"/>
		<path fill="none" stroke="#553227" stroke-linecap="round" stroke-miterlimit="10" d="M107.304,251.671c0,0,0.394,2.301,0,4.873"
			/>
		<path fill="none" stroke="#553227" stroke-linecap="round" stroke-miterlimit="10" d="M103.958,251.671c0,0,0.392,2.301,0,4.873"
			/>
		<path fill="none" stroke="#553227" stroke-linecap="round" stroke-miterlimit="10" d="M100.181,251.438c0,0,0.389,2.029,0,4.3"/>
		<path fill="#695D8C" d="M46.848,167.01c0,0-0.671,13.903,0,14.61c2.248,2.351,21.764,5.002,22.387,0
			c0.618-5.009,0-17.241,0-17.241L46.848,167.01z"/>
		<path fill="#695D8C" d="M109.184,167.01c0,0,0.672,13.903,0,14.61c-2.247,2.351-21.761,5.002-22.383,0
			c-0.621-5.009,0-17.241,0-17.241L109.184,167.01z"/>
		<path fill="#E5B09B" d="M113.82,88.752c2.13,1.178,4.115,2.611,5.967,4.213c-0.385,2.092-1.571,3.791-3.848,5.26
			c-2.351-1.754-4.69-2.562-6.196-3.186L113.82,88.752z"/>
		<path fill="#558777" d="M110.504,83.682c0,0,7.198,1.523,7.198,3.182c0,1.659-3.1,10.488-8.898,11.607
			c-5.797,1.125-1.979-13.705-1.979-13.705L110.504,83.682z"/>
		<path fill="#558777" d="M45.156,82.959c0,0-10.631,0-11.199,3.904c-0.238,1.643,3.1,10.488,8.898,11.607
			c5.8,1.125,5.352-12.803,5.352-12.803L45.156,82.959z"/>
		<path fill="#ACD4AC" d="M107.948,87.633c0,0,2.341,29.871,2.785,34.366c0.448,4.497,0.304,26.715,0,30.206
			c0,0-41.43,8.034-66.459,1.249c0,0,1.538-20.47,1.144-23.967c-0.392-3.492-1.626-27.037-2.542-39.046
			C42.876,90.441,90.735,98.453,107.948,87.633z"/>
		<path fill="#558777" d="M74.1,124.238c-1.221-3.454-1.768-6.427-1.875-8.975l-1.396,2.299L51.145,96.768l12.398,1.457
			c-8.192-2.695-13.877-5.472-16.937-8.497c-2.421-0.403-4.247-0.681-4.247-0.681c0.917,12.01,2.667,36.948,3.058,40.44
			c0.395,3.497-1.144,23.967-1.144,23.967c0.986,0.269,1.997,0.506,3.028,0.729l48.74-2.977
			C88.349,149.032,78.861,137.703,74.1,124.238z"/>
		<path fill="#558777" d="M74.986,109.13c0,0,10.188-1.093,15.964,7.646c4.244,6.422,5.617,12.989,0.205,21.396
			c-5.41,8.408-20.267,8.161-24.834,4.163c-4.569-3.995-8.974-8.292-7.772-19.387C59.75,111.859,72.713,109.262,74.986,109.13z"/>
		<path fill="#558777" d="M110.397,86.49c0,0,0.057,2.367,0.157,3.638c-5.183,6.265-19.599,14.939-35.36,15.116
			c-12.845,0.146-27.226-5.338-34.219-15.209c-2.149-2.59-0.643-2.756-0.424-3.545C40.551,86.49,93.183,97.309,110.397,86.49z"/>
		<path fill="#ACD4AC" d="M114.173,78.761c-1.035-2.221-3.723-2.021-5.64-1.538c-0.443,2.987-1.025,5.481-2.001,6.459
			c-3.148,3.146-37.327,13.086-60.327,0.657c0,0.004,0,0.011,0,0.015c-2,0.866-4.521,0.846-6.827-0.521
			c8.804,16.156,40.469,17.17,58.733,11.081C116.646,88.736,115.857,82.371,114.173,78.761z"/>
		<path fill="#558777" d="M44.274,152.723c0,0,0.185-0.526,0.134-1.759c-0.134-2.904,19.402,0.72,29.706,0.012
			c0,0-5.796-0.933,3.897-1.721c5.146-0.417,32.875-0.837,32.839-0.323c-0.021,0.305-0.06,2.262-0.285,2.571l-32.649,6.711
			L44.274,152.723z"/>
		<path fill="#ACD4AC" d="M110.795,151.206c0,0,4.126,2.423,4.072,9.44c-0.038,5.335-3.736,6.139-5.06,6.665
			c-2.029,0.803-55.305,5.774-64.53,0.051c0,0-8.578-5.462-1.003-13.908C44.274,153.454,74.357,156.889,110.795,151.206z"/>
		<path fill="#558777" d="M44.274,153.454c-7.924,9.261,1.003,13.908,1.003,13.908c4.978,3.092,22.772,3.064,38.426,2.26
			c0.072-0.017,0.132-0.036,0.167-0.05c1.323-0.522-4.554-2.515-4.515-7.853c0.038-5.325,3.865-6.705,6.107-7.794
			c-1.998,0.125-3.929-0.646-5.827-0.564C66.085,152.121,54.631,153.436,44.274,153.454z"/>
		<circle fill="#FFDB5E" cx="76.386" cy="127.628" r="15.12"/>
		<g>
			<g>
				<path fill="#689B7F" d="M89.616,120.271c0,0-0.664,0.508-0.568,1.487c0.096,0.977-0.141,12.397,0.568,12.833
					c0.709,0.435,9.338,0.762,9.338-3.135c0-3.899-3.27-3.827-3.744-3.936c0,0,4.029,0.036,3.744-3.592
					C98.671,120.308,93.787,118.206,89.616,120.271z"/>
				<path fill="#689B7F" d="M51.961,133.252c0,0-1.306-9.818-0.547-15.364c0,0,6.58-0.384,7.125,0.16
					c0.545,0.545,3.425,5.493,3.425,5.493l0.543-5.894c0,0,5.222-0.304,5.222,1.326c0,1.631-1.085,14.032-1.958,14.247
					c-0.871,0.219-5.181-0.812-5.181-0.812s-2.488-5.932-3.085-7.453c-0.163-0.417-0.708,0.05-0.708,0.05s0.925,8.247-0.054,8.247
					C55.766,133.252,55.222,133.252,51.961,133.252z"/>
				<path fill="#E9E9E8" d="M51.961,131.864c0,0-1.306-9.817-0.547-15.365c0,0,6.58-0.38,7.125,0.167
					c0.545,0.541,3.425,5.49,3.425,5.49l0.543-5.896c0,0,5.222-0.303,5.222,1.327c0,1.631-1.085,14.031-1.958,14.249
					c-0.871,0.218-5.181-0.814-5.181-0.814s-2.488-5.927-3.085-7.452c-0.163-0.417-0.708,0.048-0.708,0.048s0.925,8.247-0.054,8.247
					C55.766,131.864,55.222,131.864,51.961,131.864z"/>
				<path fill="#689B7F" d="M74.362,122.156c0,0-4.024-0.873-5.001,2.775c-0.981,3.641,2.064,4.946,3.264,4.998
					c1.194,0.056,5.437-1.248,3.969-5.327C76.594,124.603,76.266,122.915,74.362,122.156z"/>
				<path fill="#FFFFFF" d="M74.362,120.741c0,0-4.024-0.87-5.001,2.776c-0.981,3.643,2.068,4.867,3.264,4.999
					c1.484,0.165,5.437-1.249,3.969-5.331C76.594,123.186,76.266,121.502,74.362,120.741z"/>
				<path fill="#689B7F" d="M84.551,122.156c0,0-4.023-0.873-5.002,2.775c-0.983,3.641,2.062,4.946,3.262,4.998
					c1.195,0.056,5.437-1.248,3.968-5.327C86.778,124.603,86.453,122.915,84.551,122.156z"/>
				<path fill="#FFFFFF" d="M84.551,120.741c0,0-4.023-0.87-5.002,2.776c-0.983,3.643,2.069,4.867,3.262,4.999
					c1.487,0.165,5.437-1.249,3.968-5.331C86.778,123.186,86.453,121.502,84.551,120.741z"/>
				<path fill="#689B7F" d="M82.837,123.436c0,0,1.159-0.25,1.441,0.803c0.282,1.048-0.595,1.424-0.939,1.44
					c-0.346,0.015-1.564-0.359-1.141-1.539C82.198,124.14,82.291,123.653,82.837,123.436z"/>
				<path fill="#689B7F" d="M72.656,123.436c0,0,1.161-0.25,1.443,0.803c0.282,1.048-0.597,1.424-0.939,1.44
					c-0.344,0.015-1.564-0.359-1.143-1.539C72.018,124.14,72.113,123.653,72.656,123.436z"/>
				<path fill="#FFFFFF" d="M89.616,118.75c0,0-0.664,0.506-0.568,1.485s-0.141,12.398,0.568,12.835
					c0.709,0.434,9.338,0.76,9.338-3.135c0-3.899-3.27-3.828-3.744-3.938c0,0,4.029,0.038,3.744-3.587
					C98.671,118.784,93.787,116.684,89.616,118.75z"/>
				<path fill="#689B7F" d="M94.165,121.032c0,0-1.689,1.292-1.126,1.616c0.562,0.325,1.971,0.21,2.039-0.838
					C95.152,120.765,94.165,121.032,94.165,121.032z"/>
				<path fill="#689B7F" d="M93.199,128.685c0,0-0.659,1.617,0.396,1.752c1.056,0.13,1.767-0.73,1.235-1.483
					C94.3,128.197,93.199,128.685,93.199,128.685z"/>
			</g>
		</g>
		<path id="XMLID_4_" fill="none" stroke="#689B7F" stroke-linecap="round" stroke-miterlimit="10" d="M82.772,136.668
			c0,0-4.219-6.368-10.153-0.273"/>
		<path fill="#558777" d="M52.783,90.771c0-1.431,0.634-2.412,1.163-3.089c-2.682-0.863-4.301-1.547-6.755-2.916
			c0,0.004-0.7-0.416-0.7-0.412c-2.369,0.412-4.876,0.85-7.209-0.663c3.23,6.583,9.805,10.015,17.854,12.384
			C52.554,94.693,52.783,90.771,52.783,90.771z"/>
		<path fill="#DF5935" d="M85.974,45.177c0,0,3.465-1.287,3.465-4.185c0,0,3.904,3.983,2.782,5.48c0,0,16.253-1.497,17.522,15.816
			c0,0,7.931-10.758,7.178-21.739c-0.748-10.986-8.761-26.922-24.115-23.925c-3.001,0.585-6.424,0.411-7.324,2.362
			c-0.304,0.658-0.805,0.932-1.229,1.081c-2.056,0.715-3.627-0.587-4.512-0.946c-6.829-2.757-4.215,1.743-4.215,1.743
			s4.077,1.462,6.832,5.669C87.224,33.966,85.974,45.177,85.974,45.177z"/>
		<path fill="#DF5935" d="M101.513,7.918c-2.1-0.315-7.488,5.898-7.488,5.898s3.465-7.487,2.062-9.454
			c-1.403-1.968-5.351-1.849-5.351-1.849c-2.431,0.341-0.657,4.844,0.427,7.158C88.359,6.469,77.727-3.37,55.949,1.182
			c-26.644,5.569-39.7,50.233-23.057,74.308l38.82-41.388l4.494-4.496l7.796,11.921l5.982-23.306l5.068,0.652
			c0,0,8.611-5.713,9.736-6.462C105.914,11.663,103.009,8.143,101.513,7.918z"/>
		<path fill="#8A2F26" d="M45.551,75.535c-2.62-0.108-4.724-3.468-4.724-7.607c0-1.8,0.4-3.451,1.066-4.757l-0.626-0.689
			c0,0-6.538,15.961-6.538,16.389c0,0.425-1.265-0.955,3.093,3.807c2.291,2.502,6.441,2.744,8.231,1.677
			C45.845,82.643,45.771,78.936,45.551,75.535z"/>
		<path fill="#DF5935" d="M13.474,65.155c0,0,2.734,8.068-3.979,6.697C-4.217,69.05-1.384,84.256,7.319,81.377
			c5.247-1.738,10.819-4.484,11.933-17.138L13.474,65.155z"/>
		<path fill="#A9352D" d="M22.389,28.854c0,0-2.782-2.429-4.889,0.767c-2.114,3.198-1.362,10.674,1.133,20.582
			c2.49,9.901,2.405,29.023-11.576,31.174c0,0,9.485-3.797,6.775-12.917C11.66,61.139-3.929,36.037,3.313,23.333
			c4.692-8.235,17.612-7.377,22.005,2.223L22.389,28.854z"/>
		<path fill="#DF5935" d="M24.624,24.243c0.009,0.014,0.017,0.03,0.027,0.044l0.586,1.361l-2.848,3.206c0,0-2.782-2.429-4.889,0.767
			c-1.271,1.923-1.5,5.401-0.942,10.014c-0.004-0.015-0.004-0.031-0.011-0.048C9.554,17.373,24.445,24.165,24.624,24.243z"/>
		<path fill="#E73A33" d="M32.391,25.245c0,0-2.835-4.201-6.975-1.911c0,0-4.939,4.961-2.445,9.52
			c1.357,2.477,5.056,4.365,6.743,2.307C31.396,33.101,32.391,25.245,32.391,25.245z"/>
		<path fill="#A9352D" d="M84.158,24.641c0,0,1.12-3.829,1.229-4.478c0.971-5.842-10.687-13.654-21.326-14.546
			c-0.475-0.003-0.948-0.009-1.439-0.009c-12.568,0-23.7,6.245-30.594,15.849c-3.573,6.874-5.844,14.825-6.591,22.835
			c-0.035,0.372-0.074,0.742-0.101,1.114c-0.071,0.932-0.11,1.861-0.138,2.791c-0.001,0.03-0.001,0.062-0.003,0.096
			c-0.015,0.553-0.051,1.106-0.051,1.657c0.022,0.145,0.058,0.283,0.079,0.427c0.214,8.948,2.752,17.75,7.668,25.113
			c0.816-1.491,1.625-3.015,2.412-4.52c0.305,0.326,0.595,0.665,0.911,0.979l35.498-37.846l4.494-4.496l7.796,11.921l1.969-18.471
			C85.559,24.076,84.976,24.722,84.158,24.641z"/>
		<path fill="#A9352D" d="M103.479,24.008c0,0-7.669-6.646-11.771-3.444l0.052-3.333c-1.651-2.863-4.453-3.074-4.729-0.142
			c-0.551,5.862-3.377,21.5-3.377,23.902l0.351,0.534l0.736,1.661l-0.581,2.163l1.858-0.19c0.393-0.158,3.328-0.67,3.328-3.378
			c0,0,1.469,1.279,2.124,2.675c0.124,0.529,0.251,1.064,0.389,1.617c0,0,1.833-6.203,4.578-6.08c2.746,0.126,6.16-2.017,6.94,9.492
			c0,0,3.777,2.75,5.262,7.186C110.399,61.939,119.787,41.021,103.479,24.008z"/>
		<path fill="#DF5935" d="M76.855,26.166c0,0-2.491-0.529-6.011,0.146c0,0-5.525,3.613-7.477,6.507
			c-7.398,10.966-14.571,6.619-26.301,16.722c-12.741,10.977-7.396,21.969-3.644,28.094c2.765,3.752,3.519-1.321,3.519-1.321h0.001
			c0.241-2,1.567-4.923,5.031-7.442c0,0,7.494-2.655,16.372-7.503c10.416-5.688,10.854-8.876,12.858-14.133
			c0,0,5.888-3.952,10.809-1.27c1.331,0.726,2.938-0.795,2.938-0.795s-1.541-9.367-4.575-15.014
			C79.431,28.398,78.219,26.442,76.855,26.166z"/>
		<path fill="#8A2F26" d="M81.783,45.874c0,0-1.284-5.591-2.09-7.728c-0.527-1.395-0.512-2.51-2.187-2.992
			c0,0-1.835-1.318-2.936,0.885c-1.334,2.665-2.118,6.274-3.366,11.241C71.205,47.28,74.21,45.252,81.783,45.874z"/>
		<path fill="none" stroke="#A9352D" stroke-miterlimit="10" d="M35.354,73.647c-4.503-9.971,8.767-16.337,8.767-16.337
			s18.054-7.769,21.147-16.339"/>
		<path fill="none" stroke="#E05A35" stroke-linecap="round" stroke-miterlimit="10" d="M8.857,21.043c0,0-6.217,2.162-4.386,12.882
			"/>
		<path fill="none" stroke="#E05A35" stroke-linecap="round" stroke-miterlimit="10" d="M6.171,30.159c0,0,0.097,0.84,0.652,2.523"
			/>
		<path fill="#DF5935" d="M101.826,50.033c0.935,1.309,1.5-1.43,1.502-1.434c0.204-5.241,1.022-11.318-3.136-14
			c-0.696-0.451-3.532-0.977-4.378-1.098c0,0-4.083,1.101-3.957,12.21c0,0-0.36,1.211,1.825,1.119
			c2.038-0.083,4.178-4.023,7.393,1.735C101.426,48.122,101.461,49.521,101.826,50.033z"/>
		<path fill="#8A2F26" d="M92.398,46.661c0,0,0.978-6.453,4.022-6.925c0.691-0.108,3,0.849,3.406,1.286
			c1.466,1.568,2.218,2.468,1.747,8.465C101.574,49.486,100.545,47.28,92.398,46.661z"/>
	</g>
</g>
</svg>
