<?xml version="1.0" encoding="utf-8"?>
<!-- Generator: Adobe Illustrator 16.0.0, SVG Export Plug-In . SVG Version: 6.00 Build 0)  -->
<!DOCTYPE svg PUBLIC "-//W3C//DTD SVG 1.1//EN" "http://www.w3.org/Graphics/SVG/1.1/DTD/svg11.dtd">
<svg version="1.1" id="Calque_1" xmlns="http://www.w3.org/2000/svg" xmlns:xlink="http://www.w3.org/1999/xlink" x="0px" y="0px"
	 width="144.411px" height="267.981px" viewBox="0 0 144.411 267.981" enable-background="new 0 0 144.411 267.981"
	 xml:space="preserve">
<g>
	<path opacity="0.7" fill="#75A175" d="M120.873,258.52c0,5.226-20.446,9.462-45.67,9.462c-25.22,0-45.664-4.236-45.664-9.462
		c0-5.228,20.444-9.465,45.664-9.465C100.426,249.055,120.873,253.292,120.873,258.52z"/>
	<path fill="#453734" d="M138.321,121.25l-0.083,0.086c-3.045-7.594-9.072-19.921-18.546-27.971c0.032-0.134,0.07-0.264,0.096-0.4
		c-1.015-0.878-2.073-1.698-3.17-2.461c0.712-1.654,1.085-3.072,1.085-3.641c0-0.788-1.628-1.544-3.335-2.122
		c1.089-2.349,0.533-4.422-0.194-5.98c-1.035-2.22-3.722-2.021-5.639-1.538c0.158-1.067,0.29-2.195,0.398-3.341
		c0.504,0.278,1.043,0.437,1.607,0.437c2.68,0,4.857-3.408,4.857-7.613c0-3.606-1.602-6.618-3.745-7.408
		c2.295-3.955,5.779-11.298,5.269-18.748c-0.645-9.465-6.687-22.593-18.165-24.133c2.483-1.648,5.41-3.59,6.034-4.005
		c1.124-0.748-1.781-4.267-3.277-4.492c-2.1-0.315-7.488,5.898-7.488,5.898s3.465-7.487,2.062-9.454
		c-1.403-1.968-5.351-1.849-5.351-1.849c-2.431,0.341-0.657,4.844,0.427,7.158C88.36,6.469,77.727-3.37,55.95,1.182
		c-9.956,2.081-18.014,9.622-23.335,19.507c-0.194,0.257-0.397,0.506-0.585,0.768c-0.39,0.749-0.757,1.517-1.115,2.29
		c-1.229-0.925-3.153-1.71-5.498-0.413c0,0-0.337,0.341-0.787,0.918c-0.002-0.003-0.004-0.006-0.006-0.009
		c-0.002-0.001-0.016-0.007-0.021-0.009c-4.932-8.322-16.824-8.735-21.289-0.9c-7.241,12.704,8.348,37.805,10.52,45.127
		c0.062,0.21,0.111,0.414,0.161,0.618c-0.173,1.821-1.18,3.451-4.499,2.773C-4.216,69.05-1.383,84.256,7.319,81.377
		c0.123-0.041,0.246-0.083,0.369-0.125c13.344-2.63,13.396-21.302,10.945-31.05c-0.996-3.956-1.708-7.515-2.076-10.577
		c0,0.003,0.001,0.007,0.002,0.01c-0.277-2.292-0.359-4.303-0.217-5.983c0.004-0.045,0.01-0.087,0.014-0.131
		c0.032-0.341,0.074-0.667,0.125-0.979c0.017-0.098,0.035-0.192,0.053-0.287c0.048-0.251,0.103-0.493,0.164-0.724
		c0.026-0.102,0.054-0.204,0.083-0.302c0.066-0.219,0.143-0.424,0.223-0.623c0.033-0.083,0.063-0.17,0.1-0.249
		c0.119-0.265,0.25-0.514,0.397-0.737c2.107-3.196,4.889-0.767,4.889-0.767l0.009-0.01c-0.243,1.28-0.164,2.661,0.573,4.009
		c0.778,1.42,2.326,2.643,3.824,3.043c-0.632,2.763-1.094,5.574-1.357,8.396c-0.034,0.372-0.074,0.742-0.101,1.114
		c-0.071,0.932-0.11,1.861-0.138,2.791c-0.001,0.03-0.001,0.062-0.004,0.096c-0.014,0.553-0.051,1.106-0.051,1.657
		c0.022,0.145,0.059,0.283,0.08,0.427c0.137,5.729,1.237,11.392,3.294,16.661c0.446,1.193,0.945,2.358,1.495,3.495
		c0.883,2.75,2.226,5.17,3.41,7.104c0.498,0.676,0.929,1.058,1.304,1.243c-0.021,0.392-1.227-0.923,3.095,3.799
		c0.333,0.363,0.713,0.666,1.111,0.938c-2.438,0.532-4.722,1.497-4.977,3.249c-0.042,0.288,0.032,0.806,0.204,1.455
		c-12.596,7.49-20.496,23.762-24.146,32.999l-0.064-0.067c0,0-7.092,9.61-5.969,19.255c1.121,9.64,11.981,5.521,10.389,2.996
		c-0.738-1.173-0.715-3.657-0.479-5.984l0.001,0.002l0.822-5.158c0,0,0.783,5.898,2.377,6.556c1.6,0.651,1.682-4.4,1.961-5.525
		c0.283-1.123-3.93-6.751-3.93-6.751c4.42-17.998,15.615-26.79,23.252-30.827c1.259,1.305,2.758,2.326,4.479,2.658
		c0.072,0.014,0.139,0.016,0.209,0.024c0.918,12.506,2.049,28.269,2.354,30.992c0.305,2.696-0.54,15.479-0.943,21.191
		c-0.044,0.088-0.071,0.181-0.066,0.285c0.009,0.218,0.009,0.405,0.006,0.58c-0.021,0.293-0.04,0.547-0.057,0.779
		c-0.039,0.271-0.083,0.399-0.083,0.399l0.054,0.009c-0.034,0.457-0.054,0.723-0.054,0.723c-1.219,1.359-2.015,2.64-2.5,3.834
		c-2.953,6.708,3.503,10.074,3.503,10.074c0.149,0.093,0.312,0.183,0.483,0.27c0.07,0.035,0.148,0.068,0.223,0.104
		c0.106,0.05,0.212,0.101,0.326,0.148c0.097,0.041,0.202,0.08,0.304,0.12c0.062,0.023,0.122,0.049,0.187,0.072
		c-0.141,3.262-0.51,12.956,0.048,13.544c0.79,0.826,3.718,1.688,7.206,2.244c0.027,5.461,0.08,10.187,0.181,10.708
		c0.124,0.661-0.31,9.242-0.346,17.696c-0.464,0.057-1.527,0.233-2.088,0.722c-0.744,0.652-0.959,2.064-0.959,3.996
		c0,1.938-0.363,11.76,0.135,12.32c-0.002,3.14-0.422,3.821-2.589,4.519c-1.988,0.643-3.302-1.213-6.849,0.239
		c-4.17,1.712-3.494,9.834-3.494,9.834c0.086,1.03,0.156,1.847,0.315,2.531c-0.824,3.444-1.696,8.924,0.81,9.818
		c0,0,8.497,3.227,18.814,0.774c0.295-0.069,1.283-0.479,1.654-1.203c0,0,2.42-6.458,0.716-9.396
		c0.948-2.423,0.939-8.227,0.619-12.127c-0.091-1.094,0.095-2.32,0.362-3.43l0,0c0,0,5.309-13.925,2.486-17.436
		c-0.719-0.898-1.154-1.062-2.713-1.187c0,0-0.142,0.665-0.315,1.287c0.757-5.482,1.198-11.132,1.13-14.62
		c-0.048-2.503,0.412-8.386,0.977-14.498c3.434-0.188,6.109-0.993,6.334-2.794c0.34-2.747,0.307-7.665,0.207-11.548
		c4.679-0.038,9.566-0.209,14.263-0.45c0.002-0.001,0.003-0.001,0.005-0.002c0.977-0.05,1.944-0.103,2.9-0.158
		c-0.111,3.964-0.167,9.265,0.191,12.158c0.224,1.797,2.889,2.603,6.311,2.793c0.57,5.992,1.048,11.907,0.996,14.499
		c-0.062,3.23,0.312,8.314,0.968,13.402h-0.135c-0.009-0.043-0.015-0.069-0.015-0.069c-1.562,0.125-1.993,0.288-2.716,1.187
		c-2.776,3.457,2.327,17.006,2.483,17.416c0.27,1.114,0.458,2.35,0.368,3.449c-0.307,3.734-0.33,9.616,0.503,12.314
		c-1.494,3.02,0.832,9.208,0.832,9.208c0.369,0.725,1.356,1.134,1.652,1.203c10.315,2.452,19.137-0.479,19.137-0.479
		c2.508-0.949,1.43-6.712,0.513-10.219c0.141-0.663,0.207-1.449,0.289-2.427c0,0,0.677-8.122-3.493-9.834
		c-3.545-1.452-4.859,0.403-6.851-0.239c-2.163-0.697-2.586-1.379-2.588-4.519c0.498-0.561,0.135-10.382,0.135-12.32
		c0-1.932-0.214-3.344-0.958-3.996c-0.561-0.488-1.623-0.665-2.088-0.721c-0.036-8.455-0.469-17.036-0.344-17.697
		c0.097-0.512,0.057-5.194-0.028-10.677c3.578-0.554,6.605-1.433,7.411-2.275c0.602-0.633,0.127-11.819,0.021-14.172
		c0.305-0.054,0.51-0.1,0.604-0.137c1.323-0.526,5.021-1.33,5.06-6.665c0.054-7.018-4.072-9.44-4.072-9.44h-0.001
		c0.261-5.512,0.356-25.023-0.061-29.207c-0.267-2.694-1.214-14.498-1.93-23.528l0,0c1.496-0.289,2.81-1.096,3.939-2.155
		c0.443,0.213,0.902,0.448,1.372,0.718c5.854,3.527,14.614,11.624,19.032,29.606c0,0-4.212,5.628-3.93,6.751
		c0.279,1.125,0.358,6.177,1.958,5.525c1.597-0.657,2.377-6.556,2.377-6.556l0.821,5.136c0.237,2.332,0.265,4.828-0.477,6.005
		c-1.591,2.525,9.266,6.644,10.393-2.996C145.412,130.86,138.321,121.25,138.321,121.25z M108.029,80.017
		c0.052-0.262,0.105-0.531,0.162-0.81c0,0-0.004,0.005-0.004,0.007c0.072-0.357,0.142-0.725,0.207-1.106
		C108.283,78.782,108.161,79.42,108.029,80.017z"/>
</g>
</svg>
