<?xml version="1.0" standalone="no"?>
<!DOCTYPE svg PUBLIC "-//W3C//DTD SVG 1.1//EN" "http://www.w3.org/Graphics/SVG/1.1/DTD/svg11.dtd" >
<svg xmlns="http://www.w3.org/2000/svg">
<metadata></metadata>
<defs>
<font id="freightmicro_boldscregular" horiz-adv-x="1024" >
<font-face units-per-em="2048" ascent="1638" descent="-410" />
<missing-glyph horiz-adv-x="440" />
<glyph horiz-adv-x="2048" />
<glyph horiz-adv-x="2048" />
<glyph unicode="&#xd;" horiz-adv-x="440" />
<glyph unicode=" "  horiz-adv-x="440" />
<glyph unicode="&#x09;" horiz-adv-x="440" />
<glyph unicode="&#xa0;" horiz-adv-x="440" />
<glyph unicode="!" horiz-adv-x="593" d="M109.5 1210.5q-5.5 44.5 8 69.5t49.5 33t103 8h54q68 0 103.5 -8t48.5 -33t9 -70t-20 -116l-115 -658q-2 -8 -18.5 -13t-34.5 -5t-34.5 5t-18.5 13l-115 658q-14 72 -19.5 116.5zM121 135q0 90 39 128t139 38t137 -38t37 -128t-37 -129t-137 -39t-139 38t-39 130z" />
<glyph unicode="&#x22;" d="M-45 715l264 567h291v-115l-393 -452h-162zM492 715l266 567h291v-115l-394 -452h-163z" />
<glyph unicode="#" horiz-adv-x="1239" d="M14 281v200h244l90 324h-262v201h324l102 358l131 -33l-86 -305h309l95 334l131 -33l-91 -321h224v-201h-244l-90 -324h262v-200h-324l-122 -437l-132 33l107 383h-309l-115 -412l-131 33l111 400h-224zM393 461h350l103 364h-350z" />
<glyph unicode="$" d="M27 897q0 109 34.5 185.5t98 128t149.5 75t191 23.5q53 0 108 -6l51 204h132l-58 -227q23 -6 46.5 -12t47.5 -11l134 58v-428h-191l-41 176l-22.5 9t-26.5 9l-82 -317q92 -18 166 -44t125 -68t78.5 -104.5t27.5 -154.5q0 -205 -120.5 -315.5t-368.5 -110.5q-53 0 -103 6 l-71 -282h-131l75 301q-66 16 -121 34.5t-96 39.5q0 2 -4 55t-10 119q-8 76 -14 172h200l45 -197q16 -6 28.5 -9t27.5 -7l88 346q-88 16 -160 40.5t-124 64.5t-80.5 99.5t-28.5 147.5zM279 944q0 -37 8 -63.5t31.5 -45t62.5 -31.5t100 -26l82 324q-12 2 -25.5 2h-25.5 q-121 0 -177 -40t-56 -120zM451 178q16 -2 30.5 -3t30.5 -1q129 0 179 45t50 133q0 41 -10 70t-33.5 48t-62.5 33.5t-96 26.5z" />
<glyph unicode="%" horiz-adv-x="1767" d="M45 965q0 106 33 177.5t89 116t130 63.5t156 19q92 0 155.5 -25.5t102.5 -71.5t55 -109.5t16 -139.5q0 -106 -31.5 -179t-87 -118t-128 -64.5t-154.5 -19.5q-94 0 -157.5 27t-103.5 74t-57.5 110.5t-17.5 139.5zM240 -39l1099 1354h191l-1104 -1354h-186zM262 1022 q0 -80 7 -131t26.5 -81t52.5 -41t82 -11q70 0 98.5 49t28.5 127q0 80 -7 130t-25.5 78.5t-50.5 39t-79 10.5q-70 0 -101.5 -46t-31.5 -124zM985 283q0 106 33 177.5t89 116t131 63.5t157 19q92 0 155.5 -25.5t101.5 -71.5t54 -109.5t16 -139.5q0 -106 -31.5 -179t-86 -118 t-127 -64.5t-154.5 -19.5q-94 0 -158.5 27t-104.5 74t-57.5 111.5t-17.5 138.5zM1204 342q0 -80 7.5 -131t26.5 -80t51 -40t81 -11q72 0 100.5 48t28.5 126q0 80 -7 130t-25.5 79t-50.5 39t-79 10q-70 0 -101.5 -46t-31.5 -124z" />
<glyph unicode="&#x26;" horiz-adv-x="1525" d="M51 313q0 76 24.5 135.5t66.5 101.5t96.5 67.5t113.5 33.5v31q-43 14 -82 33.5t-68.5 52.5t-46 84t-16.5 129t32 139.5t90 103.5t140 63.5t181 21.5q203 0 314.5 -73t111.5 -239q0 -63 -33 -113t-78 -85t-93 -54.5t-81 -23.5v-31q76 -29 149.5 -97.5t120.5 -184.5h31 l156 272l-4 10l-142 33v160h473v-199h-131l-12 -8l-266 -352q12 -25 32.5 -49.5t46 -46t53 -35t56.5 -13.5q53 0 105.5 9.5t99.5 21.5l6 -45q-45 -86 -117.5 -140.5t-187.5 -54.5q-92 -2 -166 49.5t-123 137.5h-31q-72 -100 -177 -144.5t-201 -44.5q-211 0 -327 89t-116 255 zM309 387q0 -113 67.5 -166t196.5 -53q90 0 154 23.5t111 58.5q-51 76 -95.5 132t-89.5 99t-95 77t-114 60q-74 -51 -104.5 -114.5t-30.5 -116.5zM395 995q0 -51 16.5 -83.5t49.5 -57.5t79 -47.5t103 -52.5q47 49 74.5 109.5t27.5 109.5q0 86 -44 124t-146 38 q-90 0 -125 -35t-35 -105z" />
<glyph unicode="'" d="M221 713l262 567h293v-113l-393 -454h-162z" />
<glyph unicode="(" horiz-adv-x="794" d="M166 430q0 190 56.5 348t142.5 281t189 209t196 129l86 -115q-86 -45 -175.5 -125t-163 -188.5t-119.5 -244.5t-46 -294t46 -294t119.5 -245.5t163 -189.5t175.5 -123l-84 -117q-94 45 -197.5 131t-189.5 209t-142.5 281t-56.5 348z" />
<glyph unicode=")" horiz-adv-x="794" d="M-39 -422q86 43 175 123t162 189.5t119 245.5t46 294t-46 294t-119 244.5t-162 188.5t-175 125l86 115q92 -43 194.5 -129t188.5 -209t142.5 -280.5t56.5 -348.5q0 -190 -56.5 -348t-142.5 -281t-188.5 -209t-194.5 -131z" />
<glyph unicode="*" horiz-adv-x="872" d="M80 1145l37 45l153 -6l133 -228l37 11l-12 266l125 84l53 -19l47 -139l-180 -203l25 -34l254 100l114 -90v-53l-114 -91l-254 99l-25 -31l180 -205l-47 -141l-55 -16l-127 86l14 266l-35 12l-133 -225l-151 -8l-35 45l35 147l262 66v49l-262 69z" />
<glyph unicode="+" horiz-adv-x="1003" d="M88 559l6 158h332v344h156v-344h329l7 -158h-336v-346h-156v346h-338z" />
<glyph unicode="," horiz-adv-x="647" d="M66 -381q80 74 130 129t77.5 99t36.5 77t9 60q0 59 -60 101t-175 69q0 92 49 145t162 53q278 0 278 -266q0 -59 -19 -118.5t-68.5 -122t-136.5 -132t-222 -149.5z" />
<glyph unicode="-" horiz-adv-x="661" d="M74 430v174h518v-174h-518z" />
<glyph unicode="." horiz-adv-x="612" d="M113 147q0 100 43 142.5t153 42.5q111 0 152 -42.5t41 -142.5q0 -98 -41 -141t-152 -43t-153.5 43t-42.5 141z" />
<glyph unicode="/" horiz-adv-x="571" d="M-10 -451l454 1846h160l-454 -1846h-160z" />
<glyph unicode="0" d="M57 616q0 199 31 332t90.5 213t146.5 114t199 34q233 0 337 -156t104 -494q0 -199 -31 -331.5t-91.5 -212.5t-147.5 -114t-199 -34q-233 0 -336 154.5t-103 494.5zM334 659q0 -133 4 -225t21.5 -150.5t52 -85t96.5 -26.5q59 0 94 27.5t53.5 84t24.5 139t6 193.5 q0 133 -4 226.5t-21.5 152t-52.5 84t-96 25.5q-57 0 -92 -27.5t-54.5 -84t-25.5 -139.5t-6 -194z" />
<glyph unicode="1" d="M143 1212l525 99v-1069q0 -6 2 -9l252 -49v-184h-770v213h256l4 8v799l-265 31z" />
<glyph unicode="2" d="M41 1022q37 57 85 108.5t110.5 91.5t139.5 63.5t167 23.5q109 0 183.5 -23.5t121.5 -65.5t68.5 -98.5t21.5 -124.5q0 -106 -55.5 -197t-147.5 -177t-209.5 -174.5t-244.5 -190.5v-22h147q102 0 162.5 3t93.5 9t45 16t16 25l46 125h186l-43 -414h-866l-23 231 q137 127 244.5 223.5t182.5 174.5t115 142.5t40 127.5q0 78 -50.5 123t-142.5 45q-86 0 -178 -33t-201 -98z" />
<glyph unicode="3" d="M27 207q0 55 26.5 74.5t83.5 19.5q53 0 113.5 -26.5t132.5 -114.5l39 4q115 16 186.5 64t71.5 143q0 78 -64.5 115.5t-183.5 37.5q-41 0 -87 -5t-93 -11l-16 151q88 41 158.5 74t120.5 67t76.5 70.5t26.5 81.5q0 57 -39.5 91t-121.5 34q-94 0 -199.5 -36.5t-200.5 -88.5 l-10 84q35 57 86 107.5t115.5 87.5t141.5 58.5t161 21.5q94 0 161.5 -21.5t111.5 -59.5t64.5 -88t20.5 -110q0 -68 -29.5 -119t-82 -91t-125 -73.5t-160.5 -66.5v-29q53 10 93 17.5t91 7.5q55 0 104.5 -16.5t86.5 -49t58.5 -83.5t21.5 -121q0 -92 -43 -173t-120 -139.5 t-183.5 -92.5t-233.5 -34q-104 0 -173 18.5t-111 50.5t-59 75t-17 94z" />
<glyph unicode="4" d="M8 459l582 829l284 -14l-38 -787h168l-15 -182h-162l-18 -315h-258l18 315h-540zM231 487h353l41 551h-21z" />
<glyph unicode="5" d="M27 203q0 59 25.5 75.5t84.5 16.5q23 0 48.5 -4t55 -18.5t63.5 -42t71 -72.5h31q53 6 103 21.5t88 42t61.5 68.5t23.5 101t-27.5 97t-95 61.5t-179.5 37t-282 25.5l88 668h748l-35 -250h-545l-26 -203q135 -10 249.5 -28.5t197.5 -58.5t129 -110.5t46 -187.5 q0 -109 -42 -196.5t-115.5 -149t-175 -95.5t-222.5 -34q-113 0 -184.5 18.5t-112.5 50.5t-56 75t-15 92z" />
<glyph unicode="6" d="M45 489q0 303 184.5 521.5t530.5 330.5l88 -147q-94 -45 -180 -99.5t-157 -115.5t-123 -126t-79 -130l19 -23q66 66 141.5 103t165.5 37q166 0 258 -102.5t92 -305.5q0 -217 -122 -340t-349 -123q-104 0 -190 25.5t-147.5 87t-96.5 161t-35 246.5zM305 455 q0 -150 48 -214.5t169 -64.5q47 0 85 9.5t64.5 34t42 65.5t15.5 102q0 141 -42 197.5t-159 56.5q-59 0 -110 -19.5t-99 -54.5q-6 -16 -10 -47t-4 -65z" />
<glyph unicode="7" d="M55 823l33 457h897l10 -205l-538 -1102h-293l600 1039v37h-203q-98 0 -152.5 -5.5t-82 -15.5t-35.5 -26.5t-15 -38.5l-34 -148z" />
<glyph unicode="8" d="M49 299q0 127 64.5 191.5t179.5 87.5v30q-100 20 -161.5 96t-61.5 214q0 186 107.5 288.5t350.5 102.5q199 0 308.5 -83t109.5 -255q0 -111 -52 -171.5t-157 -86.5v-31q109 -25 172.5 -98.5t63.5 -218.5q0 -203 -111.5 -300.5t-374.5 -97.5q-217 0 -327.5 85t-110.5 247z M279 346q0 -102 56 -142t173 -40q68 0 111 13t67.5 34.5t32.5 51.5t8 63q0 53 -23.5 89t-65.5 61.5t-101.5 44t-130.5 38.5q-53 -29 -90 -91t-37 -122zM313 950q0 -51 20.5 -85t59.5 -57.5t95.5 -40.5t127.5 -36q43 31 71 89.5t28 103.5q0 100 -47 142t-164 42 q-115 0 -153 -43t-38 -115z" />
<glyph unicode="9" d="M37 846q0 217 122 340t349 123q104 0 190 -26t147.5 -87t96.5 -160.5t35 -247.5q0 -303 -184.5 -521t-530.5 -330l-90 147q96 45 182 99.5t157 115.5t123 125.5t79 130.5l-19 23q-66 -66 -141.5 -103t-165.5 -37q-166 0 -258 102.5t-92 305.5zM293 891q0 -141 42 -197.5 t159 -56.5q59 0 110 19.5t98 54.5q6 16 10.5 46.5t4.5 65.5q0 150 -48 214.5t-171 64.5q-45 0 -83 -9.5t-64.5 -34t-42 -65.5t-15.5 -102z" />
<glyph unicode=":" horiz-adv-x="647" d="M129 150q0 98 43 141t154 43t151.5 -43t40.5 -141t-41 -140.5t-151 -42.5q-111 0 -154 42t-43 141zM129 784q0 98 43 140.5t154 42.5t151.5 -42.5t40.5 -140.5t-41 -140t-151 -42q-111 0 -154 42t-43 140z" />
<glyph unicode=";" horiz-adv-x="647" d="M66 -381q80 74 130 129t77.5 99t36.5 77t9 60q0 59 -60 101t-175 69q0 92 49 145t162 53q278 0 278 -266q0 -59 -19 -118.5t-68.5 -122t-136.5 -132t-222 -149.5zM106 786q0 98 42 140.5t153 42.5t152 -42.5t41 -140.5t-41 -141t-152 -43t-153 43t-42 141z" />
<glyph unicode="&#x3c;" horiz-adv-x="983" d="M27 582v114l872 404l45 -152l-645 -286v-46l645 -284l-45 -154z" />
<glyph unicode="=" horiz-adv-x="962" d="M70 381l10 149h807l10 -149h-827zM70 895h827l-10 -150h-807z" />
<glyph unicode="&#x3e;" horiz-adv-x="983" d="M33 332l645 284v46l-645 286l45 152l872 -404v-114l-872 -404z" />
<glyph unicode="?" horiz-adv-x="831" d="M90 1176q0 37 8 62.5t34 40.5t73 22.5t123 7.5q242 0 359.5 -90t117.5 -250q0 -78 -20.5 -129.5t-53.5 -86t-75 -56t-85 -40.5q-63 -27 -109 -46t-46 -48q0 -23 39 -52.5t98 -70.5l-248 -55q-74 39 -119 91t-45 110q0 49 17.5 85t47.5 63.5t66.5 48t73.5 38.5 q35 16 67.5 30.5t58.5 29t41 32t15 39.5q0 47 -66.5 76t-185.5 29q-37 0 -76.5 -3t-82.5 -12q-6 0 -10.5 12.5t-8.5 32t-6 43t-2 46.5zM197 131q0 90 38.5 125t139.5 35q100 0 137 -35t37 -125t-37 -126t-137 -36t-139 35t-39 127z" />
<glyph unicode="@" horiz-adv-x="1814" d="M98 494q0 178 66.5 336.5t182.5 276.5t272.5 187.5t334.5 69.5q164 0 310.5 -51t256 -145.5t174 -228.5t64.5 -300q0 -141 -45 -253t-117.5 -188.5t-165 -116.5t-188.5 -40q-53 0 -99 11t-79 27.5t-50.5 35t-13.5 32.5l109 388h-39q-55 -104 -106.5 -188.5t-98.5 -145 t-91 -93t-85 -32.5q-53 0 -97 20.5t-76 53t-49 73.5t-17 82q0 68 21.5 147.5t55 157.5t77.5 145.5t87 112.5q127 125 248 125q37 0 75 -11t68.5 -35.5t50 -62.5t19.5 -91h16l66 139h211l-186 -367l-41 -401l86 -27q70 8 124 42t94 81t66.5 102.5t43 107.5t23.5 95t7 68 q0 147 -58.5 266t-156.5 204t-226 130t-268 45q-160 0 -298 -63.5t-240.5 -170t-161.5 -248t-59 -296.5q0 -150 51 -282t143 -230.5t220 -154.5t282 -56q68 0 135.5 11t132.5 32l25 -80q-78 -25 -148.5 -38t-148.5 -13q-172 0 -316.5 62.5t-250 171t-164 256t-58.5 315.5z M686 319q0 -18 10.5 -32.5t25.5 -25.5t31.5 -16t28.5 -5q20 0 54 37.5t74 95t81 123t74 120.5q2 4 12 21.5t20.5 36t14.5 26.5l14 25q-8 18 -30.5 40.5t-53 42t-66.5 34t-69 14.5q-20 0 -45 -25q-27 -27 -57.5 -90t-57 -138t-44 -151.5t-17.5 -132.5z" />
<glyph unicode="A" horiz-adv-x="1325" d="M-2 0v203h125l8 8l313 956v80l396 68l350 -1088l8 -10l143 -47v-170h-579v203h112l7 8l-47 192h-422l-43 -176l4 -8l131 -49v-170h-506zM473 582h297l-129 491h-33z" />
<glyph unicode="B" horiz-adv-x="1288" d="M80 1110v170h711q117 0 192.5 -21.5t121.5 -61.5t64.5 -95t18.5 -123q0 -78 -25.5 -131t-65.5 -87t-87 -53.5t-92 -31.5v-25q68 -8 126 -27.5t99 -55.5t64.5 -91t23.5 -135q0 -76 -22.5 -139.5t-73 -108.5t-132 -69.5t-202.5 -24.5h-709v203h131l6 8v836l-4 10zM510 203 h86h84q72 0 119 7t75.5 25.5t41 49.5t12.5 80q0 59 -18.5 96t-58.5 57.5t-101.5 28.5t-145.5 8h-94v-352zM510 725l102 2q66 2 116 11.5t85 33t53.5 61.5t18.5 95q0 43 -9.5 72.5t-34 46t-66.5 23.5t-105 7h-160v-352z" />
<glyph unicode="C" horiz-adv-x="1341" d="M92 606q0 205 46 340t132 216t209 114t277 33q100 0 161.5 -13.5t108.5 -29.5l207 57v-469h-207l-57 199q-53 23 -110.5 35t-135.5 12q-92 0 -154.5 -22.5t-100.5 -73t-55.5 -131t-17.5 -197.5q0 -158 14.5 -255t52.5 -150.5t104.5 -72t172.5 -18.5q78 0 136.5 15.5 t109.5 42.5l62 202h210l-36 -438l-136 39q-80 -35 -184 -54.5t-211 -19.5q-168 0 -282.5 40t-184 120t-100.5 199.5t-31 279.5z" />
<glyph unicode="D" horiz-adv-x="1435" d="M80 1110v170q164 2 293 4q55 0 108.5 1t94 2t67.5 1h27h18q182 0 306 -38q130 -40 208 -118.5t111 -197t33 -272.5q0 -172 -37 -297t-119 -206t-212 -120t-314 -39h-572v203h131l6 8v838l-4 8zM518 240l164 -37q92 0 158.5 20.5t111.5 68.5t66.5 125.5t21.5 192.5 q0 152 -21.5 244t-70.5 141t-127 65.5t-192 16.5h-111v-837z" />
<glyph unicode="E" horiz-adv-x="1366" d="M80 1110v170h1177v-449h-206l-35 150q-8 33 -21.5 52.5t-54.5 28.5t-122 12t-222 3h-78v-356h70q39 0 62.5 2t37.5 8t21.5 17.5t13.5 29.5l33 99h166l-48 -459h-145l-24 104q-4 14 -10.5 22.5t-18.5 13.5t-32.5 6t-55.5 1h-70v-362h74q135 0 214 3t121 14t59.5 35 t31.5 64l45 125h217l-39 -444h-1149v203h131l6 8v838l-4 8z" />
<glyph unicode="F" horiz-adv-x="1302" d="M80 1110v170h1151v-449h-207l-33 150q-8 33 -21.5 52.5t-52 28.5t-114.5 12t-209 3h-76v-385h62q39 0 62.5 2t37.5 8.5t21.5 18.5t13.5 31l35 96h165l-47 -457h-145l-25 103q-10 29 -30.5 37t-87.5 8h-62v-312l4 -8l180 -49v-170h-610v203h131l6 8v838l-4 8z" />
<glyph unicode="G" horiz-adv-x="1431" d="M92 606q0 203 45 337t130 216t207 116t274 34q106 0 164.5 -13.5t105.5 -29.5l199 57v-459h-199l-57 189q-53 23 -106.5 35t-139.5 12q-90 0 -151.5 -25.5t-98.5 -78t-53.5 -132.5t-16.5 -188q0 -154 13.5 -251t51.5 -151.5t104.5 -74t172.5 -19.5q61 0 110.5 8.5 t86.5 20.5v223l-4 8l-180 45v170h585v-202h-131l-6 -9v-180l123 -35v-157q-133 -41 -284.5 -73t-325.5 -32q-176 0 -295 39t-190.5 118t-102.5 199.5t-31 282.5z" />
<glyph unicode="H" horiz-adv-x="1556" d="M80 1110v170h579v-203h-135l-6 -8v-326h520v306l-4 8l-145 53v170h575v-203h-131l-4 -8v-842l4 -8l144 -49v-170h-580v203h137l4 8v340h-520v-324l4 -8l146 -49v-170h-576v203h131l6 8v838l-4 8z" />
<glyph unicode="I" horiz-adv-x="786" d="M88 1110v170h606v-203h-149l-6 -8v-842l4 -8l157 -49v-170h-600v203h144l6 8v838l-4 8z" />
<glyph unicode="J" horiz-adv-x="888" d="M4 152q0 61 27.5 89.5t93.5 28.5q78 0 109.5 -22.5t52.5 -63.5l4 -6q20 -4 45 -4t41 6t25.5 24.5t13.5 51.5t4 86v711l-4 8l-187 49v170h621v-203h-135l-6 -8v-707q0 -90 -17.5 -162.5t-59.5 -124.5t-115 -80t-183 -28q-174 0 -252 42t-78 143z" />
<glyph unicode="K" horiz-adv-x="1476" d="M80 1110v170h579v-203h-135l-6 -8v-440l461 428v8l-68 22l-65 23v170h584v-203h-91l-18 -6l-410 -348l377 -496l12 -10l150 -47v-170h-598v203h102l7 8l-250 369l-193 -174v-179l4 -8l146 -49v-170h-576v203h131l6 8v838l-4 8z" />
<glyph unicode="L" horiz-adv-x="1222" d="M80 1110v170h629v-203h-185l-6 -8v-866h51q104 0 165 4t94.5 15t48 30.5t24.5 48.5l51 162h217l-39 -463h-1038v203h131l6 8v838l-4 8z" />
<glyph unicode="M" horiz-adv-x="1943" d="M74 0v203h129l6 8l12 838l-4 8l-141 53v170h645l217 -963h35l252 963h624v-203h-131l-6 -6l12 -844l5 -8l145 -49v-170h-584v203h140l6 8l-9 862h-34l-338 -1032h-277l-301 1030h-35l-14 -844l4 -8l133 -49v-170h-491z" />
<glyph unicode="N" horiz-adv-x="1570" d="M80 1110v170h541l489 -987h35v756l-4 8l-172 53v170h542v-203h-131l-6 -8v-1092h-368l-514 1022h-35v-768l4 -8l172 -53v-170h-541v203h131l6 8v838l-4 8z" />
<glyph unicode="O" horiz-adv-x="1454" d="M92 606q0 205 46 340t132 216t209 114t277 33q172 0 288.5 -40t187.5 -120t100.5 -199.5t29.5 -279.5q0 -203 -47 -338t-133 -216t-210 -115t-278 -34q-172 0 -286.5 40t-185 120t-100.5 199.5t-30 279.5zM395 676q0 -158 13.5 -255t50.5 -151.5t102.5 -73t167.5 -18.5 q92 0 154.5 22.5t101.5 73t56.5 131t17.5 197.5q0 158 -13.5 256t-50.5 151.5t-102.5 72t-169.5 18.5q-92 0 -154.5 -22.5t-100.5 -73t-55.5 -131t-17.5 -197.5z" />
<glyph unicode="P" horiz-adv-x="1249" d="M80 1110v170h598q154 0 255 -19.5t159.5 -62.5t82 -113t23.5 -170q0 -223 -130 -334.5t-370 -111.5q-104 0 -180 20v-262l4 -8l180 -49v-170h-610v203h131l6 8v838l-4 8zM518 672q25 -8 67 -12.5t77 -4.5q123 0 179 50.5t56 183.5q0 55 -12.5 92t-42 58.5t-80.5 29.5 t-129 8h-115v-405z" />
<glyph unicode="Q" horiz-adv-x="1454" d="M92 606q0 205 46 340t132 216t209 114t277 33q172 0 288.5 -40t187.5 -120t100.5 -200t29.5 -279q0 -170 -32 -292t-92 -205t-147 -129t-198 -62q31 -59 73 -100.5t96 -67t124.5 -39t159.5 -17.5l18 -133q-51 -12 -116.5 -21.5t-155.5 -9.5q-78 0 -157 15.5t-147.5 56.5 t-125 116t-91.5 191q-135 12 -227 58.5t-147.5 125.5t-80 191.5t-24.5 257.5zM395 676q0 -158 13.5 -255t50.5 -151.5t102.5 -73t167.5 -18.5q92 0 154.5 22.5t101.5 73t56.5 131t17.5 197.5q0 158 -13.5 256t-50.5 151.5t-102.5 72t-169.5 18.5q-92 0 -154.5 -22.5 t-100.5 -73t-55.5 -131t-17.5 -197.5z" />
<glyph unicode="R" horiz-adv-x="1327" d="M80 1110v170h598q156 0 260 -19.5t166.5 -62.5t89.5 -110.5t27 -163.5q0 -162 -73 -252t-202 -137l203 -308l12 -10l137 -47v-170h-364l-105 215l-145 295l-166 -21v-262l4 -8l127 -45v-174h-557v203h131l6 8v836l-4 10zM518 674l141 -19q123 27 184.5 76.5t61.5 155.5 q0 53 -10 89t-39 58.5t-80 32.5t-133 10h-125v-403z" />
<glyph unicode="S" horiz-adv-x="1218" d="M80 897q0 109 39 185.5t108.5 128t165.5 75t211 23.5q86 0 171 -13.5t188 -38.5l145 58v-428h-211l-45 168q-41 23 -106.5 34t-129.5 11q-133 0 -191 -38t-58 -116q0 -41 12 -68.5t44 -46t89 -33t147 -28.5q123 -16 215.5 -40.5t152.5 -68t90 -108t30 -160.5 q0 -205 -134 -315.5t-409 -110.5q-61 0 -127.5 6.5t-130 15.5t-122 23.5t-103.5 28.5l-29 362h219l51 -192q47 -10 114 -21.5t134 -11.5q135 0 191.5 40t56.5 132q0 47 -15.5 77t-50 50.5t-93 33.5t-144.5 28q-113 16 -202 39.5t-149.5 63.5t-92 101.5t-31.5 153.5z" />
<glyph unicode="T" horiz-adv-x="1419" d="M47 799l39 481h1251v-481h-207l-38 196q-6 25 -12.5 41.5t-25 27.5t-53 16t-96.5 5h-55v-858l2 -8l188 -49v-170h-659v203h174l4 8v874h-51q-59 0 -94 -5t-53.5 -15t-25.5 -25.5t-13 -38.5l-56 -202h-219z" />
<glyph unicode="U" horiz-adv-x="1452" d="M29 1110v170h579v-203h-135l-6 -8v-539q0 -102 13.5 -168.5t45 -105.5t87 -54.5t137.5 -15.5q78 0 132 15.5t88 54.5t49 105.5t15 168.5v519l-4 8l-172 53v170h555v-203h-131l-6 -8v-563q0 -143 -29.5 -245.5t-97.5 -168t-174.5 -95.5t-259.5 -30q-147 0 -248.5 29 t-166 92.5t-93.5 163.5t-29 242v555l-4 8z" />
<glyph unicode="V" horiz-adv-x="1331" d="M-14 1110v170h579v-203h-112l-7 -8l252 -872h33l250 856l-4 8l-133 49v170h508v-203h-127l-8 -8l-353 -1081h-385l-342 1065l-8 10z" />
<glyph unicode="W" horiz-adv-x="2068" d="M-39 1110v170h582v-203h-113l-6 -8l178 -848h35l229 805l-8 27l-6 10l-143 47v170h645v-203h-113l-6 -8l219 -850h33l182 834l-4 8l-133 49v170h524v-203h-125l-8 -8l-301 -1081h-356l-219 864h-37l-250 -864h-346l-297 1071l-6 10z" />
<glyph unicode="X" horiz-adv-x="1386" d="M10 0v203h125l10 8l371 422l-328 420l-10 10l-160 47v170h619v-203h-113l-4 -8l199 -293h35l186 277l-4 8l-127 49v170h551v-203h-125l-10 -8l-357 -397l349 -445l10 -10l157 -47v-170h-616v203h111l6 8l-219 317h-33l-201 -301l4 -8l129 -49v-170h-555z" />
<glyph unicode="Y" horiz-adv-x="1341" d="M-2 1096v184h594v-213h-113l-6 -8l221 -375h35l201 363l-4 8l-127 41v184h542v-213h-127l-10 -8l-387 -582v-239l4 -9l189 -45v-184h-662v213h174l6 8v262l-383 564l-10 10z" />
<glyph unicode="Z" horiz-adv-x="1263" d="M100 0v207l731 842v20h-231q-78 0 -122 -2t-66.5 -10t-30.5 -23.5t-14 -42.5l-41 -182h-211v471h1077v-207l-739 -840v-22h229q78 0 122 2t66.5 8t30.5 17.5t14 29.5l70 213h215l-39 -481h-1061z" />
<glyph unicode="[" horiz-adv-x="753" d="M164 -492v1838h579v-146h-415v-1544h415v-148h-579z" />
<glyph unicode="\" horiz-adv-x="571" d="M-8 1395h160l454 -1846h-160z" />
<glyph unicode="]" horiz-adv-x="753" d="M12 -344h416v1544h-416v146h580v-1838h-580v148z" />
<glyph unicode="^" horiz-adv-x="819" d="M8 899l189 383h385l188 -383h-188l-183 262h-20l-178 -262h-193z" />
<glyph unicode="_" horiz-adv-x="962" d="M-20 0h1003l-2 -170h-999z" />
<glyph unicode="`" horiz-adv-x="819" d="M127 1440h342l205 -363h-211z" />
<glyph unicode="a" horiz-adv-x="1212" d="M23 0v203h102l6 8l252 696v43l397 41l287 -768l4 -6l125 -47v-170h-510v203h80l6 8l-35 108h-340l-30 -92l4 -8l149 -49v-170h-497zM442 473h248l-4 15q-4 14 -11 37.5t-17.5 53t-20.5 60.5l-53 164h-35z" />
<glyph unicode="b" horiz-adv-x="1128" d="M72 799v172h673q82 0 137.5 -16.5t89.5 -46t49 -71.5t15 -96q0 -59 -22.5 -98t-58 -64.5t-80 -40t-87.5 -24.5v-29q55 -2 107.5 -12t92.5 -34.5t63.5 -67t23.5 -105.5q0 -55 -17.5 -104t-57 -85t-103 -56.5t-158.5 -20.5h-651v203h107l6 8v532l-4 9zM465 168h53h74 q104 0 145 23.5t41 91.5q0 90 -54 118.5t-171 28.5h-88v-262zM465 539l96 2q41 0 76 6t60.5 22.5t41 45t15.5 77.5q0 72 -34 90.5t-116 18.5h-139v-262z" />
<glyph unicode="c" horiz-adv-x="1146" d="M78 465q0 152 39 254t109.5 165.5t170 90t219.5 26.5q92 0 147.5 -12t102.5 -33l185 45v-380h-215l-35 149q-25 16 -77 25.5t-112 9.5q-143 0 -198.5 -67.5t-55.5 -229.5q0 -109 12.5 -176.5t40 -104.5t74.5 -50t117 -13q72 0 121 9t90 28l33 149h223l-27 -354l-135 33 q-35 -12 -66.5 -23.5t-70.5 -20t-87 -12.5t-114 -4q-137 0 -231 30t-151.5 91.5t-83 154.5t-25.5 220z" />
<glyph unicode="d" horiz-adv-x="1206" d="M72 799v172h557q262 0 385 -108.5t123 -348.5q0 -156 -38 -255t-111 -156.5t-180.5 -80t-246.5 -22.5h-473v203h107l6 8v532l-4 9zM465 207l129 -25q135 2 196.5 68.5t61.5 220.5q0 92 -14.5 154.5t-45 100.5t-79.5 53.5t-121 15.5h-127v-588z" />
<glyph unicode="e" horiz-adv-x="1187" d="M72 799v172h1009v-348h-198l-23 104q-6 25 -20.5 39t-49 22.5t-97 10.5t-165.5 2h-63v-246h67q41 0 54.5 10t23.5 33l27 70h154l-39 -365h-136l-18 68q-8 23 -19.5 33t-43.5 10h-70v-246h65q102 0 165 2t98.5 10t51 22.5t23.5 39.5l31 100h197l-25 -342h-983v203h107l6 8 v532l-4 9z" />
<glyph unicode="f" horiz-adv-x="1130" d="M72 799v172h991v-348h-199l-22 104q-6 25 -19.5 39t-47.5 22.5t-95.5 10.5t-163.5 2h-51v-264h70q41 0 54 10t23 35l27 69h154l-41 -366h-134l-20 69q-8 23 -19.5 33t-43.5 10h-70v-170l4 -8l147 -49v-170h-528v203h107l6 8v532l-4 9z" />
<glyph unicode="g" horiz-adv-x="1222" d="M78 465q0 152 39 254t109.5 165.5t170 90t219.5 26.5q92 0 147.5 -12t102.5 -33l185 45v-358h-215l-35 127q-25 16 -77 25.5t-116 9.5q-137 0 -193.5 -67.5t-56.5 -229.5q0 -109 11.5 -176.5t40 -104.5t79 -50t127.5 -13q49 0 100.5 7t86.5 17v123l-4 8l-162 48v159h502 v-188h-109l-6 -8v-127l92 -19v-149q-45 -12 -109.5 -24.5t-135 -21.5t-141.5 -14.5t-128 -5.5q-150 0 -250 28t-161.5 87t-87 153.5t-25.5 227.5z" />
<glyph unicode="h" horiz-adv-x="1335" d="M72 799v172h506v-203h-107l-6 -8v-193h405v176l-4 9l-125 47v172h504v-203h-106l-6 -8v-533l4 -8l125 -49v-170h-504v203h106l6 8v203h-405v-187l4 -8l125 -49v-170h-506v203h107l6 8v532l-4 9z" />
<glyph unicode="i" horiz-adv-x="679" d="M70 799v172h518v-203h-109l-8 -8v-533l4 -8l135 -49v-170h-518v203h109l8 8v532l-4 9z" />
<glyph unicode="j" horiz-adv-x="897" d="M16 156q0 61 25 90.5t94 29.5q63 0 96 -34.5t58 -91.5q8 -2 19 -2.5t22 -0.5q45 0 73.5 9.5t46 32t23.5 59.5t6 92v403l-4 9l-145 47v172h524v-203h-106l-7 -8v-400q0 -106 -16 -181t-57 -122t-114 -68.5t-187 -21.5q-195 0 -273 44t-78 145z" />
<glyph unicode="k" horiz-adv-x="1292" d="M72 799v172h506v-203h-107l-6 -8v-305l375 311v8l-64 12l-47 13v172h498v-203h-72l-14 -8l-289 -199l260 -334l10 -8l129 -49v-170h-512v203h66l6 8l-164 231l-182 -141v-74l4 -8l104 -49v-170h-485v203h107l6 8v532l-4 9z" />
<glyph unicode="l" horiz-adv-x="1083" d="M72 799v172h506v-203h-107l-6 -8v-592h33q102 0 158.5 3t85 11t36.5 22.5t15 37.5l30 114h211l-24 -356h-924v203h109l6 8v532l-4 9z" />
<glyph unicode="m" horiz-adv-x="1619" d="M63 799v172h572l137 -713h31l164 713h557v-203h-107l-6 -8l12 -533l4 -8l127 -49v-170h-516v203h107l6 8l6 569h-31l-243 -741h-254l-221 741h-31l2 -553l4 -8l125 -49v-170h-438v203h106l6 8l13 532l-5 9z" />
<glyph unicode="n" horiz-adv-x="1339" d="M63 799v172h537l332 -729h31l-7 501l-4 9l-127 47v172h443v-203h-107l-6 -8v-776h-334l-395 786h-31l6 -543l5 -8l124 -49v-170h-442v203h107l6 8v532l-4 9z" />
<glyph unicode="o" horiz-adv-x="1204" d="M78 461q0 154 42 257t115.5 165.5t173 90t216.5 27.5q135 0 230 -34.5t155.5 -98t88 -153.5t27.5 -203q0 -162 -42 -266.5t-115.5 -166t-172 -86t-212.5 -24.5q-135 0 -231.5 37t-158 101.5t-89 155.5t-27.5 198zM362 502q0 -94 11.5 -158.5t39 -103.5t76 -55.5 t123.5 -16.5q133 0 179.5 72.5t46.5 222.5q0 96 -9.5 160.5t-36 103.5t-74.5 55.5t-126 16.5q-129 0 -179.5 -74t-50.5 -223z" />
<glyph unicode="p" horiz-adv-x="1075" d="M72 799v172h522q221 0 323.5 -64.5t102.5 -226.5q0 -160 -97.5 -249t-289.5 -89q-47 0 -92 4t-76 14v-133l4 -8l147 -49v-170h-528v203h107l6 8v532l-4 9zM465 496q27 -4 60.5 -6.5t62.5 -2.5q78 0 116.5 37t38.5 123q0 88 -42 116t-154 28h-82v-295z" />
<glyph unicode="q" horiz-adv-x="1189" d="M78 461q0 154 42 257t115.5 165.5t173 90t216.5 27.5q135 0 230 -34.5t155.5 -98t88 -153.5t27.5 -203q0 -129 -25.5 -223t-73.5 -156.5t-115.5 -97.5t-151.5 -47q51 -76 139 -102.5t223 -32.5l19 -134q-47 -10 -110.5 -19t-125.5 -9q-76 0 -142.5 11t-120.5 42t-98 86 t-75 145q-104 14 -178 56.5t-122 106t-69.5 145.5t-21.5 178zM362 502q0 -94 11.5 -158.5t39 -104.5t76 -57.5t123.5 -17.5q66 0 110 18.5t69.5 56t36 94t10.5 130.5q0 96 -9.5 161.5t-36 105.5t-74.5 57.5t-126 17.5q-129 0 -179.5 -77t-50.5 -226z" />
<glyph unicode="r" horiz-adv-x="1169" d="M72 799v172h549q131 0 217 -18.5t137 -53.5t71.5 -85t20.5 -112q0 -111 -48 -180t-171 -108l139 -189l10 -8l131 -47v-170h-331l-74 168l-113 199l-145 -15v-125l4 -8l88 -41v-178h-469v203h107l6 8v532l-4 9zM465 520l121 -24q92 10 142 46.5t50 114.5t-45 107t-149 29 h-119v-273z" />
<glyph unicode="s" horiz-adv-x="1036" d="M78 694q0 86 38 144.5t99 95.5t139 52t160 15q66 0 151 -10t171 -30l114 45v-330h-186l-27 100q-16 8 -42.5 14.5t-57.5 10.5t-62.5 6t-60.5 2q-182 0 -182 -96q0 -23 6 -40.5t28.5 -30.5t65.5 -22.5t117 -17.5q125 -14 208 -33.5t133 -54.5t71.5 -88t21.5 -135 q0 -166 -114.5 -246t-338.5 -80q-63 0 -126.5 5t-119 15.5t-100.5 24t-75 29.5l-25 271h199l43 -122q37 -10 91 -17t109 -7q66 0 107 8t63.5 23.5t29.5 35t7 43.5q0 27 -7 44.5t-33.5 32t-78 24.5t-139.5 20q-111 14 -186.5 34t-122.5 53.5t-67.5 84.5t-20.5 127z" />
<glyph unicode="t" horiz-adv-x="1198" d="M45 582l27 389h1073v-389h-211l-25 139q-6 25 -12 41t-19.5 24.5t-40 11.5t-71.5 3h-37v-574l4 -8l154 -49v-170h-549v203h123l6 8v590h-37q-76 0 -102.5 -14.5t-38.5 -65.5l-31 -139h-213z" />
<glyph unicode="u" horiz-adv-x="1200" d="M31 799v172h506v-203h-107l-6 -8v-381q0 -57 8 -100t30.5 -72t61.5 -44.5t103 -15.5q115 0 167 50.5t52 185.5v360l-4 9l-127 47v172h442v-203h-106l-7 -8v-373q0 -111 -23.5 -189.5t-76.5 -129t-139 -74t-211 -23.5q-231 0 -331.5 92.5t-100.5 292.5v387l-4 9z" />
<glyph unicode="v" horiz-adv-x="1224" d="M18 799v172h510v-203h-82l-6 -8l195 -594h39l184 577l-4 9l-145 47v172h495v-203h-102l-6 -8l-293 -772h-363l-295 760l-2 4z" />
<glyph unicode="w" horiz-adv-x="1837" d="M18 799v172h512v-203h-84l-6 -8l154 -594h39l158 565l2 12l-5 9l-141 47v172h567v-203h-81l-7 -8l179 -594h38l134 577l-4 9l-136 47v172h480v-203h-103l-6 -8l-242 -772h-364l-152 608h-26l-166 -608h-363l-250 760l-6 6z" />
<glyph unicode="x" horiz-adv-x="1234" d="M45 0v203h70l12 8l324 270l-279 267l-12 8l-111 43v172h537v-203h-82l-6 -8l135 -203h31l163 182l-4 13l-125 47v172h476v-203h-82l-15 -8l-309 -266l272 -267l9 -10l141 -45v-172h-553v203h86l6 8l-145 205h-31l-168 -189v-10l127 -47v-170h-467z" />
<glyph unicode="y" horiz-adv-x="1159" d="M-6 799v172h553v-203h-88l-6 -8l159 -260h33l154 243v13l-113 43v172h475v-203h-86l-8 -8l-356 -375v-158l4 -8l153 -49v-170h-549v203h121l9 8v172l-302 360l-6 9z" />
<glyph unicode="z" horiz-adv-x="1081" d="M72 0v174l614 596v33h-45q-102 0 -163.5 -3t-95.5 -12.5t-46 -23.5t-17 -37l-20 -113h-213v357h930v-172l-617 -598v-33h52q100 0 162.5 3t97 11t50 22.5t21.5 37.5l31 114h211l-25 -356h-927z" />
<glyph unicode="{" horiz-adv-x="757" d="M53 303l13 117l-13 115q84 12 141.5 25t92.5 31.5t50 44.5t15 60q0 43 -23.5 97.5t-53 114t-53 119.5t-23.5 112q0 72 32.5 118t102 72.5t175 38.5t251.5 16v-180q-96 -6 -155.5 -14t-92.5 -20.5t-44 -31t-11 -42.5q0 -33 20.5 -75t45 -90t45 -100.5t20.5 -103.5 q0 -61 -20.5 -111.5t-68.5 -86t-129 -59.5t-204 -34v-30q123 -8 204 -33t129 -62t68.5 -87t20.5 -111q0 -51 -22.5 -104.5t-49.5 -100.5t-49.5 -89t-22.5 -73q0 -29 10.5 -47t44 -30.5t96 -19.5t165.5 -14v-182q-145 4 -251 16.5t-175.5 40t-102 73.5t-32.5 118 q0 51 23.5 110.5t53 120t53 114.5t23.5 95q0 35 -13 61.5t-47 46t-91.5 33t-147.5 21.5z" />
<glyph unicode="|" horiz-adv-x="600" d="M238 -451v1846h153v-1846h-153z" />
<glyph unicode="}" horiz-adv-x="757" d="M8 -365q102 6 163.5 13.5t95.5 20t44.5 30.5t10.5 47q0 31 -23 73t-49.5 89t-49 100t-22.5 105q0 61 20.5 111t68.5 87t129 61.5t204 33.5v30q-123 10 -204 34t-129 59.5t-68.5 86t-20.5 111.5q0 51 20.5 103.5t45 100.5t45 90t20.5 75q0 25 -11 43t-44 30.5t-91.5 20.5 t-154.5 14v180q145 -4 249.5 -16t174.5 -38.5t102.5 -73t32.5 -117.5q0 -51 -23.5 -111.5t-53 -120t-53 -114t-23.5 -97.5q0 -35 15 -60.5t50 -44t92.5 -31.5t141.5 -25l-13 -115l13 -117q-88 -8 -146.5 -21.5t-92.5 -33t-47 -46t-13 -61.5q0 -41 23.5 -95t53 -114.5 t53 -120t23.5 -110.5q0 -72 -32.5 -118t-102.5 -73.5t-174 -40t-250 -16.5v182z" />
<glyph unicode="~" horiz-adv-x="819" d="M12 315q10 86 23.5 147.5t38 100.5t60.5 57.5t91 18.5q49 0 99.5 -21.5t95.5 -47t85 -47t70 -21.5q16 0 27.5 5t21 18.5t17.5 39t21 66.5h145q-8 -86 -22.5 -147.5t-39 -100.5t-60.5 -57.5t-91 -18.5q-49 0 -99.5 22.5t-97.5 48t-88 48.5t-71 23q-16 0 -25.5 -5.5 t-17 -19.5t-14.5 -41t-19 -68h-150z" />
<glyph unicode="&#xa1;" horiz-adv-x="593" d="M109.5 65.5q5.5 45.5 19.5 118.5l115 658q2 8 18.5 12t34.5 4t34.5 -4t18.5 -12l115 -658q16 -74 20 -119t-9 -69.5t-49 -32.5t-103 -8h-54q-68 0 -103.5 8t-49 32.5t-8 70zM121 1143q0 90 39 128t139 38t137 -39t37 -127q0 -90 -37 -129t-137 -39t-139 39t-39 129z" />
<glyph unicode="&#xa2;" d="M104 477q0 266 130.5 387t375.5 121h31.5t32.5 -2l80 322h133l-88 -340q98 -25 141 -76t43 -119q0 -61 -25.5 -79.5t-93.5 -18.5q-27 0 -63.5 5t-77.5 21l-125 -516h6q49 0 101.5 8.5t101.5 22.5t94 31.5t80 38.5l8 -50q-25 -70 -68.5 -121t-101 -82.5t-122 -47 t-130.5 -15.5h-22l-78 -303h-131l80 320q-166 35 -239 155.5t-73 337.5zM377 477q0 -125 22.5 -192.5t77.5 -94.5l146 580q-8 2 -33 9t-33 7q-49 0 -83 -11t-55.5 -44t-31.5 -93t-10 -161z" />
<glyph unicode="&#xa3;" d="M20 131q0 55 21.5 91t67 47.5t114 -5t162.5 -67.5q12 25 12 61q0 37 -12 73t-30.5 73.5t-42 78.5t-48.5 84h-221l-14 123h180q-20 51 -31.5 105.5t-11.5 117.5q0 180 111.5 280.5t351.5 100.5q104 0 169.5 -12t102.5 -35.5t49.5 -58.5t12.5 -82q0 -59 -24 -78.5 t-81 -19.5q-31 0 -56.5 4t-50 14t-52 28.5t-62.5 45.5h-37q-82 -2 -119 -40t-37 -145q0 -59 13.5 -115.5t29.5 -109.5h392l-7 -123h-342q16 -49 24.5 -95t4.5 -92t-26.5 -92t-71.5 -93l12 -15q53 4 95 7t79 8q92 10 143.5 24t73.5 37q25 25 38 64.5t18 97.5l102 -35 q8 -121 -8.5 -201t-54 -128t-97 -68.5t-139.5 -20.5q-51 0 -97 15.5t-86 40t-73 53t-61 53.5q-115 -158 -224 -158q-53 0 -84.5 9.5t-49 29t-23 50t-5.5 73.5z" />
<glyph unicode="&#xa4;" d="M16 424l11 115h118q-2 18 -2 34.5v34.5v49.5t2 47.5h-118l-11 114h138q16 125 55 214t105.5 146.5t165 84t231.5 26.5q92 0 149.5 -12t89 -35.5t44 -58.5t12.5 -82q0 -59 -25 -78.5t-84 -19.5q-55 0 -101 16t-106 72h-78q-82 0 -136 -62.5t-77 -210.5h490l-10 -114h-514 v-52q0 -29 1 -58.5t3 -55.5h510l10 -115h-481q12 -72 33.5 -120t55 -75.5t80 -39t107.5 -11.5q100 0 186 32t156 73l8 -52q-14 -59 -51 -107t-88 -83t-115.5 -53.5t-138.5 -18.5q-229 0 -345 110.5t-144 344.5h-136z" />
<glyph unicode="&#xa5;" d="M-23 1110v170h486v-199h-88l-6 -10l149 -371h41l150 361l-4 10l-103 43v166h447v-203h-64l-8 -8l-256 -381h260l-10 -115h-318v-145h320l10 -115h-326v-86l5 -8l194 -49v-170h-659v203h180l6 8v102h-344l10 115h338v145h-338l-10 115h283l-252 371l-11 10z" />
<glyph unicode="&#xa6;" horiz-adv-x="942" d="M29 215q0 78 29.5 111.5t109.5 33.5q53 0 79.5 -19t36 -48t5.5 -63.5t-17 -63.5q14 -4 42 -12.5t67 -8.5q43 0 70.5 10.5t43 34t21.5 62.5t6 96v395l-4 9l-145 47v172h524v-203h-106l-7 -8v-383q0 -109 -15 -186.5t-58 -128t-123 -74t-209 -23.5q-100 0 -168 16.5 t-108 49t-57 79t-17 105.5z" />
<glyph unicode="&#xa7;" d="M23 516q0 49 10 85t35.5 62.5t67.5 45t106 32.5v41q-27 10 -51.5 25.5t-43 40t-28.5 59.5t-10 84q0 92 26.5 154.5t80.5 100.5t139 54.5t202 16.5q111 0 180.5 -14.5t107.5 -40t52 -62.5t14 -80q0 -57 -33.5 -83.5t-93.5 -26.5q-41 0 -71.5 9t-55 26.5t-48 43t-52.5 56.5 h-47q-82 0 -117 -16.5t-35 -69.5q0 -25 12.5 -42.5t40 -31.5t72.5 -27.5t109 -31.5q111 -31 189.5 -59.5t129 -62.5t74 -80t23.5 -114q0 -98 -48.5 -147t-171.5 -80v-41q27 -10 51.5 -24.5t43 -39t29 -59.5t10.5 -84q0 -90 -27 -152.5t-83 -101.5t-147.5 -55t-220.5 -16 q-111 0 -180 14t-108 40.5t-52.5 62.5t-13.5 79q0 57 34 84t93 27q41 0 71.5 -9.5t55.5 -27t48.5 -43t49.5 -55.5h50q96 0 138 19t42 69q0 25 -11.5 41t-38 30.5t-71.5 27.5t-115 32q-123 33 -202.5 62.5t-127 64t-65.5 80t-18 108.5zM248 596q0 -43 52 -77t177 -75 q43 -14 92 -28.5t97 -32.5q63 31 89.5 59.5t26.5 87.5q0 41 -52 74t-179 74q-45 16 -92 30.5t-97 32.5q-63 -29 -88.5 -58.5t-25.5 -86.5z" />
<glyph unicode="&#xa8;" horiz-adv-x="819" d="M-12 1225q0 78 34.5 111.5t133.5 33.5q100 0 133 -33.5t33 -111.5q0 -80 -33 -115t-133 -35q-98 0 -133 35t-35 115zM502 1225q0 78 34.5 111.5t131.5 33.5q98 0 130.5 -33.5t32.5 -111.5q0 -80 -32.5 -115t-130.5 -35q-96 0 -131 35t-35 115z" />
<glyph unicode="&#xa9;" horiz-adv-x="1701" d="M74 641q0 221 45 379t139 260t242.5 150.5t353.5 48.5q207 0 357.5 -48.5t247.5 -150.5t144.5 -260t47.5 -379t-46 -381t-142.5 -261t-247 -149.5t-357.5 -48.5t-355.5 48.5t-243.5 149.5t-140 261t-45 381zM195 641q0 -188 37.5 -324.5t118.5 -223.5t207 -129t300 -42 q176 0 303 42t209 129t121 223.5t39 324.5t-39 324.5t-122 223.5t-210 129t-305 42q-174 0 -299 -42t-205 -129t-117.5 -223.5t-37.5 -324.5zM385 612q0 143 39 238.5t107.5 152t161.5 79t200 22.5q59 0 108.5 -10.5t88.5 -22.5l170 43v-354h-177l-65 147q-31 16 -70 22.5 t-74 6.5q-113 0 -162.5 -66.5t-49.5 -207.5q0 -92 9 -156t35.5 -104t71.5 -57t115 -17q29 0 72 8t69 24l72 152h180l-22 -326l-115 29q-66 -27 -132.5 -40t-164.5 -13q-123 0 -211 32.5t-144.5 92t-84 142.5t-27.5 183z" />
<glyph unicode="&#xaa;" horiz-adv-x="890" d="M61 702q0 59 27 106.5t85 82.5t151.5 55.5t226.5 22.5v69q4 106 -182 107q-39 0 -77 -7.5t-38 -17.5q0 -8 8 -32.5t8 -38.5q0 -23 -31.5 -29t-93.5 -6q-49 0 -65.5 6t-16.5 27q0 61 32 110t86.5 83t127 51.5t154.5 17.5q147 0 226 -58.5t75 -185.5l-16 -326 q-2 -47 16 -64.5t45 -17.5q18 0 36.5 2.5t31.5 6.5l8 -64q-35 -47 -85 -75.5t-110 -28.5q-61 0 -99 31.5t-46 105.5h-15q-47 -55 -104 -96t-133 -41q-104 0 -168 51t-64 153zM268 743q0 -35 23.5 -57t95.5 -22q45 0 88 12.5t66 28.5q2 51 4 92q2 35 2 64.5t0 27.5 q-80 -12 -134.5 -26.5t-86 -33t-45 -40t-13.5 -46.5z" />
<glyph unicode="&#xab;" horiz-adv-x="1208" d="M70 377v205l499 282l19 -119l-334 -247v-41l334 -244l-19 -123zM592 373v213l538 303l19 -127l-371 -264v-41l371 -260l-19 -127z" />
<glyph unicode="&#xac;" horiz-adv-x="1212" d="M23 0v203h102l6 8l252 696v43l397 41l287 -768l4 -6l125 -47v-170h-510v203h80l6 8l-35 108h-340l-30 -92l4 -8l149 -49v-170h-497zM442 473h248l-4 15q-4 14 -11 37.5t-17.5 53t-20.5 60.5l-53 164h-35z" />
<glyph unicode="&#xad;" horiz-adv-x="661" d="M74 430v174h518v-174h-518z" />
<glyph unicode="&#xae;" horiz-adv-x="1701" d="M74 641q0 221 45 379t139 260t242.5 150.5t353.5 48.5q207 0 357.5 -48.5t247.5 -150.5t144.5 -260t47.5 -379t-46 -381t-142.5 -261t-247 -149.5t-357.5 -48.5t-355.5 48.5t-243.5 149.5t-140 261t-45 381zM195 641q0 -188 37.5 -324.5t118.5 -223.5t207 -129t300 -42 q176 0 303 42t209 129t121 223.5t39 324.5t-39 324.5t-122 223.5t-210 129t-305 42q-174 0 -299 -42t-205 -129t-117.5 -223.5t-37.5 -324.5zM424 1063h469q113 0 186.5 -13.5t117.5 -43t61.5 -74.5t17.5 -109q0 -100 -45 -160.5t-156 -95.5l144 -190l10 -8l102 -31v-137 h-287l-83 147l-109 178l-88 -8v-141l2 -8l72 -29v-139h-404v159h78v2q0 2 2 3v516v8l-86 37zM764 666l80 -13q86 8 126 38.5t40 96.5q0 72 -38 92.5t-128 20.5h-80v-235z" />
<glyph unicode="&#xaf;" horiz-adv-x="819" d="M47 1120l14 180h695l14 -180h-723z" />
<glyph unicode="&#xb0;" horiz-adv-x="763" d="M66 999q0 162 71.5 236t247.5 74q96 0 157.5 -15.5t96.5 -52.5t47 -96.5t12 -145.5q0 -154 -71.5 -235.5t-241.5 -81.5q-94 0 -156.5 18.5t-98.5 56.5t-50 98t-14 144zM199 999q0 -57 4 -96t21.5 -62.5t55 -33.5t105.5 -10q59 0 95 12t55.5 36.5t25.5 62.5t6 91 q0 61 -4 100.5t-21.5 60t-54 27.5t-102.5 7q-61 0 -97 -10t-56.5 -33t-26.5 -60.5t-6 -91.5z" />
<glyph unicode="&#xb1;" horiz-adv-x="1701" d="M74 641q0 221 45 379t139 260t242.5 150.5t353.5 48.5q207 0 357.5 -48.5t247.5 -150.5t144.5 -260t47.5 -379t-46 -381t-142.5 -261t-247 -149.5t-357.5 -48.5t-355.5 48.5t-243.5 149.5t-140 261t-45 381zM195 641q0 -188 37.5 -324.5t118.5 -223.5t207 -129t300 -42 q176 0 303 42t209 129t121 223.5t39 324.5t-39 324.5t-122 223.5t-210 129t-305 42q-174 0 -299 -42t-205 -129t-117.5 -223.5t-37.5 -324.5zM467 938v145h455q205 0 300 -61.5t95 -202.5q0 -328 -361 -327q-35 0 -77.5 3t-65.5 9v-135l4 -9l131 -30v-146h-473v166h82 q0 2 2 4v541l-2 4zM813 655q23 -4 52.5 -5t54.5 -1q78 0 107.5 32t29.5 112q0 37 -10.5 59t-32 32.5t-55 13.5t-80.5 3h-66v-246z" />
<glyph unicode="&#xb4;" horiz-adv-x="819" d="M158 1077l204 363h343l-336 -363h-211z" />
<glyph unicode="&#xb5;" horiz-adv-x="1222" d="M78 465q0 152 39 254t109.5 165.5t170 90t219.5 26.5q92 0 147.5 -12t102.5 -33l185 45v-358h-215l-35 127q-25 16 -77 25.5t-116 9.5q-137 0 -193.5 -67.5t-56.5 -229.5q0 -109 11.5 -176.5t40 -104.5t79 -50t127.5 -13q49 0 100.5 7t86.5 17v123l-4 8l-162 48v159h502 v-188h-109l-6 -8v-127l92 -19v-149q-45 -12 -109.5 -24.5t-135 -21.5t-141.5 -14.5t-128 -5.5q-150 0 -250 28t-161.5 87t-87 153.5t-25.5 227.5z" />
<glyph unicode="&#xb6;" d="M80 915q0 102 24.5 172t87 113t171 61.5t276.5 18.5h291v-1346h-178v576q-55 -14 -104.5 -18.5t-110.5 -4.5q-98 0 -182.5 26t-146 78t-95 133t-33.5 191z" />
<glyph unicode="&#xb7;" horiz-adv-x="557" d="M113 471q0 100 43 142t153 42q111 0 152 -42t41 -142q0 -98 -41 -141t-152 -43t-153.5 43t-42.5 141z" />
<glyph unicode="&#xb8;" horiz-adv-x="819" d="M147 -213l310 293h147l-219 -211v-31q305 14 305 -172q0 -141 -126 -207.5t-386 -85.5l-14 90q96 18 157.5 36t97.5 38.5t49 44t13 51.5q0 47 -60.5 67.5t-178.5 20.5h-95v66z" />
<glyph unicode="&#xba;" horiz-adv-x="937" d="M68 889q0 115 33.5 194.5t94 130t141.5 73t173 22.5q102 0 171 -27t112 -77t61 -121.5t18 -159.5q0 -115 -33.5 -197t-93 -133t-140.5 -74.5t-173 -23.5q-102 0 -172 28.5t-113 80.5t-61 124t-18 160zM299 920q0 -78 8 -139.5t35 -90.5q16 -16 44 -26.5t89 -10.5 q53 0 85 14.5t49.5 44t23.5 74t6 103.5q0 78 -8 137t-33 86q-18 18 -51 28.5t-86 10.5q-51 0 -83 -13.5t-49.5 -42t-23.5 -72.5t-6 -103z" />
<glyph unicode="&#xbb;" horiz-adv-x="1224" d="M92 197l371 260v41l-371 264l19 127l538 -303v-213l-538 -303zM651 213l334 244v41l-334 247l19 119l501 -282v-205l-501 -287z" />
<glyph unicode="&#xbc;" horiz-adv-x="2263" d="M72 799v172h991v-348h-199l-22 104q-6 25 -19.5 39t-47.5 22.5t-95.5 10.5t-163.5 2h-51v-264h55q41 0 54.5 10t23.5 35l27 69h153l-41 -366h-133l-20 69q-8 23 -19.5 33t-44.5 10h-55v-170l4 -8l147 -49v-170h-528v203h107l6 8v532l-4 9zM1202 799v172h991v-348h-196 l-25 104q-6 25 -19.5 39t-47 22.5t-94 10.5t-162.5 2h-54v-264h56q41 0 54 10t24 35l26 69h154l-39 -366h-135l-19 69q-8 23 -19 33t-44 10h-58v-170l4 -8l150 -49v-170h-528v203h106l6 8v532l-4 9z" />
<glyph unicode="&#xbd;" horiz-adv-x="2942" d="M72 799v172h991v-348h-199l-22 104q-6 25 -19.5 39t-47.5 22.5t-95.5 10.5t-163.5 2h-51v-264h55q41 0 54.5 10t23.5 35l27 69h153l-41 -366h-133l-20 69q-8 23 -19.5 33t-44.5 10h-55v-170l4 -8l147 -49v-170h-528v203h107l6 8v532l-4 9zM1202 799v172h991v-348h-196 l-25 104q-6 25 -19.5 39t-47 22.5t-94 10.5t-162.5 2h-54v-264h56q41 0 54 10t24 35l26 69h154l-39 -366h-135l-19 69q-8 23 -19 33t-44 10h-58v-170l4 -8l150 -49v-170h-528v203h106l6 8v532l-4 9zM2333 799v172h518v-203h-109l-8 -8v-533l4 -8l135 -49v-170h-518v203h109 l8 8v532l-4 9z" />
<glyph unicode="&#xbe;" horiz-adv-x="3346" d="M72 799v172h991v-348h-199l-22 104q-6 25 -19.5 39t-47.5 22.5t-95.5 10.5t-163.5 2h-51v-264h55q41 0 54.5 10t23.5 35l27 69h153l-41 -366h-133l-20 69q-8 23 -19.5 33t-44.5 10h-55v-170l4 -8l147 -49v-170h-528v203h107l6 8v532l-4 9zM1202 799v172h991v-348h-196 l-25 104q-6 25 -19.5 39t-47 22.5t-94 10.5t-162.5 2h-54v-264h56q41 0 54 10t24 35l26 69h154l-39 -366h-135l-19 69q-8 23 -19 33t-44 10h-58v-170l4 -8l150 -49v-170h-528v203h106l6 8v532l-4 9zM2335 799v172h506v-203h-107l-6 -8v-592h33q102 0 158.5 3t85 11 t36.5 22.5t15 37.5l30 114h211l-24 -356h-924v203h109l6 8v532l-4 9z" />
<glyph unicode="&#xbf;" horiz-adv-x="831" d="M27 309q0 78 20.5 129t53 86t74.5 56.5t85 40.5q61 27 108.5 46t47.5 48q0 23 -39 52.5t-98 70.5l247 55q74 -39 119 -91t45 -110q0 -49 -17.5 -85t-47 -63.5t-66.5 -48t-74 -38.5q-35 -16 -67.5 -30.5t-58 -30t-41 -32t-15.5 -38.5q0 -47 66.5 -76t185.5 -29q37 0 77 3 t83 12q6 0 10 -12.5t8 -32t6 -43t2 -46.5q0 -37 -8 -62.5t-33.5 -40.5t-71.5 -22.5t-124 -7.5q-244 0 -360.5 90t-116.5 250zM283 1147q0 90 36.5 126t137.5 36q100 0 139 -35t39 -127q0 -90 -39 -125t-139 -35t-137 35t-37 125z" />
<glyph unicode="&#xc0;" horiz-adv-x="1325" d="M-2 0v203h125l8 8l313 956v80l396 68l350 -1088l8 -10l143 -47v-170h-579v203h112l7 8l-47 192h-422l-43 -176l4 -8l131 -49v-170h-506zM324 1772h342l204 -363h-211zM473 582h297l-129 491h-33z" />
<glyph unicode="&#xc1;" horiz-adv-x="1325" d="M-2 0v203h125l8 8l313 956v80l396 68l350 -1088l8 -10l143 -47v-170h-579v203h112l7 8l-47 192h-422l-43 -176l4 -8l131 -49v-170h-506zM473 582h297l-129 491h-33zM500 1409l205 363h342l-336 -363h-211z" />
<glyph unicode="&#xc2;" horiz-adv-x="1325" d="M-2 0v203h125l8 8l313 956v80l396 68l350 -1088l8 -10l143 -47v-170h-579v203h112l7 8l-47 192h-422l-43 -176l4 -8l131 -49v-170h-506zM268 1409l189 383h385l188 -383h-188l-183 262h-20l-178 -262h-193zM473 582h297l-129 491h-33z" />
<glyph unicode="&#xc3;" horiz-adv-x="1325" d="M-2 0v203h125l8 8l313 956v80l396 68l350 -1088l8 -10l143 -47v-170h-579v203h112l7 8l-47 192h-422l-43 -176l4 -8l131 -49v-170h-506zM254 1417q10 86 23.5 147.5t38 100.5t60.5 57.5t91 18.5q49 0 99 -21.5t95.5 -47t85 -47t70.5 -21.5q16 0 27.5 5t20.5 18t17.5 39 t20.5 67h146q-8 -86 -22.5 -147.5t-39 -100.5t-60.5 -57.5t-91 -18.5q-49 0 -99.5 22.5t-97.5 48t-88 48t-72 22.5q-16 0 -25.5 -5t-16.5 -19.5t-14 -41t-20 -67.5h-149zM473 582h297l-129 491h-33z" />
<glyph unicode="&#xc4;" horiz-adv-x="1325" d="M-2 0v203h125l8 8l313 956v80l396 68l350 -1088l8 -10l143 -47v-170h-579v203h112l7 8l-47 192h-422l-43 -176l4 -8l131 -49v-170h-506zM227 1556q0 78 35 112t133 34q100 0 133 -34t33 -112q0 -80 -32.5 -114.5t-133.5 -34.5q-98 0 -133 35t-35 114zM473 582h297 l-129 491h-33zM741 1556q0 78 35 112t131 34q98 0 131 -34t33 -112q0 -80 -32.5 -114.5t-131.5 -34.5q-96 0 -131 35t-35 114z" />
<glyph unicode="&#xc5;" horiz-adv-x="1325" d="M-2 0v203h125l8 8l330 1010q-47 29 -67.5 80t-20.5 133q0 137 70.5 195.5t218.5 58.5q82 0 137 -13.5t88 -43t47 -78t14 -119.5q0 -137 -84 -201l326 -1006l8 -10l143 -47v-170h-579v203h112l7 8l-47 192h-422l-43 -176l4 -8l131 -49v-170h-506zM473 582h297l-129 491 h-33zM485 1434q0 -84 35 -117t142 -33q98 0 136 34t38 116q0 45 -7.5 73.5t-27 45t-53 22.5t-86.5 6q-96 0 -136.5 -30.5t-40.5 -116.5z" />
<glyph unicode="&#xc6;" horiz-adv-x="1855" d="M-53 0v203h125l8 8l434 840l-2 6l-145 53v170h1407v-449h-207l-33 150q-8 33 -21.5 52.5t-55.5 28.5t-123 12t-222 3h-37v-356h43q33 0 53.5 2t33 8t20.5 17.5t14 29.5l35 99h164l-47 -459h-144l-24 104q-10 29 -27.5 36t-77.5 7h-43v-362h35q139 0 218 3t119 14 t54.5 30.5t26.5 50.5l53 143h215l-39 -444h-1108v203h131q6 0 6 8v213h-368l-101 -199l2 -6l127 -49v-170h-499zM522 602h264v510h-34z" />
<glyph unicode="&#xc7;" horiz-adv-x="1341" d="M92 606q0 205 46 340t132 216t209 114t277 33q100 0 161.5 -13.5t108.5 -29.5l207 57v-469h-207l-57 199q-53 23 -110.5 35t-135.5 12q-92 0 -154.5 -22.5t-100.5 -73t-55.5 -131t-17.5 -197.5q0 -158 14.5 -255t52.5 -150.5t104.5 -72t172.5 -18.5q78 0 136.5 15.5 t109.5 42.5l62 202h210l-36 -438l-136 39q-57 -25 -126.5 -42t-145.5 -26l-108 -104v-31q305 14 305 -172q0 -141 -126 -207.5t-386 -85.5l-15 90q96 18 157.5 36t97.5 38.5t49.5 44t13.5 51.5q0 47 -60.5 67.5t-179.5 20.5h-94v66l190 180q-160 4 -267 46t-173.5 122 t-95.5 198t-29 273z" />
<glyph unicode="&#xc8;" horiz-adv-x="1366" d="M80 1110v170h1177v-449h-206l-35 150q-8 33 -21.5 52.5t-54.5 28.5t-122 12t-222 3h-78v-356h70q39 0 62.5 2t37.5 8t21.5 17.5t13.5 29.5l33 99h166l-48 -459h-145l-24 104q-4 14 -10.5 22.5t-18.5 13.5t-32.5 6t-55.5 1h-70v-362h74q135 0 214 3t121 14t59.5 35 t31.5 64l45 125h217l-39 -444h-1149v203h131l6 8v838l-4 8zM293 1772h342l205 -363h-211z" />
<glyph unicode="&#xc9;" horiz-adv-x="1366" d="M80 1110v170h1177v-449h-206l-35 150q-8 33 -21.5 52.5t-54.5 28.5t-122 12t-222 3h-78v-356h70q39 0 62.5 2t37.5 8t21.5 17.5t13.5 29.5l33 99h166l-48 -459h-145l-24 104q-4 14 -10.5 22.5t-18.5 13.5t-32.5 6t-55.5 1h-70v-362h74q135 0 214 3t121 14t59.5 35 t31.5 64l45 125h217l-39 -444h-1149v203h131l6 8v838l-4 8zM573 1409l205 363h342l-336 -363h-211z" />
<glyph unicode="&#xca;" horiz-adv-x="1366" d="M80 1110v170h1177v-449h-206l-35 150q-8 33 -21.5 52.5t-54.5 28.5t-122 12t-222 3h-78v-356h70q39 0 62.5 2t37.5 8t21.5 17.5t13.5 29.5l33 99h166l-48 -459h-145l-24 104q-4 14 -10.5 22.5t-18.5 13.5t-32.5 6t-55.5 1h-70v-362h74q135 0 214 3t121 14t59.5 35 t31.5 64l45 125h217l-39 -444h-1149v203h131l6 8v838l-4 8zM307 1409l189 383h385l188 -383h-188l-183 262h-20l-178 -262h-193z" />
<glyph unicode="&#xcb;" horiz-adv-x="1366" d="M80 1110v170h1177v-449h-206l-35 150q-8 33 -21.5 52.5t-54.5 28.5t-122 12t-222 3h-78v-356h70q39 0 62.5 2t37.5 8t21.5 17.5t13.5 29.5l33 99h166l-48 -459h-145l-24 104q-4 14 -10.5 22.5t-18.5 13.5t-32.5 6t-55.5 1h-70v-362h74q135 0 214 3t121 14t59.5 35 t31.5 64l45 125h217l-39 -444h-1149v203h131l6 8v838l-4 8zM272 1556q0 78 35 112t133 34q100 0 133 -34t33 -112q0 -80 -32.5 -114.5t-133.5 -34.5q-98 0 -133 35t-35 114zM786 1556q0 78 35 112t131 34q98 0 131 -34t33 -112q0 -80 -32.5 -114.5t-131.5 -34.5 q-96 0 -131 35t-35 114z" />
<glyph unicode="&#xcc;" horiz-adv-x="786" d="M-53 1772h342l205 -363h-211zM88 1110v170h606v-203h-149l-6 -8v-842l4 -8l157 -49v-170h-600v203h144l6 8v838l-4 8z" />
<glyph unicode="&#xcd;" horiz-adv-x="786" d="M88 1110v170h606v-203h-149l-6 -8v-842l4 -8l157 -49v-170h-600v203h144l6 8v838l-4 8zM287 1409l205 363h342l-336 -363h-211z" />
<glyph unicode="&#xce;" horiz-adv-x="786" d="M-2 1409l188 383h385l189 -383h-189l-182 262h-20l-179 -262h-192zM88 1110v170h606v-203h-149l-6 -8v-842l4 -8l157 -49v-170h-600v203h144l6 8v838l-4 8z" />
<glyph unicode="&#xcf;" horiz-adv-x="786" d="M-29 1556q0 78 35 112t133 34q100 0 133 -34t33 -112q0 -80 -32.5 -114.5t-133.5 -34.5q-98 0 -133 35t-35 114zM88 1110v170h606v-203h-149l-6 -8v-842l4 -8l157 -49v-170h-600v203h144l6 8v838l-4 8zM485 1556q0 78 35 112t131 34q98 0 131 -34t33 -112 q0 -80 -32.5 -114.5t-131.5 -34.5q-96 0 -131 35t-35 114z" />
<glyph unicode="&#xd0;" horiz-adv-x="1435" d="M74 563v172h153v314l-4 8l-143 53v170q164 4 293 6q55 0 108.5 1t94 2t67.5 1h27q195 2 323.5 -38t206.5 -119.5t110.5 -197.5t32.5 -273q0 -172 -36.5 -297t-117.5 -206t-211 -120t-314 -39h-572v203h131l4 8v352h-153zM518 240l164 -37q92 0 158.5 21.5t111.5 68.5 t66.5 125t21.5 194q0 152 -21.5 243t-70.5 140t-128 65.5t-193 16.5h-109v-342h227v-172h-227v-323z" />
<glyph unicode="&#xd1;" horiz-adv-x="1570" d="M80 1110v170h541l489 -987h35v756l-4 8l-172 53v170h542v-203h-131l-6 -8v-1092h-368l-514 1022h-35v-768l4 -8l172 -53v-170h-541v203h131l6 8v838l-4 8zM379 1417q10 86 23.5 147.5t38 100.5t60.5 57.5t91 18.5q49 0 99 -21.5t95 -47t85 -47t71 -21.5q16 0 27.5 5 t20.5 18t17.5 39t20.5 67h146q-8 -86 -22.5 -147.5t-39.5 -100.5t-60.5 -57.5t-90.5 -18.5q-49 0 -99.5 22.5t-97.5 48t-88 48t-72 22.5q-16 0 -25.5 -5t-16.5 -19.5t-14 -41t-20 -67.5h-149z" />
<glyph unicode="&#xd2;" horiz-adv-x="1454" d="M92 606q0 205 46 340t132 216t209 114t277 33q172 0 288.5 -40t187.5 -120t100.5 -199.5t29.5 -279.5q0 -203 -47 -338t-133 -216t-210 -115t-278 -34q-172 0 -286.5 40t-185 120t-100.5 199.5t-30 279.5zM287 1772h342l205 -363h-211zM395 676q0 -158 13.5 -255 t50.5 -151.5t102.5 -73t167.5 -18.5q92 0 154.5 22.5t101.5 73t56.5 131t17.5 197.5q0 158 -13.5 256t-50.5 151.5t-102.5 72t-169.5 18.5q-92 0 -154.5 -22.5t-100.5 -73t-55.5 -131t-17.5 -197.5z" />
<glyph unicode="&#xd3;" horiz-adv-x="1454" d="M92 606q0 205 46 340t132 216t209 114t277 33q172 0 288.5 -40t187.5 -120t100.5 -199.5t29.5 -279.5q0 -203 -47 -338t-133 -216t-210 -115t-278 -34q-172 0 -286.5 40t-185 120t-100.5 199.5t-30 279.5zM395 676q0 -158 13.5 -255t50.5 -151.5t102.5 -73t167.5 -18.5 q92 0 154.5 22.5t101.5 73t56.5 131t17.5 197.5q0 158 -13.5 256t-50.5 151.5t-102.5 72t-169.5 18.5q-92 0 -154.5 -22.5t-100.5 -73t-55.5 -131t-17.5 -197.5zM606 1409l205 363h342l-336 -363h-211z" />
<glyph unicode="&#xd4;" horiz-adv-x="1454" d="M92 606q0 205 46 340t132 216t209 114t277 33q172 0 288.5 -40t187.5 -120t100.5 -199.5t29.5 -279.5q0 -203 -47 -338t-133 -216t-210 -115t-278 -34q-172 0 -286.5 40t-185 120t-100.5 199.5t-30 279.5zM332 1409l188 383h385l189 -383h-189l-182 262h-21l-178 -262 h-192zM395 676q0 -158 13.5 -255t50.5 -151.5t102.5 -73t167.5 -18.5q92 0 154.5 22.5t101.5 73t56.5 131t17.5 197.5q0 158 -13.5 256t-50.5 151.5t-102.5 72t-169.5 18.5q-92 0 -154.5 -22.5t-100.5 -73t-55.5 -131t-17.5 -197.5z" />
<glyph unicode="&#xd5;" horiz-adv-x="1454" d="M92 606q0 205 46 340t132 216t209 114t277 33q172 0 288.5 -40t187.5 -120t100.5 -199.5t29.5 -279.5q0 -203 -47 -338t-133 -216t-210 -115t-278 -34q-172 0 -286.5 40t-185 120t-100.5 199.5t-30 279.5zM326 1417q10 86 23 147.5t38 100.5t60.5 57.5t91.5 18.5 q49 0 99 -21.5t95 -47t85 -47t71 -21.5q16 0 27.5 5t20.5 18t17.5 39t20.5 67h145q-8 -86 -22.5 -147.5t-39 -100.5t-60 -57.5t-91.5 -18.5q-49 0 -99 22.5t-97 48t-88 48t-72 22.5q-16 0 -25.5 -5t-16.5 -19.5t-14.5 -41t-19.5 -67.5h-149zM395 676q0 -158 13.5 -255 t50.5 -151.5t102.5 -73t167.5 -18.5q92 0 154.5 22.5t101.5 73t56.5 131t17.5 197.5q0 158 -13.5 256t-50.5 151.5t-102.5 72t-169.5 18.5q-92 0 -154.5 -22.5t-100.5 -73t-55.5 -131t-17.5 -197.5z" />
<glyph unicode="&#xd6;" horiz-adv-x="1454" d="M92 606q0 205 46 340t132 216t209 114t277 33q172 0 288.5 -40t187.5 -120t100.5 -199.5t29.5 -279.5q0 -203 -47 -338t-133 -216t-210 -115t-278 -34q-172 0 -286.5 40t-185 120t-100.5 199.5t-30 279.5zM305 1556q0 78 35 112t133 34q100 0 133 -34t33 -112 q0 -80 -33 -114.5t-133 -34.5q-98 0 -133 35t-35 114zM395 676q0 -158 13.5 -255t50.5 -151.5t102.5 -73t167.5 -18.5q92 0 154.5 22.5t101.5 73t56.5 131t17.5 197.5q0 158 -13.5 256t-50.5 151.5t-102.5 72t-169.5 18.5q-92 0 -154.5 -22.5t-100.5 -73t-55.5 -131 t-17.5 -197.5zM819 1556q0 78 35 112t131 34q98 0 131 -34t33 -112q0 -80 -33 -114.5t-131 -34.5q-96 0 -131 35t-35 114z" />
<glyph unicode="&#xd7;" horiz-adv-x="995" d="M80 291l346 346l-346 344l76 76l346 -346l346 348l76 -76l-349 -346l347 -346l-76 -76l-344 346l-346 -346z" />
<glyph unicode="&#xd8;" horiz-adv-x="1454" d="M92 606q0 205 46 340t133 216t211 114t280 33q150 0 264 -35l86 147h139l-57 -98q-23 -37 -40 -66.5t-17 -31.5q125 -72 175 -211t50 -344q0 -203 -47 -338t-134 -216t-212 -115t-281 -34t-266 37q-4 -12 -17.5 -35.5t-27.5 -46.5q-16 -27 -35 -55h-137l108 186 q-123 76 -172 213t-49 340zM395 676q0 -154 10.5 -250t45.5 -152l454 762v41q-35 12 -81 17.5t-101 5.5q-96 0 -159.5 -25.5t-100.5 -79t-52.5 -132.5t-15.5 -187zM543 197q35 -14 81 -16.5t105 -2.5q96 0 159.5 25.5t101.5 79t53.5 133.5t15.5 186q0 158 -12.5 254 t-47.5 152l-456 -770v-41z" />
<glyph unicode="&#xd9;" horiz-adv-x="1452" d="M29 1110v170h579v-203h-135l-6 -8v-539q0 -102 13.5 -168.5t45 -105.5t87 -54.5t137.5 -15.5q78 0 132 15.5t88 54.5t49 105.5t15 168.5v519l-4 8l-172 53v170h555v-203h-131l-6 -8v-563q0 -143 -29.5 -245.5t-97.5 -168t-174.5 -95.5t-259.5 -30q-147 0 -248.5 29 t-166 92.5t-93.5 163.5t-29 242v555l-4 8zM326 1772h342l204 -363h-210z" />
<glyph unicode="&#xda;" horiz-adv-x="1452" d="M29 1110v170h579v-203h-135l-6 -8v-539q0 -102 13.5 -168.5t45 -105.5t87 -54.5t137.5 -15.5q78 0 132 15.5t88 54.5t49 105.5t15 168.5v519l-4 8l-172 53v170h555v-203h-131l-6 -8v-563q0 -143 -29.5 -245.5t-97.5 -168t-174.5 -95.5t-259.5 -30q-147 0 -248.5 29 t-166 92.5t-93.5 163.5t-29 242v555l-4 8zM614 1409l205 363h342l-336 -363h-211z" />
<glyph unicode="&#xdb;" horiz-adv-x="1452" d="M29 1110v170h579v-203h-135l-6 -8v-539q0 -102 13.5 -168.5t45 -105.5t87 -54.5t137.5 -15.5q78 0 132 15.5t88 54.5t49 105.5t15 168.5v519l-4 8l-172 53v170h555v-203h-131l-6 -8v-563q0 -143 -29.5 -245.5t-97.5 -168t-174.5 -95.5t-259.5 -30q-147 0 -248.5 29 t-166 92.5t-93.5 163.5t-29 242v555l-4 8zM362 1409l189 383h385l188 -383h-188l-182 262h-21l-178 -262h-193z" />
<glyph unicode="&#xdc;" horiz-adv-x="1452" d="M29 1110v170h579v-203h-135l-6 -8v-539q0 -102 13.5 -168.5t45 -105.5t87 -54.5t137.5 -15.5q78 0 132 15.5t88 54.5t49 105.5t15 168.5v519l-4 8l-172 53v170h555v-203h-131l-6 -8v-563q0 -143 -29.5 -245.5t-97.5 -168t-174.5 -95.5t-259.5 -30q-147 0 -248.5 29 t-166 92.5t-93.5 163.5t-29 242v555l-4 8zM307 1556q0 78 35 112t133 34q100 0 133 -34t33 -112q0 -80 -33 -114.5t-133 -34.5q-98 0 -133 35t-35 114zM821 1556q0 78 35 112t131 34q98 0 131 -34t33 -112q0 -80 -33 -114.5t-131 -34.5q-96 0 -131 35t-35 114z" />
<glyph unicode="&#xdd;" horiz-adv-x="1341" d="M-2 1096v184h594v-213h-113l-6 -8l221 -375h35l201 363l-4 8l-127 41v184h542v-213h-127l-10 -8l-387 -582v-239l4 -9l189 -45v-184h-662v213h174l6 8v262l-383 564l-10 10zM563 1409l205 363h342l-336 -363h-211z" />
<glyph unicode="&#xde;" horiz-adv-x="1241" d="M80 1110v170h586v-203h-142l-6 -8v-65l160 14q147 0 247.5 -16.5t161 -56.5t86 -103.5t25.5 -159.5q0 -215 -131 -316.5t-369 -101.5q-104 0 -180 21v-58l4 -8l180 -49v-170h-610v203h131l6 8v838l-4 8zM518 467q25 -6 67 -11t77 -5q121 0 178 44.5t57 161.5 q0 45 -12.5 75t-43 48.5t-81.5 26.5t-127 8h-115v-348z" />
<glyph unicode="&#xdf;" horiz-adv-x="2074" d="M78 694q0 86 38 144.5t99 95.5t139 52t160 15q66 0 151 -10t171 -30l114 45v-330h-186l-27 100q-16 8 -42.5 14.5t-57.5 10.5t-62.5 6t-60.5 2q-182 0 -182 -96q0 -23 6 -40.5t28.5 -30.5t65.5 -22.5t117 -17.5q125 -14 208 -33.5t133 -54.5t71.5 -88t21.5 -135 q0 -166 -114.5 -246t-338.5 -80q-63 0 -126.5 5t-119 15.5t-100.5 24t-75 29.5l-25 270h199l43 -121q37 -10 91 -17t109 -7q66 0 107 8t63.5 23.5t29.5 35t7 43.5q0 27 -7 44.5t-33.5 32t-78 24.5t-139.5 20q-111 14 -186.5 34t-122.5 53.5t-67.5 84.5t-20.5 127zM1114 694 q0 86 38 144.5t99.5 95.5t140 52t158.5 15q66 0 151 -10t173 -30l115 45v-330h-187l-26 100q-18 8 -45 14.5t-58 10.5t-62.5 6t-58.5 2q-184 0 -184 -96q0 -23 6 -40.5t28.5 -30.5t65.5 -22.5t117 -17.5q125 -14 209 -33.5t134 -54.5t71.5 -88t21.5 -135q0 -166 -114.5 -246 t-337.5 -80q-131 0 -247 20.5t-177 53.5l-23 270h197l43 -121q39 -10 92 -17t109 -7q68 0 108.5 8t63 23.5t30 35t7.5 43.5q0 27 -8.5 44.5t-35 32t-78 24.5t-137.5 20q-111 14 -186.5 34t-123.5 53.5t-68.5 84.5t-20.5 127z" />
<glyph unicode="&#xe0;" horiz-adv-x="1212" d="M23 0v203h102l6 8l252 696v43l397 41l287 -768l4 -6l125 -47v-170h-510v203h80l6 8l-35 108h-340l-30 -92l4 -8l149 -49v-170h-497zM262 1440h342l205 -363h-211zM442 473h248l-4 15q-4 14 -11 37.5t-17.5 53t-20.5 60.5l-53 164h-35z" />
<glyph unicode="&#xe1;" horiz-adv-x="1212" d="M23 0v203h102l6 8l252 696v43l397 41l287 -768l4 -6l125 -47v-170h-510v203h80l6 8l-35 108h-340l-30 -92l4 -8l149 -49v-170h-497zM379 1077l205 363h342l-336 -363h-211zM442 473h248l-4 15q-4 14 -11 37.5t-17.5 53t-20.5 60.5l-53 164h-35z" />
<glyph unicode="&#xe2;" horiz-adv-x="1212" d="M23 0v203h102l6 8l252 696v43l397 41l287 -768l4 -6l125 -47v-170h-510v203h80l6 8l-35 108h-340l-30 -92l4 -8l149 -49v-170h-497zM205 1077l188 383h385l189 -383h-189l-182 262h-21l-178 -262h-192zM442 473h248l-4 15q-4 14 -11 37.5t-17.5 53t-20.5 60.5l-53 164 h-35z" />
<glyph unicode="&#xe3;" horiz-adv-x="1212" d="M23 0v203h102l6 8l252 696v43l397 41l287 -768l4 -6l125 -47v-170h-510v203h80l6 8l-35 108h-340l-30 -92l4 -8l149 -49v-170h-497zM209 1085q10 86 23.5 147.5t38 100.5t60.5 57.5t91 18.5q49 0 99 -21.5t95.5 -47t85 -47t70.5 -21.5q16 0 27.5 5t20.5 18.5t17.5 39 t20.5 66.5h146q-8 -86 -22.5 -147.5t-39 -100.5t-60.5 -57.5t-91 -18.5q-49 0 -99.5 22.5t-97.5 48.5t-88 48.5t-72 22.5q-16 0 -25.5 -5.5t-16.5 -19.5t-14 -41t-20 -68h-149zM442 473h248l-4 15q-4 14 -11 37.5t-17.5 53t-20.5 60.5l-53 164h-35z" />
<glyph unicode="&#xe4;" horiz-adv-x="1212" d="M23 0v203h102l6 8l252 696v43l397 41l287 -768l4 -6l125 -47v-170h-510v203h80l6 8l-35 108h-340l-30 -92l4 -8l149 -49v-170h-497zM178 1225q0 78 35 111.5t133 33.5q100 0 133 -33.5t33 -111.5q0 -80 -33 -115t-133 -35q-98 0 -133 35t-35 115zM442 473h248l-4 15 q-4 14 -11 37.5t-17.5 53t-20.5 60.5l-53 164h-35zM692 1225q0 78 35 111.5t131 33.5q98 0 131 -33.5t33 -111.5q0 -80 -33 -115t-131 -35q-96 0 -131 35t-35 115z" />
<glyph unicode="&#xe5;" horiz-adv-x="1212" d="M23 0v203h102l6 8l254 702q-45 29 -62.5 80t-17.5 127q0 135 69.5 193.5t217.5 58.5q84 0 138 -13t88 -42t47.5 -77t13.5 -120q0 -133 -74 -192l262 -705l4 -6l125 -47v-170h-510v203h80l6 8l-35 108h-340l-30 -92l4 -8l149 -49v-170h-497zM418 1120q0 -43 7 -71.5 t26.5 -46t53.5 -24.5t87 -7q98 0 136 33.5t38 115.5q0 43 -7 72t-27.5 45t-53.5 22.5t-86 6.5q-94 0 -134 -30t-40 -116zM442 473h248l-4 15q-4 14 -11 37.5t-17.5 53t-20.5 60.5l-53 164h-35z" />
<glyph unicode="&#xe6;" horiz-adv-x="1751" d="M23 0v203h108l8 6l326 557l-2 6l-129 43v156h1311v-348h-199l-23 104q-6 25 -20 39t-49 22.5t-97.5 10.5t-164.5 2h-64v-252h64q41 0 55 9t24 32l29 78h154l-39 -365h-135l-21 72q-8 23 -19.5 32t-41.5 9h-70v-248h66q102 0 164.5 2t98.5 10t51 22.5t24 39.5l30 100h197 l-25 -342h-968v203h92l6 8v117h-320l-55 -101l4 -8l101 -49v-170h-471zM528 467h236v352h-39z" />
<glyph unicode="&#xe7;" horiz-adv-x="1146" d="M78 465q0 152 39 254t109.5 165.5t170 90t219.5 26.5q92 0 147.5 -12t102.5 -33l185 45v-380h-215l-35 149q-25 16 -77 25.5t-112 9.5q-143 0 -198.5 -67.5t-55.5 -229.5q0 -109 12.5 -176.5t40 -104.5t74.5 -50t117 -13q72 0 121 9t90 28l33 149h223l-27 -354l-135 33 q-47 -18 -92 -31.5t-108 -22.5l-111 -106v-31q305 14 305 -172q0 -141 -126 -207.5t-386 -85.5l-14 90q96 18 157.5 36t97.5 38.5t49 44t13 51.5q0 47 -60.5 67.5t-178.5 20.5h-95v66l193 182q-131 2 -222 33t-146.5 92.5t-80 153.5t-24.5 217z" />
<glyph unicode="&#xe8;" horiz-adv-x="1187" d="M72 799v172h1009v-348h-198l-23 104q-6 25 -20.5 39t-49 22.5t-97 10.5t-165.5 2h-63v-246h67q41 0 54.5 10t23.5 33l27 70h154l-39 -365h-136l-18 68q-8 23 -19.5 33t-43.5 10h-70v-246h65q102 0 165 2t98.5 10t51 22.5t23.5 39.5l31 100h197l-25 -342h-983v203h107l6 8 v532l-4 9zM201 1440h342l205 -363h-211z" />
<glyph unicode="&#xe9;" horiz-adv-x="1187" d="M72 799v172h1009v-348h-198l-23 104q-6 25 -20.5 39t-49 22.5t-97 10.5t-165.5 2h-63v-246h67q41 0 54.5 10t23.5 33l27 70h154l-39 -365h-136l-18 68q-8 23 -19.5 33t-43.5 10h-70v-246h65q102 0 165 2t98.5 10t51 22.5t23.5 39.5l31 100h197l-25 -342h-983v203h107l6 8 v532l-4 9zM375 1077l205 363h342l-336 -363h-211z" />
<glyph unicode="&#xea;" horiz-adv-x="1187" d="M72 799v172h1009v-348h-198l-23 104q-6 25 -20.5 39t-49 22.5t-97 10.5t-165.5 2h-63v-246h67q41 0 54.5 10t23.5 33l27 70h154l-39 -365h-136l-18 68q-8 23 -19.5 33t-43.5 10h-70v-246h65q102 0 165 2t98.5 10t51 22.5t23.5 39.5l31 100h197l-25 -342h-983v203h107l6 8 v532l-4 9zM203 1077l188 383h385l189 -383h-189l-182 262h-21l-178 -262h-192z" />
<glyph unicode="&#xeb;" horiz-adv-x="1187" d="M72 799v172h1009v-348h-198l-23 104q-6 25 -20.5 39t-49 22.5t-97 10.5t-165.5 2h-63v-246h67q41 0 54.5 10t23.5 33l27 70h154l-39 -365h-136l-18 68q-8 23 -19.5 33t-43.5 10h-70v-246h65q102 0 165 2t98.5 10t51 22.5t23.5 39.5l31 100h197l-25 -342h-983v203h107l6 8 v532l-4 9zM168 1225q0 78 35 111.5t133 33.5q100 0 133 -33.5t33 -111.5q0 -80 -33 -115t-133 -35q-98 0 -133 35t-35 115zM682 1225q0 78 35 111.5t131 33.5q98 0 131 -33.5t33 -111.5q0 -80 -33 -115t-131 -35q-96 0 -131 35t-35 115z" />
<glyph unicode="&#xec;" horiz-adv-x="679" d="M-94 1440h342l205 -363h-211zM70 799v172h518v-203h-109l-8 -8v-533l4 -8l135 -49v-170h-518v203h109l8 8v532l-4 9z" />
<glyph unicode="&#xed;" horiz-adv-x="679" d="M70 799v172h518v-203h-109l-8 -8v-533l4 -8l135 -49v-170h-518v203h109l8 8v532l-4 9zM225 1077l205 363h342l-336 -363h-211z" />
<glyph unicode="&#xee;" horiz-adv-x="679" d="M-45 1077l188 383h385l189 -383h-189l-182 262h-20l-179 -262h-192zM70 799v172h518v-203h-109l-8 -8v-533l4 -8l135 -49v-170h-518v203h109l8 8v532l-4 9z" />
<glyph unicode="&#xef;" horiz-adv-x="679" d="M-80 1225q0 78 35 111.5t133 33.5q100 0 133 -33.5t33 -111.5q0 -80 -33 -115t-133 -35q-98 0 -133 35t-35 115zM70 799v172h518v-203h-109l-8 -8v-533l4 -8l135 -49v-170h-518v203h109l8 8v532l-4 9zM434 1225q0 78 35 111.5t131 33.5q98 0 131 -33.5t33 -111.5 q0 -80 -33 -115t-131 -35q-96 0 -131 35t-35 115z" />
<glyph unicode="&#xf0;" horiz-adv-x="1206" d="M72 799v172h557q262 0 385 -108.5t123 -348.5q0 -156 -38 -255t-111 -156.5t-180.5 -80t-246.5 -22.5h-473v203h107l6 8v197h-127v165h127v170l-4 9zM465 207l129 -25q135 2 196.5 68.5t61.5 220.5q0 92 -14.5 154.5t-45 100.5t-79.5 53.5t-121 15.5h-127v-222h184v-165 h-184v-201z" />
<glyph unicode="&#xf1;" horiz-adv-x="1339" d="M63 799v172h537l332 -729h31l-7 501l-4 9l-127 47v172h443v-203h-107l-6 -8v-776h-334l-395 786h-31l6 -543l5 -8l124 -49v-170h-442v203h107l6 8v532l-4 9zM262 1085q10 86 23.5 147.5t38 100.5t60.5 57.5t91 18.5q49 0 99.5 -21.5t95.5 -47t85 -47t70 -21.5 q16 0 27.5 5t21 18.5t17.5 39t20 66.5h146q-8 -86 -22.5 -147.5t-39 -100.5t-60.5 -57.5t-91 -18.5q-49 0 -99.5 22.5t-97.5 48.5t-88 48.5t-72 22.5q-16 0 -25 -5.5t-16.5 -19.5t-14.5 -41t-19 -68h-150z" />
<glyph unicode="&#xf2;" horiz-adv-x="1204" d="M78 461q0 154 42 257t115.5 165.5t173 90t216.5 27.5q135 0 230 -34.5t155.5 -98t88 -153.5t27.5 -203q0 -162 -42 -266.5t-115.5 -166t-172 -86t-212.5 -24.5q-135 0 -231.5 37t-158 101.5t-89 155.5t-27.5 198zM141 1440h342l205 -363h-211zM362 502q0 -94 11.5 -158.5 t39 -103.5t76 -55.5t123.5 -16.5q133 0 179.5 72.5t46.5 222.5q0 96 -9.5 160.5t-36 103.5t-74.5 55.5t-126 16.5q-129 0 -179.5 -74t-50.5 -223z" />
<glyph unicode="&#xf3;" horiz-adv-x="1204" d="M78 461q0 154 42 257t115.5 165.5t173 90t216.5 27.5q135 0 230 -34.5t155.5 -98t88 -153.5t27.5 -203q0 -162 -42 -266.5t-115.5 -166t-172 -86t-212.5 -24.5q-135 0 -231.5 37t-158 101.5t-89 155.5t-27.5 198zM362 502q0 -94 11.5 -158.5t39 -103.5t76 -55.5 t123.5 -16.5q133 0 179.5 72.5t46.5 222.5q0 96 -9.5 160.5t-36 103.5t-74.5 55.5t-126 16.5q-129 0 -179.5 -74t-50.5 -223zM487 1077l205 363h342l-336 -363h-211z" />
<glyph unicode="&#xf4;" horiz-adv-x="1204" d="M78 461q0 154 42 257t115.5 165.5t173 90t216.5 27.5q135 0 230 -34.5t155.5 -98t88 -153.5t27.5 -203q0 -162 -42 -266.5t-115.5 -166t-172 -86t-212.5 -24.5q-135 0 -231.5 37t-158 101.5t-89 155.5t-27.5 198zM207 1077l188 383h385l189 -383h-189l-182 262h-20 l-179 -262h-192zM362 502q0 -94 11.5 -158.5t39 -103.5t76 -55.5t123.5 -16.5q133 0 179.5 72.5t46.5 222.5q0 96 -9.5 160.5t-36 103.5t-74.5 55.5t-126 16.5q-129 0 -179.5 -74t-50.5 -223z" />
<glyph unicode="&#xf5;" horiz-adv-x="1204" d="M78 461q0 154 42 257t115.5 165.5t173 90t216.5 27.5q135 0 230 -34.5t155.5 -98t88 -153.5t27.5 -203q0 -162 -42 -266.5t-115.5 -166t-172 -86t-212.5 -24.5q-135 0 -231.5 37t-158 101.5t-89 155.5t-27.5 198zM205 1085q10 86 23.5 147.5t38 100.5t60 57.5t91.5 18.5 q49 0 99 -21.5t95 -47t85 -47t71 -21.5q16 0 27.5 5t20.5 18.5t17.5 39t20.5 66.5h145q-8 -86 -22 -147.5t-39 -100.5t-60.5 -57.5t-91.5 -18.5q-49 0 -99 22.5t-97 48.5t-88 48.5t-72 22.5q-16 0 -25.5 -5.5t-16.5 -19.5t-14 -41t-20 -68h-149zM362 502q0 -94 11.5 -158.5 t39 -103.5t76 -55.5t123.5 -16.5q133 0 179.5 72.5t46.5 222.5q0 96 -9.5 160.5t-36 103.5t-74.5 55.5t-126 16.5q-129 0 -179.5 -74t-50.5 -223z" />
<glyph unicode="&#xf6;" horiz-adv-x="1204" d="M78 461q0 154 42 257t115.5 165.5t173 90t216.5 27.5q135 0 230 -34.5t155.5 -98t88 -153.5t27.5 -203q0 -162 -42 -266.5t-115.5 -166t-172 -86t-212.5 -24.5q-135 0 -231.5 37t-158 101.5t-89 155.5t-27.5 198zM172 1225q0 78 35 111.5t133 33.5q100 0 133 -33.5 t33 -111.5q0 -80 -33 -115t-133 -35q-98 0 -133 35t-35 115zM362 502q0 -94 11.5 -158.5t39 -103.5t76 -55.5t123.5 -16.5q133 0 179.5 72.5t46.5 222.5q0 96 -9.5 160.5t-36 103.5t-74.5 55.5t-126 16.5q-129 0 -179.5 -74t-50.5 -223zM686 1225q0 78 35 111.5t131 33.5 q98 0 131 -33.5t33 -111.5q0 -80 -33 -115t-131 -35q-96 0 -131 35t-35 115z" />
<glyph unicode="&#xf7;" horiz-adv-x="995" d="M84 584l6 110h817l6 -110h-829zM395 350q0 41 30 73t77 32t75.5 -32t28.5 -73t-28.5 -73.5t-75.5 -32.5t-77 32.5t-30 73.5zM395 924q0 41 29 73.5t76 32.5t76.5 -32.5t29.5 -73.5t-29.5 -74t-76.5 -33t-76 33t-29 74z" />
<glyph unicode="&#xf8;" horiz-adv-x="1204" d="M78 461q0 154 42 257t115.5 165.5t173 90t216.5 27.5q106 0 192 -22l156 266h139l-90 -155q-35 -59 -63.5 -107.5t-28.5 -50.5q104 -59 150 -166t46 -254q0 -162 -42 -266.5t-115.5 -166t-172 -86t-212.5 -24.5q-117 0 -203 27l-152 -260h-137l180 307 q-102 66 -148 173.5t-46 244.5zM362 512q0 -88 8.5 -150.5t30.5 -101.5l304 524q-45 12 -113 13q-129 0 -179.5 -70t-50.5 -215zM494 186q45 -14 118 -14q133 0 179.5 68.5t46.5 212.5q0 92 -8.5 156.5t-30.5 103.5z" />
<glyph unicode="&#xf9;" horiz-adv-x="1200" d="M31 799v172h506v-203h-107l-6 -8v-381q0 -57 8 -100t30.5 -72t61.5 -44.5t103 -15.5q115 0 167 50.5t52 185.5v360l-4 9l-127 47v172h442v-203h-106l-7 -8v-373q0 -111 -23.5 -189.5t-76.5 -129t-139 -74t-211 -23.5q-231 0 -331.5 92.5t-100.5 292.5v387l-4 9zM188 1440 h342l205 -363h-211z" />
<glyph unicode="&#xfa;" horiz-adv-x="1200" d="M31 799v172h506v-203h-107l-6 -8v-381q0 -57 8 -100t30.5 -72t61.5 -44.5t103 -15.5q115 0 167 50.5t52 185.5v360l-4 9l-127 47v172h442v-203h-106l-7 -8v-373q0 -111 -23.5 -189.5t-76.5 -129t-139 -74t-211 -23.5q-231 0 -331.5 92.5t-100.5 292.5v387l-4 9zM508 1077 l205 363h342l-336 -363h-211z" />
<glyph unicode="&#xfb;" horiz-adv-x="1200" d="M31 799v172h506v-203h-107l-6 -8v-381q0 -57 8 -100t30.5 -72t61.5 -44.5t103 -15.5q115 0 167 50.5t52 185.5v360l-4 9l-127 47v172h442v-203h-106l-7 -8v-373q0 -111 -23.5 -189.5t-76.5 -129t-139 -74t-211 -23.5q-231 0 -331.5 92.5t-100.5 292.5v387l-4 9zM219 1077 l189 383h385l188 -383h-188l-183 262h-20l-178 -262h-193z" />
<glyph unicode="&#xfc;" horiz-adv-x="1200" d="M31 799v172h506v-203h-107l-6 -8v-381q0 -57 8 -100t30.5 -72t61.5 -44.5t103 -15.5q115 0 167 50.5t52 185.5v360l-4 9l-127 47v172h442v-203h-106l-7 -8v-373q0 -111 -23.5 -189.5t-76.5 -129t-139 -74t-211 -23.5q-231 0 -331.5 92.5t-100.5 292.5v387l-4 9zM178 1225 q0 78 35 111.5t133 33.5q100 0 133 -33.5t33 -111.5q0 -80 -33 -115t-133 -35q-98 0 -133 35t-35 115zM692 1225q0 78 35 111.5t131 33.5q98 0 131 -33.5t33 -111.5q0 -80 -33 -115t-131 -35q-96 0 -131 35t-35 115z" />
<glyph unicode="&#xfd;" horiz-adv-x="1159" d="M-6 799v172h553v-203h-88l-6 -8l159 -260h33l154 243v13l-113 43v172h475v-203h-86l-8 -8l-356 -375v-158l4 -8l153 -49v-170h-549v203h121l9 8v172l-302 360l-6 9zM326 1077l204 363h342l-335 -363h-211z" />
<glyph unicode="&#xfe;" horiz-adv-x="1089" d="M72 799v172h542v-144l-159 -30l-4 -9v-51l206 41q197 0 287 -64.5t90 -199.5q0 -68 -20.5 -125t-63.5 -98t-110.5 -64.5t-163.5 -23.5q-16 0 -45 3t-61.5 9t-64.5 14.5t-54 16.5v-60l4 -8l161 -49v-129h-528v203h107l6 8v532l-4 9zM451 375q37 -4 79.5 -6t71.5 -2 q84 0 120 30.5t36 96.5q0 63 -38 87.5t-145 24.5h-124v-231z" />
<glyph unicode="&#xff;" horiz-adv-x="1159" d="M-6 799v172h553v-203h-88l-6 -8l159 -260h33l154 243v13l-113 43v172h475v-203h-86l-8 -8l-356 -375v-158l4 -8l153 -49v-170h-549v203h121l9 8v172l-302 360l-6 9zM170 1225q0 78 35 111.5t133 33.5q100 0 133 -33.5t33 -111.5q0 -80 -33 -115t-133 -35q-98 0 -133 35 t-35 115zM684 1225q0 78 35 111.5t131 33.5q98 0 131 -33.5t33 -111.5q0 -80 -33 -115t-131 -35q-96 0 -131 35t-35 115z" />
<glyph unicode="&#x152;" horiz-adv-x="2021" d="M92 614q0 178 35 304t116 206t212 118t323 38h1143v-449h-207l-33 150q-8 33 -21 52.5t-55 28.5t-123 12t-222 3h-50v-356h41q41 0 64.5 2t37 8t20.5 17.5t13 29.5l33 99h166l-47 -459h-143l-25 104q-6 14 -11 22.5t-16.5 13.5t-33 6t-58.5 1h-41v-362h47q139 0 218 3 t119 14t54.5 30.5t26.5 50.5l51 143h218l-39 -444h-1133q-190 -2 -320 37t-210 115.5t-115 192.5t-35 269zM391 702q0 -152 21.5 -250t73 -154t134 -76.5t207.5 -18.5h95v874h-181q-350 0 -350 -375z" />
<glyph unicode="&#x153;" horiz-adv-x="1734" d="M78 453q0 156 36 256t107.5 158.5t179 81t248.5 22.5h979v-348h-198l-23 104q-6 25 -20.5 39t-49 22.5t-97 10.5t-165.5 2h-63v-252h65q41 0 54.5 9t23.5 32l31 78h153l-41 -365h-135l-18 72q-8 23 -19.5 32t-44.5 9h-69v-248h65q102 0 165 2t98.5 10t51 22.5t23.5 39.5 l31 100h199l-27 -342h-1032q-262 -2 -385 105.5t-123 347.5zM360 496q0 -94 14.5 -157t45.5 -99.5t81 -52t120 -15.5h129v590l-134 24q-143 -2 -199.5 -67.5t-56.5 -222.5z" />
<glyph unicode="&#x178;" horiz-adv-x="1341" d="M-2 1096v184h594v-213h-113l-6 -8l221 -375h35l201 363l-4 8l-127 41v184h542v-213h-127l-10 -8l-387 -582v-239l4 -9l189 -45v-184h-662v213h174l6 8v262l-383 564l-10 10zM276 1556q0 78 35 112t133 34q100 0 133 -34t33 -112q0 -80 -32.5 -114.5t-133.5 -34.5 q-98 0 -133 35t-35 114zM791 1556q0 78 34.5 112t130.5 34q98 0 131 -34t33 -112q0 -80 -32.5 -114.5t-131.5 -34.5q-96 0 -130.5 35t-34.5 114z" />
<glyph unicode="&#x2c6;" horiz-adv-x="819" d="M8 1077l189 383h385l188 -383h-188l-183 262h-20l-178 -262h-193z" />
<glyph unicode="&#x2dc;" horiz-adv-x="819" d="M12 1085q10 86 23.5 147.5t38 100.5t60.5 57.5t91 18.5q49 0 99.5 -21.5t95.5 -47t85 -47t70 -21.5q16 0 27.5 5t21 18.5t17.5 39t21 66.5h145q-8 -86 -22.5 -147.5t-39 -100.5t-60.5 -57.5t-91 -18.5q-49 0 -99.5 22.5t-97.5 48.5t-88 48.5t-71 22.5q-16 0 -25.5 -5.5 t-17 -19.5t-14.5 -41t-19 -68h-150z" />
<glyph unicode="&#x2000;" horiz-adv-x="896" />
<glyph unicode="&#x2001;" horiz-adv-x="1792" />
<glyph unicode="&#x2002;" horiz-adv-x="896" />
<glyph unicode="&#x2003;" horiz-adv-x="1792" />
<glyph unicode="&#x2004;" horiz-adv-x="597" />
<glyph unicode="&#x2005;" horiz-adv-x="448" />
<glyph unicode="&#x2006;" horiz-adv-x="298" />
<glyph unicode="&#x2007;" horiz-adv-x="298" />
<glyph unicode="&#x2008;" horiz-adv-x="224" />
<glyph unicode="&#x2009;" horiz-adv-x="358" />
<glyph unicode="&#x200a;" horiz-adv-x="99" />
<glyph unicode="&#x2010;" horiz-adv-x="661" d="M74 430v174h518v-174h-518z" />
<glyph unicode="&#x2011;" horiz-adv-x="661" d="M74 430v174h518v-174h-518z" />
<glyph unicode="&#x2012;" horiz-adv-x="661" d="M74 430v174h518v-174h-518z" />
<glyph unicode="&#x2013;" d="M0 430v174h1024v-174h-1024z" />
<glyph unicode="&#x2014;" horiz-adv-x="2048" d="M0 430v174h2048v-174h-2048z" />
<glyph unicode="&#x2018;" horiz-adv-x="647" d="M90 831q0 59 19.5 118t68.5 122.5t136 133t223 149.5l61 -56q-80 -74 -130 -129t-78 -99t-37 -76.5t-9 -61.5q0 -59 60.5 -99t175.5 -69q0 -92 -49.5 -145.5t-161.5 -53.5q-279 0 -279 266z" />
<glyph unicode="&#x2019;" horiz-adv-x="647" d="M63 604q80 74 130.5 129t78 98t37.5 77t10 61q0 59 -61 100t-176 70q0 92 49 145t162 53q278 0 278 -268q0 -57 -19.5 -116.5t-68.5 -122t-136 -132t-222 -149.5z" />
<glyph unicode="&#x201a;" horiz-adv-x="602" d="M63 -440q80 74 130.5 129t78 98t37.5 76t10 61q0 59 -61 100.5t-176 69.5q0 92 49 145.5t162 53.5q278 0 278 -268q0 -59 -19.5 -118t-68.5 -121t-136 -132t-222 -150z" />
<glyph unicode="&#x201c;" horiz-adv-x="1181" d="M84 881q0 55 17.5 111.5t63.5 116.5t127 125.5t206 139.5l57 -51q-76 -70 -122 -122t-71.5 -94t-35 -72.5t-9.5 -57.5q0 -55 58 -94t164 -66q0 -86 -46.5 -136t-150.5 -50q-258 0 -258 250zM664 881q0 55 17 111.5t63.5 116.5t127 125.5t205.5 139.5l58 -51 q-74 -70 -121 -122t-73 -94t-35 -72.5t-9 -57.5q0 -55 57.5 -94t163.5 -66q0 -86 -46 -136t-150 -50q-258 0 -258 250z" />
<glyph unicode="&#x201d;" horiz-adv-x="1181" d="M59 651q74 70 121 122t73 93t35 73t9 56q0 57 -57.5 96t-163.5 64q0 86 46 137t150 51q129 0 193.5 -61t64.5 -190q0 -55 -17 -111.5t-63.5 -116t-127 -125t-205.5 -139.5zM639 651q76 70 122 122t71.5 93t35 73t9.5 56q0 57 -56.5 96t-165.5 64q0 86 47.5 137t151.5 51 q129 0 192.5 -61t63.5 -190q0 -55 -17.5 -111.5t-63.5 -116t-127 -125t-206 -139.5z" />
<glyph unicode="&#x201e;" horiz-adv-x="1181" d="M59 -393q74 70 121 122t73 93t35 72.5t9 56.5q0 57 -57.5 96t-163.5 64q0 86 46 137t150 51q129 0 193.5 -61.5t64.5 -190.5q0 -55 -17 -111.5t-63.5 -116t-127 -125t-205.5 -138.5zM639 -393q76 70 122 122t71.5 93t35 72.5t9.5 56.5q0 57 -56.5 96t-165.5 64 q0 86 47.5 137t151.5 51q129 0 192.5 -61.5t63.5 -190.5q0 -55 -17.5 -111.5t-63.5 -116t-127 -125t-206 -138.5z" />
<glyph unicode="&#x2022;" horiz-adv-x="931" d="M72 475q0 23 12 63t30.5 83t39 80.5t34.5 52.5q16 16 53.5 35.5t80.5 37t83.5 29.5t61.5 12q23 0 62.5 -12t82.5 -29.5t81 -37t52 -35.5q16 -14 36 -52t37.5 -81t29.5 -83t12 -63t-12 -62.5t-29.5 -82.5t-37 -81t-36.5 -54q-14 -14 -52 -35t-81 -38.5t-84 -29.5t-63 -12 q-20 0 -61.5 12t-84.5 29.5t-79.5 38t-51.5 35.5q-14 16 -34.5 54t-39 81t-30.5 83t-12 62z" />
<glyph unicode="&#x2026;" horiz-adv-x="1837" d="M113 147q0 100 43 142.5t153 42.5q111 0 152 -42.5t41 -142.5q0 -98 -41 -141t-152 -43t-153.5 43t-42.5 141zM725 147q0 100 43 142.5t154 42.5t151.5 -42.5t40.5 -142.5q0 -98 -41 -141t-151 -43q-111 0 -154 43t-43 141zM1337 147q0 100 43 142.5t154 42.5 t151.5 -42.5t40.5 -142.5q0 -98 -40.5 -141t-151.5 -43t-154 43t-43 141z" />
<glyph unicode="&#x202f;" horiz-adv-x="358" />
<glyph unicode="&#x2039;" horiz-adv-x="716" d="M84 373v213l539 303l18 -127l-367 -264v-41l367 -260l-18 -127z" />
<glyph unicode="&#x203a;" horiz-adv-x="716" d="M94 197l369 260v41l-369 264l19 127l538 -303v-213l-538 -303z" />
<glyph unicode="&#x205f;" horiz-adv-x="448" />
<glyph unicode="&#x20ac;" d="M16 424l11 115h118q-2 18 -2 34.5v34.5v49.5t2 47.5h-118l-11 114h138q16 125 55 214t105.5 146.5t165 84t231.5 26.5q92 0 149.5 -12t89 -35.5t44 -58.5t12.5 -82q0 -59 -25 -78.5t-84 -19.5q-55 0 -101 16t-106 72h-78q-82 0 -136 -62.5t-77 -210.5h490l-10 -114h-514 v-52q0 -29 1 -58.5t3 -55.5h510l10 -115h-481q12 -72 33.5 -120t55 -75.5t80 -39t107.5 -11.5q100 0 186 32t156 73l8 -52q-14 -59 -51 -107t-88 -83t-115.5 -53.5t-138.5 -18.5q-229 0 -345 110.5t-144 344.5h-136z" />
<glyph unicode="&#x2122;" horiz-adv-x="2418" d="M68 956l18 324h913v-324h-180l-20 119q-2 20 -7.5 32.5t-17.5 19t-34.5 8.5t-61.5 2h-33v-471l4 -7l117 -43v-141h-440v168h92l6 10v484h-33q-63 0 -86.5 -10.5t-34.5 -51.5l-24 -119h-178zM1100 1139v141h483l115 -596h26l136 596h473v-168h-90l-5 -6l11 -440l4 -7 l106 -43v-141h-438v168h90l6 10l4 463h-32l-197 -616h-215l-178 614h-35l4 -448l2 -7l105 -43v-141h-369v168h88l4 10l10 439l-2 6z" />
<glyph unicode="&#x25fc;" horiz-adv-x="972" d="M0 0v973h973v-973h-973z" />
<glyph unicode="&#xfb01;" horiz-adv-x="1810" d="M72 799v172h991v-348h-199l-22 104q-6 25 -19.5 39t-47.5 22.5t-95.5 10.5t-163.5 2h-51v-264h55q41 0 54.5 10t23.5 35l27 69h153l-41 -366h-133l-20 69q-8 23 -19.5 33t-44.5 10h-55v-170l4 -8l147 -49v-170h-528v203h107l6 8v532l-4 9zM1200 799v172h518v-203h-108 l-6 -8v-533l4 -8l135 -49v-170h-518v203h108l6 8v532l-4 9z" />
<glyph unicode="&#xfb02;" horiz-adv-x="2213" d="M72 799v172h991v-348h-199l-22 104q-6 25 -19.5 39t-47.5 22.5t-95.5 10.5t-163.5 2h-51v-264h55q41 0 54.5 10t23.5 35l27 69h153l-41 -366h-133l-20 69q-8 23 -19.5 33t-44.5 10h-55v-170l4 -8l147 -49v-170h-528v203h107l6 8v532l-4 9zM1202 799v172h506v-203h-104 l-9 -8v-592h33q102 0 159.5 3t85.5 11t36 22.5t14 37.5l31 114h213l-27 -356h-923v203h110l6 8v532l-4 9z" />
<glyph unicode="&#xfb03;" horiz-adv-x="2942" d="M72 799v172h991v-348h-199l-22 104q-6 25 -19.5 39t-47.5 22.5t-95.5 10.5t-163.5 2h-51v-264h55q41 0 54.5 10t23.5 35l27 69h153l-41 -366h-133l-20 69q-8 23 -19.5 33t-44.5 10h-55v-170l4 -8l147 -49v-170h-528v203h107l6 8v532l-4 9zM1202 799v172h991v-348h-196 l-25 104q-6 25 -19.5 39t-47 22.5t-94 10.5t-162.5 2h-54v-264h56q41 0 54 10t24 35l26 69h154l-39 -366h-135l-19 69q-8 23 -19 33t-44 10h-58v-170l4 -8l150 -49v-170h-528v203h106l6 8v532l-4 9zM2333 799v172h518v-203h-109l-8 -8v-533l4 -8l135 -49v-170h-518v203h109 l8 8v532l-4 9z" />
<glyph unicode="&#xfb04;" horiz-adv-x="3346" d="M72 799v172h991v-348h-199l-22 104q-6 25 -19.5 39t-47.5 22.5t-95.5 10.5t-163.5 2h-51v-264h55q41 0 54.5 10t23.5 35l27 69h153l-41 -366h-133l-20 69q-8 23 -19.5 33t-44.5 10h-55v-170l4 -8l147 -49v-170h-528v203h107l6 8v532l-4 9zM1202 799v172h991v-348h-196 l-25 104q-6 25 -19.5 39t-47 22.5t-94 10.5t-162.5 2h-54v-264h56q41 0 54 10t24 35l26 69h154l-39 -366h-135l-19 69q-8 23 -19 33t-44 10h-58v-170l4 -8l150 -49v-170h-528v203h106l6 8v532l-4 9zM2335 799v172h506v-203h-107l-6 -8v-592h33q102 0 158.5 3t85 11 t36.5 22.5t15 37.5l30 114h211l-24 -356h-924v203h109l6 8v532l-4 9z" />
</font>
</defs>
</svg>
