<?xml version="1.0" encoding="utf-8"?>
<!-- Generator: Adobe Illustrator 16.0.0, SVG Export Plug-In . SVG Version: 6.00 Build 0)  -->
<!DOCTYPE svg PUBLIC "-//W3C//DTD SVG 1.1//EN" "http://www.w3.org/Graphics/SVG/1.1/DTD/svg11.dtd">
<svg version="1.1" id="Calque_1" xmlns="http://www.w3.org/2000/svg" xmlns:xlink="http://www.w3.org/1999/xlink" x="0px" y="0px"
	 width="12.513px" height="12.515px" viewBox="0 0 12.513 12.515" enable-background="new 0 0 12.513 12.515" xml:space="preserve">
<g>
	<path fill="#5F5555" d="M12.493,0.029l-0.004,4.839l-1.619-1.62L7.731,6.386L6.064,4.718L9.202,1.58L7.622,0L12.493,0.029
		L12.493,0.029z M11.263,12.515H1.25c-0.691,0-1.25-0.561-1.25-1.25V1.253c0-0.69,0.56-1.251,1.25-1.251h4.38l1.251,1.251
		L1.277,1.278l-0.01,9.995l10.021-0.006l-0.023-5.636l1.201,1.219l0.047,4.416C12.513,11.955,11.952,12.515,11.263,12.515
		L11.263,12.515z"/>
</g>
</svg>
