<?xml version="1.0" encoding="utf-8"?>
<!-- Generator: Adobe Illustrator 16.0.0, SVG Export Plug-In . SVG Version: 6.00 Build 0)  -->
<!DOCTYPE svg PUBLIC "-//W3C//DTD SVG 1.1//EN" "http://www.w3.org/Graphics/SVG/1.1/DTD/svg11.dtd">
<svg version="1.1" id="Calque_1" xmlns="http://www.w3.org/2000/svg" xmlns:xlink="http://www.w3.org/1999/xlink" x="0px" y="0px"
	 width="388.826px" height="708.089px" viewBox="0 0 388.826 708.089" enable-background="new 0 0 388.826 708.089"
	 xml:space="preserve">
<g>
	<g>
		<g>
			<path fill="#342D2D" d="M388.826,693.089c0,8.25-6.75,15-15,15H15c-8.25,0-15-6.75-15-15V15C0,6.75,6.75,0,15,0h358.826
				c8.25,0,15,6.75,15,15V693.089z"/>
		</g>
		<rect x="24.892" y="64.783" fill="#FDFBE9" width="340.09" height="527.97"/>
		<circle fill="#FDFBE9" cx="194.937" cy="653.058" r="26.953"/>
	</g>
	<g>
		<defs>
			<rect id="SVGID_1_" x="22.188" y="60.492" width="346.072" height="537.257"/>
		</defs>
		<clipPath id="SVGID_2_">
			<use xlink:href="#SVGID_1_"  overflow="visible"/>
		</clipPath>
		<polygon clip-path="url(#SVGID_2_)" fill="#9DD1B9" points="373.281,258.33 22.061,258.33 19.719,59.33 370.939,59.33 		"/>
		<linearGradient id="SVGID_3_" gradientUnits="userSpaceOnUse" x1="195.8896" y1="59.0161" x2="195.8896" y2="220.4745">
			<stop  offset="0" style="stop-color:#FFF7F3;stop-opacity:0"/>
			<stop  offset="1" style="stop-color:#FFF7F3"/>
		</linearGradient>
		<polygon clip-path="url(#SVGID_2_)" fill="url(#SVGID_3_)" points="371.933,252.33 22.178,252.33 19.847,68.33 369.603,68.33 		
			"/>
		<circle clip-path="url(#SVGID_2_)" fill="#FAFAEC" cx="316.453" cy="109.722" r="29.168"/>
		<linearGradient id="SVGID_4_" gradientUnits="userSpaceOnUse" x1="206.4146" y1="275.0454" x2="206.4146" y2="126.585">
			<stop  offset="0.0711" style="stop-color:#9799A4"/>
			<stop  offset="1" style="stop-color:#EBE1CE"/>
		</linearGradient>
		<path clip-path="url(#SVGID_2_)" fill="url(#SVGID_4_)" d="M26.839,248.06c0,0,26.504-64.843,46.236-42.718
			c35.097,39.354,48.025,16.238,75.646-10.458c37.479-36.223,50.489,37.585,82.865,35.751c43.758-2.479,43.102-97.159,70.111-98.865
			c42.576-2.689,66.229,112.316,66.229,112.316l25.342,14.427L19.562,256.89L26.839,248.06z"/>
		<linearGradient id="SVGID_5_" gradientUnits="userSpaceOnUse" x1="123.2217" y1="236.667" x2="123.2217" y2="407.3699">
			<stop  offset="0.0033" style="stop-color:#D6E5B1"/>
			<stop  offset="0.9958" style="stop-color:#49B8AB"/>
		</linearGradient>
		<path clip-path="url(#SVGID_2_)" fill="url(#SVGID_5_)" d="M370.722,240.849c-88-0.688-151.084,6.014-203.682,7.211
			c-60.598,1.378-96.318-5.333-147.318-7.82v158.61l-144,1.459v8.021h495V240.849z"/>
		<ellipse opacity="0.8" clip-path="url(#SVGID_2_)" fill="#F2F6E0" cx="152.667" cy="274.623" rx="56.417" ry="13.21"/>
		<path clip-path="url(#SVGID_2_)" fill="#9C4D4D" d="M-135.201,316.61l20.911-8.914l19.343,6.342l13.07-6.342l16.729,8.914
			l17.776-8.914l31.365,13.026l20.653-14.396l17.743,30.202l20.155-11.825l24.019,7.541l15.241-7.2c0,0,17.563,10.284,18.427,12.341
			c0.865,2.057,11.322-10.626,11.322-10.626l19.901,10.853l17.737-11.881l25.093,10.284l13.594-10.627l43.914,8.912l12.547-11.311
			l23.004,9.255l23-9.255l40.777,7.311l12.549-9.025l27.184,8.169l21.957-12.623l38.686-3.981l20.912-7.885l14.639,8.569
			l34.502-13.368c0,0,97.861,91.865,99.953,92.893c2.09,1.03-751.341-12.683-751.341-12.683L-135.201,316.61z"/>
		<path clip-path="url(#SVGID_2_)" fill="#B5706D" d="M-138.062,329.661l20.91-10.095l19.345,7.182l13.069-7.182l16.729,10.095
			l17.775-10.095l31.367,14.755l20.652-16.309l17.744,34.214l17.955-15.774l26.218,10.921l12.678-12.064
			c0,0,20.127,15.558,20.991,17.89c0.865,2.328,14.471-14.457,14.471-14.457l16.752,14.712l19.232-18.145l23.599,16.337
			l13.594-12.038l42.244,13.469l14.217-16.188l24.803,5.857l22.311-9.725l39.666,12.149l13.766-13.866l25.967,12.896l21.959-14.301
			l38.684-4.51l20.914-8.93l14.637,9.707l34.502-15.145c0,0,97.861,104.063,99.955,105.229
			c2.09,1.164-751.341-14.367-751.341-14.367L-138.062,329.661z"/>
		<rect x="-148.278" y="377.33" clip-path="url(#SVGID_2_)" fill="#B5706D" width="730" height="281"/>
		<circle opacity="0.8" clip-path="url(#SVGID_2_)" fill="#9C4D4D" cx="198.215" cy="523.353" r="53.068"/>
		<path clip-path="url(#SVGID_2_)" fill="#873132" d="M241.986,517.488c0,25.438-19.597,46.061-43.771,46.061
			c-24.173,0-43.771-20.623-43.771-46.061c0-0.723,0.017-10.229,0.048-10.943c1.07-24.436,20.236-35.115,43.723-35.115
			c23.239,0,42.25,13.406,43.685,37.48C241.957,509.876,241.986,516.505,241.986,517.488z"/>
		<g clip-path="url(#SVGID_2_)">
			<circle fill="#DA6E63" cx="198.215" cy="505.759" r="43.771"/>
			<circle fill="#E99A78" cx="179.87" cy="483.125" r="3.111"/>
			<g>
				<defs>
					<circle id="SVGID_6_" cx="198.215" cy="505.759" r="43.771"/>
				</defs>
				<clipPath id="SVGID_7_">
					<use xlink:href="#SVGID_6_"  overflow="visible"/>
				</clipPath>
				<g clip-path="url(#SVGID_7_)">
					<radialGradient id="SVGID_8_" cx="183.8433" cy="487.0972" r="51.6582" gradientUnits="userSpaceOnUse">
						<stop  offset="0" style="stop-color:#D97344"/>
						<stop  offset="0.8336" style="stop-color:#D74D3C;stop-opacity:0"/>
					</radialGradient>
					<circle fill="url(#SVGID_8_)" cx="183.844" cy="487.099" r="51.658"/>
				</g>
				<g opacity="0.3" clip-path="url(#SVGID_7_)">
					<radialGradient id="SVGID_9_" cx="179.8521" cy="483.105" r="25.3352" gradientUnits="userSpaceOnUse">
						<stop  offset="0" style="stop-color:#D97344"/>
						<stop  offset="0.8336" style="stop-color:#D74D3C;stop-opacity:0"/>
					</radialGradient>
					<circle fill="url(#SVGID_9_)" cx="179.852" cy="483.105" r="25.334"/>
				</g>
				<g opacity="0.3" clip-path="url(#SVGID_7_)">
					<radialGradient id="SVGID_10_" cx="178.1338" cy="480.9575" r="21.3296" gradientUnits="userSpaceOnUse">
						<stop  offset="0" style="stop-color:#D97344"/>
						<stop  offset="0.8336" style="stop-color:#D74D3C;stop-opacity:0"/>
					</radialGradient>
					<path fill="url(#SVGID_10_)" d="M199.464,480.96c0,11.779-9.548,21.326-21.329,21.326c-11.78,0-21.331-9.547-21.331-21.326
						c0-11.783,9.551-21.332,21.331-21.332C189.916,459.628,199.464,469.177,199.464,480.96z"/>
				</g>
			</g>
		</g>
		<path opacity="0.4" clip-path="url(#SVGID_2_)" fill="#DD918D" d="M56.932,366.528c0,0-8.007-2.048-12.583,7.677
			c-4.576,9.724,0.572,17.16,6.292,12.583C56.36,382.212,71.233,372.58,56.932,366.528z"/>
		<path opacity="0.4" clip-path="url(#SVGID_2_)" fill="#DD918D" d="M65.965,427.703c0,0,11.722-4.848,8.399-21.002
			c-3.32-16.152-16.481-20.552-19.3-9.67C52.246,407.91,42.835,433.419,65.965,427.703z"/>
		<polygon clip-path="url(#SVGID_2_)" fill="#E4908B" points="304.007,425.33 90.388,425.33 89.167,384.33 304.416,384.33 		"/>
		<rect x="97.722" y="390.33" clip-path="url(#SVGID_2_)" fill="#FFFCF6" width="180" height="28"/>
		<g clip-path="url(#SVGID_2_)">
			<text transform="matrix(1 0 0 1 105.833 409.7905)" fill="#CB9995" font-family="'FreightMicroBook'" font-size="13.7278">Most awesome habit. Ever.</text>
		</g>
		<rect x="269.722" y="390.33" clip-path="url(#SVGID_2_)" fill="#B5706D" width="28" height="28"/>
		<polygon clip-path="url(#SVGID_2_)" fill="#E4908B" points="191.351,420.89 204.889,438.837 216.519,419.964 		"/>
		
			<rect x="285.907" y="399.364" transform="matrix(0.7075 0.7067 -0.7067 0.7075 370.0417 -84.4873)" clip-path="url(#SVGID_2_)" fill="#F3F0E1" width="2.366" height="10.881"/>
		
			<rect x="279.755" y="399.364" transform="matrix(-0.7075 0.7067 -0.7067 -0.7075 765.7804 492.6755)" clip-path="url(#SVGID_2_)" fill="#F3F0E1" width="2.366" height="10.881"/>
		<path clip-path="url(#SVGID_2_)" fill="#E1A998" d="M134.343,212.209c0,0,0.437,15.591,0.609,16.508
			c0.174,0.919-1.186,23.601,1.101,24.424c2.285,0.824,4.452-15.14,4.33-21.36c-0.087-4.36,2.242-20.737,2.242-20.737
			L134.343,212.209z"/>
		<path clip-path="url(#SVGID_2_)" fill="#66618A" d="M129.741,209.261c0,0-0.475,9.815,0,10.312c1.586,1.661,15.36,3.533,15.799,0
			c0.438-3.532,0-12.17,0-12.17L129.741,209.261z"/>
		<path clip-path="url(#SVGID_2_)" fill="#763A34" d="M124.296,263.324c0,0-2.586,7.993,0.023,8.922c0,0,6.001,2.281,13.282,0.548
			c0.208-0.049,0.904-0.338,1.167-0.85c0,0,1.855-4.932,0.357-6.871C137.629,263.134,124.296,263.324,124.296,263.324z"/>
		<path clip-path="url(#SVGID_2_)" fill="#C16256" d="M140.763,251.939c0,0-1.223,2.748-1.052,4.815
			c0.251,3.067,0.235,7.818-0.693,9.057c-1.238,1.653-2.883,1.659-4.818,1.902c-1.372,0.173-7.067,0.767-9.478-0.899
			c-0.997-0.688-1.052-1.597-1.193-3.284c0,0-0.479-5.73,2.466-6.94c2.502-1.026,3.43,0.284,4.835-0.168
			c1.527-0.492,1.824-0.973,1.826-3.189C132.658,251.852,140.763,251.939,140.763,251.939z"/>
		<path opacity="0.6" clip-path="url(#SVGID_2_)" fill="#6E493D" d="M132.946,259.194c0,0-0.272-0.321-0.966-0.691
			c0.234-0.131,0.444-0.229,0.604-0.274c0.584-0.165,0.112-0.464,0.112-0.464s-0.182-0.118-0.472-0.295
			c-0.292-0.178-0.857,0.106-0.857,0.106c-0.254,0.131-0.485,0.262-0.696,0.391c-0.234-0.072-0.491-0.143-0.773-0.206
			c0,0-0.618-0.136-0.854,0.107c-0.24,0.243-0.385,0.404-0.385,0.404s-0.384,0.404,0.224,0.421c0.165,0.004,0.395,0.048,0.651,0.116
			c-0.579,0.53-0.764,0.909-0.764,0.909c-0.222,0.377,0.048,0.611,0.048,0.611s0.138,0.095,0.442,0.236
			c0.305,0.145,0.543-0.13,0.855-0.498c0.188-0.257,0.444-0.515,0.724-0.756c0.331,0.165,0.643,0.351,0.89,0.553
			c0.394,0.279,0.691,0.484,0.951,0.272c0.26-0.213,0.371-0.34,0.371-0.34S133.254,259.505,132.946,259.194z"/>
		<path clip-path="url(#SVGID_2_)" fill="#D9DFDF" d="M134.874,241.19c0,0-1.123,0.078-1.638,0.524
			c-0.523,0.462-0.676,1.457-0.676,2.822c0,1.366-0.257,8.299,0.095,8.695c0.76,0.854,4.731,2.617,7.312,1.103
			c0,0,3.745-9.829,1.756-12.308c-0.509-0.634-0.816-0.75-1.916-0.837c0,0-0.193,0.92-0.375,1.388
			c-0.303,0.779-0.798,1.263-1.982,1.167C136.044,243.629,134.53,243.628,134.874,241.19z"/>
		<path opacity="0.5" clip-path="url(#SVGID_2_)" fill="none" stroke="#9F9A9A" stroke-linecap="round" stroke-miterlimit="10" d="
			M134.718,244.086c0,0-0.994,5.517-0.412,8.337"/>
		<path opacity="0.5" clip-path="url(#SVGID_2_)" fill="none" stroke="#9F9A9A" stroke-linecap="round" stroke-miterlimit="10" d="
			M137.055,244.695c0,0-0.993,5.516-0.413,8.336"/>
		<path opacity="0.5" clip-path="url(#SVGID_2_)" fill="none" stroke="#9F9A9A" stroke-linecap="round" stroke-miterlimit="10" d="
			M139.328,244.76c0,0,0.505,4.067-0.725,8.205"/>
		<path clip-path="url(#SVGID_2_)" fill="#E7E6D3" d="M129.856,257.418c0,0-0.619-0.136-0.856,0.108
			c-0.238,0.243-0.384,0.404-0.384,0.404s-0.384,0.404,0.224,0.419c0.608,0.018,2.058,0.524,2.847,1.174
			c0.394,0.279,0.691,0.484,0.952,0.271c0.258-0.214,0.37-0.339,0.37-0.339s0.202-0.294-0.105-0.604
			C132.903,258.853,132.132,257.934,129.856,257.418z"/>
		<path clip-path="url(#SVGID_2_)" fill="#E7E6D3" d="M131.325,257.233c0,0,0.564-0.285,0.855-0.106
			c0.292,0.176,0.472,0.296,0.472,0.296s0.473,0.297-0.111,0.463c-0.587,0.165-1.864,1.015-2.468,1.84
			c-0.312,0.367-0.552,0.642-0.854,0.5c-0.305-0.142-0.444-0.237-0.444-0.237s-0.269-0.234-0.047-0.611
			C128.728,259.377,129.248,258.296,131.325,257.233z"/>
		<path clip-path="url(#SVGID_2_)" fill="none" stroke="#4C2C26" stroke-linecap="round" stroke-miterlimit="10" d="
			M126.008,268.166c0,0-0.276,1.564,0,3.316"/>
		<path clip-path="url(#SVGID_2_)" fill="none" stroke="#4C2C26" stroke-linecap="round" stroke-miterlimit="10" d="
			M128.358,268.651c0,0-0.276,1.624,0,3.44"/>
		<path clip-path="url(#SVGID_2_)" fill="none" stroke="#4C2C26" stroke-linecap="round" stroke-miterlimit="10" d="
			M131.068,269.017c0,0-0.276,1.624,0,3.439"/>
		<path clip-path="url(#SVGID_2_)" fill="none" stroke="#4C2C26" stroke-linecap="round" stroke-miterlimit="10" d="M133.43,269.017
			c0,0-0.276,1.624,0,3.439"/>
		<path clip-path="url(#SVGID_2_)" fill="none" stroke="#4C2C26" stroke-linecap="round" stroke-miterlimit="10" d="
			M136.097,268.853c0,0-0.274,1.435,0,3.036"/>
		<path clip-path="url(#SVGID_2_)" fill="#E1A998" d="M124.902,158.06c0,0-12.62,2.621-17.554,22.707l-5.287,1.015
			c0,0,7.225-26.564,24.577-29.6C141.326,149.612,124.902,158.06,124.902,158.06z"/>
		<path clip-path="url(#SVGID_2_)" fill="#E1A998" d="M120.991,154.023c-1.504,0.834-2.906,1.843-4.212,2.976
			c0.27,1.476,1.107,2.675,2.718,3.713c1.657-1.238,3.307-1.809,4.37-2.25L120.991,154.023z"/>
		<path clip-path="url(#SVGID_2_)" fill="#E1A998" d="M107.349,180.767c0,0,2.972,3.973,2.773,4.765
			c-0.196,0.793-0.254,4.362-1.383,3.898c-1.127-0.462-1.678-4.625-1.678-4.625s-1.365,6.078-0.243,7.863
			c1.124,1.785-6.541,4.691-7.334-2.115c-0.792-6.805,4.212-13.591,4.212-13.591L107.349,180.767z"/>
		<polygon clip-path="url(#SVGID_2_)" fill="#D8877A" points="107.062,184.805 103.34,182.667 106.479,188.445 		"/>
		<path clip-path="url(#SVGID_2_)" fill="#F5DFBB" d="M173.1,158.06c0,0,12.621,2.621,17.555,22.707l5.286,1.015
			c0,0-7.224-26.564-24.575-29.6C156.678,149.612,173.1,158.06,173.1,158.06z"/>
		<path clip-path="url(#SVGID_2_)" fill="#E1A998" d="M177.013,154.023c1.503,0.834,2.905,1.843,4.21,2.976
			c-0.27,1.476-1.107,2.675-2.716,3.713c-1.66-1.238-3.311-1.809-4.371-2.25L177.013,154.023z"/>
		<path clip-path="url(#SVGID_2_)" fill="#E1A998" d="M169.138,212.209c0,0-0.436,15.591-0.609,16.508
			c-0.174,0.919,1.188,23.601-1.098,24.424c-2.286,0.824-4.454-15.14-4.333-21.36c0.087-4.36-2.241-20.737-2.241-20.737
			L169.138,212.209z"/>
		<path clip-path="url(#SVGID_2_)" fill="#66618A" d="M173.739,209.261c0,0,0.477,9.815,0,10.312c-1.586,1.661-15.36,3.533-15.797,0
			c-0.439-3.532,0-12.17,0-12.17L173.739,209.261z"/>
		<path clip-path="url(#SVGID_2_)" fill="#E06047" d="M105.323,136.505c0,0,1.927,5.695-2.811,4.728
			c-9.681-1.979-7.678,8.757-1.537,6.722c3.702-1.226,7.636-3.163,8.423-12.096L105.323,136.505z"/>
		<path clip-path="url(#SVGID_2_)" fill="#A63939" d="M111.612,110.883c0,0-1.963-1.715-3.451,0.542
			c-1.489,2.257-0.96,7.534,0.8,14.526c1.76,6.99,1.698,20.485-8.171,22.003c0,0,6.697-2.679,4.784-9.116
			c-1.534-5.168-12.537-22.884-7.426-31.851c3.312-5.814,12.431-5.209,15.532,1.569L111.612,110.883z"/>
		<path clip-path="url(#SVGID_2_)" fill="#E06047" d="M113.191,107.629c0.005,0.01,0.011,0.021,0.018,0.03l0.415,0.961l-2.012,2.263
			c0,0-1.963-1.715-3.451,0.542c-0.896,1.357-1.057,3.812-0.665,7.068c-0.001-0.012-0.003-0.021-0.005-0.032
			C102.553,102.78,113.064,107.574,113.191,107.629z"/>
		<path clip-path="url(#SVGID_2_)" fill="#E94646" d="M118.671,108.335c0,0-2-2.966-4.921-1.348c0,0-3.488,3.502-1.727,6.717
			c0.959,1.749,3.569,3.084,4.759,1.63S118.671,108.335,118.671,108.335z"/>
		<path clip-path="url(#SVGID_2_)" fill="#528779" d="M174.673,150.445c0,0,5.08,1.075,5.08,2.247s-2.189,7.4-6.282,8.193
			c-4.092,0.792-2.78-10.127-2.78-10.127L174.673,150.445z"/>
		<path clip-path="url(#SVGID_2_)" fill="#528779" d="M125.274,149.995c0,0-4.633,1.525-4.633,2.697s2.189,7.4,6.281,8.193
			c4.094,0.792,2.78-10.127,2.78-10.127L125.274,149.995z"/>
		<path clip-path="url(#SVGID_2_)" fill="#8F3636" d="M131.98,142.364l-1.559,5.59c0,0-3.425,4.389-6.502,1.025
			c-3.078-3.361-3.597-2.492-3.597-2.793c0-0.303,4.615-11.569,4.615-11.569L131.98,142.364z"/>
		<path clip-path="url(#SVGID_2_)" fill="#9FD0AE" d="M172.867,153.236c0,0,1.653,21.084,1.968,24.256
			c0.313,3.171,0.213,18.854,0,21.321c0,0-29.244,5.67-46.908,0.879c0,0,1.082-14.446,0.807-16.913
			c-0.278-2.468-1.221-20.07-1.867-28.546C126.866,154.233,160.72,160.871,172.867,153.236z"/>
		<path clip-path="url(#SVGID_2_)" fill="#528779" d="M148.975,179.071c-4.083-11.544,2.464-15.552,2.464-15.552
			c-11.273-2.807-18.636-5.611-21.867-8.806c-1.71-0.285-2.999-0.48-2.999-0.48c0.647,8.476,1.883,26.078,2.161,28.546
			c0.275,2.467-0.807,16.913-0.807,16.913c0.693,0.189,1.408,0.36,2.136,0.517l34.401-2.101
			C159.033,196.572,152.34,188.575,148.975,179.071z"/>
		<polygon clip-path="url(#SVGID_2_)" fill="#9FD0AE" points="132.773,159.683 146.668,174.361 154.058,162.187 		"/>
		<path clip-path="url(#SVGID_2_)" fill="#528779" d="M149.602,168.407c0,0,7.192-0.771,11.269,5.398
			c2.995,4.531,3.964,9.167,0.145,15.102c-3.819,5.934-14.304,5.76-17.528,2.938c-3.226-2.821-6.335-5.854-5.487-13.683
			C138.849,170.335,147.996,168.501,149.602,168.407z"/>
		<path clip-path="url(#SVGID_2_)" fill="#528779" d="M174.596,152.429c0,0,0.042,1.669,0.111,2.565
			c-3.658,4.423-13.834,10.547-24.959,10.672c-9.067,0.103-19.215-3.766-24.152-10.734c-1.517-1.83-0.454-1.945-0.299-2.503
			C125.297,152.429,162.446,160.065,174.596,152.429z"/>
		<path clip-path="url(#SVGID_2_)" fill="#9FD0AE" d="M171.8,146.392c0,0,4.273-1.968,5.461,0.579
			c1.19,2.55,1.72,7.043-11.363,11.404c-13.085,4.361-35.946,3.568-41.761-8.326c0,0-1.854-4.438,5.278-4.379
			C136.546,145.728,171.8,146.392,171.8,146.392z"/>
		<path clip-path="url(#SVGID_2_)" fill="#528779" d="M124.137,150.244c2.241,4.786,7.018,7.252,12.788,8.951
			c-3.232-0.978-2.995-3.745-2.995-3.745c0-2.793,2.231-3.186,2.231-3.186l-4.522-6.569c-0.898-0.013-1.653-0.015-2.224-0.025
			C122.045,145.527,124.137,150.244,124.137,150.244z"/>
		<path clip-path="url(#SVGID_2_)" fill="#5A9D87" d="M150.773,146.971c0,0,1.521,0.006,1.521,1.294
			c0,1.289-2.809,2.181-2.809,2.181l0.032,0.164C149.519,150.609,149.02,147.662,150.773,146.971z"/>
		<path clip-path="url(#SVGID_2_)" fill="#5A9D87" d="M150.752,147.286c0,0-1.522,0.005-1.522,1.293s2.811,2.18,2.811,2.18
			l0.354-0.71C152.395,150.049,153.187,147.539,150.752,147.286z"/>
		<ellipse clip-path="url(#SVGID_2_)" fill="#E1A998" cx="128.053" cy="138.462" rx="3.426" ry="5.375"/>
		<ellipse clip-path="url(#SVGID_2_)" fill="#E1A998" cx="174.698" cy="138.462" rx="3.426" ry="5.375"/>
		
			<linearGradient id="SVGID_11_" gradientUnits="userSpaceOnUse" x1="-1.5771" y1="151.7417" x2="-0.8722" y2="124.4296" gradientTransform="matrix(-1 0 0 1 149.6689 0)">
			<stop  offset="0.0917" style="stop-color:#FEE4BC"/>
			<stop  offset="1" style="stop-color:#F5DFBB"/>
		</linearGradient>
		<path clip-path="url(#SVGID_2_)" fill="url(#SVGID_11_)" d="M173.927,134.588c0,0,0.133,13.61-2.114,15.857
			c-2.246,2.247-27.718,9.416-43.178,0.164c0,0-1.622-11.66-0.301-16.021c1.322-4.361,24.712-21.542,24.712-21.542
			S174.295,125.624,173.927,134.588z"/>
		<ellipse opacity="0.5" clip-path="url(#SVGID_2_)" fill="#FFFFFF" cx="150.851" cy="140.979" rx="5.643" ry="1.077"/>
		<path clip-path="url(#SVGID_2_)" fill="#E1A998" d="M157.979,153.236c-10.535,0-18.395-7.148-18.395-15.619
			s6.485-13.954,17.018-13.954c4.132,0,9.33-0.04,12.453,1.755c-6.171-6.547-16.01-12.372-16.01-12.372s-23.39,17.181-24.712,21.542
			c-1.321,4.361,0.301,16.021,0.301,16.021c15.46,9.252,40.932,2.083,43.178-0.164c0.527-0.525,0.92-1.68,1.219-3.133
			C169.541,150.916,164.099,153.236,157.979,153.236z"/>
		<path clip-path="url(#SVGID_2_)" fill="#E1A998" d="M147.475,118.119c3.141-2.429,5.66-4.3,6.448-4.883
			c0.686,0.322,1.491,0.705,2.384,1.138c5.371,3.463,19.051,13.005,18.753,20.214c0,0,0.014,1.239-0.032,3.029
			c-12.451-21.713-31.613-10.214-31.613-10.214L147.475,118.119z"/>
		<path clip-path="url(#SVGID_2_)" fill="#E1A998" d="M145.779,118.983c0,0-1.454,14.081-19.867,17.566l1.028-5.573L145.779,118.983
			z"/>
		<path clip-path="url(#SVGID_2_)" fill="#5D413A" d="M162.382,135.344c0,0,0.727-1.021,1.85-0.359
			c1.123,0.659,0.859,4.229,0.397,4.888c-0.464,0.661-1.454,0.926-2.247,0C161.588,138.949,161.853,136.234,162.382,135.344z"/>
		<path clip-path="url(#SVGID_2_)" fill="#5D413A" d="M137.589,135.929c0,0,0.726-1.022,1.849-0.361
			c1.124,0.661,0.86,4.229,0.396,4.89c-0.463,0.661-1.454,0.926-2.245,0C136.795,139.531,137.06,136.818,137.589,135.929z"/>
		<path clip-path="url(#SVGID_2_)" fill="none" stroke="#EE726D" stroke-linecap="round" stroke-miterlimit="10" d="
			M161.364,144.366c0,0-3.276,1.952-8.686,2.408c-7.464,0.632-9.14-0.377-12.154-1.219"/>
		<path clip-path="url(#SVGID_2_)" fill="#EE726D" d="M168.292,141.789c0,0,1.148,0.116,1.757,0c0.609-0.116,0.838-1.331,0-1.564
			c-0.946-0.265-2.23-0.116-2.569,0C167.142,140.339,165.653,141.44,168.292,141.789z"/>
		<path clip-path="url(#SVGID_2_)" fill="#EE726D" d="M133.765,141.789c0,0-1.147,0.116-1.758,0c-0.607-0.116-0.836-1.331,0-1.564
			c0.946-0.265,2.231-0.116,2.568,0C134.915,140.339,136.403,141.44,133.765,141.789z"/>
		<path clip-path="url(#SVGID_2_)" fill="#E1A998" d="M128.635,150.609c0,0-0.198-1.428-0.395-3.404
			c2.581,2.495,8.71,6.031,21.603,6.031c19.845,0,23.192-5.948,23.196-5.95c-0.3,1.466-0.466,2.63-0.993,3.159
			C169.799,152.692,144.095,159.861,128.635,150.609z"/>
		<path clip-path="url(#SVGID_2_)" fill="#528779" d="M127.927,199.177c0,0,0.129-0.37,0.091-1.242
			c-0.091-2.049,13.695,0.508,20.969,0.009c0,0-4.091-0.658,2.751-1.214c3.632-0.295,23.204-0.59,23.179-0.228
			c-0.016,0.215-0.043,1.594-0.2,1.814l-23.046,4.739L127.927,199.177z"/>
		<path clip-path="url(#SVGID_2_)" fill="#9FD0AE" d="M174.877,198.108c0,0,2.912,1.709,2.875,6.661
			c-0.027,3.766-2.639,4.335-3.572,4.703c-1.433,0.57-39.036,4.08-45.549,0.04c0,0-6.053-3.859-0.704-9.82
			C127.927,199.692,149.157,202.117,174.877,198.108z"/>
		<path clip-path="url(#SVGID_2_)" fill="#528779" d="M127.927,199.692c-5.596,6.537,0.704,9.82,0.704,9.82
			c3.513,2.18,16.075,2.161,27.126,1.593c0.05-0.013,0.091-0.023,0.117-0.034c0.934-0.37-3.215-1.775-3.188-5.542
			c0.026-3.76,2.728-4.734,4.312-5.502c-1.411,0.086-2.773-0.455-4.114-0.399C143.318,198.753,135.235,199.681,127.927,199.692z"/>
		<path clip-path="url(#SVGID_2_)" fill="#E06047" d="M160.699,98.021c0,0-8.404-9.697-25.399-6.67
			c-18.913,3.368-28.021,35.455-16.271,52.447l27.398-29.213l3.173-3.172l5.501,8.413L160.699,98.021z"/>
		<path clip-path="url(#SVGID_2_)" fill="#A63939" d="M139.074,96.215c-7.521,0-15.051,4.988-20.112,9.78
			c-7.254,11.341-7.539,26.807,0.066,37.804l27.398-29.213l3.173-3.172l5.501,8.413l3.766-14.66
			C153.808,100.385,148.547,96.215,139.074,96.215z"/>
		<path clip-path="url(#SVGID_2_)" fill="#E06047" d="M160.63,98.297c0,0-3.089-5.68-0.775-6.005c0,0,2.784-0.086,3.774,1.304
			c0.992,1.387-1.453,6.673-1.453,6.673s3.803-4.387,5.285-4.162c1.055,0.158,3.105,2.643,2.314,3.172
			c-0.795,0.527-6.872,4.56-6.872,4.56l-6.41-0.823L160.63,98.297z"/>
		<path clip-path="url(#SVGID_2_)" fill="#A63939" d="M140.009,94.475c-8.869,0-16.727,4.407-21.592,11.188
			c-3.118,5.995-4.858,13.148-4.858,20.111c0.876,6.053,3.706,11.453,7.813,15.527l25.055-26.715l3.173-3.172l5.501,8.413
			l2.072-19.42C152.298,95.161,147.657,94.475,140.009,94.475z"/>
		<path clip-path="url(#SVGID_2_)" fill="#A63939" d="M132.858,114.777c0,0-4.546,5.51-9.516,0.748c0,0,0.92,3.313,5.625,3.696
			C137.085,119.884,132.858,114.777,132.858,114.777z"/>
		<path clip-path="url(#SVGID_2_)" fill="#A63939" d="M131.479,119.828c12.382,2.271-5.592,10.681-5.828,10.979
			c-0.133,0.169-3.349,6.999-6.623,12.991c-6.659-9.965-7.199-23.664-1.655-34.661l1.738-3.438
			C119.111,105.7,119.096,117.557,131.479,119.828z"/>
		<path clip-path="url(#SVGID_2_)" fill="#E06047" d="M156.493,122.405c0,0,2.444-0.911,2.444-2.955c0,0,2.757,2.812,1.964,3.868
			c0,0,12.13-0.076,13.026,12.145c0,0,6.354-6.245,5.825-13.998c-0.528-7.754-7.6-21.328-18.436-19.214
			c-2.12,0.413-4.604,1.121-5.239,2.498c-0.215,0.464-0.569,0.658-0.865,0.762c-1.452,0.504-2.554-0.437-3.187-0.667
			c-3.458-1.26-2.859,1.66-2.859,1.66l3.066,3.103L156.493,122.405z"/>
		<path clip-path="url(#SVGID_2_)" fill="#A63939" d="M155.15,119.645c0,0,1.202-10.073-6.784-12.24
			c-13.479-3.656-22.711,19.104-25.43,25.902l20.54-18.897L155.15,119.645z"/>
		<path clip-path="url(#SVGID_2_)" fill="#A63939" d="M120.468,132.042c0,0-4.107,3.215-4.491,4.664l2.224,4.353L120.468,132.042z"
			/>
		<path clip-path="url(#SVGID_2_)" fill="#A63939" d="M160.575,102.679l-0.25,16.687l0.25,3.126
			c-0.196-1.183-1.702-2.482-1.702-2.482c0,1.911-2.072,2.273-2.349,2.383l-1.312,0.136l0.409-1.528l-0.521-1.172l-0.244-0.377
			c0-1.694,1.991-12.732,2.382-16.871C157.434,100.511,159.411,100.659,160.575,102.679z"/>
		<path clip-path="url(#SVGID_2_)" fill="#E06047" d="M148.938,109.431c0,0-4.536-1.463-6.916-0.273c0,0-2.308,0.625-3.38,2.842
			c-3.829,7.915-5.076,8.712-12.729,15.175c-9.068,7.663-9.242,13.81-6.59,18.131c1.95,2.649,2.4-0.938,2.4-0.938v0.002
			c0-1.64,1.188-3.469,3.634-5.246c0,0,9.886-5.088,16.626-13.171c0,0,8.224-4.901,11.695-3.007
			c0.938,0.513,2.084-0.553,2.084-0.553S155.194,112.075,148.938,109.431z"/>
		<path clip-path="url(#SVGID_2_)" fill="#8F3636" d="M153.536,122.689c0,0-0.381-8.158-5.228-8.6c0,0-1.144,6.202-6.287,11.861
			C142.021,125.951,148.19,122.249,153.536,122.689z"/>
		<circle clip-path="url(#SVGID_2_)" fill="#FFD878" cx="150.59" cy="181.465" r="10.673"/>
		<path clip-path="url(#SVGID_2_)" fill="none" stroke="#A63939" stroke-miterlimit="10" d="M120.764,142.5
			c-1.576-5.26,6.812-10.52,6.812-10.52s4.126-3.052,5.005-5.244"/>
		<path clip-path="url(#SVGID_2_)" fill="none" stroke="#E26247" stroke-miterlimit="10" d="M102.062,105.369
			c0,0-4.387,1.527-3.095,9.095"/>
		<path clip-path="url(#SVGID_2_)" fill="none" stroke="#E26247" stroke-miterlimit="10" d="M100.167,111.806
			c0,0,0.068,0.592,0.457,1.779"/>
		<path clip-path="url(#SVGID_2_)" fill="#F5DFBB" d="M190.654,180.767c0,0-2.974,3.973-2.775,4.765
			c0.199,0.793,0.255,4.362,1.383,3.898c1.128-0.462,1.679-4.625,1.679-4.625s1.366,6.078,0.242,7.863
			c-1.123,1.785,6.541,4.691,7.335-2.115c0.792-6.805-4.212-13.591-4.212-13.591L190.654,180.767z"/>
		<polygon clip-path="url(#SVGID_2_)" fill="#E1A998" points="190.94,184.805 194.661,182.667 191.522,188.445 		"/>
		<path clip-path="url(#SVGID_2_)" fill="#A63939" d="M171.144,127.403c0,0,4.227-9.515-4.764-14.823c0,0-7.766-3.45-5.734,10.457
			c0,0-0.007-2.307,1.931-2.22C164.513,120.906,170.338,117.14,171.144,127.403z"/>
		<path clip-path="url(#SVGID_2_)" fill="#E06047" d="M170.372,127.218c0.658,0.922,0.898-0.118,0.899-0.121
			c0.167-4.32-1.374-11.164-5.534-11.763c0,0-5.181-0.393-5.092,7.449c0,0-0.254,0.852,1.287,0.788
			c1.44-0.059,5.279-2.209,7.55,1.854C169.729,125.112,170.115,126.857,170.372,127.218z"/>
		<path clip-path="url(#SVGID_2_)" fill="#8F3636" d="M161.028,123.451c0,0,1.698-3.844,3.725-3.051
			c2.024,0.793,3.397,2.412,5.856,7.086C170.609,127.486,170.644,126.33,161.028,123.451z"/>
		<path clip-path="url(#SVGID_2_)" fill="#A63939" d="M159.952,110.036c0,0,2.159-4.48,8.897-0.473c0,0-4.736-6.53-9.912-2.611
			C153.705,110.915,159.952,110.036,159.952,110.036z"/>
		<path clip-path="url(#SVGID_2_)" fill="#763A34" d="M179.186,263.324c0,0,2.776,8.158,0.201,9.132c0,0-6.225,2.071-13.507,0.338
			c-0.208-0.049-0.904-0.338-1.167-0.85c0,0-1.856-4.932-0.357-6.871C165.853,263.134,179.186,263.324,179.186,263.324z"/>
		<path clip-path="url(#SVGID_2_)" fill="#C16256" d="M162.717,251.939c0,0,1.224,2.748,1.055,4.815
			c-0.253,3.067-0.236,8.2,0.692,9.438c1.238,1.651,2.884,1.277,4.817,1.521c1.373,0.173,7.067,0.767,9.479-0.899
			c0.996-0.688,1.052-1.597,1.193-3.284c0,0,0.478-5.73-2.468-6.94c-2.501-1.026-3.429,0.284-4.835-0.168
			c-1.526-0.492-1.823-0.973-1.826-3.189C170.824,251.852,162.717,251.939,162.717,251.939z"/>
		<path opacity="0.6" clip-path="url(#SVGID_2_)" fill="#6E493D" d="M170.533,259.194c0,0,0.276-0.321,0.969-0.691
			c-0.232-0.131-0.444-0.229-0.604-0.274c-0.585-0.165-0.112-0.464-0.112-0.464s0.181-0.118,0.471-0.295
			c0.292-0.178,0.855,0.106,0.855,0.106c0.257,0.131,0.488,0.262,0.699,0.391c0.234-0.072,0.491-0.143,0.771-0.206
			c0,0,0.617-0.136,0.856,0.107c0.237,0.243,0.383,0.404,0.383,0.404s0.384,0.404-0.224,0.421c-0.165,0.004-0.395,0.048-0.652,0.116
			c0.579,0.53,0.766,0.909,0.766,0.909c0.221,0.377-0.049,0.611-0.049,0.611s-0.138,0.095-0.442,0.236
			c-0.306,0.145-0.542-0.13-0.854-0.498c-0.19-0.257-0.446-0.515-0.725-0.756c-0.329,0.165-0.642,0.351-0.889,0.553
			c-0.395,0.279-0.692,0.484-0.952,0.272c-0.26-0.213-0.37-0.34-0.37-0.34S170.228,259.505,170.533,259.194z"/>
		<path clip-path="url(#SVGID_2_)" fill="#D9DFDF" d="M168.607,241.19c0,0,1.124,0.078,1.638,0.524
			c0.525,0.462,0.677,1.457,0.677,2.822c0,1.366,0.256,8.299-0.097,8.695c-0.76,0.854-4.729,2.617-7.31,1.103
			c0,0-3.746-9.829-1.757-12.308c0.509-0.634,0.815-0.75,1.916-0.837c0.002,0,0.195,0.92,0.376,1.388
			c0.303,0.779,0.798,1.263,1.981,1.167C167.438,243.629,168.95,243.628,168.607,241.19z"/>
		<path opacity="0.5" clip-path="url(#SVGID_2_)" fill="none" stroke="#9F9A9A" stroke-linecap="round" stroke-miterlimit="10" d="
			M168.764,244.086c0,0,0.993,5.517,0.413,8.337"/>
		<path opacity="0.5" clip-path="url(#SVGID_2_)" fill="none" stroke="#9F9A9A" stroke-linecap="round" stroke-miterlimit="10" d="
			M166.427,244.695c0,0,0.992,5.516,0.411,8.336"/>
		<path opacity="0.5" clip-path="url(#SVGID_2_)" fill="none" stroke="#9F9A9A" stroke-linecap="round" stroke-miterlimit="10" d="
			M164.151,244.76c0,0-0.503,4.067,0.728,8.205"/>
		<path clip-path="url(#SVGID_2_)" fill="#E7E6D3" d="M173.627,257.418c0,0,0.617-0.136,0.854,0.108
			c0.238,0.243,0.384,0.404,0.384,0.404s0.384,0.404-0.224,0.419c-0.608,0.018-2.059,0.524-2.845,1.174
			c-0.396,0.279-0.692,0.484-0.951,0.271c-0.263-0.214-0.373-0.339-0.373-0.339s-0.202-0.294,0.105-0.604
			C170.578,258.853,171.35,257.934,173.627,257.418z"/>
		<path clip-path="url(#SVGID_2_)" fill="#E7E6D3" d="M172.156,257.233c0,0-0.565-0.285-0.857-0.106
			c-0.29,0.176-0.471,0.296-0.471,0.296s-0.473,0.297,0.113,0.463c0.586,0.165,1.865,1.015,2.468,1.84
			c0.311,0.367,0.55,0.642,0.854,0.5s0.442-0.237,0.442-0.237s0.269-0.234,0.048-0.611
			C174.754,259.377,174.234,258.296,172.156,257.233z"/>
		<path clip-path="url(#SVGID_2_)" fill="none" stroke="#4C2C26" stroke-linecap="round" stroke-miterlimit="10" d="
			M177.476,268.166c0,0,0.274,1.564,0,3.316"/>
		<path clip-path="url(#SVGID_2_)" fill="none" stroke="#4C2C26" stroke-linecap="round" stroke-miterlimit="10" d="
			M175.123,268.651c0,0,0.274,1.624,0,3.44"/>
		<path clip-path="url(#SVGID_2_)" fill="none" stroke="#4C2C26" stroke-linecap="round" stroke-miterlimit="10" d="
			M172.414,269.017c0,0,0.275,1.624,0,3.439"/>
		<path clip-path="url(#SVGID_2_)" fill="none" stroke="#4C2C26" stroke-linecap="round" stroke-miterlimit="10" d="
			M170.052,269.017c0,0,0.275,1.624,0,3.439"/>
		<path clip-path="url(#SVGID_2_)" fill="none" stroke="#4C2C26" stroke-linecap="round" stroke-miterlimit="10" d="
			M167.385,268.853c0,0,0.275,1.435,0,3.036"/>
		<g clip-path="url(#SVGID_2_)">
			<g>
				<path fill="#639A83" d="M159.929,176.272c0,0-0.469,0.358-0.401,1.048c0.068,0.692-0.1,8.752,0.401,9.061
					c0.501,0.306,6.59,0.537,6.59-2.214s-2.308-2.701-2.642-2.778c0,0,2.842,0.027,2.642-2.532
					C166.319,176.299,162.871,174.815,159.929,176.272z"/>
				<path fill="#639A83" d="M133.349,185.435c0,0-0.921-6.931-0.384-10.846c0,0,4.645-0.269,5.028,0.115s2.418,3.879,2.418,3.879
					l0.383-4.165c0,0,3.687-0.213,3.687,0.939c0,1.15-0.769,9.902-1.382,10.055c-0.615,0.154-3.659-0.573-3.659-0.573
					s-1.753-4.185-2.176-5.26c-0.116-0.295-0.499,0.033-0.499,0.033s0.651,5.822-0.038,5.822
					C136.035,185.435,135.651,185.435,133.349,185.435z"/>
				<path fill="#E2E2E1" d="M133.349,184.456c0,0-0.921-6.932-0.384-10.846c0,0,4.645-0.269,5.028,0.115s2.418,3.878,2.418,3.878
					l0.383-4.164c0,0,3.687-0.213,3.687,0.938c0,1.15-0.769,9.904-1.382,10.057c-0.615,0.154-3.659-0.574-3.659-0.574
					s-1.753-4.186-2.176-5.26c-0.116-0.295-0.499,0.034-0.499,0.034s0.651,5.821-0.038,5.821
					C136.035,184.456,135.651,184.456,133.349,184.456z"/>
				<path fill="#639A83" d="M149.162,177.604c0,0-2.84-0.616-3.532,1.956c-0.689,2.572,1.46,3.492,2.304,3.531
					c0.846,0.038,3.839-0.883,2.802-3.761C150.735,179.33,150.506,178.14,149.162,177.604z"/>
				<path fill="#FFFFFF" d="M149.162,176.604c0,0-2.84-0.612-3.532,1.959c-0.689,2.57,1.464,3.438,2.304,3.531
					c1.05,0.115,3.839-0.884,2.802-3.763C150.735,178.331,150.506,177.143,149.162,176.604z"/>
				<path fill="#639A83" d="M156.353,177.604c0,0-2.841-0.616-3.531,1.956s1.458,3.492,2.303,3.531
					c0.846,0.038,3.839-0.883,2.802-3.761C157.926,179.33,157.696,178.14,156.353,177.604z"/>
				<path fill="#FFFFFF" d="M156.353,176.604c0,0-2.841-0.612-3.531,1.959c-0.69,2.57,1.464,3.438,2.303,3.531
					c1.051,0.115,3.839-0.884,2.802-3.763C157.926,178.331,157.696,177.143,156.353,176.604z"/>
				<path fill="#639A83" d="M155.143,178.507c0,0,0.818-0.177,1.019,0.564c0.197,0.74-0.422,1.007-0.663,1.017
					c-0.243,0.012-1.104-0.253-0.807-1.083C154.691,179.005,154.758,178.66,155.143,178.507z"/>
				<path fill="#639A83" d="M147.958,178.507c0,0,0.819-0.177,1.017,0.564c0.201,0.74-0.42,1.007-0.661,1.017
					c-0.243,0.012-1.104-0.253-0.807-1.083C147.507,179.005,147.573,178.66,147.958,178.507z"/>
				<path fill="#FFFFFF" d="M159.929,175.198c0,0-0.469,0.357-0.401,1.049c0.068,0.69-0.1,8.751,0.401,9.059
					c0.501,0.307,6.59,0.537,6.59-2.214c0-2.75-2.308-2.7-2.642-2.778c0,0,2.842,0.028,2.642-2.532
					C166.319,175.224,162.871,173.739,159.929,175.198z"/>
				<path fill="#639A83" d="M163.138,176.812c0,0-1.19,0.909-0.794,1.139c0.397,0.228,1.391,0.149,1.442-0.591
					C163.836,176.62,163.138,176.812,163.138,176.812z"/>
				<path fill="#639A83" d="M162.457,182.211c0,0-0.465,1.141,0.278,1.234c0.748,0.094,1.248-0.514,0.872-1.046
					C163.236,181.87,162.457,182.211,162.457,182.211z"/>
			</g>
		</g>
		<path id="XMLID_3_" clip-path="url(#SVGID_2_)" fill="none" stroke="#639A83" stroke-linecap="round" stroke-miterlimit="10" d="
			M155.098,187.845c0,0-2.975-4.493-7.166-0.193"/>
		<path clip-path="url(#SVGID_2_)" fill="#E06047" d="M155.213,107.91c0,0,0.789-2.704,0.865-3.161
			c0.77-4.624-9.669-11.001-17.738-10.274c0,0,11.627-2.041,18.796,4.882C157.136,99.356,157.646,108.147,155.213,107.91z"/>
		<g clip-path="url(#SVGID_2_)">
			<rect x="238.722" y="181.33" fill="#976764" width="3" height="27"/>
			<rect x="264.722" y="181.33" fill="#976764" width="4" height="27"/>
			<path fill="#C3908D" d="M232.535,163.33c0,0-9.713,12.005-2.432,23.214l55.963,0.453l-5.844-23.667H232.535z"/>
			<path fill="#FAFAEC" d="M228.036,157.34c0,0-3.796,13.989,0.304,26.989h50.383v-26.302L228.036,157.34z"/>
			<circle fill="#A63939" cx="289.831" cy="174.275" r="18.11"/>
			<circle fill="#E06047" cx="289.83" cy="170.27" r="17.77"/>
			<g opacity="0.6">
				<g>
					<path fill="#FFFFFF" d="M289.83,186.306c-0.721,0-1.445-0.049-2.158-0.145l0.223-1.659c0.779,0.106,1.58,0.148,2.369,0.124
						l0.045,1.673C290.15,186.302,289.99,186.306,289.83,186.306z M293.798,185.811l-0.412-1.621
						c0.766-0.196,1.518-0.457,2.236-0.773l0.676,1.53C295.494,185.301,294.654,185.593,293.798,185.811z M284.251,185.308
						c-0.824-0.305-1.631-0.685-2.396-1.122l0.832-1.451c0.688,0.394,1.408,0.731,2.146,1.004L284.251,185.308z M299.343,183.179
						l-0.992-1.346c0.635-0.469,1.236-0.993,1.785-1.56l1.201,1.166C300.722,182.07,300.052,182.655,299.343,183.179z
						 M279.009,182.105c-0.648-0.593-1.252-1.245-1.797-1.936l1.316-1.035c0.486,0.62,1.029,1.205,1.611,1.735L279.009,182.105z
						 M303.498,178.66l-1.424-0.879c0.412-0.672,0.773-1.382,1.068-2.112l1.551,0.63C304.361,177.114,303.96,177.908,303.498,178.66
						z M275.353,177.177c-0.379-0.795-0.695-1.628-0.938-2.474l1.607-0.461c0.217,0.756,0.5,1.501,0.84,2.213L275.353,177.177z
						 M305.648,172.904l-1.65-0.271c0.129-0.775,0.193-1.569,0.193-2.363c0-0.571-0.033-1.15-0.102-1.719l1.662-0.198
						c0.076,0.634,0.113,1.28,0.113,1.919C305.865,171.154,305.792,172.04,305.648,172.904z M273.822,171.231
						c-0.018-0.318-0.029-0.639-0.027-0.962c0-0.559,0.027-1.125,0.088-1.681l1.662,0.174c-0.051,0.499-0.076,1.006-0.076,1.507
						c0,0.29,0.008,0.578,0.023,0.861L273.822,171.231z M276.216,165.679l-1.586-0.534c0.283-0.832,0.635-1.649,1.053-2.427
						l1.475,0.789C276.785,164.203,276.466,164.935,276.216,165.679z M303.371,165.479c-0.26-0.742-0.588-1.467-0.969-2.158
						l1.463-0.811c0.428,0.771,0.791,1.582,1.086,2.409L303.371,165.479z M278.943,160.901l-1.268-1.091
						c0.574-0.666,1.207-1.29,1.885-1.855l1.072,1.284C280.025,159.746,279.458,160.305,278.943,160.901z M300.58,160.747
						c-0.523-0.592-1.102-1.143-1.711-1.639l1.053-1.3c0.682,0.554,1.324,1.168,1.908,1.828L300.58,160.747z M283.259,157.496
						l-0.766-1.486c0.783-0.405,1.607-0.746,2.443-1.014l0.51,1.594C284.699,156.829,283.962,157.134,283.259,157.496z
						 M296.212,157.401c-0.707-0.351-1.445-0.646-2.201-0.873l0.486-1.603c0.842,0.256,1.672,0.585,2.459,0.978L296.212,157.401z
						 M288.539,155.967l-0.146-1.667c0.875-0.077,1.773-0.084,2.641-0.021l-0.123,1.669
						C290.132,155.892,289.326,155.897,288.539,155.967z"/>
				</g>
			</g>
			<text transform="matrix(1 0 0 1 283.021 180.1074)" fill="#B73E31" font-family="'FreightMicroBlackSC'" font-size="26.2625">2</text>
			<text transform="matrix(1 0 0 1 283.2651 178.4844)" fill="#EAF2DC" font-family="'FreightMicroBlackSC'" font-size="26.2625">2</text>
			<text transform="matrix(1 0 0 1 236.5386 174.6816)" fill="#CB9995" font-family="'SyntaxLTStd-Bold'" font-size="12.0119">Level</text>
		</g>
		<g clip-path="url(#SVGID_2_)">
			<polygon fill="#AB605A" points="213.722,120.557 213.722,122.271 229.372,136.488 299.903,137.604 301.429,133.966 			"/>
			<polygon fill="#DAA293" points="230.009,105.367 214.208,120.557 230.189,133.057 301.746,133.966 302.46,107.799 			"/>
			<text transform="matrix(1 0 0 1 235.394 124.5605)" fill="#FAFAEA" font-family="'FreightMicroBook'" font-size="17.7318">Naemy</text>
		</g>
		<g clip-path="url(#SVGID_2_)">
			<path fill="#CB9995" d="M228.611,206.134c0,0-5.152,55.96,0.777,71.404l124.219,0.428l-0.213-20.736l-10.537-49.648
				L228.611,206.134z"/>
			<path fill="#FAFAEC" d="M228.783,201.346c0,0-7.687,42.063,0.033,72.157l124.791-0.325l-0.953-71.641L228.783,201.346z"/>
			<path fill="#F2E7DA" d="M228.816,273.486l124.791-0.333l-0.33-24.823H225.376C225.399,258.33,226.91,268.388,228.816,273.486z"/>
			<line opacity="0.3" fill="none" stroke="#CB9995" stroke-miterlimit="10" x1="287.222" y1="248.33" x2="287.222" y2="272.33"/>
			<text transform="matrix(1 0 0 1 236.5386 237.998)"><tspan x="0" y="0" fill="#CB9995" font-family="'SyntaxLTStd-Bold'" font-size="12.0119">10 </tspan><tspan x="16.695" y="0" fill="#E1B2AE" font-family="'SyntaxLTStd-Bold'" font-size="12.0119">xp –</tspan><tspan x="38.727" y="0" fill="#CB9995" font-family="'SyntaxLTStd-Bold'" font-size="12.0119"> </tspan><tspan x="42.064" y="0" fill="#E8C0C0" font-family="'SyntaxLTStd-Bold'" font-size="8.0079">40 left to level up</tspan></text>
			<g>
				<text transform="matrix(1 0 0 1 310.3257 265.2598)" fill="#CB9995" font-family="'SyntaxLTStd-Bold'" font-size="12.0119">100 </text>
				<ellipse fill="#C1B3A8" cx="339.45" cy="266.992" rx="3.407" ry="0.855"/>
				<ellipse fill="#FDD081" cx="339.451" cy="260.919" rx="5.434" ry="5.65"/>
				
					<ellipse opacity="0.5" fill="#F2C768" stroke="#FFF2DA" stroke-miterlimit="10" cx="339.451" cy="260.919" rx="4.174" ry="4.339"/>
			</g>
			<polygon fill="#4985A1" points="278.722,268.526 235.722,267.813 235.722,253.942 278.722,254.658 			"/>
			<polygon fill="#64A7D7" points="278.722,267.455 235.323,266.669 234.712,253.133 278.722,253.942 			"/>
			<text transform="matrix(1 0 0 1 239.3979 263.5039)" fill="#FFFFFF" font-family="'SyntaxLTStd-Bold'" font-size="8.5799">Tweet it !</text>
			<g>
				<rect x="235.722" y="214.33" fill="#F2E7DA" width="103" height="9"/>
				<rect x="235.722" y="211.33" fill="#528779" width="103" height="9"/>
				<linearGradient id="SVGID_12_" gradientUnits="userSpaceOnUse" x1="302.1548" y1="215.8296" x2="318.4937" y2="215.8296">
					<stop  offset="0" style="stop-color:#336D62"/>
					<stop  offset="0.9037" style="stop-color:#3F7867;stop-opacity:0"/>
				</linearGradient>
				<rect x="301.722" y="211.33" opacity="0.7" fill="url(#SVGID_12_)" width="15" height="9"/>
				<rect x="235.722" y="211.33" fill="#9FD0AE" width="66" height="9"/>
				<g opacity="0.5">
					<defs>
						<rect id="SVGID_13_" x="235.722" y="211.33" opacity="0.5" width="66" height="9"/>
					</defs>
					<clipPath id="SVGID_14_">
						<use xlink:href="#SVGID_13_"  overflow="visible"/>
					</clipPath>
					
						<line clip-path="url(#SVGID_14_)" fill="none" stroke="#E8F1D8" stroke-width="2" stroke-miterlimit="10" x1="230.867" y1="211.377" x2="245.355" y2="225.867"/>
					
						<line clip-path="url(#SVGID_14_)" fill="none" stroke="#E8F1D8" stroke-width="2" stroke-miterlimit="10" x1="236.015" y1="211.377" x2="250.505" y2="225.867"/>
					
						<line clip-path="url(#SVGID_14_)" fill="none" stroke="#E8F1D8" stroke-width="2" stroke-miterlimit="10" x1="241.162" y1="211.377" x2="255.652" y2="225.867"/>
					
						<line clip-path="url(#SVGID_14_)" fill="none" stroke="#E8F1D8" stroke-width="2" stroke-miterlimit="10" x1="246.31" y1="211.377" x2="260.8" y2="225.867"/>
					
						<line clip-path="url(#SVGID_14_)" fill="none" stroke="#E8F1D8" stroke-width="2" stroke-miterlimit="10" x1="251.458" y1="211.377" x2="265.949" y2="225.867"/>
					
						<line clip-path="url(#SVGID_14_)" fill="none" stroke="#E8F1D8" stroke-width="2" stroke-miterlimit="10" x1="256.605" y1="211.377" x2="271.095" y2="225.867"/>
					
						<line clip-path="url(#SVGID_14_)" fill="none" stroke="#E8F1D8" stroke-width="2" stroke-miterlimit="10" x1="261.755" y1="211.377" x2="276.244" y2="225.867"/>
					
						<line clip-path="url(#SVGID_14_)" fill="none" stroke="#E8F1D8" stroke-width="2" stroke-miterlimit="10" x1="266.902" y1="211.377" x2="281.392" y2="225.867"/>
					
						<line clip-path="url(#SVGID_14_)" fill="none" stroke="#E8F1D8" stroke-width="2" stroke-miterlimit="10" x1="272.05" y1="211.377" x2="286.541" y2="225.867"/>
					
						<line clip-path="url(#SVGID_14_)" fill="none" stroke="#E8F1D8" stroke-width="2" stroke-miterlimit="10" x1="277.199" y1="211.377" x2="291.687" y2="225.867"/>
					
						<line clip-path="url(#SVGID_14_)" fill="none" stroke="#E8F1D8" stroke-width="2" stroke-miterlimit="10" x1="282.345" y1="211.377" x2="296.835" y2="225.867"/>
					
						<line clip-path="url(#SVGID_14_)" fill="none" stroke="#E8F1D8" stroke-width="2" stroke-miterlimit="10" x1="287.494" y1="211.377" x2="301.984" y2="225.867"/>
					
						<line clip-path="url(#SVGID_14_)" fill="none" stroke="#E8F1D8" stroke-width="2" stroke-miterlimit="10" x1="292.642" y1="211.377" x2="307.132" y2="225.867"/>
					
						<line clip-path="url(#SVGID_14_)" fill="none" stroke="#E8F1D8" stroke-width="2" stroke-miterlimit="10" x1="297.791" y1="211.377" x2="312.281" y2="225.867"/>
				</g>
			</g>
		</g>
		<g clip-path="url(#SVGID_2_)">
			<path fill="#9BA08D" d="M48.287,117.188l-1.385-17.827c0,0,14.04-6.72,28.048,1.001l-1.598,16.526L48.287,117.188z"/>
			<path fill="#E9F2DC" d="M50.891,114.33l-4.217-14.817c0,0,14.043-6.649,28.05,1.075l-3.316,13.743H50.891z"/>
			<circle fill="#A63939" cx="60.421" cy="127.765" r="14.896"/>
			<circle fill="#E06047" cx="60.699" cy="123.083" r="15.215"/>
			<circle fill="none" cx="60.702" cy="120.796" r="16.073"/>
			<text transform="matrix(0.9207 -0.3904 0.3904 0.9207 52.6641 106.7383)"><tspan x="0" y="0" fill="#D74D3C" font-family="'FreightMicroBook'" font-size="8.5799">s</tspan><tspan x="3.58" y="0.016" fill="#D74D3C" font-family="'FreightMicroBook'" font-size="8.5799" rotate="11.291">t</tspan><tspan x="6.269" y="0.434" fill="#D74D3C" font-family="'FreightMicroBook'" font-size="8.5799" rotate="23.708">o</tspan><tspan x="10.172" y="2.187" fill="#D74D3C" font-family="'FreightMicroBook'" font-size="8.5799" rotate="36.72">r</tspan><tspan x="12.687" y="3.977" fill="#D74D3C" font-family="'FreightMicroBook'" font-size="8.5799" rotate="48.903">e</tspan></text>
			<circle fill="#F2C0A2" cx="60.699" cy="123.083" r="13.394"/>
			<circle fill="#E06047" cx="60.699" cy="123.083" r="12.451"/>
			<text transform="matrix(1 0 0 1 55.1699 129.0273)" fill="#E9F2DC" font-family="'FreightMicroBlackSC'" font-size="20.6327">$</text>
		</g>
		<g clip-path="url(#SVGID_2_)">
			<path fill="#9BA08D" d="M47.896,170.585l-1.172-15.103c0,0,11.894-5.695,23.761,0.849l-1.353,14.001L47.896,170.585z"/>
			<path fill="#E9F2DC" d="M50.102,168.33l-3.571-12.638c0,0,11.895-5.59,23.763,0.951l-2.81,11.687H50.102z"/>
			<circle fill="#AF7C3B" cx="58.176" cy="179.896" r="12.621"/>
			<circle fill="#E1B062" cx="58.412" cy="175.579" r="12.891"/>
			<circle fill="none" cx="58.413" cy="173.642" r="13.618"/>
			<text transform="matrix(0.9206 -0.3904 0.3904 0.9206 51.6055 161.7324)"><tspan x="0" y="0" fill="#C49348" font-family="'FreightMicroBook'" font-size="7.269">s</tspan><tspan x="3.053" y="0.013" fill="#C49348" font-family="'FreightMicroBook'" font-size="7.269" rotate="11.38">t</tspan><tspan x="5.33" y="0.401" fill="#C49348" font-family="'FreightMicroBook'" font-size="7.269" rotate="23.029">a</tspan><tspan x="8.299" y="1.687" fill="#C49348" font-family="'FreightMicroBook'" font-size="7.269" rotate="34.586">t</tspan><tspan x="10.252" y="2.965" fill="#C49348" font-family="'FreightMicroBook'" font-size="7.269" rotate="45.802">s</tspan></text>
			<circle fill="#FEE7C6" cx="58.412" cy="175.579" r="11.51"/>
			<circle fill="#E1B062" cx="58.412" cy="175.579" r="10.686"/>
			<circle fill="#E9F2DC" cx="55.932" cy="178.671" r="3.33"/>
			<circle fill="#E9F2DC" cx="61.652" cy="171.809" r="2.316"/>
			<polygon fill="#E9F2DC" points="57.502,176.199 60.722,172.541 60.722,173.911 57.761,177.606 			"/>
		</g>
	</g>
	<linearGradient id="SVGID_15_" gradientUnits="userSpaceOnUse" x1="442.603" y1="319.2183" x2="52.562" y2="349.2213">
		<stop  offset="0" style="stop-color:#FFF4C0"/>
		<stop  offset="1" style="stop-color:#FFFFFF;stop-opacity:0"/>
	</linearGradient>
	<polygon opacity="0.3" fill="url(#SVGID_15_)" points="259.476,60.492 57.809,597.75 368.259,597.75 368.259,60.492 	"/>
</g>
</svg>
