<?xml version="1.0" encoding="utf-8"?>
<!-- Generator: Adobe Illustrator 16.0.0, SVG Export Plug-In . SVG Version: 6.00 Build 0)  -->
<!DOCTYPE svg PUBLIC "-//W3C//DTD SVG 1.1//EN" "http://www.w3.org/Graphics/SVG/1.1/DTD/svg11.dtd">
<svg version="1.1" id="Calque_1" xmlns="http://www.w3.org/2000/svg" xmlns:xlink="http://www.w3.org/1999/xlink" x="0px" y="0px"
	 width="194.73px" height="194.732px" viewBox="0 0 194.73 194.732" enable-background="new 0 0 194.73 194.732"
	 xml:space="preserve">
<g>
	<circle fill="#FAFAEC" cx="97.365" cy="97.366" r="97.365"/>
	<radialGradient id="SVGID_1_" cx="97.3657" cy="97.3657" r="79.6514" gradientUnits="userSpaceOnUse">
		<stop  offset="0" style="stop-color:#BBDAAB"/>
		<stop  offset="1" style="stop-color:#6FC1AA"/>
	</radialGradient>
	<circle fill="url(#SVGID_1_)" cx="97.365" cy="97.366" r="79.652"/>
	<g>
		<path fill="#475C53" d="M128.214,116.396c0,0,8.705-8.705,6.107-16.186c0,0-7.506-3.665-10.547-1.373
			c-3.043,2.289-7.686,4.121-8.188,3.816c-0.045,3.512,0,5.438,0,5.438s-1.572-0.553-2.184-3.453
			c-3.971,3.053-5.039,5.344-5.039,5.344s4.215,7.127,10.201,7.229C124.55,117.31,128.214,116.396,128.214,116.396z"/>
		<path fill="#475C53" d="M117.392,121.001c0,0-2.08-0.789-1.775-3.307c0.307-2.521,2.721-2.467,3.943-3.229
			c1.221-0.766,7.814-1.506,9.57,1.625s0.994,3.664-0.611,4.197C126.917,120.824,117.392,121.001,117.392,121.001z"/>
		<path fill="#475C53" d="M120.582,119.148c0,0-15.271,6.562-14.051,24.58c1.225,18.018,26.018,16.104,31.668,7.604
			C145.099,140.949,136.765,113.953,120.582,119.148z"/>
		<g opacity="0.5">
			<path fill="#475C53" d="M119.976,145.304c-0.42-0.133-0.787-0.273-1.104-0.426l-0.307-3.465h2.225l0.514,1.928
				c0.111,0.043,0.219,0.082,0.32,0.115c0.104,0.035,0.205,0.066,0.303,0.094l0.85-3.549c-0.623-0.152-1.191-0.318-1.707-0.5
				c-0.518-0.178-0.959-0.41-1.32-0.695c-0.365-0.283-0.648-0.635-0.855-1.057c-0.205-0.422-0.309-0.953-0.309-1.588
				c0-0.664,0.125-1.238,0.373-1.725c0.252-0.482,0.594-0.881,1.037-1.191c0.443-0.312,0.98-0.545,1.609-0.697
				s1.324-0.227,2.088-0.227c0.178,0,0.352,0.002,0.518,0.01c0.166,0.006,0.332,0.016,0.496,0.031l0.541-2.055h1.328l-0.582,2.283
				c0.197,0.027,0.387,0.062,0.572,0.104c0.186,0.043,0.389,0.09,0.613,0.145l1.471-0.578v4.338h-2.137l-0.457-1.725
				c-0.207-0.098-0.422-0.172-0.645-0.23l-0.371,1.578c-0.098,0.4-0.184,0.762-0.262,1.082c-0.074,0.316-0.111,0.482-0.111,0.496
				c0.732,0.166,1.373,0.35,1.918,0.551c0.547,0.201,0.998,0.447,1.35,0.748c0.354,0.295,0.617,0.67,0.789,1.119
				c0.174,0.449,0.26,1.008,0.26,1.67c0,1.275-0.43,2.264-1.293,2.971c-0.857,0.707-2.205,1.057-4.035,1.057
				c-0.361,0-0.707-0.021-1.039-0.062l-0.709,2.865h-1.33l0.746-3.049C120.843,145.558,120.394,145.435,119.976,145.304z
				 M124.023,134.406c-0.068-0.006-0.139-0.01-0.207-0.01c-0.914,0-1.551,0.127-1.91,0.385c-0.359,0.256-0.541,0.627-0.541,1.109
				c0,0.236,0.033,0.438,0.094,0.602c0.064,0.168,0.17,0.312,0.322,0.436c0.154,0.127,0.363,0.242,0.635,0.346
				c0.27,0.102,0.619,0.209,1.047,0.318l0.77-3.174C124.162,134.417,124.091,134.414,124.023,134.406z M123.443,143.822
				c0.111,0,0.219,0,0.332,0c0.484,0,0.881-0.045,1.191-0.127c0.312-0.082,0.559-0.197,0.738-0.342
				c0.18-0.146,0.301-0.322,0.363-0.529c0.061-0.209,0.092-0.438,0.092-0.684c0-0.527-0.154-0.928-0.467-1.195
				c-0.309-0.27-0.875-0.516-1.691-0.736l-0.869,3.568C123.228,143.806,123.332,143.822,123.443,143.822z"/>
		</g>
		<g>
			<path fill="#475C53" d="M119.976,144.093c-0.42-0.131-0.787-0.271-1.104-0.426l-0.307-3.465h2.225l0.514,1.93
				c0.111,0.043,0.219,0.08,0.32,0.115c0.104,0.033,0.205,0.064,0.303,0.094l0.85-3.551c-0.623-0.152-1.191-0.318-1.707-0.498
				c-0.518-0.18-0.959-0.41-1.32-0.695c-0.365-0.283-0.648-0.637-0.855-1.059c-0.205-0.422-0.309-0.951-0.309-1.586
				c0-0.664,0.125-1.238,0.373-1.725c0.252-0.482,0.594-0.881,1.037-1.193s0.98-0.543,1.609-0.697
				c0.629-0.148,1.324-0.227,2.088-0.227c0.178,0,0.352,0.004,0.518,0.01c0.166,0.008,0.332,0.018,0.496,0.033l0.541-2.057h1.328
				l-0.582,2.283c0.197,0.029,0.387,0.064,0.572,0.104c0.186,0.043,0.389,0.09,0.613,0.146l1.471-0.58v4.336h-2.137l-0.457-1.723
				c-0.207-0.096-0.422-0.172-0.645-0.229l-0.371,1.578c-0.098,0.4-0.184,0.762-0.262,1.08c-0.074,0.318-0.111,0.484-0.111,0.496
				c0.732,0.166,1.373,0.35,1.918,0.551c0.547,0.201,0.998,0.449,1.35,0.748c0.354,0.295,0.617,0.672,0.789,1.121
				c0.174,0.449,0.26,1.006,0.26,1.67c0,1.271-0.43,2.264-1.293,2.969c-0.857,0.707-2.205,1.057-4.035,1.057
				c-0.361,0-0.707-0.02-1.039-0.061l-0.709,2.863h-1.33l0.746-3.051C120.843,144.347,120.394,144.226,119.976,144.093z
				 M124.023,133.197c-0.068-0.008-0.139-0.01-0.207-0.01c-0.914,0-1.551,0.127-1.91,0.385c-0.359,0.254-0.541,0.625-0.541,1.107
				c0,0.236,0.033,0.439,0.094,0.604c0.064,0.168,0.17,0.311,0.322,0.436c0.154,0.125,0.363,0.24,0.635,0.344
				c0.27,0.104,0.619,0.209,1.047,0.32l0.77-3.176C124.162,133.207,124.091,133.205,124.023,133.197z M123.443,142.611
				c0.111,0,0.219,0,0.332,0c0.484,0,0.881-0.043,1.191-0.125c0.312-0.084,0.559-0.197,0.738-0.342s0.301-0.322,0.363-0.529
				c0.061-0.209,0.092-0.438,0.092-0.686c0-0.525-0.154-0.926-0.467-1.195c-0.309-0.268-0.875-0.514-1.691-0.734l-0.869,3.568
				C123.228,142.597,123.332,142.611,123.443,142.611z"/>
		</g>
		<path fill="#475C53" d="M126.378,151.476c-9.002,0-16.301-7.531-16.301-16.822c0-4.045,1.385-7.752,3.688-10.654
			c-3.891,3.842-7.881,10.174-7.234,19.729c1.225,18.018,26.018,16.104,31.668,7.604c1.477-2.223,2.25-5.209,2.404-8.475
			C137.814,147.998,132.492,151.476,126.378,151.476z"/>
	</g>
	<g>
		<path fill="#475C53" d="M117.958,82.902c0,0,8.705-8.704,6.107-16.185c0,0-7.506-3.665-10.547-1.374
			c-3.043,2.29-7.686,4.121-8.188,3.816c-0.047,3.513,0,5.438,0,5.438s-1.574-0.553-2.184-3.453
			c-3.971,3.053-5.041,5.344-5.041,5.344s4.215,7.126,10.201,7.229C114.292,83.817,117.958,82.902,117.958,82.902z"/>
		<path fill="#475C53" d="M107.134,87.509c0,0-2.08-0.789-1.773-3.308c0.307-2.521,2.721-2.466,3.941-3.229
			c1.223-0.765,7.816-1.506,9.57,1.625c1.758,3.131,0.996,3.664-0.609,4.198C116.662,87.33,107.134,87.509,107.134,87.509z"/>
		<path fill="#475C53" d="M110.324,85.655c0,0-15.27,6.562-14.05,24.579c1.226,18.018,26.019,16.105,31.669,7.604
			C134.841,107.457,126.507,80.459,110.324,85.655z"/>
		<g opacity="0.5">
			<path fill="#475C53" d="M109.718,111.812c-0.418-0.133-0.785-0.275-1.102-0.428l-0.309-3.465h2.225l0.514,1.93
				c0.113,0.041,0.219,0.082,0.322,0.115c0.104,0.035,0.205,0.064,0.303,0.094l0.85-3.549c-0.623-0.154-1.191-0.32-1.709-0.5
				c-0.516-0.178-0.957-0.41-1.32-0.695c-0.363-0.283-0.648-0.637-0.855-1.059c-0.203-0.42-0.307-0.951-0.307-1.588
				c0-0.664,0.123-1.236,0.371-1.723c0.252-0.482,0.596-0.881,1.039-1.193s0.979-0.543,1.607-0.695
				c0.631-0.152,1.326-0.227,2.088-0.227c0.178,0,0.354,0,0.518,0.01c0.168,0.006,0.332,0.016,0.498,0.031l0.541-2.056h1.326
				l-0.58,2.283c0.197,0.027,0.387,0.064,0.572,0.105s0.389,0.088,0.611,0.145l1.473-0.58v4.338h-2.139l-0.455-1.725
				c-0.207-0.096-0.422-0.172-0.645-0.229l-0.373,1.578c-0.096,0.4-0.182,0.762-0.26,1.08c-0.076,0.318-0.113,0.482-0.113,0.498
				c0.734,0.164,1.373,0.35,1.92,0.549c0.545,0.203,0.996,0.449,1.35,0.748c0.352,0.297,0.617,0.67,0.787,1.121
				c0.174,0.449,0.26,1.006,0.26,1.67c0,1.273-0.43,2.264-1.291,2.969c-0.857,0.707-2.205,1.057-4.037,1.057
				c-0.359,0-0.707-0.02-1.039-0.061l-0.707,2.865h-1.332l0.748-3.051C110.587,112.064,110.138,111.941,109.718,111.812z
				 M113.767,100.914c-0.07-0.006-0.139-0.01-0.209-0.01c-0.912,0-1.549,0.127-1.908,0.385c-0.359,0.254-0.541,0.627-0.541,1.107
				c0,0.238,0.033,0.439,0.094,0.604c0.062,0.166,0.17,0.311,0.322,0.436c0.154,0.125,0.363,0.242,0.635,0.344
				c0.268,0.102,0.617,0.211,1.045,0.32l0.77-3.176C113.904,100.923,113.835,100.921,113.767,100.914z M113.185,110.328
				c0.111,0,0.221,0,0.332,0c0.484,0,0.883-0.043,1.191-0.125c0.314-0.084,0.561-0.197,0.738-0.342
				c0.18-0.146,0.301-0.322,0.365-0.531c0.061-0.207,0.092-0.436,0.092-0.684c0-0.527-0.156-0.926-0.467-1.193
				c-0.311-0.271-0.875-0.518-1.693-0.738l-0.869,3.57C112.972,110.314,113.074,110.328,113.185,110.328z"/>
		</g>
		<g>
			<path fill="#475C53" d="M109.718,110.599c-0.418-0.129-0.785-0.271-1.102-0.426l-0.309-3.463h2.225l0.514,1.93
				c0.113,0.043,0.219,0.08,0.322,0.113s0.205,0.066,0.303,0.096l0.85-3.551c-0.623-0.152-1.191-0.32-1.709-0.498
				c-0.516-0.182-0.957-0.41-1.32-0.697c-0.363-0.283-0.648-0.635-0.855-1.059c-0.203-0.422-0.307-0.951-0.307-1.586
				c0-0.664,0.123-1.238,0.371-1.725c0.252-0.482,0.596-0.881,1.039-1.193c0.443-0.312,0.979-0.542,1.607-0.696
				c0.631-0.149,1.326-0.227,2.088-0.227c0.178,0,0.354,0.004,0.518,0.01c0.168,0.007,0.332,0.018,0.498,0.032l0.541-2.056h1.326
				l-0.58,2.283c0.197,0.028,0.387,0.063,0.572,0.104c0.186,0.042,0.389,0.09,0.611,0.146l1.473-0.581v4.337h-2.139l-0.455-1.723
				c-0.207-0.098-0.422-0.174-0.645-0.229l-0.373,1.578c-0.096,0.398-0.182,0.762-0.26,1.08c-0.076,0.316-0.113,0.484-0.113,0.496
				c0.734,0.166,1.373,0.35,1.92,0.551c0.545,0.201,0.996,0.447,1.35,0.748c0.352,0.295,0.617,0.67,0.787,1.119
				c0.174,0.449,0.26,1.006,0.26,1.67c0,1.273-0.43,2.264-1.291,2.971c-0.857,0.705-2.205,1.057-4.037,1.057
				c-0.359,0-0.707-0.021-1.039-0.062l-0.707,2.865h-1.332l0.748-3.051C110.587,110.853,110.138,110.732,109.718,110.599z
				 M113.767,99.703c-0.07-0.006-0.139-0.008-0.209-0.008c-0.912,0-1.549,0.125-1.908,0.383c-0.359,0.254-0.541,0.627-0.541,1.109
				c0,0.236,0.033,0.438,0.094,0.604c0.062,0.166,0.17,0.311,0.322,0.434c0.154,0.127,0.363,0.24,0.635,0.344
				c0.268,0.104,0.617,0.209,1.045,0.32l0.77-3.174C113.904,99.714,113.835,99.71,113.767,99.703z M113.185,109.117
				c0.111,0,0.221,0,0.332,0c0.484,0,0.883-0.043,1.191-0.125c0.314-0.082,0.561-0.195,0.738-0.342
				c0.18-0.145,0.301-0.322,0.365-0.529c0.061-0.207,0.092-0.438,0.092-0.686c0-0.525-0.156-0.924-0.467-1.193
				s-0.875-0.514-1.693-0.736l-0.869,3.568C112.972,109.103,113.074,109.117,113.185,109.117z"/>
		</g>
		<path fill="#475C53" d="M116.123,117.984c-9.004,0-16.301-7.533-16.301-16.824c0-4.043,1.383-7.751,3.688-10.653
			c-3.893,3.841-7.882,10.174-7.236,19.727c1.226,18.018,26.019,16.105,31.669,7.604c1.477-2.223,2.25-5.207,2.404-8.473
			C127.556,114.503,122.236,117.984,116.123,117.984z"/>
	</g>
	<g>
		<path fill="#475C53" d="M64.688,107.916c0,0,8.705-8.705,6.107-16.185c0,0-7.506-3.665-10.547-1.374
			c-3.043,2.29-7.686,4.121-8.188,3.816c-0.046,3.513-2.184,1.985-2.184,1.985s0.61,2.9,0,0c-3.971,3.052-5.04,5.343-5.04,5.343
			s4.215,7.127,10.201,7.229C61.023,108.83,64.688,107.916,64.688,107.916z"/>
		<path fill="#475C53" d="M53.865,112.521c0,0-2.08-0.789-1.774-3.307c0.307-2.521,2.721-2.467,3.942-3.229
			c1.222-0.766,7.815-1.506,9.57,1.625c1.757,3.131,0.995,3.664-0.61,4.197C63.392,112.343,53.865,112.521,53.865,112.521z"/>
		<path fill="#475C53" d="M57.055,110.667c0,0-15.271,6.562-14.051,24.58c1.226,18.018,26.019,16.104,31.669,7.604
			C81.572,132.468,73.238,105.472,57.055,110.667z"/>
		<g opacity="0.5">
			<path fill="#475C53" d="M56.449,136.824c-0.419-0.133-0.786-0.273-1.103-0.426l-0.308-3.465h2.225l0.514,1.928
				c0.112,0.043,0.219,0.082,0.321,0.115c0.104,0.035,0.205,0.066,0.303,0.094l0.85-3.549c-0.623-0.152-1.191-0.318-1.708-0.5
				c-0.517-0.178-0.958-0.41-1.32-0.695c-0.364-0.283-0.648-0.635-0.855-1.057c-0.204-0.422-0.308-0.953-0.308-1.588
				c0-0.664,0.124-1.238,0.372-1.725c0.252-0.482,0.595-0.881,1.038-1.191c0.443-0.312,0.979-0.545,1.608-0.697
				c0.63-0.152,1.325-0.227,2.088-0.227c0.178,0,0.353,0.002,0.518,0.01c0.167,0.006,0.332,0.016,0.497,0.031l0.541-2.055h1.327
				l-0.581,2.283c0.197,0.027,0.387,0.062,0.572,0.104c0.186,0.043,0.389,0.09,0.612,0.145l1.472-0.578v4.338h-2.138l-0.456-1.725
				c-0.207-0.098-0.422-0.172-0.645-0.23l-0.372,1.578c-0.097,0.4-0.183,0.762-0.261,1.082c-0.075,0.316-0.112,0.482-0.112,0.496
				c0.733,0.166,1.373,0.35,1.919,0.551s0.997,0.447,1.35,0.748c0.353,0.295,0.617,0.67,0.788,1.119
				c0.174,0.449,0.26,1.008,0.26,1.67c0,1.275-0.43,2.264-1.292,2.971c-0.857,0.707-2.205,1.057-4.036,1.057
				c-0.36,0-0.707-0.021-1.039-0.062l-0.708,2.865h-1.331l0.747-3.049C57.317,137.078,56.868,136.955,56.449,136.824z
				 M60.497,125.925c-0.069-0.006-0.139-0.01-0.208-0.01c-0.913,0-1.55,0.127-1.909,0.385c-0.359,0.256-0.541,0.627-0.541,1.109
				c0,0.236,0.033,0.438,0.094,0.602c0.063,0.168,0.17,0.312,0.322,0.436c0.154,0.127,0.363,0.242,0.635,0.346
				c0.269,0.102,0.618,0.209,1.046,0.318l0.77-3.174C60.635,125.937,60.565,125.933,60.497,125.925z M59.916,135.341
				c0.111,0,0.22,0,0.332,0c0.484,0,0.882-0.045,1.191-0.127c0.313-0.082,0.56-0.197,0.738-0.342
				c0.18-0.146,0.301-0.322,0.364-0.529c0.061-0.209,0.092-0.438,0.092-0.684c0-0.527-0.155-0.928-0.467-1.195
				c-0.31-0.27-0.875-0.516-1.692-0.736l-0.869,3.568C59.702,135.326,59.805,135.341,59.916,135.341z"/>
		</g>
		<g>
			<path fill="#475C53" d="M56.449,135.613c-0.419-0.131-0.786-0.271-1.103-0.426l-0.308-3.465h2.225l0.514,1.93
				c0.112,0.043,0.219,0.08,0.321,0.115c0.104,0.033,0.205,0.064,0.303,0.094l0.85-3.551c-0.623-0.152-1.191-0.318-1.708-0.498
				s-0.958-0.41-1.32-0.695c-0.364-0.283-0.648-0.637-0.855-1.059c-0.204-0.422-0.308-0.951-0.308-1.586
				c0-0.664,0.124-1.238,0.372-1.725c0.252-0.482,0.595-0.881,1.038-1.193s0.979-0.543,1.608-0.697
				c0.63-0.148,1.325-0.227,2.088-0.227c0.178,0,0.353,0.004,0.518,0.01c0.167,0.008,0.332,0.018,0.497,0.033l0.541-2.057h1.327
				l-0.581,2.283c0.197,0.029,0.387,0.064,0.572,0.104c0.186,0.043,0.389,0.09,0.612,0.146l1.472-0.58v4.336h-2.138l-0.456-1.723
				c-0.207-0.096-0.422-0.172-0.645-0.229l-0.372,1.578c-0.097,0.4-0.183,0.762-0.261,1.08c-0.075,0.318-0.112,0.484-0.112,0.496
				c0.733,0.166,1.373,0.35,1.919,0.551s0.997,0.449,1.35,0.748c0.353,0.295,0.617,0.672,0.788,1.121
				c0.174,0.449,0.26,1.006,0.26,1.67c0,1.271-0.43,2.264-1.292,2.969c-0.857,0.707-2.205,1.057-4.036,1.057
				c-0.36,0-0.707-0.02-1.039-0.061l-0.708,2.863h-1.331l0.747-3.051C57.317,135.867,56.868,135.746,56.449,135.613z
				 M60.497,124.716c-0.069-0.008-0.139-0.01-0.208-0.01c-0.913,0-1.55,0.127-1.909,0.385c-0.359,0.254-0.541,0.625-0.541,1.107
				c0,0.236,0.033,0.439,0.094,0.604c0.063,0.168,0.17,0.311,0.322,0.436c0.154,0.125,0.363,0.24,0.635,0.344
				c0.269,0.104,0.618,0.209,1.046,0.32l0.77-3.176C60.635,124.726,60.565,124.724,60.497,124.716z M59.916,134.13
				c0.111,0,0.22,0,0.332,0c0.484,0,0.882-0.043,1.191-0.125c0.313-0.084,0.56-0.197,0.738-0.342
				c0.18-0.145,0.301-0.322,0.364-0.529c0.061-0.209,0.092-0.438,0.092-0.686c0-0.525-0.155-0.926-0.467-1.195
				c-0.31-0.268-0.875-0.514-1.692-0.734l-0.869,3.568C59.702,134.117,59.805,134.13,59.916,134.13z"/>
		</g>
		<path fill="#475C53" d="M62.853,142.996c-9.003,0-16.301-7.531-16.301-16.822c0-4.045,1.384-7.752,3.688-10.654
			c-3.892,3.842-7.882,10.174-7.235,19.729c1.226,18.018,26.019,16.104,31.669,7.604c1.477-2.223,2.25-5.209,2.404-8.475
			C74.287,139.517,68.966,142.996,62.853,142.996z"/>
	</g>
	<g>
		<path fill="#475C53" d="M81.714,79.96c0,0,8.705-8.704,6.107-16.185c0,0-7.506-3.665-10.547-1.374
			c-3.043,2.29-7.686,4.121-8.188,3.816c-0.046,3.513,0,5.438,0,5.438s-1.573-0.553-2.184-3.453c-3.971,3.053-5.04,5.344-5.04,5.344
			s4.215,7.126,10.201,7.229C78.049,80.875,81.714,79.96,81.714,79.96z"/>
		<path fill="#475C53" d="M70.891,84.566c0,0-2.08-0.789-1.774-3.308c0.307-2.521,2.721-2.466,3.942-3.229
			c1.222-0.765,7.815-1.506,9.57,1.625c1.757,3.131,0.995,3.664-0.61,4.198C80.417,84.388,70.891,84.566,70.891,84.566z"/>
		<path fill="#475C53" d="M74.08,82.713c0,0-15.271,6.562-14.051,24.58c1.226,18.018,26.019,16.104,31.669,7.604
			C98.597,104.513,90.264,77.517,74.08,82.713z"/>
		<g opacity="0.5">
			<path fill="#475C53" d="M73.475,108.869c-0.419-0.133-0.786-0.273-1.103-0.426l-0.308-3.465h2.225l0.514,1.928
				c0.112,0.043,0.219,0.082,0.321,0.115c0.104,0.035,0.205,0.066,0.303,0.094l0.85-3.549c-0.623-0.152-1.191-0.318-1.708-0.5
				c-0.517-0.178-0.958-0.41-1.32-0.695c-0.364-0.283-0.648-0.635-0.855-1.057c-0.204-0.422-0.308-0.953-0.308-1.588
				c0-0.664,0.124-1.238,0.372-1.724c0.252-0.482,0.595-0.881,1.038-1.192c0.443-0.312,0.979-0.544,1.608-0.696
				c0.63-0.152,1.325-0.227,2.088-0.227c0.178,0,0.353,0.001,0.518,0.01c0.167,0.006,0.332,0.016,0.497,0.031l0.541-2.056h1.327
				l-0.581,2.283c0.197,0.027,0.387,0.063,0.572,0.104c0.186,0.042,0.389,0.089,0.612,0.145l1.472-0.579v4.338h-2.138l-0.456-1.725
				c-0.207-0.097-0.422-0.172-0.645-0.229l-0.372,1.578c-0.097,0.4-0.183,0.762-0.261,1.082c-0.075,0.316-0.112,0.482-0.112,0.496
				c0.733,0.166,1.373,0.35,1.919,0.551s0.997,0.447,1.35,0.748c0.353,0.295,0.617,0.67,0.788,1.119
				c0.174,0.449,0.26,1.008,0.26,1.67c0,1.275-0.43,2.264-1.292,2.971c-0.857,0.707-2.205,1.057-4.036,1.057
				c-0.36,0-0.707-0.021-1.039-0.062l-0.708,2.865h-1.331l0.747-3.049C74.343,109.123,73.894,109,73.475,108.869z M77.522,97.971
				c-0.069-0.006-0.139-0.01-0.208-0.01c-0.913,0-1.55,0.127-1.909,0.385c-0.359,0.255-0.541,0.626-0.541,1.109
				c0,0.236,0.033,0.438,0.094,0.602c0.063,0.168,0.17,0.312,0.322,0.436c0.154,0.127,0.363,0.242,0.635,0.346
				c0.269,0.102,0.618,0.209,1.046,0.318l0.77-3.174C77.66,97.981,77.591,97.979,77.522,97.971z M76.941,107.386
				c0.111,0,0.22,0,0.332,0c0.484,0,0.882-0.045,1.191-0.127c0.313-0.082,0.56-0.197,0.738-0.342
				c0.18-0.146,0.301-0.322,0.364-0.529c0.061-0.209,0.092-0.438,0.092-0.684c0-0.527-0.155-0.928-0.467-1.195
				c-0.31-0.27-0.875-0.516-1.692-0.736l-0.869,3.568C76.728,107.371,76.83,107.386,76.941,107.386z"/>
		</g>
		<g>
			<path fill="#475C53" d="M73.475,107.658c-0.419-0.131-0.786-0.271-1.103-0.426l-0.308-3.465h2.225l0.514,1.93
				c0.112,0.043,0.219,0.08,0.321,0.115c0.104,0.033,0.205,0.064,0.303,0.094l0.85-3.551c-0.623-0.152-1.191-0.318-1.708-0.498
				s-0.958-0.41-1.32-0.695c-0.364-0.283-0.648-0.637-0.855-1.059c-0.204-0.422-0.308-0.951-0.308-1.586
				c0-0.664,0.124-1.238,0.372-1.725c0.252-0.482,0.595-0.881,1.038-1.193c0.443-0.312,0.979-0.542,1.608-0.696
				c0.63-0.149,1.325-0.227,2.088-0.227c0.178,0,0.353,0.004,0.518,0.01c0.167,0.007,0.332,0.018,0.497,0.032l0.541-2.056h1.327
				l-0.581,2.283c0.197,0.028,0.387,0.063,0.572,0.104c0.186,0.042,0.389,0.09,0.612,0.146l1.472-0.581v4.336h-2.138l-0.456-1.722
				c-0.207-0.097-0.422-0.173-0.645-0.229l-0.372,1.578c-0.097,0.4-0.183,0.762-0.261,1.08c-0.075,0.318-0.112,0.484-0.112,0.496
				c0.733,0.166,1.373,0.35,1.919,0.551s0.997,0.449,1.35,0.748c0.353,0.295,0.617,0.672,0.788,1.121
				c0.174,0.449,0.26,1.006,0.26,1.67c0,1.271-0.43,2.264-1.292,2.969c-0.857,0.707-2.205,1.057-4.036,1.057
				c-0.36,0-0.707-0.02-1.039-0.061l-0.708,2.863h-1.331l0.747-3.051C74.343,107.912,73.894,107.791,73.475,107.658z M77.522,96.761
				c-0.069-0.007-0.139-0.009-0.208-0.009c-0.913,0-1.55,0.126-1.909,0.384c-0.359,0.254-0.541,0.626-0.541,1.108
				c0,0.236,0.033,0.439,0.094,0.603c0.063,0.168,0.17,0.311,0.322,0.436c0.154,0.125,0.363,0.24,0.635,0.344
				c0.269,0.104,0.618,0.209,1.046,0.32l0.77-3.175C77.66,96.771,77.591,96.769,77.522,96.761z M76.941,106.175
				c0.111,0,0.22,0,0.332,0c0.484,0,0.882-0.043,1.191-0.125c0.313-0.084,0.56-0.197,0.738-0.342
				c0.18-0.145,0.301-0.322,0.364-0.529c0.061-0.209,0.092-0.438,0.092-0.686c0-0.525-0.155-0.926-0.467-1.195
				c-0.31-0.268-0.875-0.514-1.692-0.734l-0.869,3.568C76.728,106.162,76.83,106.175,76.941,106.175z"/>
		</g>
		<path fill="#475C53" d="M79.878,115.041c-9.003,0-16.301-7.531-16.301-16.823c0-4.044,1.384-7.752,3.688-10.653
			c-3.892,3.841-7.882,10.174-7.235,19.728c1.226,18.018,26.019,16.104,31.669,7.604c1.477-2.223,2.25-5.209,2.404-8.475
			C91.312,111.562,85.991,115.041,79.878,115.041z"/>
	</g>
	<g>
		<path fill="#475C53" d="M79.797,79.747c0,0,9.21-8.168,7.064-15.79c0,0-7.272-4.107-10.445-2.003
			c-3.175,2.104-7.918,3.654-8.401,3.319c-0.256,3.504-0.325,5.429-0.325,5.429s-1.537-0.646-1.974-3.577
			c-4.146,2.81-5.351,5.032-5.351,5.032s3.781,7.365,9.75,7.826C76.083,80.441,79.797,79.747,79.797,79.747z"/>
		<path fill="#475C53" d="M68.717,83.697c0,0-2.029-0.912-1.573-3.408c0.457-2.498,2.863-2.298,4.129-2.986
			c1.265-0.69,7.892-1.035,9.456,2.195c1.566,3.23,0.773,3.717-0.861,4.153C78.237,84.089,68.717,83.697,68.717,83.697z"/>
		<path fill="#475C53" d="M72.012,82.038c0,0-15.636,5.637-15.496,23.694c0.145,18.059,25.008,17.633,31.156,9.486
			C95.181,105.267,88.478,77.819,72.012,82.038z"/>
		<g opacity="0.5">
			<path fill="#475C53" d="M69.842,108.111c-0.41-0.158-0.769-0.32-1.075-0.492l-0.1-3.477l2.221,0.133l0.397,1.957
				c0.109,0.049,0.214,0.094,0.313,0.133c0.102,0.043,0.201,0.078,0.297,0.113l1.061-3.492c-0.612-0.191-1.17-0.391-1.675-0.602
				c-0.505-0.209-0.932-0.467-1.276-0.773c-0.347-0.305-0.609-0.674-0.791-1.107c-0.179-0.432-0.25-0.969-0.212-1.602
				c0.04-0.664,0.198-1.229,0.475-1.699c0.28-0.467,0.646-0.844,1.107-1.129s1.011-0.484,1.647-0.599
				c0.638-0.114,1.336-0.146,2.098-0.101c0.178,0.01,0.352,0.021,0.517,0.04c0.166,0.017,0.33,0.036,0.494,0.062l0.662-2.02
				l1.325,0.079L76.61,95.78c0.195,0.039,0.383,0.087,0.565,0.139c0.183,0.053,0.383,0.112,0.603,0.181l1.503-0.49l-0.259,4.332
				l-2.134-0.129l-0.353-1.749c-0.2-0.109-0.41-0.197-0.63-0.268l-0.466,1.553c-0.12,0.393-0.228,0.748-0.324,1.062
				c-0.095,0.312-0.142,0.475-0.143,0.49c0.723,0.209,1.351,0.432,1.883,0.664c0.533,0.234,0.969,0.506,1.303,0.826
				c0.334,0.316,0.576,0.707,0.72,1.166c0.146,0.459,0.199,1.02,0.159,1.682c-0.076,1.273-0.564,2.234-1.468,2.889
				c-0.897,0.654-2.264,0.922-4.092,0.812c-0.359-0.021-0.705-0.062-1.033-0.123l-0.879,2.816l-1.328-0.078l0.928-3
				C70.693,108.416,70.252,108.265,69.842,108.111z M74.535,97.475c-0.069-0.01-0.139-0.018-0.207-0.022
				c-0.912-0.055-1.555,0.034-1.93,0.271c-0.373,0.232-0.577,0.593-0.605,1.074c-0.015,0.236,0.007,0.439,0.057,0.607
				c0.054,0.17,0.151,0.32,0.296,0.453c0.146,0.135,0.349,0.264,0.613,0.383c0.262,0.117,0.604,0.246,1.024,0.381l0.959-3.123
				C74.672,97.493,74.603,97.486,74.535,97.475z M73.392,106.837c0.11,0.008,0.219,0.014,0.331,0.02
				c0.483,0.029,0.883,0.01,1.197-0.053c0.317-0.064,0.57-0.164,0.757-0.297c0.188-0.137,0.319-0.305,0.396-0.508
				c0.073-0.205,0.118-0.432,0.133-0.678c0.031-0.525-0.1-0.934-0.395-1.221c-0.293-0.287-0.843-0.566-1.646-0.836l-1.081,3.51
				C73.179,106.81,73.28,106.832,73.392,106.837z"/>
		</g>
		<g>
			<path fill="#475C53" d="M69.914,106.902c-0.41-0.154-0.768-0.318-1.074-0.492l-0.1-3.475l2.22,0.133l0.397,1.957
				c0.109,0.049,0.214,0.092,0.314,0.133c0.101,0.039,0.2,0.078,0.296,0.113l1.061-3.494c-0.612-0.189-1.17-0.391-1.675-0.6
				c-0.505-0.211-0.932-0.467-1.276-0.773c-0.347-0.305-0.609-0.674-0.791-1.107c-0.178-0.434-0.25-0.968-0.212-1.602
				c0.04-0.663,0.198-1.229,0.475-1.699c0.28-0.467,0.646-0.844,1.107-1.129c0.462-0.285,1.011-0.482,1.647-0.6
				c0.638-0.111,1.337-0.146,2.098-0.101c0.178,0.011,0.352,0.024,0.517,0.04c0.166,0.018,0.33,0.038,0.494,0.062l0.663-2.02
				l1.324,0.079l-0.717,2.244c0.195,0.04,0.383,0.087,0.565,0.138c0.183,0.054,0.383,0.113,0.603,0.183l1.504-0.491l-0.26,4.329
				l-2.134-0.127l-0.352-1.748c-0.201-0.109-0.411-0.198-0.63-0.267l-0.466,1.553c-0.121,0.394-0.229,0.75-0.325,1.063
				c-0.095,0.312-0.142,0.477-0.142,0.488c0.722,0.209,1.35,0.432,1.882,0.664c0.533,0.234,0.969,0.508,1.303,0.828
				c0.334,0.314,0.576,0.707,0.72,1.166c0.146,0.457,0.199,1.02,0.159,1.682c-0.076,1.27-0.564,2.234-1.467,2.887
				c-0.898,0.654-2.265,0.924-4.093,0.814c-0.359-0.023-0.704-0.064-1.033-0.125l-0.879,2.816l-1.328-0.078l0.929-3.002
				C70.766,107.207,70.325,107.06,69.914,106.902z M74.607,96.267c-0.069-0.011-0.139-0.017-0.207-0.021
				c-0.912-0.055-1.555,0.032-1.929,0.269c-0.374,0.231-0.578,0.593-0.606,1.074c-0.015,0.235,0.007,0.439,0.058,0.607
				c0.053,0.171,0.15,0.32,0.295,0.454c0.146,0.135,0.349,0.262,0.613,0.381c0.262,0.119,0.604,0.246,1.025,0.383l0.958-3.124
				C74.744,96.286,74.675,96.278,74.607,96.267z M73.464,105.628c0.111,0.008,0.22,0.014,0.331,0.021
				c0.483,0.027,0.883,0.01,1.197-0.055c0.317-0.064,0.57-0.162,0.757-0.297c0.188-0.133,0.319-0.303,0.396-0.506
				c0.073-0.205,0.118-0.432,0.133-0.68c0.031-0.523-0.1-0.932-0.395-1.219c-0.293-0.287-0.843-0.566-1.646-0.836l-1.081,3.51
				C73.251,105.603,73.353,105.623,73.464,105.628z"/>
		</g>
		<path fill="#475C53" d="M75.864,114.656c-8.986-0.539-15.82-8.494-15.265-17.769c0.242-4.037,1.846-7.655,4.318-10.414
			c-4.114,3.602-8.477,9.685-8.402,19.259c0.145,18.059,25.008,17.633,31.156,9.486c1.607-2.131,2.558-5.064,2.907-8.314
			C87.486,111.867,81.967,115.021,75.864,114.656z"/>
	</g>
	<g>
		<path fill="#475C53" d="M140.556,117.076c0,0,7.012-10.119,3.119-17.016c0,0-8.039-2.266-10.621,0.531
			c-2.586,2.797-6.828,5.428-7.375,5.217c0.582,3.465,0.971,5.352,0.971,5.352s-1.646-0.264-2.766-3.008
			c-3.361,3.713-4.004,6.158-4.004,6.158s5.418,6.258,11.328,5.291C137.113,118.63,140.556,117.076,140.556,117.076z"/>
		<path fill="#475C53" d="M130.73,123.541c0,0-2.188-0.406-2.338-2.938c-0.148-2.537,2.238-2.912,3.303-3.881
			c1.066-0.971,7.422-2.877,9.707-0.109c2.287,2.766,1.633,3.428,0.148,4.238C140.07,121.664,130.73,123.541,130.73,123.541z"/>
		<path fill="#475C53" d="M133.537,121.146c0,0-13.854,9.184-9.438,26.693c4.424,17.51,28.477,11.201,32.518,1.828
			C161.552,138.22,148.533,113.144,133.537,121.146z"/>
		<g opacity="0.5">
			<path fill="#475C53" d="M137.611,146.992c-0.436-0.057-0.822-0.131-1.162-0.225l-0.92-3.354l2.188-0.396l0.852,1.805
				c0.117,0.021,0.229,0.043,0.336,0.057c0.107,0.016,0.213,0.027,0.314,0.039l0.203-3.645c-0.641-0.039-1.23-0.102-1.771-0.188
				c-0.539-0.082-1.016-0.232-1.422-0.447c-0.41-0.215-0.752-0.51-1.031-0.889c-0.275-0.377-0.473-0.881-0.586-1.508
				c-0.119-0.652-0.1-1.238,0.059-1.762c0.162-0.52,0.428-0.973,0.809-1.357c0.381-0.387,0.867-0.711,1.459-0.973
				c0.592-0.264,1.262-0.461,2.014-0.596c0.174-0.033,0.346-0.062,0.51-0.084c0.166-0.023,0.33-0.043,0.494-0.057l0.166-2.119
				l1.307-0.238l-0.164,2.352c0.199-0.01,0.391-0.008,0.582,0c0.189,0.008,0.396,0.018,0.627,0.033l1.346-0.832l0.773,4.268
				l-2.104,0.381l-0.756-1.615c-0.221-0.059-0.445-0.094-0.676-0.111l-0.084,1.619c-0.023,0.412-0.043,0.783-0.062,1.111
				c-0.018,0.326-0.025,0.494-0.023,0.51c0.752,0.031,1.414,0.098,1.986,0.197c0.574,0.102,1.062,0.264,1.463,0.496
				c0.398,0.227,0.727,0.549,0.975,0.961c0.252,0.41,0.436,0.943,0.555,1.596c0.227,1.254-0.02,2.305-0.742,3.154
				c-0.717,0.848-1.98,1.432-3.783,1.76c-0.354,0.064-0.699,0.105-1.033,0.125l-0.184,2.945l-1.311,0.238l0.191-3.135
				C138.509,147.085,138.046,147.044,137.611,146.992z M139.648,135.544c-0.07,0.008-0.139,0.016-0.207,0.027
				c-0.898,0.164-1.502,0.402-1.809,0.721c-0.309,0.314-0.422,0.713-0.336,1.188c0.043,0.232,0.111,0.424,0.201,0.576
				c0.092,0.152,0.223,0.275,0.395,0.371c0.174,0.096,0.4,0.172,0.686,0.225c0.283,0.053,0.646,0.096,1.086,0.127l0.191-3.26
				C139.785,135.531,139.716,135.541,139.648,135.544z M140.757,144.912c0.109-0.02,0.215-0.039,0.326-0.059
				c0.477-0.086,0.859-0.201,1.15-0.336c0.293-0.139,0.516-0.295,0.664-0.469c0.152-0.176,0.238-0.371,0.264-0.586
				c0.023-0.217,0.014-0.447-0.031-0.689c-0.094-0.52-0.318-0.885-0.672-1.092c-0.354-0.211-0.953-0.352-1.797-0.424l-0.219,3.668
				C140.544,144.937,140.648,144.933,140.757,144.912z"/>
		</g>
		<g>
			<path fill="#475C53" d="M137.394,145.798c-0.436-0.053-0.822-0.127-1.16-0.223l-0.922-3.352l2.189-0.398l0.85,1.807
				c0.119,0.023,0.23,0.041,0.336,0.057c0.107,0.014,0.215,0.027,0.314,0.039l0.203-3.646c-0.641-0.039-1.229-0.102-1.77-0.186
				s-1.016-0.232-1.424-0.449c-0.408-0.213-0.752-0.51-1.031-0.889c-0.275-0.379-0.471-0.881-0.584-1.506
				c-0.119-0.652-0.1-1.24,0.057-1.762c0.162-0.521,0.428-0.975,0.809-1.361c0.381-0.385,0.867-0.707,1.459-0.971
				c0.592-0.26,1.264-0.461,2.014-0.596c0.174-0.033,0.348-0.061,0.512-0.084s0.328-0.041,0.494-0.057l0.166-2.119l1.305-0.236
				l-0.164,2.35c0.199-0.008,0.393-0.006,0.582,0c0.189,0.008,0.398,0.02,0.629,0.035l1.344-0.834l0.773,4.266l-2.102,0.383
				l-0.758-1.613c-0.221-0.059-0.445-0.096-0.674-0.111l-0.084,1.619c-0.025,0.41-0.045,0.783-0.064,1.109
				c-0.018,0.326-0.023,0.498-0.021,0.51c0.75,0.031,1.412,0.098,1.986,0.199c0.572,0.1,1.061,0.262,1.461,0.494
				c0.4,0.227,0.727,0.551,0.975,0.961c0.252,0.412,0.436,0.943,0.555,1.598c0.227,1.252-0.02,2.305-0.742,3.152
				c-0.717,0.848-1.98,1.434-3.781,1.76c-0.355,0.064-0.699,0.107-1.033,0.125l-0.186,2.945l-1.311,0.238l0.191-3.137
				C138.294,145.894,137.83,145.855,137.394,145.798z M139.431,134.355c-0.068,0.006-0.137,0.016-0.205,0.027
				c-0.898,0.164-1.504,0.4-1.811,0.719c-0.309,0.314-0.42,0.713-0.334,1.188c0.041,0.232,0.111,0.426,0.199,0.578
				c0.092,0.152,0.223,0.273,0.395,0.369c0.174,0.096,0.4,0.172,0.686,0.225c0.283,0.055,0.646,0.096,1.088,0.129l0.189-3.262
				C139.57,134.341,139.5,134.349,139.431,134.355z M140.541,143.72c0.109-0.02,0.217-0.039,0.326-0.059
				c0.477-0.086,0.861-0.199,1.15-0.336c0.293-0.137,0.516-0.293,0.666-0.467c0.15-0.176,0.238-0.371,0.264-0.586
				c0.021-0.217,0.012-0.447-0.031-0.691c-0.096-0.518-0.318-0.883-0.674-1.092c-0.352-0.209-0.953-0.35-1.797-0.422l-0.217,3.666
				C140.328,143.746,140.431,143.742,140.541,143.72z"/>
		</g>
		<path fill="#475C53" d="M145.013,151.921c-8.859,1.607-17.385-4.502-19.043-13.643c-0.721-3.98-0.021-7.875,1.727-11.141
			c-3.143,4.473-5.939,11.416-3.598,20.701c4.424,17.51,28.477,11.201,32.518,1.828c1.057-2.451,1.285-5.525,0.854-8.768
			C155.642,146.457,151.029,150.83,145.013,151.921z"/>
	</g>
	<g>
		<path fill="#475C53" d="M76.042,115.136c0,0,8.705-8.705,6.107-16.186c0,0-7.506-3.665-10.547-1.374
			c-3.043,2.29-7.686,4.122-8.188,3.817c-0.046,3.512,0,5.438,0,5.438s-1.573-0.553-2.184-3.453c-3.971,3.053-5.04,5.344-5.04,5.344
			s4.215,7.127,10.201,7.229C72.377,116.05,76.042,115.136,76.042,115.136z"/>
		<path fill="#475C53" d="M65.219,119.742c0,0-2.08-0.789-1.774-3.307c0.307-2.521,2.721-2.467,3.942-3.229
			c1.222-0.766,7.815-1.506,9.57,1.625c1.757,3.131,0.995,3.664-0.61,4.197C74.745,119.564,65.219,119.742,65.219,119.742z"/>
		<path fill="#475C53" d="M68.408,117.888c0,0-15.271,6.562-14.051,24.58c1.226,18.018,26.019,16.104,31.669,7.604
			C92.926,139.689,84.592,112.693,68.408,117.888z"/>
		<g opacity="0.5">
			<path fill="#475C53" d="M67.803,144.044c-0.419-0.133-0.786-0.273-1.103-0.426l-0.308-3.465h2.225l0.514,1.928
				c0.112,0.043,0.219,0.082,0.321,0.115c0.104,0.035,0.205,0.066,0.303,0.094l0.85-3.549c-0.623-0.152-1.191-0.318-1.708-0.5
				c-0.517-0.178-0.958-0.41-1.32-0.695c-0.364-0.283-0.648-0.635-0.855-1.057c-0.204-0.422-0.308-0.953-0.308-1.588
				c0-0.664,0.124-1.238,0.372-1.725c0.252-0.482,0.595-0.881,1.038-1.191c0.443-0.312,0.979-0.545,1.608-0.697
				c0.63-0.152,1.325-0.227,2.088-0.227c0.178,0,0.353,0.002,0.518,0.01c0.167,0.006,0.332,0.016,0.497,0.031l0.541-2.055h1.327
				l-0.581,2.283c0.197,0.027,0.387,0.062,0.572,0.104c0.186,0.043,0.389,0.09,0.612,0.145l1.472-0.578v4.338H74.34l-0.456-1.725
				c-0.207-0.098-0.422-0.172-0.645-0.23l-0.372,1.578c-0.097,0.4-0.183,0.762-0.261,1.082c-0.075,0.316-0.112,0.482-0.112,0.496
				c0.733,0.166,1.373,0.35,1.919,0.551s0.997,0.447,1.35,0.748c0.353,0.295,0.617,0.67,0.788,1.119
				c0.174,0.449,0.26,1.008,0.26,1.67c0,1.275-0.43,2.264-1.292,2.971c-0.857,0.707-2.205,1.057-4.036,1.057
				c-0.36,0-0.707-0.021-1.039-0.062l-0.708,2.865h-1.331l0.747-3.049C68.671,144.298,68.222,144.175,67.803,144.044z
				 M71.851,133.146c-0.069-0.006-0.139-0.01-0.208-0.01c-0.913,0-1.55,0.127-1.909,0.385c-0.359,0.256-0.541,0.627-0.541,1.109
				c0,0.236,0.033,0.438,0.094,0.602c0.063,0.168,0.17,0.312,0.322,0.436c0.154,0.127,0.363,0.242,0.635,0.346
				c0.269,0.102,0.618,0.209,1.046,0.318l0.77-3.174C71.988,133.158,71.919,133.154,71.851,133.146z M71.27,142.562
				c0.111,0,0.22,0,0.332,0c0.484,0,0.882-0.045,1.191-0.127c0.313-0.082,0.56-0.197,0.738-0.342
				c0.18-0.146,0.301-0.322,0.364-0.529c0.061-0.209,0.092-0.438,0.092-0.684c0-0.527-0.155-0.928-0.467-1.195
				c-0.31-0.27-0.875-0.516-1.692-0.736l-0.869,3.568C71.056,142.546,71.158,142.562,71.27,142.562z"/>
		</g>
		<g>
			<path fill="#475C53" d="M67.803,142.833c-0.419-0.131-0.786-0.271-1.103-0.426l-0.308-3.465h2.225l0.514,1.93
				c0.112,0.043,0.219,0.08,0.321,0.115c0.104,0.033,0.205,0.064,0.303,0.094l0.85-3.551c-0.623-0.152-1.191-0.318-1.708-0.498
				s-0.958-0.41-1.32-0.695c-0.364-0.283-0.648-0.637-0.855-1.059c-0.204-0.422-0.308-0.951-0.308-1.586
				c0-0.664,0.124-1.238,0.372-1.725c0.252-0.482,0.595-0.881,1.038-1.193s0.979-0.543,1.608-0.697
				c0.63-0.148,1.325-0.227,2.088-0.227c0.178,0,0.353,0.004,0.518,0.01c0.167,0.008,0.332,0.018,0.497,0.033l0.541-2.057h1.327
				l-0.581,2.283c0.197,0.029,0.387,0.064,0.572,0.104c0.186,0.043,0.389,0.09,0.612,0.146l1.472-0.58v4.336H74.34l-0.456-1.723
				c-0.207-0.096-0.422-0.172-0.645-0.229l-0.372,1.578c-0.097,0.4-0.183,0.762-0.261,1.08c-0.075,0.318-0.112,0.484-0.112,0.496
				c0.733,0.166,1.373,0.35,1.919,0.551s0.997,0.449,1.35,0.748c0.353,0.295,0.617,0.672,0.788,1.121
				c0.174,0.449,0.26,1.006,0.26,1.67c0,1.271-0.43,2.264-1.292,2.969c-0.857,0.707-2.205,1.057-4.036,1.057
				c-0.36,0-0.707-0.02-1.039-0.061l-0.708,2.863h-1.331l0.747-3.051C68.671,143.087,68.222,142.966,67.803,142.833z
				 M71.851,131.937c-0.069-0.008-0.139-0.01-0.208-0.01c-0.913,0-1.55,0.127-1.909,0.385c-0.359,0.254-0.541,0.625-0.541,1.107
				c0,0.236,0.033,0.439,0.094,0.604c0.063,0.168,0.17,0.311,0.322,0.436c0.154,0.125,0.363,0.24,0.635,0.344
				c0.269,0.104,0.618,0.209,1.046,0.32l0.77-3.176C71.988,131.947,71.919,131.945,71.851,131.937z M71.27,141.351
				c0.111,0,0.22,0,0.332,0c0.484,0,0.882-0.043,1.191-0.125c0.313-0.084,0.56-0.197,0.738-0.342
				c0.18-0.145,0.301-0.322,0.364-0.529c0.061-0.209,0.092-0.438,0.092-0.686c0-0.525-0.155-0.926-0.467-1.195
				c-0.31-0.268-0.875-0.514-1.692-0.734l-0.869,3.568C71.056,141.337,71.158,141.351,71.27,141.351z"/>
		</g>
		<path fill="#475C53" d="M74.206,150.216c-9.003,0-16.301-7.531-16.301-16.822c0-4.045,1.384-7.752,3.688-10.654
			c-3.892,3.842-7.882,10.174-7.235,19.729c1.226,18.018,26.019,16.104,31.669,7.604c1.477-2.223,2.25-5.209,2.404-8.475
			C85.641,146.738,80.319,150.216,74.206,150.216z"/>
	</g>
	<path fill="#475C53" d="M26.878,134.455c13.343,25.305,39.893,42.562,70.487,42.562c31.548,0,58.81-18.344,71.708-44.945
		C168.867,132.048,79.281,111.072,26.878,134.455z"/>
	<g>
		<path fill="#AB6658" d="M66.553,38.051c0,0-3.445-22.365,7.371-26.581c10.815-4.217,40.101-0.917,44.89,2.933
			c4.607,4.033,3.764,22.253,0,28.049S66.553,38.051,66.553,38.051z"/>
		<path fill="#593F46" d="M77.247,31.374c-2.11,0.191-9.909,1.64-11.373,2.033c-0.027,3.339,0.316,5.819,0.316,5.819
			s49.821,8.979,53.243,3.71c1.266-1.949,2.168-5.445,2.59-9.261C103.996,29.285,85.881,30.589,77.247,31.374z"/>
		<path fill="#AB6658" d="M70.122,55.392c0,0-14.75-1.57-14.75-7.695s2.547-7.849,12.859-8.786c9.406-0.855,41.889-1.75,58.264,4.5
			c6.281,3.166,5.502,7.911,4.502,9.536s-3.375,5.016-16.25,3.883S70.122,55.392,70.122,55.392z"/>
		<path fill="#593F46" d="M69.962,51.646c0,0-5.819-0.763-5.319-3.263s5.292-2.584,7.208-2.333
			C70.82,48.713,69.962,51.646,69.962,51.646z"/>
		<linearGradient id="SVGID_2_" gradientUnits="userSpaceOnUse" x1="106.9243" y1="53.1777" x2="59.7352" y2="93.6992">
			<stop  offset="0.0917" style="stop-color:#FEE4BC"/>
			<stop  offset="1" style="stop-color:#F5DFBB"/>
		</linearGradient>
		<path fill="url(#SVGID_2_)" d="M118.566,54.311c0,0,1.818,21.369,1.314,24.98c-0.521,3.722-42.383,9.013-51.649,3.235
			c-7.372-15.383,1.75-36.059,3.468-36.524c1.463-0.397,31.865-1.328,43.132,2.361C116.708,48.979,118.742,52.344,118.566,54.311z"
			/>
		<path fill="none" stroke="#EE726D" stroke-linecap="round" stroke-miterlimit="10" d="M89.935,70.396c0,0,5.746,1.657,11.12,0.748
			c6.309-1.069,8.912-3.529,9.002-3.85"/>
		<path fill="#E1A998" d="M41.013,78.622c0,0,0.39-13.545-3.61-13.545s-11.039,10.521-0.52,17.677S41.013,78.622,41.013,78.622z"/>
		<path fill="#E1A998" d="M143.107,81.229c0,0-0.391-13.545,3.609-13.545s11.039,10.521,0.52,17.677S143.107,81.229,143.107,81.229z
			"/>
		<path fill="#4C343C" d="M70.555,77.711c0,0-10.569,16.448-18.819,12.448S40.651,77.711,40.651,77.711l-4.25,4.087
			c0,0,12.152,26.528,32.326,10.028C70.901,86.326,70.555,77.711,70.555,77.711z"/>
		<path fill="#4C343C" d="M116.394,80.398c0,0,9.398,15.041,16.895,11.803c7.711-3.331,9.877-11.803,9.877-11.803l3.805,4.087
			c0,0-10.881,26.528-28.941,10.028C116.083,89.014,116.394,80.398,116.394,80.398z"/>
		<path fill="#593F46" d="M65.768,75.926c0,0,31.371,13.257,54.113,3.365c2.27,14.891-0.73,50.488-0.73,50.488
			s-26.045,16.666-52.557,3C64.612,102.826,65.768,75.926,65.768,75.926z"/>
		<path fill="#76515D" d="M79.281,80.214c0,0-6.505,8.612-7.38,11.112c3.375,2.5,6.625,2.5,6.625,2.5l-2.928,5.125
			c0,0,12.428,16.25,21.553,19.75c-4.625-17.75-13.721-37.803-13.721-37.803L79.281,80.214z"/>
		<path fill="#76515D" d="M113.578,81.14c0,0,2.107,5.354,2.982,7.854c-2.324,3.084-4.742,4.834-4.742,4.834l3.168,3.833
			c0,0-8.709,17.541-17.834,21.041c4.625-17.75,10.893-35.991,10.893-35.991L113.578,81.14z"/>
		<path fill="#F6F3EE" d="M81.575,80.501c1.042,5.659,9.618,34.516,15.576,38.2c5.295-7.689,10.958-28.948,11.575-36.116
			C97.892,83.635,87.396,81.609,81.575,80.501z"/>
		<path fill="#4C343C" d="M87.405,138.126c9.335,0.281,17.592-2.01,23.344-4.27c-2.695-4.004-8.404-11.887-13.598-15.156
			C97.151,118.701,87.618,133.669,87.405,138.126z"/>
		<circle fill="#BA7961" cx="111.399" cy="21.425" r="2.224"/>
		<path fill="#452D35" d="M118.443,50.152c0,0-14.008,0.015-15.758,0.14c-0.029,0.002-0.047,0.01-0.076,0.012
			c-0.033-0.031-0.07-0.053-0.111-0.058c-0.625-0.075-7.962,0.02-7.962,0.02s-12.413-0.069-14.163,0.056
			c-0.068,0.005-0.113,0.021-0.176,0.028c-0.027,0.001-0.048-0.002-0.075,0c0,0-15.37,0.046-16.12,3.296
			c-1.25,5,1.015,5.76,2.591,6.13c0.558-3.812,0.558-3.812,0.558-3.812l11.873-0.101c1.064,7.354,7.816,9.093,13.058,6.25
			c2.991-1.622,3.36-5.262,3.132-8.083l5.967-0.362c-0.055,9.177,9.084,11.437,14.809,8.332
			C121.216,59.164,118.443,50.152,118.443,50.152z"/>
		<path fill="#5F3C48" d="M82.483,50.268l6.834,12.887c0,0,2.726-0.791,3.512-1.54c-2.761-5.371-5.927-11.347-5.927-11.347H82.483z"
			/>
		<path fill="#5F3C48" d="M105.035,50.268l6.834,12.887c0,0,3.252-0.104,4.119-1.154c-2.762-5.371-6.535-11.732-6.535-11.732
			H105.035z"/>
	</g>
	<g>
		
			<linearGradient id="SVGID_3_" gradientUnits="userSpaceOnUse" x1="2693.0952" y1="68.6401" x2="2741.7412" y2="25.457" gradientTransform="matrix(-1 0 0 1 2876.3623 0)">
			<stop  offset="5.244500e-04" style="stop-color:#DB7854"/>
			<stop  offset="1" style="stop-color:#EF7F55"/>
			<stop  offset="1" style="stop-color:#DF925B"/>
		</linearGradient>
		<path fill="url(#SVGID_3_)" d="M147.777,49.611c0,0-8.705-8.704-6.107-16.185c0,0,7.918-1.631,10.959,0.66
			c3.043,2.29,7.273,2.087,7.775,1.782c0.045,3.513-4.002,5.78-4.002,5.78s7.115,1.671,7.727-1.229
			c3.971,3.053,3.498,2.778,3.498,2.778s-4.215,7.126-10.201,7.229C151.441,50.526,147.777,49.611,147.777,49.611z"/>
		<linearGradient id="SVGID_4_" gradientUnits="userSpaceOnUse" x1="156.3716" y1="49.772" x2="144.6849" y2="52.5123">
			<stop  offset="0" style="stop-color:#F2CC53"/>
			<stop  offset="1" style="stop-color:#F2AD53"/>
		</linearGradient>
		<path fill="url(#SVGID_4_)" d="M146.597,54.218c0,0,0.066-1.084,0.371-3.603c0.307-2.521,1.211-2.386,2.434-3.148
			c1.221-0.765,7.178-1.291,8.934,1.84s0.994,3.664-0.611,4.198C156.123,54.039,146.597,54.218,146.597,54.218z"/>
		<linearGradient id="SVGID_5_" gradientUnits="userSpaceOnUse" x1="138.2397" y1="86.8706" x2="187.1033" y2="43.4943">
			<stop  offset="5.244500e-04" style="stop-color:#DB7854"/>
			<stop  offset="1" style="stop-color:#EF7F55"/>
			<stop  offset="1" style="stop-color:#DF925B"/>
		</linearGradient>
		<path fill="url(#SVGID_5_)" d="M149.787,52.364c0,0-15.271,6.562-14.051,24.579c1.225,18.018,27.516,16.345,33.166,7.844
			C175.8,74.405,165.97,47.168,149.787,52.364z"/>
		<g opacity="0.5">
			<path fill="#9E6743" d="M149.181,78.521c-0.42-0.133-0.787-0.274-1.104-0.427l-0.307-3.465h2.225l0.514,1.929
				c0.111,0.042,0.219,0.082,0.32,0.115c0.104,0.035,0.205,0.065,0.303,0.094l0.85-3.549c-0.623-0.153-1.191-0.319-1.707-0.5
				c-0.518-0.178-0.959-0.41-1.32-0.695c-0.365-0.283-0.648-0.636-0.855-1.058c-0.205-0.421-0.309-0.952-0.309-1.588
				c0-0.664,0.125-1.237,0.373-1.724c0.252-0.482,0.594-0.881,1.037-1.192c0.443-0.312,0.98-0.544,1.609-0.696
				s1.324-0.227,2.088-0.227c0.178,0,0.352,0.001,0.518,0.01c0.166,0.006,0.332,0.016,0.496,0.031l0.541-2.056h1.328l-0.582,2.283
				c0.197,0.027,0.387,0.063,0.572,0.104c0.186,0.042,0.389,0.089,0.613,0.145l1.471-0.579v4.338h-2.137l-0.457-1.725
				c-0.207-0.097-0.422-0.172-0.645-0.229l-0.371,1.578c-0.098,0.4-0.184,0.762-0.262,1.081c-0.074,0.317-0.111,0.482-0.111,0.497
				c0.732,0.165,1.373,0.35,1.918,0.55c0.547,0.202,0.998,0.448,1.35,0.748c0.354,0.296,0.617,0.67,0.789,1.12
				c0.174,0.449,0.26,1.007,0.26,1.67c0,1.274-0.43,2.264-1.293,2.97c-0.857,0.707-2.205,1.057-4.035,1.057
				c-0.361,0-0.707-0.021-1.039-0.062l-0.709,2.865h-1.33l0.746-3.05C150.048,78.773,149.599,78.65,149.181,78.521z M153.228,67.622
				c-0.068-0.006-0.139-0.01-0.207-0.01c-0.914,0-1.551,0.127-1.91,0.385c-0.359,0.255-0.541,0.627-0.541,1.108
				c0,0.237,0.033,0.438,0.094,0.603c0.064,0.167,0.17,0.312,0.322,0.436c0.154,0.126,0.363,0.242,0.635,0.345
				c0.27,0.102,0.619,0.21,1.047,0.319l0.77-3.175C153.367,67.633,153.296,67.63,153.228,67.622z M152.648,77.037
				c0.111,0,0.219,0,0.332,0c0.484,0,0.881-0.044,1.191-0.126c0.312-0.083,0.559-0.197,0.738-0.342
				c0.18-0.146,0.301-0.322,0.363-0.53c0.061-0.208,0.092-0.437,0.092-0.684c0-0.527-0.154-0.927-0.467-1.194
				c-0.309-0.271-0.875-0.517-1.691-0.737l-0.869,3.569C152.433,77.022,152.537,77.037,152.648,77.037z"/>
		</g>
		<g>
			<path fill="#FFDC7C" d="M149.181,77.309c-0.42-0.13-0.787-0.271-1.104-0.426l-0.307-3.464h2.225l0.514,1.93
				c0.111,0.043,0.219,0.08,0.32,0.114c0.104,0.033,0.205,0.065,0.303,0.095l0.85-3.551c-0.623-0.152-1.191-0.319-1.707-0.498
				c-0.518-0.181-0.959-0.41-1.32-0.696c-0.365-0.283-0.648-0.636-0.855-1.059c-0.205-0.422-0.309-0.951-0.309-1.586
				c0-0.664,0.125-1.238,0.373-1.725c0.252-0.482,0.594-0.881,1.037-1.193c0.443-0.312,0.98-0.542,1.609-0.696
				c0.629-0.149,1.324-0.227,2.088-0.227c0.178,0,0.352,0.004,0.518,0.01c0.166,0.007,0.332,0.018,0.496,0.032l0.541-2.056h1.328
				l-0.582,2.283c0.197,0.028,0.387,0.063,0.572,0.104c0.186,0.042,0.389,0.09,0.613,0.146l1.471-0.581v4.337h-2.137l-0.457-1.723
				c-0.207-0.097-0.422-0.173-0.645-0.229l-0.371,1.578c-0.098,0.399-0.184,0.762-0.262,1.08c-0.074,0.317-0.111,0.484-0.111,0.496
				c0.732,0.166,1.373,0.35,1.918,0.551c0.547,0.201,0.998,0.448,1.35,0.748c0.354,0.295,0.617,0.671,0.789,1.12
				c0.174,0.449,0.26,1.006,0.26,1.67c0,1.272-0.43,2.264-1.293,2.97c-0.857,0.706-2.205,1.057-4.035,1.057
				c-0.361,0-0.707-0.021-1.039-0.062l-0.709,2.864h-1.33l0.746-3.051C150.048,77.562,149.599,77.441,149.181,77.309z
				 M153.228,66.412c-0.068-0.007-0.139-0.009-0.207-0.009c-0.914,0-1.551,0.126-1.91,0.384c-0.359,0.254-0.541,0.626-0.541,1.108
				c0,0.236,0.033,0.438,0.094,0.604c0.064,0.167,0.17,0.311,0.322,0.435c0.154,0.126,0.363,0.24,0.635,0.344
				c0.27,0.104,0.619,0.209,1.047,0.32l0.77-3.175C153.367,66.423,153.296,66.42,153.228,66.412z M152.648,75.826
				c0.111,0,0.219,0,0.332,0c0.484,0,0.881-0.043,1.191-0.125c0.312-0.083,0.559-0.196,0.738-0.342
				c0.18-0.145,0.301-0.322,0.363-0.529c0.061-0.208,0.092-0.438,0.092-0.686c0-0.525-0.154-0.925-0.467-1.194
				c-0.309-0.269-0.875-0.514-1.691-0.735l-0.869,3.568C152.433,75.812,152.537,75.826,152.648,75.826z"/>
		</g>
		<linearGradient id="SVGID_6_" gradientUnits="userSpaceOnUse" x1="138.4878" y1="86.6772" x2="177.5718" y2="51.9823">
			<stop  offset="5.244500e-04" style="stop-color:#B16555"/>
			<stop  offset="1" style="stop-color:#EF7F55"/>
			<stop  offset="1" style="stop-color:#DF925B"/>
		</linearGradient>
		<path fill="url(#SVGID_6_)" d="M155.583,84.692c-9.002,0-16.301-7.532-16.301-16.823c0-4.044,1.385-7.752,3.688-10.653
			c-3.891,3.841-7.881,10.174-7.234,19.728c1.225,18.018,27.516,16.345,33.166,7.844c1.477-2.223,2.25-5.208,2.404-8.474
			C168.515,81.453,161.697,84.692,155.583,84.692z"/>
	</g>
	<g>
		<linearGradient id="SVGID_7_" gradientUnits="userSpaceOnUse" x1="0.5269" y1="64.7891" x2="49.1733" y2="21.6055">
			<stop  offset="5.244500e-04" style="stop-color:#DB7854"/>
			<stop  offset="1" style="stop-color:#EF7F55"/>
			<stop  offset="1" style="stop-color:#DF925B"/>
		</linearGradient>
		<path fill="url(#SVGID_7_)" d="M36.031,45.774c0,0,8.705-8.704,6.107-16.185c0,0-7.506-3.665-10.547-1.374
			c-3.043,2.29-7.686,4.121-8.188,3.816c-0.046,3.513,0,5.438,0,5.438s-1.573-0.553-2.184-3.453c-3.971,3.053-5.04,5.344-5.04,5.344
			s4.215,7.126,10.201,7.229C32.366,46.689,36.031,45.774,36.031,45.774z"/>
		<linearGradient id="SVGID_8_" gradientUnits="userSpaceOnUse" x1="34.7681" y1="46.0161" x2="21.9935" y2="49.0115">
			<stop  offset="0" style="stop-color:#F2CC53"/>
			<stop  offset="1" style="stop-color:#F2AD53"/>
		</linearGradient>
		<path fill="url(#SVGID_8_)" d="M25.208,50.381c0,0-2.08-0.789-1.774-3.308c0.307-2.521,2.721-2.466,3.942-3.229
			c1.222-0.765,7.815-1.506,9.57,1.625c1.757,3.131,0.995,3.664-0.61,4.198C34.734,50.202,25.208,50.381,25.208,50.381z"/>
		<linearGradient id="SVGID_9_" gradientUnits="userSpaceOnUse" x1="16.396" y1="82.666" x2="65.0428" y2="39.4822">
			<stop  offset="5.244500e-04" style="stop-color:#DB7854"/>
			<stop  offset="1" style="stop-color:#EF7F55"/>
			<stop  offset="1" style="stop-color:#DF925B"/>
		</linearGradient>
		<path fill="url(#SVGID_9_)" d="M28.397,48.527c0,0-15.271,6.562-14.051,24.579c1.226,18.018,26.019,16.104,31.669,7.604
			C52.915,70.328,44.581,43.331,28.397,48.527z"/>
		<g opacity="0.5">
			<path fill="#9E6743" d="M27.792,74.684c-0.419-0.133-0.786-0.274-1.103-0.427l-0.308-3.465h2.225l0.514,1.929
				c0.112,0.042,0.219,0.082,0.321,0.115c0.104,0.035,0.205,0.065,0.303,0.094l0.85-3.549c-0.623-0.153-1.191-0.319-1.708-0.5
				c-0.517-0.178-0.958-0.41-1.32-0.695c-0.364-0.283-0.648-0.636-0.855-1.058c-0.204-0.421-0.308-0.952-0.308-1.588
				c0-0.664,0.124-1.237,0.372-1.724c0.252-0.482,0.595-0.881,1.038-1.192c0.443-0.312,0.979-0.544,1.608-0.696
				c0.63-0.152,1.325-0.227,2.088-0.227c0.178,0,0.353,0.001,0.518,0.01c0.167,0.006,0.332,0.016,0.497,0.031l0.541-2.056h1.327
				l-0.581,2.283c0.197,0.027,0.387,0.063,0.572,0.104c0.186,0.042,0.389,0.089,0.612,0.145l1.472-0.579v4.338h-2.138l-0.456-1.725
				c-0.207-0.097-0.422-0.172-0.645-0.229l-0.372,1.578c-0.097,0.4-0.183,0.762-0.261,1.081c-0.075,0.317-0.112,0.482-0.112,0.497
				c0.733,0.165,1.373,0.35,1.919,0.55c0.546,0.202,0.997,0.448,1.35,0.748c0.353,0.296,0.617,0.67,0.788,1.12
				c0.174,0.449,0.26,1.007,0.26,1.67c0,1.274-0.43,2.264-1.292,2.97c-0.857,0.707-2.205,1.057-4.036,1.057
				c-0.36,0-0.707-0.021-1.039-0.062l-0.708,2.865h-1.331l0.747-3.05C28.66,74.937,28.211,74.813,27.792,74.684z M31.84,63.785
				c-0.069-0.006-0.139-0.01-0.208-0.01c-0.913,0-1.55,0.127-1.909,0.385c-0.359,0.255-0.541,0.627-0.541,1.108
				c0,0.237,0.033,0.438,0.094,0.603c0.063,0.167,0.17,0.312,0.322,0.436c0.154,0.126,0.363,0.242,0.635,0.345
				c0.269,0.102,0.618,0.21,1.046,0.319l0.77-3.175C31.978,63.796,31.908,63.793,31.84,63.785z M31.259,73.2c0.111,0,0.22,0,0.332,0
				c0.484,0,0.882-0.044,1.191-0.126c0.313-0.083,0.56-0.197,0.738-0.342c0.18-0.146,0.301-0.322,0.364-0.53
				c0.061-0.208,0.092-0.437,0.092-0.684c0-0.527-0.155-0.927-0.467-1.194c-0.31-0.271-0.875-0.517-1.692-0.737l-0.869,3.569
				C31.045,73.186,31.147,73.2,31.259,73.2z"/>
		</g>
		<g>
			<path fill="#FFDC7C" d="M27.792,73.472c-0.419-0.13-0.786-0.271-1.103-0.426l-0.308-3.464h2.225l0.514,1.93
				c0.112,0.043,0.219,0.08,0.321,0.114c0.104,0.033,0.205,0.065,0.303,0.095l0.85-3.551c-0.623-0.152-1.191-0.319-1.708-0.498
				c-0.517-0.181-0.958-0.41-1.32-0.696c-0.364-0.283-0.648-0.636-0.855-1.059c-0.204-0.422-0.308-0.951-0.308-1.586
				c0-0.664,0.124-1.238,0.372-1.725c0.252-0.482,0.595-0.881,1.038-1.193c0.443-0.312,0.979-0.542,1.608-0.696
				c0.63-0.149,1.325-0.227,2.088-0.227c0.178,0,0.353,0.004,0.518,0.01c0.167,0.007,0.332,0.018,0.497,0.032l0.541-2.056h1.327
				l-0.581,2.283c0.197,0.028,0.387,0.063,0.572,0.104c0.186,0.042,0.389,0.09,0.612,0.146l1.472-0.581v4.337h-2.138l-0.456-1.723
				c-0.207-0.097-0.422-0.173-0.645-0.229l-0.372,1.578c-0.097,0.399-0.183,0.762-0.261,1.08c-0.075,0.317-0.112,0.484-0.112,0.496
				c0.733,0.166,1.373,0.35,1.919,0.551s0.997,0.448,1.35,0.748c0.353,0.295,0.617,0.671,0.788,1.12
				c0.174,0.449,0.26,1.006,0.26,1.67c0,1.272-0.43,2.264-1.292,2.97c-0.857,0.706-2.205,1.057-4.036,1.057
				c-0.36,0-0.707-0.021-1.039-0.062l-0.708,2.864h-1.331l0.747-3.051C28.66,73.726,28.211,73.604,27.792,73.472z M31.84,62.575
				c-0.069-0.007-0.139-0.009-0.208-0.009c-0.913,0-1.55,0.126-1.909,0.384c-0.359,0.254-0.541,0.626-0.541,1.108
				c0,0.236,0.033,0.438,0.094,0.604c0.063,0.167,0.17,0.311,0.322,0.435c0.154,0.126,0.363,0.24,0.635,0.344
				c0.269,0.104,0.618,0.209,1.046,0.32l0.77-3.175C31.978,62.586,31.908,62.583,31.84,62.575z M31.259,71.989
				c0.111,0,0.22,0,0.332,0c0.484,0,0.882-0.043,1.191-0.125c0.313-0.083,0.56-0.196,0.738-0.342
				c0.18-0.145,0.301-0.322,0.364-0.529c0.061-0.208,0.092-0.438,0.092-0.686c0-0.525-0.155-0.925-0.467-1.194
				c-0.31-0.269-0.875-0.514-1.692-0.735l-0.869,3.568C31.045,71.976,31.147,71.989,31.259,71.989z"/>
		</g>
		<linearGradient id="SVGID_10_" gradientUnits="userSpaceOnUse" x1="16.6646" y1="82.4536" x2="54.6389" y2="48.7437">
			<stop  offset="5.244500e-04" style="stop-color:#B16555"/>
			<stop  offset="1" style="stop-color:#EF7F55"/>
			<stop  offset="1" style="stop-color:#DF925B"/>
		</linearGradient>
		<path fill="url(#SVGID_10_)" d="M34.195,80.855c-9.003,0-16.301-7.532-16.301-16.823c0-4.044,1.384-7.752,3.688-10.653
			C17.69,57.22,13.7,63.553,14.347,73.106c1.226,18.018,26.019,16.104,31.669,7.604c1.477-2.223,2.25-5.208,2.404-8.474
			C45.63,77.376,40.309,80.855,34.195,80.855z"/>
	</g>
	<path fill="#423137" d="M119.125,128.425l-52.532,4.354c0,0,3.724,18.658,5.309,26.709c6.443,2.633,8.672,2.693,15.829,3.559
		c0.54-4.203,1.188-8.896,3.819-12.367c1.375-1.812,4.782-0.475,5.172-0.312c2.895,6.869,5.163,9.623,6.018,13.08
		c7.246-0.484,9.24-1.752,15.826-4.043L119.125,128.425z"/>
	<path fill="#423137" d="M87.73,163.046L87.405,176.4l-13.78-2.98c0,0-6.786-36.654-7.032-40.641
		C80.101,147.63,87.73,163.046,87.73,163.046z"/>
	<path fill="#423137" d="M118.566,159.404l-1.051,15.039c0,0-11.74,2.191-13.904,2.33c-1.344-5.975-2.625-24.975-7.234-29.559
		C103.767,141.13,118.566,159.404,118.566,159.404z"/>
</g>
</svg>
