<?xml version="1.0" encoding="utf-8"?>
<!-- Generator: Adobe Illustrator 16.0.0, SVG Export Plug-In . SVG Version: 6.00 Build 0)  -->
<!DOCTYPE svg PUBLIC "-//W3C//DTD SVG 1.1//EN" "http://www.w3.org/Graphics/SVG/1.1/DTD/svg11.dtd">
<svg version="1.1" id="Calque_1" xmlns="http://www.w3.org/2000/svg" xmlns:xlink="http://www.w3.org/1999/xlink" x="0px" y="0px"
	 width="194.731px" height="194.821px" viewBox="0 0 194.731 194.821" enable-background="new 0 0 194.731 194.821"
	 xml:space="preserve">
<g>
	<circle fill="#FAFBEB" cx="97.365" cy="97.457" r="97.365"/>
	<radialGradient id="SVGID_1_" cx="97.3647" cy="97.457" r="79.6514" gradientUnits="userSpaceOnUse">
		<stop  offset="0" style="stop-color:#BBDCAA"/>
		<stop  offset="1" style="stop-color:#6BC4AB"/>
	</radialGradient>
	<circle fill="url(#SVGID_1_)" cx="97.365" cy="97.457" r="79.651"/>
	<path fill="#E1A898" d="M67.985,136.894c0,0-7.024,19.742-8.207,30.799c3.91,2.117,8.026,3.896,12.296,5.342
		c4.209-4.641,9.027-15.299,14.301-38.084C98.983,80.464,67.985,136.894,67.985,136.894z"/>
	<path fill="#E1A898" d="M132.844,135.353c0,0-30.998-56.428-18.391-1.943c5.127,22.148,9.822,32.838,13.947,37.68
		c4.359-1.826,8.514-4.043,12.439-6.584C139.209,153.247,132.844,135.353,132.844,135.353z"/>
	<g>
		<path fill="#666189" d="M68.28,122.147c0,0-7.184,12.92-4.793,14.939c2.529,2.139,16.96,9.395,27.278,5.545
			c1.937-0.723,4.467-19.406,4.467-19.406L68.28,122.147z"/>
		<path fill="#666189" d="M131.434,120.608c0,0,7.184,12.92,4.793,14.939c-2.529,2.137-16.959,9.395-27.279,5.543
			c-1.934-0.721-4.465-19.404-4.465-19.404L131.434,120.608z"/>
		<path fill="#C75046" d="M122.711,73.204c0,6.926-11.52,12.536-25.735,12.536c-14.217,0-25.735-5.61-25.735-12.536
			c0-6.927,11.519-12.537,25.735-12.537C111.192,60.667,122.711,66.277,122.711,73.204z"/>
		<path fill="#E1A898" d="M119.622,75.135c0,0,18.51-20.157,19.102-52.173c-1.186-11.659,1.84-15.09,3.66-12.923
			c0.887,1.056-0.031,9.325,2.934,7.941c2.963-1.384,2.498-13.791,6.449-13.99c3.953-0.197,9.486,14.498-4.939,26.023
			c-2.174,13.75-12.055,47.098-23.428,57.572C118.26,80.471,119.622,75.135,119.622,75.135z"/>
		<path fill="#E1A898" d="M70.684,78.597c0,0-24.545-12.102-36.67-41.738c-3.108-11.301-7.169-13.404-8.082-10.728
			c-0.447,1.306,3.397,8.684,0.134,8.465c-3.264-0.218-7.312-11.955-11.069-10.712c-3.757,1.244-3.606,16.946,14.012,22.478
			c6.996,12.035,28.264,39.557,42.656,45.213C73.882,83.081,70.684,78.597,70.684,78.597z"/>
		<path fill="#C75046" d="M73.895,64.981c0,0-11.232-4.581-13.347-4.908c-3.618,3.681-11.885,17.871-9.087,20.162
			c2.797,2.287,25.233,10.352,25.233,10.352S80.488,67.582,73.895,64.981z"/>
		<path fill="#C75046" d="M116.366,60.767c0,0,9.166-7.937,11.035-8.946c4.352,2.117,15.859,12.189,13.889,15.209
			c-1.973,3.016-20.574,17.884-20.574,17.884S110.961,65.346,116.366,60.767z"/>
		<ellipse fill="#E1A898" cx="119.622" cy="43.989" rx="6.324" ry="7.339"/>
		<ellipse fill="#E1A898" cx="64.917" cy="58.663" rx="6.324" ry="7.338"/>
		<path fill="#8D4339" d="M67.458,108.134c0,0-5.621,15.781-4.354,16.707c6.202,4.529,44.024,12.328,74.721-5.209
			c0-6.998-9.566-15.445-9.566-15.445L67.458,108.134z"/>
		<path fill="#E56F5B" d="M119.622,60.104c-8.961-0.396-1.531,3.101-1.531,3.101s-2.432-2.96-9.199,1.585
			c-11.562,6.62-27.961,4.07-31.628,2.19c-5.124-1.927-6.021,6.224-4.847,2.837c0.643-1.854-3.454-5.075-3.454-5.075
			S63,111.228,64.63,118.812c21.739,14.623,72.406-1.402,73.195-5.75C137.825,113.062,131.797,89.815,119.622,60.104z"/>
		<linearGradient id="SVGID_2_" gradientUnits="userSpaceOnUse" x1="110.2202" y1="38.4897" x2="60.1936" y2="81.4478">
			<stop  offset="0.0917" style="stop-color:#FFE3BB"/>
			<stop  offset="1" style="stop-color:#F4DEBB"/>
		</linearGradient>
		<path fill="url(#SVGID_2_)" d="M119.622,38.89c0,0,2.418,21.774,1.799,25.852c-0.639,4.2-41.375,10.773-52.743,4.253
			c-9.047-17.361-0.399-31.817,1.708-32.343C72.492,36.125,111.188,3.583,119.622,38.89z"/>
		<path opacity="0.5" fill="#FFFFFF" d="M102.545,49.545c0,0.592-2.85,1.069-6.368,1.069c-3.513,0-6.363-0.478-6.363-1.069
			c0-0.59,2.851-1.067,6.363-1.067C99.696,48.478,102.545,48.956,102.545,49.545z"/>
		<path fill="#5D413A" d="M85.389,45.041c0,0,0-6.595-2.472-4.974c-0.985,0.647-2.3,5.983-0.889,8.336
			C83.191,50.344,85.389,50.047,85.389,45.041z"/>
		<path fill="#5D413A" d="M108.127,42.635c0,0,0-6.595-2.471-4.974c-0.986,0.647-2.303,5.983-0.891,8.336
			C105.932,47.938,108.127,47.64,108.127,42.635z"/>
		<path fill="none" stroke="#F3726C" stroke-linecap="round" stroke-miterlimit="10" d="M84.579,57.463c0,0,7.08,2.042,13.702,0.922
			c7.772-1.317,10.981-4.349,11.09-4.743"/>
		<path fill="#504048" d="M77.295,32.147c0,0,14.657,8.894,19.663,4.683c-6.06-1.088-7.144-8.183-7.144-8.183
			s22.692-0.493,29.807,13.786c10.801-13.385-2.875-37.257-24.363-34.58c3.81-8.923,0.413-7.809,0.413-7.809S90.373,2.5,91.163,8.3
			c-8.96-0.894-48.482,3.492-38.734,41.235c4.215,10.523,13.599,12.468,13.599,12.468S63.881,36.191,77.295,32.147z"/>
		<path fill="#504048" d="M92.349,9.675c0,0-3.495-8.21-4.681-8.21s-5.991,2.295-3.62,3.857c2.372,1.562,6.325,6.691,8.301,6.135
			S92.349,9.675,92.349,9.675z"/>
		<path fill="#F3726C" d="M77.964,53.057c0,0-4.742,0.527-4.742,2.24c0,2.107,4.545-0.216,4.545-0.216S80.332,53.651,77.964,53.057z
			"/>
		<path fill="#F3726C" d="M116.547,48.706c0,0-4.629-1.165-5.227,0.438c-0.738,1.976,4.33,1.39,4.33,1.39
			S118.557,50.089,116.547,48.706z"/>
	</g>
</g>
</svg>
