<?xml version="1.0" encoding="utf-8"?>
<!-- Generator: Adobe Illustrator 16.0.0, SVG Export Plug-In . SVG Version: 6.00 Build 0)  -->
<!DOCTYPE svg PUBLIC "-//W3C//DTD SVG 1.1//EN" "http://www.w3.org/Graphics/SVG/1.1/DTD/svg11.dtd">
<svg version="1.1" id="Calque_1" xmlns="http://www.w3.org/2000/svg" xmlns:xlink="http://www.w3.org/1999/xlink" x="0px" y="0px"
	 width="394.718px" height="483.87px" viewBox="0 0 394.718 483.87" enable-background="new 0 0 394.718 483.87"
	 xml:space="preserve">
<g>
	<g>
		<circle fill="#FAFAEC" cx="187.343" cy="212.754" r="187.343"/>
		<linearGradient id="SVGID_1_" gradientUnits="userSpaceOnUse" x1="309.6763" y1="110.0308" x2="101.2168" y2="285.0738">
			<stop  offset="0.0061" style="stop-color:#ABD4AE"/>
			<stop  offset="1" style="stop-color:#75C5BB"/>
		</linearGradient>
		<circle opacity="0.7" fill="url(#SVGID_1_)" cx="187.343" cy="212.754" r="187.203"/>
		<circle fill="#FAFAEC" cx="186.905" cy="220.589" r="132.645"/>
		<linearGradient id="SVGID_2_" gradientUnits="userSpaceOnUse" x1="164.6079" y1="269.5674" x2="32.7343" y2="382.8076">
			<stop  offset="0.0033" style="stop-color:#FCD7B0"/>
			<stop  offset="0.9958" style="stop-color:#1B8D77"/>
		</linearGradient>
		<path fill="url(#SVGID_2_)" d="M20.149,221.981c-6.078,0.484-13.754,0.644-19.724,1.15c-1.025,16.656,6.312,44.763,12.857,60.687
			c22.868,55.646,70.407,116.62,173.797,116.62c17.998,0,35.401-2.547,51.873-7.29c0.213-3.972,0.327-7.972,0.327-12.001
			C239.279,260.522,152.172,211.431,20.149,221.981z"/>
	</g>
	<g>
		<path fill="none" stroke="#A78C95" stroke-width="5" stroke-miterlimit="10" d="M267.12,136.578c0,0-5.783-11.499,2.996-13.9
			s32.004-6.18,35.338-1.674c3.332,4.506,4,14.463,0,15.151S268.948,143.024,267.12,136.578z"/>
		<g>
			<path fill="#A78C95" d="M361.153,113.846c-5.051,0-10.979-0.516-12.336-4.475c-0.643-1.337-3.395-7.595-1.223-12.474
				c0.731-1.642,2.346-3.803,5.886-4.771c5.868-1.605,18.151-3.865,27.09-3.865c5.876,0,9.345,0.99,10.917,3.116
				c2.954,3.994,4.135,11.391,2.477,15.521c-0.802,1.997-2.244,3.268-4.062,3.581l-0.91,0.161
				C384.532,111.432,370.959,113.846,361.153,113.846z M353.521,107.66c0.216,0.188,1.646,1.186,7.632,1.186
				c9.365,0,22.609-2.356,26.963-3.13l0.938-0.166c0.053-0.052,0.383-0.512,0.562-1.643c0.473-2.967-0.512-7.343-2.148-9.557
				c-0.002-0.001-1.045-1.089-6.897-1.089c-8.382,0-20.333,2.201-25.771,3.688c-1.787,0.489-2.359,1.361-2.635,1.976
				c-1.146,2.559,0.535,7.03,1.215,8.395L353.521,107.66z"/>
		</g>
		<path fill="none" stroke="#A78C95" stroke-width="5" stroke-miterlimit="10" d="M298.16,128.388c0,0-5.782-11.499,2.996-13.9
			s32.005-6.18,35.337-1.674c3.334,4.506,4,14.463,0,15.151S299.988,134.834,298.16,128.388z"/>
		<g>
			<path fill="#A78C95" d="M363.317,101.033c-0.859-1.163-2.311-1.974-4.389-2.481c-2.535,0.497-4.764,1.008-6.397,1.455
				c-1.787,0.489-2.359,1.361-2.634,1.976c-0.141,0.312-0.236,0.652-0.299,1.011c0.965-0.046,1.906-0.076,2.802-0.076
				c5.853,0,6.896,1.088,6.897,1.089c1.344,1.816,2.232,5.081,2.252,7.835c1.611-0.064,3.287-0.176,4.986-0.328
				C366.447,107.82,365.275,103.68,363.317,101.033z"/>
			<path fill="#A78C95" d="M358.884,116.904c-1.902,0-3.929-0.074-5.788-0.376c-5.908,0.928-13.867,1.975-20.113,1.975
				c-5.986,0-7.416-0.998-7.632-1.186l-0.142-0.341c-0.68-1.364-2.36-5.835-1.215-8.395c0.275-0.614,0.848-1.487,2.635-1.976
				c3.877-1.061,11.062-2.48,17.906-3.209c0.07-1.169-1.226-1.752-0.735-2.853c0.245-0.55,0.015-1.549,0.497-2.151
				c-7.83,0.649-14.353,2.123-18.987,3.391c-3.54,0.968-5.154,3.129-5.886,4.771c-2.172,4.879,0.58,11.137,1.223,12.474
				c1.356,3.959,7.285,4.475,12.336,4.475c9.807,0,23.379-2.414,27.838-3.208l0.91-0.161c1.806-0.311,2.39-0.993,3.194-2.966
				C362.538,117.359,361.043,116.904,358.884,116.904z"/>
		</g>
	</g>
	<g>
		<path fill="#765353" d="M111.431,360.124c0,0-9.694,1.361-10.847,8.848c-1.151,7.487,4.733,8.832,4.733,8.832l-0.803,5.767
			c0,0,16.735,7.673,26.557,9.784c0.102-5.758-0.443-14.495-0.443-14.495s7.572-2.372,7.487-7.39
			c-0.063-3.744-3.065-6.684-6.542-7.423L111.431,360.124z"/>
		<path fill="#4A3939" d="M105.317,377.804c0,0,7.266,1.92,9.186,1.92c-4.99,2.592-9.695,1.92-9.695,1.92L105.317,377.804z"/>
		<ellipse fill="#E0D3B2" cx="253.393" cy="465.664" rx="43.09" ry="18.206"/>
		<path fill="#3F3232" d="M286.93,422.731c0,0,4.261,15.359,2.484,24.76c-1.109,5.875-6.516,13.058-11.02,15.717
			c-8.896,5.25-34.767,1.947-64.528-8.571c-4.499-14.591,1.842-33.635,1.842-33.635L286.93,422.731z"/>
		<path fill="#4F3838" d="M212.264,441.657c0.031,0.104,0.057,0.207,0.088,0.309c29.761,10.52,55.631,13.822,64.527,8.57
			c3.549-2.092,9.721-7.884,12.729-13.121c-0.695-7.531-2.678-14.684-2.678-14.684l-71.222-1.729
			C215.708,421.002,212.461,430.761,212.264,441.657z"/>
		<linearGradient id="SVGID_3_" gradientUnits="userSpaceOnUse" x1="222.9722" y1="404.7305" x2="284.638" y2="421.3968">
			<stop  offset="0" style="stop-color:#916969"/>
			<stop  offset="1" style="stop-color:#B97D69"/>
		</linearGradient>
		<path fill="url(#SVGID_3_)" d="M207.011,384.438c0,0,1.581,48.659,5.518,50.387s56.835,16.989,66.722,7.226
			c21.73-21.461,0.768-45.424-24.073-43.299c-19.501,1.668-14.968-22.619-14.968-22.619L207.011,384.438z"/>
		<path fill="#574646" d="M207.011,384.381c0,0,12.028,4.629,19.192,0.728c-7.52,9.634-18.904,6.439-18.904,6.439L207.011,384.381z"
			/>
		<path fill="none" stroke="#FAFAEC" stroke-miterlimit="10" d="M274.878,407.724c0,0-10.737,6.516-11.31,16.945"/>
		<path fill="none" stroke="#FAFAEC" stroke-miterlimit="10" d="M258.704,420.507c0,0,8.971-8.787,19.218-6.758"/>
		<path fill="none" stroke="#FAFAEC" stroke-miterlimit="10" d="M264.663,403.562c0,0-10.738,6.516-11.311,16.945"/>
		<path fill="none" stroke="#FAFAEC" stroke-miterlimit="10" d="M248.487,416.343c0,0,8.971-8.786,19.219-6.756"/>
		<path fill="none" stroke="#FAFAEC" stroke-miterlimit="10" d="M253.394,402.95c0,0-8.024,4.87-8.453,12.664"/>
		<path fill="none" stroke="#FAFAEC" stroke-miterlimit="10" d="M241.305,412.503c0,0,6.705-6.566,14.363-5.05"/>
		<path fill="#916969" d="M209.846,363.177c0,0-11.319,4.172-7.863,16.195c3.455,12.025,37.038,5.621,40.313-1.797
			c4.944-11.199-4.896-20.445-12.958-19.294S209.846,363.177,209.846,363.177z"/>
		<path fill="#4C2C26" d="M211.018,365.879c0,0-6.444,4.442-2.988,10.202c3.455,5.76,13.533,2.525,13.533,2.525L211.018,365.879z"/>
		<linearGradient id="SVGID_4_" gradientUnits="userSpaceOnUse" x1="204.064" y1="277.4062" x2="214.7304" y2="340.072">
			<stop  offset="0" style="stop-color:#EBB8AF"/>
			<stop  offset="1" style="stop-color:#F5DFBB"/>
		</linearGradient>
		<path fill="url(#SVGID_4_)" d="M194.308,306.599c0,0,11.732,47.348,13.49,51.111c1.758,3.762,2.717,21.61,6.92,21.778
			c14.872,0.595,20.411-6.087,20.411-6.087s-11.114-64.215-16.062-76.197C215.173,287.772,194.308,306.599,194.308,306.599z"/>
		<path fill="#4C2C26" d="M110.723,364.45c0,0-3.228-0.564-3.899,3.275c-0.935,5.348,3.882,3.738,6.98,4.989
			C116.518,366.286,110.723,364.45,110.723,364.45z"/>
		<linearGradient id="SVGID_5_" gradientUnits="userSpaceOnUse" x1="133.9746" y1="303.1113" x2="111.6955" y2="420.8727">
			<stop  offset="0" style="stop-color:#B1838A"/>
			<stop  offset="1" style="stop-color:#E1A998"/>
		</linearGradient>
		<path fill="url(#SVGID_5_)" d="M124.884,286.394c0,0-7.438,40.827-7.389,44.357c0.05,3.533-9.667,39.28-6.657,41.22
			c3.008,1.94,18.526,0.108,18.526,0.108s21.429-76.348,18.007-84.324C143.949,279.778,124.884,286.394,124.884,286.394z"/>
		<path fill="#398072" d="M233.539,158.805c0,0,23.573,46.142,25.246,33.94c1.673-12.2,2.091-17.635,2.091-17.635l20.904,5.884
			c0,0-4.6,38.482-12.125,38.249s-23.086-3.197-45.408-33.49C201.924,155.46,226.687,157.551,233.539,158.805z"/>
		<linearGradient id="SVGID_6_" gradientUnits="userSpaceOnUse" x1="38.3086" y1="209.0986" x2="108.5874" y2="209.0986">
			<stop  offset="0" style="stop-color:#A4324E"/>
			<stop  offset="1" style="stop-color:#87314E"/>
		</linearGradient>
		<path fill="url(#SVGID_6_)" d="M76.326,183.339c0,0-41.566,20.051-37.772,26.9c3.794,6.851,7.076,32.302,21.121,35.854
			c8.718-15.982,48.914-73.99,48.914-73.99L76.326,183.339z"/>
		<linearGradient id="SVGID_7_" gradientUnits="userSpaceOnUse" x1="136.873" y1="237.2539" x2="227.4491" y2="237.2539">
			<stop  offset="0.1068" style="stop-color:#93CEBA"/>
			<stop  offset="1" style="stop-color:#56B7B0"/>
		</linearGradient>
		<path fill="url(#SVGID_7_)" d="M228.819,166.412c0,0-0.123,38.278-1.158,45.02c-1.037,6.741,8.708,58.76,8.708,58.76
			s12.526,6.931,7.515,24.794c-3.291,11.732-95.211,32.288-131.402,0c-36.191-32.286,8.351-57.767,8.351-57.767l-5.114-75.024
			L228.819,166.412z"/>
		<g>
			<defs>
				<path id="SVGID_8_" d="M228.821,166.412c0,0-0.124,38.278-1.159,45.02c-1.037,6.741,8.708,58.76,8.708,58.76
					s12.525,6.931,7.514,24.794c-3.29,11.732-95.204,32.288-131.392,0c-36.188-32.286,8.352-57.767,8.352-57.767l-5.114-75.024
					L228.821,166.412z"/>
			</defs>
			<clipPath id="SVGID_9_">
				<use xlink:href="#SVGID_8_"  overflow="visible"/>
			</clipPath>
			<path clip-path="url(#SVGID_9_)" fill="none" stroke="#398072" stroke-width="5" stroke-miterlimit="10" d="M115.729,237.257
				c0,0,83.346,33.366,117.646,1.66"/>
			<path clip-path="url(#SVGID_9_)" fill="none" stroke="#9DD2C3" stroke-width="5" stroke-miterlimit="10" d="M114.661,230.051
				c0,0,85.205,36.723,119.505,5.018"/>
			<path clip-path="url(#SVGID_9_)" fill="none" stroke="#9DD2C3" stroke-width="2" stroke-miterlimit="10" d="M115.623,221.601
				c0,0,85.205,36.722,119.505,5.017"/>
			<path clip-path="url(#SVGID_9_)" fill="none" stroke="#398072" stroke-width="5" stroke-miterlimit="10" d="M240.358,264.163
				c0,0-18.744,34.912-97.06,14.424c0,0-20.228-7.109-22.733-20.278c-2.187-11.491-3.897-38.045-3.897-38.045"/>
			<path clip-path="url(#SVGID_9_)" fill="none" stroke="#398072" stroke-width="5" stroke-miterlimit="10" d="M156.669,281.677
				c-4.251-0.846-8.705-1.869-13.371-3.09c0,0-20.228-7.109-22.733-20.278c-2.187-11.491-3.897-38.045-3.897-38.045"/>
			<path clip-path="url(#SVGID_9_)" fill="none" stroke="#398072" stroke-width="5" stroke-miterlimit="10" d="M240.358,264.163
				c0,0-16.576,30.875-83.689,17.514"/>
			<path clip-path="url(#SVGID_9_)" fill="none" stroke="#398072" stroke-width="5" stroke-miterlimit="10" d="M167.286,284.363
				c0,0-6.584,8.888-2.874,27.95"/>
			<path clip-path="url(#SVGID_9_)" fill="none" stroke="#398072" stroke-width="5" stroke-miterlimit="10" d="M180.956,284.363
				c0,0-6.583,8.888-2.874,27.95"/>
			<path clip-path="url(#SVGID_9_)" fill="none" stroke="#398072" stroke-width="5" stroke-miterlimit="10" d="M197.781,283.485
				c0,0-4.858,8.888-1.148,27.949"/>
			<path clip-path="url(#SVGID_9_)" fill="none" stroke="#398072" stroke-width="5" stroke-miterlimit="10" d="M217.604,283.485
				c0,0,5.142,14.016-1.148,27.949"/>
		</g>
		<path fill="#398072" d="M159.808,282.454c-4.849-3.947-6.451-8.916-7.636-14.601c-1.013-4.862,3.375-19.349,6.284-23.696
			c13.306-19.895,28.448-45.635,28.448-45.635c-11.289-23.385-55.874-33.089-70.979-33.281l4.906,71.978
			c0,0-44.542,25.48-8.351,57.767c10.851,9.683,26.714,14.609,43.694,16.449C147.002,305.657,150.343,287.157,159.808,282.454z"/>
		<path fill="#398072" d="M82.71,204.334c0,0-19.868,44.879-11.834,45.883c8.034,1,27.129,15.426,46.371-68.233
			C136.488,98.327,82.71,204.334,82.71,204.334z"/>
		<linearGradient id="SVGID_10_" gradientUnits="userSpaceOnUse" x1="58.9888" y1="269.7803" x2="90.2207" y2="269.7803">
			<stop  offset="0" style="stop-color:#C88B8B"/>
			<stop  offset="1" style="stop-color:#E1A998"/>
		</linearGradient>
		<path fill="url(#SVGID_10_)" d="M66.479,260.021c0,0-9.328,18.611-7.166,19.567c2.163,0.956,19.702,10.29,23.003,8.939
			c3.302-1.351,8.458-16.851,7.855-25.868C89.57,253.644,67.53,242.786,66.479,260.021z"/>
		<path fill="#398072" d="M90.845,268.823c0,0,8.648-27.721,5.25-30.583c-3.396-2.859-22.661-9.333-24.843-5.691
			c-2.179,3.642-10.753,24.85-6.452,29.522C69.103,266.743,84.07,257.929,90.845,268.823z"/>
		<path fill="#398072" d="M165.588,233.236c0,0-5.144,9.458,1.127,15.523c-11.916,0.836-17.142-7.027-17.142-7.027L165.588,233.236z
			"/>
		<path fill="#398072" d="M229.774,165.553l-114.056-3.358l1.905,14.38c13.914,13.711,57.552,28.722,80.232,25.292
			c38.141-5.767,32.979-23.123,34.373-24.337C232.282,171.801,229.774,165.553,229.774,165.553z"/>
		<path fill="#D75161" d="M96.938,173.856c0,0-21.021,41.431-17.517,41.367c3.505-0.065,21.166,12.85,27.746,13.765
			c6.582,0.916,20.35-50.054,20.35-50.054l-17.223-22.449L96.938,173.856z"/>
		<path fill="#E06047" d="M56.85,198.522c0,0-0.783-9.511,7.212-10.295c7.996-0.783,11.107,4.224,11.289,8.937
			c0.078,2.038-2.512,7.081-4.393,5.2c2.491,1.308,8.636-0.515,13.274-10.688c11.066,4.722,3.348,12.033,3.348,12.033l-18.814,7.722
			C68.765,211.431,55.125,208.974,56.85,198.522z"/>
		<path fill="#A63939" d="M72.969,88.129c0,0-15.676,4.786-7.745,15.781c7.93,10.995,27.776,21.422,31.343,25.693
			c3.567,4.271,28.849,57.877-2.926,76.359c-31.775,18.481-37.21-1.168-36.792-7.441c6.133,12.874,18.735,15.151,26.3-3.502
			c7.565-18.655-9.577-41.513-30.482-51.407c-20.903-9.893-20.485-43.378-11.706-55.483C48.07,74.77,64.896,73.928,72.371,77.887
			C79.845,81.846,72.969,88.129,72.969,88.129z"/>
		<g>
			<g>
				<linearGradient id="SVGID_11_" gradientUnits="userSpaceOnUse" x1="98.6504" y1="202.3628" x2="98.6504" y2="202.3628">
					<stop  offset="0.2265" style="stop-color:#852E2E"/>
					<stop  offset="1" style="stop-color:#50282D"/>
				</linearGradient>
				<polygon fill="url(#SVGID_11_)" points="98.65,202.363 98.65,202.363 98.65,202.363 				"/>
				<linearGradient id="SVGID_12_" gradientUnits="userSpaceOnUse" x1="43.4673" y1="144.4297" x2="109.4668" y2="144.4297">
					<stop  offset="0.2265" style="stop-color:#852E2E"/>
					<stop  offset="1" style="stop-color:#50282D"/>
				</linearGradient>
				<path fill="url(#SVGID_12_)" d="M65.225,103.911c-7.932-10.996,7.745-15.781,7.745-15.781s0.208-0.192,0.511-0.524
					c-5.414,0.149-21.976,1.752-27.932,15.528c0,0-5.525,16.007,1.431,26.221c6.957,10.213,48.978,22.868,54.756,49.074
					c3.182,14.432,0.004,20.584-1.892,22.826c21.904-21.525,0.023-67.699-3.276-71.651
					C93.001,125.333,73.155,114.906,65.225,103.911z"/>
			</g>
		</g>
		<path fill="#E06047" d="M56.699,138.821c-12.066-5.98-13.646-21.048-13.646-21.048c-0.836-31.418,29.318-29.799,29.318-29.799
			l-1.097-10.598c-7.913-3.339-23.532-1.99-30.312,10.754c-8.779,12.105-9.198,45.591,11.706,55.483
			c11.347,5.37,21.573,14.562,27.353,24.823c0.002,0.001,0.003,0.001,0.004,0.001C79.161,163.227,68.765,144.8,56.699,138.821z"/>
		<linearGradient id="SVGID_13_" gradientUnits="userSpaceOnUse" x1="52.4019" y1="91.022" x2="64.0718" y2="157.859">
			<stop  offset="0" style="stop-color:#F3B4A1;stop-opacity:0"/>
			<stop  offset="1" style="stop-color:#EC6268"/>
		</linearGradient>
		<path opacity="0.6" fill="url(#SVGID_13_)" d="M56.699,138.821c-12.066-5.98-13.646-21.048-13.646-21.048
			c-0.836-31.418,29.318-29.799,29.318-29.799l-1.097-10.598c-7.913-3.339-23.532-1.99-30.312,10.754
			c-8.779,12.105-9.198,45.591,11.706,55.483c11.347,5.37,21.573,14.562,27.353,24.823c0.002,0.001,0.003,0.001,0.004,0.001
			C79.161,163.227,68.765,144.8,56.699,138.821z"/>
		<path fill="#E94646" d="M80.714,71.614c0,0-4.339-6.428-10.672-2.924c0,0-7.559,7.592-3.74,14.566
			c2.075,3.79,7.735,6.681,10.313,3.531C79.191,83.635,80.714,71.614,80.714,71.614z"/>
		<path fill="#A63939" d="M231.715,50.443c-2.52-9.85-13.709-24.243-21.979-29.204c-4.396-5.274-10.742-10.193-19.935-13.781
			C155.519-5.921,97.823-9.875,76.5,71.747c-7.943,43.577,23.831,46.72,23.831,46.72l74.782-46.72c0,0,12.062,0.435,23.568-2.39
			c1.653,19.005,5.631,39.64,14.303,55.634C228.088,116.452,237.756,74.063,231.715,50.443z"/>
		<linearGradient id="SVGID_14_" gradientUnits="userSpaceOnUse" x1="75.2251" y1="81.5" x2="171.8345" y2="81.5">
			<stop  offset="0.2265" style="stop-color:#852E2E"/>
			<stop  offset="1" style="stop-color:#50282D"/>
		</linearGradient>
		<path fill="url(#SVGID_14_)" d="M82.808,52.893c-0.061,0.007-0.118,0.02-0.179,0.027c-2.276,5.704-4.334,11.956-6.129,18.827
			c-7.943,43.577,23.831,46.72,23.831,46.72l24.863-15.534l46.641-58.4c0,0-81.155,31.265-83.147,48.222
			C78.32,83.596,79.046,62.011,82.808,52.893z"/>
		<path fill="#E06047" d="M98.208,25.6c0,0,55.039-36.248,98.074-0.745c13.181,14.377,19.059,23.675,22.368,37.641l14.693-1.232
			c-0.26-3.873-0.787-7.532-1.627-10.82c-2.52-9.85-13.709-24.243-21.979-29.204c-4.396-5.274-10.742-10.193-19.935-13.781
			C164.034-2.598,125.042-7.326,98.208,25.6L98.208,25.6z"/>
		<polygon fill="#852E2E" points="105.96,146.268 127.517,142.264 125.949,115.716 98.208,115.716 		"/>
		<path fill="#D75161" d="M224.544,126.676c0,0,11.664-0.764,14.8,8.523s2.205,30.072-36.84,43.667
			c-39.043,13.595-85.397,6.183-104.297-14.509c-21.708-23.767,27.33-38.07,27.33-38.07L224.544,126.676z"/>
		<path fill="#D75161" d="M224.544,126.676c0,0,11.664-0.764,14.8,8.523s2.205,30.072-36.84,43.667
			c-39.043,13.595-85.397,6.183-104.297-14.509c-21.708-23.767,27.33-38.07,27.33-38.07L224.544,126.676z"/>
		<linearGradient id="SVGID_15_" gradientUnits="userSpaceOnUse" x1="92.6626" y1="156.02" x2="240.4663" y2="156.02">
			<stop  offset="0.108" style="stop-color:#EA5B61"/>
			<stop  offset="1" style="stop-color:#D75161"/>
		</linearGradient>
		<path fill="url(#SVGID_15_)" d="M224.544,126.676c0,0,11.664-0.764,14.8,8.523s2.205,30.072-36.84,43.667
			c-39.043,13.595-85.397,6.183-104.297-14.509c-21.708-23.767,27.33-38.07,27.33-38.07L224.544,126.676z"/>
		<g>
			<linearGradient id="SVGID_16_" gradientUnits="userSpaceOnUse" x1="92.6626" y1="154.9609" x2="147.5146" y2="154.9609">
				<stop  offset="0" style="stop-color:#A4324E"/>
				<stop  offset="1" style="stop-color:#87314E"/>
			</linearGradient>
			<path fill="url(#SVGID_16_)" d="M98.208,164.357c4.181,4.578,9.563,8.802,16.055,11.997l11.878,4.967l12.693,2.314
				c-4.635-2.271-12.988-5.661-11.199-16.619c2.198-13.465,18.184-12.406,18.184-12.406c5.003-9.353-1.667-19.372-12.065-28.292
				l-8.216-0.032C125.537,126.287,76.5,140.59,98.208,164.357z"/>
			<linearGradient id="SVGID_17_" gradientUnits="userSpaceOnUse" x1="138.8335" y1="183.8369" x2="140.1309" y2="183.8369">
				<stop  offset="0" style="stop-color:#A4324E"/>
				<stop  offset="1" style="stop-color:#87314E"/>
			</linearGradient>
			<path fill="url(#SVGID_17_)" d="M140.131,184.039l-1.297-0.403c0.673,0.238,1.136,0.364,1.279,0.4
				C140.119,184.038,140.125,184.038,140.131,184.039z"/>
		</g>
		<path fill="#A63939" d="M205.602,40.539c2.809,4.506,11.958,15.475,13.545,20.396l7.937,4.317l8.187-1.739
			c-0.291-3.169-0.764-6.181-1.465-8.924c-1.037-4.054-7.037-22.256-22.152-32.072C206.895,23.509,205.602,35.605,205.602,40.539z"
			/>
		<path fill="#5B1D25" d="M223.846,134.315c0,0,5.254,0.826,5.254,4.506c0,3.679-9.707,8.043-9.707,8.043L223.846,134.315z"/>
		<path fill="#5B1D25" d="M127.517,132.356c0,0-10.044,3.331-9.312,9.21c0.456,3.651,9.43,7.257,9.43,7.257L127.517,132.356z"/>
		<path fill="#A63939" d="M215.637,28.107c0,0,20.38-8.108,15.258-12.185c-5.121-4.076-12.916,6.093-12.916,6.093
			s5.52-13.305,3.209-14.245c-2.312-0.94-9.932,0-9.932,0S206.602,22.211,215.637,28.107z"/>
		<path fill="#398072" d="M192.669,201.636c0,0-6.58-1.213-12.494,7.795c-10.763-8.695,3.811-16.354,3.811-16.354L192.669,201.636z"
			/>
		<path fill="#398072" d="M160.773,252.247c0,0-8.152,2.09-4.6,15.887c3.554,13.797,34.806,14.06,34.806,14.06
			c-11.706,2.509-43.586-3.399-43.586-3.399l-3.135-31.564C144.258,247.229,160.354,248.276,160.773,252.247z"/>
		<path fill="#E1A998" d="M254.709,129.354c0,0-8.781,4.703-5.993,9.562c1.655,2.886,16.534,12.911,16.534,12.911l-3.061-21.258
			L254.709,129.354z"/>
		<linearGradient id="SVGID_18_" gradientUnits="userSpaceOnUse" x1="252.9429" y1="139.3057" x2="285.8667" y2="139.3057">
			<stop  offset="0.0917" style="stop-color:#FEE4BC"/>
			<stop  offset="1" style="stop-color:#F5DFBB"/>
		</linearGradient>
		<path fill="url(#SVGID_18_)" d="M262.934,155.437c0,0-13.33-22.67-9.196-29.809s26.276-8.199,29.818-6.571
			c3.544,1.628,2.993,26.761-1.532,35.188C273.954,161.104,263.278,162.777,262.934,155.437z"/>
		<linearGradient id="SVGID_19_" gradientUnits="userSpaceOnUse" x1="242.9644" y1="169.5918" x2="320.0627" y2="169.5918">
			<stop  offset="0.1068" style="stop-color:#93CEBA"/>
			<stop  offset="1" style="stop-color:#56B7B0"/>
		</linearGradient>
		<path fill="url(#SVGID_19_)" d="M261.374,152.637c0,0-7.027,26.521-3.555,28.776c3.474,2.255,25.172,7.686,26.574,3.732
			c1.4-3.954,5.873-26.292,1.315-30.184C281.152,151.07,269.084,162.253,261.374,152.637z"/>
		<linearGradient id="SVGID_20_" gradientUnits="userSpaceOnUse" x1="172.165" y1="149.2046" x2="173.697" y2="89.8516">
			<stop  offset="0.0917" style="stop-color:#FEE4BC"/>
			<stop  offset="1" style="stop-color:#F5DFBB"/>
		</linearGradient>
		<path fill="url(#SVGID_20_)" d="M224.964,111.732c0.081-1.932-0.335-3.944-1.124-5.999c-1.15-6.667-6.401-32.138-32.038-38.226
			c-26.753-6.352-69.992-2.056-70.731,49.647c-0.023,1.698,0.049,3.231,0.247,4.633c-0.052,1.51-0.028,3.015,0.07,4.5
			c0.172,2.67,0.042,3.787-0.316,3.735c0.492,8.591,1.627,16.45,1.627,16.45c34.91,20.053,92.419,4.511,97.495-0.359
			C225.261,141.241,224.964,111.732,224.964,111.732z"/>
		<path fill="none" stroke="#EE726D" stroke-linecap="round" stroke-miterlimit="10" d="M215.34,130.991
			c0,0-6.32,4.735-17.211,6.579c-15.028,2.546-18.597,0.629-24.854-0.709"/>
		<path opacity="0.5" fill="#FFFFFF" d="M206.856,124.341c0,1.292-4.734,2.334-10.577,2.334c-5.837,0-10.573-1.042-10.573-2.334
			c0-1.287,4.736-2.331,10.573-2.331C202.122,122.01,206.856,123.054,206.856,124.341z"/>
		<path fill="#EE726D" d="M161.818,132.357c0,0-2.711,0.252-4.149,0c-1.44-0.249-1.977-2.883,0-3.392
			c2.237-0.571,5.271-0.249,6.066,0C164.537,129.218,168.052,131.608,161.818,132.357z"/>
		<path fill="#EE726D" d="M222.081,125.423c0,0-2.184,0.252-3.342,0c-1.16-0.249-1.594-2.884,0-3.392
			c1.802-0.571,4.245-0.249,4.887,0C224.272,122.283,227.104,124.672,222.081,125.423z"/>
		<path fill="#E1A998" d="M157.593,118.65c29.775-13.094,33.708-35.847,34.221-41.1c28.26,6.835,33.618,35.83,33.618,35.83
			c0.182-4.241-0.459-7.473-3.345-15.123c-3.071-10.255-10.769-26.115-30.285-30.75c-2.535-0.601-5.227-1.095-8.009-1.471
			l-4.46-5.732c0,0-2.057,1.877-5.338,4.983c-24.278-0.408-51.319,10.281-52.836,49.723c0.058-0.01,0.112-0.029,0.167-0.043
			c-1.597,10.979,1.374,31.504,1.374,31.504c34.91,20.053,92.419,4.511,97.495-0.359c1.185-1.141,2.077-3.644,2.748-6.791
			c-7.881,7.813-17.224,9.501-31.042,9.501c-18.677,0-33.219-7.503-38.604-19.616c0.083-0.036,0.166-0.063,0.247-0.107
			C151.432,123.578,155.263,120.146,157.593,118.65z"/>
		<linearGradient id="SVGID_21_" gradientUnits="userSpaceOnUse" x1="178.729" y1="108.3848" x2="121.7043" y2="114.2198">
			<stop  offset="0" style="stop-color:#C88B8B"/>
			<stop  offset="1" style="stop-color:#E1A998"/>
		</linearGradient>
		<path fill="url(#SVGID_21_)" d="M157.593,118.65c29.775-13.094,33.708-35.847,34.221-41.1c28.26,6.835,33.618,35.83,33.618,35.83
			c0.182-4.241-0.459-7.473-3.345-15.123c-3.071-10.255-10.769-26.115-30.285-30.75c-2.535-0.601-5.227-1.095-8.009-1.471
			l-4.46-5.732c0,0-2.057,1.877-5.338,4.983c-24.278-0.408-51.319,10.281-52.836,49.723c0.058-0.01,0.112-0.029,0.167-0.043
			c-1.597,10.979,1.374,31.504,1.374,31.504c36.984,20.803,92.419,4.511,97.495-0.359c1.185-1.141,2.077-3.644,2.748-6.791
			c-7.881,7.813-17.224,9.501-31.042,9.501c-18.677,0-33.219-7.503-38.604-19.616c0.083-0.036,0.166-0.063,0.247-0.107
			C151.432,123.578,155.263,120.146,157.593,118.65z"/>
		<linearGradient id="SVGID_22_" gradientUnits="userSpaceOnUse" x1="90.6797" y1="87.6035" x2="202.5054" y2="87.6035">
			<stop  offset="0.054" style="stop-color:#E24848"/>
			<stop  offset="1" style="stop-color:#EA6C48"/>
		</linearGradient>
		<path fill="url(#SVGID_22_)" d="M189.802,74.752c0,0-8.643,29.282-37.001,35.994c-29.684,7.026-57.132,11.254-48.038,25.05
			c-0.314,6.899-10.975,4.035-13.483-10.368c-2.509-14.403,1.316-35.854,41.767-57.786c40.45-21.931,47.035-29.456,48.289-31.024
			c7.212-2.822,19.991,2.509,19.873,6.585c-0.117,4.077,2.969,25.495,0.014,29.889c0,0-2.014,3.245-5.567,1.153
			C192.101,72.156,189.798,75.498,189.802,74.752z"/>
		<linearGradient id="SVGID_23_" gradientUnits="userSpaceOnUse" x1="195.6646" y1="55.9868" x2="192.4819" y2="92.588">
			<stop  offset="0.2265" style="stop-color:#852E2E"/>
			<stop  offset="1" style="stop-color:#50282D"/>
		</linearGradient>
		<path fill="url(#SVGID_23_)" d="M198.164,75.798c0,0,1.463-14.423,0-15.887c-1.464-1.463-6.481,1.021-6.481,5.318
			c-1.105,1.933-1.254,7.225-1.881,9.523C193.146,74.335,198.164,75.798,198.164,75.798z"/>
		<path fill="#5D413A" d="M170.423,112.183c0,0,1.574-2.517,4.011-0.889c2.433,1.624,1.862,10.404,0.86,12.033
			c-1.007,1.625-3.154,2.275-4.871,0C168.704,121.046,169.278,114.372,170.423,112.183z"/>
		<path fill="#5D413A" d="M211.811,107.857c0,0,1.158-2.122,2.955-0.749c1.792,1.368,1.372,8.765,0.635,10.138
			c-0.743,1.368-2.326,1.917-3.59,0C210.542,115.325,210.966,109.701,211.811,107.857z"/>
		<linearGradient id="SVGID_24_" gradientUnits="userSpaceOnUse" x1="224.8501" y1="99.1289" x2="219.8994" y2="65.5334">
			<stop  offset="0.054" style="stop-color:#E24848"/>
			<stop  offset="1" style="stop-color:#EA6C48"/>
		</linearGradient>
		<path fill="url(#SVGID_24_)" d="M219.903,95.046c0,0-2.299,1.778-0.627,3.659c1.672,1.882,19.232-3.24,21.113-22.68
			c1.882-19.442-11.289-30.729-19.023-30.102c-8.57,4.598-22.367,18.813-19.857,30.729c1.254,4.807,4.094,4.39,4.094,4.39
			l9.738-5.697L219.903,95.046z"/>
		<linearGradient id="SVGID_25_" gradientUnits="userSpaceOnUse" x1="218.7661" y1="68.481" x2="211.6048" y2="103.7573">
			<stop  offset="0.2265" style="stop-color:#852E2E"/>
			<stop  offset="1" style="stop-color:#50282D"/>
		</linearGradient>
		<path fill="url(#SVGID_25_)" d="M205.602,81.042c0,0,5.419-12.96,8.971-13.379c3.551-0.419,10.906,6.222,11.811,8.99
			c1.567,4.798-1.881,16.094-6.48,18.394C216.036,87.834,210.742,83.967,205.602,81.042z"/>
		<path fill="#E06047" d="M90.197,37.239c0,0,3.283,16.274,6.068,14.789c2.784-1.484,11.229-7.495,11.229-7.495
			s1.654,4.798,1.654,16.824c8.707-4.399,14.42-9.059,14.42-9.059s-5.862,11.625-13.734,14.381
			c-7.873,2.757-2.759-14.529-8.099-10.427c-5.34,4.102-11.056,9.03-11.056,9.03l-8.887-10.239L90.197,37.239z"/>
		<path fill="#E06047" d="M79.272,62.261c0.343,0.7,0.72,1.396,1.145,2.081c12.681-37.799,35.942-47.749,35.942-47.749l-9.005-0.434
			C96.112,25.839,86.271,40.596,79.272,62.261z"/>
		<linearGradient id="SVGID_26_" gradientUnits="userSpaceOnUse" x1="156.5767" y1="26.1055" x2="90.2695" y2="88.6995">
			<stop  offset="0" style="stop-color:#F3B4A1;stop-opacity:0"/>
			<stop  offset="1" style="stop-color:#EC6268"/>
		</linearGradient>
		<path opacity="0.6" fill="url(#SVGID_26_)" d="M196.281,24.855c-26.943-23.264-60.133-16.027-79.922-8.262l0,0
			c0,0-13.266,5.685-25.223,24.743c1.176,4.714,3.264,11.687,5.129,10.691c2.784-1.484,11.229-7.495,11.229-7.495
			s1.654,4.798,1.654,16.824c8.707-4.399,14.42-9.059,14.42-9.059s-5.862,11.625-13.734,14.381
			c-7.873,2.757-2.759-14.529-8.099-10.427c-5.34,4.102-11.056,9.03-11.056,9.03l-7.417-8.544c-0.992,2.404-1.948,4.926-2.846,7.604
			c-0.425-0.685-0.802-1.381-1.145-2.081c0.806-2.495,1.654-4.888,2.533-7.203l-0.012-0.014l0.083-0.174
			c2.492-6.534,5.268-12.359,8.277-17.535l0.045-0.096c0,0,0.002,0.012,0.003,0.015c2.529-4.34,5.225-8.217,8.053-11.684
			c-0.029,0.019-0.046,0.03-0.046,0.03c0.147-0.181,0.299-0.344,0.447-0.521c0.521-0.629,1.048-1.241,1.579-1.843
			c0.245-0.278,0.488-0.563,0.735-0.835c0.766-0.844,1.539-1.663,2.322-2.451c0.161-0.162,0.325-0.313,0.487-0.473
			c0.645-0.638,1.294-1.258,1.95-1.859c0.273-0.25,0.547-0.492,0.821-0.735c0.269-0.239,0.535-0.489,0.805-0.722l0.033,0.001
			c26.003-22.367,59.456-17.663,82.415-8.703c9.193,3.588,15.539,8.507,19.935,13.781c0,0,1.574,0.256,1.487,1.401
			c-4.993,3.268-5.376,13.452-5.376,13.452C202.614,32.06,196.281,24.855,196.281,24.855z"/>
		<path opacity="0.6" fill="none" stroke="#832E2F" stroke-width="2" stroke-linecap="round" stroke-miterlimit="10" d="
			M99.215,130.686c-4.501-17.15,19.374-26.316,19.374-26.316s41.218-18.176,49.818-38.108"/>
	</g>
</g>
</svg>
