<?xml version="1.0" encoding="utf-8"?>
<!-- Generator: Adobe Illustrator 16.0.0, SVG Export Plug-In . SVG Version: 6.00 Build 0)  -->
<!DOCTYPE svg PUBLIC "-//W3C//DTD SVG 1.1//EN" "http://www.w3.org/Graphics/SVG/1.1/DTD/svg11.dtd">
<svg version="1.1" id="Calque_1" xmlns="http://www.w3.org/2000/svg" xmlns:xlink="http://www.w3.org/1999/xlink" x="0px" y="0px"
	 width="364.667px" height="61.121px" viewBox="0 0 364.667 61.121" enable-background="new 0 0 364.667 61.121"
	 xml:space="preserve">
<linearGradient id="SVGID_1_" gradientUnits="userSpaceOnUse" x1="-222.0947" y1="40.0879" x2="-337.4413" y2="40.0879">
	<stop  offset="0" style="stop-color:#231C1F;stop-opacity:0"/>
	<stop  offset="1" style="stop-color:#231C1F"/>
</linearGradient>
<rect x="-329.712" y="9.527" fill="url(#SVGID_1_)" width="114.372" height="61.121"/>
<g>
	<rect fill="#4C353D" width="364.667" height="61.121"/>
	<g>
		<path fill="#FFF9E1" d="M50.242,20.19l6.643,19.754l-4.234,1.421l-1.566-4.611h-6.528l-1.421,4.611L38.9,39.944l6.643-19.754
			H50.242z M48.328,28.022l-0.378-2.146h-0.115l-0.378,2.146l-1.624,4.814h4.119L48.328,28.022z"/>
		<path fill="#FFF9E1" d="M60.94,20.19h12.125l3.713,3.741v13.111l-3.713,3.741H60.94V20.19z M71.122,24.396h-5.686v12.183h5.686
			l1.16-1.159v-9.863L71.122,24.396z"/>
		<path fill="#FFF9E1" d="M86.518,40.785l-6.557-19.782l4.149-1.393l4.206,12.676l0.377,2.146h0.115l0.378-2.146l4.206-12.676
			l4.146,1.393l-6.556,19.782H86.518z"/>
		<path fill="#FFF9E1" d="M101.595,20.19h14.302v4.206h-9.806v3.539h8.586v4.205h-8.586v4.438h9.806v4.206h-14.302V20.19z"/>
		<path fill="#FFF9E1" d="M125.03,40.785h-4.496V20.19h4.032l6.759,10.819l0.755,1.914h0.115l-0.318-1.943V20.19h4.496v20.595
			h-4.033l-6.758-10.818l-0.755-1.916h-0.116l0.319,1.942V40.785z"/>
		<path fill="#FFF9E1" d="M150.869,40.785h-4.496V24.396h-5.656V20.19h15.81v4.206h-5.655v16.389H150.869z"/>
		<path fill="#FFF9E1" d="M160.582,37.102V20.19h4.496V35.42l1.16,1.159h4.496l1.16-1.159V20.19h4.496v16.911l-3.713,3.684h-8.383
			L160.582,37.102z"/>
		<path fill="#FFF9E1" d="M198.171,38.349l-3.221,3.162l-8.182-8.384h-0.377v7.657h-4.495V20.19h12.589l3.221,3.19v6.556
			l-3.221,3.19h-1.045l-1.016-0.493l-0.059,0.088l1.018,0.725L198.171,38.349z M186.392,24.396v4.524h5.773l1.043-1.073V25.47
			l-1.043-1.073H186.392z"/>
		<path fill="#FFF9E1" d="M202.804,20.19h14.301v4.206H207.3v3.539h8.586v4.205H207.3v4.438h9.805v4.206h-14.301V20.19z"/>
		<path fill="#FFF9E1" d="M246.482,33.796l3.074,3.073l-3.916,3.916h-8.586l-3.713-3.713V23.903l3.713-3.713h8.383l3.713,3.713
			v3.829h-4.496v-2.176l-1.158-1.16H239l-1.16,1.16v9.862l1.16,1.159h4.697L246.482,33.796z"/>
		<path fill="#FFF9E1" d="M265.214,20.19h4.496v20.595h-4.496v-8.324h-6.816v8.324h-4.496V20.19h4.496v8.063h6.816V20.19z"/>
		<path fill="#FFF9E1" d="M285.109,20.19l6.643,19.754l-4.234,1.421l-1.566-4.611h-6.525l-1.422,4.611l-4.234-1.421l6.641-19.754
			H285.109z M283.195,28.022l-0.379-2.146h-0.115l-0.377,2.146l-1.625,4.814h4.119L283.195,28.022z"/>
		<path fill="#FFF9E1" d="M294.937,40.785v-3.916h2.785V24.106h-2.785V20.19h10.064v3.916h-2.783v12.763h2.783v3.916H294.937z"/>
		<path fill="#FFF9E1" d="M314.425,40.785h-4.496V20.19h4.033l6.758,10.819l0.754,1.914h0.117l-0.32-1.943V20.19h4.496v20.595
			h-4.031l-6.758-10.818l-0.756-1.915h-0.115l0.318,1.942V40.785z"/>
	</g>
</g>
</svg>
