<?xml version="1.0" encoding="utf-8"?>
<!-- Generator: Adobe Illustrator 16.0.0, SVG Export Plug-In . SVG Version: 6.00 Build 0)  -->
<!DOCTYPE svg PUBLIC "-//W3C//DTD SVG 1.1//EN" "http://www.w3.org/Graphics/SVG/1.1/DTD/svg11.dtd">
<svg version="1.1" id="Calque_1" xmlns="http://www.w3.org/2000/svg" xmlns:xlink="http://www.w3.org/1999/xlink" x="0px" y="0px"
	 width="194.731px" height="194.731px" viewBox="0 0 194.731 194.731" enable-background="new 0 0 194.731 194.731"
	 xml:space="preserve">
<g>
	<circle fill="#FAFAEC" cx="97.366" cy="97.366" r="97.366"/>
	<radialGradient id="SVGID_1_" cx="97.3662" cy="97.3667" r="79.6514" gradientUnits="userSpaceOnUse">
		<stop  offset="0" style="stop-color:#BBDAAB"/>
		<stop  offset="1" style="stop-color:#6FC1AA"/>
	</radialGradient>
	<circle fill="url(#SVGID_1_)" cx="97.366" cy="97.366" r="79.652"/>
	<path fill="#54A688" d="M134.607,167.788c7.39-4.574,18.593-12.969,24.115-19.633L151.49,45.432
		c-14.139-12.825-32.904-20.641-53.496-20.641c-21.43,0-40.867,8.479-55.184,22.244l8.096,115.01
		c4.506,3.242,13.097,7.566,18.24,9.822L134.607,167.788z"/>
	<path fill="#524A48" d="M158.795,151.055c0.215,3.064-2.096,5.725-5.162,5.941l-97.152,6.84c-3.065,0.215-5.726-2.098-5.942-5.162
		L43.245,54.597c-0.215-3.067,2.095-5.728,5.162-5.943l97.154-6.838c3.064-0.217,5.725,2.095,5.941,5.16L158.795,151.055z"/>
	<path fill="#524A48" d="M158.602,148.295l-7.74-109.94c-14.139-12.825-32.904-20.641-53.496-20.641
		c-21.43,0-40.867,8.479-55.184,22.244l8.357,118.715c0.216,3.064,2.876,5.377,5.942,5.162l93.357-6.572
		C152.985,154.504,155.922,151.512,158.602,148.295z"/>
	<linearGradient id="SVGID_2_" gradientUnits="userSpaceOnUse" x1="99.374" y1="50.3726" x2="102.7161" y2="134.2329">
		<stop  offset="0.296" style="stop-color:#D99587"/>
		<stop  offset="1" style="stop-color:#BD7973"/>
	</linearGradient>
	<path fill="url(#SVGID_2_)" d="M56.291,29.115l6.26,107.934l82.324-4.771L138.908,29.4c-12.096-7.409-26.318-11.686-41.542-11.686
		C82.338,17.715,68.285,21.882,56.291,29.115z"/>
	<ellipse fill="#766562" cx="105.718" cy="146.588" rx="6.686" ry="7.174"/>
	<path fill="#A65858" d="M143.77,113.204l-1.088-18.745c-7.143-2.717-28.094-9.562-34.266,0.974l35.189,17.697
		C143.605,113.129,143.674,113.161,143.77,113.204z"/>
	<g>
		<path fill="#A65858" d="M124.546,77.579c0,12.013-9.739,21.751-21.753,21.751c-12.015,0-21.754-9.739-21.754-21.751
			c0-12.017,9.739-21.755,21.754-21.755C114.807,55.824,124.546,65.562,124.546,77.579z"/>
		<circle fill="#873132" cx="102.792" cy="77.579" r="17.855"/>
		<g>
			<path fill="#CD625D" d="M120.647,74.179c0,9.859-7.995,17.854-17.854,17.854c-9.861,0-17.855-7.994-17.855-17.854
				c0-9.863,7.995-17.856,17.855-17.856C112.652,56.322,120.647,64.315,120.647,74.179z"/>
			<circle fill="#E99A78" cx="95.31" cy="64.943" r="1.271"/>
			<g>
				<defs>
					<path id="SVGID_3_" d="M120.647,74.179c0,9.859-7.995,17.854-17.854,17.854c-9.861,0-17.855-7.994-17.855-17.854
						c0-9.863,7.995-17.856,17.855-17.856C112.652,56.322,120.647,64.315,120.647,74.179z"/>
				</defs>
				<clipPath id="SVGID_4_">
					<use xlink:href="#SVGID_3_"  overflow="visible"/>
				</clipPath>
				<radialGradient id="SVGID_5_" cx="94.0967" cy="63.73" r="18.239" gradientUnits="userSpaceOnUse">
					<stop  offset="0" style="stop-color:#D97344"/>
					<stop  offset="0.8336" style="stop-color:#D74D3C;stop-opacity:0"/>
				</radialGradient>
				<path opacity="0.2" clip-path="url(#SVGID_4_)" fill="url(#SVGID_5_)" d="M112.336,63.731c0,10.069-8.164,18.237-18.241,18.237
					c-10.071,0-18.238-8.168-18.238-18.237c0-10.075,8.167-18.24,18.238-18.24C104.172,45.491,112.336,53.656,112.336,63.731z"/>
				<radialGradient id="SVGID_6_" cx="97.1089" cy="66.7412" r="13.842" gradientUnits="userSpaceOnUse">
					<stop  offset="0" style="stop-color:#D97344"/>
					<stop  offset="0.8336" style="stop-color:#D74D3C;stop-opacity:0"/>
				</radialGradient>
				<path opacity="0.3" clip-path="url(#SVGID_4_)" fill="url(#SVGID_6_)" d="M110.951,66.743c0,7.646-6.199,13.84-13.842,13.84
					c-7.648,0-13.842-6.193-13.842-13.84c0-7.647,6.194-13.844,13.842-13.844C104.752,52.899,110.951,59.096,110.951,66.743z"/>
				<radialGradient id="SVGID_7_" cx="94.6016" cy="64.0601" r="8.7009" gradientUnits="userSpaceOnUse">
					<stop  offset="0" style="stop-color:#D97344"/>
					<stop  offset="0.8336" style="stop-color:#D74D3C;stop-opacity:0"/>
				</radialGradient>
				<circle opacity="0.2" clip-path="url(#SVGID_4_)" fill="url(#SVGID_7_)" cx="94.601" cy="64.06" r="8.7"/>
			</g>
		</g>
	</g>
	<path fill="#873132" d="M119.58,80.211l-23-7.681c0,0-4.411,5.066,1.686,13.066c1.741,2.287,6.087,5.944,8.458,7.589
		C114.389,93.111,117.121,87.044,119.58,80.211z"/>
	<linearGradient id="SVGID_8_" gradientUnits="userSpaceOnUse" x1="143.9053" y1="90.7129" x2="94.9762" y2="67.0596">
		<stop  offset="0" style="stop-color:#CE9A96"/>
		<stop  offset="1" style="stop-color:#F6AD8B"/>
	</linearGradient>
	<path fill="url(#SVGID_8_)" d="M144.412,101.368c0,0-31.737-9.224-42.347-19.137c-10.609-9.914-5.739-16.995-1.044-18.585
		c4.175-0.72,6.436,0,6.436,0s12.174,11.122,45.914,18.071C153.545,95.274,146.484,101.995,144.412,101.368z"/>
	<path fill="#FBDBDB" d="M110.704,75.158c0,0,4.661-1.971,5.229-6.028c0,0-2.205-1.687-5.099-4.187
		c-3.046-2.631-6.847-6.107-9.29-7.178C95.712,60.201,93.776,67.274,110.704,75.158z"/>
	<path fill="#A07576" d="M153.371,81.717c0,0-9.037-0.308-11.298,8.041c-2.261,8.348,0.304,10.747,2.802,11.639
		c5.891,2.281,10.315-5.167,10.793-9.78C156.145,87.007,156.243,82.809,153.371,81.717z"/>
	<path fill="#8A6868" d="M150.155,88.44c0,0-2.992-0.102-3.741,2.662c-0.748,2.764,0.101,3.56,0.927,3.854
		c1.951,0.755,3.416-1.711,3.573-3.237C151.072,90.191,151.106,88.802,150.155,88.44z"/>
</g>
</svg>
