<?xml version="1.0" encoding="utf-8"?>
<!-- Generator: Adobe Illustrator 16.0.0, SVG Export Plug-In . SVG Version: 6.00 Build 0)  -->
<!DOCTYPE svg PUBLIC "-//W3C//DTD SVG 1.1//EN" "http://www.w3.org/Graphics/SVG/1.1/DTD/svg11.dtd">
<svg version="1.1" id="Calque_1" xmlns="http://www.w3.org/2000/svg" xmlns:xlink="http://www.w3.org/1999/xlink" x="0px" y="0px"
	 width="438.617px" height="125.632px" viewBox="0 0 438.617 125.632" enable-background="new 0 0 438.617 125.632"
	 xml:space="preserve">
<path fill="#CCCAB9" d="M413.724,74.888c-1.656-7.717-15.119-9.126-31.482-9.126c-15.406,0-28.533,2.249-31.381,9.126h-62.102
	c-1.74-5.879-12.42-6.982-25.369-6.982c-12.164,0-22.564,1.735-25.219,6.982h-62.237c-1.739-5.879-12.42-6.982-25.368-6.982
	c-12.165,0-22.564,1.735-25.219,6.982H63.212c-1.658-7.717-15.12-9.126-31.482-9.126c-15.887,0-29.351,2.391-31.619,9.783
	c-0.228,0.741-0.035,4.784-0.035,5.559c0,8.472,14.172,15.341,31.654,15.341c17.481,0,31.653-6.869,31.653-15.341
	c0-0.204-0.008-1.067-0.025-2.089h61.534c0.017,0.602,0.034,1.109,0.034,1.318c0,6.863,11.479,12.428,25.64,12.428
	c14.161,0,25.641-5.564,25.641-12.428c0-0.14-0.005-0.661-0.014-1.318h61.523c0.016,0.602,0.033,1.109,0.033,1.318
	c0,6.863,11.48,12.428,25.641,12.428c14.162,0,25.641-5.564,25.641-12.428c0-0.14-0.004-0.661-0.014-1.318h61.52
	c0.021,0.939,0.053,1.778,0.053,2.089c0,8.472,14.17,15.341,31.652,15.341s31.652-6.869,31.652-15.341
	C413.894,80.562,413.837,75.417,413.724,74.888z"/>
<linearGradient id="SVGID_1_" gradientUnits="userSpaceOnUse" x1="55.6387" y1="72.7046" x2="410.4038" y2="72.7046">
	<stop  offset="0" style="stop-color:#3F9285"/>
	<stop  offset="1" style="stop-color:#49A98D"/>
</linearGradient>
<rect x="55.639" y="70.641" fill="url(#SVGID_1_)" width="354.765" height="4.127"/>
<linearGradient id="SVGID_2_" gradientUnits="userSpaceOnUse" x1="415.8667" y1="76.8921" x2="443.2043" y2="76.8921">
	<stop  offset="0" style="stop-color:#CCCAB9"/>
	<stop  offset="0.8777" style="stop-color:#CCCAB9;stop-opacity:0"/>
</linearGradient>
<rect x="404.617" y="74.768" fill="url(#SVGID_2_)" width="34" height="4.247"/>
<linearGradient id="SVGID_3_" gradientUnits="userSpaceOnUse" x1="414.8667" y1="72.7046" x2="438.8994" y2="72.7046">
	<stop  offset="0" style="stop-color:#3F9285"/>
	<stop  offset="1" style="stop-color:#49A98D;stop-opacity:0"/>
</linearGradient>
<rect x="148.03" y="70.641" fill="url(#SVGID_3_)" width="290.586" height="4.127"/>
<linearGradient id="SVGID_4_" gradientUnits="userSpaceOnUse" x1="0" y1="76.8569" x2="63.3833" y2="76.8569">
	<stop  offset="0" style="stop-color:#3F9285"/>
	<stop  offset="1" style="stop-color:#49A98D"/>
</linearGradient>
<path fill="url(#SVGID_4_)" d="M63.383,76.857c0,8.472-14.172,15.341-31.653,15.341c-17.482,0-31.654-6.869-31.654-15.341
	c0-0.774-0.193-4.817,0.035-5.559c2.268-7.393,15.732-9.783,31.619-9.783c16.362,0,29.824,1.408,31.482,9.126
	C63.325,71.169,63.383,76.314,63.383,76.857z"/>
<ellipse fill="#69BFAA" cx="31.73" cy="68.748" rx="31.653" ry="15.342"/>
<linearGradient id="SVGID_5_" gradientUnits="userSpaceOnUse" x1="25.249" y1="68.7476" x2="38.2109" y2="68.7476">
	<stop  offset="0" style="stop-color:#3F9285"/>
	<stop  offset="1" style="stop-color:#49A98D"/>
</linearGradient>
<ellipse opacity="0.7" fill="url(#SVGID_5_)" cx="31.73" cy="68.748" rx="6.481" ry="3.43"/>
<ellipse fill="none" stroke="#4CB798" stroke-width="2" stroke-miterlimit="10" cx="31.73" cy="68.748" rx="26.071" ry="11.943"/>
<linearGradient id="SVGID_6_" gradientUnits="userSpaceOnUse" x1="350.5132" y1="76.8569" x2="413.894" y2="76.8569">
	<stop  offset="0" style="stop-color:#3F9285"/>
	<stop  offset="1" style="stop-color:#49A98D"/>
</linearGradient>
<path fill="url(#SVGID_6_)" d="M413.894,76.857c0,8.472-14.17,15.341-31.652,15.341s-31.652-6.869-31.652-15.341
	c0-0.774-0.193-4.817,0.035-5.559c2.266-7.393,15.73-9.783,31.617-9.783c16.363,0,29.826,1.408,31.482,9.126
	C413.837,71.169,413.894,76.314,413.894,76.857z"/>
<ellipse fill="#69BFAA" cx="382.242" cy="68.748" rx="31.652" ry="15.342"/>
<ellipse fill="none" stroke="#4CB798" stroke-width="2" stroke-miterlimit="10" cx="382.242" cy="68.748" rx="26.07" ry="11.943"/>
<linearGradient id="SVGID_7_" gradientUnits="userSpaceOnUse" x1="124.8638" y1="76.0854" x2="176.207" y2="76.0854">
	<stop  offset="0" style="stop-color:#3F9285"/>
	<stop  offset="1" style="stop-color:#49A98D"/>
</linearGradient>
<path fill="url(#SVGID_7_)" d="M176.207,76.085c0,6.863-11.479,12.428-25.641,12.428c-14.161,0-25.64-5.564-25.64-12.428
	c0-0.627-0.157-3.901,0.027-4.502c1.838-5.988,12.744-7.926,25.613-7.926c13.254,0,24.159,1.143,25.502,7.395
	C176.161,71.48,176.207,75.648,176.207,76.085z"/>
<ellipse fill="#69BFAA" cx="150.567" cy="69.518" rx="25.64" ry="12.428"/>
<linearGradient id="SVGID_8_" gradientUnits="userSpaceOnUse" x1="143.7979" y1="71.0776" x2="157.2734" y2="71.0776">
	<stop  offset="0" style="stop-color:#3F9285"/>
	<stop  offset="1" style="stop-color:#49A98D"/>
</linearGradient>
<ellipse opacity="0.7" fill="url(#SVGID_8_)" cx="150.536" cy="71.078" rx="6.738" ry="3.43"/>
<path fill="#C6804A" d="M157.273,69.541c0,1.802-3.013,3.262-6.73,3.262c-3.716,0-6.729-1.46-6.729-3.262
	c0-0.164-0.041-1.025,0.007-1.182c0.482-1.571,3.345-2.08,6.722-2.08c3.479,0,6.343,0.299,6.694,1.939
	C157.261,68.332,157.273,69.425,157.273,69.541z"/>
<ellipse fill="#F2CC53" cx="150.544" cy="67.818" rx="6.729" ry="3.26"/>
<path fill="none" stroke="#FFE8AF" stroke-width="0.5" stroke-miterlimit="10" d="M155.65,67.818c0,1.134-2.286,2.053-5.107,2.053
	c-2.819,0-5.105-0.919-5.105-2.053c0-1.137,2.286-2.056,5.105-2.056C153.364,65.762,155.65,66.681,155.65,67.818z"/>
<g>
	<path fill="#4CB798" d="M150.566,80.136c-12.371,0-22.061-4.664-22.061-10.618s9.69-10.618,22.061-10.618
		c12.371,0,22.062,4.664,22.062,10.618S162.938,80.136,150.566,80.136z M150.566,60.788c-10.934,0-20.173,3.999-20.173,8.73
		c0,4.732,9.239,8.731,20.173,8.731c10.937,0,20.175-3.999,20.175-8.731C170.741,64.787,161.503,60.788,150.566,60.788z"/>
</g>
<linearGradient id="SVGID_9_" gradientUnits="userSpaceOnUse" x1="237.688" y1="76.0854" x2="289.0308" y2="76.0854">
	<stop  offset="0" style="stop-color:#3F9285"/>
	<stop  offset="1" style="stop-color:#49A98D"/>
</linearGradient>
<path fill="url(#SVGID_9_)" d="M289.031,76.085c0,6.863-11.479,12.428-25.641,12.428c-14.16,0-25.641-5.564-25.641-12.428
	c0-0.627-0.156-3.901,0.029-4.502c1.836-5.988,12.744-7.926,25.611-7.926c13.254,0,24.16,1.143,25.502,7.395
	C288.984,71.48,289.031,75.648,289.031,76.085z"/>
<ellipse fill="#69BFAA" cx="263.39" cy="69.518" rx="25.641" ry="12.428"/>
<linearGradient id="SVGID_10_" gradientUnits="userSpaceOnUse" x1="256.6226" y1="71.0776" x2="270.0972" y2="71.0776">
	<stop  offset="0" style="stop-color:#3F9285"/>
	<stop  offset="1" style="stop-color:#49A98D"/>
</linearGradient>
<ellipse opacity="0.7" fill="url(#SVGID_10_)" cx="263.36" cy="71.078" rx="6.737" ry="3.43"/>
<linearGradient id="SVGID_11_" gradientUnits="userSpaceOnUse" x1="367.4468" y1="68.4888" x2="397.7417" y2="68.4888">
	<stop  offset="0" style="stop-color:#3F9285"/>
	<stop  offset="1" style="stop-color:#49A98D"/>
</linearGradient>
<ellipse opacity="0.7" fill="url(#SVGID_11_)" cx="382.594" cy="68.489" rx="15.147" ry="8.279"/>
<path fill="#C6804A" d="M270.128,69.541c0,1.802-3.014,3.262-6.73,3.262s-6.729-1.46-6.729-3.262c0-0.164-0.041-1.025,0.006-1.182
	c0.482-1.571,3.346-2.08,6.723-2.08c3.479,0,6.342,0.299,6.693,1.939C270.115,68.332,270.128,69.425,270.128,69.541z"/>
<ellipse fill="#F2CC53" cx="263.391" cy="67.818" rx="6.729" ry="3.26"/>
<path fill="#C6804A" d="M270.128,66.624c0,1.802-3.014,3.263-6.73,3.263s-6.729-1.461-6.729-3.263c0-0.163-0.041-1.024,0.006-1.181
	c0.482-1.572,3.346-2.08,6.723-2.08c3.479,0,6.342,0.299,6.693,1.939C270.115,65.416,270.128,66.509,270.128,66.624z"/>
<ellipse fill="#F2CC53" cx="263.391" cy="64.901" rx="6.729" ry="3.261"/>
<path fill="#C6804A" d="M270.128,63.707c0,1.803-3.014,3.264-6.73,3.264s-6.729-1.461-6.729-3.264c0-0.163-0.041-1.023,0.006-1.18
	c0.482-1.572,3.346-2.08,6.723-2.08c3.479,0,6.342,0.299,6.693,1.939C270.115,62.5,270.128,63.592,270.128,63.707z"/>
<g>
	<path fill="#4CB798" d="M263.39,80.136c-12.371,0-22.062-4.664-22.062-10.618S251.019,58.9,263.39,58.9s22.062,4.664,22.062,10.618
		S275.761,80.136,263.39,80.136z M263.39,60.788c-10.936,0-20.174,3.999-20.174,8.73c0,4.732,9.238,8.731,20.174,8.731
		s20.176-3.999,20.176-8.731C283.566,64.787,274.326,60.788,263.39,60.788z"/>
</g>
<ellipse fill="#F2CC53" cx="263.391" cy="61.984" rx="6.729" ry="3.262"/>
<ellipse fill="none" stroke="#FFE8AF" stroke-width="0.5" stroke-miterlimit="10" cx="263.39" cy="61.984" rx="5.105" ry="2.055"/>
<linearGradient id="SVGID_12_" gradientUnits="userSpaceOnUse" x1="51.7979" y1="32.2612" x2="51.7979" y2="64.8313" gradientTransform="matrix(0.9989 -0.0465 0.0465 0.9989 -20.0084 1.8534)">
	<stop  offset="0.1096" style="stop-color:#EB595C"/>
	<stop  offset="1" style="stop-color:#D8495B"/>
</linearGradient>
<path fill="url(#SVGID_12_)" d="M30.881,66.869c0,0-14.532-19.736-13.909-31.43c0.622-11.693,10.032-19.513,21.992-16.186
	c11.226,3.122,19.154,18.792-4.395,45.403C34.57,64.656,31.839,68.297,30.881,66.869z M37.611,34.042c0,0,1.093-4.716-3.617-5.664
	c-4.71-0.947-6.852,6.297-3.675,8.774C33.497,39.627,37.64,36.446,37.611,34.042z"/>
<circle fill="#F28E7F" cx="42.386" cy="27.083" r="1.554"/>
<g>
	<path fill="#D37E5C" d="M386.726,34.024c0,0,8.365-8.364,5.869-15.554c0,0-7.213-3.522-10.137-1.321
		c-2.924,2.202-7.385,3.962-7.867,3.668c-0.045,3.375,0,5.226,0,5.226s-1.512-0.531-2.1-3.318c-3.814,2.935-4.842,5.135-4.842,5.135
		s4.049,6.849,9.803,6.947C383.205,34.904,386.726,34.024,386.726,34.024z"/>
	<linearGradient id="SVGID_13_" gradientUnits="userSpaceOnUse" x1="385.5112" y1="34.2559" x2="373.2351" y2="37.1344">
		<stop  offset="0" style="stop-color:#F2CC53"/>
		<stop  offset="1" style="stop-color:#F2AD53"/>
	</linearGradient>
	<path fill="url(#SVGID_13_)" d="M376.324,38.451c0,0-1.998-0.758-1.705-3.179c0.295-2.423,2.615-2.37,3.789-3.103
		c1.174-0.734,7.512-1.447,9.197,1.561c1.688,3.008,0.955,3.521-0.586,4.035C385.478,38.279,376.324,38.451,376.324,38.451z"/>
	<linearGradient id="SVGID_14_" gradientUnits="userSpaceOnUse" x1="375.1157" y1="66.3667" x2="395.4354" y2="40.5146">
		<stop  offset="0.1607" style="stop-color:#D37E5C"/>
		<stop  offset="1" style="stop-color:#DE945B"/>
	</linearGradient>
	<path fill="url(#SVGID_14_)" d="M379.388,36.669c0,0-14.674,6.306-13.5,23.622c1.176,17.314,25.002,15.475,30.432,7.307
		C402.951,57.62,394.943,31.676,379.388,36.669z"/>
	<path opacity="0.4" fill="#593F46" d="M386.353,69.138c-11.055,1.016-17.822-9.28-16.875-16.438
		c0.521-3.948,1.504-8.727,3.615-11.613c-3.816,3.665-7.842,9.812-7.205,19.203c1.176,17.314,25.002,15.475,30.432,7.307
		c1.352-2.032,2.908-6.082,2.236-11.682C397.742,65.085,392.097,68.611,386.353,69.138z"/>
	<g opacity="0.5">
		<path fill="#9E6743" d="M378.808,61.805c-0.402-0.127-0.756-0.263-1.061-0.41l-0.295-3.33h2.137l0.494,1.854
			c0.107,0.04,0.211,0.077,0.311,0.11c0.098,0.033,0.195,0.063,0.289,0.09l0.816-3.411c-0.598-0.146-1.145-0.306-1.641-0.479
			c-0.498-0.172-0.92-0.395-1.27-0.668c-0.35-0.272-0.623-0.611-0.822-1.016c-0.195-0.406-0.295-0.916-0.295-1.526
			c0-0.638,0.119-1.189,0.357-1.657c0.242-0.464,0.572-0.846,0.998-1.146c0.426-0.299,0.941-0.521,1.547-0.668
			c0.604-0.145,1.271-0.218,2.004-0.218c0.172,0,0.34,0.002,0.498,0.009c0.16,0.007,0.32,0.017,0.479,0.03l0.52-1.976h1.275
			l-0.559,2.195c0.189,0.027,0.371,0.06,0.551,0.1c0.178,0.04,0.373,0.086,0.588,0.14l1.414-0.558v4.168h-2.055l-0.438-1.656
			c-0.199-0.093-0.406-0.166-0.619-0.22l-0.357,1.516c-0.094,0.385-0.176,0.731-0.252,1.039c-0.072,0.305-0.107,0.464-0.107,0.477
			c0.705,0.159,1.32,0.336,1.844,0.528c0.525,0.194,0.959,0.432,1.297,0.72c0.34,0.284,0.594,0.644,0.758,1.075
			c0.166,0.433,0.25,0.968,0.25,1.606c0,1.224-0.414,2.175-1.24,2.854s-2.121,1.016-3.881,1.016c-0.346,0-0.68-0.02-0.998-0.059
			l-0.68,2.752h-1.279l0.719-2.931C379.642,62.047,379.21,61.931,378.808,61.805z M382.697,51.332
			c-0.066-0.006-0.133-0.008-0.199-0.008c-0.877,0-1.488,0.122-1.834,0.369c-0.346,0.245-0.52,0.602-0.52,1.065
			c0,0.228,0.031,0.421,0.09,0.58c0.061,0.16,0.162,0.299,0.311,0.418c0.146,0.121,0.348,0.231,0.607,0.331s0.596,0.202,1.006,0.308
			l0.74-3.052C382.83,51.342,382.763,51.34,382.697,51.332z M382.138,60.379c0.107,0,0.213,0,0.32,0
			c0.465,0,0.848-0.042,1.146-0.121s0.535-0.189,0.709-0.328c0.172-0.14,0.287-0.31,0.348-0.51c0.059-0.199,0.09-0.419,0.09-0.657
			c0-0.506-0.15-0.889-0.449-1.148c-0.297-0.259-0.84-0.495-1.625-0.708l-0.836,3.43C381.933,60.366,382.033,60.379,382.138,60.379z
			"/>
	</g>
	<g>
		<path fill="#FFDC7C" d="M378.808,60.642c-0.402-0.127-0.756-0.263-1.061-0.41l-0.295-3.33h2.137l0.494,1.854
			c0.107,0.04,0.211,0.077,0.311,0.11c0.098,0.033,0.195,0.063,0.289,0.09l0.816-3.411c-0.598-0.147-1.145-0.307-1.641-0.48
			c-0.498-0.172-0.92-0.394-1.27-0.668c-0.35-0.272-0.623-0.611-0.822-1.016c-0.195-0.406-0.295-0.916-0.295-1.526
			c0-0.638,0.119-1.189,0.357-1.657c0.242-0.464,0.572-0.846,0.998-1.146c0.426-0.299,0.941-0.521,1.547-0.668
			c0.604-0.146,1.271-0.218,2.004-0.218c0.172,0,0.34,0.002,0.498,0.009c0.16,0.006,0.32,0.017,0.479,0.03l0.52-1.975h1.275
			l-0.559,2.195c0.189,0.027,0.371,0.06,0.551,0.1c0.178,0.04,0.373,0.085,0.588,0.14l1.414-0.558v4.168h-2.055l-0.438-1.656
			c-0.199-0.092-0.406-0.166-0.619-0.219l-0.357,1.516c-0.094,0.385-0.176,0.732-0.252,1.039c-0.072,0.306-0.107,0.465-0.107,0.478
			c0.705,0.159,1.32,0.336,1.844,0.528c0.525,0.194,0.959,0.433,1.297,0.719c0.34,0.284,0.594,0.644,0.758,1.076
			c0.166,0.433,0.25,0.968,0.25,1.606c0,1.223-0.414,2.175-1.24,2.853c-0.826,0.679-2.121,1.017-3.881,1.017
			c-0.346,0-0.68-0.02-0.998-0.06l-0.68,2.753h-1.279l0.719-2.932C379.642,60.884,379.21,60.768,378.808,60.642z M382.697,50.168
			c-0.066-0.005-0.133-0.008-0.199-0.008c-0.877,0-1.488,0.122-1.834,0.37c-0.346,0.245-0.52,0.602-0.52,1.064
			c0,0.228,0.031,0.421,0.09,0.58c0.061,0.16,0.162,0.299,0.311,0.418c0.146,0.121,0.348,0.231,0.607,0.331
			c0.26,0.099,0.596,0.201,1.006,0.308l0.74-3.052C382.83,50.18,382.763,50.177,382.697,50.168z M382.138,59.216
			c0.107,0,0.213,0,0.32,0c0.465,0,0.848-0.041,1.146-0.121c0.299-0.079,0.535-0.189,0.709-0.328
			c0.172-0.14,0.287-0.309,0.348-0.509c0.059-0.2,0.09-0.419,0.09-0.657c0-0.506-0.15-0.889-0.449-1.148
			c-0.297-0.259-0.84-0.495-1.625-0.708l-0.836,3.43C381.933,59.203,382.033,59.216,382.138,59.216z"/>
	</g>
</g>
<g>
	<g>
		<path fill="none" stroke="#7B6D6D" stroke-width="3" stroke-miterlimit="10" d="M64.937,32.628c0,0,0.707-1.053,2.149-2.756"/>
		<path fill="none" stroke="#7B6D6D" stroke-width="3" stroke-miterlimit="10" stroke-dasharray="7.15,7.15" d="M72.018,24.7
			c3.806-3.583,9.184-7.843,16.223-11.588c15.982-8.504,39.194-20.215,52.826-1.957c13.05,17.48-14.019,31.804-20.201,37.225
			c-11.797,10.342-17.088,26.346-10.098,40.952c4.501,9.403,14.958,7.887,21.835,5.612"/>
		<path fill="none" stroke="#7B6D6D" stroke-width="3" stroke-miterlimit="10" d="M135.954,93.686
			c1.948-0.819,3.164-1.488,3.164-1.488"/>
	</g>
</g>
<g>
	<g>
		<path fill="none" stroke="#7B6D6D" stroke-width="3" stroke-miterlimit="10" d="M166.693,54.772c0,0,0.596-1.19,1.745-3.03"/>
		<path fill="none" stroke="#7B6D6D" stroke-width="3" stroke-miterlimit="10" stroke-dasharray="6.6706,6.6706" d="M172.28,46.293
			c4.507-5.687,11.609-12.452,20.823-14.246c17.513-3.411,29.513,5.452,30.429,16.333c0.861,10.21-10.097,33.565,1.418,43.817
			c6.363,5.665,13.551,3.423,18.354,0.549"/>
		<path fill="none" stroke="#7B6D6D" stroke-width="3" stroke-miterlimit="10" d="M246.06,90.863
			c1.328-1.031,2.242-1.934,2.582-2.35"/>
	</g>
</g>
<path fill="none" stroke="#7B6D6D" stroke-width="3" stroke-miterlimit="10" d="M363.394,37.374c0,0-1.217,8.533-1.68,8.819
	c-0.736,0.456-7.562-3.416-7.562-3.416"/>
<g>
	<g>
		<path fill="none" stroke="#7B6D6D" stroke-width="3" stroke-miterlimit="10" d="M357.728,38.451
			c-0.562-1.063-1.148-2.073-1.754-3.031"/>
		<path fill="none" stroke="#7B6D6D" stroke-width="3" stroke-miterlimit="10" stroke-dasharray="6.564,6.564" d="M352.041,30.172
			c-9.766-10.971-22.449-12.241-29.188-11.729c-8.156,0.619-26.793,7.176-37.4,19.055c0,0-4.049,5.528-7.99,10.613"/>
		<path fill="none" stroke="#7B6D6D" stroke-width="3" stroke-miterlimit="10" d="M275.437,50.693
			c-0.785,0.986-1.533,1.908-2.209,2.713"/>
	</g>
</g>
<g>
	<path fill="none" d="M270.806,52.434"/>
</g>
<g>
	<path fill="#9F313B" d="M31.502,105.664h-1.584l-0.072,0.096v8.281c0,0.703-0.068,1.34-0.204,1.908s-0.368,1.055-0.695,1.463
		c-0.328,0.408-0.776,0.721-1.345,0.936c-0.567,0.217-1.283,0.324-2.147,0.324c-1.36,0-2.344-0.164-2.952-0.492
		c-0.608-0.326-0.912-0.883-0.912-1.668c0-0.479,0.108-0.83,0.324-1.055s0.58-0.336,1.092-0.336c0.608,0,1.036,0.088,1.284,0.264
		s0.452,0.424,0.612,0.744l0.048,0.072c0.159,0.031,0.336,0.047,0.527,0.047c0.192,0,0.353-0.023,0.48-0.072
		c0.128-0.047,0.228-0.143,0.3-0.287s0.124-0.344,0.156-0.6s0.048-0.592,0.048-1.008v-8.328l-0.048-0.096l-2.184-0.576v-1.992h7.271
		V105.664z"/>
	<path fill="#9F313B" d="M33.47,118.289v-2.377h2.4c0-0.016,0.008-0.031,0.023-0.047c0.017-0.016,0.024-0.033,0.024-0.049v-6.168
		l-2.592-0.119l-0.048-1.729l5.783-1.297v9.24c0,0.033,0.017,0.064,0.049,0.096l2.231,0.672v1.777H33.47z"/>
</g>
<g>
	<path fill="#EC6665" d="M31.502,104.039h-1.584l-0.072,0.096v8.281c0,0.703-0.068,1.34-0.204,1.908s-0.368,1.055-0.695,1.463
		c-0.328,0.408-0.776,0.721-1.345,0.936c-0.567,0.217-1.283,0.324-2.147,0.324c-1.36,0-2.344-0.164-2.952-0.492
		c-0.608-0.326-0.912-0.883-0.912-1.668c0-0.479,0.108-0.83,0.324-1.055s0.58-0.336,1.092-0.336c0.608,0,1.036,0.088,1.284,0.264
		s0.452,0.424,0.612,0.744l0.048,0.072c0.159,0.031,0.336,0.047,0.527,0.047c0.192,0,0.353-0.023,0.48-0.072
		c0.128-0.047,0.228-0.143,0.3-0.287s0.124-0.344,0.156-0.6s0.048-0.592,0.048-1.008v-8.328l-0.048-0.096l-2.184-0.576v-1.992h7.271
		V104.039z"/>
	<path fill="#EC6665" d="M33.47,116.664v-2.377h2.4c0-0.016,0.008-0.031,0.023-0.047c0.017-0.016,0.024-0.033,0.024-0.049v-6.168
		l-2.592-0.119l-0.048-1.729l5.783-1.297v9.24c0,0.033,0.017,0.064,0.049,0.096l2.231,0.672v1.777H33.47z"/>
</g>
<g>
	<path fill="#9F313B" d="M375.234,105.664h-1.584l-0.072,0.096v8.281c0,0.703-0.068,1.34-0.203,1.908
		c-0.137,0.568-0.369,1.055-0.695,1.463c-0.328,0.408-0.777,0.721-1.346,0.936c-0.566,0.217-1.283,0.324-2.146,0.324
		c-1.361,0-2.344-0.164-2.953-0.492c-0.607-0.326-0.912-0.883-0.912-1.668c0-0.479,0.109-0.83,0.324-1.055
		c0.217-0.225,0.58-0.336,1.092-0.336c0.609,0,1.037,0.088,1.285,0.264s0.451,0.424,0.611,0.744l0.049,0.072
		c0.158,0.031,0.336,0.047,0.527,0.047s0.352-0.023,0.48-0.072c0.127-0.047,0.227-0.143,0.299-0.287s0.125-0.344,0.156-0.6
		c0.033-0.256,0.049-0.592,0.049-1.008v-8.328l-0.049-0.096l-2.184-0.576v-1.992h7.271V105.664z"/>
	<path fill="#9F313B" d="M382.507,113.583v4.057h-1.824v-4.057h-3.961l0.072-1.848h3.889v-4.031h1.824v4.031h3.863l0.072,1.848
		H382.507z"/>
	<path fill="#9F313B" d="M394.267,113.583v4.057h-1.824v-4.057h-3.961l0.072-1.848h3.889v-4.031h1.824v4.031h3.863l0.072,1.848
		H394.267z"/>
</g>
<g>
	<path fill="#EC6665" d="M375.234,104.039h-1.584l-0.072,0.096v8.281c0,0.703-0.068,1.34-0.203,1.908
		c-0.137,0.568-0.369,1.055-0.695,1.463c-0.328,0.408-0.777,0.721-1.346,0.936c-0.566,0.217-1.283,0.324-2.146,0.324
		c-1.361,0-2.344-0.164-2.953-0.492c-0.607-0.326-0.912-0.883-0.912-1.668c0-0.479,0.109-0.83,0.324-1.055
		c0.217-0.225,0.58-0.336,1.092-0.336c0.609,0,1.037,0.088,1.285,0.264s0.451,0.424,0.611,0.744l0.049,0.072
		c0.158,0.031,0.336,0.047,0.527,0.047s0.352-0.023,0.48-0.072c0.127-0.047,0.227-0.143,0.299-0.287s0.125-0.344,0.156-0.6
		c0.033-0.256,0.049-0.592,0.049-1.008v-8.328l-0.049-0.096l-2.184-0.576v-1.992h7.271V104.039z"/>
	<path fill="#EC6665" d="M382.507,111.958v4.057h-1.824v-4.057h-3.961l0.072-1.848h3.889v-4.031h1.824v4.031h3.863l0.072,1.848
		H382.507z"/>
	<path fill="#EC6665" d="M394.267,111.958v4.057h-1.824v-4.057h-3.961l0.072-1.848h3.889v-4.031h1.824v4.031h3.863l0.072,1.848
		H394.267z"/>
</g>
</svg>
