<?xml version="1.0" encoding="utf-8"?>
<!-- Generator: Adobe Illustrator 16.0.0, SVG Export Plug-In . SVG Version: 6.00 Build 0)  -->
<!DOCTYPE svg PUBLIC "-//W3C//DTD SVG 1.1//EN" "http://www.w3.org/Graphics/SVG/1.1/DTD/svg11.dtd">
<svg version="1.1" id="Calque_1" xmlns="http://www.w3.org/2000/svg" xmlns:xlink="http://www.w3.org/1999/xlink" x="0px" y="0px"
	 width="241.995px" height="259.175px" viewBox="0 0 241.995 259.175" enable-background="new 0 0 241.995 259.175"
	 xml:space="preserve">
<g>
	<path opacity="0.8" fill="#553138" d="M32.975,258.273L52.686,84.035l167.979-0.567c0,0,21.338,3.768,21.331,29.003
		c-0.008,35.447-69.104,146.704-69.104,146.704h-26.174l-1.938-32.319l-60.426-3.549L55.593,257.55L32.975,258.273z"/>
	<path fill="none" stroke="#4D4872" stroke-width="11" stroke-linecap="round" stroke-miterlimit="10" d="M135.36,85
		c0,0,25.117,54.601,86.115,57.868"/>
	<linearGradient id="SVGID_1_" gradientUnits="userSpaceOnUse" x1="0" y1="129.1362" x2="162.0781" y2="129.1362">
		<stop  offset="0.0607" style="stop-color:#474C88"/>
		<stop  offset="1" style="stop-color:#685388"/>
	</linearGradient>
	<path fill="url(#SVGID_1_)" d="M161.292,193.255l-12.36-81.915c0,0-7.043-25.051-14.665-42.59h0.002
		C111.125,6.549,96.602,0.563,86.073,0.009c-8.1-0.427-7.346,15.207-6.567,22.448c-21.703-0.595-37.609,4.217-49.054,13.651
		c-2.104-6.254-8.328-22.328-15.332-17.425C6.483,24.729-7.904,41.961,5.41,106.979l0-0.001
		c1.013,43.466,17.768,102.791,17.768,102.791s6.077,49.447,16.476,48.457c10.399-0.99,9.917-8.726,12.097-42.179
		c1.167-8.53,15.757-9.633,15.757-9.633l0.004-0.001l58.393,0.221l3.64,0.192c0,0,8.402,52.123,25.204,51.44
		c0,0,9.438,1.822,6.895-58.979L161.292,193.255z"/>
	<path fill="none" stroke="#404273" stroke-width="11" stroke-linecap="round" stroke-miterlimit="10" d="M10.149,112.471
		c0,0,17.027,69.304,83.204,63.946"/>
	<path fill="#716498" d="M75.844,80.621c21.091,0,38.189-14.515,38.189-32.42c0-3.893-0.81-7.624-2.292-11.082
		c-8.835-8.422-19.223-14.222-31.21-14.642c-13.111-0.461-24.122,1.038-33.342,4.303c-5.93,5.713-9.536,13.208-9.536,21.421
		C37.654,66.105,54.752,80.621,75.844,80.621z"/>
	<path fill="#FAFAEC" d="M48.712,97.435c0,0,48.109-11.644,55.171-12.212c4.325,17.223-2.925,30.961-18.681,34.769
		C85.203,119.992,55.393,128.439,48.712,97.435z"/>
	<path fill="#FAFAEC" d="M46.188,79.222c0.765,3.57-1.541,7.089-5.149,7.862c-3.608,0.773-7.152-1.493-7.917-5.062
		c-0.765-3.573,1.54-7.093,5.148-7.864C41.878,73.384,45.422,75.65,46.188,79.222z"/>
	
		<ellipse transform="matrix(0.9778 -0.2094 0.2094 0.9778 -11.9573 22.4499)" fill="#FAFAEC" cx="100.032" cy="67.689" rx="6.681" ry="6.61"/>
</g>
</svg>
