<?xml version="1.0" encoding="utf-8"?>
<!-- Generator: Adobe Illustrator 16.0.0, SVG Export Plug-In . SVG Version: 6.00 Build 0)  -->
<!DOCTYPE svg PUBLIC "-//W3C//DTD SVG 1.1//EN" "http://www.w3.org/Graphics/SVG/1.1/DTD/svg11.dtd">
<svg version="1.1" id="Calque_1" xmlns="http://www.w3.org/2000/svg" xmlns:xlink="http://www.w3.org/1999/xlink" x="0px" y="0px"
	 width="283px" height="344.574px" viewBox="0 0 283 344.574" enable-background="new 0 0 283 344.574" xml:space="preserve">
<g>
	<ellipse fill="#A3C0A7" cx="138.806" cy="333.024" rx="57.867" ry="11.55"/>
	<circle fill="#F8F9F4" cx="139.991" cy="127.454" r="82.42"/>
	<circle fill="#F8F9F4" cx="139.99" cy="127.454" r="72.843"/>
	<g>
		<path fill="none" stroke="#EDA569" stroke-width="3" stroke-miterlimit="10" d="M66.015,216.946c0,0,28.601,27.156,73.952,27.156
			c50.518,0,79.082-32.967,79.082-32.967"/>
		<g>
			<path fill="#EDA569" d="M51.365,69.437c-5.328,0-10.254-3.534-12.551-9.006c-2.16-5.152-1.312-10.584,2.215-14.176
				c3.062-3.117,7.075-4.765,11.606-4.765c1.481,0,2.885,0.171,4.147,0.426c-0.847-4.991-0.493-10.601,4.997-15.457
				c2.824-2.499,5.864-3.767,9.039-3.767c4.279,0,8.522,2.477,11.353,6.627c2.625,3.843,3.47,8.237,2.208,11.459
				c-2.746,7.02-8.021,10.885-14.863,10.885c-1.485,0-2.907-0.184-4.183-0.45c0.917,5.059,0.587,10.477-5.134,14.927
				C57.391,68.325,54.417,69.437,51.365,69.437z M52.636,47.615c-2.931,0-5.296,0.96-7.232,2.936
				c-2.66,2.703-1.391,6.429-0.938,7.509c1.095,2.613,3.655,5.248,6.899,5.248c1.656,0,3.363-0.677,5.072-2.003
				c4.058-3.157,3.589-6.736,2.029-12.541C57.17,48.273,55,47.615,52.636,47.615z M63.612,44.331
				c1.244,0.488,3.485,1.205,5.904,1.205c4.323,0,7.315-2.286,9.155-6.989c0.422-1.075,0.016-3.462-1.562-5.774
				c-1.688-2.476-4.04-3.952-6.292-3.952c-1.632,0-3.309,0.749-4.979,2.227C61.733,34.679,62.102,38.588,63.612,44.331z"/>
		</g>
		<g>
			<path fill="#EDA569" d="M95.578,36.164c-6.864,0-11.997-4.507-13.069-11.482c-0.925-6.003,1.696-13.2,8.49-15.341
				c1.586-0.502,3.2-0.757,4.797-0.757c4.703,0,8.503,2.141,11.152,4.314c1.594-4.804,4.541-9.587,11.667-11.3
				c7.188-1.732,13.284,1.48,15.712,8.043c2.096,5.661,1.03,12.199-2.48,15.208c-3.498,3.003-7.197,4.526-10.996,4.526
				c-4.474,0-8.152-2.12-10.719-4.253c-1.566,4.896-4.401,9.527-11.541,10.771C97.565,36.073,96.55,36.164,95.578,36.164z
				 M95.795,14.714c-0.971,0-1.965,0.157-2.95,0.469c-3.507,1.104-4.807,5.147-4.282,8.566c0.229,1.474,1.405,6.287,7.015,6.287
				c0.621,0,1.28-0.058,1.963-0.179c5.064-0.881,6.331-4.261,7.678-10.122C103.689,17.978,100.242,14.714,95.795,14.714z
				 M111.842,18.239c1.402,1.635,4.8,5.01,9.01,5.01c2.294,0,4.65-1.026,7.008-3.046c1.347-1.157,1.958-5.093,0.723-8.433
				c-0.765-2.065-2.438-4.528-6.074-4.528c-0.762,0-1.59,0.105-2.464,0.315C114.717,8.837,113.205,12.458,111.842,18.239z"/>
		</g>
		<g>
			<path fill="#EDA569" d="M176.586,33.62c-8.085,0-12.545-5.358-14.674-10.47c-2.762,2.696-6.037,4.869-10.455,4.869
				c-1.526,0-3.13-0.272-4.767-0.808c-8.386-2.742-10.462-9.45-9.606-14.813C138.054,6.304,143.265,0,150.302,0
				c0.714,0,1.44,0.069,2.15,0.198c7.079,1.312,10.641,6.45,12.391,10.642c2.884-2.765,6.452-5.083,11.324-5.083
				c1.38,0,2.828,0.193,4.302,0.574c6.513,1.684,10.34,6.421,10.235,12.674c-0.104,6.502-4.443,12.944-9.469,14.07
				C179.626,33.436,178.062,33.62,176.586,33.62z M166.67,17.85c0.596,2.749,2.794,9.642,9.916,9.642
				c1.023,0,2.139-0.134,3.309-0.395c1.797-0.403,4.616-4.101,4.684-8.194c0.058-3.422-1.844-5.655-5.642-6.637
				c-0.977-0.254-1.907-0.381-2.77-0.381C172.428,11.885,169.861,14.21,166.67,17.85z M150.302,6.129
				c-3.715,0-6.611,3.755-7.165,7.234c-0.354,2.214-0.113,6.202,5.46,8.023c1.021,0.336,1.982,0.504,2.86,0.504
				c3.376,0,5.897-2.62,8.674-5.832c-0.637-2.748-2.709-8.709-8.794-9.831C150.991,6.162,150.643,6.129,150.302,6.129z"/>
		</g>
		<g>
			<path fill="#EDA569" d="M223.424,63.875c-0.794,0-1.551-0.103-2.261-0.296c-5.185-1.436-8.821-4.192-10.815-8.196
				c-1.635-3.29-1.811-6.816-1.522-9.67c-1.784,0.523-3.601,0.877-5.456,0.877c-3.748,0-7.085-1.498-9.921-4.455
				c-4.161-4.346-5.337-9.674-3.224-14.625c2.24-5.251,7.96-9.065,13.597-9.065c2.757,0,5.33,0.891,7.438,2.576
				c5.627,4.488,6.347,10.696,5.918,15.22c1.776-0.499,3.636-0.843,5.556-0.843c3.872,0,7.258,1.381,10.353,4.226
				c4.413,4.062,5.825,9.264,3.87,14.276C234.812,59.399,228.74,63.875,223.424,63.875z M215.497,43.278
				c-0.531,1.904-1.341,6.029,0.352,9.402c1.202,2.4,3.479,4.034,6.948,4.992c0.179,0.048,0.387,0.074,0.627,0.074
				c2.521,0,6.489-2.651,7.822-6.07c1.03-2.644,0.253-5.183-2.312-7.542c-1.937-1.778-3.907-2.608-6.202-2.608
				C220.417,41.524,217.868,42.375,215.497,43.278z M203.821,24.575c-3.24,0-6.661,2.296-7.963,5.343
				c-1.133,2.659-0.438,5.415,2.016,7.976c1.702,1.778,3.397,2.568,5.495,2.568c2.182,0,4.614-0.845,7.19-1.841
				c0.732-2.719,1.714-8.951-3.124-12.809C206.409,24.989,205.194,24.575,203.821,24.575z"/>
		</g>
		<g>
			<path fill="#EDA569" d="M249.689,111.82c-3.222,0-5.995-0.947-7.805-2.666c-3.904-3.694-5.821-7.84-5.702-12.311
				c0.101-3.675,1.606-6.875,3.201-9.259c-5.032-1.053-9.93-3.397-11.901-10.373c-1.659-5.868,0.087-9.869,1.842-12.189
				c2.593-3.429,6.957-5.475,11.676-5.475c5.503,0,10.143,2.829,12.114,7.382c2.86,6.61,0.579,12.433-1.922,16.226
				c4.949,1.09,10.024,3.523,12.463,10.45c2.032,5.769,0.467,9.788-1.2,12.145C259.842,109.438,254.834,111.82,249.689,111.82z
				 M246.408,88.578c-1.361,1.43-4.012,4.694-4.101,8.461c-0.064,2.683,1.181,5.193,3.793,7.67c0.501,0.477,1.708,0.982,3.589,0.982
				c2.637,0,6.06-1.077,7.762-3.48c1.213-1.714,1.357-3.923,0.425-6.573C256.055,90.469,252.298,89.338,246.408,88.578z M241,65.673
				c-2.767,0-5.368,1.165-6.789,3.043c-1.334,1.765-1.612,4.062-0.832,6.827c1.398,4.951,4.89,5.861,10.864,6.6
				c1.92-2.062,5.704-7.104,3.248-12.779C246.01,65.939,242.147,65.673,241,65.673z"/>
		</g>
		<g>
			<path fill="#EDA569" d="M252.433,167.159c-6.147,0-12.146-3.525-13.655-8.029c-1.709-5.098-1.456-9.658,0.752-13.551
				c1.81-3.197,4.641-5.315,7.168-6.67c-3.948-3.293-7.171-7.661-5.635-14.746c1.481-6.842,6.441-11.096,12.939-11.096
				c4.226,0,8.428,1.821,11.243,4.872c2.381,2.581,3.544,5.842,3.274,9.184c-0.573,7.18-5.324,11.249-9.316,13.421
				c3.859,3.285,7.196,7.818,6.097,15.074C264.227,162.736,259.295,167.159,252.433,167.159z M252.433,143.082
				c-1.872,0.627-5.744,2.263-7.589,5.547c-1.315,2.342-1.4,5.138-0.253,8.555c0.594,1.781,4.151,3.847,7.842,3.847
				c3.883,0,6.176-2.128,6.808-6.33C260.062,149.28,257.274,146.517,252.433,143.082z M254.002,119.191
				c-2.088,0-5.77,0.816-6.949,6.269c-1.091,5.025,1.565,7.469,6.488,10.923c2.664-0.915,8.38-3.584,8.872-9.754
				c0.167-2.072-0.817-3.609-1.672-4.535C259.09,120.305,256.509,119.191,254.002,119.191z"/>
		</g>
		<g>
			<path fill="#EDA569" d="M227.171,216.946c-4.056,0-8.29-2.14-11.322-5.724c-2.572-3.038-3.766-6.474-3.271-9.427
				c1.492-8.964,7.498-14.118,16.484-14.143c-1.939-4.76-2.731-10.128,1.947-15.661c3.71-4.388,7.742-5.306,10.472-5.306
				c4.969,0,9.866,3.087,12.48,7.861c2.365,4.318,2.328,9.159-0.096,12.952c-3.098,4.847-8.115,7.437-14.519,7.493
				c1.858,4.708,2.668,10.273-1.704,16.152C234.085,215.939,229.985,216.946,227.171,216.946z M229.129,193.782
				c-6.058,0-9.496,2.952-10.509,9.023c-0.153,0.92,0.376,2.655,1.902,4.457c1.858,2.195,4.405,3.555,6.648,3.555
				c2.048,0,3.915-1.119,5.554-3.326c3.269-4.398,2.104-8.146-0.555-13.451C231.422,193.912,230.349,193.782,229.129,193.782z
				 M236.288,188.641c0.735,0.115,1.723,0.224,2.837,0.224c4.378,0,7.599-1.571,9.576-4.667c1.732-2.704,0.497-5.594-0.113-6.708
				c-1.531-2.798-4.39-4.68-7.106-4.68c-2.083,0-4.032,1.058-5.792,3.14C232.368,179.876,233.564,183.281,236.288,188.641z"/>
		</g>
		<g>
			<path fill="#EDA569" d="M56.807,221.129c0,0,0,0-0.001,0c-3.92,0-7.348-1.594-9.658-4.473
				c-4.505-5.623-3.837-11.842-2.427-16.159c-0.472,0.025-0.942,0.035-1.417,0.035c-5.803,0-10.171-2.236-13.355-6.832
				c-3.109-4.494-3.604-9.303-1.382-13.537c2.835-5.413,9.082-8.248,13.786-8.248c1.694,0,3.204,0.351,4.49,1.039
				c4.739,2.534,7.684,6.025,8.746,10.371c0.874,3.568,0.269,7.049-0.64,9.766c0.55-0.032,1.099-0.054,1.645-0.054
				c5.648,0,9.757,2.269,12.567,6.932c2.826,4.682,3.079,9.574,0.717,13.76C67.375,218.151,62.124,221.129,56.807,221.129z
				 M51.695,199.63c-1.311,2.494-3.637,8.359,0.234,13.187c1.44,1.796,3.446,2.174,4.878,2.174l0,0c3.129,0,6.309-1.76,7.733-4.28
				c1.247-2.208,1.029-4.827-0.629-7.578c-1.698-2.817-3.819-3.968-7.32-3.968C55.066,199.165,53.423,199.374,51.695,199.63z
				 M42.351,178.045c-2.77,0-6.752,1.898-8.358,4.96c-1.141,2.182-0.807,4.604,0.995,7.205c2.034,2.939,4.52,4.192,8.315,4.192
				c1.441,0,2.92-0.163,4.604-0.403c0.934-1.741,2.63-5.586,1.722-9.244c-0.648-2.608-2.506-4.701-5.68-6.4
				C43.573,178.158,43.003,178.045,42.351,178.045z"/>
		</g>
		<g>
			<path fill="#EDA569" d="M30.101,172.911L30.101,172.911c-6.921,0-12.554-4.216-13.696-10.255
				c-1.334-7.075,2.173-12.256,5.45-15.405c-4.589-2.152-9.002-5.644-9.86-12.93c-0.633-5.386,1.242-8.771,2.925-10.664
				c2.515-2.831,6.493-4.453,10.909-4.453c4.72,0,8.864,1.812,10.82,4.728c2.995,4.464,3.955,8.932,2.854,13.266
				c-0.905,3.565-3.075,6.354-5.158,8.328c4.678,2.134,8.941,5.498,9.33,12.736c0.29,5.373-1.739,8.706-3.493,10.557
				C37.715,171.42,34.043,172.911,30.101,172.911z M28.41,149.767c-2.328,1.587-7.13,5.674-5.984,11.752
				c0.687,3.615,4.459,5.264,7.675,5.264l0,0c2.266,0,4.319-0.795,5.632-2.179c1.349-1.421,1.96-3.441,1.821-6.011
				C37.279,153.459,34.072,151.8,28.41,149.767z M25.829,125.333c-2.669,0-4.976,0.872-6.333,2.396
				c-1.233,1.389-1.708,3.365-1.414,5.877c0.637,5.442,4.054,7.372,9.629,9.408c1.643-1.098,4.947-3.697,5.859-7.352
				c0.654-2.606-0.005-5.328-2.011-8.318C30.906,126.368,28.674,125.333,25.829,125.333z"/>
		</g>
		<g>
			<path fill="#EDA569" d="M28.72,117.801c-4.605,0-9.231-2.4-12.072-6.261c-2.472-3.36-3.197-7.263-2.036-10.987
				c2.141-6.875,7.672-9.802,12.041-11.043c-3.039-4.055-5.298-9.213-2.632-16.047c2.181-5.59,6.517-8.797,11.896-8.797
				c6.999,0,14.165,5.441,14.748,11.197c0.547,5.332-0.691,9.715-3.679,13.023c-2.485,2.755-5.715,4.208-8.485,4.976
				c3.125,4.079,5.303,9.046,2.253,15.61C38.296,114.763,33.911,117.801,28.72,117.801z M31.264,94.807
				c-2.802,0.309-8.962,1.663-10.804,7.568c-0.725,2.33,0.21,4.296,1.122,5.535c1.684,2.285,4.483,3.762,7.138,3.762
				c2.786,0,5.022-1.653,6.479-4.783C37.36,102.229,35.308,99.261,31.264,94.807z M35.917,70.795c-2.837,0-4.92,1.646-6.188,4.895
				c-1.99,5.103,0.119,8.408,4.086,12.824c2.002-0.2,6.112-0.95,8.625-3.734c1.798-1.995,2.496-4.71,2.128-8.294
				C44.351,74.337,40.22,70.795,35.917,70.795z"/>
		</g>
	</g>
	<polygon fill="none" stroke="#5C4444" stroke-miterlimit="10" points="63.604,204.387 49.336,264.629 63.78,264.629 	"/>
	<polygon fill="none" stroke="#5C4444" stroke-linecap="round" stroke-linejoin="round" stroke-miterlimit="10" points="
		206.5,194.512 193.177,264.629 206.5,264.629 	"/>
	<g>
		<path fill="#E0A797" d="M173.799,120.057c0,4.742,2.451,8.587,5.474,8.587c3.023,0,5.479-3.845,5.479-8.587
			c0-4.748-2.456-8.592-5.479-8.592C176.25,111.465,173.799,115.31,173.799,120.057z"/>
		<linearGradient id="SVGID_1_" gradientUnits="userSpaceOnUse" x1="140.647" y1="141.4785" x2="141.7762" y2="97.7271">
			<stop  offset="0.0917" style="stop-color:#FFE2BA"/>
			<stop  offset="1" style="stop-color:#F4DDBA"/>
		</linearGradient>
		<path fill="url(#SVGID_1_)" d="M178.043,113.86c0.06-1.425-0.234-2.907-0.795-4.422c-0.814-4.917-4.531-23.693-22.677-28.181
			c-18.937-4.684-49.544-1.517-50.065,36.599c-0.018,1.253,0.035,2.382,0.173,3.416c-0.035,1.115-0.018,2.222,0.051,3.318
			c0.122,1.968,0.029,2.791-0.224,2.754c0.349,6.333,1.152,12.126,1.152,12.126c24.709,14.784,65.416,3.327,69.008-0.264
			C178.253,135.613,178.043,113.86,178.043,113.86z"/>
		<path fill="#E0A797" d="M99.253,121.724c0,4.744,2.45,8.591,5.472,8.591c3.025,0,5.48-3.847,5.48-8.591
			c0-4.746-2.455-8.592-5.48-8.592C101.703,113.132,99.253,116.979,99.253,121.724z"/>
		<path opacity="0.5" fill="#FFFFFF" d="M150.181,124.08c0,0.954-4.037,1.722-9.02,1.722c-4.976,0-9.013-0.768-9.013-1.722
			c0-0.951,4.037-1.719,9.013-1.719C146.144,122.361,150.181,123.129,150.181,124.08z"/>
		<path fill="#E0A797" d="M132.643,101.316c-8.45,4.832-10.191,9.272-10.191,17.386c0,13.538,13.269,24.962,30.103,24.962
			c9.781,0,18.479-3.706,24.059-9.464c-0.478,2.32-1.107,4.165-1.947,5.006c-3.593,3.591-44.299,15.048-69.008,0.264
			c0,0-2.103-15.131-0.973-23.226c-0.039,0.01-0.075,0.025-0.119,0.032c1.124-30.406,22.004-37.641,39.745-36.572
			c0.226-0.169,0.361-0.271,0.361-0.271s0.195,0.117,0.533,0.322c0.253,0.021,0.499,0.048,0.75,0.07
			c0.034-0.024,0.087-0.061,0.117-0.086c0.078,0.037,0.173,0.082,0.254,0.12c2.89,0.278,5.677,0.763,8.244,1.397
			c13.814,3.416,19.263,15.109,21.436,22.669c2.045,5.639,2.497,8.023,2.368,11.149C178.375,115.075,166.582,87.688,132.643,101.316
			z"/>
		<path fill="#5C403A" d="M158.859,115.075c0,0,1.159-1.635,2.956-0.581c1.792,1.056,1.373,6.76,0.634,7.816
			c-0.74,1.054-2.323,1.478-3.59,0C157.59,120.833,158.013,116.494,158.859,115.075z"/>
		<path fill="#5C403A" d="M120.49,116.007c0,0,1.16-1.635,2.957-0.578c1.792,1.054,1.373,6.755,0.634,7.813
			c-0.742,1.055-2.327,1.479-3.59,0C119.221,121.763,119.647,117.43,120.49,116.007z"/>
		<path fill="#F2726C" d="M169.035,125.369c0,0,1.839,0.187,2.812,0c0.973-0.186,1.334-2.126,0-2.501
			c-1.514-0.421-3.566-0.182-4.105,0C167.198,123.054,164.819,124.817,169.035,125.369z"/>
		<path fill="#F2726C" d="M113.856,125.369c0,0-1.834,0.187-2.808,0c-0.973-0.186-1.338-2.126,0-2.501
			c1.515-0.421,3.566-0.182,4.105,0C115.696,123.054,118.076,124.817,113.856,125.369z"/>
		<path fill="#E0A797" d="M105.658,139.47c0,0-0.317-2.288-0.63-5.443c4.123,3.987,13.919,9.637,34.525,9.637
			c31.716,0,37.065-9.504,37.071-9.506c-0.479,2.341-0.744,4.198-1.59,5.048C171.443,142.797,130.367,154.254,105.658,139.47z"/>
		<path fill="#E0A797" d="M115.527,232.056c0,0-0.05,30.775,0.232,32.239c0.275,1.469-1.896,37.718,1.753,39.034
			c3.65,1.317,7.114-24.195,6.92-34.138c-0.134-6.967,3.221-37.136,3.221-37.136H115.527z"/>
		<path fill="#E0A797" d="M168.975,231.111c0,0,0.718,31.721,0.441,33.185c-0.278,1.469,1.895,37.718-1.757,39.034
			c-3.651,1.317-7.115-24.195-6.922-34.138c0.14-6.967-3.105-35.209-3.105-35.209L168.975,231.111z"/>
		<path fill="#F4DDBA" d="M176.722,151.375c0,0,20.167,4.188,28.054,36.292l8.448,1.618c0,0-11.816-41.102-39.274-47.303
			C161.66,139.206,176.722,151.375,176.722,151.375z"/>
		<path fill="#F4DDBA" d="M204.775,187.667c0,0-4.751,6.346-4.433,7.615c0.315,1.267,0.405,6.968,2.208,6.231
			c1.804-0.74,2.682-7.395,2.682-7.395s2.185,9.717,0.39,12.566c-1.794,2.85,10.451,7.495,11.722-3.381
			c1.266-10.876-6.733-21.718-6.733-21.718L204.775,187.667z"/>
		<polygon fill="#E0A797" points="205.232,194.118 211.18,190.7 206.164,199.936 		"/>
		<path fill="#E0A797" d="M106.531,149.407c0,0-27.008,6.155-34.892,38.26l-8.451,1.618c0,0,12.685-43.759,40.374-48.855
			C112.311,138.819,106.531,149.407,106.531,149.407z"/>
		<path fill="#E0A797" d="M71.639,187.667c0,0,4.752,6.346,4.434,7.615c-0.315,1.267-0.407,6.968-2.211,6.231
			c-1.798-0.74-2.682-7.395-2.682-7.395s-2.183,9.717-0.389,12.566c1.797,2.85-10.455,7.495-11.719-3.381
			c-1.267-10.876,6.733-21.718,6.733-21.718L71.639,187.667z"/>
		<polygon fill="#D78679" points="71.18,194.118 65.233,190.7 70.252,199.936 		"/>
		<path fill="#78A484" d="M106.531,139.965c0,0,2.436,44.023,1.871,51.659c-0.784,10.611-0.976,41.58-0.976,41.58
			s69.368,1.754,70.318,0c0.95-1.756-1.12-54.555-1.12-54.555l-1.59-39.443C175.034,139.206,144.097,157.54,106.531,139.965z"/>
		<path fill="#8DBB9B" d="M106.531,139.965c0,0,20.434,37.301,34.295,43.875c10.399-2.08,31.89-43.279,31.89-43.279
			S136.004,154.597,106.531,139.965z"/>
		<path fill="#E0A797" d="M161.66,284.129c0,0,2.779,38.428,4.869,38.945c2.09,0.52,18.528,1.41,18.701-1.012
			c0.173-2.423,1.519-8.329-11.785-6.864c-2.922-5.285-3.903-31.069-3.903-31.069l0,0H161.66z"/>
		<path fill="#E0A797" d="M123.325,284.129c0,0-2.779,37.734-4.869,38.254c-2.09,0.52-18.527,1.063-18.7-1.359
			c-0.174-2.422-1.52-7.81,11.784-6.346c2.922-5.285,3.904-30.549,3.904-30.549l0,0H123.325z"/>
		<path fill="#763934" d="M98.725,319.606c0,0-4.133,12.771,0.04,14.261c0,0,9.586,3.64,21.223,0.874
			c0.334-0.079,1.448-0.54,1.867-1.357c0,0,2.966-7.885,0.571-10.984C120.031,319.301,98.725,319.606,98.725,319.606z"/>
		<path fill="#C16257" d="M125.042,301.412c0,0-1.954,4.391-1.682,7.694c0.403,4.902,0.373,12.491-1.107,14.473
			c-1.979,2.642-4.611,2.652-7.701,3.041c-2.195,0.274-11.294,1.225-15.147-1.437c-1.59-1.101-1.683-2.554-1.907-5.248
			c0,0-0.763-9.162,3.941-11.092c4-1.638,5.482,0.453,7.725-0.27c2.443-0.788,2.918-1.556,2.92-5.099
			C112.09,301.271,125.042,301.412,125.042,301.412z"/>
		<path opacity="0.6" fill="#6E493D" d="M112.549,313.005c0,0-0.438-0.516-1.544-1.105c0.375-0.211,0.71-0.366,0.963-0.437
			c0.936-0.27,0.181-0.744,0.181-0.744s-0.288-0.189-0.755-0.474c-0.464-0.283-1.367,0.173-1.367,0.173
			c-0.408,0.208-0.779,0.417-1.113,0.622c-0.379-0.113-0.786-0.228-1.234-0.325c0,0-0.987-0.219-1.371,0.17
			c-0.378,0.389-0.61,0.645-0.61,0.645s-0.614,0.648,0.357,0.676c0.264,0.006,0.629,0.073,1.045,0.186
			c-0.93,0.847-1.226,1.453-1.226,1.453c-0.352,0.602,0.077,0.976,0.077,0.976s0.219,0.153,0.709,0.378
			c0.485,0.229,0.865-0.207,1.366-0.797c0.301-0.41,0.71-0.824,1.159-1.205c0.524,0.261,1.025,0.557,1.42,0.88
			c0.626,0.446,1.103,0.777,1.522,0.438c0.413-0.339,0.589-0.542,0.589-0.542S113.039,313.501,112.549,313.005z"/>
		<path fill="#D8DEDE" d="M115.629,284.231c0,0-1.794,0.124-2.615,0.841c-0.842,0.736-1.083,2.327-1.083,4.507
			c0,2.187-0.41,13.265,0.152,13.896c1.214,1.365,7.562,4.183,11.685,1.762c0,0,5.989-15.709,2.807-19.669
			c-0.813-1.015-1.303-1.196-3.061-1.337c0,0-0.312,1.47-0.6,2.217c-0.483,1.246-1.275,2.018-3.168,1.867
			C117.498,288.129,115.082,288.129,115.629,284.231z"/>
		<path opacity="0.5" fill="none" stroke="#9E9998" stroke-linecap="round" stroke-miterlimit="10" d="M115.379,288.858
			c0,0-1.587,8.822-0.656,13.325"/>
		<path opacity="0.5" fill="none" stroke="#9E9998" stroke-linecap="round" stroke-miterlimit="10" d="M119.114,289.833
			c0,0-1.586,8.813-0.655,13.32"/>
		<path opacity="0.5" fill="none" stroke="#9E9998" stroke-linecap="round" stroke-miterlimit="10" d="M122.75,289.938
			c0,0,0.808,6.496-1.16,13.112"/>
		<path fill="#E6E6D3" d="M107.61,310.167c0,0-0.987-0.217-1.368,0.172c-0.379,0.387-0.613,0.645-0.613,0.645
			s-0.614,0.646,0.357,0.672c0.973,0.027,3.288,0.835,4.549,1.875c0.63,0.447,1.107,0.774,1.523,0.436
			c0.416-0.343,0.588-0.541,0.588-0.541s0.327-0.474-0.165-0.966C112.482,312.458,111.248,310.986,107.61,310.167z"/>
		<path fill="#E6E6D3" d="M109.958,309.871c0,0,0.906-0.452,1.368-0.173c0.462,0.285,0.755,0.473,0.755,0.473
			s0.752,0.477-0.181,0.74c-0.936,0.268-2.979,1.624-3.945,2.941c-0.496,0.592-0.877,1.025-1.362,0.798
			c-0.49-0.226-0.709-0.379-0.709-0.379s-0.432-0.374-0.077-0.976C105.808,313.295,106.64,311.569,109.958,309.871z"/>
		<path fill="none" stroke="#4C2C26" stroke-linecap="round" stroke-miterlimit="10" d="M101.459,327.34c0,0-0.44,2.504,0,5.303"/>
		<path fill="none" stroke="#4C2C26" stroke-linecap="round" stroke-miterlimit="10" d="M105.218,328.123c0,0-0.44,2.591,0,5.493"/>
		<path fill="none" stroke="#4C2C26" stroke-linecap="round" stroke-miterlimit="10" d="M109.546,328.704c0,0-0.44,2.595,0,5.497"/>
		<path fill="none" stroke="#4C2C26" stroke-linecap="round" stroke-miterlimit="10" d="M113.322,328.704c0,0-0.438,2.595,0,5.497"
			/>
		<path fill="none" stroke="#4C2C26" stroke-linecap="round" stroke-miterlimit="10" d="M117.583,328.441c0,0-0.436,2.291,0,4.852"
			/>
		<path fill="#763934" d="M186.445,319.606c0,0,4.438,13.037,0.324,14.595c0,0-9.95,3.306-21.586,0.54
			c-0.334-0.079-1.447-0.54-1.863-1.357c0,0-2.969-7.885-0.575-10.984C165.141,319.301,186.445,319.606,186.445,319.606z"/>
		<path fill="#C16257" d="M160.129,301.412c0,0,1.954,4.391,1.684,7.694c-0.401,4.902-0.374,13.103,1.107,15.082
			c1.978,2.64,4.608,2.043,7.701,2.432c2.193,0.274,11.296,1.225,15.146-1.437c1.594-1.101,1.681-2.554,1.909-5.248
			c0,0,0.762-9.162-3.942-11.092c-3.999-1.638-5.48,0.453-7.727-0.27c-2.44-0.788-2.917-1.556-2.92-5.099
			C173.085,301.271,160.129,301.412,160.129,301.412z"/>
		<path opacity="0.6" fill="#6E493D" d="M172.622,313.005c0,0,0.44-0.516,1.544-1.105c-0.371-0.211-0.713-0.366-0.965-0.437
			c-0.934-0.27-0.176-0.744-0.176-0.744s0.288-0.189,0.751-0.474c0.464-0.283,1.368,0.173,1.368,0.173
			c0.407,0.208,0.779,0.417,1.113,0.622c0.379-0.113,0.787-0.228,1.236-0.325c0,0,0.986-0.219,1.365,0.17
			c0.383,0.389,0.613,0.645,0.613,0.645s0.615,0.648-0.357,0.676c-0.262,0.006-0.629,0.073-1.045,0.186
			c0.93,0.847,1.226,1.453,1.226,1.453c0.353,0.602-0.076,0.976-0.076,0.976s-0.225,0.153-0.709,0.378
			c-0.485,0.229-0.866-0.207-1.368-0.797c-0.298-0.41-0.709-0.824-1.155-1.205c-0.524,0.261-1.027,0.557-1.419,0.88
			c-0.629,0.446-1.107,0.777-1.521,0.438c-0.416-0.339-0.596-0.542-0.596-0.542S172.13,313.501,172.622,313.005z"/>
		<path fill="#D8DEDE" d="M169.542,284.231c0,0,1.794,0.124,2.616,0.841c0.84,0.736,1.082,2.327,1.082,4.507
			c0,2.187,0.409,13.265-0.153,13.896c-1.217,1.365-7.562,4.183-11.683,1.762c0,0-5.987-15.709-2.808-19.669
			c0.815-1.015,1.303-1.196,3.063-1.337c0,0,0.31,1.47,0.599,2.217c0.485,1.246,1.277,2.018,3.168,1.867
			C167.672,288.129,170.091,288.129,169.542,284.231z"/>
		<path opacity="0.5" fill="none" stroke="#9E9998" stroke-linecap="round" stroke-miterlimit="10" d="M169.794,288.858
			c0,0,1.585,8.822,0.657,13.325"/>
		<path opacity="0.5" fill="none" stroke="#9E9998" stroke-linecap="round" stroke-miterlimit="10" d="M166.056,289.833
			c0,0,1.586,8.813,0.658,13.32"/>
		<path opacity="0.5" fill="none" stroke="#9E9998" stroke-linecap="round" stroke-miterlimit="10" d="M162.422,289.938
			c0,0-0.805,6.496,1.16,13.112"/>
		<path fill="#E6E6D3" d="M177.562,310.167c0,0,0.987-0.217,1.368,0.172c0.379,0.387,0.613,0.645,0.613,0.645
			s0.617,0.646-0.357,0.672c-0.973,0.027-3.289,0.835-4.549,1.875c-0.627,0.447-1.105,0.774-1.52,0.436
			c-0.416-0.343-0.594-0.541-0.594-0.541s-0.325-0.474,0.166-0.966C172.689,312.458,173.925,310.986,177.562,310.167z"/>
		<path fill="#E6E6D3" d="M175.215,309.871c0,0-0.906-0.452-1.37-0.173c-0.466,0.285-0.752,0.473-0.752,0.473
			s-0.755,0.477,0.181,0.74c0.937,0.268,2.977,1.624,3.939,2.941c0.503,0.592,0.883,1.025,1.368,0.798
			c0.484-0.226,0.709-0.379,0.709-0.379s0.429-0.374,0.076-0.976C179.366,313.295,178.531,311.569,175.215,309.871z"/>
		<path fill="none" stroke="#4C2C26" stroke-linecap="round" stroke-miterlimit="10" d="M183.716,327.34c0,0,0.438,2.504,0,5.303"/>
		<path fill="none" stroke="#4C2C26" stroke-linecap="round" stroke-miterlimit="10" d="M179.954,328.123c0,0,0.443,2.591,0,5.493"
			/>
		<path fill="none" stroke="#4C2C26" stroke-linecap="round" stroke-miterlimit="10" d="M175.623,328.704c0,0,0.442,2.595,0,5.497"
			/>
		<path fill="none" stroke="#4C2C26" stroke-linecap="round" stroke-miterlimit="10" d="M171.85,328.704c0,0,0.441,2.595,0,5.497"/>
		<path fill="none" stroke="#4C2C26" stroke-linecap="round" stroke-miterlimit="10" d="M167.589,328.441c0,0,0.437,2.291,0,4.852"
			/>
		<path fill="#666089" d="M107.426,233.204c0,0-0.757,15.684,0,16.48c2.536,2.652,24.551,5.642,25.253,0c0.698-5.65,0-19.45,0-19.45
			L107.426,233.204z"/>
		<path fill="#666089" d="M177.744,233.204c0,0,0.759,15.684,0,16.48c-2.534,2.652-24.546,5.642-25.248,0
			c-0.703-5.65,0-19.45,0-19.45L177.744,233.204z"/>
		<path fill="#E0A797" d="M182.975,144.926c2.401,1.33,4.642,2.944,6.729,4.754c-0.434,2.358-1.772,4.275-4.341,5.933
			c-2.649-1.979-5.289-2.891-6.988-3.595L182.975,144.926z"/>
		<path fill="#538578" d="M179.233,139.206c0,0,8.119,1.72,8.119,3.591c0,1.87-3.496,11.831-10.037,13.093
			c-6.539,1.269-2.233-15.461-2.233-15.461L179.233,139.206z"/>
		<path fill="#538578" d="M105.517,138.392c0,0-11.991,0-12.632,4.405c-0.269,1.851,3.498,11.831,10.037,13.093
			c6.542,1.269,6.037-14.442,6.037-14.442L105.517,138.392z"/>
		<path fill="#9DD3AE" d="M176.351,143.664c0,0,2.64,33.695,3.141,38.766c0.506,5.072,0.345,30.135,0,34.075
			c0,0-46.733,9.061-74.968,1.409c0,0,1.734-23.093,1.29-27.037c-0.442-3.939-1.833-30.497-2.867-44.044
			C102.946,146.832,156.935,155.869,176.351,143.664z"/>
		<path fill="#538578" d="M138.169,184.956c-1.379-3.896-1.995-7.248-2.117-10.124l-1.575,2.594l-22.204-23.458l13.986,1.645
			c-9.242-3.042-15.655-6.174-19.106-9.585c-2.731-0.456-4.791-0.768-4.791-0.768c1.035,13.547,3.008,41.678,3.45,45.617
			c0.445,3.944-1.29,27.037-1.29,27.037c1.113,0.302,2.253,0.569,3.416,0.821l54.98-3.357
			C154.241,212.924,143.54,200.144,138.169,184.956z"/>
		<path fill="#538578" d="M139.169,167.914c0,0,11.493-1.233,18.007,8.626c4.787,7.243,6.336,14.651,0.23,24.135
			c-6.103,9.484-22.861,9.207-28.014,4.695c-5.155-4.506-10.122-9.353-8.768-21.868
			C121.981,170.991,136.603,168.063,139.169,167.914z"/>
		<path fill="#538578" d="M179.114,142.375c0,0,0.062,2.672,0.176,4.104c-5.845,7.067-22.108,16.852-39.888,17.051
			c-14.49,0.165-30.711-6.021-38.599-17.157c-2.426-2.92-0.727-3.107-0.48-3.999C100.323,142.375,159.694,154.578,179.114,142.375z"
			/>
		<path fill="#9DD3AE" d="M183.371,133.656c-1.168-2.506-4.198-2.278-6.361-1.734c-0.499,3.368-1.506,6.183-2.606,7.285
			c-3.552,3.549-43.403,14.762-68.403,0.743c0,0.003,0,0.011,0,0.016c-1,0.978-4.749,0.954-7.351-0.587
			c9.93,18.225,45.824,19.369,66.43,12.5C185.985,144.909,185.272,137.728,183.371,133.656z"/>
		<path fill="#538578" d="M104.523,217.086c0,0,0.208-0.592,0.15-1.984c-0.15-3.275,21.887,0.812,33.511,0.015
			c0,0-6.54-1.053,4.395-1.94c5.805-0.471,37.084-0.944,37.044-0.367c-0.023,0.344-0.067,2.553-0.321,2.901l-36.832,7.571
			L104.523,217.086z"/>
		<path fill="#9DD3AE" d="M179.562,215.377c0,0,4.653,2.731,4.594,10.648c-0.043,6.018-4.214,6.925-5.707,7.519
			c-2.29,0.905-62.387,6.513-72.794,0.058c0,0-9.675-6.164-1.131-15.688C104.523,217.914,138.458,221.786,179.562,215.377z"/>
		<path fill="#538578" d="M104.523,217.914c-8.939,10.446,1.131,15.688,1.131,15.688c5.616,3.486,25.689,3.457,43.349,2.549
			c0.081-0.02,0.147-0.04,0.187-0.058c1.493-0.589-5.136-2.837-5.093-8.856c0.045-6.006,4.36-7.562,6.89-8.792
			c-2.252,0.141-4.43-0.729-6.571-0.637C129.127,216.41,116.205,217.891,104.523,217.914z"/>
		<circle fill="#FFD877" cx="140.747" cy="188.779" r="17.057"/>
		<g>
			<g>
				<path fill="#639982" d="M155.672,180.481c0,0-0.749,0.573-0.642,1.678c0.108,1.101-0.158,13.984,0.642,14.476
					c0.8,0.49,10.533,0.859,10.533-3.536c0-4.398-3.688-4.317-4.225-4.438c0,0,4.546,0.04,4.225-4.051
					C165.885,180.522,160.376,178.153,155.672,180.481z"/>
				<path fill="#639982" d="M113.194,195.125c0,0-1.472-11.076-0.616-17.332c0,0,7.422-0.434,8.035,0.181
					c0.616,0.614,3.866,6.195,3.866,6.195l0.613-6.646c0,0,5.89-0.344,5.89,1.494c0,1.84-1.224,15.828-2.209,16.073
					c-0.981,0.246-5.843-0.917-5.843-0.917s-2.807-6.69-3.48-8.408c-0.184-0.469-0.798,0.056-0.798,0.056s1.043,9.304-0.061,9.304
					S116.873,195.125,113.194,195.125z"/>
				<path fill="#E1E1E0" d="M113.194,193.558c0,0-1.472-11.074-0.616-17.332c0,0,7.422-0.429,8.035,0.188
					c0.616,0.611,3.866,6.194,3.866,6.194l0.613-6.651c0,0,5.89-0.341,5.89,1.498c0,1.84-1.224,15.828-2.209,16.074
					c-0.981,0.245-5.843-0.92-5.843-0.92s-2.807-6.687-3.48-8.407c-0.184-0.469-0.798,0.056-0.798,0.056s1.043,9.301-0.061,9.301
					S116.873,193.558,113.194,193.558z"/>
				<path fill="#639982" d="M138.465,182.607c0,0-4.539-0.984-5.643,3.129c-1.107,4.107,2.331,5.581,3.682,5.64
					c1.349,0.061,6.134-1.41,4.479-6.01C140.982,185.367,140.61,183.465,138.465,182.607z"/>
				<path fill="#FFFFFF" d="M138.465,181.01c0,0-4.539-0.98-5.643,3.131c-1.107,4.109,2.334,5.493,3.682,5.642
					c1.675,0.184,6.134-1.411,4.479-6.013C140.982,183.771,140.61,181.87,138.465,181.01z"/>
				<path fill="#639982" d="M149.956,182.607c0,0-4.539-0.984-5.642,3.129c-1.108,4.107,2.326,5.581,3.681,5.64
					c1.347,0.061,6.133-1.41,4.475-6.01C152.47,185.367,152.102,183.465,149.956,182.607z"/>
				<path fill="#FFFFFF" d="M149.956,181.01c0,0-4.539-0.98-5.642,3.131c-1.108,4.109,2.335,5.493,3.681,5.642
					c1.677,0.184,6.133-1.411,4.475-6.013C152.47,183.771,152.102,181.87,149.956,181.01z"/>
				<path fill="#639982" d="M148.023,184.05c0,0,1.308-0.281,1.627,0.906c0.317,1.183-0.672,1.606-1.061,1.625
					c-0.389,0.015-1.765-0.405-1.286-1.736C147.304,184.846,147.409,184.295,148.023,184.05z"/>
				<path fill="#639982" d="M136.54,184.05c0,0,1.309-0.281,1.629,0.906c0.317,1.183-0.674,1.606-1.062,1.625
					c-0.387,0.015-1.763-0.405-1.288-1.736C135.818,184.846,135.927,184.295,136.54,184.05z"/>
				<path fill="#FFFFFF" d="M155.672,178.764c0,0-0.749,0.573-0.642,1.677c0.108,1.104-0.158,13.986,0.642,14.477
					c0.8,0.49,10.533,0.859,10.533-3.536c0-4.398-3.688-4.317-4.225-4.442c0,0,4.546,0.043,4.225-4.045
					C165.885,178.804,160.376,176.434,155.672,178.764z"/>
				<path fill="#639982" d="M160.803,181.34c0,0-1.907,1.456-1.271,1.823c0.635,0.365,2.224,0.235,2.301-0.944
					C161.917,181.038,160.803,181.34,160.803,181.34z"/>
				<path fill="#639982" d="M159.713,189.972c0,0-0.743,1.824,0.445,1.975c1.192,0.147,1.993-0.824,1.394-1.674
					C160.953,189.423,159.713,189.972,159.713,189.972z"/>
			</g>
		</g>
		<path id="XMLID_4_" fill="none" stroke="#639982" stroke-linecap="round" stroke-miterlimit="10" d="M147.951,198.976
			c0,0-4.758-7.183-11.454-0.307"/>
		<path fill="#538578" d="M114.122,147.203c0-1.614,0.715-2.722,1.311-3.483c-3.026-0.974-4.852-1.746-7.62-3.291
			c0,0.005-0.791-0.469-0.791-0.464c-2.672,0.464-5.501,0.958-8.133-0.748c3.645,7.424,11.06,11.296,20.14,13.968
			C113.863,151.629,114.122,147.203,114.122,147.203z"/>
		<path fill="#E16047" d="M151.562,95.771c0,0,3.908-1.451,3.908-4.72c0,0,4.405,4.493,3.138,6.182c0,0,18.335-1.689,19.768,17.841
			c0,0,8.947-12.135,8.098-24.522c-0.845-12.394-9.884-30.37-27.204-26.989c-3.386,0.661-7.246,0.464-8.261,2.666
			c-0.344,0.741-0.909,1.051-1.388,1.219c-2.318,0.807-4.09-0.662-5.088-1.069c-7.706-3.109-4.755,1.966-4.755,1.966
			s4.6,1.65,7.708,6.396C152.973,83.126,151.562,95.771,151.562,95.771z"/>
		<path fill="#E16047" d="M169.091,53.744c-2.369-0.357-8.446,6.653-8.446,6.653s3.907-8.447,2.325-10.664
			c-1.583-2.219-6.035-2.086-6.035-2.086c-2.743,0.385-0.741,5.464,0.479,8.075c-3.161-3.613-15.155-14.711-39.721-9.576
			c-30.055,6.282-44.784,56.665-26.009,83.821l43.792-46.687l5.069-5.072l8.794,13.448l6.749-26.29l5.717,0.734
			c0,0,9.714-6.443,10.982-7.288C174.055,57.968,170.777,53.996,169.091,53.744z"/>
		<path fill="#832F2D" d="M105.963,130.017c-2.955-0.122-5.328-3.912-5.328-8.581c0-2.03,0.451-3.894,1.203-5.366l-0.706-0.778
			c0,0-7.376,18.004-7.376,18.487c0,0.48-1.427-1.078,3.49,4.294c2.584,2.823,7.266,3.096,9.285,1.892
			C106.296,138.035,106.213,133.853,105.963,130.017z"/>
		<path fill="#E16047" d="M69.78,118.308c0,0,3.083,9.101-4.488,7.554c-15.467-3.16-12.272,13.993-2.456,10.744
			c5.92-1.96,12.205-5.058,13.461-19.332L69.78,118.308z"/>
		<path fill="#A53839" d="M79.836,77.36c0,0-3.139-2.741-5.515,0.864c-2.383,3.608-1.536,12.04,1.278,23.218
			c2.81,11.168,2.713,32.738-13.058,35.164c0,0,10.7-4.281,7.644-14.568c-2.453-8.26-20.036-36.576-11.868-50.905
			c5.293-9.29,19.868-8.322,24.823,2.507L79.836,77.36z"/>
		<path fill="#E16047" d="M82.358,72.158c0.01,0.016,0.02,0.034,0.029,0.05l0.661,1.536l-3.211,3.616c0,0-3.139-2.741-5.515,0.864
			c-1.432,2.169-1.693,6.093-1.062,11.298c-0.005-0.018-0.005-0.035-0.013-0.055C65.357,64.408,82.156,72.07,82.358,72.158z"/>
		<path fill="#EF4444" d="M91.118,73.288c0,0-3.198-4.739-7.867-2.155c0,0-5.571,5.595-2.757,10.738
			c1.529,2.793,5.702,4.925,7.605,2.602C89.997,82.15,91.118,73.288,91.118,73.288z"/>
		<path fill="#A53839" d="M147.424,73.621c0,0-3.383-2.186,0-5.97c3.948-4.417-8.577-15.498-20.58-16.504
			c-0.534-0.003-1.069-0.009-1.623-0.009c-14.178,0-26.735,7.043-34.511,17.878c-4.03,7.754-6.592,16.722-7.435,25.759
			c-0.039,0.419-0.083,0.837-0.114,1.256c-0.08,1.051-0.123,2.1-0.155,3.147c-0.001,0.034-0.001,0.07-0.003,0.109
			c-0.018,0.622-0.058,1.248-0.058,1.869c0.024,0.165,0.065,0.32,0.089,0.481c0.24,10.095,3.104,20.023,8.65,28.329
			c0.92-1.682,1.833-3.401,2.72-5.099c0.344,0.368,0.672,0.75,1.027,1.104l40.044-42.692l5.069-5.072l8.794,13.448l2.552-20.919
			C151.427,71.888,150.019,74.918,147.424,73.621z"/>
		<path fill="#A53839" d="M171.309,71.893c0,0-8.651-7.496-13.278-3.885l0.058-3.758c-1.862-3.23-5.022-3.467-5.335-0.16
			c-0.62,6.613-3.81,24.253-3.81,26.962l0.396,0.603l0.832,1.874l-0.656,2.44l2.096-0.214c0.443-0.179,3.756-0.757,3.756-3.811
			c0,0,1.656,1.441,2.396,3.018c0.141,0.595,0.283,1.2,0.437,1.822c0,0,2.068-6.997,5.166-6.857
			c3.097,0.142,6.948-2.274,7.828,10.708c0,0,4.262,3.102,5.936,8.105C179.115,114.681,189.704,91.083,171.309,71.893z"/>
		<path fill="#E16047" d="M141.278,74.328c0,0-2.812-0.599-6.783,0.165c0,0-6.232,4.075-8.434,7.339
			c-8.346,12.372-16.436,7.466-29.668,18.863c-14.373,12.383-8.344,24.899-4.11,31.808c3.118,4.233,3.97-1.374,3.97-1.374h0.001
			c0.272-3,1.768-5.67,5.675-8.512c0,0,8.455-3.051,18.468-8.521c11.75-6.417,12.245-10.043,14.504-15.974
			c0,0,6.644-4.471,12.194-1.445c1.501,0.819,3.313-0.905,3.313-0.905s-1.737-10.569-5.16-16.939
			C144.182,76.85,142.814,74.638,141.278,74.328z"/>
		<path fill="#832F2D" d="M146.836,96.559c0,0-1.449-6.308-2.358-8.717c-0.595-1.574-0.577-2.832-2.467-3.376
			c0,0-2.069-1.486-3.311,0.999c-1.506,3.006-2.391,7.077-3.799,12.68C134.901,98.145,138.292,95.858,146.836,96.559z"/>
		<path fill="none" stroke="#A53839" stroke-miterlimit="10" d="M94.461,127.888c-5.079-11.247,9.89-18.429,9.89-18.429
			s20.365-8.764,23.855-18.431"/>
		<path fill="none" stroke="#E36248" stroke-linecap="round" stroke-miterlimit="10" d="M64.572,68.549
			c0,0-7.013,2.438-4.948,14.531"/>
		<path fill="none" stroke="#E36248" stroke-linecap="round" stroke-miterlimit="10" d="M61.542,78.832c0,0,0.109,0.947,0.736,2.847
			"/>
		<path fill="#E16047" d="M169.445,101.25c1.054,1.476,1.69-1.613,1.692-1.618c0.231-5.912,1.155-12.767-3.536-15.792
			c-0.785-0.509-3.984-1.103-4.939-1.239c0,0-4.604,1.242-4.464,13.773c0,0-0.405,1.366,2.061,1.262
			c2.298-0.093,4.712-4.538,8.338,1.958C168.992,99.095,169.032,100.672,169.445,101.25z"/>
		<path fill="#832F2D" d="M158.81,97.445c0,0,1.104-7.279,4.536-7.812c0.782-0.122,3.386,0.958,3.843,1.45
			c1.654,1.77,2.503,2.786,1.972,9.549C169.16,100.633,167.998,98.145,158.81,97.445z"/>
		<g>
			<path fill="#B16D6A" d="M124.986,129.959c0,0,21.22,1.958,33.904,0.301c0,0,2.215,6.698-7.011,9.399
				C148.835,140.554,122.919,143.005,124.986,129.959z"/>
			<path fill="#FFFFFF" d="M128.044,130.206c0,0-0.966,2.211,2.328,2.446c3.291,0.235,21.693,0.903,24.589,0
				c0,0,1.405-0.525,1.07-2.089C156.031,130.563,143.999,131.238,128.044,130.206z"/>
			<path fill="#F58E83" d="M127.913,137.12c6.57,4.754,21.684,3.207,23.967,2.54c1.817-0.531,3.181-1.223,4.214-1.982
				c-2.419-0.922-6.121-2.082-13.23-2.477C134.353,134.725,127.919,137.117,127.913,137.12z"/>
		</g>
	</g>
	<rect y="264.129" fill="#89525B" width="283" height="39"/>
	<g>
		<path fill="#FFFFFF" d="M21.676,275.139l5.989,17.811l-3.818,1.282l-1.413-4.159H16.55l-1.282,4.159l-3.818-1.282l5.989-17.811
			H21.676z M19.95,282.201l-0.34-1.935h-0.104l-0.34,1.935l-1.465,4.342h3.714L19.95,282.201z"/>
		<path fill="#FFFFFF" d="M31.326,275.139h10.932l3.348,3.374v11.821l-3.348,3.374H31.326V275.139z M40.505,278.932h-5.126v10.984
			h5.126l1.046-1.047v-8.892L40.505,278.932z"/>
		<path fill="#FFFFFF" d="M54.392,293.708l-5.911-17.837l3.74-1.256l3.792,11.43l0.34,1.936h0.105l0.34-1.936l3.792-11.43
			l3.74,1.256l-5.911,17.837H54.392z"/>
		<path fill="#FFFFFF" d="M67.991,275.139h12.894v3.793h-8.84v3.19h7.741v3.792h-7.741v4.002h8.84v3.792H67.991V275.139z"/>
		<path fill="#FFFFFF" d="M89.122,293.708h-4.054v-18.569h3.635l6.094,9.756l0.68,1.727h0.104l-0.288-1.753v-9.729h4.054v18.569
			h-3.635l-6.094-9.755l-0.68-1.727h-0.104l0.288,1.752V293.708z"/>
		<path fill="#FFFFFF" d="M112.424,293.708h-4.054v-14.776h-5.1v-3.793h14.253v3.793h-5.1V293.708z"/>
		<path fill="#FFFFFF" d="M121.184,290.387v-15.248h4.054v13.73l1.046,1.047h4.054l1.046-1.047v-13.73h4.054v15.248l-3.348,3.321
			h-7.559L121.184,290.387z"/>
		<path fill="#FFFFFF" d="M155.078,291.512l-2.903,2.851l-7.375-7.559h-0.34v6.904h-4.054v-18.569h11.351l2.903,2.877v5.911
			l-2.903,2.877h-0.941l-0.916-0.444l-0.052,0.078l0.915,0.654L155.078,291.512z M144.46,278.932v4.08h5.204l0.942-0.969v-2.145
			l-0.942-0.967H144.46z"/>
		<path fill="#FFFFFF" d="M159.262,275.139h12.894v3.793h-8.84v3.19h7.741v3.792h-7.741v4.002h8.84v3.792h-12.894V275.139z"/>
		<path fill="#FFFFFF" d="M198.648,287.405l2.772,2.773l-3.531,3.53h-7.741l-3.348-3.348v-11.874l3.348-3.348h7.559l3.348,3.348
			v3.453h-4.054v-1.962l-1.046-1.046H191.9l-1.046,1.046v8.892l1.046,1.047h4.237L198.648,287.405z"/>
		<path fill="#FFFFFF" d="M215.544,275.139h4.054v18.569h-4.054v-7.506h-6.146v7.506h-4.054v-18.569h4.054v7.271h6.146V275.139z"/>
		<path fill="#FFFFFF" d="M233.483,275.139l5.989,17.811l-3.818,1.282l-1.412-4.159h-5.885l-1.281,4.159l-3.818-1.282l5.989-17.811
			H233.483z M231.758,282.201l-0.34-1.935h-0.104l-0.341,1.935l-1.464,4.342h3.714L231.758,282.201z"/>
		<path fill="#FFFFFF" d="M242.349,293.708v-3.53h2.511V278.67h-2.511v-3.531h9.076v3.531h-2.511v11.508h2.511v3.53H242.349z"/>
		<path fill="#FFFFFF" d="M259.925,293.708h-4.054v-18.569h3.635l6.094,9.756l0.681,1.727h0.104l-0.288-1.753v-9.729h4.054v18.569
			h-3.635l-6.094-9.755l-0.68-1.727h-0.105l0.288,1.752V293.708z"/>
	</g>
	<circle fill="#473636" cx="48.742" cy="267.283" r="1.471"/>
	<circle fill="#473636" cx="64.434" cy="267.283" r="1.471"/>
	<circle fill="#473636" cx="192.582" cy="267.283" r="1.472"/>
	<circle fill="#473636" cx="208.273" cy="267.283" r="1.47"/>
</g>
</svg>
