<?xml version="1.0" encoding="utf-8"?>
<!-- Generator: Adobe Illustrator 16.0.0, SVG Export Plug-In . SVG Version: 6.00 Build 0)  -->
<!DOCTYPE svg PUBLIC "-//W3C//DTD SVG 1.1//EN" "http://www.w3.org/Graphics/SVG/1.1/DTD/svg11.dtd">
<svg version="1.1" id="Calque_1" xmlns="http://www.w3.org/2000/svg" xmlns:xlink="http://www.w3.org/1999/xlink" x="0px" y="0px"
	 width="53.202px" height="80.536px" viewBox="0 0 53.202 80.536" enable-background="new 0 0 53.202 80.536" xml:space="preserve">
<g>
	<path fill="#A5A58D" d="M4.901,36.005L2.479,4.838c0,0,24.547-11.75,49.037,1.75l-2.794,28.89L4.901,36.005z"/>
	<path fill="#F1F5E0" d="M9.452,30.484L2.083,4.838c0,0,24.547-11.75,49.038,1.75l-5.8,23.896H9.452z"/>
	<circle fill="#A9342D" cx="26.115" cy="54.494" r="26.042"/>
	<circle fill="#DE5A35" cx="26.601" cy="46.309" r="26.601"/>
	<g>
		<path fill="#D6432A" d="M17.339,13.609c0.293,0.689,0.287,1.29-0.018,1.8c-0.305,0.51-0.885,0.947-1.74,1.31
			c-0.461,0.196-0.912,0.342-1.355,0.438c-0.442,0.096-0.823,0.152-1.143,0.168l-0.934-1.738l0.801-0.34l0.745,0.873
			c0.271-0.028,0.532-0.071,0.784-0.129c0.252-0.059,0.521-0.148,0.807-0.27c0.561-0.239,0.923-0.487,1.084-0.746
			c0.162-0.259,0.175-0.549,0.037-0.872c-0.078-0.184-0.191-0.31-0.339-0.377c-0.149-0.067-0.321-0.102-0.519-0.105
			c-0.196-0.003-0.412,0.018-0.648,0.063c-0.236,0.046-0.483,0.097-0.742,0.153c-0.299,0.062-0.602,0.118-0.908,0.166
			c-0.305,0.048-0.59,0.056-0.854,0.021c-0.266-0.034-0.508-0.124-0.727-0.27c-0.221-0.146-0.398-0.38-0.534-0.702
			c-0.294-0.69-0.28-1.285,0.04-1.785c0.318-0.5,0.916-0.936,1.79-1.308c0.313-0.133,0.589-0.226,0.827-0.278
			c0.238-0.053,0.473-0.09,0.703-0.111l0.584-0.542l1.073,2.103l-0.8,0.34l-0.773-0.861c-0.204,0.032-0.41,0.071-0.619,0.116
			c-0.209,0.045-0.447,0.125-0.714,0.238c-0.599,0.254-0.979,0.503-1.142,0.746c-0.163,0.243-0.176,0.526-0.039,0.848
			c0.07,0.166,0.176,0.279,0.314,0.339c0.141,0.06,0.305,0.091,0.496,0.091c0.189,0.001,0.399-0.023,0.629-0.072
			s0.469-0.099,0.719-0.15c0.299-0.062,0.604-0.118,0.914-0.168s0.604-0.055,0.881-0.016c0.278,0.04,0.532,0.138,0.762,0.295
			C17.013,13.033,17.198,13.277,17.339,13.609z"/>
		<path fill="#D6432A" d="M22.393,14.469c-0.294,0.234-0.621,0.39-0.983,0.466c-1.243,0.259-1.993-0.3-2.25-1.676l-0.632-3.546
			l-1.153-0.02l-0.128-0.617l0.575-0.549l0.752-1.459l0.488-0.01l0.279,1.336l2.569-0.536l-0.075,0.965l-2.289,0.478l0.643,3.528
			c0.156,0.846,0.611,1.19,1.365,1.033c0.254-0.053,0.482-0.122,0.686-0.205c0.201-0.083,0.418-0.205,0.65-0.366l0.137,0.432
			C22.897,13.986,22.687,14.235,22.393,14.469z"/>
		<path fill="#D6432A" d="M30.258,10.704c-0.008,0.68-0.114,1.259-0.319,1.736c-0.206,0.478-0.478,0.87-0.816,1.176
			c-0.338,0.306-0.723,0.527-1.154,0.662c-0.432,0.135-0.877,0.2-1.338,0.195c-1.08-0.012-1.861-0.321-2.344-0.926
			c-0.484-0.606-0.719-1.469-0.707-2.588c0.008-0.68,0.115-1.259,0.32-1.736c0.205-0.478,0.477-0.865,0.815-1.161
			c0.339-0.296,0.724-0.512,1.155-0.647s0.877-0.2,1.336-0.195c1.081,0.012,1.862,0.313,2.346,0.904
			C30.035,8.714,30.271,9.574,30.258,10.704z M29.056,10.87c0.006-0.479-0.02-0.892-0.076-1.237
			c-0.056-0.346-0.184-0.62-0.381-0.822c-0.147-0.162-0.359-0.281-0.633-0.359c-0.275-0.078-0.632-0.12-1.071-0.125
			c-0.36-0.004-0.673,0.033-0.938,0.109c-0.267,0.077-0.485,0.212-0.658,0.405c-0.172,0.194-0.299,0.447-0.383,0.761
			s-0.129,0.706-0.133,1.176c-0.006,0.51,0.021,0.94,0.082,1.291c0.062,0.351,0.2,0.627,0.418,0.83
			c0.297,0.303,0.855,0.459,1.676,0.469c0.359,0.004,0.67-0.035,0.932-0.118c0.26-0.081,0.477-0.221,0.648-0.419
			s0.301-0.457,0.385-0.776C29.006,11.735,29.051,11.341,29.056,10.87z"/>
		<path fill="#D6432A" d="M37.459,9.74c-0.062,0.253-0.157,0.431-0.29,0.532c-0.132,0.102-0.33,0.121-0.592,0.058
			c-0.438-0.105-0.781-0.301-1.031-0.587c-0.137,0.05-0.284,0.12-0.445,0.209c-0.159,0.09-0.322,0.19-0.487,0.299
			s-0.321,0.223-0.468,0.342c-0.147,0.119-0.279,0.232-0.397,0.337l-0.673,2.8l0.014,0.065l1.148,0.678l-0.188,0.787l-3.252-0.782
			l0.253-1.05l0.889,0.214l0.059-0.047l0.971-4.04l-0.019-0.051l-0.976-0.82l0.088-0.365l2.37-0.232l-0.466,1.94l0.145,0.035
			c0.309-0.296,0.576-0.545,0.806-0.748c0.228-0.202,0.438-0.36,0.631-0.473c0.19-0.113,0.378-0.187,0.562-0.22
			c0.183-0.033,0.376-0.025,0.58,0.024c0.351,0.084,0.582,0.22,0.697,0.406C37.499,9.238,37.524,9.468,37.459,9.74z"/>
		<path fill="#D6432A" d="M41.364,17.49c-0.265,0.089-0.537,0.143-0.816,0.159s-0.56-0.004-0.843-0.062
			c-0.282-0.057-0.555-0.148-0.816-0.274c-0.974-0.465-1.568-1.073-1.78-1.823c-0.213-0.75-0.053-1.684,0.482-2.803
			c0.281-0.586,0.588-1.052,0.925-1.396c0.335-0.343,0.693-0.588,1.073-0.734c0.379-0.146,0.779-0.192,1.199-0.142
			c0.419,0.05,0.85,0.182,1.291,0.393c0.84,0.4,1.354,0.899,1.547,1.495c0.191,0.596,0.083,1.323-0.326,2.18L42.61,15.3
			l-4.021-1.987l-0.007,0.013c-0.362,0.758-0.479,1.368-0.35,1.828c0.13,0.46,0.55,0.861,1.263,1.202
			c0.461,0.22,0.922,0.349,1.386,0.388c0.464,0.038,0.896,0.042,1.299,0.013l-0.095,0.337C41.869,17.269,41.628,17.4,41.364,17.49z
			 M42.492,13.25c0.053-0.249,0.05-0.465-0.007-0.648c-0.056-0.184-0.175-0.346-0.356-0.489c-0.181-0.142-0.435-0.291-0.759-0.446
			c-0.271-0.129-0.513-0.214-0.727-0.255c-0.213-0.041-0.414-0.021-0.6,0.056c-0.188,0.079-0.371,0.22-0.551,0.423
			c-0.182,0.205-0.375,0.486-0.58,0.846l3.268,1.444C42.336,13.809,42.439,13.498,42.492,13.25z"/>
	</g>
	<circle fill="#F6C8A5" cx="26.601" cy="46.309" r="23.415"/>
	<circle fill="#DE5A35" cx="26.601" cy="46.309" r="21.767"/>
	<g>
		<path fill="#F1F5E0" d="M19.785,56.303c-0.673-0.217-1.263-0.445-1.768-0.686c0-0.023-0.024-0.361-0.072-1.01
			c-0.048-0.649-0.096-1.371-0.144-2.164c-0.072-0.938-0.157-1.984-0.252-3.139h3.859l0.686,3.463c0.24,0.096,0.517,0.18,0.83,0.252
			l1.407-5.699c-1.082-0.191-2.056-0.433-2.922-0.721c-0.866-0.289-1.605-0.674-2.218-1.154s-1.082-1.076-1.407-1.786
			c-0.325-0.709-0.487-1.569-0.487-2.579c0-1.346,0.228-2.494,0.685-3.445c0.457-0.949,1.07-1.718,1.84-2.308
			c0.77-0.589,1.665-1.016,2.688-1.28c1.021-0.265,2.11-0.397,3.264-0.397c0.649,0,1.299,0.036,1.948,0.108l0.901-3.644h2.309
			l-1.01,4.04c0.553,0.145,1.13,0.289,1.731,0.433l2.309-1.046v7.684h-3.716l-0.613-3.066c-0.216-0.119-0.433-0.217-0.649-0.289
			l-1.262,5.159c1.105,0.216,2.086,0.481,2.939,0.794s1.569,0.721,2.146,1.226s1.016,1.118,1.316,1.84s0.451,1.6,0.451,2.634
			c0,2.549-0.739,4.479-2.219,5.789c-1.479,1.311-3.625,1.966-6.438,1.966c-0.289,0-0.577-0.007-0.866-0.019
			s-0.565-0.029-0.83-0.054l-1.19,4.726h-2.309l1.262-5.051C21.191,56.711,20.458,56.52,19.785,56.303z M26.422,37.473
			c-0.121,0-0.252,0-0.397,0c-1.298,0-2.272,0.223-2.921,0.668c-0.649,0.445-0.974,1.088-0.974,1.93
			c0,0.433,0.042,0.793,0.126,1.082c0.083,0.289,0.246,0.541,0.487,0.758c0.24,0.217,0.577,0.396,1.01,0.541
			c0.433,0.145,1.01,0.276,1.731,0.396l1.299-5.338C26.662,37.486,26.542,37.473,26.422,37.473z M25.538,53.454
			c0.132,0,0.271,0,0.415,0c1.371,0,2.338-0.24,2.904-0.722c0.564-0.481,0.848-1.238,0.848-2.272c0-0.89-0.235-1.539-0.704-1.948
			c-0.469-0.408-1.269-0.733-2.399-0.974l-1.443,5.879C25.279,53.442,25.406,53.454,25.538,53.454z"/>
	</g>
</g>
</svg>
