<?xml version="1.0" encoding="utf-8"?>
<!-- Generator: Adobe Illustrator 16.0.0, SVG Export Plug-In . SVG Version: 6.00 Build 0)  -->
<!DOCTYPE svg PUBLIC "-//W3C//DTD SVG 1.1//EN" "http://www.w3.org/Graphics/SVG/1.1/DTD/svg11.dtd">
<svg version="1.1" id="Calque_1" xmlns="http://www.w3.org/2000/svg" xmlns:xlink="http://www.w3.org/1999/xlink" x="0px" y="0px"
	 width="18.369px" height="15.98px" viewBox="0 0 18.369 15.98" enable-background="new 0 0 18.369 15.98" xml:space="preserve">
<g>
	<g>
		<path fill="#3C9093" d="M2.674,7.051L0.181,3.254V1.557l1.826,0.119l2.486,3.51l2.264-3.51l2-0.073V3.3L6.132,7.238l2.295,1.9
			v1.698l-1.963,1.133L4.378,9.107l-2.523,2.862L0,10.836V9.138L2.674,7.051z"/>
		<path fill="#C63A18" d="M10.087,2.548l2.28-0.129v0.954h0.036c0.45-0.685,1.158-1.078,2.113-1.078
			c2.268,0,3.853,1.927,3.853,4.664c0,2.449-1.404,4.878-3.997,4.878c-0.738,0-1.549-0.215-2.053-0.863h-0.036l0.099,5.006H9.819
			L10.087,2.548z M12.507,8.91c0.307,0.378,0.587,0.829,1.379,0.829c1.116,0,2.038-0.858,2.038-2.677
			c0-1.71-0.669-2.893-1.983-2.893c-0.919,0-1.291,0.671-1.418,1.444L12.507,8.91z"/>
	</g>
	<path fill="#7ACCEA" d="M2.674,5.376L0.181,1.579L2.007,0l2.486,3.51L6.757,0l2,1.625L6.132,5.562L8.427,9.16l-1.963,1.134
		L4.378,7.432l-2.523,2.862L0,9.16L2.674,5.376z"/>
	<path fill="#EC8820" d="M10.087,0.842l2.28-0.129v0.954h0.036c0.45-0.685,1.158-1.078,2.113-1.078c2.268,0,3.853,1.927,3.853,4.664
		c0,2.448-1.404,4.879-3.997,4.879c-0.738,0-1.549-0.216-2.053-0.864h-0.036l0.099,5.006H9.819L10.087,0.842z M12.507,7.203
		c0.307,0.378,0.587,0.828,1.379,0.828c1.116,0,2.038-0.857,2.038-2.677c0-1.71-0.669-2.893-1.983-2.893
		c-0.919,0-1.291,0.671-1.418,1.444L12.507,7.203z"/>
</g>
</svg>
