<?xml version="1.0" encoding="utf-8"?>
<!-- Generator: Adobe Illustrator 16.0.0, SVG Export Plug-In . SVG Version: 6.00 Build 0)  -->
<!DOCTYPE svg PUBLIC "-//W3C//DTD SVG 1.1//EN" "http://www.w3.org/Graphics/SVG/1.1/DTD/svg11.dtd">
<svg version="1.1" id="Calque_1" xmlns="http://www.w3.org/2000/svg" xmlns:xlink="http://www.w3.org/1999/xlink" x="0px" y="0px"
	 width="550.35px" height="385.202px" viewBox="0 0 550.35 385.202" enable-background="new 0 0 550.35 385.202"
	 xml:space="preserve">
<g>
	<rect fill="#5A3935" width="550" height="385"/>
	<g opacity="0.05">
		<path fill="#B2B2B2" d="M437.647,44.468C441.755,40.872,449.039,16,449.955,0h-7.34c4.226,13,1.012,22.358,0.828,22.837
			c-0.318,0.821-1.428,1.055-2.482,0.807c-1.057-0.246-1.653-0.761-1.337-1.582C439.665,21.952,442.75,13,438.477,0h-5.873
			c1.812,7,3.073,18.096,3.196,29.905C435.906,40.297,437.054,43.421,437.647,44.468z"/>
		<path fill="#B2B2B2" d="M0,330.701v8.156c5,9.015,6.726,15.353,6.784,15.476c0.382,0.805,0.108,1.697-0.925,1.994
			c-0.229,0.066-0.335,0.1-0.565,0.1c-0.809,0-2.015-0.389-2.312-1.015C2.947,355.34,3,353.169,0,349.604v6.303
			C9,359.765,19.401,373,25.507,385h6.239c-0.729,0-1.968-1.191-2.707-1.988C19.748,372.988,9,356.738,0,330.701z"/>
		<path fill="#B2B2B2" d="M525.294,376.258c-0.867-0.527-1.024-1.354-0.348-2.03c0.679-0.677,1.756-0.725,2.624-0.196
			c6.87,4.168,18.43,9.49,22.43,9.797v-0.871c-4-4.258-26.509-13.908-36.827-12.28c-0.374,0.061-0.483-0.169-0.574-0.13
			c0.022,1.799,9.338,9.453,24.424,14.453h7.067C536.401,384,527.613,377.664,525.294,376.258z"/>
		<path fill="#B2B2B2" d="M103.837,273.726c15.696-10.709,28.093-19.169,20.939-34.076c-12.61-26.283-45.636-34.762-69.751-40.951
			c-8.229-2.113-15.84-3.936-20.478-6.124C21.616,186.472,8,173.273,0,166.403v1.72c13,14.177,31.09,34.484,43.604,36.847
			c2.219,0.419,4.985,0.84,7.644,1.281c21.162,3.535,56.709,9.447,56.44,36.459c-0.179,18.319-12.92,27.174-20.536,30.822
			c-6.626,3.172-14.229,4.793-21.627,4.793c-5.523,0-10.901-0.902-15.646-2.738c-14.323-5.539-26.438-22.488-30.569-35.622
			c-2.766-8.79-2.183-15.876,1.632-19.959c6.132-6.562,23.841-6.515,37.142-4.483c15.274,2.336,34.308,8.831,37.67,19.446
			c3.539,11.179-4.903,26.204-18.434,32.812c-9.885,4.824-20.363,4.223-29.51-1.697c-16.499-10.678-26.064-27.439-20.89-36.607
			c1.451-2.571,5.455-6.727,15.969-5.601c16.682,1.774,28.73,4.167,33.301,10.078c2.511,3.243,2.599,7.237,0.269,12.21
			c-3.591,7.67-11.663,12.72-20.565,12.863c-6.985,0.098-12.746-2.873-15.458-7.988c-4.022-7.59-1.134-11.385,0.943-12.971
			c3.565-2.718,9.794-2.943,16.665-0.598c5.253,1.789,6.576,4.16,6.762,5.832c0.241,2.16-1.355,4.404-4.165,5.853
			c-2.796,1.443-6.018,1.726-8.409,0.737c-0.972-0.4-1.345-1.34-0.83-2.098c0.515-0.76,1.721-1.05,2.695-0.647
			c1.068,0.44,2.812,0.21,4.342-0.581c1.568-0.809,2.507-1.984,2.395-2.996c-0.13-1.179-1.688-2.334-4.39-3.255
			c-5.327-1.814-9.915-1.827-12.275-0.027c-2.317,1.767-2.333,5.253-0.048,9.565c2.09,3.943,6.36,6.195,11.688,6.07
			c5.503-0.092,13.234-2.98,16.904-10.823c1.892-4.035,1.912-7.156,0.064-9.542c-3.977-5.143-16.975-7.176-30.428-8.607
			c-6.034-0.642-10,0.629-11.78,3.779c-3.944,6.982,3.213,22.237,19.786,32.965c9.892,6.397,18.972,4.322,24.848,1.453
			c11.995-5.854,19.789-19.611,16.68-29.434c-2.913-9.197-20.439-14.982-34.563-17.143c-15.507-2.369-29.14-1.029-33.151,3.265
			c-3.068,3.28-3.424,9.618-0.979,17.39c3.918,12.455,15.229,28.455,28.478,33.579c9.899,3.828,23.03,3.075,33.459-1.919
			c6.914-3.312,18.537-11.377,18.703-28.199c0.243-24.48-31.897-29.847-53.165-33.398c-2.684-0.447-5.729-0.871-8-1.3
			C30.031,205.604,13,187.932,0,173.8v7.745c9,8.184,20.85,24.179,17.848,32.417l-0.308,1.527
			c-3.617,9.802-8.444,23.224,1.606,40.412c11.369,19.456,32.634,26.201,53.852,30.591c1.065,0.222,1.73,1.071,1.447,1.901
			c-0.237,0.694-1.027,1.154-1.911,1.154c-0.17,0-0.332-0.016-0.504-0.053c-22.162-4.586-44.332-11.676-56.39-32.306
			c-10.658-18.231-5.468-32.293-1.681-42.559l0.053-1.517C16.042,207.54,9,195.872,0,187.12v19.445
			c3,2.521,5.677,8.679,5.679,17.565c0,1.496,0.146,3.162,0.021,5.094c-0.793,12.293-1.998,32.873,24.485,50.531
			c0.036,0.023,0.134,0.047,0.168,0.074c0.189,0.146,19.175,14.584,36.418,16.535c1.087,0.123,1.86,0.91,1.702,1.76
			c-0.146,0.773-0.989,1.33-1.963,1.33c-0.095,0-0.189-0.008-0.286-0.016c-18.256-2.068-37.199-16.321-38.559-17.359
			C-0.252,263.437,1.141,241.925,1.97,229.067c0.122-1.889-0.279-3.521-0.279-4.938c0-3.217,0.309-6.038-1.691-8.422v47.537
			c5,7.114,10.057,13.769,17.815,18.379c1.167,0.74,27.806,17.673,38.733,41.738c1.384,3.045,3.189,6.587,5.131,11.036
			C67.419,347.535,76.154,368,85.673,385h8.597c-8.572-12-16.579-27.473-22.438-44.613
			C59.327,303.801,84.007,287.259,103.837,273.726z"/>
		<path fill="#B2B2B2" d="M549.934,325.376c-0.115,0.156-0.068,0.58,0.416,1.288v-1.58
			C550.066,325.222,549.964,325.335,549.934,325.376z"/>
		<path fill="#B2B2B2" d="M142.221,287.931c-4.234-0.208-7.575,2.794-9.661,5.323c-11.145,13.505-14.458,47.34-2.703,64.769
			c2.71,4.021,5.189,7.485,7.494,10.985c4.183,6.355,7.767,12.992,11.105,15.992h14.058c-1.212-1-2.533-1.699-4.005-2.936
			c-28.498-23.906-31.254-61.299-24.741-74.724c1.604-3.304,3.754-5.011,6.387-5.215c2.493-0.19,4.848,0.812,7.014,3.499
			C157.344,318.262,177.595,362,181.351,385h9.648c-2.369-23-15.114-57.039-31.368-82.609
			C152.064,290.488,145.987,288.095,142.221,287.931z"/>
		<path fill="#B2B2B2" d="M0,359.678v15.438c6,6.584,12.209,10.022,12.32,10.083c0.056,0.029,0.608-0.199,0.66-0.199h0.92
			c-2.826-3-5.605-8.764-7.558-10.484c-0.73-0.641-0.652-1.471,0.172-2.039c0.824-0.568,2.084-0.733,2.813-0.092
			C11.807,374.567,15.01,381,18.293,385h3.028C15.72,375,7,363.845,0,359.678z"/>
		<path fill="#B2B2B2" d="M408.636,31.217c0.016-0.003,1.444-0.45,1.444-5.649c0-0.349,0.152-0.2,0.404-0.46
			C410.068,17.271,408.89,7,406.597,0h-2.674c0.617,1,1.184,3.504,1.679,5.455c3.89,15.25,1.031,16.02-0.19,16.452
			c-0.396,0.139-0.784,0.088-1.164,0.088c-2.35,0-4.471-2.141-7.002-6.154C393.934,10.593,390.098,4,386.271,0h-3.558
			c0.652,0,1.244,1.683,1.75,2.671C391.98,17.304,405.101,31.74,408.636,31.217z"/>
		<path fill="#B2B2B2" d="M271.828,374.236c-2.295-0.893-4.364-0.965-5.269-0.415c-0.792,0.48-0.968,1.534-0.48,3.283
			c0.745,2.689,1.216,6.896,1.5,7.896h17.2C281.099,381,275.917,375.82,271.828,374.236z"/>
		<path fill="#B2B2B2" d="M403.625,18.297C403.846,15.229,402.501,7,399.85,0h-2.048c-0.187,0-0.441,0.417-0.77,0.547
			C396.114,0.906,395.016,0,394.471,0h-3.66c3.5,3,6.968,9.824,10.011,14.648C402.082,16.643,402.999,17.595,403.625,18.297z"/>
		<path fill="#B2B2B2" d="M176.444,308.257c-12.329-27.59-16.877-36.188-30.469-33.465c-23.192,4.645-40.521,34.497-40.521,58.358
			c0,13.111,7.684,35.85,21.215,51.85h17.223c-3.118-3-6.396-8.963-10.088-14.574c-2.299-3.488-4.774-7.097-7.478-11.105
			c-12.649-18.758-8.925-53.52,2.881-67.823c4.82-5.837,9.861-6.842,13.236-6.703c7.016,0.305,14.001,5.568,20.759,16.2
			C179.936,327.313,192.655,362,194.906,385h15.725c-1.365-7-4.7-18.252-10.479-28.67
			C189.367,336.869,182.203,321.138,176.444,308.257z"/>
		<path fill="#B2B2B2" d="M488.996,313.318c-19.368-21.374-43.872-82.787-44.905-85.392c-0.188-0.445-19.836-47.609-20.912-144.153
			C422.754,45.69,421.381,19,417.778,0h-7.051c4.385,17,3.964,33.323,3.819,36.574c-0.945,21.464,3.787,42.074,3.835,42.282
			c0.194,0.844-0.527,1.534-1.609,1.684c-0.12,0.019-0.238-0.032-0.355-0.032c-0.946,0-1.787-0.558-1.959-1.309
			c-0.049-0.212-4.854-21.395-3.893-43.186c0.027-0.677,0.052-1.38,0.069-2.091c-0.377,0.16-0.785,0.279-1.244,0.35
			c-0.242,0.035-0.49,0.051-0.742,0.051c-9.01,0-23.699-22.346-27.887-30.497C380.085,2.508,379.249,1,378.301,0h-8.088
			c26.332,37,42.34,75.918,48.255,137.994c8.563,89.899,36.83,131.291,37.115,131.702c0.022,0.035,0.044-0.052,0.064-0.017
			c10.175,17.609,12.942,37.177,15.876,57.954c2.253,15.953,4.581,32.118,10.558,47.734c1.36,3.551,3.101,7.632,5.206,9.632h3.021
			c-6.542-9-11.772-20.754-12.851-36.465c-0.832-12.125,1.846-19.108,8.539-21.661c13.851-5.283,40.004,12.186,64.004,28.3v-2.69
			c-3-2.273-7.792-4.521-11.705-6.723C517.204,333.878,497.454,322.659,488.996,313.318z"/>
		<path fill="#B2B2B2" d="M550,0h-4.802C546.872,1,549,2.062,550,3.566V0z"/>
		<path fill="#B2B2B2" d="M487.926,329.813c-5.033,1.916-7.213,7.962-6.486,18.558c1.103,16.08,6.689,29.629,13.473,36.629h2.238
			c-6.733-6-12.103-17.16-14.071-29.656c-1.421-9.021,0.873-14.676,7.163-17.099c12.694-4.886,39.758,6.596,59.758,21.459v-0.424
			c0-0.008,0.149-0.016,0.138-0.025C527.68,344.104,499.909,325.247,487.926,329.813z"/>
		<path fill="#B2B2B2" d="M467.562,327.917c-2.896-20.512-5.63-39.883-15.524-57.033c-1.208-1.789-29.066-43.629-37.547-132.659
			C408.56,75.948,392.356,37,365.653,0h-6.948c7.546,11,14.062,22.933,15.471,27.984c2.999,10.756,5.221,37.209-38.792,52.788
			c-17.748,6.279-26.947,12.342-27.345,18.25c-0.345,5.132,5.816,10.465,18.834,16.422c3.967,1.815,9.22,3.489,15.303,5.46
			c15.075,4.889,33.834,10.956,47.636,23.392c16.341,14.726,21.659,34.635,16.26,60.879c-8.801,42.784,1.497,63.508,12.399,85.451
			c6.908,13.9,14.05,27.973,16.596,48.531c2.611,21.082,8.663,35.843,14.896,45.843h8.637c-11.551-14-21.192-35.523-15.152-58.312
			c3.616-13.664,6.249-16.202,9.462-16.138c5.361,0.133,7.714,10.181,12.182,34.651c1.933,10.58,3.931,21.562,6.106,26.696
			c3.267,7.712,1.212,9.272,0.538,9.778c-0.894,0.666-2.128,0.849-3.394,0.481c-4.863-1.416-13.153-13.048-15.513-33.53
			c-0.1-0.855,0.711-1.606,1.807-1.682c1.104-0.097,2.067,0.553,2.165,1.406c2.202,19.131,9.391,28.547,12.207,30.526
			c0.032-0.926-0.249-2.791-1.598-5.971c-2.286-5.396-4.221-15.985-6.268-27.193c-2.144-11.744-5.351-29.303-8.338-31.77
			c-0.744,0.638-2.688,2.926-5.456,13.369c-6.003,22.66,4.192,44.687,15.873,57.687h19.634c-1.981-2-3.481-5.869-4.595-8.775
			C472.18,360.34,469.833,344.005,467.562,327.917z M391.021,128.886c-21.906,0-57.755-16.013-66.845-25.679
			c-3.51-3.732-2.644-6.029-1.298-7.298c4.867-4.594,17.566-10.117,29.85-15.458c8.599-3.742,16.724-7.275,21.145-10.057
			c3.474-2.187,6.69-2.834,9.559-1.922c5.759,1.829,9.172,9.614,11.786,26.876c1.269,8.377-2.135,14.852-9.332,17.765
			c-8.455,3.42-20.592,1.215-30.2-5.486c-9.867-6.883-9.118-12.104-7.794-14.605c2.562-4.833,11.017-7.683,21.545-7.246
			c5.789,0.237,9.696,1.681,11.617,4.286c3.031,4.116-0.385,9.377-0.535,9.599c-0.097,0.151-0.228,0.287-0.383,0.405
			s-3.869,2.886-8.733,2.667c-2.972-0.129-5.646-1.298-7.955-3.477c-0.701-0.663-0.582-1.64,0.268-2.187
			c0.849-0.545,2.106-0.452,2.806,0.21c1.565,1.476,3.272,2.267,5.076,2.35c2.566,0.127,4.801-1.165,5.525-1.633
			c0.516-0.901,2.145-4.132,0.47-6.396c-1.205-1.627-4.021-2.544-8.365-2.721c-8.544-0.344-15.804,1.84-17.65,5.33
			c-1.591,3.006,0.811,6.95,6.768,11.104c8.379,5.846,18.709,7.873,25.704,5.045c5.728-2.318,8.286-7.52,7.209-14.645
			c-0.841-5.56-3.403-22.482-9.327-24.363c-1.424-0.452-3.291,0.04-5.553,1.461c-4.686,2.948-12.952,6.545-21.707,10.351
			c-11.402,4.96-24.328,10.582-28.718,14.724c-0.877,0.83,0.716,2.714,1.441,3.486c9.385,9.979,53.741,28.88,70.894,23.485
			c14.523-4.57-1.869-52.373-15.613-81.432c-0.38-0.805,0.147-1.698,1.18-1.995c1.03-0.294,2.181,0.117,2.561,0.921
			c3.775,7.982,36.232,78.192,13.366,85.386C397.263,128.528,394.298,128.886,391.021,128.886z M448.646,304.614
			c-0.619,0.276-1.287,0.419-2.016,0.419c-3.332,0-7.943-2.962-15.072-9.55c-26.814-24.78-22.504-65.533-19.654-92.498
			c0.892-8.423,1.596-15.075,1.084-19.107c-2.138-16.797-10.02-43.292-10.101-43.558c-0.249-0.834,0.416-1.67,1.488-1.862
			c1.069-0.194,2.145,0.323,2.396,1.157c0.078,0.271,8.021,26.96,10.186,43.958c0.547,4.313-0.17,11.088-1.078,19.667
			c-2.798,26.461-7.026,66.443,18.729,90.242c9.479,8.76,11.99,8.438,12.094,8.428c0.204-0.154,2.283-2.172-3.757-18.554
			c-3.698-10.029-9.165-22.057-13.158-30.836c-1.42-3.122-2.682-5.898-3.66-8.128c-1.01-2.305-1.795-3.555-2.313-4.224
			c-1.604,4.67,0.065,23.597,8.81,35.06c0.563,0.738,0.252,1.691-0.693,2.129c-0.948,0.436-2.173,0.195-2.733-0.542
			c-9.763-12.798-11.821-34.958-8.253-39.205c1.033-1.227,2.421-1.232,2.967-1.181c2.181,0.215,3.916,2.229,5.99,6.958
			c0.975,2.222,2.229,4.985,3.646,8.096C448.55,284.493,455.01,301.774,448.646,304.614z"/>
		<path fill="#B2B2B2" d="M16.747,299.651C10.507,294.518,6,288.634,0,282.564v4.587c4,3.332,8.65,11.271,15.514,16.725
			c9.702,7.711,38.475,38.382,45.209,62.444c2.324,8.301,2.129,15.68-0.813,18.68h9.564c-0.818-1-1.78-4.428-2.288-7.188
			C64.288,362.086,44.786,322.72,16.747,299.651z"/>
		<path fill="#B2B2B2" d="M538.948,33.416c-10.486-8.77-20.068-12.904-26.698-11.307c-0.269,0.147-1.218,0.771-1.671,2.253
			c-0.744,2.437-0.073,7.136,7.254,15.681c8.425,9.826,5.338,14.467,3.486,17.24c-0.296,0.442-0.693,1.045-0.694,1.244
			c0.045,0.031,0.369,0.556,3.79,1.561C525.851,60.346,539,62.797,550,62.909V44.401C547,40.75,543.163,36.938,538.948,33.416z
			 M547.14,55.104c-1.646,1.39-4.38,1.826-7.161,1.826c-3.951,0-8.001-0.88-9.192-1.161c-1.053-0.248-1.65-1.115-1.331-1.936
			c0.318-0.821,1.437-1.285,2.484-1.037c3.948,0.928,10.576,1.634,12.271,0.202c0.801-0.678,0.326-2.093-0.213-3.161
			c-4.293-8.508-17.914-16.131-21.995-16.813c0.618,1.573,3.602,5.181,7.035,8.419c0.7,0.663,0.58,1.641-0.271,2.187
			c-0.848,0.548-2.104,0.452-2.803-0.209c-3.414-3.22-8.978-9.033-7.909-11.787c0.305-0.791,1.074-1.384,2.105-1.628
			c5.731-1.345,22.864,9.417,27.548,18.695C549.1,51.456,548.905,53.612,547.14,55.104z"/>
		<path fill="#B2B2B2" d="M550,28.939v-7.469c-1-1.352-2.475-2.169-3.756-3.378C542.956,14.982,534.945,7,524.026,0h-9.398
			c3.007,2,5.961,4.038,9.161,6.168C533.694,12.753,543,21.192,550,28.939z"/>
		<path fill="#B2B2B2" d="M28.847,375.68c-15.768-19.555-29.823-54.046-22.065-61.37c1.126-1.063,2.872-1.312,4.792-0.812
			c11.229,2.93,40.344,40.278,41.238,56.083c0.516,9.156-2.753,11.646-5.585,12.106c-0.349,0.055-0.701,0.091-1.052,0.091
			c-9.132,0.004-19.647-18.466-25.227-29.772c-10.527-21.327-6.546-22.54-4.846-23.059c8.135-2.517,25.453,30.36,28.841,36.973
			c0.408,0.795-0.09,1.7-1.112,2.017c-1.027,0.316-2.182-0.07-2.59-0.865c-11.509-22.461-20.071-32.504-23.313-34.724
			c-0.015,1.68,0.76,6.434,6.74,18.55c11.73,23.767,19.672,28.099,21.743,27.767c1.002-0.161,2.794-2.232,2.417-8.91
			c-0.774-13.687-25.102-45.37-36.197-52.14c-2.042-1.25-2.812-1.167-2.824-1.167c-4.901,4.658,4.475,35.33,22.414,57.58
			C37.064,380.035,41.856,384,45.896,385h8.947c3.103-1,5.145-7.639,2.24-18.02c-6.567-23.453-34.935-53.543-44.415-61.077
			C7.812,302.044,4,297.286,0,293.411v21.899c9,34.006,21.413,54.076,32.021,65.611c1.458,1.582,3.404,3.078,4.818,4.078h2.173
			C35.569,384,32.107,379.727,28.847,375.68z"/>
		<path fill="#B2B2B2" d="M53.046,324.397c-10.547-23.222-37.432-40.167-37.697-40.334C9.176,280.396,5,275.601,0,270.339v5.791
			c7,7.609,12.034,15.127,19.643,21.386c28.619,23.546,48.527,63.777,51.488,79.855c0.547,2.973,1.592,6.629,2.502,7.629h7.714
			c-9.128-16-17.352-35.951-23.314-49.602C56.095,330.959,54.421,327.428,53.046,324.397z"/>
		<path fill="#B2B2B2" d="M508.742,370.035c0.146-0.803,0.66-2.078,3.634-2.552c9.88-1.574,28.624,5.485,37.624,11.297v-3.828
			c-12-7.656-29.656-14.83-40.575-14.83c-0.154,0-0.22,0.002-0.372,0.004c-4.646,0.089-7.467,1.177-8.713,3.946
			c-2.474,5.494,3.792,14.928,13.881,20.928h14.616C519.069,382,508.003,374.127,508.742,370.035z"/>
		<path fill="#B2B2B2" d="M289.605,373.154c-27.9-24.303-50.048-60.014-67.847-88.828c-6.187-10.017-12.03-19.402-17.177-26.781
			c-10.409-14.916-16.587-26.816-25.139-43.345c-7.688-14.859-17.255-33.332-33.604-61.296
			c-34.088-58.31-81.199-77.306-81.671-77.493c-0.098-0.038-0.192-0.078-0.282-0.129l-0.396-0.221
			c-11.358-6.334-48.698-29.209-52.33-63.668C10.739,7.408,10.626,2,10.737,0H1.53c0.294,1,0.637,3.707,1.056,5.9
			C7.285,30.595,21.538,68.731,62.75,111.305c7.199,7.436,14.583,14.555,22.4,22.532C158.581,208.783,248.772,301,256.237,385h7.329
			c-0.271-1-0.704-4.709-1.386-7.164c-1.068-3.854,0.463-5.576,1.935-6.468c2.236-1.352,5.606-1.495,9.491,0.012
			c4.969,1.931,11.362,7.62,15.519,13.62h12.223C298.256,382,294.396,377.33,289.605,373.154z M182.02,228.12
			c-0.326,0.154-0.686,0.229-1.042,0.229c-0.67,0-1.324-0.262-1.702-0.739c-7.213-9.155-23.769-26.379-42.94-46.319
			C91.388,134.533,57.079,97.965,58.006,87.9c0.283-3.068,2.249-4.086,3.849-4.4c5.599-1.102,17.287,5.978,34.733,21.031
			c13.508,11.655,28.347,26.448,36.086,35.975c11.573,14.246,27.419,47.315,24.573,51.28c-0.438,0.61-1.229,0.965-2.09,0.959
			c-1.427-0.016-2.775-0.519-7.097-6.929c-14.983-22.221-49.512-60.98-49.858-61.368c-0.151-0.17-14.532-16.428-23.757-24.464
			c-0.734-0.64-0.663-1.621,0.157-2.193c0.821-0.571,2.08-0.518,2.814,0.122c9.395,8.185,23.47,24.094,24.064,24.768
			c0.343,0.384,35.012,39.301,50.107,61.69c0.455,0.674,0.865,1.262,1.236,1.777c-2.995-9.47-13.177-31.252-23.519-43.981
			c-7.632-9.395-22.303-24.015-35.677-35.557C75.412,90.894,65.65,85.953,62.827,86.512c-0.617,0.121-0.793,1.06-0.844,1.61
			c-0.896,9.709,44.439,56.871,77.545,91.307c19.229,20.004,35.835,37.277,43.146,46.557
			C183.252,226.715,182.957,227.673,182.02,228.12z"/>
		<path fill="#B2B2B2" d="M550,16.458V8.117C547,5.092,543.236,2,539.957,0h-10.52c10.629,7,17.91,14.252,19.885,16.117
			C549.583,16.366,550,16.171,550,16.458z"/>
		<path fill="#B2B2B2" d="M331.867,306.917c-5.237-11.688-9.762-21.783-14.147-26.576c-9.154-10.003-19.019-15.444-26.365-14.545
			c-5.209,0.634-9.291,4.464-12.128,11.383c-8.404,20.482,32.145,75.476,49.69,94.021c3.782,3.996,7.633,9.801,11.374,13.801h9.358
			c-4.025-3-8.586-8.957-13.746-13.955c-26.612-25.777-60.198-79.289-47.647-88.769c5.979-4.512,10.692-7.081,15.723-6.328
			c5.209,0.787,9.7,5.134,15.014,14.448c2.377,4.165,5.259,10.269,8.906,18.353C337.199,329.371,351.561,362,371.784,385h19.742
			c-2.128-1-4.373-2.66-6.771-4.141C357.627,364.102,342.739,331.177,331.867,306.917z"/>
		<path fill="#B2B2B2" d="M95.583,41.041c0.631,3.659-1.613,4.919-3.007,5.486c-8.586,3.487-24.471-7.313-30.898-12.07
			c-7.836-5.794-21.941-18.033-19.242-22.638c0.418-0.708,1.556-1.891,4.485-1.668c13.159,1.002,37.343,19.873,37.282,25.331
			c-0.017,1.346-1.202,2.316-2.956,2.426c-7.636,0.505-21.797-13.383-24.554-16.166c-0.672-0.68-0.511-1.657,0.361-2.18
			c0.871-0.525,2.123-0.398,2.795,0.28c5.87,5.925,15.55,14,20.14,14.886C77.646,30.27,57.75,14.067,46.531,13.211
			c-0.226-0.017-0.386-0.016-0.497-0.009c-0.223,2.502,10.294,14.051,24.69,23.23c9.138,5.826,16.619,8.482,20.01,7.104
			c0.309-0.126,1.251-0.506,0.899-2.552C89.774,30.209,60.617,4.581,44.17,1.807c-3.92-0.662-6.664,0.059-8.388,2.202
			c-7.879,9.796,17.264,38.73,40.9,51.709c7.158,3.932,20.128,9.591,26.505,3.296c5.642-5.565-1.738-22.621-17.945-42.143
			C79.902,10.441,74.302,3,68.769,0H46.428C64.536,2,93.6,29.544,95.583,41.041z"/>
		<path fill="#B2B2B2" d="M6.721,385C5.045,384,3,382.781,0,380.758V385H6.721z"/>
		<path fill="#B2B2B2" d="M550,190.343v-27.342c0,2.012-0.188,4.054-0.247,6.134C549.543,176.446,550,183.616,550,190.343z"/>
		<path fill="#B2B2B2" d="M333.119,227.354c-3.088-1.808-6.235-3.625-9.435-5.473c-30.208-17.436-64.45-37.199-93.009-76.591
			c-30.742-42.401-87.533-67.527-88.104-67.777c-17.406-7.274-27.739-7.353-37.732-7.428c-9.047-0.068-17.59-0.135-29.865-5.628
			c-0.154-0.068-0.297-0.153-0.423-0.251c-0.528-0.415-2.285-0.807-4.32-1.802C56.398,55.632,20.961,38,20.876,0h-0.794
			c0.178,34,27.384,51.678,27.695,51.867c0.132,0.079,0.249-0.064,0.348,0.038c0.14,0.136,14.493,13.97,56.839,27.955
			c46.309,15.299,106.26,55.038,135.804,109.472c13.185,24.296,17.328,49.07,21.333,73.057
			c5.331,31.913,10.365,61.743,35.663,88.312c11.19,11.754,20.85,23.3,29.083,34.3h8.854c-3.32-3-6.698-8.475-9.992-11.959
			c-18.5-19.551-59.24-75.116-50.282-96.957c3.336-8.133,8.489-12.604,15.312-13.433c9.009-1.091,20.028,4.704,30.227,15.851
			c4.717,5.153,9.107,14.97,14.665,27.375c10.712,23.902,25.377,56.343,51.602,72.539c3.722,2.3,7.104,5.584,10.205,6.584h24.343
			c-24.916-57-77.707-95.512-111.832-120.459c-9.036-6.605-16.839-12.162-22.505-17.022c-14.451-12.396-23.933-29.739-34.911-49.905
			c-13.215-24.275-28.195-51.752-55.658-75.792c-28.655-25.083-59.637-38.508-80.583-45.372c-1.015-0.331-1.491-1.233-1.063-2.024
			c0.426-0.791,1.596-1.159,2.609-0.824c21.326,6.987,52.864,20.672,82.015,46.189c27.9,24.424,43.014,52.189,56.349,76.684
			c10.836,19.905,20.196,37.099,34.191,49.106c5.56,4.769,13.309,10.135,22.283,16.693C347.309,287.595,400.988,327,426.002,385
			h6.336c-3.615-16-7.876-36.156-14.938-55.76C400.743,283.023,363.07,244.915,333.119,227.354z M347.816,308.026
			c1.418-1.797,3.796-2.531,6.695-2.078c13.611,2.141,51.457,61.734,55.729,68.521c0.483,0.772,0.076,1.701-0.912,2.078
			c-0.281,0.109-0.583,0.159-0.877,0.159c-0.737,0-1.445-0.318-1.792-0.868c-15.797-25.11-44.14-65.462-52.938-66.846
			c-1.558-0.246-2.124,0.174-2.509,0.658c-3.929,4.986,5.001,26.873,18.232,39.93c10.254,10.116,16.861,11.412,17.81,10.881
			c0.172-0.096,0.66-1.523-2.211-4.973c-2.294-2.754-5.458-6.045-8.809-9.529c-8.649-8.992-17.593-18.293-17.593-24.133
			c0-0.857,0.893-1.554,1.992-1.554c1.103,0,1.995,0.696,1.995,1.554c0,4.805,9.313,14.49,16.798,22.271
			c3.39,3.526,6.595,6.857,8.96,9.701c5.056,6.068,2.516,8.446,1.19,9.188c-4.443,2.479-13.788-2.138-23.26-11.48
			C353.63,338.987,342.163,315.202,347.816,308.026z M408.843,335.421c-0.345,0.182-0.731,0.266-1.114,0.266
			c-0.641,0-1.271-0.239-1.655-0.686c-0.512-0.592-51.545-59.402-79.159-74.104c-23.551-12.536-40.4-27.642-40.975-36.731
			c-0.16-2.527,0.929-4.627,3.146-6.077c1.386-0.906,3.388-1.146,5.954-0.718c18.848,3.151,75.24,44.193,90.575,68.915
			c4.263,6.872,4.714,8.348,2.837,9.296c-2.239,1.126-3.805-0.324-13.989-9.756c-13.776-12.755-39.42-36.498-61.814-45.334
			c-0.981-0.389-1.374-1.324-0.877-2.088c0.498-0.765,1.699-1.07,2.68-0.684c23.118,9.124,48.123,32.273,63.061,46.105
			c1.755,1.626,3.474,3.217,5,4.604c-0.155-0.252-0.316-0.516-0.485-0.793c-15.992-25.779-71.246-64.457-87.823-67.229
			c-1.819-0.304-2.416-0.031-2.556,0.061c-1.26,0.824-1.824,1.982-1.728,3.545c0.504,7.922,17.371,22.675,39.243,34.318
			c28.244,15.037,78.107,72.496,80.218,74.935C409.994,333.978,409.753,334.942,408.843,335.421z"/>
		<path fill="#B2B2B2" d="M550,236.882v-17.059c-3-12.037-4.81-30.694-4.235-50.757c0.242-8.43,1.235-23.525,4.235-37.481v-30.787
			c-4,11.49-9.277,32.145-9.752,57.939C539.684,189.45,544,220.131,550,236.882z"/>
		<path fill="#B2B2B2" d="M64.655,162.304c6.645,1.466,9.66,1.107,10.103,0.865c0.927-0.702,1.536-1.741,1.536-3.079
			c0-3.656-4.019-12.489-27.957-30.563C31.297,116.664,13,92.657,0,76.091v24.648c8,4.312,16.047,10.958,27.833,20.083
			c6.446,4.989,12.785,9.702,16.999,12.575c10.115,6.894,18.168,16.898,13.85,20.806c-3.706,3.354-12.79,0.249-27.129-9.224
			c-17.28-11.417-26.638-20.067-25.728-23.733c0.215-0.873,0.958-1.53,2.007-1.802c2.625-0.681,6.102,1.394,7.935,2.692
			c8.56,6.061,25.844,17.276,26.016,17.39c0.847,0.549,0.964,1.529,0.261,2.188c-0.705,0.657-1.96,0.745-2.808,0.199
			c-0.174-0.114-17.519-11.374-26.142-17.479c-1.198-0.847-2.209-1.376-2.943-1.679c1.139,2.055,5.717,7.748,24.045,19.856
			c17.789,11.752,21.561,9.593,21.592,9.565c1.417-1.281-2.148-8.823-13.328-16.442c-4.309-2.938-10.438-7.683-16.931-12.709
			c-7.788-6.03-17.12-12.862-24.491-17.878C0.854,105.021,2,104.909,0,104.789v19.113C20,147.028,49.628,158.989,64.655,162.304z"/>
		<path fill="#B2B2B2" d="M535.46,85.477c-6.335,9.539-8.668,51.322-5.095,93.147C533.65,217.091,541,246.101,550,259.192v-13.545
			c0-1.379-1.711-2.957-2.522-4.755C533.192,209.251,532,117.744,550,93.755V74.614C546,75.193,540.661,77.643,535.46,85.477z"/>
		<path fill="#B2B2B2" d="M531.919,84.049C538.157,74.652,546,71.984,550,71.457v-5.44c-11-0.113-25.98-2.81-26.619-2.927
			c-0.08-0.015-0.07-0.035-0.149-0.057c-3.972-1.156-5.729-2.123-6.383-3.448c-0.677-1.371,0.146-2.573,0.923-3.734
			c1.537-2.303,3.87-5.786-3.242-14.084c-6.641-7.746-9.235-13.921-7.714-18.354c1.015-2.967,3.533-4.011,3.816-4.121
			c0.084-0.031,0.17-0.06,0.258-0.083c1.407-0.364,2.914-0.548,4.471-0.548c9.556,0,19.608,6.873,26.503,12.639
			c2.883,2.408,6.137,5.066,8.137,7.785v-4.718c-7-8.335-17.731-18.478-28.797-25.836C516.886,5.661,512.875,2,508.943,0h-17.081
			c21.348,41,27.376,89.931,27.711,92.825c0.047,0.813,4.118,74.67,2.31,135.087c-0.739,24.869-8.48,51.828-23.728,52.512
			c-0.192,0.01-0.384-0.044-0.574-0.044c-18.528,0-35.914-40.346-49.019-113.762c-9.812-54.987-6.566-90.146,9.142-98.97
			c4.488-2.523,9.809-2.726,15.38-0.579c18.551,7.148,39.467,40.303,40.911,81.412c3.504,99.71-5.917,113.341-13.31,114.922
			c-5.683,1.214-10.548-4.542-13.719-8.976c-13.21-18.457-6.776-27.017,0.672-36.925c7.611-10.127,16.238-21.601,9.025-47.659
			c-4.713-17.031-11.882-26.099-19.705-24.861c-10.263,1.62-20.499,19.896-17.666,31.543c0.534,2.2,1.099,4.783,1.696,7.514
			c2.541,11.665,7.279,33.377,13.966,33.858c1.768,0.112,6.774-1.489,15.147-19.193c9.163-17.263-0.371-25.924-3.508-28.169
			c-4.013-2.869-9.05-3.972-12.259-2.68c-2.439,0.984-3.486,3.326-2.949,6.594c0.846,5.153,1.131,9.757,1.357,13.453
			c0.222,3.56,0.469,7.574,1.252,8.5c0.45-0.104,1.787-0.634,4.988-3.257c8.448-6.929,8.996-10.357,8.571-11.787
			c-0.331-1.115-1.493-1.944-3.554-2.538c-3.216-0.932-5.81,0.618-6.769,1.883c-0.438,0.578-0.578,1.165-0.32,1.339
			c0.833,0.561,0.929,1.541,0.207,2.19c-0.718,0.648-1.978,0.722-2.81,0.161c-1.812-1.216-2.014-3.284-0.51-5.267
			c2.026-2.675,6.654-4.644,11.586-3.22c4.195,1.212,5.605,3.252,6.054,4.749c1.092,3.669-2.035,8.454-9.564,14.628
			c-3.66,3.001-6.642,4.841-9.29,4.074c-3.181-0.921-3.406-4.61-3.823-11.31c-0.226-3.64-0.506-8.172-1.331-13.206
			c-0.754-4.589,1.097-8.142,5.072-9.746c4.734-1.911,11.48-0.644,16.787,3.15c3.619,2.589,14.648,12.52,4.524,31.588
			c-7.121,15.061-13.077,21.588-19.228,21.155c-9.02-0.651-13.114-16.186-17.531-36.429c-0.593-2.717-1.152-5.285-1.681-7.458
			c-3.017-12.404,7.419-33.054,20.791-35.166c7.365-1.163,17.578,2.622,24.395,27.252c7.54,27.238-1.898,39.794-9.48,49.882
			c-7.392,9.834-12.731,16.934-0.632,33.842c5.444,7.611,8.405,7.664,9.181,7.494c4.271-0.916,13.833-13.642,10.38-111.844
			c-1.358-38.693-21.104-71.94-38.692-78.718c-4.226-1.628-8.026-1.527-11.28,0.306c-4.359,2.447-10.004,9.136-12.166,27.109
			c-2.045,17.001-0.483,40.183,4.641,68.899c14.761,82.712,33.138,111.582,45.414,111.048c10.385-0.467,19.158-22.253,19.974-49.602
			c1.804-60.311-2.262-133.834-2.304-134.573C515.519,92.373,509.243,41,487.401,0h-5.526c8.295,14,16.563,32.875,21.031,54.505
			c4.18,20.239,4.073,21.623,1.507,22.511c-0.364,0.126-0.713,0.071-1.06,0.071c-1.764,0-3.409-1.656-6.232-4.39
			c-7.858-7.615-22.484-21.817-44.422-11.584c-0.943,0.441-2.169,0.188-2.733-0.549c-0.567-0.736-0.258-1.695,0.686-2.135
			c24.911-11.626,41.571,4.51,49.576,12.266c0.653,0.632,1.347,1.302,1.962,1.869c-0.282-3.811-2.001-11.666-3.219-17.564
			c-4.539-21.977-13.04-41-21.442-55h-3.916c6.523,13,16.605,37.546,13.807,46.46c-1.468,4.677-6.011,7.434-11.257,7.434
			c-0.764,0-1.538-0.181-2.32-0.31c-9.654-1.598-17.272-12.399-12.534-32.792c2.812-12.115,4.921-14.229,7.826-13.835
			c1.934,0.262,4.118,1.541,5.624,13.673c0.739,5.943,1.028,12.843,0.619,14.771c-0.181,0.845-1.207,1.415-2.294,1.275
			c-1.086-0.141-1.819-0.942-1.642-1.787c0.669-3.149-0.706-19.674-2.832-24.13c-0.703,1.229-1.88,4.059-3.38,10.527
			c-4.239,18.249,1.923,27.898,9.44,29.143c4.053,0.674,7.708-0.987,8.876-4.708C486.153,37.417,475.704,13,469.354,0h-8.474
			c-0.849,12-5.699,28.789-12.889,52.789l-1.378,4.359c-17.084,57.103,8.769,152.188,9.031,153.143
			c0.013,0.047,0.022,0.036,0.031,0.084c0.127,0.827,13.148,82.941,60.285,98.181c13.771,4.452,24.038,5.094,34.038,5.113v-6.353
			c-27-5.212-33.729-11.954-34.778-23.79c-1.126-12.639,1.051-19.582,6.655-21.852c4.604-1.869,10.892-0.236,19.13,4.972
			c1.562,0.987,2.978,2.018,4.556,3.052c1.523,0.999,3.438,1.998,4.438,2.972v-7.792c-15-15.763-21.751-64.272-23.613-86.049
			C522.712,135.812,525.191,94.182,531.919,84.049z M495.188,138.112c-0.127,0.785-0.985,1.359-1.974,1.359
			c-0.082,0-0.165-0.004-0.248-0.012c-0.3-0.029-29.972-3.188-30.725-28.167c-0.356-11.762,1.96-18.034,6.888-18.638
			c4.826-0.591,9.929,4.919,13.674,14.74c3.864,10.12,2.58,12.353,0.619,13.258c-2.358,1.087-5.026-0.641-5.979-1.362
			c-1.293-0.719-8.684-5.227-8.684-14.188c0-0.857,0.893-1.553,1.992-1.553c1.101,0,1.993,0.696,1.993,1.553
			c0,7.89,6.793,11.548,7.082,11.698c0.108,0.057,0.22,0.127,0.311,0.2c0.334,0.259,0.791,0.533,1.162,0.709
			c0.138-0.867,0.04-3.259-2.315-9.43c-3.731-9.785-7.93-12.712-9.236-12.556c-1.104,0.135-3.895,3.183-3.522,15.496
			c0.675,22.262,26.15,25.051,27.236,25.16C494.551,136.487,495.324,137.263,495.188,138.112z M459.358,79.966
			c2.81-1.769,5.979-2.318,9.163-1.588c13.213,3.032,23.951,27.555,25.133,30.341c0.114,0.269,11.323,27.158,13.732,63.806
			c1.169,17.765,1.459,35.301,0.796,48.109c-1.252,24.192-5.456,28.089-8.979,28.78c-0.378,0.074-0.755,0.111-1.13,0.111
			c-3.267,0-6.474-2.837-10.229-8.987c-4.039-5.399,2.434-17.311,6.171-20.72c1.462-1.333,2.894-1.795,4.252-1.36
			c2.214,0.7,2.012,3.122,1.927,4.155c-0.827,9.959-2.329,14.666-2.391,14.861c-0.269,0.831-1.347,1.335-2.419,1.124
			c-1.067-0.207-1.713-1.054-1.445-1.884c0.013-0.046,1.445-4.578,2.251-14c-1.477,1.735-3.479,4.9-4.723,8.521
			c-1.205,3.508-1.26,6.338-0.154,7.768c0.033,0.044,0.067,0.09,0.094,0.137c4.63,7.604,6.798,7.258,6.823,7.262
			c0.479-0.093,4.712-1.619,5.969-25.896c0.658-12.716,0.371-30.148-0.792-47.822c-2.385-36.236-13.428-62.73-13.538-62.995
			c-3.03-7.14-12.974-26.154-22.473-28.33c-1.952-0.451-3.712-0.124-5.534,1.022c-0.856,0.54-2.11,0.436-2.803-0.233
			C458.368,81.482,458.501,80.504,459.358,79.966z M452.824,112.578c0.028-0.858,0.922-1.541,2.049-1.507
			c1.1,0.025,1.965,0.742,1.936,1.598c-0.707,18.608,2.78,28.135,2.817,28.229c0.31,0.824-0.296,1.686-1.354,1.928
			c-0.186,0.043-0.375,0.063-0.562,0.063c-0.86,0-1.652-0.438-1.908-1.113C455.649,141.377,452.098,131.747,452.824,112.578z"/>
		<path fill="#B2B2B2" d="M140.55,305.293c-0.697,0.054-1.913,0.95-3.053,3.298c-6.039,12.442-3.064,48.716,23.93,71.364
			c2.988,2.502,5.235,4.045,6.91,5.045h3.581c-2.392-6-15.111-27.807-28.187-46.312c-0.53-0.752-0.18-1.547,0.786-1.959
			c0.964-0.418,2.178-0.067,2.707,0.684c0.084,0.119,8.576,11.893,16.255,24.167C171.585,374.537,174.871,383,175.9,385h1.449
			c-3.826-22-22.911-64.465-33.558-77.686C142.351,305.527,141.169,305.242,140.55,305.293z"/>
		<path fill="#B2B2B2" d="M92.264,174.83c6.302-7.373-8.513-29.555-33.085-50.498C38.541,106.737,16,77.64,0,54.194v15.463
			c13,16.236,32.954,43.886,51.174,57.639c18.792,14.188,28.979,25.531,28.979,32.794c0,2.179-0.789,4.021-2.521,5.328
			c-0.957,0.722-2.438,1.081-4.608,1.081c-1.409,0-3.558-0.151-5.507-0.453C52.999,163.8,22,152.197,0,129.375v10.366
			c15,12.905,33.604,26.933,60.239,34.382C77.202,178.865,88.605,179.111,92.264,174.83z"/>
		<path fill="#B2B2B2" d="M70.184,193.174C45.494,186.402,22,179.901,0,160.517v0.768c6,4.4,21.903,21.69,36.612,28.633
			c4.249,2.004,11.41,3.775,19.408,5.829c23.476,6.029,59.083,15.137,72.363,42.815c8.12,16.918-6.47,26.915-21.982,37.499
			c-19.992,13.641-42.617,28.8-30.748,63.528C81.655,357.146,89.958,373,98.758,385h7.633c-8.071-11-13.849-23.264-16.931-35.658
			c-5.597-22.512-1.479-42.837,11.015-54.63c23.547-22.222,38.828-40.614,38.979-40.8c0.596-0.722,1.827-0.89,2.755-0.427
			c0.926,0.463,1.194,1.44,0.6,2.163c-0.152,0.186-15.551,18.507-39.261,40.88C86.654,312.473,85.02,350,110.874,385h11.228
			c-0.774-1-1.539-1.822-2.289-2.92c-11.144-16.266-18.346-35.323-18.346-48.779c0-24.996,18.61-56.608,43.515-61.594
			c17.791-3.564,23.618,9.517,35.226,35.493c5.737,12.834,12.875,28.521,23.605,47.877C209.92,366.091,213.375,376,214.767,385
			h11.297c-1.934-14-7.677-32.918-17.265-54.066c-39.834-73.164-69.218-89.173-69.511-89.327c-0.912-0.481-1.147-1.375-0.528-2.083
			c0.618-0.709,1.859-0.856,2.769-0.373c1.231,0.651,30.651,16.552,70.985,90.642C222.264,351.293,228.084,371,230.007,385h8.694
			c-3.245-25-16.226-73.488-63.2-129.908C139.476,211.82,104.125,202.488,70.184,193.174z"/>
		<path fill="#B2B2B2" d="M414.752,291.745c-11.102-22.348-21.59-43.456-12.617-87.07c11.767-57.183-32.318-71.476-61.491-80.932
			c-6.218-2.016-11.587-3.757-15.788-5.68c-14.424-6.6-21.227-12.92-20.798-19.321c0.489-7.258,10.195-14.138,29.675-21.033
			c39.882-14.114,40.019-36.623,36.548-49.063C368.895,23.671,362.061,12,354.26,0h-4.059c14.973,29,5.477,52.653-10.085,66.304
			c-10.776,9.456-24.781,14.332-38.508,14.332c-5.581,0-11.113-0.96-16.367-2.701c-21.265-7.042-18.576-16.589-15.729-26.636
			c3.014-10.626,6.427-22.699-16.586-36.55c-8.884-5.35-16.913-9.306-23.996-13.198C227.688,0.869,226.479,0,225.286,0h-11.399
			c27.57,12,61.823,32.151,52.274,52.549c-0.294,0.629-1.06,0.787-1.872,0.787c-0.228,0-0.457-0.148-0.683-0.212
			c-1.034-0.293-1.567-1.245-1.191-2.051c6.561-14.011-10.541-29.958-52.285-49.658C208.884,0.828,207.669,0,206.467,0h-47.441
			c26.815,0,71.208,7.436,81.534,29.144c0.38,0.804-0.145,1.463-1.176,1.761c-1.032,0.298-2.181-0.229-2.563-1.034
			c-9.669-20.325-55.59-27.76-84.097-27.76c-5.69,0-10.162,1.404-13.292,4.229c-7.757,7.001-5.349,20.256-5.323,20.39
			c0.021,0.116,0.026,0.228,0.014,0.346c-0.009,0.098-0.697,10.92,19.658,21.472c13.525,7.012,36.895,11.173,55.67,14.521
			c11.325,2.018,21.101,3.762,27.43,5.793c16.575,5.32,29.577,11.294,39.159,23.166c2.218,2.747,6.503,11.4,12.431,23.379
			c17.808,35.983,54.83,110.874,81.995,108.71c9.095-0.72,15.217-4.202,18.196-10.349c7.014-14.484-5.062-42.498-25.844-59.949
			c-17.194-14.441-38.595-23.318-46.735-19.384c-5.106,2.467-4.787,10.253,0.893,21.926c15.659,32.177,32.399,51.506,45.932,53.034
			c5.059,0.572,9.671-1.351,14.094-5.883c6.385-6.539,3.193-15.482-0.612-21.832c-10.094-16.872-33.394-32.21-42.122-32.534
			c-1.675-0.062-2.07,0.467-2.241,0.694c-4.43,5.862,2.299,26.77,14.457,38.513c4.302,4.156,10.964,8.714,18.281,6.833
			c3.212-0.825,5.026-2.252,5.545-4.37c1.526-6.218-8.133-17.351-18.113-23.849c-5.448-3.547-8.441-4.016-9.258-3.769
			c-1.922,0.574-2.127,3.774-0.504,7.779c2.9,7.146,10.367,14.277,16.442,13.1c1.44-0.28,2.35-0.69,2.433-1.092
			c0.368-1.792-6.233-6.41-12.39-9.434c-0.931-0.457-1.21-1.417-0.621-2.142c0.584-0.723,1.818-0.942,2.747-0.484
			c3.574,1.757,15.166,7.851,14.199,12.55c-0.25,1.217-1.389,2.833-5.402,3.616c-9.617,1.874-18.194-7.746-21.209-15.178
			c-2.436-6.005-1.361-10.347,2.872-11.614c3.77-1.133,9.284,1.706,13.246,4.284c9.327,6.073,21.537,18.408,19.474,26.816
			c-0.551,2.252-2.426,5.249-8.212,6.734c-7.508,1.929-15.333-0.779-22.634-7.831c-12.573-12.147-20.454-34.543-14.79-42.04
			c0.816-1.083,2.493-2.335,5.87-2.22c11.164,0.415,35.256,17.135,45.544,34.322c6.117,10.22,6.178,18.873,0.171,25.027
			c-5.307,5.432-11.308,7.817-17.837,7.077c-20.551-2.321-39.577-35.461-49.089-55.009c-8.243-16.937-4.152-23.305,0.734-25.666
			c11.561-5.587,35.297,6.087,51.758,19.91c19.652,16.503,35.05,45.818,26.648,63.157c-3.504,7.24-10.947,11.508-21.52,12.345
			c-0.514,0.041-1.029,0.06-1.542,0.06c-27.437,0-58.001-57.045-84.578-110.744c-5.628-11.369-10.072-20.35-12.083-22.843
			c-9.049-11.21-20.983-16.71-37.303-21.949c-6.023-1.932-15.65-3.649-26.801-5.636c-19.093-3.404-42.856-7.639-56.99-14.965
			c-21.204-10.993-21.512-22.438-21.436-24.119c-0.292-1.69-2.265-14.551,6.277-22.262C139.784,1.707,144.317,0,149.904,0h-21.207
			c-0.731,0-1.392,1.643-2.046,2.72c-2.031,3.353-3.95,6.286-7.865,7.228c-0.718,0.17-1.462,0.139-2.247,0.139
			c-2.024,0-4.284-0.169-6.843-1.339C106.091,7.098,101.634,2,96.871,0h-9.863c21.921,20,42.938,41.273,46.91,57.378
			c0.208,0.842-0.499,1.422-1.581,1.584c-0.126,0.019-0.254-0.089-0.377-0.089c-0.938,0-1.773-0.107-1.955-0.852
			C126.099,42.197,103.335,20,81.845,0h-2.079c2.99,2,5.986,6.139,8.968,9.464c3.911,4.358,7.603,8.243,11.109,12
			c28.036,30.052,23.4,42.27,23.187,42.779c-0.336,0.816-1.466,1.207-2.508,0.942c-1.049-0.263-1.624-1.167-1.285-1.983
			c0.031-0.089,3.903-11.704-22.619-40.133c-3.527-3.781-7.23-7.447-11.152-11.819C82.056,7.45,78.488,2,74.86,0h-0.938
			c5.223,3,10.224,9.834,14.665,15.185c14.058,16.932,26.098,37.732,17.729,45.987c-6.238,6.155-17.578,5.085-31.933-2.798
			c-23.262-12.774-51.917-43.13-41.98-55.487C33.413,1.633,34.979,0,37.34,0H24.868c0.133,36,34.187,53.265,47.485,59.774
			c2.315,1.134,3.91,1.679,4.812,2.316c11.258,4.999,18.887,4.941,27.714,5.007c9.986,0.076,21.307,0.104,39.61,7.752
			c0.61,0.266,58.354,25.765,89.659,68.943c28.14,38.814,62.02,58.358,91.912,75.609c3.206,1.853,6.361,3.667,9.457,5.48
			c28.254,16.564,67.66,53.392,85.72,103.524C428.425,348.359,432.723,369,436.379,385h9.064c-6.083-10-11.791-24.932-14.346-45.545
			C428.605,319.318,421.564,305.448,414.752,291.745z M246.917,28.305c0.967-0.409,2.18-0.128,2.703,0.625
			c0.435,0.625,10.565,15.42,3.886,25.603c-0.355,0.537-1.054,0.847-1.778,0.847c-0.304,0-0.615-0.056-0.905-0.171
			c-0.979-0.391-1.37-1.325-0.868-2.09c5.723-8.722-3.744-22.572-3.842-22.71C245.591,29.655,245.951,28.713,246.917,28.305z
			 M157.899,11.108c0.169-0.848,1.183-1.428,2.276-1.298c2.753,0.333,67.503,8.36,70.354,28.047
			c0.901,6.222-3.234,9.212-6.862,10.624c-3.147,1.224-7.212,1.753-11.717,1.753c-14.729,0.001-34.177-5.658-41.747-11.227
			c-5.102-3.754-6.358-8.146-3.282-11.464c4.575-4.935,18.707-6.378,38.923,2.114c11.831,4.97,13.279,7.732,13.339,9.376
			c0.042,1.179-0.732,2.211-2.18,2.906c-5.631,2.698-23.462,0.55-34.69-4.184c-0.971-0.407-1.33-1.349-0.807-2.104
			c0.523-0.755,1.732-1.036,2.702-0.627c12.826,5.405,29.738,5.861,30.998,4.08c-0.007-0.005-0.132-2.041-11.253-6.713
			c-19.194-8.062-30.918-6.135-33.8-3.028c-1.842,1.985-0.799,4.746,2.79,7.385c8.702,6.403,37.25,13.503,48.945,8.954
			c3.672-1.43,5.204-3.882,4.681-7.498c-2.085-14.4-49.074-23.163-67.003-25.323C158.478,12.75,157.731,11.956,157.899,11.108z
			 M259.559,72.564c-0.39,0.304-0.901,0.456-1.412,0.456c-0.51,0-1.018-0.152-1.408-0.455
			c-11.506-8.954-20.803-10.111-34.877-11.865c-11.091-1.382-24.896-3.103-44.216-9.379c-44.639-14.5-35.662-33.242-35.26-34.032
			c0.409-0.796,1.565-1.188,2.59-0.869c1.021,0.317,1.519,1.215,1.118,2.01c-0.347,0.71-7.666,16.786,33.087,30.026
			c18.882,6.133,32.426,7.82,43.311,9.177c14.309,1.783,24.646,3.071,37.065,12.734C260.336,70.975,260.336,71.958,259.559,72.564z
			 M326.576,206.991c-0.521,0.457-1.366,0.9-2.69,0.9c-0.658,0-1.436-0.111-2.35-0.381c-15.095-4.449-41.497-28.036-67.027-50.846
			l-4.28-3.824c-10.891-9.715-17.27-19.193-23.438-28.358c-9.011-13.389-16.793-24.951-36.463-34.232
			c-33.753-15.927-50.58-33.396-51.28-34.132c-0.656-0.688-0.471-1.661,0.415-2.171c0.882-0.51,2.131-0.366,2.788,0.321
			c0.167,0.177,17.105,17.736,50.143,33.326c20.619,9.73,29.027,22.22,37.929,35.445c6.06,9.008,12.329,18.319,22.909,27.759
			l4.281,3.824c25.21,22.521,51.276,45.809,65.435,49.982c0.304,0.091,0.523,0.135,0.676,0.158
			c0.935-3.591-11.913-22.608-20.485-35.295c-7.669-11.356-15.601-23.097-18.99-30.334c-0.902-1.928-1.81-4.001-2.77-6.196
			c-8.628-19.729-21.666-49.545-71.126-57.998c-15.334-2.619-21.065-2.996-23.167-2.841c1.59,1.477,6.376,4.313,10.333,6.658
			c8.084,4.792,18.149,10.755,24.042,16.992c6.622,7.006,11.408,14.012,16.475,21.427c7.083,10.366,14.407,21.083,27.349,32.234
			c14.019,12.082,18.845,14.338,20.322,14.735c0.052-1.136-0.772-5.018-8.623-17.57c-5.713-9.135-9.724-17.204-13.262-24.323
			c-7.116-14.317-11.817-23.773-23.429-27.811c-6.604-2.298-7.921-1.648-7.933-1.642c-1.429,1.858,8.236,13.64,11.873,18.074
			l23.183,28.259c0.593,0.722,0.321,1.684-0.605,2.144c-0.93,0.461-2.161,0.252-2.753-0.472l-23.184-28.258
			c-10.693-13.037-14.658-18.946-11.519-21.787c1.973-1.785,5.729-1.531,12.561,0.846c13.112,4.558,18.317,15.03,25.524,29.525
			c3.509,7.062,7.487,15.065,13.127,24.083c11.113,17.768,9.765,20.455,7.434,21.681c-2.451,1.287-6.447,1.165-25.675-15.401
			c-13.273-11.435-20.713-22.327-27.91-32.858c-4.999-7.314-9.717-14.222-16.165-21.046c-5.555-5.876-15.366-11.69-23.249-16.361
			c-9.354-5.543-13.621-8.072-12.134-10.583c1.33-2.237,5.721-2.584,28.237,1.262c51.654,8.826,65.129,39.639,74.046,60.028
			c0.951,2.179,1.854,4.236,2.741,6.133c3.296,7.041,11.164,18.688,18.773,29.951C323.672,193.196,330.234,203.769,326.576,206.991z
			"/>
		<path fill="#B2B2B2" d="M291.315,59.387c-0.82,4.13,1.912,6.767,7.497,7.639c12.744,1.997,35.545-7.121,44.017-33.771
			C346.516,21.655,343.06,11,335.967,0h-12.415c-0.878,0-1.835,0.178-2.845,0.496c-4.336,1.369-9.732,2.799-14.161,8.316
			c-2.927,3.645-5.86,5.188-8.969,5.188c-0.026,0-0.052,0-0.081,0c-5.004,0-8.762-3.933-13.106-9.069
			C282.876,3.14,281.277,1,279.565,0h-12.002C288.256,14,296.25,34.554,291.315,59.387z M295.637,22.133
			c-0.151-0.85,0.613-1.633,1.703-1.75c1.092-0.119,2.097,0.477,2.245,1.326c0.182,1.021,4.374,25.116,0.353,32.71
			c-0.99,1.869,0.247,3.937,2.944,4.912c4.604,1.67,15.116,0.414,25.319-14.881c15.656-23.468,8.862-31.53-0.814-36.749
			c-3.151-1.698-6.238-0.947-8.274-0.018c-7.01,3.201-13.224,13.449-11.306,29.132c1.714,14.017,4.82,14.525,4.952,14.541
			c0.366,0.039,3.773-0.028,11.5-14.974c6.876-13.3,4.957-17.802,3.815-19.121c-0.774-0.893-1.761-1.079-2.451-1.079
			c-1.055,0-3.605,0.76-5.96,2.8c-2.698,2.336-5.689,6.771-4.614,14.625c0.149,1.083,0.312,1.852,0.465,2.395
			c1.322-2.067,3.114-6.477,4.31-10.342c0.257-0.833,1.337-1.347,2.402-1.146c1.07,0.201,1.731,1.04,1.473,1.873
			c-4.3,13.907-7.376,13.748-8.697,13.687c-2.571-0.132-3.426-2.548-3.916-6.137c-1.229-8.992,2.374-14.225,5.614-17.031
			c3.261-2.827,6.846-3.83,8.924-3.83c2.31,0,4.407,0.892,5.754,2.448c3.31,3.817,2.159,11.225-3.42,22.019
			c-6.392,12.362-11.115,17.417-15.771,16.887c-4.428-0.5-6.925-5.68-8.347-17.32c-2.085-17.045,5.157-28.406,13.258-32.104
			c4.229-1.933,8.806-1.881,12.558,0.143c10.642,5.739,19.21,15.066,2.085,40.735c-8.524,12.775-18.005,17.155-25.222,17.155
			c-1.961,0-3.755-0.322-5.317-0.89c-4.626-1.674-6.753-5.508-4.946-8.914C299.252,47.57,296.827,28.863,295.637,22.133z"/>
		<path fill="#B2B2B2" d="M315.349,291.694c-4.531-7.945-8.5-12.074-12.13-12.622c-3.317-0.506-7.27,1.872-12.188,5.586
			c-9.13,6.892,19.117,56.484,47.979,84.438c5.901,5.717,11.049,11.904,15.497,15.904h12.545c-19.76-23-33.765-54.914-42.915-75.201
			C320.518,301.781,317.662,295.745,315.349,291.694z M338.502,359.384c-0.326,0.158-0.688,0.232-1.044,0.232
			c-0.67,0-1.322-0.262-1.701-0.738c-4.648-5.875-45.294-57.709-39.989-67.724c1.438-2.716,3.729-2.901,4.964-2.765
			c8.347,0.896,20.022,25.381,20.592,29.154c0.13,0.854-0.651,1.625-1.744,1.725c-1.1,0.1-2.085-0.508-2.215-1.361
			c-0.258-1.705-3.231-8.683-7.304-15.36c-5.653-9.273-9.08-11.547-9.883-11.547c-0.008,0-0.018,0-0.024,0
			c0.005,0-0.309,0.367-0.7,1.107c-3.409,6.436,22.541,43.346,39.699,65.025C339.729,357.861,339.439,358.936,338.502,359.384z"/>
		<path fill="#B2B2B2" d="M492.009,341.181c-4.607,1.775-6.253,6.214-5.059,13.786c2.013,12.787,7.828,24.033,15.146,30.033h6.54
			c-9.315-6-14.903-15.541-12.013-21.957c1.26-2.799,4.26-6.021,12.243-6.172c11.336-0.186,29.133,6.506,41.133,14.114v-7.09
			C530,348.989,503.109,336.897,492.009,341.181z"/>
		<path fill="#B2B2B2" d="M258.15,262.76c-3.975-23.776-8.079-48.368-21.055-72.277c-29.108-53.633-88.118-92.827-133.688-107.879
			c-41.625-13.75-56.58-26.785-58.281-28.414C42.541,52.517,16.268,34,16.095,0h-1.371c-0.111,2-0.002,7.25,0.409,11.142
			c3.492,33.128,39.669,55.495,50.676,61.631l0.306,0.055c3.04,1.255,49.665,21.24,83.353,78.862
			c16.384,28.028,25.97,46.529,33.67,61.414c8.503,16.434,14.646,28.292,24.946,43.051c5.194,7.444,11.058,16.93,17.267,26.98
			c17.688,28.641,39.701,63.979,67.228,87.952c5.603,4.881,9.967,10.913,13.349,13.913h5.68c-3.456-3-7.197-8.699-11.201-12.59
			c-24.005-23.318-95.584-121.7-111.923-165.153c-7.455-19.824-19.765-38.628-29.656-53.793c-12.042-18.467-20-30.629-14.108-35.76
			c1.016-0.886,2.98-1.79,6.544-1.186c19.594,3.343,72.037,49.297,85.953,84.517c6.377,16.139,11.889,34.255,14.746,48.454
			c5.213,25.912-0.357,28.114-2.19,28.837c-4.838,1.912-10.656-3.382-14.613-7.53c-18.473-19.369-27.831-49.116-34.667-70.835
			c-2.818-8.958-5.253-16.693-7.593-21.112c-8.789-16.59-21.227-36.087-29.774-41.05c-0.883-0.514-1.065-1.486-0.407-2.174
			c0.659-0.688,1.908-0.828,2.788-0.316c11.578,6.722,26.715,34.12,31.078,42.356c2.455,4.635,4.807,12.103,7.781,21.557
			c6.753,21.464,16.002,50.857,33.994,69.723c7.129,7.475,9.519,6.654,9.614,6.613c1.789-0.706,3.812-6.887,0.05-25.581
			c-2.828-14.06-8.293-32.011-14.617-48.018c-14.094-35.668-66.438-79.562-82.994-82.387c-0.932-0.158-2.161-0.246-2.721,0.239
			c-4.072,3.549,4.622,16.883,14.691,32.32c9.966,15.283,22.368,34.302,29.927,54.404c16.23,43.168,87.355,140.762,111.207,163.934
			c4.579,4.449,8.807,10.533,12.674,14.533h6.05c-7.908-10-17.104-21.357-27.677-32.465
			C268.647,325.318,263.548,295.085,258.15,262.76z M189.882,152.423c0.866-0.531,2.118-0.417,2.801,0.258
			c1.312,1.296,32.231,31.979,38.056,53.284c1.314,4.802,3.063,10.627,4.917,16.795c9.826,32.694,11.176,40.085,7.595,41.631
			c-0.35,0.149-0.783,0.266-1.293,0.266c-0.817,0-1.826-0.297-2.995-1.216c-8.832-6.947-29.581-47.531-28.828-68.135
			c0.115-3.119,0.417-5.711,2.973-5.877c1.95-0.141,5.233-0.344,15.463,39.801c0.215,0.841-0.488,1.66-1.567,1.827
			c-1.081,0.163-1.688-0.379-1.904-1.222c-3.446-13.527-8.1-28.109-10.1-34.453c0,0.002,0,0.006,0,0.01
			c-1,19.034,17.989,57.401,26.598,65.318c0.161-5.485-5.728-24.348-9.603-37.242c-1.858-6.184-3.723-12.023-5.045-16.856
			c-5.635-20.601-37.026-51.694-37.341-52.004C188.926,153.934,189.021,152.956,189.882,152.423z M189.983,192.096
			c-0.107,0.013-0.212,0.02-0.316,0.02c-0.962,0-1.81-0.544-1.967-1.311c-3.517-17.265-25.58-44.95-25.802-45.227
			c-0.584-0.727-0.298-1.686,0.635-2.14c0.934-0.455,2.164-0.233,2.747,0.494c0.924,1.157,22.714,28.504,26.357,46.385
			C191.812,191.167,191.07,191.961,189.983,192.096z"/>
		<path fill="#B2B2B2" d="M451.729,210.757c-0.842-3.098-26.086-97.431-8.997-154.548l1.376-4.125
			C451.309,28.055,456.074,12,456.947,0H453.9c-0.991,17-8.554,44.17-14.496,47.368c-0.625,0.336-1.304,0.274-1.967,0.274
			c-0.483,0-0.959-0.208-1.406-0.39c-2.102-0.851-4.07-3.199-4.217-17.498C431.69,17.896,430.376,7,428.507,0h-6.705
			c3.571,19,4.941,45.951,5.363,83.746c1.07,95.992,20.528,143.005,20.724,143.47c0.262,0.663,25.361,63.456,44.364,84.427
			c8.075,8.916,27.562,19.933,48.379,31.659c3.181,1.788,6.368,3.527,9.368,5.328v-7.494c-11-6.76-19.762-12.184-27.285-14.924
			c-0.996-0.363-1.342-1.286-0.874-2.062c0.467-0.778,1.522-1.11,2.519-0.751c7.271,2.646,15.641,7.581,25.641,13.739v-5.463
			c0-0.309-0.536-0.597-0.811-0.835c-1.213-1.056-4.986-4.267-2.981-7.003c0.705-0.96,2.792-1.632,3.792-2.062v-5.002
			c-11-0.023-21.182-0.727-35.566-5.375C465.44,295.554,452.406,215.101,451.729,210.757z M544.475,329.167
			c-0.75,0.627-2.009,0.666-2.817,0.078c-13.361-9.695-32.166-14.725-37.149-14.461c3.127,3.35,19.11,13.297,34.136,21.769
			c0.894,0.503,1.092,1.476,0.446,2.17c-0.39,0.419-0.996,0.644-1.615,0.644c-0.407,0-0.814-0.097-1.168-0.297
			c-0.094-0.053-9.376-5.291-18.35-10.824c-19.266-11.881-18.411-13.499-17.725-14.801c0.297-0.563,1.012-1.296,2.722-1.59
			c6.58-1.116,27.758,5.204,41.421,15.119C545.18,327.56,545.225,328.541,544.475,329.167z"/>
		<path fill="#B2B2B2" d="M273.405,51.909c-2.798,9.88-4.822,17.018,13.396,23.05c16.576,5.489,36.333,1.568,50.334-10.716
			C352.069,51.142,361.023,28,345.883,0h-5.55c6.808,11,10.154,21.963,6.366,33.885c-8.347,26.257-29.543,36.508-44.358,36.508
			c-1.511,0-2.954-0.226-4.313-0.439c-7.609-1.191-11.789-5.252-10.651-10.984C292.415,33.602,283.957,14,261.563,0h-29.367
			c6.879,2,14.614,7.58,23.167,12.729C280.374,27.784,276.512,40.952,273.405,51.909z"/>
		<path fill="#B2B2B2" d="M297.503,11c0.008,0,0.017,0,0.027,0c1.597,0,3.546-0.945,5.635-3.548C306.448,3.361,310.336,1,313.85,0
			h-9.302c-2.146,1-4.301,2.162-6.537,2.162c-0.105,0-0.212,0.232-0.316,0.229C295.366,2.306,293.318,1,291.338,0h-6.841
			c1.122,1,2.19,2.054,3.224,3.274C291.121,7.295,294.637,11,297.503,11z"/>
		<path fill="#B2B2B2" d="M533.943,283.64c-2.8-0.705-4.131-0.395-4.445-0.133c-0.27,0.225-0.389,0.811-0.034,1.494
			c1.582,3.068,8.536,7.529,20.536,10.507v-6.306c-3-1.072-6.842-2.305-9.775-3.383C537.661,284.876,535.625,284.063,533.943,283.64
			z"/>
		<path fill="#B2B2B2" d="M117.609,6.744c2.237-0.538,3.792-2.634,5.438-5.351C123.415,0.787,123.796,0,124.199,0h-21.976
			c3.546,2,6.805,4.78,9.493,6.011C114.206,7.149,116.191,7.084,117.609,6.744z"/>
		<path fill="#B2B2B2" d="M538.539,269.056c-6.681-4.223-11.775-5.821-14.738-4.623c-2.69,1.088-5.814,5.248-4.602,18.881
			c0.848,9.53,4.801,15.703,30.801,20.787v-5.303c-15-3.494-22.485-9.242-24.236-12.639c-0.971-1.878-0.647-3.621,0.732-4.772
			c0.984-0.823,3.456-2.007,8.632-0.701c1.922,0.485,4.089,1.337,6.773,2.325c2.462,0.902,6.099,1.92,8.099,2.848v-9.22
			c-2-1.458-4.618-3.016-6.983-4.567C541.458,271.051,540.084,270.032,538.539,269.056z"/>
		<path fill="#B2B2B2" d="M59.06,112.939C22.741,75.42,8,41.08,0,16.261v31.067c16,23.84,39.965,56.022,62.123,74.91
			c22.117,18.851,42.116,43.89,33.207,54.314c-2.501,2.928-6.817,4.39-13.151,4.39c-5.968,0-14.058-1.297-23.349-3.896
			C33.37,169.926,15,156.991,0,144.566V155.6c22,21.064,46.226,27.708,71.508,34.646c32.96,9.044,70.572,19.296,107.336,63.457
			c37.218,44.7,52.877,83.495,59.355,108.421c2.333,8.975,3.821,17.877,4.601,22.877h9.438c-7.506-83-97.47-174.846-170.512-249.394
			C73.908,127.624,66.267,120.384,59.06,112.939z M105.64,186.04c2.597-1.498,3.779-4.3,3.513-8.324
			c-0.057-0.856,0.787-1.587,1.888-1.631c1.091-0.04,2.036,0.613,2.093,1.472c0.34,5.13-1.386,8.827-5.131,10.986
			c-2.69,1.55-6,2.028-9.056,2.028c-4.73,0-8.853-1.145-9.13-1.223c-1.035-0.295-1.568-1.182-1.194-1.986
			c0.375-0.807,1.517-1.224,2.553-0.935C91.267,186.457,100.517,189.002,105.64,186.04z"/>
		<path fill="#B2B2B2" d="M149.904,0h9.122c-2.232,0-4.344-0.116-6.302-0.116C151.752-0.116,150.818,0,149.904,0z"/>
		<path fill="#B2B2B2" d="M45.012-0.291C41.806-0.83,39.3,0,37.34,0h9.088C45.95,0,45.475-0.212,45.012-0.291z"/>
	</g>
</g>
</svg>
