<?xml version="1.0" encoding="utf-8"?>
<!-- Generator: Adobe Illustrator 16.0.0, SVG Export Plug-In . SVG Version: 6.00 Build 0)  -->
<!DOCTYPE svg PUBLIC "-//W3C//DTD SVG 1.1//EN" "http://www.w3.org/Graphics/SVG/1.1/DTD/svg11.dtd">
<svg version="1.1" id="Calque_1" xmlns="http://www.w3.org/2000/svg" xmlns:xlink="http://www.w3.org/1999/xlink" x="0px" y="0px"
	 width="186px" height="177.133px" viewBox="0 0 186 177.133" enable-background="new 0 0 186 177.133" xml:space="preserve">
<g>
	<g>
		<path fill="#443B65" d="M43.994,129.805c0,0-11.494-88.428,23.339-110.261c37.48-23.492,89.405-3.408,70.524,108.29
			C137.857,127.834,99.458,145.192,43.994,129.805z"/>
		<path fill="#443B65" d="M42.625,118.14c0,0-0.447,46.256,2.025,53.234c1.055,2.976,16.35,22.928,13.354-34.441
			C55.043,80.223,42.625,118.14,42.625,118.14z"/>
		<path fill="#443B65" d="M123.333,133.812c0,0,1.498,34.513,2.317,37.562c0.82,3.049,13.357,22.346,13.354-34.441
			S123.333,133.812,123.333,133.812z"/>
		<path fill="#443B65" d="M43.98,83.571c0,0,3.725-86.178,14.395-83.511C69.044,2.728,68,28.812,68,28.812L43.98,83.571z"/>
		<path fill="#574C80" d="M109,32.046c0-9.974-6.694-18.4-15.889-21.15c-8.688,0.541-17.579,4.085-25.778,10.051
			c-0.049,0.035-0.095,0.076-0.144,0.111c-1.884,3.237-2.967,6.987-2.967,10.988c0,12.205,10.023,22.1,22.389,22.1
			S109,44.251,109,32.046z"/>
		<path fill="#443B65" d="M139.729,66.146c0,0-2.435-65.752-13.104-63.085S117,31.812,117,31.812L139.729,66.146z"/>
		<path fill="none" stroke="#443B65" stroke-width="10" stroke-linecap="round" stroke-miterlimit="10" d="M50.492,72.945
			c0,0-14.492,46.2-45.492,44.782"/>
		<path fill="none" stroke="#443B65" stroke-width="10" stroke-linecap="round" stroke-miterlimit="10" d="M135.508,72.945
			c0,0,14.492,46.2,45.492,44.782"/>
	</g>
	<path fill="#FEFCEF" d="M70.028,72.237c0,0,37.548-0.992,42.01,0.708c0.462,13.2-6.931,21.067-18.984,21.384
		C93.054,94.329,70.056,95.829,70.028,72.237z"/>
	<ellipse fill="#FEFCEF" cx="65.481" cy="57.186" rx="5.519" ry="5.46"/>
	<ellipse fill="#FEFCEF" cx="116.481" cy="57.186" rx="5.519" ry="5.46"/>
</g>
</svg>
