<?xml version="1.0" encoding="utf-8"?>
<!-- Generator: Adobe Illustrator 16.0.0, SVG Export Plug-In . SVG Version: 6.00 Build 0)  -->
<!DOCTYPE svg PUBLIC "-//W3C//DTD SVG 1.1//EN" "http://www.w3.org/Graphics/SVG/1.1/DTD/svg11.dtd">
<svg version="1.1" id="Calque_1" xmlns="http://www.w3.org/2000/svg" xmlns:xlink="http://www.w3.org/1999/xlink" x="0px" y="0px"
	 width="144.41px" height="267.98px" viewBox="0 0 144.41 267.98" enable-background="new 0 0 144.41 267.98" xml:space="preserve">
<path opacity="0.7" fill="#75A175" enable-background="new    " d="M120.872,258.52c0,5.227-20.446,9.462-45.67,9.462
	c-25.219,0-45.664-4.235-45.664-9.462c0-5.228,20.445-9.465,45.664-9.465C100.426,249.055,120.872,253.292,120.872,258.52z"/>
<path fill="#453734" d="M135.389,123.38l-0.08,0.083c-2.997-7.474-8.93-19.604-18.25-27.528c0.031-0.131,0.069-0.26,0.094-0.394
	c-0.999-0.867-2.042-1.675-3.122-2.426c0.7-1.628,1.067-3.022,1.067-3.581c0-0.772-1.582-1.513-3.251-2.081
	c1.062-2.317,0.496-4.362-0.222-5.9c-1.018-2.185-3.662-1.985-5.551-1.512c-0.293,1.965-0.569,3.702-1.004,4.933
	c0.244-0.805,0.423-1.823,0.66-2.987l-0.001,0.002c0.318-1.567,0.556-3.379,0.732-5.241c0.496,0.273,1.027,0.43,1.583,0.43
	c2.637,0,4.779-3.355,4.779-7.495c0-1.43-0.26-2.761-0.702-3.897c2.322-2.934,7.254-10.097,7.149-17.95
	c-0.003-0.258-0.008-0.531-0.014-0.814c-0.002-0.112-0.005-0.228-0.008-0.343c-0.005-0.177-0.01-0.358-0.016-0.543
	c-0.005-0.157-0.01-0.314-0.016-0.477c-0.005-0.14-0.012-0.286-0.019-0.43c-0.031-0.721-0.077-1.493-0.143-2.31
	c-0.005-0.057-0.01-0.113-0.015-0.17c-0.747-8.979-4.037-23.012-19.023-30.157c0.017,0.005,0.032,0.007,0.049,0.012
	C95.077,9.461,87.35,7.67,81.295,8.208c0.001-0.001,2.424-3.908,2.633-5.999c0.199-2.03-2.025-5.379-8.322,4.615
	c-0.167-1.843-0.706-5.08-2.45-5.529c-2.042-0.525-2.67,3.112-0.897,6.209c-0.042-0.005-0.085-0.011-0.127-0.016
	c-0.083-0.01-0.171-0.02-0.257-0.03c-0.291-0.035-0.599-0.067-0.926-0.096c-0.048-0.004-0.094-0.009-0.143-0.013
	c-0.197-0.017-0.402-0.031-0.611-0.044c-0.046-0.003-0.092-0.006-0.139-0.009c-0.228-0.014-0.46-0.025-0.701-0.035
	c0,0-0.001,0-0.002,0c-4.704-0.187-11.852,0.539-19.236,5.005c-0.027,0.016-0.054,0.032-0.081,0.048
	c-0.385,0.234-0.771,0.479-1.157,0.735c-0.016,0.01-0.031,0.019-0.046,0.029c0.001,0,0.003-0.001,0.004-0.001
	c-3.104,2.059-6.224,4.81-9.2,8.457c0.003-0.007,0.012-0.021,0.014-0.027c-0.327,0.403-0.654,0.799-0.979,1.224
	c-6.39,8.343-8.403,15.962-8.485,22.466c-0.094,7.371,2.293,13.312,3.599,17.25c1.38,2.732,3.056,4.92,4.618,6.593
	c-0.124,0.667-0.193,1.369-0.193,2.098c0,4.129,2.125,7.477,4.753,7.496c0.088,1.155,0.187,2.251,0.285,3.241
	c0,0,0-0.001-0.001-0.001c0.006,0.061,0.012,0.116,0.018,0.177c0.025,0.25,0.05,0.493,0.075,0.728
	c0.009,0.083,0.017,0.162,0.026,0.243c0.119,1.116,0.229,2.038,0.309,2.668c-0.079,0-10.459,0.015-11.019,3.842
	c-0.042,0.285,0.033,0.797,0.204,1.441C20.453,98.351,12.674,114.36,9.085,123.45l-0.067-0.07c0,0-6.98,9.461-5.874,18.956
	c1.104,9.488,11.796,5.435,10.227,2.95c-0.727-1.156-0.703-3.604-0.471-5.895l0.001,0.002l0.81-5.07
	c0.008,0.061,0.777,5.803,2.34,6.445c1.574,0.644,1.653-4.331,1.93-5.437c0.276-1.109-3.868-6.647-3.868-6.647
	c4.351-17.718,15.373-26.374,22.891-30.347c1.24,1.286,2.717,2.293,4.413,2.621c0.07,0.014,0.136,0.015,0.204,0.024
	c0.898,12.233,2.003,27.625,2.311,30.449c0.002,0.019,0.004,0.045,0.006,0.062c0.048,0.43,0.067,1.12,0.063,2
	c-0.021,4.55-0.658,14.144-0.99,18.856c-0.044,0.087-0.071,0.18-0.067,0.282c0.009,0.214,0.009,0.398,0.006,0.57
	c-0.021,0.298-0.04,0.554-0.057,0.787c-0.038,0.256-0.079,0.379-0.079,0.379l0.05,0.008c-0.023,0.322-0.041,0.553-0.048,0.65
	c-0.003,0.038-0.004,0.058-0.004,0.058c0,0,0.001,0,0.001,0c-1.199,1.338-1.983,2.599-2.46,3.774
	c-2.789,6.334,2.942,9.638,3.415,9.896c0.02,0.013,0.033,0.021,0.033,0.021c0.457,0.283,1.027,0.539,1.691,0.771
	c0.011,0.005,0.024,0.009,0.036,0.013c0.206,0.071,0.42,0.14,0.644,0.206c0.034,0.01,0.068,0.02,0.103,0.029
	c0.188,0.055,0.379,0.108,0.579,0.16c-0.134,4.954-0.231,12.426,0.179,12.856c0.646,0.676,2.746,1.376,5.404,1.906
	c0.026,5.504,0.078,10.32,0.178,10.843c0.122,0.651-0.304,9.097-0.34,17.418c-0.461,0.057-1.502,0.233-2.051,0.714
	c-0.734,0.642-0.945,2.029-0.945,3.934c0,1.908-0.357,11.574,0.133,12.125c0,0,0,0,0,0.001s0,0.002,0,0.003
	c0,3.09-0.414,3.761-2.548,4.444c-1.958,0.633-3.249-1.194-6.741,0.238c-4.104,1.686-3.438,9.68-3.438,9.68
	c0.084,1.015,0.153,1.819,0.308,2.492c-0.811,3.392-1.669,8.785,0.795,9.665c0,0,8.365,3.177,18.521,0.762
	c0.293-0.069,1.264-0.472,1.629-1.185c0,0,2.382-6.354,0.706-9.249c0.934-2.384,0.925-8.096,0.608-11.936
	c-0.089-1.076,0.093-2.285,0.355-3.378c0,0,0.001-0.001,0.002-0.001c0,0,5.225-13.706,2.448-17.163
	c-0.708-0.891-1.141-1.044-2.674-1.171c0,0-0.143,0.671-0.316,1.289c0.747-5.402,1.182-10.973,1.114-14.41
	c-0.047-2.458,0.403-8.227,0.956-14.227c4.162,0.004,7.676-0.734,7.933-2.795c0.253-2.061,0.294-7.308,0.257-11.387
	c2.422-0.036,4.886-0.106,7.337-0.201c0.092-0.003,0.184-0.007,0.275-0.01c0.301-0.012,0.601-0.024,0.901-0.037
	c0.208-0.009,0.416-0.018,0.625-0.026c0.198-0.009,0.396-0.018,0.594-0.026c0.328-0.015,0.655-0.03,0.982-0.045
	c0.09-0.005,0.179-0.009,0.269-0.014c1.687-0.081,3.353-0.172,4.98-0.27c0.209,4.244,0.797,9.812,1.071,12.016
	c0.182,1.457,1.995,2.251,4.509,2.592c0.568,5.951,1.048,11.855,0.997,14.43c-0.062,3.115,0.289,7.982,0.911,12.888
	c0.005,0.078,0.028,0.411,0.067,0.969c-0.101-0.408-0.17-0.735-0.17-0.735c-1.535,0.127-1.959,0.28-2.672,1.171
	c-2.69,3.349,2.131,16.312,2.437,17.123c0.269,1.104,0.458,2.329,0.368,3.419c-0.302,3.679-0.328,9.468,0.496,12.124
	c-1.471,2.97,0.82,9.062,0.82,9.062c0.363,0.711,1.334,1.117,1.625,1.188c10.154,2.409,18.838-0.478,18.838-0.478
	c2.472-0.935,1.408-6.612,0.504-10.063c0.139-0.651,0.204-1.425,0.285-2.386c0,0,0.662-7.992-3.441-9.678
	c-3.488-1.433-4.783,0.395-6.742-0.236c-2.129-0.686-2.547-1.356-2.549-4.446l0,0c0.001-0.001,0.003-0.003,0.004-0.004
	c0.49-0.551,0.131-10.217,0.131-12.125c0-1.904-0.209-3.292-0.943-3.934c-0.553-0.483-1.604-0.659-2.061-0.715
	c-0.036-8.322-0.461-16.768-0.336-17.417c0.094-0.497,0.056-4.981-0.024-10.276c4.225-0.504,8.065-1.513,8.983-2.473
	c0.508-0.535-0.771-9.796-1.383-14.006c0.145-0.03,0.252-0.058,0.311-0.081c1.303-0.515,4.941-1.31,4.98-6.56
	c0.051-6.909-4.01-9.295-4.01-9.295l0,0c0.257-5.43,0.349-24.631-0.061-28.75c-0.261-2.651-1.193-14.271-1.899-23.162
	c0.002,0,0.003,0,0.005,0c1.472-0.285,2.763-1.079,3.875-2.122c0.442,0.212,0.9,0.447,1.369,0.717
	c0.05,0.03,0.097,0.056,0.147,0.087c0.009,0.005,0.019,0.012,0.028,0.017c5.761,3.538,14.237,11.533,18.535,29.027
	c0,0-4.146,5.538-3.869,6.647c0.277,1.105,0.354,6.08,1.928,5.437c1.572-0.646,2.34-6.451,2.34-6.451l0.001,0.005l0.808,5.048
	c0.234,2.298,0.261,4.756-0.469,5.915c-1.566,2.484,9.123,6.538,10.23-2.95C142.367,132.841,135.389,123.38,135.389,123.38z"/>
</svg>
