<?xml version="1.0" encoding="utf-8"?>
<!-- Generator: Adobe Illustrator 16.0.0, SVG Export Plug-In . SVG Version: 6.00 Build 0)  -->
<!DOCTYPE svg PUBLIC "-//W3C//DTD SVG 1.1//EN" "http://www.w3.org/Graphics/SVG/1.1/DTD/svg11.dtd">
<svg version="1.1" id="Calque_1" xmlns="http://www.w3.org/2000/svg" xmlns:xlink="http://www.w3.org/1999/xlink" x="0px" y="0px"
	 width="118.956px" height="221.904px" viewBox="0 0 118.956 221.904" enable-background="new 0 0 118.956 221.904"
	 xml:space="preserve">
<g>
	<path opacity="0.7" fill="#E5DFC5" d="M115.651,210.693c0,6.192-22.422,11.211-50.082,11.211c-27.656,0-50.076-5.019-50.076-11.211
		s22.42-11.213,50.076-11.213C93.229,199.48,115.651,204.501,115.651,210.693z"/>
	<path fill="#E6B19B" d="M44.593,140.54c0,0,0.504,18.042,0.706,19.103c0.2,1.064-1.373,27.312,1.271,28.265
		c2.645,0.953,5.152-17.521,5.012-24.72c-0.099-5.044,2.595-23.998,2.595-23.998L44.593,140.54z"/>
	<path fill="#675B8C" d="M39.267,137.128c0,0-0.549,11.357,0,11.934c1.836,1.922,17.777,4.087,18.284,0
		c0.506-4.09,0-14.084,0-14.084L39.267,137.128z"/>
	<path fill="#7D3B2E" d="M32.966,199.693c0,0-2.992,9.248,0.028,10.325c0,0,6.941,2.638,15.368,0.634
		c0.242-0.058,1.049-0.392,1.352-0.983c0,0,2.147-5.711,0.414-7.953C48.394,199.474,32.966,199.693,32.966,199.693z"/>
	<path fill="#C55E4C" d="M52.022,186.52c0,0-1.416,3.179-1.219,5.57c0.292,3.55,0.271,9.047-0.802,10.48
		c-1.434,1.911-3.337,1.92-5.575,2.202c-1.59,0.198-8.181,0.888-10.969-1.041c-1.152-0.796-1.219-1.849-1.382-3.801
		c0,0-0.552-6.634,2.854-8.03c2.896-1.188,3.969,0.328,5.594-0.196c1.769-0.569,2.113-1.126,2.115-3.69
		C42.643,186.415,52.022,186.52,52.022,186.52z"/>
	<path opacity="0.6" fill="#774B38" d="M42.976,194.913c0,0-0.316-0.372-1.117-0.8c0.269-0.152,0.514-0.267,0.697-0.317
		c0.677-0.192,0.131-0.538,0.131-0.538s-0.209-0.138-0.547-0.342c-0.336-0.205-0.99,0.125-0.99,0.125
		c-0.295,0.15-0.563,0.303-0.807,0.451c-0.274-0.084-0.569-0.164-0.894-0.237c0,0-0.715-0.157-0.991,0.124
		c-0.274,0.281-0.444,0.467-0.444,0.467s-0.443,0.469,0.26,0.488c0.191,0.004,0.456,0.055,0.756,0.135
		c-0.671,0.612-0.886,1.053-0.886,1.053c-0.256,0.435,0.056,0.707,0.056,0.707s0.159,0.11,0.512,0.273
		c0.353,0.165,0.628-0.151,0.99-0.578c0.217-0.298,0.515-0.596,0.838-0.874c0.381,0.189,0.743,0.405,1.029,0.64
		c0.454,0.324,0.8,0.562,1.102,0.315c0.299-0.245,0.427-0.392,0.427-0.392S43.331,195.273,42.976,194.913z"/>
	<path fill="#E3E6E7" d="M45.206,174.078c0,0-1.3,0.089-1.894,0.608c-0.608,0.532-0.784,1.685-0.784,3.265
		c0,1.581-0.297,9.604,0.111,10.062c0.879,0.987,5.475,3.028,8.46,1.275c0,0,4.336-11.376,2.031-14.243
		c-0.587-0.733-0.943-0.866-2.217-0.968c0,0-0.225,1.063-0.434,1.605c-0.349,0.902-0.924,1.461-2.295,1.351
		C46.56,176.9,44.809,176.9,45.206,174.078z"/>
	<path opacity="0.5" fill="none" stroke="#A9A19E" stroke-linecap="round" stroke-miterlimit="10" d="M45.026,177.429
		c0,0-1.15,6.387-0.478,9.648"/>
	<path opacity="0.5" fill="none" stroke="#A9A19E" stroke-linecap="round" stroke-miterlimit="10" d="M47.729,178.134
		c0,0-1.149,6.383-0.476,9.646"/>
	<path opacity="0.5" fill="none" stroke="#A9A19E" stroke-linecap="round" stroke-miterlimit="10" d="M50.361,178.21
		c0,0,0.584,4.704-0.839,9.495"/>
	<path fill="#EEEDDA" d="M39.399,192.858c0,0-0.716-0.157-0.991,0.124c-0.274,0.28-0.443,0.466-0.443,0.466
		s-0.444,0.469,0.259,0.486c0.703,0.021,2.381,0.606,3.292,1.359c0.457,0.323,0.803,0.562,1.104,0.314
		c0.3-0.247,0.426-0.393,0.426-0.393s0.236-0.341-0.12-0.698C42.926,194.518,42.033,193.453,39.399,192.858z"/>
	<path fill="#EEEDDA" d="M41.101,192.644c0,0,0.653-0.328,0.989-0.124s0.547,0.342,0.547,0.342s0.546,0.345-0.131,0.537
		c-0.678,0.19-2.158,1.175-2.856,2.129c-0.36,0.428-0.636,0.742-0.987,0.578c-0.354-0.165-0.514-0.275-0.514-0.275
		s-0.312-0.27-0.055-0.707C38.094,195.123,38.695,193.872,41.101,192.644z"/>
	<path fill="none" stroke="#553227" stroke-linecap="round" stroke-miterlimit="10" d="M34.945,205.294c0,0-0.319,1.812,0,3.839"/>
	<path fill="none" stroke="#553227" stroke-linecap="round" stroke-miterlimit="10" d="M37.667,205.858c0,0-0.319,1.878,0,3.979"/>
	<path fill="none" stroke="#553227" stroke-linecap="round" stroke-miterlimit="10" d="M40.801,206.28c0,0-0.317,1.879,0,3.98"/>
	<path fill="none" stroke="#553227" stroke-linecap="round" stroke-miterlimit="10" d="M43.536,206.28c0,0-0.319,1.879,0,3.98"/>
	<path fill="none" stroke="#553227" stroke-linecap="round" stroke-miterlimit="10" d="M46.621,206.092c0,0-0.316,1.658,0,3.512"/>
	<path fill="#E6B19B" d="M33.667,77.875c0,0-14.605,3.032-20.315,26.278l-6.118,1.173c0,0,8.36-30.741,28.442-34.253
		C52.674,68.1,33.667,77.875,33.667,77.875z"/>
	<path fill="#E6B19B" d="M29.141,73.206c-1.74,0.964-3.363,2.132-4.873,3.442c0.312,1.708,1.28,3.095,3.142,4.297
		c1.921-1.434,3.83-2.094,5.06-2.604L29.141,73.206z"/>
	<path fill="#E6B19B" d="M13.352,104.153c0,0,3.441,4.597,3.211,5.514c-0.228,0.918-0.294,5.048-1.601,4.513
		c-1.304-0.535-1.941-5.354-1.941-5.354s-1.58,7.035-0.281,9.1c1.301,2.064-7.57,5.428-8.486-2.447
		c-0.918-7.877,4.874-15.728,4.874-15.728L13.352,104.153z"/>
	<polygon fill="#D98975" points="13.021,108.826 8.714,106.352 12.348,113.039 	"/>
	<path fill="#FAE6BF" d="M89.443,77.875c0,0,14.604,3.032,20.315,26.278l6.117,1.173c0,0-8.361-30.741-28.44-34.253
		C70.438,68.1,89.443,77.875,89.443,77.875z"/>
	<path fill="#E6B19B" d="M93.971,73.206c1.739,0.964,3.361,2.132,4.873,3.442c-0.313,1.708-1.282,3.095-3.143,4.297
		c-1.919-1.434-3.831-2.094-5.061-2.604L93.971,73.206z"/>
	<path fill="#E6B19B" d="M84.858,140.54c0,0-0.504,18.042-0.706,19.103c-0.201,1.064,1.374,27.312-1.271,28.265
		c-2.645,0.953-5.152-17.521-5.012-24.72c0.1-5.044-2.594-23.998-2.594-23.998L84.858,140.54z"/>
	<path fill="#675B8C" d="M90.184,137.128c0,0,0.55,11.357,0,11.934c-1.836,1.922-17.775,4.087-18.282,0
		c-0.509-4.09,0-14.084,0-14.084L90.184,137.128z"/>
	<path fill="#DE5A35" d="M11.007,52.931c0,0,2.232,6.591-3.25,5.471c-11.202-2.29-8.887,10.133-1.778,7.779
		c4.285-1.418,8.836-3.662,9.747-13.998L11.007,52.931z"/>
	<path fill="#A9342D" d="M18.288,23.281c0,0-2.272-1.985-3.995,0.626c-1.724,2.613-1.11,8.72,0.926,16.811
		c2.036,8.089,1.965,23.707-9.454,25.464c0,0,7.748-3.1,5.534-10.55c-1.775-5.98-14.507-26.483-8.593-36.86
		c3.834-6.727,14.386-6.027,17.975,1.816L18.288,23.281z"/>
	<path fill="#DE5A35" d="M20.114,19.515c0.006,0.011,0.013,0.023,0.021,0.035l0.479,1.113l-2.326,2.619c0,0-2.272-1.985-3.995,0.626
		c-1.036,1.572-1.224,4.411-0.769,8.181c-0.002-0.014-0.003-0.026-0.008-0.039C7.804,13.903,19.968,19.451,20.114,19.515z"/>
	<path fill="#E73932" d="M26.457,20.332c0,0-2.316-3.432-5.697-1.56c0,0-4.034,4.052-1.995,7.774
		c1.107,2.024,4.129,3.568,5.506,1.885C25.645,26.749,26.457,20.332,26.457,20.332z"/>
	<path fill="#538776" d="M91.262,69.064c0,0,5.88,1.244,5.88,2.6c0,1.355-2.532,8.566-7.269,9.481
		c-4.736,0.918-3.217-11.719-3.217-11.719L91.262,69.064z"/>
	<path fill="#538776" d="M34.097,68.542c0,0-5.359,1.766-5.359,3.122c0,1.355,2.531,8.566,7.268,9.481
		c4.738,0.918,3.218-11.719,3.218-11.719L34.097,68.542z"/>
	<path fill="#93342D" d="M41.856,59.711l-1.801,6.47c0,0-3.965,5.079-7.526,1.188c-3.56-3.892-4.161-2.886-4.161-3.235
		c0-0.349,5.34-13.386,5.34-13.386L41.856,59.711z"/>
	<path fill="#ACD5AC" d="M89.174,72.293c0,0,1.912,24.4,2.276,28.07c0.365,3.671,0.248,21.82,0,24.674c0,0-33.842,6.56-54.285,1.019
		c0,0,1.256-16.72,0.934-19.575c-0.321-2.854-1.412-23.224-2.16-33.034C35.938,73.447,75.114,81.13,89.174,72.293z"/>
	<path fill="#538776" d="M61.526,102.19c-4.729-13.358,2.849-17.996,2.849-17.996C51.329,80.946,42.809,77.7,39.069,74.003
		c-1.979-0.329-3.469-0.556-3.469-0.556c0.748,9.81,2.177,30.179,2.498,33.034c0.322,2.855-0.934,19.575-0.934,19.575
		c0.805,0.22,1.631,0.415,2.473,0.597l39.812-2.432C73.165,122.445,65.417,113.189,61.526,102.19z"/>
	<polygon fill="#ACD5AC" points="42.775,79.753 58.854,96.74 67.406,82.65 	"/>
	<path fill="#538776" d="M62.25,89.851c0,0,8.322-0.893,13.04,6.247c3.466,5.245,4.588,10.609,0.167,17.477
		c-4.419,6.867-16.554,6.666-20.284,3.4c-3.732-3.264-7.33-6.773-6.35-15.834C49.806,92.082,60.393,89.959,62.25,89.851z"/>
	<path fill="#538776" d="M91.174,71.359c0,0,0.048,1.933,0.13,2.97c-4.233,5.118-16.009,12.204-28.883,12.349
		c-10.493,0.119-22.239-4.359-27.951-12.423c-1.757-2.117-0.525-2.251-0.346-2.895C34.124,71.359,77.114,80.196,91.174,71.359z"/>
	<path fill="#ACD5AC" d="M87.937,64.374c0,0,4.947-2.278,6.322,0.671c1.377,2.948,1.987,8.148-13.151,13.195
		c-15.141,5.047-41.598,4.13-48.326-9.635c0,0-2.146-5.136,6.107-5.068S87.937,64.374,87.937,64.374z"/>
	<path fill="#538776" d="M32.781,68.829c2.593,5.54,8.123,8.394,14.798,10.358c-3.74-1.127-3.465-4.332-3.465-4.332
		c0-3.231,2.583-3.686,2.583-3.686l-5.235-7.603c-1.038-0.014-1.912-0.017-2.573-0.03C30.359,63.371,32.781,68.829,32.781,68.829z"
		/>
	<path fill="#5C9D84" d="M63.606,65.045c0,0,1.759,0.004,1.759,1.496s-3.251,2.523-3.251,2.523l0.04,0.191
		C62.154,69.255,61.577,65.843,63.606,65.045z"/>
	<path fill="#5C9D84" d="M63.581,65.408c0,0-1.761,0.005-1.761,1.496c0,1.492,3.25,2.523,3.25,2.523l0.411-0.821
		C65.481,68.605,66.398,65.699,63.581,65.408z"/>
	<ellipse fill="#E6B19B" cx="37.312" cy="55.198" rx="3.965" ry="6.22"/>
	<ellipse fill="#E6B19B" cx="91.292" cy="55.198" rx="3.965" ry="6.22"/>
	
		<linearGradient id="SVGID_1_" gradientUnits="userSpaceOnUse" x1="-247.4229" y1="70.564" x2="-246.6071" y2="38.9572" gradientTransform="matrix(-1 0 0 1 -183.2695 0)">
		<stop  offset="0.0917" style="stop-color:#FFE8BE"/>
		<stop  offset="1" style="stop-color:#FAE6BF"/>
	</linearGradient>
	<path fill="url(#SVGID_1_)" d="M90.4,50.711c0,0,0.152,15.752-2.445,18.353c-2.602,2.6-32.077,10.896-49.97,0.191
		c0,0-1.877-13.496-0.347-18.543c1.529-5.046,28.599-24.928,28.599-24.928S90.826,40.339,90.4,50.711z"/>
	<ellipse opacity="0.5" fill="#FFFFFF" cx="63.695" cy="58.111" rx="6.529" ry="1.245"/>
	<path fill="#E6B19B" d="M71.944,72.293c-12.189,0-21.285-8.272-21.285-18.075S58.162,38.07,70.353,38.07
		c4.78,0,10.796-0.045,14.41,2.032c-7.142-7.577-18.525-14.318-18.525-14.318S39.168,45.665,37.639,50.711
		c-1.53,5.047,0.347,18.543,0.347,18.543c17.893,10.706,47.368,2.409,49.97-0.191c0.608-0.61,1.064-1.945,1.408-3.625
		C85.324,69.608,79.025,72.293,71.944,72.293z"/>
	<path fill="#E6B19B" d="M59.789,31.654c3.634-2.811,6.549-4.976,7.461-5.65c0.793,0.373,1.728,0.816,2.759,1.317
		c6.216,4.006,22.047,15.049,21.703,23.39c0,0,0.014,1.436-0.038,3.507C77.266,29.092,55.09,42.399,55.09,42.399L59.789,31.654z"/>
	<path fill="#E6B19B" d="M57.827,32.655c0,0-1.682,16.295-22.991,20.329l1.189-6.451L57.827,32.655z"/>
	<path fill="#654439" d="M77.04,51.589c0,0,0.84-1.183,2.141-0.418c1.299,0.765,0.993,4.895,0.459,5.659
		c-0.536,0.764-1.683,1.071-2.6,0C76.121,55.759,76.427,52.619,77.04,51.589z"/>
	<path fill="#654439" d="M48.348,52.265c0,0,0.841-1.183,2.141-0.418c1.299,0.765,0.994,4.893,0.46,5.658
		c-0.537,0.765-1.684,1.071-2.601,0C47.43,56.434,47.736,53.294,48.348,52.265z"/>
	<path fill="none" stroke="#ED6D65" stroke-linecap="round" stroke-miterlimit="10" d="M75.863,62.029c0,0-3.794,2.258-10.054,2.787
		c-8.637,0.73-10.577-0.437-14.066-1.411"/>
	<path fill="#ED6E65" d="M83.878,59.045c0,0,1.33,0.135,2.034,0c0.706-0.133,0.967-1.54,0-1.811c-1.096-0.305-2.582-0.134-2.973,0
		C82.548,57.37,80.825,58.645,83.878,59.045z"/>
	<path fill="#ED6E65" d="M43.923,59.045c0,0-1.329,0.135-2.034,0c-0.705-0.133-0.969-1.54,0-1.811c1.096-0.305,2.583-0.134,2.974,0
		C45.255,57.37,46.977,58.645,43.923,59.045z"/>
	<path fill="#E6B19B" d="M37.985,69.255c0,0-0.229-1.655-0.456-3.94c2.984,2.886,10.079,6.979,25.001,6.979
		c22.964,0,26.837-6.883,26.841-6.885c-0.346,1.696-0.537,3.043-1.149,3.656C85.622,71.664,55.878,79.96,37.985,69.255z"/>
	<path fill="#538776" d="M37.165,125.459c0,0,0.15-0.431,0.107-1.438c-0.107-2.372,15.85,0.588,24.265,0.01
		c0,0-4.733-0.762,3.184-1.404c4.203-0.342,26.854-0.684,26.825-0.266c-0.019,0.25-0.05,1.847-0.233,2.102l-26.669,5.482
		L37.165,125.459z"/>
	<path fill="#ACD5AC" d="M91.5,124.221c0,0,3.369,1.979,3.326,7.71c-0.031,4.358-3.053,5.015-4.133,5.443
		c-1.658,0.657-45.175,4.718-52.71,0.044c0,0-7.007-4.464-0.818-11.362C37.165,126.056,61.737,128.861,91.5,124.221z"/>
	<path fill="#538776" d="M37.165,126.056c-6.473,7.564,0.818,11.362,0.818,11.362c4.065,2.522,18.602,2.503,31.389,1.846
		c0.058-0.015,0.106-0.03,0.137-0.041c1.08-0.428-3.722-2.056-3.689-6.414c0.033-4.35,3.158-5.477,4.989-6.367
		c-1.633,0.102-3.208-0.527-4.759-0.461C54.979,124.969,45.623,126.041,37.165,126.056z"/>
	<path fill="#DE5A35" d="M75.094,8.397c0,0-9.729-11.223-29.394-7.72C23.812,4.576,13.272,41.708,26.868,61.373l31.708-33.808
		l3.67-3.67l6.369,9.737L75.094,8.397z"/>
	<path fill="#A9342D" d="M50.066,6.307c-8.702,0-17.417,5.772-23.273,11.317c-8.394,13.125-8.726,31.021,0.075,43.749l31.708-33.808
		l3.67-3.67l6.369,9.737l4.355-16.966C67.117,11.131,61.03,6.307,50.066,6.307z"/>
	<path fill="#DE5A35" d="M75.012,8.715c0,0-3.575-6.573-0.898-6.95c0,0,3.225-0.098,4.371,1.509
		c1.146,1.605-1.683,7.723-1.683,7.723s4.399-5.077,6.116-4.818c1.221,0.184,3.595,3.059,2.677,3.67
		c-0.918,0.611-7.952,5.276-7.952,5.276l-7.418-0.95L75.012,8.715z"/>
	<path fill="#A9342D" d="M51.151,4.292c-10.266,0-19.358,5.1-24.99,12.946c-3.606,6.938-5.622,15.216-5.622,23.273
		c1.015,7.006,4.29,13.257,9.042,17.969l28.995-30.915l3.67-3.67l6.369,9.737l2.396-22.475C65.37,5.086,59.999,4.292,51.151,4.292z"
		/>
	<path fill="#A9342D" d="M42.875,27.787c0,0-5.261,6.377-11.013,0.865c0,0,1.065,3.836,6.51,4.279
		C47.765,33.695,42.875,27.787,42.875,27.787z"/>
	<path fill="#A9342D" d="M41.277,33.632c14.33,2.628-6.47,12.361-6.744,12.708c-0.153,0.193-3.874,8.099-7.665,15.034
		c-7.703-11.533-8.329-27.388-1.913-40.111l2.011-3.979C26.966,17.283,26.948,31.004,41.277,33.632z"/>
	<path fill="#DE5A35" d="M70.225,36.613c0,0,2.83-1.052,2.83-3.419c0,0,3.189,3.254,2.272,4.478c0,0,14.036-0.088,15.074,14.053
		c0,0,7.353-7.227,6.74-16.199c-0.613-8.972-8.794-24.682-21.334-22.235c-2.454,0.479-5.326,1.297-6.062,2.89
		c-0.248,0.537-0.658,0.762-1.003,0.882c-1.68,0.584-2.954-0.505-3.687-0.772c-4.002-1.458-3.31,1.922-3.31,1.922l3.548,3.59
		L70.225,36.613z"/>
	<path fill="#A9342D" d="M68.669,33.42c0,0,1.394-11.658-7.85-14.164C45.221,15.024,34.537,41.362,31.392,49.23l23.771-21.869
		L68.669,33.42z"/>
	<path fill="#A9342D" d="M28.536,47.767c0,0-4.756,3.721-5.199,5.397l2.575,5.037L28.536,47.767z"/>
	<path fill="#A9342D" d="M74.949,13.787l-0.288,19.309l0.288,3.62c-0.227-1.371-1.97-2.875-1.97-2.875
		c0,2.212-2.399,2.63-2.719,2.76l-1.518,0.156l0.474-1.769l-0.602-1.355l-0.286-0.438c0-1.96,2.308-14.733,2.759-19.523
		C71.312,11.278,73.602,11.45,74.949,13.787z"/>
	<path fill="#DE5A35" d="M61.483,21.601c0,0-5.25-1.694-8.003-0.318c0,0-2.673,0.723-3.914,3.289
		c-4.432,9.16-5.875,10.082-14.73,17.562C24.342,51,24.235,58.261,27.302,63.263c2.258,3.065,2.873-0.94,2.873-0.94h0.002
		c0.197-2,1.278-4.159,4.109-6.217c0,0,11.394-5.96,19.192-15.313c0,0,9.493-5.708,13.512-3.516c1.086,0.592,2.4-0.658,2.4-0.658
		S68.721,24.66,61.483,21.601z"/>
	<path fill="#93342D" d="M66.803,36.945c0,0-1.077-8.008-6.684-8.518c0,0-0.689,5.742-6.641,12.291
		C53.479,40.718,60.616,36.435,66.803,36.945z"/>
	<circle fill="#FFDB5C" cx="63.394" cy="104.961" r="12.351"/>
	<path fill="none" stroke="#A9342D" stroke-miterlimit="10" d="M28.877,59.87c-1.823-6.087,7.882-12.175,7.882-12.175
		s4.776-3.53,5.792-6.068"/>
	<path fill="none" stroke="#E05935" stroke-miterlimit="10" d="M7.234,16.899c0,0-5.077,1.769-3.581,10.524"/>
	<path fill="none" stroke="#E05935" stroke-miterlimit="10" d="M5.041,24.347c0,0,0.079,0.686,0.531,2.061"/>
	<path fill="#FAE6BF" d="M109.759,104.153c0,0-3.441,4.597-3.211,5.514c0.229,0.918,0.293,5.048,1.599,4.513
		c1.305-0.535,1.942-5.354,1.942-5.354s1.581,7.035,0.281,9.1c-1.299,2.064,7.568,5.428,8.487-2.447
		c0.916-7.877-4.874-15.728-4.874-15.728L109.759,104.153z"/>
	<polygon fill="#E6B19B" points="110.089,108.826 114.396,106.352 110.762,113.039 	"/>
	<path fill="#A9342D" d="M87.181,42.399c0,0,8.977-12.006-2.656-23.077c0,0-17.722-15.355-9.494,18.022c0,0-0.008-2.669,2.235-2.567
		C79.508,34.879,86.246,30.521,87.181,42.399z"/>
	<path fill="#DE5A35" d="M86.286,42.184c0.763,1.068,1.039-0.136,1.041-0.14c0.194-4.998-1.59-12.92-6.404-13.612
		c0,0-5.995-0.455-5.893,8.62c0,0-0.294,0.987,1.492,0.914c1.663-0.068,6.107-2.557,8.732,2.146
		C85.541,39.75,85.987,41.766,86.286,42.184z"/>
	<path fill="#93342D" d="M75.474,37.825c0,0,1.966-4.449,4.31-3.531c2.346,0.918,3.932,2.792,6.78,8.2
		C86.563,42.495,86.601,41.156,75.474,37.825z"/>
	<path fill="#A9342D" d="M74.228,22.301c0,0,2.498-5.186,10.297-0.547c0,0-5.479-7.558-11.47-3.021
		C66.997,23.318,74.228,22.301,74.228,22.301z"/>
	<path fill="#7D3B2E" d="M96.485,199.693c0,0,3.213,9.439,0.234,10.567c0,0-7.205,2.396-15.631,0.392
		c-0.242-0.058-1.049-0.392-1.351-0.983c0,0-2.147-5.711-0.415-7.953C81.058,199.474,96.485,199.693,96.485,199.693z"/>
	<path fill="#C55E4C" d="M77.429,186.52c0,0,1.415,3.179,1.22,5.57c-0.292,3.55-0.273,9.488,0.801,10.922
		c1.433,1.912,3.337,1.479,5.576,1.761c1.588,0.198,8.18,0.888,10.968-1.041c1.153-0.796,1.217-1.849,1.382-3.801
		c0,0,0.551-6.634-2.854-8.03c-2.896-1.188-3.97,0.328-5.595-0.196c-1.768-0.569-2.112-1.126-2.114-3.69
		C86.81,186.415,77.429,186.52,77.429,186.52z"/>
	<path opacity="0.6" fill="#774B38" d="M86.475,194.913c0,0,0.318-0.372,1.118-0.8c-0.269-0.152-0.516-0.267-0.697-0.317
		c-0.679-0.192-0.13-0.538-0.13-0.538s0.209-0.138,0.545-0.342c0.336-0.205,0.991,0.125,0.991,0.125
		c0.295,0.15,0.563,0.303,0.807,0.451c0.273-0.084,0.57-0.164,0.894-0.237c0,0,0.715-0.157,0.989,0.124
		c0.276,0.281,0.445,0.467,0.445,0.467s0.445,0.469-0.26,0.488c-0.19,0.004-0.455,0.055-0.756,0.135
		c0.671,0.612,0.886,1.053,0.886,1.053c0.257,0.435-0.055,0.707-0.055,0.707s-0.161,0.11-0.513,0.273
		c-0.352,0.165-0.627-0.151-0.99-0.578c-0.217-0.298-0.514-0.596-0.836-0.874c-0.382,0.189-0.745,0.405-1.029,0.64
		c-0.455,0.324-0.801,0.562-1.102,0.315c-0.301-0.245-0.43-0.392-0.43-0.392S86.119,195.273,86.475,194.913z"/>
	<path fill="#E3E6E7" d="M84.244,174.078c0,0,1.3,0.089,1.895,0.608c0.608,0.532,0.784,1.685,0.784,3.265
		c0,1.581,0.296,9.604-0.111,10.062c-0.881,0.987-5.476,3.028-8.46,1.275c0,0-4.335-11.376-2.032-14.243
		c0.589-0.733,0.943-0.866,2.219-0.968c0,0,0.224,1.063,0.433,1.605c0.35,0.902,0.924,1.461,2.294,1.351
		C82.892,176.9,84.643,176.9,84.244,174.078z"/>
	<path opacity="0.5" fill="none" stroke="#A9A19E" stroke-linecap="round" stroke-miterlimit="10" d="M84.426,177.429
		c0,0,1.148,6.387,0.477,9.648"/>
	<path opacity="0.5" fill="none" stroke="#A9A19E" stroke-linecap="round" stroke-miterlimit="10" d="M81.72,178.134
		c0,0,1.15,6.383,0.477,9.646"/>
	<path opacity="0.5" fill="none" stroke="#A9A19E" stroke-linecap="round" stroke-miterlimit="10" d="M79.089,178.21
		c0,0-0.583,4.704,0.84,9.495"/>
	<path fill="#EEEDDA" d="M90.051,192.858c0,0,0.716-0.157,0.991,0.124c0.275,0.28,0.444,0.466,0.444,0.466s0.445,0.469-0.259,0.486
		c-0.703,0.021-2.381,0.606-3.293,1.359c-0.456,0.323-0.802,0.562-1.103,0.314s-0.429-0.393-0.429-0.393s-0.235-0.341,0.121-0.698
		C86.524,194.518,87.418,193.453,90.051,192.858z"/>
	<path fill="#EEEDDA" d="M88.352,192.644c0,0-0.655-0.328-0.991-0.124s-0.545,0.342-0.545,0.342s-0.548,0.345,0.13,0.537
		c0.678,0.19,2.157,1.175,2.854,2.129c0.363,0.428,0.639,0.742,0.989,0.578c0.352-0.165,0.515-0.275,0.515-0.275
		s0.31-0.27,0.055-0.707C91.358,195.123,90.755,193.872,88.352,192.644z"/>
	<path fill="none" stroke="#553227" stroke-linecap="round" stroke-miterlimit="10" d="M94.506,205.294c0,0,0.319,1.812,0,3.839"/>
	<path fill="none" stroke="#553227" stroke-linecap="round" stroke-miterlimit="10" d="M91.784,205.858c0,0,0.319,1.878,0,3.979"/>
	<path fill="none" stroke="#553227" stroke-linecap="round" stroke-miterlimit="10" d="M88.647,206.28c0,0,0.321,1.879,0,3.98"/>
	<path fill="none" stroke="#553227" stroke-linecap="round" stroke-miterlimit="10" d="M85.915,206.28c0,0,0.319,1.879,0,3.98"/>
	<path fill="none" stroke="#553227" stroke-linecap="round" stroke-miterlimit="10" d="M82.83,206.092c0,0,0.317,1.658,0,3.512"/>
	<g>
		<g>
			<path fill="#679C80" d="M74.2,98.952c0,0-0.541,0.415-0.464,1.214c0.078,0.799-0.115,10.127,0.464,10.482
				c0.58,0.355,7.628,0.623,7.628-2.561s-2.671-3.125-3.058-3.214c0,0,3.29,0.03,3.058-2.933
				C81.596,98.981,77.607,97.266,74.2,98.952z"/>
			<path fill="#679C80" d="M43.442,109.555c0,0-1.067-8.02-0.446-12.55c0,0,5.376-0.312,5.819,0.132
				c0.444,0.444,2.799,4.486,2.799,4.486l0.443-4.815c0,0,4.265-0.248,4.265,1.085c0,1.332-0.887,11.46-1.6,11.638
				c-0.71,0.178-4.232-0.665-4.232-0.665s-2.03-4.844-2.52-6.088c-0.133-0.34-0.577,0.041-0.577,0.041s0.756,6.736-0.045,6.736
				C46.55,109.555,46.106,109.555,43.442,109.555z"/>
			<path fill="#EAE9EA" d="M43.442,108.422c0,0-1.067-8.02-0.446-12.551c0,0,5.376-0.311,5.819,0.135
				c0.444,0.443,2.799,4.486,2.799,4.486l0.443-4.817c0,0,4.265-0.247,4.265,1.085s-0.887,11.461-1.6,11.638
				c-0.71,0.179-4.232-0.665-4.232-0.665s-2.03-4.843-2.52-6.086c-0.133-0.341-0.577,0.038-0.577,0.038s0.756,6.737-0.045,6.737
				C46.55,108.422,46.106,108.422,43.442,108.422z"/>
			<path fill="#679C80" d="M61.741,100.492c0,0-3.287-0.713-4.086,2.265c-0.801,2.976,1.688,4.042,2.665,4.085
				c0.977,0.045,4.441-1.021,3.243-4.352C63.563,102.49,63.296,101.113,61.741,100.492z"/>
			<path fill="#FFFFFF" d="M61.741,99.336c0,0-3.287-0.711-4.086,2.266c-0.801,2.977,1.691,3.979,2.665,4.086
				c1.214,0.135,4.441-1.021,3.243-4.354C63.563,101.334,63.296,99.957,61.741,99.336z"/>
			<path fill="#679C80" d="M70.062,100.492c0,0-3.287-0.713-4.086,2.265c-0.802,2.976,1.687,4.042,2.665,4.085
				c0.977,0.045,4.441-1.021,3.242-4.352C71.884,102.49,71.616,101.113,70.062,100.492z"/>
			<path fill="#FFFFFF" d="M70.062,99.336c0,0-3.287-0.711-4.086,2.266c-0.802,2.977,1.692,3.979,2.665,4.086
				c1.214,0.135,4.441-1.021,3.242-4.354C71.884,101.334,71.616,99.957,70.062,99.336z"/>
			<path fill="#679C80" d="M68.663,101.537c0,0,0.947-0.205,1.177,0.653c0.23,0.858-0.486,1.165-0.768,1.178
				c-0.28,0.013-1.276-0.293-0.932-1.255C68.141,102.113,68.218,101.715,68.663,101.537z"/>
			<path fill="#679C80" d="M60.349,101.537c0,0,0.947-0.205,1.178,0.653c0.229,0.858-0.487,1.165-0.769,1.178
				c-0.28,0.013-1.276-0.293-0.933-1.255C59.825,102.113,59.903,101.715,60.349,101.537z"/>
			<path fill="#FFFFFF" d="M74.2,97.708c0,0-0.541,0.415-0.464,1.214c0.078,0.801-0.115,10.129,0.464,10.484
				c0.58,0.354,7.628,0.621,7.628-2.561c0-3.186-2.671-3.127-3.058-3.217c0,0,3.29,0.031,3.058-2.93S77.607,96.021,74.2,97.708z"/>
			<path fill="#679C80" d="M77.916,99.574c0,0-1.38,1.055-0.92,1.32c0.46,0.264,1.609,0.17,1.666-0.684
				C78.723,99.354,77.916,99.574,77.916,99.574z"/>
			<path fill="#679C80" d="M77.128,105.824c0,0-0.539,1.319,0.321,1.43c0.863,0.107,1.443-0.596,1.01-1.211
				C78.026,105.428,77.128,105.824,77.128,105.824z"/>
		</g>
	</g>
	<path id="XMLID_2_" fill="none" stroke="#679C80" stroke-linecap="round" stroke-miterlimit="10" d="M68.609,112.344
		c0,0-3.444-5.201-8.292-0.223"/>
	<path fill="#DE5A35" d="M68.743,19.84c0,0,0.913-3.128,1.003-3.658c0.891-5.351-11.191-12.732-20.528-11.89
		c0,0,13.454-2.362,21.752,5.648C70.97,9.94,71.561,20.115,68.743,19.84z"/>
</g>
</svg>
