<?xml version="1.0" encoding="utf-8"?>
<!-- Generator: Adobe Illustrator 16.0.0, SVG Export Plug-In . SVG Version: 6.00 Build 0)  -->
<!DOCTYPE svg PUBLIC "-//W3C//DTD SVG 1.1//EN" "http://www.w3.org/Graphics/SVG/1.1/DTD/svg11.dtd">
<svg version="1.1" id="Calque_1" xmlns="http://www.w3.org/2000/svg" xmlns:xlink="http://www.w3.org/1999/xlink" x="0px" y="0px"
	 width="113.395px" height="221.908px" viewBox="4.62 0.329 113.395 221.908" enable-background="new 4.62 0.329 113.395 221.908"
	 xml:space="preserve">
<g>
	<path opacity="0.7" fill="#E5DFC5" enable-background="new    " d="M115.65,211.026c0,6.191-22.422,11.211-50.082,11.211
		c-27.655,0-50.075-5.02-50.075-11.211s22.42-11.213,50.075-11.213C93.228,199.813,115.65,204.835,115.65,211.026z"/>
	<g>
		<g id="Base">
			<g>
				<path fill="#E1A898" d="M86.772,57.446c0,3.393,1.756,6.142,3.919,6.142c2.161,0,3.918-2.749,3.918-6.142
					c0-3.395-1.757-6.145-3.918-6.145C88.528,51.301,86.772,54.051,86.772,57.446z"/>
				
					<linearGradient id="SVGID_1_" gradientUnits="userSpaceOnUse" x1="-95.437" y1="311.7693" x2="-94.6294" y2="280.4761" gradientTransform="matrix(1 0 0 1 158.5 -239)">
					<stop  offset="0.0917" style="stop-color:#FFE3BB"/>
					<stop  offset="1" style="stop-color:#F4DEBB"/>
				</linearGradient>
				<path fill="url(#SVGID_1_)" d="M89.81,53.014c0.042-1.021-0.169-2.08-0.568-3.165C88.661,46.335,86,32.906,73.022,29.695
					c-13.545-3.35-35.435-1.085-35.809,26.177c-0.011,0.895,0.025,1.704,0.126,2.444c-0.027,0.795-0.015,1.589,0.035,2.373
					c0.086,1.407,0.022,1.997-0.161,1.969c0.25,4.53,0.824,8.674,0.824,8.674c17.672,10.574,46.788,2.378,49.359-0.189
					C89.961,68.573,89.81,53.014,89.81,53.014z"/>
				<path fill="#E1A898" d="M33.458,58.639c0,3.392,1.751,6.144,3.914,6.144c2.163,0,3.918-2.751,3.918-6.144
					c0-3.394-1.755-6.146-3.918-6.146C35.209,52.492,33.458,55.245,33.458,58.639z"/>
				<path opacity="0.5" fill="#FFFFFF" enable-background="new    " d="M69.882,60.323c0,0.681-2.891,1.23-6.452,1.23
					c-3.56,0-6.448-0.549-6.448-1.23c0-0.679,2.889-1.23,6.448-1.23C66.992,59.093,69.882,59.644,69.882,60.323z"/>
				<path fill="#E1A898" d="M57.337,44.042c-6.044,3.456-7.289,6.63-7.289,12.435c0,9.682,9.492,17.854,21.53,17.854
					c6.996,0,13.218-2.65,17.207-6.771c-0.34,1.66-0.791,2.979-1.39,3.581c-2.571,2.569-31.687,10.765-49.359,0.19
					c0,0-1.504-10.824-0.695-16.613c-0.028,0.007-0.054,0.018-0.084,0.024c0.803-21.747,15.737-26.922,28.426-26.159
					c0.162-0.121,0.261-0.193,0.261-0.193s0.137,0.083,0.38,0.23c0.181,0.015,0.355,0.035,0.536,0.051
					c0.022-0.017,0.061-0.044,0.082-0.062c0.056,0.026,0.124,0.059,0.183,0.086c2.069,0.199,4.06,0.546,5.896,0.999
					c9.881,2.444,13.776,10.807,15.331,16.213c1.463,4.034,1.785,5.738,1.693,7.975C90.046,53.882,81.613,34.295,57.337,44.042z"/>
				<path fill="#5D413A" d="M76.088,53.882c0,0,0.828-1.169,2.114-0.416c1.282,0.757,0.981,4.837,0.453,5.591
					c-0.529,0.754-1.659,1.058-2.569,0C75.181,58.001,75.482,54.897,76.088,53.882z"/>
				<path fill="#5D413A" d="M48.646,54.549c0,0,0.831-1.168,2.115-0.412c1.283,0.753,0.982,4.831,0.454,5.587
					c-0.532,0.756-1.663,1.058-2.569,0S48.042,55.567,48.646,54.549z"/>
				<path fill="none" stroke="#F3726C" stroke-linecap="round" stroke-miterlimit="10" d="M75.451,64.193
					c0,0-3.748,2.229-9.931,2.753c-8.531,0.722-10.446-0.434-13.894-1.392"/>
				<path fill="#F3726C" d="M83.366,61.246c0,0,1.314,0.133,2.011,0c0.696-0.131,0.955-1.521,0-1.79
					c-1.083-0.301-2.551-0.13-2.936,0C82.053,59.59,80.352,60.851,83.366,61.246z"/>
				<path fill="#F3726C" d="M43.902,61.246c0,0-1.313,0.133-2.008,0c-0.698-0.131-0.957-1.521,0-1.79
					c1.083-0.301,2.551-0.13,2.936,0C45.217,59.59,46.918,60.851,43.902,61.246z"/>
				<path fill="#E1A898" d="M38.037,71.331c0,0-0.227-1.636-0.45-3.894c2.949,2.852,9.954,6.892,24.695,6.892
					c22.684,0,26.506-6.798,26.511-6.799c-0.341,1.675-0.529,3.003-1.135,3.61C85.089,73.711,55.709,81.906,38.037,71.331z"/>
				<path fill="#E1A898" d="M45.097,137.552c0,0-0.035,22.014,0.165,23.059c0.197,1.053-1.356,26.977,1.253,27.92
					c2.612,0.939,5.09-17.307,4.95-24.418c-0.097-4.982,2.303-26.561,2.303-26.561H45.097L45.097,137.552z"/>
				<path fill="#E1A898" d="M83.324,136.874c0,0,0.513,22.689,0.315,23.736c-0.2,1.053,1.354,26.977-1.256,27.92
					c-2.613,0.939-5.091-17.307-4.949-24.418c0.098-4.982-2.223-25.184-2.223-25.184L83.324,136.874z"/>
				<path fill="#F4DEBB" d="M88.865,79.844c0,0,14.424,2.998,20.064,25.958l6.043,1.158c0,0-8.454-29.398-28.091-33.833
					C78.093,71.142,88.865,79.844,88.865,79.844z"/>
				<path fill="#F4DEBB" d="M108.929,105.802c0,0-3.398,4.539-3.17,5.446c0.226,0.907,0.289,4.985,1.58,4.458
					c1.287-0.529,1.916-5.287,1.916-5.287s1.563,6.949,0.278,8.988c-1.283,2.037,7.478,5.359,8.385-2.418
					c0.903-7.781-4.817-15.535-4.817-15.535L108.929,105.802z"/>
				<polygon fill="#E1A898" points="109.256,110.417 113.511,107.972 109.922,114.579 				"/>
				<path fill="#E1A898" d="M38.662,78.438c0,0-19.316,4.403-24.955,27.364l-6.045,1.158c0,0,9.072-31.299,28.877-34.942
					C42.796,70.866,38.662,78.438,38.662,78.438z"/>
				<path fill="#E1A898" d="M13.707,105.802c0,0,3.398,4.539,3.17,5.446c-0.225,0.907-0.291,4.985-1.581,4.458
					c-1.288-0.529-1.918-5.287-1.918-5.287s-1.561,6.949-0.278,8.988c1.285,2.037-7.477,5.359-8.382-2.418
					c-0.907-7.781,4.814-15.535,4.814-15.535L13.707,105.802z"/>
				<polygon fill="#D78779" points="13.379,110.417 9.125,107.972 12.714,114.579 				"/>
				<path fill="#78A585" d="M38.662,71.685c0,0,1.743,31.487,1.34,36.948c-0.562,7.591-0.7,29.739-0.7,29.739s49.614,1.254,50.294,0
					c0.679-1.254-0.804-39.02-0.804-39.02l-1.135-28.21C87.658,71.142,65.53,84.254,38.662,71.685z"/>
				<path fill="#8EBC9C" d="M38.662,71.685c0,0,14.617,26.68,24.528,31.38C70.629,101.578,86,72.111,86,72.111
					S59.742,82.151,38.662,71.685z"/>
				<path fill="#E1A898" d="M78.177,174.641c0,0,1.901,28.023,3.397,28.395s13.251,0.816,13.375-0.916s1.088-5.67-8.428-4.623
					c-2.091-3.777-2.793-21.932-2.793-21.932l0,0L78.177,174.641z"/>
				<path fill="#E1A898" d="M50.675,174.186c0,0-1.988,27.295-3.484,27.664c-1.493,0.373-13.25,0.916-13.374-0.82
					c-0.125-1.732-1.087-5.814,8.428-4.766c2.091-3.781,2.793-22.078,2.793-22.078l0,0H50.675L50.675,174.186z"/>
				<path fill="#E1A898" d="M33.458,58.639c0,3.392,1.751,6.144,3.914,6.144c2.163,0,3.918-2.751,3.918-6.144
					c0-3.394-1.755-6.146-3.918-6.146C35.209,52.492,33.458,55.245,33.458,58.639z"/>
			</g>
		</g>
		<g id="Shoes_noob">
			<path fill="#763A34" d="M33.083,200.171c0,0-2.955,9.135,0.028,10.199c0,0,6.856,2.604,15.18,0.625
				c0.239-0.057,1.035-0.387,1.334-0.971c0,0,2.121-5.639,0.409-7.857C48.321,199.952,33.083,200.171,33.083,200.171z"/>
			<path fill="#C26257" d="M51.905,187.157c0,0-1.398,3.143-1.203,5.504c0.29,3.508,0.269,8.934-0.791,10.35
				c-1.417,1.891-3.297,1.898-5.507,2.176c-1.57,0.197-8.079,0.877-10.835-1.027c-1.137-0.787-1.203-1.826-1.364-3.754
				c0,0-0.545-6.551,2.819-7.932c2.862-1.174,3.92,0.324,5.524-0.195c1.749-0.561,2.088-1.111,2.089-3.643
				C42.642,187.055,51.905,187.157,51.905,187.157z"/>
			<path opacity="0.6" fill="#6E493D" enable-background="new    " d="M42.971,195.45c0,0-0.314-0.369-1.105-0.791
				c0.267-0.152,0.508-0.264,0.689-0.314c0.67-0.189,0.129-0.529,0.129-0.529s-0.206-0.137-0.54-0.34
				c-0.331-0.203-0.978,0.123-0.978,0.123c-0.291,0.148-0.557,0.299-0.798,0.445c-0.27-0.08-0.561-0.162-0.881-0.232
				c0,0-0.706-0.158-0.98,0.121c-0.271,0.277-0.437,0.463-0.437,0.463s-0.438,0.463,0.256,0.484
				c0.189,0.002,0.451,0.049,0.748,0.129c-0.664,0.607-0.876,1.041-0.876,1.041c-0.253,0.43,0.056,0.697,0.056,0.697
				s0.157,0.109,0.506,0.271c0.346,0.162,0.619-0.148,0.978-0.57c0.215-0.293,0.508-0.59,0.827-0.861
				c0.377,0.186,0.734,0.398,1.018,0.627c0.447,0.32,0.788,0.559,1.087,0.314c0.295-0.24,0.421-0.387,0.421-0.387
				S43.321,195.803,42.971,195.45z"/>
			<path fill="#D9DFDF" d="M45.173,174.866c0,0-1.284,0.092-1.87,0.605c-0.602,0.525-0.775,1.662-0.775,3.223
				c0,1.564-0.293,9.486,0.109,9.938c0.869,0.975,5.407,2.992,8.358,1.26c0,0,4.283-11.234,2.006-14.068
				c-0.58-0.727-0.933-0.855-2.19-0.959c0,0-0.223,1.053-0.428,1.588c-0.345,0.893-0.914,1.443-2.267,1.336
				C46.51,177.657,44.782,177.657,45.173,174.866z"/>
			
				<path opacity="0.5" fill="none" stroke="#9F9A99" stroke-linecap="round" stroke-miterlimit="10" enable-background="new    " d="
				M44.996,178.178c0,0-1.136,6.309-0.472,9.529"/>
			
				<path opacity="0.5" fill="none" stroke="#9F9A99" stroke-linecap="round" stroke-miterlimit="10" enable-background="new    " d="
				M47.666,178.876c0,0-1.134,6.305-0.469,9.527"/>
			
				<path opacity="0.5" fill="none" stroke="#9F9A99" stroke-linecap="round" stroke-miterlimit="10" enable-background="new    " d="
				M50.266,178.948c0,0,0.577,4.648-0.83,9.381"/>
			<path fill="#E7E6D3" d="M39.438,193.419c0,0-0.707-0.158-0.979,0.123c-0.272,0.277-0.438,0.461-0.438,0.461
				s-0.44,0.461,0.254,0.48c0.695,0.02,2.352,0.598,3.253,1.342c0.451,0.32,0.793,0.555,1.09,0.311
				c0.297-0.246,0.42-0.389,0.42-0.389s0.233-0.338-0.118-0.691C42.923,195.059,42.041,194.007,39.438,193.419z"/>
			<path fill="#E7E6D3" d="M41.119,193.21c0,0,0.646-0.326,0.979-0.127c0.329,0.203,0.54,0.34,0.54,0.34s0.538,0.34-0.129,0.527
				c-0.67,0.191-2.133,1.16-2.823,2.105c-0.355,0.422-0.626,0.732-0.973,0.57c-0.349-0.162-0.508-0.27-0.508-0.27
				s-0.31-0.271-0.055-0.701C38.149,195.655,38.744,194.421,41.119,193.21z"/>
			<path fill="none" stroke="#4D2D27" stroke-linecap="round" stroke-miterlimit="10" d="M35.041,205.702c0,0-0.317,1.791,0,3.793"
				/>
			<path fill="none" stroke="#4D2D27" stroke-linecap="round" stroke-miterlimit="10" d="M37.727,206.26c0,0-0.313,1.855,0,3.93"/>
			<path fill="none" stroke="#4D2D27" stroke-linecap="round" stroke-miterlimit="10" d="M40.823,206.677c0,0-0.315,1.855,0,3.932"
				/>
			<path fill="none" stroke="#4D2D27" stroke-linecap="round" stroke-miterlimit="10" d="M43.524,206.677c0,0-0.314,1.855,0,3.932"
				/>
			<path fill="none" stroke="#4D2D27" stroke-linecap="round" stroke-miterlimit="10" d="M46.571,206.487c0,0-0.312,1.641,0,3.473"
				/>
			<path fill="#763A34" d="M95.823,200.171c0,0,3.175,9.324,0.231,10.438c0,0-7.116,2.365-15.438,0.389
				c-0.239-0.057-1.035-0.389-1.333-0.971c0,0-2.122-5.641-0.411-7.857C80.585,199.954,95.823,200.171,95.823,200.171z"/>
			<path fill="#C26257" d="M77,187.157c0,0,1.399,3.143,1.205,5.504c-0.288,3.508-0.271,9.369,0.793,10.787
				c1.412,1.889,3.295,1.461,5.508,1.74c1.565,0.195,8.077,0.877,10.83-1.029c1.139-0.787,1.202-1.824,1.365-3.754
				c0,0,0.544-6.551-2.821-7.932c-2.857-1.174-3.919,0.324-5.525-0.193c-1.744-0.562-2.088-1.111-2.089-3.645
				C86.267,187.055,77,187.157,77,187.157z"/>
			<path opacity="0.6" fill="#6E493D" enable-background="new    " d="M85.938,195.45c0,0,0.313-0.369,1.103-0.791
				c-0.266-0.152-0.511-0.264-0.689-0.314c-0.668-0.189-0.126-0.529-0.126-0.529s0.205-0.137,0.537-0.34s0.979,0.123,0.979,0.123
				c0.29,0.148,0.559,0.299,0.797,0.445c0.272-0.08,0.562-0.162,0.885-0.232c0,0,0.705-0.158,0.975,0.121
				c0.272,0.277,0.439,0.463,0.439,0.463s0.441,0.463-0.254,0.484c-0.188,0.002-0.45,0.049-0.747,0.129
				c0.662,0.607,0.876,1.041,0.876,1.041c0.251,0.43-0.056,0.697-0.056,0.697s-0.161,0.109-0.508,0.271
				c-0.346,0.162-0.616-0.148-0.979-0.57c-0.211-0.293-0.505-0.59-0.822-0.861c-0.379,0.186-0.736,0.398-1.02,0.627
				c-0.448,0.32-0.79,0.559-1.089,0.314c-0.296-0.24-0.423-0.387-0.423-0.387S85.585,195.803,85.938,195.45z"/>
			<path fill="#D9DFDF" d="M83.732,174.866c0,0,1.283,0.092,1.872,0.605c0.602,0.525,0.774,1.662,0.774,3.223
				c0,1.564,0.294,9.486-0.109,9.938c-0.871,0.975-5.408,2.992-8.354,1.26c0,0-4.284-11.234-2.009-14.068
				c0.584-0.727,0.932-0.855,2.191-0.959c0,0,0.223,1.053,0.428,1.588c0.347,0.893,0.913,1.443,2.265,1.336
				C82.397,177.657,84.126,177.657,83.732,174.866z"/>
			
				<path opacity="0.5" fill="none" stroke="#9F9A99" stroke-linecap="round" stroke-miterlimit="10" enable-background="new    " d="
				M83.913,178.178c0,0,1.136,6.309,0.473,9.529"/>
			
				<path opacity="0.5" fill="none" stroke="#9F9A99" stroke-linecap="round" stroke-miterlimit="10" enable-background="new    " d="
				M81.239,178.876c0,0,1.137,6.305,0.471,9.527"/>
			
				<path opacity="0.5" fill="none" stroke="#9F9A99" stroke-linecap="round" stroke-miterlimit="10" enable-background="new    " d="
				M78.641,178.948c0,0-0.576,4.648,0.829,9.381"/>
			<path fill="#E7E6D3" d="M89.468,193.419c0,0,0.706-0.158,0.979,0.123c0.271,0.277,0.44,0.461,0.44,0.461s0.438,0.461-0.259,0.48
				c-0.694,0.02-2.351,0.598-3.251,1.342c-0.451,0.32-0.791,0.555-1.089,0.311c-0.295-0.246-0.424-0.389-0.424-0.389
				s-0.23-0.338,0.12-0.691C85.985,195.059,86.869,194.007,89.468,193.419z"/>
			<path fill="#E7E6D3" d="M87.792,193.21c0,0-0.648-0.326-0.981-0.127c-0.332,0.203-0.538,0.34-0.538,0.34s-0.54,0.34,0.13,0.527
				c0.672,0.191,2.13,1.16,2.817,2.105c0.361,0.422,0.632,0.732,0.979,0.57c0.349-0.162,0.509-0.27,0.509-0.27
				s0.305-0.271,0.052-0.701C90.759,195.655,90.163,194.421,87.792,193.21z"/>
			<path fill="none" stroke="#4D2D27" stroke-linecap="round" stroke-miterlimit="10" d="M93.871,205.702c0,0,0.314,1.791,0,3.793"
				/>
			<path fill="none" stroke="#4D2D27" stroke-linecap="round" stroke-miterlimit="10" d="M91.181,206.26c0,0,0.314,1.855,0,3.93"/>
			<path fill="none" stroke="#4D2D27" stroke-linecap="round" stroke-miterlimit="10" d="M88.083,206.677c0,0,0.314,1.855,0,3.932"
				/>
			<path fill="none" stroke="#4D2D27" stroke-linecap="round" stroke-miterlimit="10" d="M85.382,206.677c0,0,0.317,1.855,0,3.932"
				/>
			<path fill="none" stroke="#4D2D27" stroke-linecap="round" stroke-miterlimit="10" d="M82.337,206.487c0,0,0.312,1.641,0,3.473"
				/>
		</g>
		<g id="Shorts">
			<path fill="#666189" d="M40.63,136.885c-0.123,2.949-0.373,12.826,0.057,13.277c1.814,1.898,17.56,4.035,18.062,0
				c0.273-2.219,0.245-8.961,0.166-12.094C51.542,138.177,44.663,137.905,40.63,136.885z"/>
			<path fill="#666189" d="M89.432,136.975c-0.276,0.105-0.521,0.189-0.707,0.262c-0.669,0.264-7.568-0.25-16.737,0.318
				c-0.091,3.209,0.64,10.254,0.933,12.607c0.504,4.037,16.247,1.898,18.061,0c0.541-0.57-1.383-13.166-1.383-13.166L89.432,136.975
				z"/>
		</g>
		<g id="T-shirt_Noob">
			<path fill="#E1A898" d="M93.34,75.237c1.718,0.949,3.321,2.106,4.815,3.4c-0.311,1.687-1.27,3.059-3.105,4.242
				c-1.894-1.414-3.783-2.067-4.999-2.57L93.34,75.237z"/>
			<path fill="#548679" d="M90.666,71.145c0,0,5.805,1.23,5.805,2.569c0,1.337-2.499,8.46-7.175,9.364
				c-4.681,0.907-1.601-11.059-1.601-11.059L90.666,71.145z"/>
			<path fill="#548679" d="M37.94,70.563c0,0-8.575,0-9.034,3.15c-0.193,1.324,2.501,8.461,7.178,9.364
				c4.68,0.908,4.319-10.329,4.319-10.329L37.94,70.563z"/>
			<path fill="#9FD3AE" d="M88.602,74.333c0,0,1.889,24.101,2.247,27.728c0.361,3.627,0.246,21.553,0,24.372
				c0,0-33.427,6.479-53.619,1.006c0,0,1.24-16.516,0.922-19.336c-0.315-2.818-1.311-21.813-2.049-31.502
				C36.103,76.599,74.716,83.063,88.602,74.333z"/>
			<path fill="#548679" d="M61.293,103.866c-0.986-2.786-1.427-5.185-1.514-7.241l-1.126,1.855L42.773,81.701l10.003,1.177
				c-6.609-2.175-11.195-4.416-13.664-6.856c-1.955-0.325-3.427-0.549-3.427-0.549c0.739,9.69,2.151,29.81,2.467,32.628
				c0.318,2.82-0.922,19.337-0.922,19.337c0.794,0.217,1.61,0.408,2.442,0.588l39.325-2.4
				C72.792,123.87,65.136,114.729,61.293,103.866z"/>
			<path fill="#548679" d="M62.008,91.677c0,0,8.222-0.88,12.88,6.17c3.425,5.183,4.531,10.48,0.166,17.261
				c-4.366,6.785-16.352,6.586-20.036,3.359c-3.687-3.225-7.241-6.691-6.271-15.64C49.715,93.879,60.174,91.783,62.008,91.677z"/>
			<path fill="#548679" d="M90.581,73.411c0,0,0.043,1.912,0.128,2.935C86.526,81.402,74.894,88.4,62.177,88.542
				c-10.362,0.117-21.965-4.306-27.607-12.271c-1.734-2.09-0.52-2.224-0.343-2.861C34.226,73.411,76.69,82.14,90.581,73.411z"/>
			<path fill="#9FD3AE" d="M93.625,67.174c-0.835-1.79-3.003-1.628-4.55-1.24c-0.358,2.409-0.678,4.423-1.465,5.21
				c-2.54,2.539-30.576,10.559-48.522,0.531c0,0.003,0,0.009,0,0.012c-1.381,0.699-3.798,0.682-5.661-0.419
				c7.106,13.034,32.576,13.851,47.312,8.939C95.693,75.224,94.986,70.088,93.625,67.174z"/>
			<path fill="#548679" d="M37.231,126.85c0,0,0.148-0.426,0.106-1.422c-0.106-2.344,15.653,0.58,23.968,0.01
				c0,0-4.678-0.754,3.144-1.389c4.153-0.336,26.525-0.676,26.493-0.262c-0.016,0.246-0.046,1.824-0.228,2.076l-26.345,5.416
				L37.231,126.85z"/>
			<path fill="#9FD3AE" d="M90.9,125.624c0,0,3.327,1.955,3.285,7.617c-0.031,4.303-3.014,4.955-4.081,5.377
				c-1.639,0.648-44.622,4.66-52.065,0.041c0,0-6.919-4.406-0.808-11.221C37.231,127.438,61.502,130.208,90.9,125.624z"/>
			<path fill="#548679" d="M37.231,127.438c-6.393,7.473,0.808,11.219,0.808,11.219c4.018,2.496,18.374,2.477,31.003,1.826
				c0.059-0.014,0.106-0.029,0.133-0.041c1.068-0.422-3.672-2.027-3.643-6.334c0.033-4.299,3.12-5.41,4.929-6.289
				c-1.611,0.1-3.171-0.521-4.7-0.457C54.827,126.364,45.585,127.425,37.231,127.438z"/>
			<path fill="#FFD878" d="M50.94,106.601c0,6.738,5.461,12.201,12.198,12.201s12.199-5.463,12.199-12.201
				c0-6.735-5.462-12.199-12.199-12.199S50.94,99.865,50.94,106.601z"/>
			<g>
				<g>
					<path fill="#639A83" d="M73.812,100.665c0,0-0.533,0.411-0.458,1.201c0.079,0.788-0.112,10.004,0.458,10.355
						c0.573,0.348,7.535,0.613,7.535-2.532c0-3.147-2.639-3.087-3.021-3.174c0,0,3.25,0.026,3.021-2.899
						C81.118,100.696,77.176,98.999,73.812,100.665z"/>
					<path fill="#639A83" d="M43.433,111.138c0,0-1.054-7.921-0.441-12.396c0,0,5.308-0.308,5.747,0.13
						c0.441,0.439,2.764,4.43,2.764,4.43l0.438-4.754c0,0,4.213-0.246,4.213,1.07c0,1.315-0.876,11.321-1.581,11.496
						c-0.702,0.177-4.18-0.656-4.18-0.656s-2.007-4.786-2.489-6.015c-0.132-0.334-0.572,0.042-0.572,0.042s0.747,6.654-0.044,6.654
						C46.5,111.138,46.062,111.138,43.433,111.138z"/>
					<path fill="#E2E2E1" d="M43.433,110.018c0,0-1.054-7.92-0.441-12.395c0,0,5.308-0.307,5.747,0.133
						c0.441,0.437,2.764,4.43,2.764,4.43l0.438-4.758c0,0,4.213-0.242,4.213,1.072c0,1.316-0.876,11.319-1.581,11.496
						c-0.702,0.176-4.18-0.656-4.18-0.656s-2.007-4.784-2.489-6.012c-0.132-0.336-0.572,0.04-0.572,0.04s0.747,6.651-0.044,6.651
						C46.5,110.018,46.062,110.018,43.433,110.018z"/>
					<path fill="#639A83" d="M61.504,102.186c0,0-3.246-0.705-4.036,2.239c-0.791,2.938,1.668,3.991,2.635,4.035
						c0.964,0.042,4.386-1.009,3.202-4.3C63.305,104.161,63.041,102.8,61.504,102.186z"/>
					<path fill="#FFFFFF" d="M61.504,101.045c0,0-3.246-0.702-4.036,2.239c-0.791,2.94,1.672,3.928,2.635,4.036
						c1.197,0.131,4.386-1.009,3.202-4.301C63.305,103.018,63.041,101.658,61.504,101.045z"/>
					<path fill="#639A83" d="M69.726,102.186c0,0-3.247-0.705-4.036,2.239c-0.793,2.938,1.664,3.991,2.632,4.035
						c0.964,0.042,4.385-1.009,3.201-4.3C71.523,104.161,71.258,102.8,69.726,102.186z"/>
					<path fill="#FFFFFF" d="M69.726,101.045c0,0-3.247-0.702-4.036,2.239c-0.793,2.94,1.67,3.928,2.632,4.036
						c1.198,0.131,4.385-1.009,3.201-4.301C71.523,103.018,71.258,101.658,69.726,101.045z"/>
					<path fill="#639A83" d="M68.343,103.219c0,0,0.936-0.201,1.164,0.648c0.228,0.846-0.481,1.149-0.761,1.163
						c-0.275,0.011-1.26-0.29-0.92-1.241C67.827,103.789,67.905,103.394,68.343,103.219z"/>
					<path fill="#639A83" d="M60.13,103.219c0,0,0.935-0.201,1.163,0.648c0.228,0.846-0.479,1.149-0.757,1.163
						c-0.278,0.011-1.263-0.29-0.923-1.241C59.614,103.789,59.69,103.394,60.13,103.219z"/>
					<path fill="#FFFFFF" d="M73.812,99.438c0,0-0.533,0.409-0.458,1.199c0.079,0.79-0.112,10.003,0.458,10.355
						c0.573,0.35,7.535,0.614,7.535-2.529c0-3.147-2.639-3.088-3.021-3.179c0,0,3.25,0.032,3.021-2.892
						C81.118,99.467,77.176,97.772,73.812,99.438z"/>
					<path fill="#639A83" d="M77.484,101.28c0,0-1.367,1.043-0.91,1.304c0.454,0.261,1.591,0.168,1.646-0.675
						C78.28,101.064,77.484,101.28,77.484,101.28z"/>
					<path fill="#639A83" d="M76.704,107.454c0,0-0.532,1.305,0.318,1.412c0.852,0.106,1.426-0.589,0.997-1.196
						C77.59,107.063,76.704,107.454,76.704,107.454z"/>
				</g>
			</g>
			<path id="XMLID_4_" fill="none" stroke="#639A83" stroke-linecap="round" stroke-miterlimit="10" d="M68.291,113.895
				c0,0-3.403-5.138-8.19-0.223"/>
			<path fill="#548679" d="M44.096,76.865c0-1.153,0.511-1.945,0.938-2.491c-2.164-0.697-3.47-1.248-5.45-2.353
				c0,0.004-0.565-0.335-0.565-0.332c-1.911,0.332-3.934,0.686-5.817-0.534c2.606,5.31,7.911,8.08,14.404,9.991
				C43.911,80.03,44.096,76.865,44.096,76.865z"/>
		</g>
		<g id="Cheveux_1_1_">
			<path fill="#8C4438" d="M68.768,7.063c0,0,1.985-3.202,2.157-4.917c0.171-1.726-1.797-4.621-7.414,4.745
				c0,0-16.76-4.792-29.676,12.076c-11.17,14.585-6.019,26.472-4.004,32.549c3.046,6.028,7.847,8.831,7.847,8.831
				c-0.592-14.502,5.711-21.048,5.711-21.048c-0.154,2.148-0.095,4.72,2.139,7.424c1.107,0.417-2-5.925,4.343-11.849
				c-4.109,6.922,0.979,12.373,3.019,13.852c0.865-4.744,0.007-12.751,3.454-17.073c0.568-0.713,1.908,0.87,2.675,0.255
				c-3.207,3.769-0.257,16.085,4.573,21.307c0.732-0.411,7.284-5.767,9.45-17.667c0.308-1.684,3.087,1.866,3.407-0.18
				c4.477,12.866-4.425,18.324-0.326,17.124c3.314,0.058,6.42-1.414,7.512-3.713l0.582-2.041c0.044-0.427,0.286-0.367,0.378-0.116
				l0.302,0.871c0,0,5.142,1.114,5.162,9.611c1.246,1.234,3.001-1.695,3.001-1.695s6.943-7.464,6.833-15.869
				C99.794,31.735,98.706,8.789,68.768,7.063z"/>
			<path fill="#682E2E" d="M72.838,36.584c0,0,0.99-6.076,2.601-5.565c2.499,0.759,2.25,9.39,2.25,9.39
				C76.46,37.174,73.699,36.621,72.838,36.584z"/>
			<path fill="#682E2E" d="M84.216,46.739c0,0,1.784-3.353-0.018-9.532c-0.461-0.893,2.667,0.671,3.08,1.002
				c4.665,3.742,3.954,11.285,1.981,13.852C87.891,49.322,84.768,47.969,84.216,46.739z"/>
			<path fill="#682E2E" d="M51.667,22.219c0,0,3.811-6.206,9.901-5.975c3.863,0.683,4.166,3.16,4.166,3.16s1.883-3.869,4.989-3.173
				c3.106,0.696,4.791,1.732,8.724,7.435c0,0,0.968-4.956-2.829-8.665c-5.321-5.202-8.035-6.166-11.561-6.08
				C65.058,8.921,57.464,6.546,51.667,22.219z"/>
			<path fill="#682E2E" d="M57.954,34.529c0,0,2.895-6.513,1.727-6.764c-2.522-0.541-4.602,4.693-5.294,8.019
				C55.568,35.219,56.65,34.702,57.954,34.529z"/>
			<path fill="#682E2E" d="M46.463,28.821c0,0-7.041,11.313-13.933,6.963c-6.384-4.029,1.805-17.196,2.108-17.821
				c-0.269,0.33-0.537,0.655-0.803,1.003c-11.17,14.585-6.019,26.472-4.004,32.549c3.046,6.028,7.847,8.831,7.847,8.831
				c-0.537-13.133,4.583-19.743,5.553-20.871C43.464,32.607,46.463,28.821,46.463,28.821z"/>
			<path fill="#682E2E" d="M93.06,55.41c0,0,6.943-7.464,6.833-15.869c-0.038-2.966-0.227-8.001-2.008-13.256l-0.117-0.331
				c0,0,2.826,12.007-4.497,13.201c-6.902,1.126-10.814-8.653-10.814-8.653c2.689,6.328,2.141,15.192,2.141,15.192
				c-0.069,0.238-0.122,0.485-0.171,0.739c0.065,0.017,0.129,0.084,0.168,0.189l0.302,0.871c0,0,5.142,1.114,5.162,9.612
				C91.307,58.339,93.06,55.41,93.06,55.41z"/>
			<path fill="#682E2E" d="M64.167,6.976c0,0-0.058-5.061-2.071-5.579c-2.015-0.518-2.358,3.912,0.401,6.557
				C65.257,10.6,64.167,6.976,64.167,6.976z"/>
			<path fill="#682E2E" d="M72.104,13.016c0,0,4.888-4.473,12.05-2.351C78.202,6.919,67.507,5.517,63.19,8.922
				C67.272,12.211,72.104,13.016,72.104,13.016z"/>
			<path fill="#682E2E" d="M68.768,7.063c0,0,1.985-3.202,2.157-4.917c0.171-1.726-1.797-4.621-7.414,4.745
				c0,0-0.088-0.024-0.243-0.062c0.46,1.514,0.968,3.176,1.111,3.6c0.179,0.525,3.52-1.624,5.92-3.254
				C69.796,7.13,69.288,7.093,68.768,7.063z"/>
			<path fill="#682E2E" d="M64.128,5.893c-0.202,0.317-0.405,0.646-0.617,0.997c0,0-10.542-3.003-21.348,4.165
				c12.222-3.33,15.675,1.386,15.675,1.386l8.282-3.648L64.128,5.893z"/>
			<path fill="#8C4438" d="M85.343,35.584c0,0,3.179,5.872,2.981,7.573c3.773-3.648,4.717-13.402,4.717-13.402
				S84.315,31.062,85.343,35.584z"/>
			<path fill="#8C4438" d="M90.663,36.025c0,0,2.92,8.192,2.725,9.893c5.814-6.068,4.852-15.543,4.852-15.543
				S89.635,31.501,90.663,36.025z"/>
			<path fill="#8C4438" d="M42.005,34.126c0,0-5.388,5.432-5.757,7.104c-2.38-4.677-0.098-14.208-0.098-14.208
				S44.448,30.183,42.005,34.126z"/>
			<path fill="#8C4438" d="M36.359,33.725c0,0-5.428,6.796-5.796,8.468c-3.524-7.631,0.47-16.275,0.47-16.275
				S38.802,29.783,36.359,33.725z"/>
		</g>
	</g>
</g>
</svg>
