<?xml version="1.0" encoding="utf-8"?>
<!-- Generator: Adobe Illustrator 16.0.0, SVG Export Plug-In . SVG Version: 6.00 Build 0)  -->
<!DOCTYPE svg PUBLIC "-//W3C//DTD SVG 1.1//EN" "http://www.w3.org/Graphics/SVG/1.1/DTD/svg11.dtd">
<svg version="1.1" id="Calque_1" xmlns="http://www.w3.org/2000/svg" xmlns:xlink="http://www.w3.org/1999/xlink" x="0px" y="0px"
	 width="269.074px" height="50.285px" viewBox="0 0 269.074 50.285" enable-background="new 0 0 269.074 50.285"
	 xml:space="preserve">
<line fill="none" stroke="#A25552" stroke-width="2" stroke-miterlimit="10" x1="13.229" y1="0.076" x2="11.624" y2="21.076"/>
<line fill="none" stroke="#A25552" stroke-width="2" stroke-miterlimit="10" x1="42.463" y1="0.045" x2="42.389" y2="21.107"/>
<line fill="none" stroke="#A25552" stroke-width="2" stroke-miterlimit="10" x1="147.464" y1="0.045" x2="147.39" y2="21.107"/>
<line fill="none" stroke="#A25552" stroke-width="2" stroke-miterlimit="10" x1="110.463" y1="0.045" x2="110.389" y2="21.107"/>
<line fill="none" stroke="#A25552" stroke-width="2" stroke-miterlimit="10" x1="74.463" y1="0.045" x2="74.389" y2="21.107"/>
<polygon fill="#FEFCEC" points="24.479,49.076 -0.021,49.076 -0.021,19.159 11.624,14.243 24.479,18.909 "/>
<g enable-background="new    ">
	<path fill="#D67563" d="M17.644,39.296c-1.344,0.945-2.981,1.406-4.619,1.406c-4.325,0-7.538-3.17-7.538-7.516
		c0-4.473,3.107-7.601,7.433-7.601c1.722,0,3.422,0.568,4.745,1.679l-1.176,1.869c-0.882-0.756-2.331-1.238-3.485-1.238
		c-2.834,0-4.703,2.268-4.703,5.164c0,2.771,1.911,5.334,4.619,5.334c1.848,0,2.771-0.441,3.653-0.945L17.644,39.296z"/>
</g>
<line fill="none" stroke="#A25552" stroke-width="2" stroke-miterlimit="10" x1="217.229" y1="0.076" x2="215.625" y2="21.076"/>
<polygon fill="#FEFCEC" points="230.479,49.076 203.979,49.076 203.979,19.159 215.625,14.243 230.479,18.909 "/>
<g enable-background="new    ">
	<path fill="#D67563" d="M217.228,25.586c4.703,0,7.789,3.318,7.789,7.558c0,4.242-3.381,7.559-7.789,7.559
		c-4.41,0-7.79-3.148-7.79-7.559C209.438,28.904,212.902,25.586,217.228,25.586z M217.228,38.519c3.002,0,4.976-2.498,4.976-5.375
		c0-3.086-1.974-5.375-4.976-5.375c-2.436,0-4.977,1.996-4.977,5.375C212.251,36.316,214.225,38.519,217.228,38.519z"/>
</g>
<polygon fill="#F2F1DB" points="53.185,50.285 31.229,49.076 31.229,18.659 41.479,14.243 53.185,18.076 "/>
<g enable-background="new    ">
	<path fill="#CA6358" d="M37.306,25.88h4.598c3.506,0,4.934,1.889,4.934,4.199c0,1.848-1.113,3.17-2.813,3.779l4.136,5.416
		l-2.394,1.428l-4.031-5.605c-0.252-0.357-0.567-0.504-0.966-0.504h-0.84L39.91,40.41h-2.75L37.306,25.88z M41.631,32.41
		c0.798,0,2.394-0.357,2.394-2.246c0-1.387-1.092-2.1-2.457-2.1h-1.554l-0.042,4.346H41.631z"/>
</g>
<polygon fill="#FEFCEC" points="85.729,49.076 62.104,49.66 62.104,18.909 73.979,13.909 83.979,18.076 "/>
<g enable-background="new    ">
	<path fill="#D67563" d="M70.472,25.88h7.769v2.309h-5.081l-0.042,3.738h5.039v2.184h-5.06l-0.021,3.988h5.165v2.311h-7.916
		L70.472,25.88z"/>
</g>
<polygon fill="#FEFCEC" points="158.729,49.076 135.104,49.66 135.104,18.909 146.979,13.909 156.979,18.076 "/>
<g enable-background="new    ">
	<path fill="#D67563" d="M145.655,28.189h-4.073l0.021-2.309h10.771l-0.021,2.309h-4.011l-0.104,12.221h-2.688L145.655,28.189z"/>
</g>
<polygon fill="#F2F1DB" points="124.02,49.076 99.063,49.076 99.773,18.909 110.062,13.909 122.364,18.076 "/>
<g enable-background="new    ">
	<path fill="#CA6358" d="M106.852,40.703l-2.499-0.756l5.585-14.066h2.478l5.186,14.066l-2.625,0.756l-1.428-4.156h-5.06
		L106.852,40.703z M111.135,28.693h-0.042l-1.827,5.67h3.548L111.135,28.693z"/>
</g>
<line fill="none" stroke="#A25552" stroke-width="2" stroke-miterlimit="10" x1="254.464" y1="0.045" x2="254.39" y2="21.107"/>
<polygon fill="#F2F1DB" points="269.074,49.076 242.063,49.076 242.832,18.909 253.968,13.909 267.28,18.076 "/>
<g enable-background="new    ">
	<path fill="#CA6358" d="M249.71,26.341l2.498-0.755l6.781,11.128h0.043l-0.168-10.834h2.688l-0.127,14.066l-2.708,0.756
		l-6.614-11.064l-0.041,0.043l0.209,10.729h-2.688L249.71,26.341z"/>
</g>
<line fill="none" stroke="#A25552" stroke-width="2" stroke-miterlimit="10" x1="179.464" y1="0.045" x2="179.39" y2="21.107"/>
<polygon fill="#F2F1DB" points="193.021,49.076 168.063,49.076 168.772,18.909 179.062,13.909 191.364,18.076 "/>
<g enable-background="new    ">
	<path fill="#CA6358" d="M178.699,25.88h2.688l-0.127,14.529h-2.688L178.699,25.88z"/>
</g>
</svg>
