<?xml version="1.0" encoding="utf-8"?>
<!-- Generator: Adobe Illustrator 16.0.0, SVG Export Plug-In . SVG Version: 6.00 Build 0)  -->
<!DOCTYPE svg PUBLIC "-//W3C//DTD SVG 1.1//EN" "http://www.w3.org/Graphics/SVG/1.1/DTD/svg11.dtd">
<svg version="1.1" id="Calque_1" xmlns="http://www.w3.org/2000/svg" xmlns:xlink="http://www.w3.org/1999/xlink" x="0px" y="0px"
	 width="269.073px" height="50.284px" viewBox="0 0 269.073 50.284" enable-background="new 0 0 269.073 50.284"
	 xml:space="preserve">
<g>
	<line fill="#A25552" stroke="#A25552" stroke-width="2" stroke-miterlimit="10" x1="13.229" y1="0.076" x2="11.624" y2="21.076"/>
	<line fill="#A25552" stroke="#A25552" stroke-width="2" stroke-miterlimit="10" x1="42.463" y1="0.045" x2="42.389" y2="21.107"/>
	<line fill="#A25552" stroke="#A25552" stroke-width="2" stroke-miterlimit="10" x1="147.464" y1="0.045" x2="147.39" y2="21.107"/>
	
		<line fill="#A25552" stroke="#A25552" stroke-width="2" stroke-miterlimit="10" x1="110.463" y1="0.045" x2="110.389" y2="21.107"/>
	<line fill="#A25552" stroke="#A25552" stroke-width="2" stroke-miterlimit="10" x1="74.463" y1="0.045" x2="74.389" y2="21.107"/>
	<polygon fill="#FEFCEC" points="24.479,49.075 -0.021,49.075 -0.021,19.159 11.624,14.243 24.479,18.909 	"/>
	<text transform="matrix(1 0 0 1 3.9756 40.4092)" fill="#D67563" font-family="'SyntaxLTStd-Bold'" font-size="21">C</text>
	
		<line fill="#A25552" stroke="#A25552" stroke-width="2" stroke-miterlimit="10" x1="217.229" y1="0.076" x2="215.624" y2="21.076"/>
	<polygon fill="#FEFCEC" points="230.479,49.075 203.979,49.075 203.979,19.159 215.624,14.243 230.479,18.909 	"/>
	<text transform="matrix(1 0 0 1 208.4932 40.4092)" fill="#D67563" font-family="'SyntaxLTStd-Bold'" font-size="21">O</text>
	<polygon fill="#F2F1DB" points="53.185,50.284 31.229,49.075 31.229,18.659 41.479,14.243 53.185,18.076 	"/>
	<text transform="matrix(1 0 0 1 35.5635 40.4092)" fill="#CA6358" font-family="'SyntaxLTStd-Bold'" font-size="21">R</text>
	<polygon fill="#FEFCEC" points="85.729,49.075 62.104,49.659 62.104,18.909 73.979,13.909 83.979,18.076 	"/>
	<text transform="matrix(1 0 0 1 68.729 40.4092)" fill="#D67563" font-family="'SyntaxLTStd-Bold'" font-size="21">E</text>
	<polygon fill="#FEFCEC" points="158.729,49.075 135.104,49.659 135.104,18.909 146.979,13.909 156.979,18.076 	"/>
	<text transform="matrix(1 0 0 1 141.1406 40.4092)" fill="#D67563" font-family="'SyntaxLTStd-Bold'" font-size="21">T</text>
	<polygon fill="#F2F1DB" points="124.02,49.075 99.063,49.075 99.773,18.909 110.062,13.909 122.364,18.076 	"/>
	<text transform="matrix(1 0 0 1 103.9756 40.4092)" fill="#CA6358" font-family="'SyntaxLTStd-Bold'" font-size="21">A</text>
	<line fill="#A25552" stroke="#A25552" stroke-width="2" stroke-miterlimit="10" x1="254.464" y1="0.045" x2="254.39" y2="21.107"/>
	<polygon fill="#F2F1DB" points="269.073,49.075 242.063,49.075 242.831,18.909 253.968,13.909 267.28,18.076 	"/>
	<text transform="matrix(1 0 0 1 247.9883 40.4092)" fill="#CA6358" font-family="'SyntaxLTStd-Bold'" font-size="21">N</text>
	<line fill="#A25552" stroke="#A25552" stroke-width="2" stroke-miterlimit="10" x1="179.464" y1="0.045" x2="179.39" y2="21.107"/>
	<polygon fill="#F2F1DB" points="193.021,49.075 168.063,49.075 168.772,18.909 179.062,13.909 191.364,18.076 	"/>
	<text transform="matrix(1 0 0 1 177.0605 40.4092)" fill="#CA6358" font-family="'SyntaxLTStd-Bold'" font-size="21">I</text>
</g>
</svg>
