<?xml version="1.0" encoding="utf-8"?>
<!-- Generator: Adobe Illustrator 16.0.0, SVG Export Plug-In . SVG Version: 6.00 Build 0)  -->
<!DOCTYPE svg PUBLIC "-//W3C//DTD SVG 1.1//EN" "http://www.w3.org/Graphics/SVG/1.1/DTD/svg11.dtd">
<svg version="1.1" id="Calque_1" xmlns="http://www.w3.org/2000/svg" xmlns:xlink="http://www.w3.org/1999/xlink" x="0px" y="0px"
	 width="190px" height="190px" viewBox="0 0 190 190" enable-background="new 0 0 190 190" xml:space="preserve">
<rect opacity="0.14" fill="none" width="190" height="190"/>
<path opacity="0.14" fill="#45AA86" d="M202.881,148.436c-2.938,10.09-18.518,22.258-18.518,22.258s-15.58-12.168-18.518-22.258
	c-0.309-0.968-0.477-1.996-0.477-3.066c0-5.594,4.535-10.128,10.13-10.128c4.248,0,7.515,2.616,8.843,6.321
	c0.006,0.004,0.021,0.008,0.021,0.008s0.015-0.004,0.02-0.008c1.328-3.705,4.596-6.321,8.844-6.321
	c5.594,0,10.131,4.534,10.131,10.128C203.355,146.439,203.188,147.468,202.881,148.436L202.881,148.436z"/>
<path opacity="0.14" fill="#45AA86" d="M12.948,148.436C10.01,158.523-5.57,170.693-5.57,170.693s-15.579-12.17-18.518-22.258
	c-0.307-0.969-0.475-1.996-0.475-3.067c0-5.595,4.536-10.128,10.131-10.128c4.247,0,7.514,2.615,8.843,6.322
	c0.005,0.002,0.019,0.006,0.019,0.006s0.015-0.004,0.02-0.006c1.328-3.707,4.596-6.322,8.844-6.322
	c5.594,0,10.13,4.533,10.13,10.128C13.424,146.439,13.254,147.468,12.948,148.436L12.948,148.436z"/>
<path opacity="0.14" fill="#45AA86" d="M129.283,100.751l-20.701-23.288l7.764-10.35h25.875l7.762,10.35L129.283,100.751
	L129.283,100.751z M134.997,80.391l-5.714,0.953l-5.715-0.953l5.715,12.381L134.997,80.391L134.997,80.391z M135.104,77.786
	l1.938-0.323h-2.153L135.104,77.786L135.104,77.786z M137.801,79.924l-5.715,12.382l11.428-13.331L137.801,79.924L137.801,79.924z
	 M126.479,92.306l-5.713-12.382l-5.715-0.949L126.479,92.306L126.479,92.306z M114.67,76.321l6.85,1.142l1.941,0.324l0.215-0.324
	h-2.156l-3.326-5.543L114.67,76.321L114.67,76.321z M120.227,70.994l3.676,6.131l4.086-6.131H120.227L120.227,70.994z
	 M125.787,78.176l3.494,0.583l3.494-0.583l-3.494-5.24L125.787,78.176L125.787,78.176z M130.576,70.994l4.086,6.131l3.677-6.131
	H130.576L130.576,70.994z M140.372,71.918l-3.327,5.545l6.85-1.142L140.372,71.918L140.372,71.918z"/>
<path opacity="0.14" fill="#45AA86" d="M124.457,189.65h-3.07c-0.297,1.045-0.703,2.041-1.221,2.97l2.152,2.153
	c0.994,0.994,0.994,2.605,0,3.601l-1.801,1.8c-0.994,0.994-2.604,0.994-3.601,0l-2.151-2.152c-0.931,0.519-1.927,0.926-2.972,1.223
	v3.07c0,1.396-1.133,2.529-2.532,2.529h-2.531c-1.398,0-2.532-1.134-2.532-2.529v-3.07c-1.082-0.307-2.11-0.738-3.067-1.283
	l-2.215,2.212c-0.992,0.994-2.604,0.994-3.599,0l-1.8-1.799c-0.996-0.994-0.996-2.604,0-3.603l2.25-2.25
	c-0.491-0.899-0.876-1.863-1.162-2.871h-3.07c-1.399,0-2.534-1.133-2.534-2.532v-2.531c0-1.399,1.135-2.534,2.534-2.534h3.07
	c0.296-1.045,0.703-2.039,1.222-2.97l-2.311-2.312c-0.996-0.994-0.996-2.605,0-3.601l1.8-1.799c0.994-0.996,2.606-0.996,3.599,0
	l2.312,2.312c0.93-0.52,1.926-0.927,2.97-1.224v-3.069c0-1.398,1.135-2.533,2.532-2.533h2.531c1.399,0,2.532,1.135,2.532,2.533
	v3.069c1.007,0.286,1.972,0.671,2.872,1.161l2.251-2.25c0.995-0.996,2.606-0.996,3.601,0l1.801,1.799c0.994,0.994,0.994,2.605,0,3.6
	l-2.213,2.215c0.545,0.957,0.976,1.985,1.281,3.067h3.07c1.396,0,2.533,1.134,2.533,2.534v2.531
	C126.99,188.518,125.855,189.65,124.457,189.65L124.457,189.65z M107.996,178.253c-4.194,0-7.598,3.401-7.598,7.599
	c0,4.196,3.402,7.599,7.598,7.599s7.598-3.402,7.598-7.599C115.594,181.654,112.193,178.253,107.996,178.253L107.996,178.253z"/>
<path opacity="0.14" fill="#45AA86" d="M124.457-0.281h-3.07c-0.297,1.045-0.703,2.04-1.221,2.97l2.152,2.152
	c0.994,0.994,0.994,2.606,0,3.601l-1.801,1.8c-0.994,0.994-2.604,0.994-3.601,0l-2.151-2.152c-0.931,0.518-1.927,0.925-2.972,1.221
	v3.069c0,1.398-1.133,2.533-2.532,2.533h-2.531c-1.398,0-2.532-1.135-2.532-2.533V9.31c-1.082-0.306-2.11-0.737-3.067-1.281
	l-2.215,2.212c-0.992,0.994-2.604,0.994-3.599,0l-1.8-1.8c-0.996-0.994-0.996-2.606,0-3.6l2.25-2.252
	c-0.491-0.9-0.876-1.864-1.162-2.87h-3.07c-1.399,0-2.534-1.135-2.534-2.534v-2.531c0-1.399,1.135-2.534,2.534-2.534h3.07
	c0.296-1.045,0.703-2.04,1.222-2.969l-2.311-2.312c-0.996-0.995-0.996-2.606,0-3.601l1.8-1.8c0.994-0.995,2.606-0.995,3.599,0
	l2.312,2.312c0.93-0.52,1.926-0.927,2.97-1.224v-3.07c0-1.398,1.135-2.532,2.532-2.532h2.531c1.399,0,2.532,1.134,2.532,2.532v3.07
	c1.007,0.286,1.972,0.671,2.872,1.162l2.251-2.251c0.995-0.995,2.606-0.995,3.601,0l1.801,1.8c0.994,0.994,0.994,2.605,0,3.601
	l-2.213,2.212c0.545,0.958,0.976,1.986,1.281,3.068h3.07c1.396,0,2.533,1.133,2.533,2.534v2.531
	C126.99-1.416,125.855-0.281,124.457-0.281L124.457-0.281z M107.996-11.679c-4.194,0-7.598,3.401-7.598,7.599
	c0,4.194,3.402,7.596,7.598,7.596s7.598-3.401,7.598-7.596C115.594-8.277,112.193-11.679,107.996-11.679L107.996-11.679z"/>
<path opacity="0.14" fill="#45AA86" d="M64.917,130.768c-6.486,0-11.744-5.259-11.744-11.746v-13.42
	c0-6.486,5.258-11.746,11.744-11.746c6.488,0,11.744,5.259,11.744,11.746v13.42C76.659,125.509,71.404,130.768,64.917,130.768
	L64.917,130.768z M53.172,130.768v-11.746h23.487v11.746H53.172L53.172,130.768z M64.917,144.188c-1.853,0-3.356-1.504-3.356-3.355
	v-8.389h6.713v8.389C68.273,142.684,66.769,144.188,64.917,144.188L64.917,144.188z"/>
<path opacity="0.14" fill="#45AA86" d="M-5.613,50.363c-4.895,0-8.864-4.667-8.864-8.863c0-4.197,3.969-7.598,8.864-7.598
	s8.864,3.4,8.864,7.598C3.251,45.696-0.718,50.363-5.613,50.363L-5.613,50.363z M4.518,38.968c-1.571,0-3.166,1.266-3.166,1.266
	c-1.048,0-1.899-0.567-1.899-1.266c0,0,3.376-2.533,5.065-2.533c1.688,0,5.064,2.533,5.064,2.533
	C9.582,42.344,6.205,38.968,4.518,38.968L4.518,38.968z M14.647,50.363c-4.895,0-8.864-4.667-8.864-8.863
	c0-4.197,3.969-7.598,8.864-7.598s8.863,3.4,8.863,7.598C23.51,45.696,19.542,50.363,14.647,50.363L14.647,50.363z M-2.453,30.09
	c-1.054,0-1.907-1.131-1.907-2.525c0-1.396,0.853-2.525,1.907-2.525c1.052,0,1.906,1.13,1.906,2.525
	C-0.547,28.959-1.401,30.09-2.453,30.09L-2.453,30.09z M-14.477,40.233v-3.038l11.396-12.156h1.266L-14.477,40.233L-14.477,40.233z
	 M10.848,25.039h1.266L23.51,37.195v3.038L10.848,25.039L10.848,25.039z M11.488,30.09c-1.053,0-1.906-1.131-1.906-2.525
	c0-1.396,0.854-2.525,1.906-2.525c1.052,0,1.907,1.13,1.907,2.525C13.395,28.959,12.541,30.09,11.488,30.09L11.488,30.09z"/>
<path opacity="0.14" fill="#45AA86" d="M184.318,50.363c-4.895,0-8.863-4.667-8.863-8.863c0-4.197,3.97-7.598,8.863-7.598
	c4.896,0,8.865,3.4,8.865,7.598C193.184,45.696,189.215,50.363,184.318,50.363L184.318,50.363z M194.45,38.968
	c-1.571,0-3.166,1.266-3.166,1.266c-1.048,0-1.897-0.567-1.897-1.266c0,0,3.375-2.533,5.064-2.533c1.688,0,5.064,2.533,5.064,2.533
	C199.514,42.344,196.139,38.968,194.45,38.968L194.45,38.968z M204.579,50.363c-4.896,0-8.864-4.667-8.864-8.863
	c0-4.197,3.971-7.598,8.864-7.598c4.896,0,8.864,3.4,8.864,7.598C213.443,45.696,209.475,50.363,204.579,50.363L204.579,50.363z
	 M187.479,30.09c-1.054,0-1.906-1.131-1.906-2.525c0-1.396,0.854-2.525,1.906-2.525s1.905,1.13,1.905,2.525
	C189.385,28.959,188.531,30.09,187.479,30.09L187.479,30.09z M175.455,40.233v-3.038l11.396-12.156h1.267L175.455,40.233
	L175.455,40.233z M200.779,25.039h1.268l11.396,12.156v3.038L200.779,25.039L200.779,25.039z M201.42,30.09
	c-1.052,0-1.906-1.131-1.906-2.525c0-1.396,0.854-2.525,1.906-2.525c1.055,0,1.907,1.13,1.907,2.525
	C203.326,28.959,202.475,30.09,201.42,30.09L201.42,30.09z"/>
</svg>
