<?xml version="1.0" encoding="utf-8"?>
<!-- Generator: Adobe Illustrator 16.0.0, SVG Export Plug-In . SVG Version: 6.00 Build 0)  -->
<!DOCTYPE svg PUBLIC "-//W3C//DTD SVG 1.1//EN" "http://www.w3.org/Graphics/SVG/1.1/DTD/svg11.dtd">
<svg version="1.1" xmlns="http://www.w3.org/2000/svg" xmlns:xlink="http://www.w3.org/1999/xlink" x="0px" y="0px" width="176px"
	 height="315px" viewBox="0 0 176 315" enable-background="new 0 0 176 315" xml:space="preserve">
<g id="Base">
</g>
<g id="Shoes_noob">
</g>
<g id="chaussure1">
</g>
<g id="Calque_15">
</g>
<g id="Calque_20">
</g>
<g id="Shorts">
</g>
<g id="Jeans">
</g>
<g id="Calque_16">
</g>
<g id="Calque_13">
</g>
<g id="Calque_18">
</g>
<g id="Calque_11">
</g>
<g id="T-shirt_Noob">
</g>
<g id="classe">
</g>
<g id="pirate">
</g>
<g id="Calque_17">
</g>
<g id="paysan2">
</g>
<g id="Cheveux_1">
	<g>
		<path fill="#E16047" d="M101.844,57.58c0,0,4.05-1.504,4.05-4.892c0,0,4.564,4.656,3.251,6.406c0,0,18.999-1.75,20.482,18.486
			c0,0,9.27-12.574,8.391-25.41c-0.876-12.842-10.242-31.468-28.188-27.966c-3.509,0.686-7.51,0.481-8.561,2.762
			c-0.356,0.769-0.942,1.089-1.437,1.263c-2.403,0.836-4.239-0.687-5.273-1.106c-7.983-3.222-4.927,2.038-4.927,2.038
			s4.767,1.708,7.985,6.627C103.305,44.478,101.844,57.58,101.844,57.58z"/>
		<path fill="#E16047" d="M120.008,14.029c-2.455-0.369-8.753,6.894-8.753,6.894s4.049-8.751,2.409-11.05
			c-1.641-2.3-6.255-2.161-6.255-2.161c-2.84,0.399-0.767,5.662,0.499,8.367c-3.276-3.743-15.704-15.243-41.159-9.922
			c-31.143,6.509-46.406,58.717-26.95,86.855l45.376-48.376l5.252-5.256l9.113,13.935l6.994-27.242l5.925,0.762
			c0,0,10.064-6.677,11.378-7.553C125.151,18.406,121.755,14.292,120.008,14.029z"/>
		<path fill="#852F2E" d="M54.595,93.064c-3.062-0.126-5.522-4.053-5.522-8.892c0-2.104,0.468-4.034,1.247-5.561l-0.732-0.806
			c0,0-7.642,18.656-7.642,19.157c0,0.497-1.479-1.117,3.616,4.45c2.678,2.924,7.529,3.207,9.621,1.959
			C54.938,101.375,54.853,97.04,54.595,93.064z"/>
		<path fill="#E16047" d="M17.101,80.933c0,0,3.194,9.431-4.651,7.828C-3.579,85.485-0.267,103.26,9.906,99.893
			c6.133-2.03,12.645-5.24,13.947-20.03L17.101,80.933z"/>
		<path fill="#A63939" d="M27.52,38.501c0,0-3.251-2.839-5.714,0.896c-2.469,3.739-1.591,12.477,1.325,24.058
			c2.912,11.573,2.812,33.924-13.53,36.438c0,0,11.086-4.437,7.92-15.096c-2.542-8.559-20.762-37.9-12.298-52.749
			c5.485-9.625,20.586-8.623,25.721,2.598L27.52,38.501z"/>
		<path fill="#E16047" d="M30.133,33.111c0.009,0.017,0.02,0.035,0.031,0.051l0.686,1.591l-3.33,3.748c0,0-3.251-2.839-5.714,0.896
			c-1.484,2.249-1.753,6.313-1.101,11.706c-0.004-0.019-0.004-0.037-0.012-0.057C12.518,25.081,29.925,33.02,30.133,33.111z"/>
		<path fill="#F04544" d="M39.212,34.282c0,0-3.315-4.911-8.153-2.234c0,0-5.773,5.799-2.856,11.128
			c1.585,2.895,5.909,5.103,7.878,2.696C38.049,43.466,39.212,34.282,39.212,34.282z"/>
		<path fill="#A63939" d="M97.556,34.626c0,0-3.505-2.264,0-6.185c4.092-4.578-8.887-16.059-21.324-17.102
			c-0.555-0.004-1.107-0.012-1.683-0.012c-14.69,0-27.702,7.3-35.761,18.527c-4.177,8.034-6.831,17.328-7.703,26.692
			c-0.041,0.434-0.087,0.866-0.118,1.302c-0.082,1.09-0.128,2.176-0.161,3.262c0,0.035-0.002,0.073-0.004,0.112
			c-0.017,0.646-0.059,1.292-0.059,1.937c0.024,0.17,0.066,0.331,0.093,0.499c0.249,10.459,3.214,20.748,8.962,29.354
			c0.954-1.742,1.899-3.524,2.818-5.283c0.357,0.38,0.695,0.777,1.064,1.145l41.494-44.238l5.252-5.256l9.113,13.935l2.646-21.676
			C101.703,32.831,100.245,35.971,97.556,34.626z"/>
		<path fill="#A63939" d="M122.305,32.837c0,0-8.963-7.769-13.759-4.025l0.059-3.896c-1.929-3.346-5.205-3.593-5.526-0.166
			c-0.646,6.853-3.949,25.133-3.949,27.938l0.41,0.625l0.862,1.941l-0.68,2.529l2.172-0.224c0.459-0.185,3.892-0.782,3.892-3.948
			c0,0,1.715,1.495,2.482,3.126c0.145,0.618,0.294,1.244,0.453,1.89c0,0,2.143-7.25,5.353-7.105c3.209,0.146,7.2-2.357,8.111,11.095
			c0,0,4.417,3.215,6.152,8.399C130.395,77.174,141.367,52.723,122.305,32.837z"/>
		<path fill="#E16047" d="M91.186,35.359c0,0-2.911-0.619-7.026,0.171c0,0-6.458,4.223-8.739,7.606
			c-8.647,12.818-17.031,7.736-30.742,19.546c-14.895,12.83-8.646,26.127-4.259,33.287c3.231,4.387,4.112-1.094,4.112-1.094h0.003
			c0.282-3,1.832-6.205,5.881-9.15c0,0,8.76-3.325,19.137-8.993c12.173-6.649,12.688-10.487,15.029-16.632
			c0,0,6.883-4.675,12.635-1.541c1.554,0.849,3.435-0.957,3.435-0.957s-1.802-10.963-5.349-17.563
			C94.196,37.982,92.779,35.682,91.186,35.359z"/>
		<path fill="#852F2E" d="M96.946,58.396c0,0-1.502-6.535-2.444-9.033c-0.615-1.63-0.598-2.934-2.555-3.497
			c0,0-2.144-1.542-3.432,1.033c-1.559,3.116-2.476,7.335-3.935,13.141C84.581,60.039,88.093,57.669,96.946,58.396z"/>
		<path fill="none" stroke="#A63939" stroke-miterlimit="10" d="M42.675,90.859c-5.262-11.653,10.248-19.097,10.248-19.097
			s21.101-9.08,24.718-19.099"/>
		<path fill="none" stroke="#E26147" stroke-linecap="round" stroke-miterlimit="10" d="M11.704,29.372
			c0,0-7.267,2.527-5.126,15.057"/>
		<path fill="none" stroke="#E26147" stroke-linecap="round" stroke-miterlimit="10" d="M8.564,40.027c0,0,0.113,0.982,0.762,2.95"
			/>
		<path fill="#E16047" d="M120.373,63.256c1.093,1.53,1.754-1.671,1.756-1.675c0.239-6.127,1.196-13.23-3.665-16.365
			c-0.814-0.526-4.129-1.141-5.118-1.282c0,0-4.772,1.287-4.626,14.271c0,0-0.42,1.416,2.135,1.309
			c2.381-0.097,4.882-4.702,8.64,2.028C119.905,61.023,119.946,62.658,120.373,63.256z"/>
		<path fill="#852F2E" d="M109.354,59.314c0,0,1.142-7.543,4.701-8.095c0.809-0.126,3.506,0.993,3.982,1.503
			c1.711,1.834,2.591,2.886,2.042,9.895C120.079,62.617,118.876,60.039,109.354,59.314z"/>
	</g>
</g>
<g id="Calque_19">
</g>
<g id="Calque_7">
</g>
<g id="Cheveux_1_1_">
</g>
</svg>
