<?xml version="1.0" encoding="utf-8"?>
<!-- Generator: Adobe Illustrator 16.0.0, SVG Export Plug-In . SVG Version: 6.00 Build 0)  -->
<!DOCTYPE svg PUBLIC "-//W3C//DTD SVG 1.1//EN" "http://www.w3.org/Graphics/SVG/1.1/DTD/svg11.dtd">
<svg version="1.1" id="Calque_1" xmlns="http://www.w3.org/2000/svg" xmlns:xlink="http://www.w3.org/1999/xlink" x="0px" y="0px"
	 width="176px" height="315px" viewBox="0 0 176 315" enable-background="new 0 0 176 315" xml:space="preserve">
<g id="Base">
</g>
<g id="Shoes_noob">
</g>
<g id="Shorts">
</g>
<g id="T-shirt_Noob">
</g>
<g id="Cheveux_1">
</g>
<g id="Calque_7">
</g>
<g id="Calque_4">
	<path fill="#B7473B" d="M98.793,10.751c0,0,2.876-4.639,3.125-7.125c0.25-2.5-2.602-6.694-10.738,6.875
		c0,0-24.283-6.943-42.998,17.495C32,49.127,39.463,66.348,42.38,75.153c4.415,8.734,11.369,12.794,11.369,12.794
		c-0.858-21.011,8.274-30.494,8.274-30.494c-0.222,3.114-0.137,6.838,3.1,10.756c1.604,0.605-2.898-8.583,6.292-17.166
		c-5.954,10.028,1.416,17.926,4.374,20.068c1.253-6.873,0.009-18.474,5.004-24.735c0.824-1.033,2.764,1.261,3.875,0.369
		c-4.646,5.461-0.372,23.304,6.625,30.87c1.062-0.596,10.555-8.356,13.693-25.596c0.445-2.44,4.47,2.703,4.934-0.26
		c6.488,18.64-7.283,29.027-1.345,27.289c8.675-3.116,10.174-4.528,11.757-7.86l0.843-2.955c0.064-0.619,0.413-0.532,0.548-0.17
		l0.438,1.262c0.001,0,7.449,1.615,7.48,13.926c1.805,1.788,4.346-2.455,4.346-2.455s10.058-10.814,9.899-22.992
		C143.742,46.496,142.168,13.251,98.793,10.751z"/>
	<path fill="#7D3332" d="M104.691,53.521c0,0,2.217-8.535,3.767-8.064c3.622,1.1,3.251,14.681,3.251,14.681
		C109.92,53.799,105.938,53.573,104.691,53.521z"/>
	<path fill="#7D3332" d="M121.176,68.233c0,0,2.583-4.857-0.025-13.81c-0.668-1.293,3.863,0.972,4.461,1.452
		c6.757,5.422,5.728,16.349,2.871,20.068C126.498,71.975,121.975,70.013,121.176,68.233z"/>
	<path fill="#7D3332" d="M74.019,32.709c0,0,5.52-8.99,14.345-8.657c5.596,0.99,6.034,4.579,6.034,4.579s2.729-5.606,7.229-4.598
		c4.5,1.008,6.941,2.509,12.639,10.771c0,0,1.402-7.179-4.098-12.554c-7.712-7.537-11.643-8.933-16.75-8.808
		C93.418,13.443,82.418,10.001,74.019,32.709z"/>
	<path fill="#7D3332" d="M83.126,50.542c0,0,4.193-9.436,2.5-9.799c-3.653-0.784-6.667,6.799-7.67,11.619
		C79.669,51.542,81.237,50.794,83.126,50.542z"/>
	<path fill="#7D3332" d="M66.479,42.274c0,0-10.202,16.389-20.186,10.088c-9.25-5.838,2.615-24.915,3.053-25.819
		c-0.389,0.478-0.778,0.949-1.164,1.453C32,49.127,39.463,66.348,42.38,75.153c4.415,8.734,11.369,12.794,11.369,12.794
		c-0.777-19.028,6.64-28.603,8.046-30.238C62.133,47.76,66.479,42.274,66.479,42.274z"/>
	<path fill="#7D3332" d="M133.989,80.796c0,0,10.057-10.814,9.899-22.992c-0.057-4.297-0.33-11.592-2.908-19.206l-0.172-0.478
		c0,0,4.094,17.394-6.516,19.125c-10,1.631-15.667-12.536-15.667-12.536c3.896,9.168,3.101,22.01,3.101,22.01
		c-0.099,0.345-0.18,0.702-0.246,1.07c0.094,0.025,0.186,0.123,0.242,0.273l0.438,1.262c0.001,0,7.449,1.615,7.48,13.926
		C131.448,85.039,133.989,80.796,133.989,80.796z"/>
	<path fill="#7D3332" d="M92.126,10.626c0,0-0.083-7.333-3-8.083s-3.417,5.667,0.583,9.5S92.126,10.626,92.126,10.626z"/>
	<path fill="#7D3332" d="M103.626,19.376c0,0,7.08-6.481,17.457-3.407c-8.623-5.426-24.117-7.458-30.37-2.525
		C96.626,18.209,103.626,19.376,103.626,19.376z"/>
	<path fill="#7D3332" d="M98.793,10.751c0,0,2.876-4.639,3.125-7.125c0.25-2.5-2.602-6.694-10.738,6.875c0,0-0.13-0.036-0.355-0.091
		c0.666,2.194,1.402,4.602,1.611,5.216c0.26,0.76,5.097-2.353,8.578-4.715C100.284,10.849,99.546,10.794,98.793,10.751z"/>
	<path fill="#7D3332" d="M92.07,9.056c-0.291,0.46-0.586,0.936-0.891,1.445c0,0-15.273-4.351-30.931,6.033
		c17.708-4.825,22.711,2.008,22.711,2.008l12-5.285L92.07,9.056z"/>
	<path fill="#B7473B" d="M122.807,52.072c0,0,4.604,8.506,4.319,10.971c5.467-5.285,6.833-19.417,6.833-19.417
		S121.318,45.519,122.807,52.072z"/>
	<path fill="#B7473B" d="M130.514,52.71c0,0,4.229,11.868,3.946,14.333c8.425-8.792,7.03-22.519,7.03-22.519
		S129.025,46.156,130.514,52.71z"/>
	<path fill="#B7473B" d="M60.019,49.96c0,0-7.806,7.869-8.341,10.292c-3.449-6.776-0.141-20.584-0.141-20.584
		S63.558,44.247,60.019,49.96z"/>
	<path fill="#B7473B" d="M51.839,49.379c0,0-7.862,9.846-8.397,12.269c-5.104-11.056,0.683-23.581,0.683-23.581
		S55.378,43.667,51.839,49.379z"/>
</g>
</svg>
