<?xml version="1.0" encoding="utf-8"?>
<!-- Generator: Adobe Illustrator 16.0.0, SVG Export Plug-In . SVG Version: 6.00 Build 0)  -->
<!DOCTYPE svg PUBLIC "-//W3C//DTD SVG 1.1//EN" "http://www.w3.org/Graphics/SVG/1.1/DTD/svg11.dtd">
<svg version="1.1" id="Calque_1" xmlns="http://www.w3.org/2000/svg" xmlns:xlink="http://www.w3.org/1999/xlink" x="0px" y="0px"
	 width="89px" height="73px" viewBox="0 0 89 73" enable-background="new 0 0 89 73" xml:space="preserve">
<ellipse fill="#E9B4A9" cx="44.5" cy="62.353" rx="32.289" ry="7.362"/>
<g>
	<path fill="#7E3C2F" d="M17.704,46.925c0,0-3.245,11.9,0.646,13.085c0,0,8.957,2.936,19.519-0.104
		c0.303-0.088,1.306-0.559,1.655-1.327c0,0,2.384-7.364,0.054-10.104C37.249,45.732,17.704,46.925,17.704,46.925z"/>
	<path fill="#C65E4C" d="M41.081,29.097c0,0-1.607,4.114-1.217,7.135c0.58,4.482,0.88,11.452-0.396,13.333
		c-1.704,2.508-4.116,2.631-6.937,3.121c-2.003,0.347-10.318,1.609-13.966-0.67c-1.508-0.942-1.653-2.272-1.977-4.738
		c0,0-1.092-8.375,3.144-10.35c3.601-1.677,5.051,0.182,7.08-0.577c2.208-0.828,2.61-1.553,2.462-4.805
		C29.184,29.521,41.081,29.097,41.081,29.097z"/>
	<path opacity="0.6" fill="#774C39" enable-background="new    " d="M30.11,40.273c0,0-0.423-0.455-1.465-0.948
		c0.333-0.21,0.636-0.369,0.866-0.445c0.847-0.282,0.133-0.688,0.133-0.688s-0.273-0.161-0.712-0.401
		c-0.438-0.24-1.249,0.217-1.249,0.217c-0.366,0.209-0.696,0.417-0.996,0.62c-0.351-0.09-0.731-0.175-1.146-0.25
		c0,0-0.916-0.157-1.249,0.216c-0.333,0.374-0.535,0.617-0.535,0.617s-0.536,0.622,0.357,0.603c0.243-0.004,0.581,0.043,0.966,0.127
		c-0.815,0.817-1.062,1.388-1.062,1.388c-0.298,0.567,0.113,0.892,0.113,0.892s0.21,0.131,0.665,0.318
		c0.456,0.188,0.787-0.229,1.222-0.791c0.258-0.391,0.616-0.785,1.009-1.159c0.496,0.22,0.966,0.472,1.342,0.751
		c0.597,0.385,1.048,0.665,1.415,0.336c0.367-0.331,0.521-0.523,0.521-0.523S30.583,40.708,30.11,40.273z"/>
	<path fill="#E3E5E6" d="M31.706,13.73c0,0-1.642,0.189-2.365,0.883c-0.738,0.711-0.895,2.182-0.801,4.184
		c0.093,2.004,0.192,12.193,0.736,12.75c1.172,1.2,7.12,3.516,10.799,1.116c0,0,4.822-14.676,1.732-18.174
		c-0.788-0.896-1.247-1.042-2.868-1.096c0,0-0.222,1.362-0.455,2.061c-0.391,1.165-1.084,1.908-2.828,1.848
		C33.588,17.229,31.368,17.331,31.706,13.73z"/>
	<path opacity="0.5" fill="none" stroke="#A8A19E" stroke-linecap="round" stroke-miterlimit="10" enable-background="new    " d="
		M31.674,17.989c0,0-1.08,8.162-0.034,12.259"/>
	<path opacity="0.5" fill="none" stroke="#A8A19E" stroke-linecap="round" stroke-miterlimit="10" enable-background="new    " d="
		M35.145,18.722c0,0-1.081,8.16-0.034,12.255"/>
	<path opacity="0.5" fill="none" stroke="#A8A19E" stroke-linecap="round" stroke-miterlimit="10" enable-background="new    " d="
		M38.485,18.662c0,0,1.017,5.931-0.504,12.088"/>
	<path fill="#EDECDA" d="M25.455,37.879c0,0-0.916-0.156-1.249,0.217c-0.333,0.372-0.534,0.617-0.534,0.617s-0.536,0.62,0.356,0.602
		c0.894-0.018,3.055,0.627,4.254,1.526c0.597,0.384,1.049,0.663,1.416,0.335c0.367-0.332,0.52-0.525,0.52-0.525
		s0.279-0.443-0.194-0.877C30.024,39.773,28.829,38.479,25.455,37.879z"/>
	<path fill="#EDECDA" d="M27.598,37.509c0,0,0.811-0.457,1.248-0.217c0.439,0.24,0.713,0.401,0.713,0.401s0.714,0.404-0.134,0.688
		C28.578,38.665,26.76,40,25.932,41.25c-0.434,0.562-0.765,0.979-1.22,0.792c-0.456-0.188-0.667-0.319-0.667-0.319
		s-0.411-0.324-0.112-0.892C23.933,40.83,24.623,39.207,27.598,37.509z"/>
	<path fill="none" stroke="#563328" stroke-linecap="round" stroke-miterlimit="10" d="M20.544,53.907c0,0-0.297,2.315,0.227,4.866"
		/>
	<path fill="none" stroke="#563328" stroke-linecap="round" stroke-miterlimit="10" d="M24.029,54.461c0,0-0.294,2.4,0.235,5.045"/>
	<path fill="none" stroke="#563328" stroke-linecap="round" stroke-miterlimit="10" d="M28.026,54.811c0,0-0.293,2.402,0.235,5.047"
		/>
	<path fill="none" stroke="#563328" stroke-linecap="round" stroke-miterlimit="10" d="M31.491,54.648c0,0-0.293,2.4,0.235,5.047"/>
	<path fill="none" stroke="#563328" stroke-linecap="round" stroke-miterlimit="10" d="M35.393,54.227c0,0-0.305,2.123,0.208,4.455"
		/>
	<path fill="#7E3C2F" d="M71.264,47.154c0,0,3.283,12.221-0.582,13.4c0,0-9.324,2.435-19.826-0.805
		c-0.301-0.092-1.295-0.583-1.631-1.357c0,0-2.242-7.408,0.141-10.104C51.745,45.592,71.264,47.154,71.264,47.154z"/>
	<path fill="#C65E4C" d="M48.229,28.887c0,0,1.528,4.145,1.08,7.157c-0.664,4.47-1.136,11.991,0.106,13.897
		c1.655,2.539,4.103,2.15,6.912,2.692c1.997,0.384,10.282,1.804,13.978-0.405c1.523-0.912,1.695-2.239,2.064-4.698
		c0,0,1.252-8.354-2.946-10.406c-3.567-1.746-5.055,0.085-7.067-0.713c-2.191-0.87-2.578-1.603-2.371-4.85
		C60.115,29.536,48.229,28.887,48.229,28.887z"/>
	<path opacity="0.6" fill="#774C39" enable-background="new    " d="M58.984,40.27c0,0,0.433-0.444,1.482-0.92
		c-0.328-0.217-0.63-0.381-0.857-0.461c-0.842-0.3-0.119-0.69-0.119-0.69s0.275-0.157,0.717-0.388c0.443-0.23,1.245,0.24,1.245,0.24
		c0.36,0.217,0.688,0.43,0.983,0.639c0.353-0.084,0.733-0.16,1.15-0.228c0,0,0.919-0.14,1.244,0.24
		c0.326,0.379,0.523,0.628,0.523,0.628s0.523,0.631-0.369,0.595c-0.241-0.01-0.582,0.032-0.967,0.11
		c0.799,0.83,1.032,1.406,1.032,1.406c0.289,0.572-0.129,0.891-0.129,0.891s-0.212,0.126-0.672,0.304
		c-0.459,0.181-0.78-0.243-1.205-0.812c-0.25-0.396-0.603-0.798-0.987-1.179c-0.498,0.209-0.976,0.453-1.354,0.726
		c-0.604,0.373-1.062,0.646-1.421,0.31c-0.359-0.337-0.512-0.533-0.512-0.533S58.505,40.695,58.984,40.27z"/>
	<path fill="#E3E5E6" d="M57.895,13.7c0,0,1.638,0.221,2.349,0.929c0.725,0.725,0.853,2.199,0.722,4.199
		c-0.132,2.001-0.425,12.187-0.979,12.733c-1.194,1.177-7.186,3.381-10.818,0.911c0,0-4.541-14.765-1.389-18.204
		c0.806-0.88,1.269-1.019,2.89-1.042c0,0,0.192,1.365,0.415,2.069c0.368,1.171,1.049,1.928,2.791,1.902
		C55.945,17.163,58.161,17.307,57.895,13.7z"/>
	<path opacity="0.5" fill="none" stroke="#A8A19E" stroke-linecap="round" stroke-miterlimit="10" enable-background="new    " d="
		M57.846,17.959c0,0,0.924,8.181-0.201,12.257"/>
	<path opacity="0.5" fill="none" stroke="#A8A19E" stroke-linecap="round" stroke-miterlimit="10" enable-background="new    " d="
		M54.359,18.627c0,0,0.926,8.179-0.198,12.253"/>
	<path opacity="0.5" fill="none" stroke="#A8A19E" stroke-linecap="round" stroke-miterlimit="10" enable-background="new    " d="
		M51.021,18.502c0,0-1.131,5.91,0.273,12.097"/>
	<path fill="#EDECDA" d="M63.686,37.964c0,0,0.92-0.138,1.242,0.241c0.328,0.379,0.523,0.628,0.523,0.628s0.523,0.63-0.368,0.594
		c-0.894-0.034-3.063,0.569-4.283,1.446c-0.604,0.369-1.062,0.645-1.419,0.309c-0.363-0.339-0.511-0.533-0.511-0.533
		s-0.271-0.451,0.21-0.875C59.08,39.773,60.299,38.499,63.686,37.964z"/>
	<path fill="#EDECDA" d="M61.55,37.552c0,0-0.801-0.472-1.243-0.239c-0.443,0.231-0.72,0.387-0.72,0.387s-0.722,0.391,0.12,0.689
		c0.842,0.301,2.633,1.67,3.438,2.935c0.424,0.571,0.748,0.993,1.205,0.815c0.461-0.18,0.674-0.306,0.674-0.306
		s0.418-0.317,0.129-0.892C65.15,40.943,64.491,39.309,61.55,37.552z"/>
	<path fill="none" stroke="#563328" stroke-linecap="round" stroke-miterlimit="10" d="M68.289,54.082c0,0,0.254,2.322-0.318,4.861"
		/>
	<path fill="none" stroke="#563328" stroke-linecap="round" stroke-miterlimit="10" d="M64.796,54.57c0,0,0.248,2.404-0.331,5.039"
		/>
	<path fill="none" stroke="#563328" stroke-linecap="round" stroke-miterlimit="10" d="M60.791,54.844c0,0,0.248,2.406-0.331,5.041"
		/>
	<path fill="none" stroke="#563328" stroke-linecap="round" stroke-miterlimit="10" d="M57.331,54.615c0,0,0.246,2.406-0.331,5.042"
		/>
	<path fill="none" stroke="#563328" stroke-linecap="round" stroke-miterlimit="10" d="M53.438,54.12c0,0,0.267,2.127-0.291,4.448"
		/>
</g>
</svg>
