<?xml version="1.0" encoding="utf-8"?>
<!-- Generator: Adobe Illustrator 16.0.0, SVG Export Plug-In . SVG Version: 6.00 Build 0)  -->
<!DOCTYPE svg PUBLIC "-//W3C//DTD SVG 1.1//EN" "http://www.w3.org/Graphics/SVG/1.1/DTD/svg11.dtd">
<svg version="1.1" xmlns="http://www.w3.org/2000/svg" xmlns:xlink="http://www.w3.org/1999/xlink" x="0px" y="0px" width="176px"
	 height="315px" viewBox="0 0 176 315" enable-background="new 0 0 176 315" xml:space="preserve">
<g id="Base">
</g>
<g id="Shoes_noob">
</g>
<g id="chaussure1">
</g>
<g id="Calque_15">
</g>
<g id="Calque_20">
</g>
<g id="Shorts">
</g>
<g id="Jeans">
</g>
<g id="Calque_16">
	<path fill="#9B6F61" d="M60.307,193.876c0,0,0.847,37.501,0,38.834s-1.007,3.552-1.007,3.552l1.007,2.615
		c0,0-3.347,1.834-3.014,2.5s5.873,7.158,7.103,7.162s4.051,2.162,8.808,0c5.423-3.329,5.589-9.496,5.589-9.496
		s-3.667-0.166-3.75-0.833s2.291-2.667,2.021-3.5s-2.021-2-2.021-2l5.742-31.21C80.785,201.5,66.307,193.056,60.307,193.876z"/>
	<path fill="#9B6F61" d="M122.946,193.876c0,0-0.847,37.501,0,38.834s1.007,3.552,1.007,3.552l-1.007,2.615
		c0,0,3.347,1.834,3.014,2.5s-5.873,7.158-7.103,7.162s-4.051,2.162-8.808,0c-5.423-3.329-5.589-9.496-5.589-9.496
		s3.667-0.166,3.75-0.833s-2.291-2.667-2.021-3.5s2.021-2,2.021-2l-5.742-31.21C102.468,201.5,116.946,193.056,122.946,193.876z"/>
	<path fill="#9B6F61" d="M80.785,201.5c0,0,18.008,2.623,25.008,0c11.333-2.623,17-4.633,17-4.633s3.332-10.992,0.333-15.491
		c-32.991,2.05-62.332,2.75-62.332,2.75s-0.18,11.16-0.333,13.417S80.785,201.5,80.785,201.5z"/>
</g>
<g id="Calque_13">
</g>
<g id="Calque_18">
</g>
<g id="Calque_11">
</g>
<g id="T-shirt_Noob">
</g>
<g id="classe">
</g>
<g id="pirate">
</g>
<g id="Calque_17">
</g>
<g id="paysan2">
</g>
<g id="Cheveux_1">
</g>
<g id="Calque_19">
</g>
<g id="Calque_7">
</g>
<g id="Cheveux_1_1_">
</g>
</svg>
