<?xml version="1.0" encoding="utf-8"?>
<!-- Generator: Adobe Illustrator 16.0.0, SVG Export Plug-In . SVG Version: 6.00 Build 0)  -->
<!DOCTYPE svg PUBLIC "-//W3C//DTD SVG 1.1//EN" "http://www.w3.org/Graphics/SVG/1.1/DTD/svg11.dtd">
<svg version="1.1" xmlns="http://www.w3.org/2000/svg" xmlns:xlink="http://www.w3.org/1999/xlink" x="0px" y="0px" width="176px"
	 height="315px" viewBox="0 0 176 315" enable-background="new 0 0 176 315" xml:space="preserve">
<g id="Base">
</g>
<g id="Shoes_noob">
</g>
<g id="chaussure1">
</g>
<g id="Calque_15">
</g>
<g id="Calque_20">
</g>
<g id="Shorts">
</g>
<g id="Jeans">
</g>
<g id="Calque_16">
</g>
<g id="Calque_13">
</g>
<g id="Calque_18">
</g>
<g id="Calque_11">
	<g>
		<path fill="#4F657F" d="M60.743,197.126c0,0-0.633,27.442-0.641,31.204c-0.008,3.761-2.206,42.285-2.127,46.044
			c8.216,3.028,16.922,5.422,21.064,1.129c0.738-13.029,1.961-37.39,2.471-40.832c0.51-3.443,2.068-34.425,2.068-34.425
			S74.364,194.626,60.743,197.126z"/>
		<path fill="#4F657F" d="M124.333,200.57c0,0-0.046,28.722-0.045,32.482c0.003,14.039,2.545,37.625,2.449,41.383
			c-8.23,2.987-16.949,5.339-21.069,1.024c-0.673-13.032-1.777-37.397-2.27-40.843c-0.492-3.446-1.898-34.435-1.898-34.435
			S110.721,196.485,124.333,200.57z"/>
		<path fill="#4F657F" d="M60.876,198.648c0,0-0.404-21.322,1.256-21.547s62.688,0,62.688,0l-0.487,23.469l-44.164,4.276
			L60.876,198.648z"/>
	</g>
</g>
<g id="T-shirt_Noob">
</g>
<g id="classe">
</g>
<g id="pirate">
</g>
<g id="Calque_17">
</g>
<g id="paysan2">
</g>
<g id="Cheveux_1">
</g>
<g id="Calque_19">
</g>
<g id="Calque_7">
</g>
<g id="Cheveux_1_1_">
</g>
</svg>
