<?xml version="1.0" encoding="utf-8"?>
<!-- Generator: Adobe Illustrator 16.0.0, SVG Export Plug-In . SVG Version: 6.00 Build 0)  -->
<!DOCTYPE svg PUBLIC "-//W3C//DTD SVG 1.1//EN" "http://www.w3.org/Graphics/SVG/1.1/DTD/svg11.dtd">
<svg version="1.1" xmlns="http://www.w3.org/2000/svg" xmlns:xlink="http://www.w3.org/1999/xlink" x="0px" y="0px" width="176px"
	 height="315px" viewBox="0 0 176 315" enable-background="new 0 0 176 315" xml:space="preserve">
<g id="Base">
</g>
<g id="Shoes_noob">
</g>
<g id="chaussure1">
</g>
<g id="Calque_15">
</g>
<g id="Calque_20">
</g>
<g id="Shorts">
</g>
<g id="Jeans">
</g>
<g id="Calque_16">
</g>
<g id="Calque_13">
</g>
<g id="Calque_18">
	<g>
		<path fill="#8D4539" d="M60.543,196.876c0,0-2.037,31-1.56,46.667c11.477,7.334,21.477,0,21.477,0s5.682-38.468,9.007-44.725
			C79.168,196.499,60.543,196.876,60.543,196.876z"/>
		<rect x="55.793" y="239.876" fill="#7F5B51" width="10" height="9"/>
		<path fill="#AA6944" d="M60.543,196.876c0,0-2.037,31-1.56,46.667c11.477,7.334,21.477,0,21.477,0s5.682-38.468,9.007-44.725
			C79.168,196.499,60.543,196.876,60.543,196.876z"/>
		<path fill="#8A483D" d="M61.527,246.066c0,0-3.089-14.806,3.408-15.357c9.365-0.795,12.633,13.123,5.113,19.006
			C62.53,255.599,61.527,246.066,61.527,246.066z"/>
		<path fill="#EEC1AB" d="M58.983,243.543c0,0-2.065-0.917-2.065-2.417s2.001-1,2.001-1l-0.009-2.25c0,0-4.033-0.375-4.638,3.375
			s-0.938,10.032-3.063,12.282c4.375,4.25,22.958,11.625,34.583,0c0-5.125-0.999-12.993-4.875-13.013
			C78.543,241.876,66.048,245.835,58.983,243.543z"/>
		<rect x="117.793" y="239.876" fill="#7F5B51" width="10" height="9"/>
		<path fill="#AA6944" d="M123.376,196.876c0,0,2.037,31,1.56,46.667c-11.477,7.334-21.477,0-21.477,0s-5.682-38.468-9.007-44.725
			C104.751,196.499,123.376,196.876,123.376,196.876z"/>
		<path fill="#8A483D" d="M122.392,246.066c0,0,3.089-14.806-3.408-15.357c-9.365-0.795-12.633,13.123-5.113,19.006
			C121.389,255.599,122.392,246.066,122.392,246.066z"/>
		<path fill="#EEC1AB" d="M124.936,243.543c0,0,2.065-0.917,2.065-2.417s-2.001-1-2.001-1l0.009-2.25c0,0,4.033-0.375,4.638,3.375
			s0.938,10.032,3.063,12.282c-4.375,4.25-22.958,11.625-34.583,0c0-5.125,0.999-12.993,4.875-13.013
			C105.376,241.876,117.871,245.835,124.936,243.543z"/>
		<path fill="#8A483D" d="M97.793,202.876h-14L60.307,199.8c0,0-0.763-14.424,0.487-15.674s60.934,0.25,63.842-2.75
			c1.658,4.75,0.653,19.953-0.97,20.227S97.793,202.876,97.793,202.876z"/>
	</g>
</g>
<g id="Calque_11">
</g>
<g id="T-shirt_Noob">
</g>
<g id="classe">
</g>
<g id="pirate">
</g>
<g id="Calque_17">
</g>
<g id="paysan2">
</g>
<g id="Cheveux_1">
</g>
<g id="Calque_19">
</g>
<g id="Calque_7">
</g>
<g id="Cheveux_1_1_">
</g>
</svg>
