<?xml version="1.0" encoding="utf-8"?>
<!-- Generator: Adobe Illustrator 16.0.0, SVG Export Plug-In . SVG Version: 6.00 Build 0)  -->
<!DOCTYPE svg PUBLIC "-//W3C//DTD SVG 1.1//EN" "http://www.w3.org/Graphics/SVG/1.1/DTD/svg11.dtd">
<svg version="1.1" xmlns="http://www.w3.org/2000/svg" xmlns:xlink="http://www.w3.org/1999/xlink" x="0px" y="0px" width="176px"
	 height="315px" viewBox="0 0 176 315" enable-background="new 0 0 176 315" xml:space="preserve">
<g id="Base">
</g>
<g id="Shoes_noob">
</g>
<g id="chaussure1">
</g>
<g id="Calque_15">
</g>
<g id="Calque_20">
</g>
<g id="Shorts">
</g>
<g id="Jeans">
</g>
<g id="Calque_16">
</g>
<g id="Calque_13">
	<g>
		<path fill="#665C50" d="M61.543,231.876c0,0-1.5,6.752,0,7.876s11.125,3.251,14.875,0c0,0,1.101-2.327,0-7.876
			S62.918,230.251,61.543,231.876z"/>
		<path fill="#665C50" d="M108.543,231.876c0,0-1.5,6.752,0,7.876s11.125,3.251,14.875,0c0,0,1.101-2.327,0-7.876
			S109.918,230.251,108.543,231.876z"/>
		<path fill="#7C7163" d="M60.167,197.159c0,0-6.442,9.218-4.991,11.384s3.471,6.333,2.461,7.333s-8.843,5.333-6.677,8.833
			s15.333,14.5,33.833,6.5c0,0,4.5-3.332,2-10.166s-6.167-2.834-5.167-5.167s11.464-10.134,7.042-16.076
			S60.167,197.159,60.167,197.159z"/>
		<path fill="#665C50" d="M58.668,217.501c0,0,14.75,6.375,21.5,0.75C80.293,223.001,71.793,227.751,58.668,217.501z"/>
		<path fill="#665C50" d="M81.668,210.501c0,0-14.75,6.375-21.5,0.75C60.043,216.001,70.474,217.376,81.668,210.501z"/>
		<path fill="#7C7163" d="M123.711,197.159c0,0,7.082,6.051,4.991,11.384c-0.952,2.427-3.471,6.333-2.461,7.333
			s7.426,7.048,5.259,10.548s-13.916,12.785-32.416,4.785c0,0-4.5-3.332-2-10.166s6.167-2.834,5.167-5.167
			s-9.214-10.134-4.792-16.076S123.711,197.159,123.711,197.159z"/>
		<path fill="#665C50" d="M125.21,217.501c0,0-14.75,6.375-21.5,0.75C103.585,223.001,112.085,227.751,125.21,217.501z"/>
		<path fill="#665C50" d="M102.21,210.501c0,0,14.75,6.375,21.5,0.75C123.835,216.001,113.404,217.376,102.21,210.501z"/>
	</g>
	<path fill="#665C50" d="M89.298,200.873c0,0,6.556,0.84,6.864,0.843s26.718-4.672,26.718-4.672s4.807-9.502,1.027-15.668
		c-20.198,4.75-42.239,2.064-63.03,0c-2.583,7.001-2.169,14.899-0.709,15.783L89.298,200.873z"/>
</g>
<g id="Calque_18">
</g>
<g id="Calque_11">
</g>
<g id="T-shirt_Noob">
</g>
<g id="classe">
</g>
<g id="pirate">
</g>
<g id="Calque_17">
</g>
<g id="paysan2">
</g>
<g id="Cheveux_1">
</g>
<g id="Calque_19">
</g>
<g id="Calque_7">
</g>
<g id="Cheveux_1_1_">
</g>
</svg>
