<?xml version="1.0" encoding="utf-8"?>
<!-- Generator: Adobe Illustrator 16.0.0, SVG Export Plug-In . SVG Version: 6.00 Build 0)  -->
<!DOCTYPE svg PUBLIC "-//W3C//DTD SVG 1.1//EN" "http://www.w3.org/Graphics/SVG/1.1/DTD/svg11.dtd">
<svg version="1.1" xmlns="http://www.w3.org/2000/svg" xmlns:xlink="http://www.w3.org/1999/xlink" x="0px" y="0px" width="176px"
	 height="315px" viewBox="0 0 176 315" enable-background="new 0 0 176 315" xml:space="preserve">
<g id="Base">
</g>
<g id="Shoes_noob">
</g>
<g id="chaussure1">
</g>
<g id="Calque_15">
</g>
<g id="Calque_20">
	<g>
		<path fill="#93826C" d="M72.368,255.646c0,0,0.842-3.916,0.363-4.771c-3.105,1.083-5.855,0.875-8.401-0.854
			c-0.662,1.167,0.046,4.688,0.171,4.875S69.381,258.271,72.368,255.646z"/>
		<path fill="#776758" d="M64.385,254.533c0,0-1.759,0.51-1.425,1.093s1.109,1.375,0.5,1.875s-1.001,2.125-0.542,2.625
			s0.042,2.75-0.625,3.5c-0.5,1.5,0,2.987,0,2.987s7.288,1.387,9.432,1.651c0.475-1.045,0.662-1.92,0.131-3.639
			c-0.201-0.651-0.064-2.935,0.724-3.625s0.648-2.041,0.564-2.875s-0.775-2.479-0.775-2.479S67.643,257.69,64.385,254.533z"/>
		<path fill="#615548" d="M72.15,266.027c-0.453,0.086-1.454,0.43-2.274,0.161c-5.439-2.09-7.769-1.447-7.792-1.442
			c-0.214,1.262,0.208,1.867,0.208,1.867s7.288,1.387,9.432,1.651C72.049,267.55,72.233,266.908,72.15,266.027z"/>
		<path fill="#93826C" d="M72.059,267.337c0,0,1.322,0.372,0.82,2.622s-3.086,13.334-2.919,15.584s-1.222,7.186-2.319,7.968
			c-12.597,1.282-17.556,0.158-20.889-1.259c-0.667-5.25,0.625-10.96,7.542-9.293c2.75,1.167,6.414,1.729,6.583,0.739
			c1.479-8.635-0.958-12.447,1.417-17.085C63.709,265.376,69.574,268.965,72.059,267.337z"/>
		<path fill="#826F5D" d="M72.394,268.957c-2.287,1.368-8.287-1.221-10.707-0.856c-0.479,1.515-0.535,3.008-0.476,4.687
			c2.092,1.035,6.824,2.963,10.675,1.597c0.44-2.005,0.827-3.689,0.991-4.425c0.062-0.277,0.095-0.524,0.107-0.747
			C72.664,269.026,72.394,268.957,72.394,268.957z"/>
		<path fill="#C9B29B" d="M54.293,282.959c0,0-6.188-3.688-10,3c0,0-1.878,4.667-0.959,6.625c1.875,1.312,10.042,2.5,13.042,1.399
			C57.46,289.627,56.168,285.167,54.293,282.959z"/>
		<path fill="#DDC7B3" d="M72.17,266.814c-0.835,2.229-10.314-2.306-11.252-0.231c-0.851,1.517-1.124,2.824-0.611,3.543
			c0.041,0.022,8.083,4.831,13.238,1.473c0,0,0,0,0,0c0.456-0.6,0.537-1.575,0.626-1.943
			C74.722,267.405,72.17,266.814,72.17,266.814z"/>
	</g>
	<g>
		<path fill="#93826C" d="M112.577,256.646c0,0-0.842-3.916-0.363-4.771c3.105,1.083,5.984,0.667,8.53-1.062
			c0.662,1.167,0.125,4.969,0,5.156S115.564,259.271,112.577,256.646z"/>
		<path fill="#776758" d="M120.829,255.622c0,0,1.49,0.421,1.156,1.004s-1.109,1.375-0.5,1.875s1.001,2.125,0.542,2.625
			s-0.042,2.75,0.625,3.5c0.5,1.5,0,2.987,0,2.987s-7.288,1.387-9.432,1.651c-0.475-1.045-0.662-1.92-0.131-3.639
			c0.201-0.651,0.064-2.935-0.724-3.625s-0.648-2.041-0.564-2.875s0.775-2.479,0.775-2.479S117.571,258.779,120.829,255.622z"/>
		<path fill="#615548" d="M112.794,267.027c0.453,0.086,1.454,0.43,2.274,0.161c5.439-2.09,7.769-1.447,7.792-1.442
			c0.214,1.262-0.208,1.867-0.208,1.867s-7.288,1.387-9.432,1.651C112.896,268.55,112.712,267.908,112.794,267.027z"/>
		<path fill="#93826C" d="M112.886,268.337c0,0-1.322,0.372-0.82,2.622s3.086,13.334,2.919,15.584s1.222,7.186,2.319,7.968
			c12.597,1.282,17.556,0.158,20.889-1.259c0.667-5.25-0.625-10.96-7.542-9.293c-2.75,1.167-6.414,1.729-6.583,0.739
			c-1.479-8.635,0.958-12.447-1.417-17.085C121.235,266.376,115.371,269.965,112.886,268.337z"/>
		<path fill="#826F5D" d="M112.551,269.957c2.287,1.368,8.287-1.221,10.707-0.856c0.479,1.515,0.535,3.008,0.476,4.687
			c-2.092,1.035-6.824,2.963-10.675,1.597c-0.44-2.005-0.827-3.689-0.991-4.425c-0.062-0.277-0.095-0.524-0.107-0.747
			C112.281,270.026,112.551,269.957,112.551,269.957z"/>
		<path fill="#C9B29B" d="M130.652,283.959c0,0,6.188-3.688,10,3c0,0,1.878,4.667,0.959,6.625c-1.875,1.312-10.042,2.5-13.042,1.399
			C127.485,290.627,128.777,286.167,130.652,283.959z"/>
		<path fill="#DDC7B3" d="M112.775,267.814c0.835,2.229,10.314-2.306,11.252-0.231c0.851,1.517,1.124,2.824,0.611,3.543
			c-0.041,0.022-8.083,4.831-13.238,1.473c0,0,0,0,0,0c-0.456-0.6-0.537-1.575-0.626-1.943
			C110.223,268.405,112.775,267.814,112.775,267.814z"/>
	</g>
</g>
<g id="Shorts">
</g>
<g id="Jeans">
</g>
<g id="Calque_16">
</g>
<g id="Calque_13">
</g>
<g id="Calque_18">
</g>
<g id="Calque_11">
</g>
<g id="T-shirt_Noob">
</g>
<g id="classe">
</g>
<g id="pirate">
</g>
<g id="Calque_17">
</g>
<g id="paysan2">
</g>
<g id="Cheveux_1">
</g>
<g id="Calque_19">
</g>
<g id="Calque_7">
</g>
<g id="Cheveux_1_1_">
</g>
</svg>
