<?xml version="1.0" encoding="utf-8"?>
<!-- Generator: Adobe Illustrator 16.0.0, SVG Export Plug-In . SVG Version: 6.00 Build 0)  -->
<!DOCTYPE svg PUBLIC "-//W3C//DTD SVG 1.1//EN" "http://www.w3.org/Graphics/SVG/1.1/DTD/svg11.dtd">
<svg version="1.1" xmlns="http://www.w3.org/2000/svg" xmlns:xlink="http://www.w3.org/1999/xlink" x="0px" y="0px" width="176px"
	 height="315px" viewBox="0 0 176 315" enable-background="new 0 0 176 315" xml:space="preserve">
<g id="Base">
</g>
<g id="Shoes_noob">
</g>
<g id="chaussure1">
</g>
<g id="Calque_15">
	<g>
		<g>
			<path fill="#8C5650" d="M61.555,255.808c0,0,8.796-2.15,13.488,1.76c-1.564,6.646-3.744,35.892-3.632,37.103
				c-5.556,3.36-9.856,1.938-9.856,1.938l-1.661-1.988l-3.812,0.05l-1.369,2.238l-10.83-1.37c0,0-1.185-9.842,0.947-10.409
				c2.132-0.566,13.597-0.78,15.063-5.082c0.879-5.474,1.075-20.33,1.075-20.33S59.127,257.178,61.555,255.808z"/>
			<path fill="#603937" d="M57.709,288.447l6.083-0.685v1.132c0,0-2.788,1.268-6.506,1.087
				C53.57,289.8,57.709,288.447,57.709,288.447z"/>
			<path fill="#9B6F61" d="M56.082,294.67l3.812-0.05l1.661,1.988c0,0,4.363,1.518,9.78-0.774c-0.017-0.189,0.097-2.223,0.18-3.582
				c-11.698,4.82-27.503,0.558-27.874,0.455c0.097,1.604,0.243,2.831,0.243,2.831l10.83,1.37L56.082,294.67z"/>
			<path fill="#704441" d="M60.969,259.717c0,0,6.714-1.237,10.711,0.574c-4.586-0.953-10.747,1.454-10.747,1.454L60.969,259.717z"
				/>
			<path fill="#704441" d="M72.466,279.685c0,0-8.829,4.865-9.236,6.087c-0.407,1.223-0.016,8.505-0.016,8.505
				s7.488-1.654,8.3-2.024S73.013,280.795,72.466,279.685z"/>
			<path fill="#704441" d="M48.618,284.61c0,0,4.128-1.158,6.043-1.107c2.549,2.133,3.454,4.034,3.454,4.034
				s-0.079,3.998-0.537,7.113c-1.496,0.02-2.359-0.069-2.359-0.069s0.452-4.778-0.272-5.504
				C54.224,288.352,49.983,287.296,48.618,284.61z"/>
		</g>
		<g>
			<path fill="#8C5650" d="M123.031,256.808c0,0-8.796-2.15-13.488,1.76c1.564,6.646,3.744,35.892,3.632,37.103
				c5.556,3.36,9.856,1.938,9.856,1.938l1.661-1.988l3.812,0.05l1.369,2.238l10.83-1.37c0,0,1.185-9.842-0.947-10.409
				c-2.132-0.566-13.597-0.78-15.063-5.082c-0.879-5.474-1.075-20.33-1.075-20.33S125.458,258.178,123.031,256.808z"/>
			<path fill="#603937" d="M126.876,289.447l-6.083-0.685v1.132c0,0,2.788,1.268,6.506,1.087
				C131.016,290.8,126.876,289.447,126.876,289.447z"/>
			<path fill="#9B6F61" d="M128.504,295.67l-3.812-0.05l-1.661,1.988c0,0-4.3,1.422-9.856-1.938
				c0.017-0.189-0.021-1.059-0.104-2.418c11.698,4.82,27.503,0.558,27.874,0.455c-0.097,1.604-0.339,3.731-0.339,3.731l-10.733,0.47
				L128.504,295.67z"/>
			<path fill="#704441" d="M123.617,260.717c0,0-6.714-1.237-10.711,0.574c4.586-0.953,10.747,1.454,10.747,1.454L123.617,260.717z"
				/>
			<path fill="#704441" d="M112.12,280.685c0,0,8.829,4.865,9.236,6.087c0.407,1.223,0.016,8.505,0.016,8.505
				s-7.488-1.654-8.3-2.024S111.573,281.795,112.12,280.685z"/>
			<path fill="#704441" d="M135.968,285.61c0,0-4.128-1.158-6.043-1.107c-2.549,2.133-3.454,4.034-3.454,4.034
				s0.079,3.998,0.537,7.113c1.496,0.02,2.359-0.069,2.359-0.069s-0.452-4.778,0.272-5.504
				C130.362,289.352,134.603,288.296,135.968,285.61z"/>
		</g>
	</g>
</g>
<g id="Calque_20">
</g>
<g id="Shorts">
</g>
<g id="Jeans">
</g>
<g id="Calque_16">
</g>
<g id="Calque_13">
</g>
<g id="Calque_18">
</g>
<g id="Calque_11">
</g>
<g id="T-shirt_Noob">
</g>
<g id="classe">
</g>
<g id="pirate">
</g>
<g id="Calque_17">
</g>
<g id="paysan2">
</g>
<g id="Cheveux_1">
</g>
<g id="Calque_19">
</g>
<g id="Calque_7">
</g>
<g id="Cheveux_1_1_">
</g>
</svg>
