<?xml version="1.0" encoding="utf-8"?>
<!-- Generator: Adobe Illustrator 16.0.0, SVG Export Plug-In . SVG Version: 6.00 Build 0)  -->
<!DOCTYPE svg PUBLIC "-//W3C//DTD SVG 1.1//EN" "http://www.w3.org/Graphics/SVG/1.1/DTD/svg11.dtd">
<svg version="1.1" id="Calque_1" xmlns="http://www.w3.org/2000/svg" xmlns:xlink="http://www.w3.org/1999/xlink" x="0px" y="0px"
	 width="89px" height="73px" viewBox="0 0 89 73" enable-background="new 0 0 89 73" xml:space="preserve">
<rect fill="#FFFFFF" width="89" height="73"/>
<ellipse fill="#E9B4A9" cx="44.5" cy="62.353" rx="32.289" ry="7.362"/>
<g id="Cheveux_1_2_">
</g>
<g id="Cheveux_1_1_">
</g>
<g id="Calque_19">
	<path fill="#5A534A" d="M10.63,20.988c0,0-5.24,8.935-5.732,11.617c1.164,1.981,2.888,3.136,3.555,3.004
		c1.813-4.653,4.118-10.256,8.565-13.125C15.288,20.952,11.568,20.128,10.63,20.988z"/>
	<path fill="#8B7B6B" d="M24.683,26.921c0,0,2.809,14.44,2.765,15.965c-2.128,13.25-2.765,18.686-2.765,18.686
		s26.2,7.053,41.53-1.738C65.236,51.381,64.16,43.4,64.16,43.4s0.899-17.328,0.309-17.667
		C63.877,25.393,24.683,26.921,24.683,26.921z"/>
	<path fill="#726759" d="M64.47,25.733c-0.051-0.029-0.382-0.044-0.938-0.048c-6.657,4.777-18.929,9.292-38.688,2.072
		c0.248,1.284,0.746,3.884,1.24,6.588c11.419,4.047,26.924,5.991,38.526-2.046C64.703,28.837,64.709,25.871,64.47,25.733z"/>
	<path fill="#CCBA9F" d="M26.254,10.037c0,0-6.534-1.375-15.624,10.473c-0.81,4.841,45.859,24.77,62.908-2.01
		c0,0,0.426-2.13-2.951-3.086c-1.979-0.561-3.199-3.77-7.711-5.625C62.876,9.789,49.102,17.325,26.254,10.037z"/>
	<path fill="#5A534A" d="M73.883,18.451c0,0,5.961,8.473,6.673,11.104c-0.997,2.071-2.62,3.365-3.295,3.289
		c-2.192-4.489-4.95-9.882-9.62-12.375C69.238,18.8,72.879,17.672,73.883,18.451z"/>
	<path fill="#48413D" d="M77.218,23.393c0,0,1.698,1.191,1.748,1.571c0.052,0.38-0.198,0.956,0.151,1.579
		c0.349,0.623,1.517,0.84,1.601,1.345c0.086,0.503,0.291,1.747-1.83,4.02s-2.514,1.142-2.607,1.029c0,0,0.173-0.988-0.092-1.094
		c-0.263-0.105-1.462-1.37-1.346-1.933c0.116-0.564-0.249-2.148-0.913-3.206C76.104,26.182,77.375,24.986,77.218,23.393z"/>
	<path fill="#A8967E" d="M73.538,18.5c0,0,0.426-2.13-2.951-3.086c-0.227-0.064-0.444-0.167-0.656-0.295l-0.008-0.002
		c0,0-14.64,24.884-55.461,3.992c-0.759-0.253-1.169-0.573-1.698-1.199c-0.548,0.642-1.564,1.858-2.134,2.601
		C9.821,25.351,56.489,45.279,73.538,18.5z"/>
	<path fill="#726759" d="M47.387,47.541c5.599,0.137,11.573-0.59,16.774-3.121c0.066-0.062,0.124-0.123,0.178-0.186
		c-0.112-0.857-0.178-1.344-0.178-1.344s0.012-0.238,0.032-0.645c-0.744,0.344-6.979,3.086-16.879,3.084
		c-0.34-0.381-0.842-0.771-1.438-0.695c0,0-1.013-0.191-1.772,0.6c-4.89-0.289-10.516-1.273-16.697-3.447
		c0.029,0.264,0.045,0.471,0.042,0.59c-0.076,0.467-0.148,0.922-0.22,1.369c0.057,0.072,0.13,0.127,0.22,0.16
		c0,0,7.119,2.586,16.039,3.406C43.993,48.404,46.376,48.529,47.387,47.541z"/>
	<path fill="#B7A984" d="M27.448,42.887c0,0,21.623,7.861,36.713,0.514c1.203-1.107,0.106-2.209,0.106-2.209
		s-15.019,7.344-37.083-0.498C27.185,40.693,26.691,42.629,27.448,42.887z"/>
	<path fill="#CCBC9A" d="M45.876,43.615c0,0-1.895-0.365-2.445,1.928c-0.552,2.293,5.054,2.287,4.354-0.576
		C47.784,44.967,46.993,43.473,45.876,43.615z"/>
	<path fill="#48413D" d="M7.716,26.188c0,0-1.596,1.328-1.614,1.71c-0.018,0.382,0.277,0.937-0.019,1.585
		c-0.296,0.649-1.442,0.963-1.485,1.472c-0.042,0.51-0.145,1.766,2.157,3.854c2.302,2.09,2.599,0.931,2.684,0.811
		c0,0-0.255-0.971,0-1.098c0.255-0.128,1.344-1.487,1.181-2.039c-0.163-0.552,0.071-2.161,0.645-3.27
		C9.057,28.875,7.691,27.789,7.716,26.188z"/>
	<path fill="#A8967E" d="M24.499,10.075c3.921,3.74,11.265,5.339,20.492,5.339c8.896,0,16.661-1.599,19.496-4.833
		c-0.487-0.281-1.02-0.549-1.611-0.792c0,0-13.772,7.536-36.622,0.248C26.254,10.037,25.629,9.906,24.499,10.075z"/>
</g>
</svg>
