<?xml version="1.0" encoding="utf-8"?>
<!-- Generator: Adobe Illustrator 16.0.0, SVG Export Plug-In . SVG Version: 6.00 Build 0)  -->
<!DOCTYPE svg PUBLIC "-//W3C//DTD SVG 1.1//EN" "http://www.w3.org/Graphics/SVG/1.1/DTD/svg11.dtd">
<svg version="1.1" id="Calque_1" xmlns="http://www.w3.org/2000/svg" xmlns:xlink="http://www.w3.org/1999/xlink" x="0px" y="0px"
	 width="89px" height="73px" viewBox="0 0 89 73" enable-background="new 0 0 89 73" xml:space="preserve">
<rect fill="#FFFFFF" width="89" height="73"/>
<ellipse fill="#E9B4A9" cx="44.5" cy="62.353" rx="32.289" ry="7.362"/>
<g id="Cheveux_1_2_">
</g>
<g id="Cheveux_1_1_">
</g>
<g id="T-shirt_Noob">
	<g>
		<path fill="#558679" d="M64.32,9.048c0,0,4.473,0.947,4.473,1.979c0,1.031-1.926,6.519-5.529,7.214
			c-3.604,0.699-1.231-8.519-1.231-8.519L64.32,9.048z"/>
		<path fill="#558679" d="M23.702,8.6c0,0-6.607,0-6.96,2.426c-0.148,1.02,1.927,6.519,5.53,7.214
			c3.605,0.699,3.327-7.958,3.327-7.958L23.702,8.6z"/>
		<path fill="#A0D3AE" d="M62.731,11.504c0,0,1.454,18.567,1.73,21.361c0.278,2.794,0.19,16.604,0,18.776
			c0,0-25.751,4.992-41.308,0.775c0,0,0.957-12.725,0.71-14.898c-0.243-2.17-1.01-16.804-1.579-24.268
			C22.285,13.25,52.032,18.229,62.731,11.504z"/>
		<path fill="#558679" d="M41.692,34.256c-0.76-2.146-1.099-3.994-1.167-5.579l-0.867,1.43L27.424,17.181l7.706,0.906
			c-5.091-1.675-8.625-3.401-10.526-5.282c-1.506-0.25-2.64-0.423-2.64-0.423c0.569,7.465,1.657,22.965,1.901,25.136
			c0.245,2.173-0.71,14.898-0.71,14.898c0.612,0.166,1.24,0.314,1.882,0.453l30.294-1.852
			C50.549,49.666,44.653,42.625,41.692,34.256z"/>
		<path fill="#558679" d="M42.243,24.865c0,0,6.334-0.679,9.922,4.753c2.639,3.993,3.491,8.074,0.128,13.298
			c-3.362,5.227-12.597,5.074-15.436,2.588c-2.84-2.482-5.577-5.152-4.831-12.049C32.773,26.562,40.831,24.947,42.243,24.865z"/>
		<path fill="#558679" d="M64.254,10.793c0,0,0.034,1.473,0.097,2.261C61.13,16.949,52.17,22.34,42.373,22.45
			c-7.983,0.091-16.922-3.317-21.269-9.453c-1.335-1.609-0.399-1.713-0.263-2.204C20.84,10.793,53.554,17.518,64.254,10.793z"/>
		<path fill="#A0D3AE" d="M66.601,5.989c-0.646-1.38-2.314-1.255-3.506-0.955c-0.277,1.855-0.521,3.407-1.128,4.014
			c-1.956,1.955-23.556,8.134-37.382,0.41c0,0.002,0,0.006,0,0.009c-1.063,0.539-2.925,0.526-4.36-0.323
			c5.473,10.042,25.096,10.671,36.449,6.887C68.194,12.19,67.648,8.233,66.601,5.989z"/>
		<path fill="#558679" d="M23.155,51.961c0,0,0.114-0.326,0.083-1.094c-0.083-1.805,12.06,0.447,18.463,0.008
			c0,0-3.601-0.58,2.423-1.07c3.199-0.258,20.435-0.52,20.411-0.201c-0.012,0.189-0.035,1.406-0.177,1.6l-20.293,4.172
			L23.155,51.961z"/>
		<path fill="#A0D3AE" d="M64.501,51.018c0,0,2.562,1.506,2.531,5.867c-0.023,3.316-2.322,3.816-3.146,4.143
			c-1.261,0.5-34.375,3.59-40.11,0.033c0,0-5.331-3.395-0.623-8.645C23.155,52.416,41.853,54.549,64.501,51.018z"/>
		<path fill="#558679" d="M23.155,52.416c-4.925,5.756,0.623,8.643,0.623,8.643c3.095,1.922,14.155,1.908,23.886,1.406
			c0.044-0.012,0.082-0.021,0.102-0.031c0.822-0.324-2.83-1.562-2.806-4.881c0.024-3.311,2.403-4.168,3.796-4.844
			c-1.241,0.076-2.441-0.402-3.621-0.352C36.71,51.588,29.591,52.404,23.155,52.416z"/>
		<path fill="#FFD879" d="M33.716,36.362c0,5.191,4.208,9.4,9.398,9.4c5.191,0,9.398-4.209,9.398-9.4
			c0-5.188-4.207-9.397-9.398-9.397C37.923,26.965,33.716,31.173,33.716,36.362z"/>
		<g>
			<g>
				<path fill="#659A83" d="M51.337,31.79c0,0-0.412,0.317-0.353,0.925c0.06,0.607-0.089,7.705,0.353,7.977
					c0.441,0.27,5.805,0.475,5.805-1.949c0-2.423-2.033-2.377-2.327-2.445c0,0,2.503,0.021,2.327-2.233
					C56.965,31.813,53.93,30.506,51.337,31.79z"/>
				<path fill="#659A83" d="M27.932,39.858c0,0-0.811-6.102-0.339-9.549c0,0,4.09-0.238,4.428,0.1
					c0.339,0.338,2.129,3.412,2.129,3.412l0.338-3.662c0,0,3.247-0.188,3.247,0.824c0,1.014-0.676,8.722-1.218,8.855
					c-0.541,0.137-3.22-0.505-3.22-0.505s-1.546-3.686-1.918-4.633c-0.1-0.258-0.439,0.031-0.439,0.031s0.574,5.126-0.034,5.126
					C30.296,39.858,29.958,39.858,27.932,39.858z"/>
				<path fill="#E2E2E1" d="M27.932,38.996c0,0-0.811-6.103-0.339-9.55c0,0,4.09-0.236,4.428,0.103
					c0.339,0.337,2.129,3.414,2.129,3.414l0.338-3.666c0,0,3.247-0.188,3.247,0.826s-0.676,8.721-1.218,8.856
					c-0.541,0.135-3.22-0.506-3.22-0.506s-1.546-3.684-1.918-4.632c-0.1-0.259-0.439,0.031-0.439,0.031s0.574,5.125-0.034,5.125
					C30.296,38.996,29.958,38.996,27.932,38.996z"/>
				<path fill="#659A83" d="M41.855,32.962c0,0-2.502-0.543-3.109,1.725c-0.61,2.261,1.285,3.075,2.028,3.108
					c0.743,0.033,3.38-0.778,2.468-3.312C43.243,34.484,43.039,33.435,41.855,32.962z"/>
				<path fill="#FFFFFF" d="M41.855,32.082c0,0-2.502-0.54-3.109,1.726c-0.61,2.264,1.287,3.025,2.028,3.108
					c0.924,0.101,3.38-0.777,2.468-3.313C43.243,33.603,43.039,32.555,41.855,32.082z"/>
				<path fill="#659A83" d="M48.188,32.962c0,0-2.502-0.543-3.109,1.725c-0.61,2.261,1.282,3.075,2.027,3.108
					c0.742,0.033,3.379-0.778,2.466-3.312C49.573,34.484,49.369,33.435,48.188,32.962z"/>
				<path fill="#FFFFFF" d="M48.188,32.082c0,0-2.502-0.54-3.109,1.726c-0.61,2.264,1.286,3.025,2.027,3.108
					c0.924,0.101,3.379-0.777,2.466-3.313C49.573,33.603,49.369,32.555,48.188,32.082z"/>
				<path fill="#659A83" d="M47.124,33.757c0,0,0.72-0.155,0.896,0.499c0.175,0.652-0.371,0.885-0.586,0.896
					c-0.212,0.009-0.972-0.223-0.707-0.955C46.728,34.196,46.783,33.893,47.124,33.757z"/>
				<path fill="#659A83" d="M40.796,33.757c0,0,0.721-0.155,0.896,0.499c0.175,0.652-0.37,0.885-0.584,0.896
					c-0.214,0.009-0.971-0.223-0.71-0.955C40.397,34.196,40.458,33.893,40.796,33.757z"/>
				<path fill="#FFFFFF" d="M51.337,30.845c0,0-0.412,0.314-0.353,0.923s-0.089,7.706,0.353,7.978
					c0.441,0.27,5.805,0.473,5.805-1.948c0-2.425-2.033-2.379-2.327-2.449c0,0,2.503,0.024,2.327-2.229
					C56.965,30.866,53.93,29.561,51.337,30.845z"/>
				<path fill="#659A83" d="M54.164,32.263c0,0-1.052,0.803-0.701,1.005s1.228,0.129,1.27-0.521
					C54.778,32.097,54.164,32.263,54.164,32.263z"/>
				<path fill="#659A83" d="M53.563,37.021c0,0-0.41,1.005,0.247,1.087c0.655,0.082,1.098-0.455,0.768-0.922
					S53.563,37.021,53.563,37.021z"/>
			</g>
		</g>
		<path id="XMLID_4_" fill="none" stroke="#659A83" stroke-linecap="round" stroke-miterlimit="10" d="M47.085,41.98
			c0,0-2.624-3.957-6.312-0.168"/>
		<path fill="#558679" d="M28.443,13.455c0-0.889,0.394-1.499,0.722-1.919c-1.667-0.538-2.674-0.961-4.199-1.813
			c0,0.003-0.435-0.258-0.435-0.255C23.06,9.722,21.5,9.995,20.05,9.055c2.008,4.091,6.094,6.224,11.097,7.697
			C28.301,15.893,28.443,13.455,28.443,13.455z"/>
	</g>
</g>
<g id="Cheveux_1_3_">
</g>
</svg>
