<?xml version="1.0" encoding="utf-8"?>
<!-- Generator: Adobe Illustrator 16.0.0, SVG Export Plug-In . SVG Version: 6.00 Build 0)  -->
<!DOCTYPE svg PUBLIC "-//W3C//DTD SVG 1.1//EN" "http://www.w3.org/Graphics/SVG/1.1/DTD/svg11.dtd">
<svg version="1.1" id="Calque_1" xmlns="http://www.w3.org/2000/svg" xmlns:xlink="http://www.w3.org/1999/xlink" x="0px" y="0px"
	 width="89px" height="73px" viewBox="0 0 89 73" enable-background="new 0 0 89 73" xml:space="preserve">
<ellipse fill="#E9B4A9" cx="44.5" cy="62.353" rx="32.289" ry="7.362"/>
<g>
	<path fill="#B76635" d="M66.459,3.435c0,0-0.771,1.729-0.566,1.731c0.205,0.001,2.015-2.223,2.015-2.223L66.459,3.435z"/>
	<path fill="#BFCAD8" d="M10.896,12.243c0,0-3.141,2.284-3.093,3.353c1.556,0.777,3.674,2.322,3.539,3.369
		c1.907-0.461,3.219-3.053,3.219-3.441C14.562,15.134,12.919,11.978,10.896,12.243z"/>
	<path fill="#9AA5B6" d="M24.219,4.707c0,0-5.524-1.03-9.39,1.429c-3.864,2.459-4.584,5.015-3.933,6.107
		c2.329,0.581,3.541,3.87,3.201,4.152c1.315,1.388,6.96,1.173,7.806-0.07c1.239-1.823,4.491-0.583,4.761-2.479
		C26.936,11.949,26.029,6.084,24.219,4.707z"/>
	<path fill="#BFCAD8" d="M78.648,13.805c0,0,2.75,2.743,2.537,3.792c-1.658,0.526-3.988,1.726-4.019,2.78
		c-1.812-0.751-2.708-3.515-2.647-3.899C74.581,16.094,76.691,13.229,78.648,13.805z"/>
	<path fill="#9AA5B6" d="M66.654,4.297c0,0,5.617-0.162,9.056,2.865c3.438,3.028,3.752,5.665,2.938,6.643
		c-2.39,0.215-4.098,3.276-3.806,3.607c-1.514,1.168-7.058,0.081-7.7-1.278c-0.941-1.993-4.346-1.271-4.319-3.187
		C62.85,11.032,64.652,5.378,66.654,4.297z"/>
	<path fill="#7F4742" d="M24.292,12.354c0,0,1.406,24.612,1.3,25.192c-0.104,0.58-2.558,23.827-1.3,24.457s36.772,3.328,44.146,0
		c1.114-0.503-1.231-23.144-1.262-24.012c-0.029-0.868,0.486-27.866,0.486-27.866L24.292,12.354z"/>
	<path fill="#6B3C38" d="M67.662,16.967c0.082-4.368,0-6.841,0-6.841l-43.37,2.229c0,0,0.107,1.881,0.261,4.612l0,0
		c0,0,10.556,11.003,23.828,9.69C59.844,25.523,66.043,18.899,67.662,16.967z"/>
	<path fill="#6B3C38" d="M67.176,37.992c-0.002-0.061-0.002-0.25,0.001-0.547c-0.036-0.043-0.065-0.088-0.104-0.131
		c-15.828,6.117-39.867,0.414-41.474,0.021c0.001,0.111-0.001,0.186-0.006,0.21c-0.033,0.183-0.298,2.609-0.607,5.869
		c0.063,0.112,0.119,0.228,0.194,0.339c25.073,7,42.295,0,42.295,0s0.072-0.143,0.174-0.389
		C67.391,40.428,67.186,38.251,67.176,37.992z"/>
	<path fill="#4C3434" d="M25.51,34.981c0,0,25.18,6.332,41.562,0c2.381,2.565,0.402,6.439,0.402,6.439s-17.223,7-42.295,0
		C23.149,38.359,25.51,34.981,25.51,34.981z"/>
	<path fill="#CC4140" d="M25.592,8.595c0,0,19.633,9.8,40.061,0.196c2.342-0.998,0.808-1.273,0.808-1.273l0.271-1.3
		c0,0,2.517,0.216,2.819,1.77c0.438,2.232-5.348,8.483-9.877,10.175c-4.528,1.692-17.207,5.521-27.744,0.058
		C25.028,15.968,20.29,7.697,24.306,6.287C24.374,7.603,25.592,8.595,25.592,8.595z"/>
	<path fill="#A03536" d="M24.464,5.98c0,0,20.761,9.497,41.188-0.106c2.341-0.998,0.807-1.273,0.807-1.273l0.27-1.301
		c0,0,0.631,1.364,0.935,2.918c0.438,2.232-7.181,12.21-12.367,13.666c-5.411,1.52-10.828,2.688-18.806-0.492
		c-6.901-2.253-16.2-14.613-12.185-16.023C24.374,4.686,24.464,5.98,24.464,5.98z"/>
	<path fill="#CC4140" d="M24.464,4.814c0,0,20.761,9.496,41.188-0.107c2.341-0.998,0.807-1.272,0.807-1.272l0.27-1.301
		c0,0,2.518,0.216,2.82,1.77c0.438,2.232-5.348,8.483-9.877,10.175S42.465,19.6,31.928,14.136
		c-6.901-2.253-11.639-10.523-7.623-11.934C24.374,3.519,24.464,4.814,24.464,4.814z"/>
	<path fill="#E4C64A" d="M44.194,37.328c0,0,7.464-0.867,7.755-0.434c0.292,0.434,1.459,7.435,0.803,7.508
		c-0.656,0.072-8.291,1.395-8.558,0.623C43.927,44.255,43.489,37.407,44.194,37.328z M45.919,43.375
		c0.157,0.453,4.646-0.324,5.031-0.366c0.386-0.044-0.3-4.159-0.472-4.414s-4.561,0.255-4.561,0.255
		C45.505,38.896,45.764,42.923,45.919,43.375z"/>
</g>
</svg>
