<?xml version="1.0" encoding="utf-8"?>
<!-- Generator: Adobe Illustrator 16.0.0, SVG Export Plug-In . SVG Version: 6.00 Build 0)  -->
<!DOCTYPE svg PUBLIC "-//W3C//DTD SVG 1.1//EN" "http://www.w3.org/Graphics/SVG/1.1/DTD/svg11.dtd">
<svg version="1.1" id="Calque_1" xmlns="http://www.w3.org/2000/svg" xmlns:xlink="http://www.w3.org/1999/xlink" x="0px" y="0px"
	 width="89px" height="73px" viewBox="0 0 89 73" enable-background="new 0 0 89 73" xml:space="preserve">
<ellipse fill="#E9B4A9" cx="44.5" cy="62.353" rx="32.289" ry="7.362"/>
<g>
	<path fill="#9A625A" d="M8.522,19.651c0,0-2.192,1.141-2.55,2.976c0.895,1.835,4.027,2.859,4.743,2.661
		c0.984-0.289,1.566-3.153,1.566-3.153L8.522,19.651z"/>
	<path fill="#9A625A" d="M80.616,20.625c0,0,2.053,0.776,2.411,2.611c-0.896,1.835-3.754,2.787-4.471,2.589
		c-0.984-0.289-1.565-3.153-1.565-3.153L80.616,20.625z"/>
	<path fill="#DCC0B1" d="M23.926,6.344c0,0-8.955,0.863-15.403,13.24C10.134,21.669,11.924,22,11.924,22h0.358
		c0,0,6.454-8,10.118-7.322C24.097,13.297,23.926,6.344,23.926,6.344z"/>
	<path fill="#DCC0B1" d="M65.438,7.418c0,0,8.955,0.826,15.402,13.203C79.229,22.706,77.438,23,77.438,23h-0.356
		c0,0-6.454-7.963-10.118-7.285C65.268,14.333,65.438,7.418,65.438,7.418z"/>
	<path fill="#DCC0B1" d="M26.45,55.627c0,0-1.92,5.173-0.726,5.979c1.193,0.807,33.224,6.848,41.95,0.537
		c0.746-4.451-2.095-7.385-2.095-7.385L26.45,55.627z"/>
	<path fill="#FBE2D2" d="M27.357,37.398c0,0-2.244,17.777-1.472,20.806c16.299,3.788,40.057,3.149,41.439,0.403
		c1.517-7.847-3.124-49.522-5.665-50.729c-7.761,4.752-30.294,1.708-30.294,1.708S27.263,22.994,27.357,37.398z"/>
	<g>
		<g>
			<path fill="#DCC0B1" d="M36.904,14.995l-0.866-0.25c0,0-3.219,16.172-1.315,26.487c-2.394,0.604-5.35,1.186-7.624-0.613
				c-0.097,0.775-0.207,1.686-0.321,2.67c0.117,0.072,0.232,0.145,0.353,0.221c3.041,1.916,10.255-0.334,10.255-0.334
				S34.508,22.9,38.26,15.69C37.602,15.632,37.648,15.192,36.904,14.995z M66.793,38.378c-3.078,0.449-5.482,1.918-6.001,2.463
				c-0.765,0.806-3.76,2.741-8.414,0.861c2.06-12.888-0.129-26.957-0.129-26.957l-0.386,0.129c-0.494,0.082-1.612-1.248-2.053-1.224
				c3.506,7.333,0.519,29.743,0.519,29.743s7.135,2.49,10.237,0.678c2.356-1.377,4.033-2.231,6.463-2.851
				C66.957,40.284,66.878,39.335,66.793,38.378z"/>
		</g>
	</g>
	<polygon fill="#4C3A38" points="67.209,7.216 64.568,5.869 64.372,8.71 	"/>
	<path fill="#4C3A38" d="M23.926,6.259l2.527-0.86l0.082,2.48C26.535,7.879,24.868,7.065,23.926,6.259z"/>
	<path fill="#DCC0B1" d="M26.228,5.869c0,0,17.755,8.459,38.34,0c1.629,5.101-0.4,2.017-1.289,3.163
		c-0.889,1.146-20.924,9.702-37.831-0.322C24.582,6.902,25.495,6.162,26.228,5.869z"/>
	<path fill="#9A625A" d="M23.926,6.259c0,0-5.32,8.872-5.999,31.322c4.511,0.812,6.433,1.786,9.65,3.813
		c3.041,1.916,10.256-0.334,10.256-0.334s-2.116-20.573,1.635-27.783C33.719,12.76,23.926,6.259,23.926,6.259z"/>
	<path fill="#9A625A" d="M67.209,7.216c0,0,3.657,8.793,3.58,31.253c-4.536,0.659-6.489,1.569-9.773,3.487
		c-3.104,1.813-10.238-0.679-10.238-0.679s2.656-20.712-0.851-28.045C55.623,12.402,67.209,7.216,67.209,7.216z"/>
	<path fill="#BCA18A" d="M61.279,39.588c-0.764,0.807-3.801,1.879-8.453,0c2.059-12.889-0.129-26.957-0.129-26.957l-0.387,0.129
		c-0.494,0.081-2.013,0.346-2.451,0.37c3.506,7.332,0.916,28.147,0.916,28.147s7.136,2.492,10.238,0.679
		c3.285-1.918,5.238-2.828,9.774-3.487c0.002-0.762,0-1.494-0.009-2.204C66.143,35.524,61.984,38.846,61.279,39.588z"/>
	<path fill="#BCA18A" d="M37.833,41.062c0,0-2.116-20.573,1.635-27.784c-0.659-0.059-1.372-0.2-2.116-0.397l-0.866-0.25
		c0,0-3.219,16.172-1.315,26.487c-2.571,0.648-5.793,1.275-8.12-1.053c-1.999-1.999-6.568-3.529-9.011-3.242
		c-0.045,0.879-0.083,1.795-0.112,2.758c4.511,0.811,6.433,1.786,9.65,3.814C30.618,43.312,37.833,41.062,37.833,41.062z"/>
	<circle fill="#A8907B" cx="44.613" cy="20.447" r="1.367"/>
	<circle fill="#A8907B" cx="44.613" cy="27.002" r="1.367"/>
	<circle fill="#A8907B" cx="44.613" cy="33.171" r="1.367"/>
</g>
</svg>
