<?xml version="1.0" encoding="utf-8"?>
<!-- Generator: Adobe Illustrator 16.0.0, SVG Export Plug-In . SVG Version: 6.00 Build 0)  -->
<!DOCTYPE svg PUBLIC "-//W3C//DTD SVG 1.1//EN" "http://www.w3.org/Graphics/SVG/1.1/DTD/svg11.dtd">
<svg version="1.1" id="Calque_1" xmlns="http://www.w3.org/2000/svg" xmlns:xlink="http://www.w3.org/1999/xlink" x="0px" y="0px"
	 width="89px" height="73px" viewBox="0 0 89 73" enable-background="new 0 0 89 73" xml:space="preserve">
<ellipse fill="#E9B4A9" cx="44.5" cy="62.353" rx="32.289" ry="7.362"/>
<g id="Cheveux_1_2_">
</g>
<g id="Cheveux_1_1_">
</g>
<g id="Cheveux_1_3_">
</g>
<g id="Cheveux_1_4_">
</g>
<g id="Calque_21">
	<path fill="#C13D3A" d="M25.804,9.901c0,0,8.337,6.178,32.622,1.892C45.564,17.127,32.644,19.883,25.804,9.901z"/>
	<path fill="#A12C31" d="M68.627,18.445c0,0,1.398,9.728,1.666,15.822s0.643,24.493,2.199,25.649
		c-4.303,2.182-50.446,1.074-56.296-3.212c0.117-2.257,2.145-5.083,2.793-8.448c1.182-6.136,2.674-14.065,2.386-23.605
		c-0.118-3.897,4.018-7.23,4.109-9.754C25.839,5.053,31.939,24.177,68.627,18.445z"/>
	<path fill="#554241" d="M26.362,16.348c0,0-0.893,19.849,0.185,22.333c-0.173,8.379-1.594,20.523-1.063,21.234
		c6.069,1.965,29.69,5.889,39.129,1.873c0.688-6.871,0-24.406,0-24.406l-0.715-18.71C63.898,18.673,31.808,21.598,26.362,16.348z"/>
	<path fill="#483A3A" d="M64.918,52.18l-35.717-8.244c0,0-1.777,0.58-2.982,1.713c-0.089,1.385-0.188,1.99-0.287,3.318
		c31.333,15.576,38.886,9.237,38.899,9.178C64.896,56.329,64.92,54.277,64.918,52.18z"/>
	<path fill="#483A3A" d="M63.898,18.138c0,0-32.091,1.951-37.537-3.299c0,0-0.07,2.123-0.146,4.409
		C26.22,19.25,60.253,31.034,64.04,26.17l0.104-1.611L63.898,18.138z"/>
	<path fill="#E1CCCB" d="M33.072,18.309c0,0,10.268,12.993,12.054,13.729c6.172-4.218,11.215-14.436,11.215-14.436
		S33.161,12.146,33.072,18.309z"/>
	<path fill="#A48B8B" d="M56.061,18.49c-6.686,0.134-16.458,0.006-22.937-1.148c-0.03,0.138-0.05,0.281-0.052,0.433
		c0,0-0.446,0.374,3.38,4.731c4.208,1.238,10.106,2.686,14.563,3.604C53.312,23.201,55.113,20.211,56.061,18.49z"/>
	<path fill="#A48B8B" d="M38.88,19.513c0,0,5.247,8.263,6.005,8.575c2.62-1.791,4.76-6.973,4.76-6.973S38.917,16.896,38.88,19.513z"
		/>
	<path fill="#ED5C49" d="M33.539,14.796c0,0,17.15,0.39,29.995-5.211c0,0,2.294-0.589,3.099,1.312
		c0.803,1.901-2.099,2.177-1.424,2.92c0.673,0.744,2.339,3.537,1.743,5.562c-1.063,3.619-9.373,5.627-33.413-1.336
		C32.626,16.883,33.539,14.796,33.539,14.796z"/>
	<path fill="#ED5C49" d="M32.626,14.547c0,0-5.925-2.935-7.115-5.076c-1.946,0.855-1.652,4.157-1.213,5.076
		c-0.753,1.337,1.373,4.841,7.257,2.515C32.355,15.543,32.626,14.547,32.626,14.547z"/>
	<circle fill="#E0DCC6" cx="32.626" cy="16.347" r="3.033"/>
	<circle fill="#FAF5E3" cx="32.626" cy="16.347" r="1.8"/>
	<path fill="#C13D3A" d="M60.793,14.896c0,0-11.184,3.08-19.554,2.009C52.354,20.521,59.587,17.954,60.793,14.896z"/>
	<path fill="#483A3A" d="M64.891,48.367c-0.062-4.915-0.218-9.356-0.265-10.618l-21.534,6.733
		C43.092,44.482,51.866,47.83,64.891,48.367z"/>
	<path fill="#734747" d="M26.547,38.682c0,0-1.464,3.393-0.283,6.601c16.716,1.776,38.15-1.987,38.943-6.437
		c1.227-3.407-0.793-5.737-0.793-5.737S47.734,40.73,26.547,38.682z"/>
	<path fill="#885858" d="M26.547,38.682c0,0,20.87,9.62,38.406,8.553c0,0,1.279,2.947,0.167,6.697
		c-10.222,1.074-32.026-3.146-38.868-8.199C24.366,42.418,26.547,38.682,26.547,38.682z"/>
	<path fill="#694D4D" d="M53.116,46.909c0,0-2.185,7.292,0,8.432c2.186,1.14,7.221,0.402,7.515,0
		c0.295-0.401,0.831-6.374,0.831-6.374L53.116,46.909z"/>
	<path fill="#563E3D" d="M52.936,55.225c0.491,0.377,0.824,0.377,0.824,0.377l0.604-4.545c0.324-1.41,0.164-2.596,0.098-3.815
		l-1.344-0.331C53.116,46.909,51.061,53.775,52.936,55.225z"/>
	<path fill="#BF9043" d="M56.562,50.689c0,0-0.377,2.324,1.334,2.076c1.713-0.25,1.062-2.535,0.65-2.99
		C58.137,49.318,56.562,50.689,56.562,50.689z"/>
	<path fill="#7D5A5A" d="M53.057,46.393c0,0,7.244-1.832,8.228-1.295c0.983,0.533,1.519,4.907,0,5.533
		c-1.517,0.625-6.679,1.25-7.224,0.625C53.518,50.631,53.057,46.393,53.057,46.393z"/>
	<path fill="#9D6565" d="M26.251,45.732c3.559,2.629,11.168,5.031,19.088,6.578c1.318,0.248,1.57-3.47,2.123-4.894
		c0.554-1.424-0.996-2.092-1.009-2.099c-11.036-2.551-19.907-6.639-19.907-6.639S24.366,42.418,26.251,45.732z"/>
	<circle fill="#483A3A" cx="45.143" cy="35.922" r="1.655"/>
	<path fill="#ED5C49" d="M64.891,13.314c0,0,10.334,3.285,5.422,21.335c-0.299-6.805-2.049-13.324-4.297-15.269
		C64.48,18.054,64.891,13.314,64.891,13.314z"/>
	<path fill="#ED5C49" d="M26.607,12.779c0,0-10.336,3.285-5.422,21.335c0.3-6.806,2.049-13.325,4.296-15.271
		C27.016,17.518,26.607,12.779,26.607,12.779z"/>
</g>
<g id="Cheveux_1_5_">
</g>
</svg>
