<?xml version="1.0" encoding="utf-8"?>
<!-- Generator: Adobe Illustrator 16.0.0, SVG Export Plug-In . SVG Version: 6.00 Build 0)  -->
<!DOCTYPE svg PUBLIC "-//W3C//DTD SVG 1.1//EN" "http://www.w3.org/Graphics/SVG/1.1/DTD/svg11.dtd">
<svg version="1.1" id="Calque_1" xmlns="http://www.w3.org/2000/svg" xmlns:xlink="http://www.w3.org/1999/xlink" x="0px" y="0px"
	 width="89px" height="73px" viewBox="0 0 89 73" enable-background="new 0 0 89 73" xml:space="preserve">
<ellipse fill="#E9B4A9" cx="44.5" cy="62.353" rx="32.289" ry="7.362"/>
<g>
	<path fill="#2D363F" d="M24.319,3.889c0,0-9.668-0.043-18.7,15.136c3.062,4.365,3.428,2.33,3.428,2.33s9.022-10.698,15.909-11.197
		C27.462,7.027,26.583,4.734,24.319,3.889z"/>
	<path fill="#2D363F" d="M65.027,4.54c0,0,9.652,0.546,17.744,16.246c-3.322,4.171-3.562,2.117-3.562,2.117
		s-8.354-11.229-15.197-12.146C61.7,7.48,62.717,5.245,65.027,4.54z"/>
	<path fill="#B8C5D7" d="M33.281,7.528c0,0,14.243,0.97,19.663-0.618c1.527,6.26,1.048,52.42-0.254,53.18
		c-0.621-0.24-15.675,0.168-16.789-1.083c-3.391-3.812,3.228-45.245,3.228-45.245L33.281,7.528z"/>
	<path fill="#9AA5B6" d="M52.943,6.91c-2.769,0.811-7.834,0.954-12.131,0.9l1.97,3.557c0,0,7.8,0.854,8.725-0.428
		c0.377-0.521,0.931-2.174,1.454-3.951C52.955,6.963,52.95,6.934,52.943,6.91z"/>
	<path fill="#343D49" d="M36.094,7.551c0,0-9.252-2.28-11.26-3.371c-0.368,7.067,0.332,16.452,0,24.545
		c-0.502,12.274-2.056,26.052-2.873,32.226c4.903,2.275,13.938,1.062,13.938,1.062s3.275-0.431,5.532-1.488
		c3.55-1.664,3.191-31.041,3.191-31.041L36.094,7.551z"/>
	<path fill="#343D49" d="M58.38,6.172c0,0,5.647-1.209,7.005-2.631c0.369,7.067,0.52,17.091,0.852,25.184
		c0.502,12.274,1.195,26.574,2.013,32.748c-4.822,1.278-8.631,0.896-8.631,0.896s-4.743-0.067-6.402-0.354
		c-3.862-0.669-3.103-33.288-3.103-33.288L58.38,6.172z"/>
	<path fill="#454C59" d="M44.692,30.503c0,0,0.028-22.806-1.711-22.706c-3.947,0.227-6.652-0.885-10.863-1.277
		c0,0-6.363,5.582-4.751,6.863c0.796,0.632,8.441,0.924,8.632,1.684c0.188,0.759-3.628,2.904-2.718,3.271
		c1.137,0.459,5.027,4.14,7.957,6.688C43.052,26.604,44.497,30.826,44.692,30.503z"/>
	<path fill="#454C59" d="M50.121,30.054c0,0-0.256-22.488,1.441-22.879c3.494-0.806,4.555-0.236,8.136-1.319
		c0,0,8.645,5.108,7.032,6.389c-0.797,0.633-7.709,2.062-7.898,2.822c-0.189,0.759,3.628,2.904,2.717,3.271
		c-1.255,0.508-5.503,5.26-8.477,8.537C51.689,28.398,50.284,30.322,50.121,30.054z"/>
	<circle fill="#2D363F" cx="40.267" cy="33.018" r="1.733"/>
	<circle fill="#2D363F" cx="39.697" cy="40.985" r="1.733"/>
	<circle fill="#2D363F" cx="38.56" cy="48.384" r="1.733"/>
</g>
</svg>
