<?xml version="1.0" encoding="utf-8"?>
<!-- Generator: Adobe Illustrator 16.0.0, SVG Export Plug-In . SVG Version: 6.00 Build 0)  -->
<!DOCTYPE svg PUBLIC "-//W3C//DTD SVG 1.1//EN" "http://www.w3.org/Graphics/SVG/1.1/DTD/svg11.dtd">
<svg version="1.1" id="Calque_1" xmlns="http://www.w3.org/2000/svg" xmlns:xlink="http://www.w3.org/1999/xlink" x="0px" y="0px"
	 width="120.791px" height="50.284px" viewBox="0 0 120.791 50.284" enable-background="new 0 0 120.791 50.284"
	 xml:space="preserve">
<g>
	<line fill="#A25552" stroke="#A25552" stroke-width="2" stroke-miterlimit="10" x1="12" y1="0.076" x2="10.395" y2="21.076"/>
	<line fill="#A25552" stroke="#A25552" stroke-width="2" stroke-miterlimit="10" x1="39.234" y1="0.045" x2="39.16" y2="21.107"/>
	<line fill="#A25552" stroke="#A25552" stroke-width="2" stroke-miterlimit="10" x1="71.234" y1="0.045" x2="71.16" y2="21.107"/>
	<line fill="#A25552" stroke="#A25552" stroke-width="2" stroke-miterlimit="10" x1="107.234" y1="0.045" x2="107.16" y2="21.107"/>
	<polygon fill="#FEFCEC" points="20.956,49.075 -0.167,49.075 -0.167,18.076 10.395,14.243 20.956,18.743 	"/>
	<g>
		<path fill="#D67563" d="M6.348,37.532c0.672,0.463,1.764,0.987,2.562,0.987c1.491,0,2.331-0.944,2.331-2.1
			c-0.021-2.897-5.963-1.659-5.963-6.614c0-2.372,1.932-4.22,4.85-4.22c1.449,0,2.855,0.504,4.094,1.218l-1.133,1.932
			c-0.882-0.482-1.701-0.966-2.75-0.966c-1.218,0-2.373,0.651-2.373,1.952c0,2.855,6.088,1.953,6.088,6.594
			c0,2.477-1.994,4.388-4.808,4.388c-1.407,0-2.729-0.399-3.947-1.112L6.348,37.532z"/>
	</g>
	<polygon fill="#F2F1DB" points="49.956,50.284 28,49.075 28,18.659 38.25,14.243 49.956,18.076 	"/>
	<g>
		<path fill="#CA6358" d="M32.891,25.88h2.708l-0.042,5.921h6.404l0.042-5.921h2.729l-0.126,14.529h-2.729l0.084-6.299h-6.404
			l-0.084,6.299h-2.708L32.891,25.88z"/>
	</g>
	<polygon fill="#FEFCEC" points="84.5,49.075 58.125,49.075 58.875,18.909 70.75,13.909 82.75,18.076 	"/>
	<g>
		<path fill="#D67563" d="M70.748,25.586c4.703,0,7.79,3.317,7.79,7.559s-3.38,7.559-7.79,7.559c-4.408,0-7.789-3.149-7.789-7.559
			C62.959,28.903,66.424,25.586,70.748,25.586z M70.748,38.52c3.003,0,4.977-2.499,4.977-5.375c0-3.087-1.974-5.375-4.977-5.375
			c-2.436,0-4.976,1.995-4.976,5.375C65.772,36.315,67.746,38.52,70.748,38.52z"/>
	</g>
	<polygon fill="#F2F1DB" points="120.791,49.075 95.834,49.075 96.544,18.909 106.833,13.909 119.135,18.076 	"/>
	<g>
		<path fill="#CA6358" d="M103.654,25.88h4.095c3.8,0,5.312,1.722,5.312,4.43c0,2.982-2.477,4.41-5.291,4.41h-1.49l-0.021,5.689
			h-2.75L103.654,25.88z M107.686,32.536c1.449,0,2.562-0.883,2.562-2.247c0-0.882-0.504-2.226-2.457-2.226h-1.428l-0.042,4.473
			H107.686z"/>
	</g>
</g>
</svg>
