<?xml version="1.0" encoding="utf-8"?>
<!-- Generator: Adobe Illustrator 16.0.0, SVG Export Plug-In . SVG Version: 6.00 Build 0)  -->
<!DOCTYPE svg PUBLIC "-//W3C//DTD SVG 1.1//EN" "http://www.w3.org/Graphics/SVG/1.1/DTD/svg11.dtd">
<svg version="1.1" id="Calque_1" xmlns="http://www.w3.org/2000/svg" xmlns:xlink="http://www.w3.org/1999/xlink" x="0px" y="0px"
	 width="371.784px" height="79.033px" viewBox="0 0 371.784 79.033" enable-background="new 0 0 371.784 79.033"
	 xml:space="preserve">
<g>
	<polygon fill="#EAD0BB" points="83.848,27.033 24.035,79.033 24.054,79.033 83.881,27.033 	"/>
	<polygon fill="#EAD0BB" points="104.407,27.033 41.766,79.033 320.65,79.033 236.999,27.033 	"/>
	<polygon fill="#C58270" points="96.522,16.047 117.658,16.033 96.501,16.033 83.848,27.033 83.881,27.033 	"/>
	<polygon fill="#C58270" points="229.007,16.033 117.658,16.033 104.407,27.033 236.999,27.033 224.933,19.533 	"/>
	<polygon fill="#C58270" points="245.926,19.702 245.926,27.033 236.999,27.033 320.65,79.033 343.031,79.033 	"/>
	<polygon fill="#C58270" points="229.007,16.033 224.933,19.533 236.999,27.033 245.926,27.033 245.926,19.702 239.921,16.033 	"/>
	<polygon fill="#C58270" points="83.881,27.033 24.054,79.033 41.766,79.033 104.407,27.033 	"/>
	<polygon fill="#C58270" points="96.522,16.047 83.881,27.033 104.407,27.033 117.658,16.033 	"/>
	<polygon fill="#EEA58A" points="345.047,79.033 344.355,78.607 344.882,79.033 	"/>
	<polygon fill="#EEA58A" points="239.921,16.033 245.926,19.702 245.926,18.11 242.546,16.033 	"/>
	<path fill="#EEA58A" d="M371.784,79.033l-125.843-79h-32.206l0.07,0.043L88.26,0l-6.771,6.035l-0.062-0.002L0,79.033h23.124h0.911
		l59.813-52l12.653-11h21.156h111.35h10.914h2.625l3.38,2.077v1.592l97.104,59.331h1.852l-0.527-0.426l0.692,0.426H371.784z
		 M225,7.033h0.061l8.438,5L225,7.033z M236.135,12.093l-1.48-0.948l1.48,0.93l6.791-0.022L236.135,12.093z"/>
</g>
</svg>
