<?xml version="1.0" encoding="utf-8"?>
<!-- Generator: Adobe Illustrator 16.0.0, SVG Export Plug-In . SVG Version: 6.00 Build 0)  -->
<!DOCTYPE svg PUBLIC "-//W3C//DTD SVG 1.1//EN" "http://www.w3.org/Graphics/SVG/1.1/DTD/svg11.dtd">
<svg version="1.1" id="Calque_1" xmlns="http://www.w3.org/2000/svg" xmlns:xlink="http://www.w3.org/1999/xlink" x="0px" y="0px"
	 width="535px" height="70px" viewBox="0 0 535 70" enable-background="new 0 0 535 70" xml:space="preserve">
<g>
	<rect fill="#A25552" width="534" height="70"/>
	<rect x="9" y="11" fill="#D67563" width="254" height="47"/>
	<rect x="13" y="15" fill="#A25552" width="246" height="39"/>
	<rect x="16" y="18" fill="#D67563" width="240" height="33"/>
	<rect x="272" y="11" fill="#D67563" width="253" height="47"/>
	<rect x="277" y="15" fill="#A25552" width="244" height="39"/>
	<rect x="280" y="18" fill="#D67563" width="238" height="33"/>
	<path fill="#A25552" d="M377.838,29c1.467,6,10.369,11.244,21.162,11.244c10.795,0,19.695-5.244,21.162-11.244H377.838z"/>
	<path fill="#A25552" d="M114.838,29c1.467,6,10.369,11.244,21.162,11.244c10.795,0,19.695-5.244,21.162-11.244H114.838z"/>
</g>
</svg>
