<?xml version="1.0" encoding="utf-8"?>
<!-- Generator: Adobe Illustrator 16.0.0, SVG Export Plug-In . SVG Version: 6.00 Build 0)  -->
<!DOCTYPE svg PUBLIC "-//W3C//DTD SVG 1.1//EN" "http://www.w3.org/Graphics/SVG/1.1/DTD/svg11.dtd">
<svg version="1.1" id="Calque_1" xmlns="http://www.w3.org/2000/svg" xmlns:xlink="http://www.w3.org/1999/xlink" x="0px" y="0px"
	 width="99.924px" height="220.828px" viewBox="0 0 99.924 220.828" enable-background="new 0 0 99.924 220.828"
	 xml:space="preserve">
<polygon fill="#D67563" points="33.462,108 28.795,108 28.795,221.828 33.462,221.814 "/>
<polygon fill="#D67563" points="70.796,98 65.462,98 65.462,221.705 70.796,221.692 "/>
<g>
	<path fill="#CF968F" d="M88.167,108.56c0,4.017-17.104,7.272-38.205,7.272c-21.1,0-38.205-3.256-38.205-7.272
		c0-1.005,1.07-1.961,3.003-2.831c5.799-2.611,19.378-4.442,35.202-4.442c14.903,0,27.813,1.624,34.11,3.994
		C86.691,106.265,88.167,107.38,88.167,108.56z"/>
	<rect x="11.757" y="99.12" fill="#CF968F" width="76.41" height="9.285"/>
	<ellipse fill="#FAE7DE" cx="49.962" cy="99.274" rx="38.205" ry="7.273"/>
</g>
<rect x="28.795" y="-2" fill="#D67563" width="4.667" height="100"/>
<rect x="65.462" y="-2" fill="#D67563" width="5.334" height="100"/>
</svg>
