<?xml version="1.0" encoding="utf-8"?>
<!-- Generator: Adobe Illustrator 16.0.0, SVG Export Plug-In . SVG Version: 6.00 Build 0)  -->
<!DOCTYPE svg PUBLIC "-//W3C//DTD SVG 1.1//EN" "http://www.w3.org/Graphics/SVG/1.1/DTD/svg11.dtd">
<svg version="1.1" xmlns="http://www.w3.org/2000/svg" xmlns:xlink="http://www.w3.org/1999/xlink" x="0px" y="0px" width="176px"
	 height="315px" viewBox="0 0 176 315" enable-background="new 0 0 176 315" xml:space="preserve">
<g id="Base">
</g>
<g id="Shoes_noob">
</g>
<g id="chaussure1">
</g>
<g id="Calque_15">
</g>
<g id="Calque_20">
</g>
<g id="Shorts">
</g>
<g id="Jeans">
	<path fill="#5B76AF" d="M124.733,198.96c-0.401,0.153-0.759,0.272-1.029,0.38c-0.965,0.382-2.294-1.204-15.576-0.38
		c-0.132,4.646,2.678,52.752,3.102,56.162c0.726,5.847,6.181,4.484,8.807,1.734c0.787-0.826,4.938-57.868,4.938-57.868
		L124.733,198.96z"/>
	<path fill="#5B76AF" d="M77.733,198.96c-0.401,0.153-0.759,0.272-1.029,0.38c-0.965,0.382-2.294-1.204-15.576-0.38
		c-0.132,4.646,2.678,52.752,3.102,56.162c0.726,5.847,6.181,4.484,8.807,1.734c0.787-0.826,4.938-57.868,4.938-57.868
		L77.733,198.96z"/>
	<path fill="#5B76AF" d="M73.793,202.001c0,0,27.375,4.125,36.25,1.125c0.71-0.24,14.931-1,14.931-1s1.181-12.5,0-18
		c-5.931,1-46.931,2-64.931,0c-0.833,9.5,1.081,16.75,1.081,16.75L73.793,202.001z"/>
</g>
<g id="Calque_16">
</g>
<g id="Calque_13">
</g>
<g id="Calque_18">
</g>
<g id="Calque_11">
</g>
<g id="T-shirt_Noob">
</g>
<g id="classe">
</g>
<g id="pirate">
</g>
<g id="Calque_17">
</g>
<g id="paysan2">
</g>
<g id="Cheveux_1">
</g>
<g id="Calque_19">
</g>
<g id="Calque_7">
</g>
<g id="Cheveux_1_1_">
</g>
</svg>
