<?xml version="1.0" encoding="utf-8"?>
<!-- Generator: Adobe Illustrator 16.0.0, SVG Export Plug-In . SVG Version: 6.00 Build 0)  -->
<!DOCTYPE svg PUBLIC "-//W3C//DTD SVG 1.1//EN" "http://www.w3.org/Graphics/SVG/1.1/DTD/svg11.dtd">
<svg version="1.1" xmlns="http://www.w3.org/2000/svg" xmlns:xlink="http://www.w3.org/1999/xlink" x="0px" y="0px" width="176px"
	 height="315px" viewBox="0 0 176 315" enable-background="new 0 0 176 315" xml:space="preserve">
<g id="Base">
</g>
<g id="Shoes_noob">
</g>
<g id="chaussure1">
</g>
<g id="Calque_15">
</g>
<g id="Calque_20">
</g>
<g id="Shorts">
	<path fill="#666189" d="M58.028,198.835c-0.178,4.275-0.54,18.581,0.082,19.234c2.628,2.75,25.44,5.847,26.168,0
		c0.397-3.216,0.357-12.979,0.242-17.522C73.836,200.703,63.87,200.31,58.028,198.835z"/>
	<path fill="#666189" d="M128.733,198.964c-0.401,0.153-0.759,0.272-1.029,0.38c-0.965,0.382-10.963-0.364-24.245,0.46
		c-0.132,4.646,0.928,14.855,1.352,18.266c0.726,5.847,23.537,2.75,26.162,0c0.787-0.826-2-19.077-2-19.077L128.733,198.964z"/>
	<path fill="#666189" d="M83.29,200.562c0,0,21.023,1.065,24.003,0c12.5,4.314,21.984,0.474,21.984,0.474
		s-1.484-14.159-3.234-16.659c-7,2-51,3-66.5,0c-2.5,5.75-2,17.5,0,19.25S83.29,200.562,83.29,200.562z"/>
</g>
<g id="Jeans">
</g>
<g id="Calque_16">
</g>
<g id="Calque_13">
</g>
<g id="Calque_18">
</g>
<g id="Calque_11">
</g>
<g id="T-shirt_Noob">
</g>
<g id="classe">
</g>
<g id="pirate">
</g>
<g id="Calque_17">
</g>
<g id="paysan2">
</g>
<g id="Cheveux_1">
</g>
<g id="Calque_19">
</g>
<g id="Calque_7">
</g>
<g id="Cheveux_1_1_">
</g>
</svg>
