<?xml version="1.0" encoding="utf-8"?>
<!-- Generator: Adobe Illustrator 16.0.0, SVG Export Plug-In . SVG Version: 6.00 Build 0)  -->
<!DOCTYPE svg PUBLIC "-//W3C//DTD SVG 1.1//EN" "http://www.w3.org/Graphics/SVG/1.1/DTD/svg11.dtd">
<svg version="1.1" xmlns="http://www.w3.org/2000/svg" xmlns:xlink="http://www.w3.org/1999/xlink" x="0px" y="0px" width="176px"
	 height="315px" viewBox="0 0 176 315" enable-background="new 0 0 176 315" xml:space="preserve">
<g id="Base">
</g>
<g id="Shoes_noob">
	<path fill="#763A34" d="M47.093,290.52c0,0-4.281,13.233,0.042,14.777c0,0,9.933,3.771,21.991,0.904
		c0.346-0.081,1.501-0.559,1.934-1.405c0,0,3.073-8.171,0.592-11.382C69.171,290.203,47.093,290.52,47.093,290.52z"/>
	<path fill="#C26257" d="M74.364,271.666c0,0-2.026,4.55-1.743,7.974c0.419,5.08,0.388,12.944-1.146,14.996
		c-2.052,2.737-4.777,2.748-7.98,3.151c-2.274,0.283-11.705,1.27-15.696-1.489c-1.647-1.141-1.744-2.645-1.977-5.438
		c0,0-0.79-9.493,4.084-11.493c4.146-1.699,5.68,0.471,8.004-0.282c2.533-0.814,3.025-1.61,3.027-5.28
		C60.942,271.52,74.364,271.666,74.364,271.666z"/>
	<path opacity="0.6" fill="#6E493D" d="M61.417,283.679c0,0-0.453-0.534-1.599-1.145c0.386-0.22,0.735-0.381,0.998-0.454
		c0.97-0.276,0.188-0.77,0.188-0.77s-0.298-0.196-0.783-0.49c-0.48-0.295-1.417,0.178-1.417,0.178
		c-0.422,0.216-0.806,0.433-1.155,0.646c-0.391-0.117-0.813-0.235-1.276-0.337c0,0-1.024-0.228-1.42,0.177
		c-0.392,0.401-0.634,0.668-0.634,0.668s-0.635,0.67,0.372,0.699c0.274,0.006,0.652,0.076,1.082,0.193
		c-0.962,0.877-1.269,1.505-1.269,1.505c-0.367,0.624,0.08,1.011,0.08,1.011s0.227,0.159,0.733,0.392
		c0.503,0.237,0.897-0.214,1.417-0.826c0.311-0.426,0.736-0.854,1.199-1.248c0.545,0.27,1.062,0.577,1.473,0.911
		c0.648,0.464,1.143,0.806,1.576,0.454c0.428-0.351,0.609-0.562,0.609-0.562S61.926,284.192,61.417,283.679z"/>
	<path fill="#D9DFDF" d="M64.61,253.861c0,0-1.86,0.131-2.709,0.873c-0.872,0.762-1.123,2.411-1.123,4.67
		c0,2.266-0.425,13.746,0.158,14.4c1.259,1.413,7.834,4.334,12.108,1.826c0,0,6.205-16.277,2.906-20.383
		c-0.84-1.051-1.35-1.24-3.171-1.387c0,0-0.322,1.524-0.621,2.299c-0.5,1.293-1.322,2.09-3.284,1.936
		C66.546,257.903,64.042,257.903,64.61,253.861z"/>
	<path opacity="0.5" fill="none" stroke="#9F9A99" stroke-linecap="round" stroke-miterlimit="10" d="M64.352,258.658
		c0,0-1.645,9.141-0.682,13.808"/>
	<path opacity="0.5" fill="none" stroke="#9F9A99" stroke-linecap="round" stroke-miterlimit="10" d="M68.22,259.668
		c0,0-1.643,9.133-0.679,13.804"/>
	<path opacity="0.5" fill="none" stroke="#9F9A99" stroke-linecap="round" stroke-miterlimit="10" d="M71.988,259.776
		c0,0,0.836,6.732-1.202,13.587"/>
	<path fill="#E7E6D3" d="M56.3,280.738c0,0-1.024-0.227-1.417,0.177c-0.395,0.402-0.636,0.669-0.636,0.669s-0.637,0.669,0.37,0.696
		c1.007,0.027,3.407,0.864,4.712,1.943c0.654,0.463,1.149,0.804,1.58,0.452c0.43-0.356,0.609-0.562,0.609-0.562
		s0.338-0.49-0.171-1.001C61.348,283.113,60.071,281.588,56.3,280.738z"/>
	<path fill="#E7E6D3" d="M58.735,280.433c0,0,0.937-0.472,1.417-0.181c0.479,0.295,0.783,0.49,0.783,0.49s0.78,0.494-0.188,0.768
		c-0.97,0.275-3.089,1.682-4.089,3.047c-0.515,0.612-0.908,1.062-1.411,0.826c-0.506-0.233-0.735-0.392-0.735-0.392
		s-0.448-0.389-0.079-1.012C54.433,283.979,55.294,282.19,58.735,280.433z"/>
	<path fill="none" stroke="#4D2D27" stroke-linecap="round" stroke-miterlimit="10" d="M49.928,298.533c0,0-0.458,2.595,0,5.494"/>
	<path fill="none" stroke="#4D2D27" stroke-linecap="round" stroke-miterlimit="10" d="M53.821,299.344c0,0-0.455,2.686,0,5.692"/>
	<path fill="none" stroke="#4D2D27" stroke-linecap="round" stroke-miterlimit="10" d="M58.307,299.946c0,0-0.457,2.688,0,5.696"/>
	<path fill="none" stroke="#4D2D27" stroke-linecap="round" stroke-miterlimit="10" d="M62.22,299.946c0,0-0.455,2.688,0,5.696"/>
	<path fill="none" stroke="#4D2D27" stroke-linecap="round" stroke-miterlimit="10" d="M66.635,299.674c0,0-0.452,2.375,0,5.026"/>
	<path fill="#763A34" d="M137.99,290.52c0,0,4.599,13.508,0.336,15.123c0,0-10.311,3.426-22.368,0.559
		c-0.346-0.081-1.5-0.559-1.931-1.405c0,0-3.075-8.171-0.595-11.382S137.99,290.52,137.99,290.52z"/>
	<path fill="#C26257" d="M110.721,271.666c0,0,2.026,4.55,1.746,7.974c-0.419,5.08-0.391,13.577,1.147,15.629
		c2.048,2.734,4.774,2.115,7.98,2.519c2.271,0.283,11.704,1.27,15.692-1.489c1.652-1.141,1.742-2.645,1.979-5.438
		c0,0,0.788-9.493-4.086-11.493c-4.142-1.699-5.679,0.471-8.005-0.282c-2.53-0.814-3.025-1.61-3.027-5.28
		C124.146,271.52,110.721,271.666,110.721,271.666z"/>
	<path opacity="0.6" fill="#6E493D" d="M123.667,283.679c0,0,0.456-0.534,1.6-1.145c-0.384-0.22-0.739-0.381-0.999-0.454
		c-0.969-0.276-0.184-0.77-0.184-0.77s0.299-0.196,0.78-0.49c0.48-0.295,1.417,0.178,1.417,0.178
		c0.421,0.216,0.808,0.433,1.155,0.646c0.391-0.117,0.815-0.235,1.28-0.337c0,0,1.022-0.228,1.414,0.177
		c0.397,0.401,0.637,0.668,0.637,0.668s0.637,0.67-0.371,0.699c-0.271,0.006-0.651,0.076-1.082,0.193
		c0.961,0.877,1.269,1.505,1.269,1.505c0.366,0.624-0.079,1.011-0.079,1.011s-0.232,0.159-0.735,0.392
		c-0.502,0.237-0.896-0.214-1.417-0.826c-0.309-0.426-0.734-0.854-1.196-1.248c-0.546,0.27-1.064,0.577-1.473,0.911
		c-0.651,0.464-1.146,0.806-1.577,0.454c-0.431-0.351-0.615-0.562-0.615-0.562S123.157,284.192,123.667,283.679z"/>
	<path fill="#D9DFDF" d="M120.475,253.861c0,0,1.858,0.131,2.711,0.873c0.869,0.762,1.12,2.411,1.12,4.67
		c0,2.266,0.426,13.746-0.158,14.4c-1.261,1.413-7.835,4.334-12.105,1.826c0,0-6.206-16.277-2.91-20.383
		c0.845-1.051,1.35-1.24,3.175-1.387c0,0,0.321,1.524,0.62,2.299c0.501,1.293,1.323,2.09,3.282,1.936
		C118.538,257.903,121.045,257.903,120.475,253.861z"/>
	<path opacity="0.5" fill="none" stroke="#9F9A99" stroke-linecap="round" stroke-miterlimit="10" d="M120.735,258.658
		c0,0,1.643,9.141,0.682,13.808"/>
	<path opacity="0.5" fill="none" stroke="#9F9A99" stroke-linecap="round" stroke-miterlimit="10" d="M116.861,259.668
		c0,0,1.646,9.133,0.682,13.804"/>
	<path opacity="0.5" fill="none" stroke="#9F9A99" stroke-linecap="round" stroke-miterlimit="10" d="M113.096,259.776
		c0,0-0.833,6.732,1.202,13.587"/>
	<path fill="#E7E6D3" d="M128.784,280.738c0,0,1.023-0.227,1.417,0.177c0.394,0.402,0.637,0.669,0.637,0.669
		s0.637,0.669-0.371,0.696c-1.007,0.027-3.408,0.864-4.713,1.943c-0.652,0.463-1.145,0.804-1.576,0.452
		c-0.43-0.356-0.614-0.562-0.614-0.562s-0.336-0.49,0.172-1.001C123.736,283.113,125.017,281.588,128.784,280.738z"/>
	<path fill="#E7E6D3" d="M126.354,280.433c0,0-0.94-0.472-1.421-0.181c-0.481,0.295-0.779,0.49-0.779,0.49s-0.782,0.494,0.188,0.768
		c0.97,0.275,3.085,1.682,4.083,3.047c0.52,0.612,0.914,1.062,1.417,0.826c0.503-0.233,0.735-0.392,0.735-0.392
		s0.444-0.389,0.078-1.012C130.654,283.979,129.791,282.19,126.354,280.433z"/>
	<path fill="none" stroke="#4D2D27" stroke-linecap="round" stroke-miterlimit="10" d="M135.16,298.533c0,0,0.456,2.595,0,5.494"/>
	<path fill="none" stroke="#4D2D27" stroke-linecap="round" stroke-miterlimit="10" d="M131.264,299.344c0,0,0.458,2.686,0,5.692"/>
	<path fill="none" stroke="#4D2D27" stroke-linecap="round" stroke-miterlimit="10" d="M126.775,299.946c0,0,0.46,2.688,0,5.696"/>
	<path fill="none" stroke="#4D2D27" stroke-linecap="round" stroke-miterlimit="10" d="M122.865,299.946c0,0,0.458,2.688,0,5.696"/>
	<path fill="none" stroke="#4D2D27" stroke-linecap="round" stroke-miterlimit="10" d="M118.451,299.674c0,0,0.453,2.375,0,5.026"/>
</g>
<g id="chaussure1">
</g>
<g id="Calque_15">
</g>
<g id="Calque_20">
</g>
<g id="Shorts">
</g>
<g id="Jeans">
</g>
<g id="Calque_16">
</g>
<g id="Calque_13">
</g>
<g id="Calque_18">
</g>
<g id="Calque_11">
</g>
<g id="T-shirt_Noob">
</g>
<g id="classe">
</g>
<g id="pirate">
</g>
<g id="Calque_17">
</g>
<g id="paysan2">
</g>
<g id="Cheveux_1">
</g>
<g id="Calque_19">
</g>
<g id="Calque_7">
</g>
<g id="Cheveux_1_1_">
</g>
</svg>
