<?xml version="1.0" encoding="utf-8"?>
<!-- Generator: Adobe Illustrator 16.0.0, SVG Export Plug-In . SVG Version: 6.00 Build 0)  -->
<!DOCTYPE svg PUBLIC "-//W3C//DTD SVG 1.1//EN" "http://www.w3.org/Graphics/SVG/1.1/DTD/svg11.dtd">
<svg version="1.1" xmlns="http://www.w3.org/2000/svg" xmlns:xlink="http://www.w3.org/1999/xlink" x="0px" y="0px" width="176px"
	 height="315px" viewBox="0 0 176 315" enable-background="new 0 0 176 315" xml:space="preserve">
<g id="Base">
</g>
<g id="Shoes_noob">
</g>
<g id="chaussure1">
	<g>
		<path fill="#665B51" d="M42.471,288.799c0,0-1.533,5.085,1.072,6.952c3.749,1.061,12.375,3.041,24.792,1.208
			c1.167-1.583,1.417-6.083,1.417-6.083L42.471,288.799z"/>
		<path fill="#918473" d="M67.501,293.481c0,0-23.875,1.062-25.042-3.271s8.166-5.73,18.5-7.084
			C67.962,286.728,67.501,293.481,67.501,293.481z"/>
		<path fill="#7C7163" d="M67.501,293.481c0,0,0.461-6.754-6.542-10.355c-2.539,0.333-5.919,0.823-8.197,1.204l0.903-0.155
			c0.547-0.08,3.324,2.093,5.752,4.186c0.889,0.766,1.723,3.549,2.349,5.235C65.09,293.588,67.501,293.481,67.501,293.481z"/>
		<path fill="#CCBA9F" d="M63.863,250.384c0,0-3.704,4.134-1.903,8.831s-1.667,20.328-3.667,21.995
			c-1.825,2.433-0.367,3.062,1.831,4c4.003,1.708,6.939,11.534,8.939,10.08s1.315-6.092,1.634-8.164s3.374-25.573,4.208-27.911
			c2.5-5.682-1.111-8.098-1.111-8.098S66.688,261.877,63.863,250.384z"/>
		<path fill="#7C7163" d="M63.543,261.688c0,0,1.875,2,5.438,0.875c0.25,1.375-0.312,2.375-0.312,2.375s-4.012,0.685-5.125-1.188
			C63.418,262.688,63.543,261.688,63.543,261.688z"/>
		<path fill="#7C7163" d="M63.543,266.688c0,0,1.875,2,5.438,0.875c0.25,1.375-0.312,2.375-0.312,2.375s-4.012,0.685-5.125-1.188
			C63.418,267.688,63.543,266.688,63.543,266.688z"/>
		<path fill="#665B51" d="M142.115,288.799c0,0,1.533,5.085-1.072,6.952c-3.749,1.061-12.375,3.041-24.792,1.208
			c-1.167-1.583-1.417-6.083-1.417-6.083L142.115,288.799z"/>
		<path fill="#918473" d="M117.084,293.481c0,0,23.875,1.062,25.042-3.271s-8.166-5.73-18.5-7.084
			C116.624,286.728,117.084,293.481,117.084,293.481z"/>
		<path fill="#7C7163" d="M117.084,293.481c0,0-0.461-6.754,6.542-10.355c2.539,0.333,5.919,0.823,8.197,1.204l-0.903-0.155
			c-0.547-0.08-3.324,2.093-5.752,4.186c-0.889,0.766-1.723,3.549-2.349,5.235C119.496,293.588,117.084,293.481,117.084,293.481z"/>
		<path fill="#CCBA9F" d="M120.723,250.384c0,0,3.704,4.134,1.903,8.831s1.667,20.328,3.667,21.995c1.825,2.433,0.367,3.062-1.831,4
			c-4.003,1.708-6.939,11.534-8.939,10.08s-1.315-6.092-1.634-8.164s-3.374-25.573-4.208-27.911c-2.5-5.682,1.111-8.098,1.111-8.098
			S117.898,261.877,120.723,250.384z"/>
		<path fill="#7C7163" d="M121.043,261.688c0,0-1.875,2-5.438,0.875c-0.25,1.375,0.312,2.375,0.312,2.375s4.012,0.685,5.125-1.188
			C121.168,262.688,121.043,261.688,121.043,261.688z"/>
		<path fill="#7C7163" d="M121.043,266.688c0,0-1.875,2-5.438,0.875c-0.25,1.375,0.312,2.375,0.312,2.375s4.012,0.685,5.125-1.188
			C121.168,267.688,121.043,266.688,121.043,266.688z"/>
	</g>
</g>
<g id="Calque_15">
</g>
<g id="Calque_20">
</g>
<g id="Shorts">
</g>
<g id="Jeans">
</g>
<g id="Calque_16">
</g>
<g id="Calque_13">
</g>
<g id="Calque_18">
</g>
<g id="Calque_11">
</g>
<g id="T-shirt_Noob">
</g>
<g id="classe">
</g>
<g id="pirate">
</g>
<g id="Calque_17">
</g>
<g id="paysan2">
</g>
<g id="Cheveux_1">
</g>
<g id="Calque_19">
</g>
<g id="Calque_7">
</g>
<g id="Cheveux_1_1_">
</g>
</svg>
