<?xml version="1.0" encoding="utf-8"?>
<!-- Generator: Adobe Illustrator 16.0.0, SVG Export Plug-In . SVG Version: 6.00 Build 0)  -->
<!DOCTYPE svg PUBLIC "-//W3C//DTD SVG 1.1//EN" "http://www.w3.org/Graphics/SVG/1.1/DTD/svg11.dtd">
<svg version="1.1" xmlns="http://www.w3.org/2000/svg" xmlns:xlink="http://www.w3.org/1999/xlink" x="0px" y="0px" width="176px"
	 height="315px" viewBox="0 0 176 315" enable-background="new 0 0 176 315" xml:space="preserve">
<g id="Base">
</g>
<g id="Shoes_noob">
</g>
<g id="chaussure1">
</g>
<g id="Calque_15">
</g>
<g id="Calque_20">
</g>
<g id="Shorts">
</g>
<g id="Jeans">
</g>
<g id="Calque_16">
</g>
<g id="Calque_13">
</g>
<g id="Calque_18">
</g>
<g id="Calque_11">
</g>
<g id="T-shirt_Noob">
</g>
<g id="classe">
</g>
<g id="pirate">
</g>
<g id="Calque_17">
</g>
<g id="paysan2" display="none">
	<g display="inline">
		<path fill="#9A625A" d="M21.792,129.251c0,0-4.083,2.125-4.75,5.542c1.667,3.417,7.5,5.324,8.833,4.954
			c1.833-0.537,2.917-5.871,2.917-5.871L21.792,129.251z"/>
		<path fill="#9A625A" d="M156.043,131.063c0,0,3.824,1.447,4.49,4.864c-1.667,3.417-6.99,5.189-8.324,4.819
			c-1.833-0.537-2.917-5.871-2.917-5.871L156.043,131.063z"/>
		<path fill="#DCC0B1" d="M50.475,104.47c0,0-16.675,1.734-28.683,24.781c3,3.884,6.334,4.625,6.334,4.625h0.667
			c0,0,12.019-15.022,18.843-13.761C50.793,117.543,50.475,104.47,50.475,104.47z"/>
		<path fill="#DCC0B1" d="M127.778,106.47c0,0,16.675,1.734,28.683,24.781c-3,3.884-6.334,4.625-6.334,4.625h-0.667
			c0,0-12.019-15.022-18.843-13.761C127.46,119.543,127.778,106.47,127.778,106.47z"/>
		<path fill="#DCC0B1" d="M55.176,196.244c0,0-3.574,9.633-1.351,11.133s61.87,12.75,78.12,1c1.39-8.29-3.901-13.751-3.901-13.751
			L55.176,196.244z"/>
		<path fill="#FBE2D2" d="M56.867,162.301c0,0-4.18,33.104-2.74,38.742c30.351,7.055,74.591,5.865,77.167,0.753
			c2.825-14.612-5.817-92.221-10.549-94.467c-14.451,8.849-56.414,3.181-56.414,3.181S56.69,135.476,56.867,162.301z"/>
		<g>
			<g>
				<path fill="#DCC0B1" d="M130.303,164.124c-5.732,0.837-10.213,3.57-11.176,4.586c-1.424,1.5-7,5.104-15.667,1.604
					c3.835-24-0.24-50.198-0.24-50.198l-0.718,0.24c-0.922,0.151-3.003-2.324-3.823-2.278c6.529,13.654,0.965,55.384,0.965,55.384
					s13.285,4.64,19.064,1.264c4.388-2.562,7.509-4.157,12.036-5.308C130.607,167.674,130.46,165.907,130.303,164.124z
					 M74.644,120.58l-1.613-0.465c0,0-5.994,30.115-2.45,49.323c-4.458,1.124-9.962,2.208-14.198-1.142
					c-0.179,1.446-0.384,3.139-0.598,4.973c0.218,0.136,0.433,0.269,0.657,0.41c5.663,3.568,19.096-0.621,19.096-0.621
					s-5.356-37.757,1.629-51.183C75.941,121.766,76.029,120.948,74.644,120.58z"/>
			</g>
		</g>
		<polygon fill="#4C3A38" points="131.077,106.095 126.159,103.587 125.793,108.876 		"/>
		<path fill="#4C3A38" d="M50.475,104.312l4.707-1.603l0.154,4.619C55.335,107.329,52.23,105.813,50.475,104.312z"/>
		<path fill="#DCC0B1" d="M54.762,103.587c0,0,33.063,15.751,71.396,0c3.032,9.497-0.746,3.754-2.4,5.889s-38.966,18.067-70.449-0.6
			C51.697,105.511,53.398,104.131,54.762,103.587z"/>
		<path fill="#9A625A" d="M50.475,104.312c0,0-9.907,16.521-11.17,58.326c8.398,1.511,11.979,3.327,17.971,7.104
			c5.663,3.568,19.096-0.621,19.096-0.621s-3.94-38.312,3.045-51.737C68.711,116.417,50.475,104.312,50.475,104.312z"/>
		<path fill="#9A625A" d="M131.077,106.095c0,0,6.81,16.373,6.665,58.197c-8.444,1.228-12.083,2.923-18.2,6.495
			c-5.779,3.376-19.064-1.264-19.064-1.264s4.946-38.57-1.583-52.225C109.501,115.752,131.077,106.095,131.077,106.095z"/>
		<path fill="#BCA18A" d="M120.036,166.376c-1.424,1.5-7.076,3.5-15.743,0c3.835-24-0.24-50.198-0.24-50.198l-0.718,0.24
			c-0.922,0.151-3.748,0.643-4.567,0.688c6.529,13.654,1.71,52.417,1.71,52.417s13.285,4.64,19.064,1.264
			c6.117-3.572,9.756-5.268,18.2-6.495c0.005-1.418,0-2.782-0.013-4.104C129.09,158.81,121.348,164.994,120.036,166.376z"/>
		<path fill="#BCA18A" d="M76.373,169.121c0,0-3.94-38.312,3.045-51.737c-1.227-0.11-2.555-0.373-3.94-0.741l-1.613-0.465
			c0,0-5.994,30.115-2.45,49.323c-4.789,1.208-10.789,2.375-15.122-1.958c-3.723-3.723-12.232-6.574-16.778-6.039
			c-0.084,1.637-0.155,3.343-0.209,5.135c8.398,1.511,11.979,3.327,17.971,7.104C62.939,173.311,76.373,169.121,76.373,169.121z"/>
		<circle fill="#A8907B" cx="89" cy="130.733" r="2.546"/>
		<circle fill="#A8907B" cx="89" cy="142.939" r="2.546"/>
		<circle fill="#A8907B" cx="89" cy="154.427" r="2.546"/>
	</g>
</g>
<g id="Cheveux_1" display="none">
</g>
<g id="Calque_19">
	<path fill="#595249" d="M23.632,125.564c0,0-10.284,17.536-11.249,22.799c2.285,3.888,5.667,6.155,6.976,5.896
		c3.559-9.134,8.081-20.127,16.809-25.759C32.771,125.494,25.471,123.878,23.632,125.564z"/>
	<path fill="#8A7B6A" d="M51.209,137.209c0,0,5.512,28.339,5.427,31.329c-4.177,26.005-5.427,36.671-5.427,36.671
		s51.417,13.84,81.5-3.413c-1.917-16.587-4.029-32.249-4.029-32.249s1.765-34.004,0.605-34.671S51.209,137.209,51.209,137.209z"/>
	<path fill="#726658" d="M129.286,134.876c-0.098-0.057-0.749-0.086-1.838-0.094c-13.065,9.374-37.146,18.236-75.921,4.065
		c0.485,2.521,1.461,7.626,2.433,12.93c22.409,7.942,52.836,11.758,75.604-4.015C129.746,140.968,129.759,135.148,129.286,134.876z"
		/>
	<path fill="#CCBA9F" d="M54.293,104.074c0,0-12.822-2.698-30.661,20.552c-1.589,9.5,89.993,48.611,123.452-3.944
		c0,0,0.834-4.181-5.791-6.056c-3.887-1.101-6.278-7.397-15.134-11.039C126.159,103.587,99.13,118.376,54.293,104.074z"/>
	<path fill="#595249" d="M147.761,120.586c0,0,11.697,16.627,13.093,21.792c-1.956,4.063-5.139,6.603-6.465,6.453
		c-4.301-8.809-9.715-19.392-18.879-24.283C138.647,121.271,145.789,119.058,147.761,120.586z"/>
	<path fill="#47403C" d="M154.304,130.283c0,0,3.335,2.34,3.433,3.084c0.098,0.745-0.39,1.876,0.295,3.098
		c0.685,1.223,2.977,1.648,3.143,2.639c0.166,0.989,0.569,3.429-3.593,7.889c-4.163,4.461-4.933,2.241-5.118,2.019
		c0,0,0.341-1.939-0.178-2.146c-0.519-0.208-2.869-2.689-2.641-3.795c0.228-1.106-0.49-4.217-1.791-6.291
		C152.117,135.757,154.611,133.411,154.304,130.283z"/>
	<path fill="#A8967E" d="M147.084,120.682c0,0,0.834-4.181-5.791-6.056c-0.446-0.126-0.871-0.328-1.29-0.579l-0.014-0.004
		c0,0-28.73,48.833-108.838,7.833c-1.491-0.496-2.295-1.125-3.333-2.353c-1.076,1.259-3.07,3.647-4.187,5.103
		C22.043,134.126,113.625,173.237,147.084,120.682z"/>
	<path fill="#726658" d="M95.764,177.674c10.987,0.267,22.713-1.158,32.917-6.127c0.132-0.121,0.246-0.243,0.351-0.364
		c-0.222-1.681-0.351-2.636-0.351-2.636s0.024-0.467,0.063-1.264c-1.46,0.676-13.695,6.055-33.122,6.051
		c-0.667-0.746-1.652-1.513-2.824-1.363c0,0-1.985-0.376-3.477,1.177c-9.597-0.568-20.635-2.5-32.767-6.765
		c0.057,0.518,0.088,0.922,0.081,1.155c-0.147,0.917-0.29,1.81-0.43,2.688c0.113,0.142,0.253,0.251,0.43,0.312
		c0,0,13.972,5.079,31.475,6.685C89.104,179.368,93.779,179.611,95.764,177.674z"/>
	<path fill="#B7A984" d="M56.637,168.538c0,0,42.432,15.43,72.044,1.009c2.362-2.171,0.211-4.333,0.211-4.333
		s-29.474,14.412-72.772-0.978C56.12,164.236,55.151,168.032,56.637,168.538z"/>
	<path fill="#CCBC9A" d="M92.799,169.971c0,0-3.717-0.72-4.799,3.78s9.918,4.488,8.543-1.131
		C96.543,172.62,94.991,169.69,92.799,169.971z"/>
	<path fill="#47403C" d="M17.912,135.769c0,0-3.131,2.607-3.167,3.357s0.543,1.837-0.038,3.111s-2.831,1.889-2.914,2.889
		s-0.284,3.464,4.233,7.565s5.101,1.826,5.267,1.589c0,0-0.5-1.904,0-2.154s2.637-2.917,2.318-4s0.14-4.242,1.266-6.417
		C20.543,141.043,17.864,138.911,17.912,135.769z"/>
	<path fill="#A8967E" d="M50.848,104.148c7.695,7.34,22.106,10.478,40.215,10.478c17.459,0,32.696-3.138,38.26-9.484
		c-0.957-0.552-2.002-1.077-3.164-1.555c0,0-27.028,14.789-71.866,0.487C54.293,104.074,53.065,103.818,50.848,104.148z"/>
</g>
<g id="Calque_7">
</g>
<g id="Cheveux_1_1_">
</g>
</svg>
