<?xml version="1.0" encoding="utf-8"?>
<!-- Generator: Adobe Illustrator 16.0.0, SVG Export Plug-In . SVG Version: 6.00 Build 0)  -->
<!DOCTYPE svg PUBLIC "-//W3C//DTD SVG 1.1//EN" "http://www.w3.org/Graphics/SVG/1.1/DTD/svg11.dtd">
<svg version="1.1" xmlns="http://www.w3.org/2000/svg" xmlns:xlink="http://www.w3.org/1999/xlink" x="0px" y="0px" width="176px"
	 height="315px" viewBox="0 0 176 315" enable-background="new 0 0 176 315" xml:space="preserve">
<g id="Base">
</g>
<g id="Shoes_noob">
</g>
<g id="chaussure1">
</g>
<g id="Calque_15">
</g>
<g id="Calque_20">
</g>
<g id="Shorts">
</g>
<g id="Jeans">
</g>
<g id="Calque_16">
</g>
<g id="Calque_13">
</g>
<g id="Calque_18">
</g>
<g id="Calque_11">
</g>
<g id="T-shirt_Noob">
</g>
<g id="classe">
</g>
<g id="pirate">
</g>
<g id="Calque_17">
</g>
<g id="paysan2">
</g>
<g id="Calque_21">
	<path fill="#C13B3A" d="M55.728,104.176c0,0,15.565,11.533,60.898,3.533C92.619,117.666,68.496,122.809,55.728,104.176z"/>
	<path fill="#A02B30" d="M135.668,120.126c0,0,2.611,18.16,3.111,29.535s1.196,45.722,4.105,47.882
		c-8.031,4.07-94.17,2.003-105.091-5.997c0.218-4.213,4.003-9.488,5.213-15.77c2.207-11.455,4.992-26.258,4.454-44.066
		c-0.22-7.275,7.5-13.497,7.67-18.209C55.793,95.126,67.18,130.825,135.668,120.126z"/>
	<path fill="#544140" d="M56.771,116.21c0,0-1.667,37.054,0.344,41.693c-0.323,15.64-2.975,38.312-1.985,39.64
		c11.329,3.667,55.423,10.988,73.043,3.494c1.286-12.827,0-45.559,0-45.559l-1.331-34.926
		C126.843,120.553,66.935,126.011,56.771,116.21z"/>
	<path fill="#473939" d="M128.745,183.1l-66.674-15.39c0,0-3.318,1.082-5.567,3.197c-0.167,2.585-0.352,3.716-0.535,6.194
		c58.49,29.077,72.592,17.246,72.616,17.134C128.704,190.848,128.748,187.015,128.745,183.1z"/>
	<path fill="#473939" d="M126.843,119.553c0,0-59.908,3.642-70.071-6.159c0,0-0.13,3.963-0.273,8.231
		c0.009,0.004,63.538,22.001,70.609,12.922l0.192-3.006L126.843,119.553z"/>
	<path fill="#E0CBCA" d="M69.297,119.872c0,0,19.164,24.254,22.501,25.629c11.523-7.875,20.937-26.948,20.937-26.948
		S69.462,108.368,69.297,119.872z"/>
	<path fill="#A38B8B" d="M112.209,120.209c-12.48,0.25-30.722,0.012-42.816-2.143c-0.055,0.257-0.092,0.523-0.096,0.806
		c0,0-0.833,0.699,6.309,8.832c7.855,2.312,18.867,5.015,27.187,6.73C107.082,129.004,110.446,123.423,112.209,120.209z"/>
	<path fill="#A38B8B" d="M80.138,122.118c0,0,9.793,15.425,11.21,16.008c4.892-3.343,8.887-13.016,8.887-13.016
		S80.208,117.235,80.138,122.118z"/>
	<path fill="#ED5B48" d="M70.168,113.315c0,0,32.018,0.728,55.991-9.729c0,0,4.287-1.1,5.786,2.449s-3.915,4.064-2.658,5.452
		s4.366,6.603,3.254,10.384c-1.986,6.754-17.498,10.504-62.373-2.496C68.464,117.21,70.168,113.315,70.168,113.315z"/>
	<path fill="#ED5B48" d="M68.464,112.849c0,0-11.061-5.479-13.283-9.476c-3.634,1.596-3.085,7.76-2.265,9.476
		c-1.405,2.496,2.565,9.036,13.547,4.694C67.959,114.709,68.464,112.849,68.464,112.849z"/>
	<circle fill="#E0DCC6" cx="68.464" cy="116.21" r="5.662"/>
	<circle fill="#FBF6E3" cx="68.464" cy="116.21" r="3.361"/>
	<path fill="#C13B3A" d="M121.043,113.501c0,0-20.875,5.75-36.5,3.75C105.293,124.001,118.793,119.21,121.043,113.501z"/>
	<path fill="#473939" d="M128.692,175.983c-0.119-9.178-0.407-17.465-0.493-19.821L88,168.729
		C88,168.729,104.383,174.98,128.692,175.983z"/>
	<path fill="#724646" d="M57.116,157.903c0,0-2.733,6.332-0.528,12.319c31.205,3.32,71.218-3.706,72.698-12.013
		c2.286-6.36-1.48-10.709-1.48-10.709S96.669,161.726,57.116,157.903z"/>
	<path fill="#875757" d="M57.116,157.903c0,0,38.96,17.957,71.694,15.965c0,0,2.39,5.504,0.312,12.506
		c-19.078,2.002-59.785-5.873-72.557-15.311C53.043,164.876,57.116,157.903,57.116,157.903z"/>
	<path fill="#684C4C" d="M106.714,173.261c0,0-4.079,13.615,0,15.74s13.48,0.75,14.029,0s1.549-11.899,1.549-11.899L106.714,173.261
		z"/>
	<path fill="#553D3C" d="M106.374,188.781c0.919,0.704,1.539,0.704,1.539,0.704l1.13-8.484c0.604-2.63,0.303-4.843,0.179-7.122
		l-2.508-0.618C106.714,173.261,102.875,186.08,106.374,188.781z"/>
	<path fill="#C09044" d="M113.147,180.317c0,0-0.703,4.339,2.492,3.874s1.981-4.726,1.214-5.578
		C116.086,177.761,113.147,180.317,113.147,180.317z"/>
	<path fill="#7C5959" d="M106.601,172.296c0,0,13.525-3.42,15.359-2.42s2.833,9.166,0,10.333s-12.467,2.334-13.483,1.167
		S106.601,172.296,106.601,172.296z"/>
	<path fill="#9C6464" d="M56.564,171.063c6.644,4.909,20.849,9.393,35.635,12.285c2.459,0.46,2.93-6.479,3.962-9.139
		c1.03-2.655-1.859-3.902-1.886-3.914c-20.598-4.761-37.16-12.393-37.16-12.393S53.043,164.876,56.564,171.063z"/>
	<circle fill="#473939" cx="91.828" cy="152.751" r="3.09"/>
	<path fill="#ED5B48" d="M128.692,110.548c0,0,19.293,6.132,10.122,39.828c-0.56-12.704-3.825-24.875-8.021-28.504
		C127.929,119.396,128.692,110.548,128.692,110.548z"/>
	<path fill="#ED5B48" d="M57.228,109.548c0,0-19.293,6.132-10.122,39.828c0.56-12.704,3.825-24.875,8.021-28.504
		C57.991,118.396,57.228,109.548,57.228,109.548z"/>
</g>
<g id="Cheveux_1">
</g>
<g id="Calque_19">
</g>
<g id="Calque_7">
</g>
<g id="Cheveux_1_1_">
</g>
</svg>
