<?xml version="1.0" encoding="utf-8"?>
<!-- Generator: Adobe Illustrator 16.0.0, SVG Export Plug-In . SVG Version: 6.00 Build 0)  -->
<!DOCTYPE svg PUBLIC "-//W3C//DTD SVG 1.1//EN" "http://www.w3.org/Graphics/SVG/1.1/DTD/svg11.dtd">
<svg version="1.1" xmlns="http://www.w3.org/2000/svg" xmlns:xlink="http://www.w3.org/1999/xlink" x="0px" y="0px" width="176px"
	 height="315px" viewBox="0 0 176 315" enable-background="new 0 0 176 315" xml:space="preserve">
<g id="Base">
</g>
<g id="Shoes_noob">
</g>
<g id="chaussure1">
</g>
<g id="Calque_15">
</g>
<g id="Calque_20">
</g>
<g id="Shorts">
</g>
<g id="Jeans">
</g>
<g id="Calque_16">
</g>
<g id="Calque_13">
</g>
<g id="Calque_18">
</g>
<g id="Calque_11">
</g>
<g id="T-shirt_Noob">
	<g>
		<path fill="#E1A898" d="M134.394,109.519c2.488,1.376,4.81,3.051,6.973,4.926c-0.449,2.443-1.837,4.431-4.497,6.146
			c-2.747-2.05-5.483-2.995-7.242-3.724L134.394,109.519z"/>
		<path fill="#548679" d="M130.517,103.591c0,0,8.413,1.781,8.413,3.721c0,1.938-3.622,12.259-10.399,13.567
			c-6.778,1.315-2.315-16.021-2.315-16.021L130.517,103.591z"/>
		<path fill="#548679" d="M54.131,102.748c0,0-12.425,0-13.089,4.563c-0.279,1.918,3.624,12.259,10.4,13.567
			c6.78,1.315,6.256-14.965,6.256-14.965L54.131,102.748z"/>
		<path fill="#9FD3AE" d="M127.53,108.21c0,0,2.735,34.917,3.255,40.171c0.524,5.255,0.355,31.225,0,35.308
			c0,0-48.428,9.389-77.683,1.46c0,0,1.797-23.93,1.336-28.017c-0.458-4.081-1.9-31.602-2.97-45.639
			C51.468,111.493,107.409,120.858,127.53,108.21z"/>
		<path fill="#548679" d="M87.964,150.997c-1.429-4.037-2.066-7.511-2.192-10.49l-1.632,2.688l-23.007-24.309l14.492,1.704
			c-9.575-3.151-16.22-6.396-19.796-9.933c-2.832-0.471-4.964-0.796-4.964-0.796c1.07,14.039,3.116,43.188,3.574,47.27
			c0.461,4.087-1.336,28.017-1.336,28.017c1.152,0.313,2.333,0.591,3.539,0.851l56.972-3.479
			C104.62,179.979,93.532,166.735,87.964,150.997z"/>
		<path fill="#548679" d="M89,133.337c0,0,11.91-1.276,18.66,8.939c4.961,7.507,6.565,15.183,0.24,25.009
			c-6.325,9.827-23.689,9.539-29.028,4.865c-5.341-4.67-10.489-9.691-9.086-22.659C71.191,136.527,86.343,133.491,89,133.337z"/>
		<path fill="#548679" d="M130.392,106.874c0,0,0.067,2.769,0.185,4.252c-6.058,7.324-22.908,17.463-41.333,17.67
			c-15.013,0.17-31.823-6.239-39.998-17.778c-2.512-3.027-0.751-3.221-0.495-4.144C48.75,106.874,110.271,119.52,130.392,106.874z"
			/>
		<path fill="#9FD3AE" d="M134.805,97.839c-1.21-2.595-4.35-2.36-6.591-1.796c-0.52,3.489-0.982,6.406-2.122,7.548
			c-3.68,3.677-44.299,15.297-70.299,0.77c0,0.004,0,0.012,0,0.017c-2,1.013-5.502,0.988-8.199-0.607
			c10.292,18.884,47.195,20.068,68.545,12.951C137.803,109.5,136.775,102.06,134.805,97.839z"/>
		<path fill="#548679" d="M53.103,184.292c0,0,0.215-0.614,0.155-2.056c-0.155-3.396,22.679,0.84,34.723,0.013
			c0,0-6.774-1.09,4.556-2.01c6.015-0.487,38.428-0.979,38.385-0.379c-0.024,0.355-0.069,2.644-0.332,3.005l-38.166,7.847
			L53.103,184.292z"/>
		<path fill="#9FD3AE" d="M130.858,182.52c0,0,4.82,2.831,4.759,11.033c-0.044,6.236-4.367,7.177-5.914,7.791
			c-2.373,0.939-64.646,6.75-75.43,0.06c0,0-10.026-6.384-1.171-16.255C53.103,185.148,88.266,189.16,130.858,182.52z"/>
		<path fill="#548679" d="M53.103,185.148c-9.262,10.824,1.171,16.255,1.171,16.255c5.82,3.614,26.619,3.585,44.917,2.643
			c0.084-0.021,0.154-0.042,0.195-0.06c1.546-0.61-5.324-2.938-5.279-9.176c0.047-6.226,4.519-7.839,7.14-9.112
			c-2.336,0.146-4.592-0.755-6.81-0.659C78.596,183.59,65.207,185.126,53.103,185.148z"/>
		<path fill="#FFD878" d="M72.964,154.958c0,9.762,7.912,17.677,17.673,17.677c9.762,0,17.675-7.915,17.675-17.677
			c0-9.758-7.914-17.673-17.675-17.673C80.876,137.285,72.964,145.2,72.964,154.958z"/>
		<g>
			<g>
				<path fill="#639A83" d="M106.101,146.36c0,0-0.774,0.595-0.662,1.739c0.111,1.141-0.165,14.491,0.662,15
					c0.83,0.507,10.917,0.891,10.917-3.665c0-4.558-3.823-4.472-4.377-4.598c0,0,4.709,0.04,4.377-4.2
					C116.686,146.403,110.977,143.946,106.101,146.36z"/>
				<path fill="#639A83" d="M62.087,161.532c0,0-1.526-11.475-0.639-17.958c0,0,7.692-0.447,8.328,0.188
					c0.638,0.637,4.004,6.418,4.004,6.418l0.635-6.887c0,0,6.104-0.356,6.104,1.549c0,1.907-1.269,16.402-2.29,16.655
					c-1.017,0.255-6.056-0.951-6.056-0.951s-2.907-6.932-3.606-8.713c-0.19-0.486-0.827,0.059-0.827,0.059s1.081,9.64-0.064,9.64
					C66.533,161.532,65.898,161.532,62.087,161.532z"/>
				<path fill="#E2E2E1" d="M62.087,159.911c0,0-1.526-11.476-0.639-17.96c0,0,7.692-0.443,8.328,0.194
					c0.638,0.633,4.004,6.418,4.004,6.418l0.635-6.894c0,0,6.104-0.352,6.104,1.554s-1.269,16.4-2.29,16.654
					c-1.017,0.255-6.056-0.951-6.056-0.951s-2.907-6.93-3.606-8.711c-0.19-0.486-0.827,0.058-0.827,0.058s1.081,9.638-0.064,9.638
					C66.533,159.911,65.898,159.911,62.087,159.911z"/>
				<path fill="#639A83" d="M88.271,148.563c0,0-4.704-1.02-5.847,3.243c-1.146,4.255,2.415,5.783,3.814,5.846
					c1.398,0.062,6.356-1.462,4.641-6.228C90.88,151.425,90.496,149.452,88.271,148.563z"/>
				<path fill="#FFFFFF" d="M88.271,146.909c0,0-4.704-1.017-5.847,3.245c-1.146,4.258,2.42,5.69,3.814,5.845
					c1.736,0.191,6.356-1.461,4.641-6.23C90.88,149.769,90.496,147.799,88.271,146.909z"/>
				<path fill="#639A83" d="M100.181,148.563c0,0-4.704-1.02-5.848,3.243c-1.147,4.255,2.412,5.783,3.813,5.846
					c1.396,0.062,6.355-1.462,4.638-6.228C102.785,151.425,102.403,149.452,100.181,148.563z"/>
				<path fill="#FFFFFF" d="M100.181,146.909c0,0-4.704-1.017-5.848,3.245c-1.147,4.258,2.42,5.69,3.813,5.845
					c1.737,0.191,6.355-1.461,4.638-6.23C102.785,149.769,102.403,147.799,100.181,146.909z"/>
				<path fill="#639A83" d="M98.178,150.059c0,0,1.354-0.291,1.685,0.938c0.33,1.225-0.696,1.665-1.099,1.685
					c-0.401,0.016-1.827-0.42-1.333-1.798C97.431,150.884,97.54,150.313,98.178,150.059z"/>
				<path fill="#639A83" d="M86.279,150.059c0,0,1.356-0.291,1.686,0.938c0.33,1.225-0.696,1.665-1.099,1.685
					c-0.402,0.016-1.827-0.42-1.335-1.798C85.53,150.884,85.642,150.313,86.279,150.059z"/>
				<path fill="#FFFFFF" d="M106.101,144.582c0,0-0.774,0.592-0.662,1.736c0.111,1.144-0.165,14.493,0.662,15.002
					c0.83,0.507,10.917,0.889,10.917-3.664c0-4.559-3.823-4.474-4.377-4.604c0,0,4.709,0.045,4.377-4.19
					C116.686,144.622,110.977,142.167,106.101,144.582z"/>
				<path fill="#639A83" d="M111.419,147.249c0,0-1.977,1.511-1.317,1.89c0.658,0.379,2.304,0.244,2.384-0.979
					C112.573,146.937,111.419,147.249,111.419,147.249z"/>
				<path fill="#639A83" d="M110.29,156.195c0,0-0.771,1.89,0.462,2.046c1.234,0.153,2.065-0.854,1.444-1.734
					S110.29,156.195,110.29,156.195z"/>
			</g>
		</g>
		<path id="XMLID_4_" fill="none" stroke="#639A83" stroke-linecap="round" stroke-miterlimit="10" d="M98.103,165.525
			c0,0-4.931-7.443-11.868-0.319"/>
		<path fill="#548679" d="M63.048,111.878c0-1.672,0.741-2.819,1.358-3.609c-3.135-1.011-5.028-1.809-7.896-3.41
			c0,0.005-0.818-0.486-0.818-0.481c-2.768,0.481-5.7,0.993-8.428-0.774c3.776,7.694,11.461,11.705,20.869,14.475
			C62.781,116.464,63.048,111.878,63.048,111.878z"/>
	</g>
</g>
<g id="classe">
</g>
<g id="pirate">
</g>
<g id="Calque_17">
</g>
<g id="paysan2">
</g>
<g id="Cheveux_1">
</g>
<g id="Calque_19">
</g>
<g id="Calque_7">
</g>
<g id="Cheveux_1_1_">
</g>
</svg>
