<?xml version="1.0" encoding="utf-8"?>
<!-- Generator: Adobe Illustrator 16.0.0, SVG Export Plug-In . SVG Version: 6.00 Build 0)  -->
<!DOCTYPE svg PUBLIC "-//W3C//DTD SVG 1.1//EN" "http://www.w3.org/Graphics/SVG/1.1/DTD/svg11.dtd">
<svg version="1.1" xmlns="http://www.w3.org/2000/svg" xmlns:xlink="http://www.w3.org/1999/xlink" x="0px" y="0px" width="176px"
	 height="315px" viewBox="0 0 176 315" enable-background="new 0 0 176 315" xml:space="preserve">
<g id="Base">
</g>
<g id="Shoes_noob">
</g>
<g id="chaussure1">
</g>
<g id="Calque_15">
</g>
<g id="Calque_20">
</g>
<g id="Shorts">
</g>
<g id="Jeans">
</g>
<g id="Calque_16">
</g>
<g id="Calque_13">
</g>
<g id="Calque_18">
</g>
<g id="Calque_11">
</g>
<g id="T-shirt_Noob">
</g>
<g id="classe">
</g>
<g id="pirate">
	<g>
		<path fill="#B76635" d="M127.164,101.405c0,0-1.326,2.965-0.973,2.968s3.453-3.81,3.453-3.81L127.164,101.405z"/>
		<path fill="#BFCAD8" d="M31.927,116.504c0,0-5.383,3.915-5.3,5.747c2.666,1.332,6.295,3.98,6.065,5.774
			c3.27-0.79,5.518-5.232,5.518-5.899S35.394,116.049,31.927,116.504z"/>
		<path fill="#9AA5B6" d="M54.762,103.587c0,0-9.469-1.766-16.094,2.449s-7.857,8.596-6.741,10.468
			c3.991,0.997,6.07,6.634,5.487,7.117c2.254,2.38,11.93,2.011,13.379-0.12c2.124-3.125,7.697-1,8.161-4.25
			S57.865,105.947,54.762,103.587z"/>
		<path fill="#BFCAD8" d="M148.058,119.182c0,0,4.712,4.701,4.347,6.498c-2.84,0.903-6.835,2.958-6.886,4.766
			c-3.107-1.286-4.641-6.023-4.538-6.683S144.703,118.195,148.058,119.182z"/>
		<path fill="#9AA5B6" d="M127.498,102.885c0,0,9.628-0.278,15.521,4.911s6.432,9.709,5.039,11.386
			c-4.097,0.367-7.023,5.614-6.523,6.182c-2.595,2.002-12.098,0.14-13.199-2.19c-1.615-3.416-7.45-2.179-7.405-5.462
			C120.977,114.429,124.067,104.736,127.498,102.885z"/>
		<path fill="#7F4742" d="M54.887,116.695c0,0,2.41,42.187,2.229,43.181s-4.386,40.84-2.229,41.92s63.031,5.705,75.668,0
			c1.91-0.862-2.113-39.667-2.163-41.156s0.834-47.764,0.834-47.764L54.887,116.695z"/>
		<path fill="#6B3C38" d="M129.226,124.601c0.14-7.486,0-11.725,0-11.725l-74.339,3.819c0,0,0.184,3.224,0.447,7.905l0,0
			c0,0,18.093,18.859,40.843,16.609C115.825,139.267,126.451,127.914,129.226,124.601z"/>
		<path fill="#6B3C38" d="M128.392,160.64c-0.003-0.104-0.002-0.43,0.002-0.936c-0.063-0.074-0.113-0.152-0.181-0.226
			c-27.131,10.485-68.334,0.71-71.088,0.037c0.002,0.191-0.001,0.317-0.009,0.36c-0.057,0.312-0.512,4.473-1.042,10.061
			c0.108,0.193,0.205,0.388,0.333,0.58c42.978,11.998,72.498,0,72.498,0s0.124-0.244,0.295-0.666
			C128.759,164.813,128.407,161.083,128.392,160.64z"/>
		<path fill="#4C3434" d="M56.976,155.479c0,0,43.158,10.853,71.238,0c4.08,4.397,0.691,11.038,0.691,11.038
			s-29.521,11.998-72.498,0C52.929,161.269,56.976,155.479,56.976,155.479z"/>
		<path fill="#CC4140" d="M57.116,110.251c0,0,33.649,16.797,68.663,0.336c4.014-1.711,1.384-2.182,1.384-2.182l0.462-2.229
			c0,0,4.313,0.37,4.834,3.033c0.75,3.827-9.167,14.541-16.93,17.44s-29.494,9.465-47.555,0.1
			c-11.828-3.862-19.949-18.039-13.065-20.456C55.028,108.55,57.116,110.251,57.116,110.251z"/>
		<path fill="#A03536" d="M55.182,105.771c0,0,35.584,16.277,70.598-0.184c4.014-1.711,1.384-2.182,1.384-2.182l0.462-2.229
			c0,0,1.079,2.337,1.601,5c0.75,3.827-12.308,20.929-21.198,23.425c-9.275,2.604-18.561,4.608-32.235-0.844
			c-11.828-3.862-27.768-25.047-20.884-27.464C55.028,103.55,55.182,105.771,55.182,105.771z"/>
		<path fill="#CC4140" d="M55.182,103.771c0,0,35.584,16.277,70.598-0.184c4.014-1.711,1.384-2.182,1.384-2.182l0.462-2.229
			c0,0,4.313,0.37,4.834,3.033c0.75,3.827-9.167,14.541-16.93,17.44s-29.494,9.465-47.555,0.1
			c-11.828-3.862-19.949-18.039-13.065-20.456C55.028,101.55,55.182,103.771,55.182,103.771z"/>
		<path fill="#E4C64A" d="M89,159.501c0,0,12.793-1.486,13.293-0.743s2.5,12.743,1.375,12.868s-14.211,2.391-14.668,1.07
			S87.792,159.636,89,159.501z M91.958,169.866c0.269,0.776,7.961-0.556,8.623-0.629c0.661-0.074-0.515-7.128-0.809-7.565
			c-0.294-0.437-7.814,0.438-7.814,0.438C91.248,162.188,91.689,169.09,91.958,169.866z"/>
	</g>
</g>
<g id="Calque_17">
</g>
<g id="paysan2">
</g>
<g id="Cheveux_1" display="none">
</g>
<g id="Calque_19">
</g>
<g id="Calque_7">
</g>
<g id="Cheveux_1_1_">
</g>
</svg>
