<?xml version="1.0" encoding="utf-8"?>
<!-- Generator: Adobe Illustrator 16.0.0, SVG Export Plug-In . SVG Version: 6.00 Build 0)  -->
<!DOCTYPE svg PUBLIC "-//W3C//DTD SVG 1.1//EN" "http://www.w3.org/Graphics/SVG/1.1/DTD/svg11.dtd">
<svg version="1.1" xmlns="http://www.w3.org/2000/svg" xmlns:xlink="http://www.w3.org/1999/xlink" x="0px" y="0px" width="176px"
	 height="315px" viewBox="0 0 176 315" enable-background="new 0 0 176 315" xml:space="preserve">
<g id="Base">
</g>
<g id="Shoes_noob">
</g>
<g id="chaussure1">
</g>
<g id="Calque_15">
</g>
<g id="Calque_20">
</g>
<g id="Shorts">
</g>
<g id="Jeans">
</g>
<g id="Calque_16">
</g>
<g id="Calque_13">
</g>
<g id="Calque_18">
</g>
<g id="Calque_11">
</g>
<g id="T-shirt_Noob">
</g>
<g id="classe">
</g>
<g id="pirate">
</g>
<g id="Calque_17">
</g>
<g id="paysan2">
	<g>
		<path fill="#9A625A" d="M21.792,129.251c0,0-4.083,2.125-4.75,5.542c1.667,3.417,7.5,5.324,8.833,4.954
			c1.833-0.537,2.917-5.871,2.917-5.871L21.792,129.251z"/>
		<path fill="#9A625A" d="M156.043,131.063c0,0,3.824,1.447,4.49,4.864c-1.667,3.417-6.99,5.189-8.324,4.819
			c-1.833-0.537-2.917-5.871-2.917-5.871L156.043,131.063z"/>
		<path fill="#DCC0B1" d="M50.475,104.47c0,0-16.675,1.734-28.683,24.781c3,3.884,6.334,4.625,6.334,4.625h0.667
			c0,0,12.019-15.022,18.843-13.761C50.793,117.543,50.475,104.47,50.475,104.47z"/>
		<path fill="#DCC0B1" d="M127.778,106.47c0,0,16.675,1.734,28.683,24.781c-3,3.884-6.334,4.625-6.334,4.625h-0.667
			c0,0-12.019-15.022-18.843-13.761C127.46,119.543,127.778,106.47,127.778,106.47z"/>
		<path fill="#DCC0B1" d="M55.176,196.244c0,0-3.574,9.633-1.351,11.133s61.87,12.75,78.12,1c1.39-8.29-3.901-13.751-3.901-13.751
			L55.176,196.244z"/>
		<path fill="#FBE2D2" d="M56.867,162.301c0,0-4.18,33.104-2.74,38.742c30.351,7.055,74.591,5.865,77.167,0.753
			c2.825-14.612-5.817-92.221-10.549-94.467c-14.451,8.849-56.414,3.181-56.414,3.181S56.69,135.476,56.867,162.301z"/>
		<g>
			<g>
				<path fill="#DCC0B1" d="M130.303,164.124c-5.732,0.837-10.213,3.57-11.176,4.586c-1.424,1.5-7,5.104-15.667,1.604
					c3.835-24-0.24-50.198-0.24-50.198l-0.718,0.24c-0.922,0.151-3.003-2.324-3.823-2.278c6.529,13.654,0.965,55.384,0.965,55.384
					s13.285,4.64,19.064,1.264c4.388-2.562,7.509-4.157,12.036-5.308C130.607,167.674,130.46,165.907,130.303,164.124z
					 M74.644,120.58l-1.613-0.465c0,0-5.994,30.115-2.45,49.323c-4.458,1.124-9.962,2.208-14.198-1.142
					c-0.179,1.446-0.384,3.139-0.598,4.973c0.218,0.136,0.433,0.269,0.657,0.41c5.663,3.568,19.096-0.621,19.096-0.621
					s-5.356-37.757,1.629-51.183C75.941,121.766,76.029,120.948,74.644,120.58z"/>
			</g>
		</g>
		<polygon fill="#4C3A38" points="131.077,106.095 126.159,103.587 125.793,108.876 		"/>
		<path fill="#4C3A38" d="M50.475,104.312l4.707-1.603l0.154,4.619C55.335,107.329,52.23,105.813,50.475,104.312z"/>
		<path fill="#DCC0B1" d="M54.762,103.587c0,0,33.063,15.751,71.396,0c3.032,9.497-0.746,3.754-2.4,5.889s-38.966,18.067-70.449-0.6
			C51.697,105.511,53.398,104.131,54.762,103.587z"/>
		<path fill="#9A625A" d="M50.475,104.312c0,0-9.907,16.521-11.17,58.326c8.398,1.511,11.979,3.327,17.971,7.104
			c5.663,3.568,19.096-0.621,19.096-0.621s-3.94-38.312,3.045-51.737C68.711,116.417,50.475,104.312,50.475,104.312z"/>
		<path fill="#9A625A" d="M131.077,106.095c0,0,6.81,16.373,6.665,58.197c-8.444,1.228-12.083,2.923-18.2,6.495
			c-5.779,3.376-19.064-1.264-19.064-1.264s4.946-38.57-1.583-52.225C109.501,115.752,131.077,106.095,131.077,106.095z"/>
		<path fill="#BCA18A" d="M120.036,166.376c-1.424,1.5-7.076,3.5-15.743,0c3.835-24-0.24-50.198-0.24-50.198l-0.718,0.24
			c-0.922,0.151-3.748,0.643-4.567,0.688c6.529,13.654,1.71,52.417,1.71,52.417s13.285,4.64,19.064,1.264
			c6.117-3.572,9.756-5.268,18.2-6.495c0.005-1.418,0-2.782-0.013-4.104C129.09,158.81,121.348,164.994,120.036,166.376z"/>
		<path fill="#BCA18A" d="M76.373,169.121c0,0-3.94-38.312,3.045-51.737c-1.227-0.11-2.555-0.373-3.94-0.741l-1.613-0.465
			c0,0-5.994,30.115-2.45,49.323c-4.789,1.208-10.789,2.375-15.122-1.958c-3.723-3.723-12.232-6.574-16.778-6.039
			c-0.084,1.637-0.155,3.343-0.209,5.135c8.398,1.511,11.979,3.327,17.971,7.104C62.939,173.311,76.373,169.121,76.373,169.121z"/>
		<circle fill="#A8907B" cx="89" cy="130.733" r="2.546"/>
		<circle fill="#A8907B" cx="89" cy="142.939" r="2.546"/>
		<circle fill="#A8907B" cx="89" cy="154.427" r="2.546"/>
	</g>
</g>
<g id="Cheveux_1" display="none">
</g>
<g id="Calque_19">
</g>
<g id="Calque_7">
</g>
<g id="Cheveux_1_1_">
</g>
</svg>
