<?xml version="1.0" encoding="utf-8"?>
<!-- Generator: Adobe Illustrator 16.0.0, SVG Export Plug-In . SVG Version: 6.00 Build 0)  -->
<!DOCTYPE svg PUBLIC "-//W3C//DTD SVG 1.1//EN" "http://www.w3.org/Graphics/SVG/1.1/DTD/svg11.dtd">
<svg version="1.1" id="Calque_1" xmlns="http://www.w3.org/2000/svg" xmlns:xlink="http://www.w3.org/1999/xlink" x="0px" y="0px"
	 width="89px" height="73px" viewBox="0 0 89 73" enable-background="new 0 0 89 73" xml:space="preserve">
<rect fill="#FFFFFF" width="89" height="73"/>
<ellipse fill="#E9B4A9" cx="44.5" cy="62.353" rx="32.289" ry="7.362"/>
<g id="Cheveux_1_2_">
</g>
<g id="Calque_15">
	<g>
		<g>
			<path fill="#8D5751" d="M32.055,20.77c0,0,8.796-2.15,13.488,1.76c-1.564,6.646-3.744,35.892-3.632,37.103
				c-5.556,3.36-9.856,1.938-9.856,1.938l-1.661-1.988l-3.812,0.05l-1.369,2.238l-10.83-1.37c0,0-1.185-9.842,0.947-10.409
				c2.132-0.565,13.597-0.78,15.063-5.082c0.879-5.474,1.075-20.33,1.075-20.33S29.627,22.139,32.055,20.77z"/>
			<path fill="#613A38" d="M28.209,53.408l6.083-0.686v1.133c0,0-2.788,1.268-6.506,1.086C24.07,54.761,28.209,53.408,28.209,53.408
				z"/>
			<path fill="#9B7062" d="M26.582,59.631l3.812-0.05l1.661,1.987c0,0,4.363,1.519,9.78-0.773c-0.017-0.189,0.097-2.223,0.181-3.582
				c-11.699,4.82-27.503,0.559-27.875,0.455c0.097,1.604,0.243,2.831,0.243,2.831l10.83,1.37L26.582,59.631z"/>
			<path fill="#714542" d="M31.469,24.678c0,0,6.714-1.236,10.711,0.574c-4.586-0.953-10.747,1.454-10.747,1.454L31.469,24.678z"/>
			<path fill="#714542" d="M42.966,44.646c0,0-8.829,4.864-9.236,6.086c-0.407,1.224-0.016,8.506-0.016,8.506s7.488-1.654,8.3-2.024
				C42.826,56.844,43.514,45.756,42.966,44.646z"/>
			<path fill="#714542" d="M19.118,49.57c0,0,4.128-1.157,6.043-1.106c2.549,2.133,3.454,4.034,3.454,4.034
				s-0.079,3.998-0.537,7.113c-1.496,0.02-2.359-0.069-2.359-0.069s0.452-4.778-0.272-5.504
				C24.724,53.312,20.483,52.257,19.118,49.57z"/>
		</g>
		<g>
			<path fill="#8D5751" d="M62.281,21.67c0,0-8.649-2.683-13.57,0.935c1.156,6.729,1.551,36.053,1.364,37.255
				c5.341,3.692,9.721,2.535,9.721,2.535l1.778-1.883l3.802,0.281l1.23,2.317L77.5,62.403c0,0,1.783-9.752-0.312-10.448
				c-2.094-0.694-13.524-1.606-14.725-5.99c-0.544-5.517,0.165-20.357,0.165-20.357S64.62,23.184,62.281,21.67z"/>
			<path fill="#613A38" d="M64.131,54.482l-6.03-1.056l-0.069,1.131c0,0,2.706,1.436,6.428,1.48
				C68.18,56.084,64.131,54.482,64.131,54.482z"/>
			<path fill="#9B7062" d="M65.376,60.792l-3.802-0.282l-1.778,1.883c0,0-4.38,1.158-9.721-2.534
				c0.028-0.188,0.044-1.058,0.043-2.42c11.384,5.524,27.419,2.233,27.796,2.152c-0.195,1.595-0.566,3.703-0.566,3.703
				l-10.741-0.185L65.376,60.792z"/>
			<path fill="#714542" d="M62.628,25.606c0,0-6.627-1.643-10.726-0.08c4.635-0.672,10.637,2.106,10.637,2.106L62.628,25.606z"/>
			<path fill="#714542" d="M49.936,44.838c0,0,8.517,5.393,8.848,6.637c0.333,1.246-0.502,8.491-0.502,8.491
				s-7.373-2.107-8.161-2.526S49.322,45.911,49.936,44.838z"/>
			<path fill="#714542" d="M73.439,51.205c0,0-4.05-1.406-5.965-1.473c-2.674,1.974-3.693,3.816-3.693,3.816
				s-0.164,3.995,0.103,7.133c1.492,0.11,2.359,0.074,2.359,0.074s-0.16-4.797,0.606-5.477
				C67.615,54.599,71.914,53.804,73.439,51.205z"/>
		</g>
	</g>
</g>
<g id="Cheveux_1_1_">
</g>
</svg>
