<?xml version="1.0" encoding="utf-8"?>
<!-- Generator: Adobe Illustrator 16.0.0, SVG Export Plug-In . SVG Version: 6.00 Build 0)  -->
<!DOCTYPE svg PUBLIC "-//W3C//DTD SVG 1.1//EN" "http://www.w3.org/Graphics/SVG/1.1/DTD/svg11.dtd">
<svg version="1.1" id="Calque_1" xmlns="http://www.w3.org/2000/svg" xmlns:xlink="http://www.w3.org/1999/xlink" x="0px" y="0px"
	 width="89px" height="73px" viewBox="0 0 89 73" enable-background="new 0 0 89 73" xml:space="preserve">
<rect fill="#FFFFFF" width="89" height="73"/>
<ellipse fill="#E9B4A9" cx="44.5" cy="62.353" rx="32.289" ry="7.362"/>
<g>
	<g id="Calque_20">
		<g>
			<path fill="#93826D" d="M42.303,22.494c0,0,0.504-3.974-0.047-4.785c-3,1.345-5.758,1.373-8.442-0.132
				c-0.56,1.218,0.447,4.667,0.587,4.843C34.542,22.595,39.552,25.365,42.303,22.494z"/>
			<path fill="#786859" d="M34.254,22.068c0,0-1.708,0.658-1.326,1.21c0.383,0.552,1.223,1.275,0.659,1.825
				c-0.564,0.55-0.815,2.203-0.315,2.662c0.5,0.458,0.277,2.736-0.323,3.541c-0.37,1.537,0.255,2.976,0.255,2.976
				s7.38,0.758,9.539,0.838c0.384-1.082,0.495-1.97-0.181-3.637c-0.256-0.631-0.314-2.919,0.412-3.674
				c0.726-0.754,0.471-2.089,0.316-2.913c-0.155-0.824-0.985-2.403-0.985-2.403S37.771,24.934,34.254,22.068z"/>
			<path fill="#625649" d="M42.975,32.855c-0.444,0.124-1.413,0.552-2.252,0.354c-5.598-1.617-7.864-0.776-7.887-0.77
				c-0.105,1.275,0.367,1.843,0.367,1.843s7.38,0.758,9.54,0.837C43.003,34.381,43.132,33.726,42.975,32.855z"/>
			<path fill="#93826D" d="M42.995,34.168c0,0,1.349,0.257,1.042,2.542c-0.308,2.285-1.934,13.55-1.575,15.776
				c0.359,2.228-0.603,7.265-1.629,8.138c-12.441,2.354-17.478,1.659-20.92,0.532c-1.114-5.173-0.315-10.973,6.719-9.903
				c2.84,0.927,6.539,1.173,6.623,0.173c0.735-8.73-2.02-12.319-0.05-17.144C34.508,32.929,40.659,36.002,42.995,34.168z"/>
			<path fill="#83705E" d="M43.468,35.753c-2.162,1.559-8.361-0.507-10.741,0.063c-0.348,1.55-0.276,3.043-0.074,4.71
				c2.173,0.853,7.053,2.368,10.772,0.678c0.268-2.036,0.509-3.746,0.609-4.494c0.039-0.281,0.051-0.531,0.043-0.753
				C43.743,35.798,43.468,35.753,43.468,35.753z"/>
			<path fill="#C9B39B" d="M26.631,51.253c0,0-6.48-3.145-9.707,3.845c0,0-1.472,4.811-0.389,6.683
				c1.98,1.147,10.219,1.632,13.114,0.277C30.357,57.625,28.688,53.292,26.631,51.253z"/>
			<path fill="#DDC7B3" d="M43.062,33.638c-0.642,2.292-10.474-1.416-11.23,0.732c-0.718,1.583-0.878,2.91-0.306,3.582
				c0.043,0.019,8.467,4.122,13.315,0.336l0,0c0.403-0.638,0.4-1.617,0.457-1.99C45.655,34.008,43.062,33.638,43.062,33.638z"/>
		</g>
		<g>
			<path fill="#93826D" d="M53.057,22.783c0,0-0.108-3.926,0.507-4.665c2.799,1.602,5.649,1.718,8.414,0.509
				c0.429,1.245-0.772,4.813-0.927,4.971C60.896,23.756,55.465,25.85,53.057,22.783z"/>
			<path fill="#786859" d="M61.194,23.279c0,0,1.36,0.673,0.935,1.175c-0.428,0.502-1.316,1.126-0.819,1.717
				s0.583,2.229,0.052,2.628c-0.532,0.399-0.536,2.643-0.026,3.486c0.212,1.536-0.538,2.879-0.538,2.879s-7.273,0.027-9.388-0.104
				c-0.27-1.092-0.293-1.97,0.526-3.531c0.312-0.591,0.59-2.819-0.046-3.625c-0.636-0.806-0.258-2.084-0.027-2.873
				c0.23-0.789,1.193-2.25,1.193-2.25S57.486,25.736,61.194,23.279z"/>
			<path fill="#625649" d="M51.399,32.829c0.422,0.164,1.324,0.675,2.164,0.563c5.618-1.038,7.748,0.002,7.77,0.011
				c-0.02,1.255-0.536,1.762-0.536,1.762s-7.273,0.027-9.388-0.104C51.226,34.315,51.162,33.663,51.399,32.829z"/>
			<path fill="#93826D" d="M51.253,34.108c0,0-1.341,0.121-1.261,2.38c0.079,2.259,0.578,13.408,0.013,15.546
				c-0.564,2.14-0.113,7.146,0.804,8.099c11.912,3.499,16.894,3.307,20.362,2.539c1.586-4.94,1.367-10.677-5.601-10.313
				c-2.86,0.632-6.494,0.514-6.478-0.47c0.126-8.591,3.159-11.826,1.703-16.724C59.653,33.718,53.356,36.124,51.253,34.108z"/>
			<path fill="#83705E" d="M50.64,35.609c1.958,1.73,8.207,0.312,10.474,1.099c0.189,1.546-0.023,2.996-0.382,4.604
				c-2.202,0.621-7.111,1.63-10.578-0.38c-0.063-2.012-0.134-3.704-0.159-4.443c-0.011-0.277,0.002-0.523,0.03-0.74
				C50.367,35.626,50.64,35.609,50.64,35.609z"/>
			<path fill="#C9B39B" d="M65.572,52.358c0,0,6.627-2.441,9.101,4.689c0,0,0.97,4.836-0.267,6.559
				c-2.043,0.929-10.13,0.605-12.823-0.996C61.32,58.218,63.367,54.15,65.572,52.358z"/>
			<path fill="#DDC7B3" d="M51.24,33.584c0.403,2.298,10.356-0.37,10.889,1.799c0.547,1.615,0.575,2.924-0.048,3.525
				c-0.044,0.014-8.661,3.205-13.025-0.958l0,0c-0.333-0.661-0.234-1.616-0.256-1.986C48.674,33.695,51.24,33.584,51.24,33.584z"/>
		</g>
	</g>
	<g id="Cheveux_1_1_">
	</g>
</g>
</svg>
