<?xml version="1.0" encoding="utf-8"?>
<!-- Generator: Adobe Illustrator 16.0.0, SVG Export Plug-In . SVG Version: 6.00 Build 0)  -->
<!DOCTYPE svg PUBLIC "-//W3C//DTD SVG 1.1//EN" "http://www.w3.org/Graphics/SVG/1.1/DTD/svg11.dtd">
<svg version="1.1" id="Calque_1" xmlns="http://www.w3.org/2000/svg" xmlns:xlink="http://www.w3.org/1999/xlink" x="0px" y="0px"
	 width="71.634px" height="63.004px" viewBox="0 0 71.634 63.004" enable-background="new 0 0 71.634 63.004" xml:space="preserve">
<g>
	<ellipse fill="#EDBDAE" cx="35.806" cy="55.41" rx="35.806" ry="7.594"/>
	<path fill="#7D3B2E" d="M6.324,40.117c0,0-3.863,14.168,0.77,15.578c0,0,10.663,3.494,23.236-0.123
		c0.361-0.104,1.555-0.666,1.971-1.58c0,0,2.838-8.768,0.064-12.029C29.592,38.699,6.324,40.117,6.324,40.117z"/>
	<path fill="#C55E4C" d="M34.154,18.895c0,0-1.913,4.897-1.448,8.494c0.691,5.336,1.048,13.633-0.472,15.872
		c-2.028,2.985-4.9,3.132-8.258,3.715c-2.384,0.413-12.282,1.917-16.626-0.798c-1.795-1.121-1.967-2.705-2.353-5.639
		c0,0-1.3-9.971,3.743-12.321c4.287-1.997,6.013,0.216,8.428-0.688c2.629-0.985,3.108-1.848,2.932-5.719
		C19.991,19.398,34.154,18.895,34.154,18.895z"/>
	<path opacity="0.6" fill="#774B38" d="M21.094,32.199c0,0-0.504-0.54-1.744-1.129c0.396-0.249,0.758-0.438,1.031-0.529
		c1.008-0.337,0.158-0.819,0.158-0.819s-0.325-0.192-0.847-0.478c-0.522-0.286-1.487,0.258-1.487,0.258
		c-0.436,0.249-0.829,0.496-1.186,0.738c-0.417-0.107-0.87-0.208-1.365-0.296c0,0-1.09-0.187-1.486,0.257
		c-0.396,0.445-0.637,0.735-0.637,0.735s-0.638,0.74,0.425,0.717c0.289-0.005,0.692,0.051,1.149,0.152
		c-0.97,0.972-1.263,1.651-1.263,1.651c-0.355,0.676,0.134,1.062,0.134,1.062s0.25,0.154,0.792,0.378
		c0.543,0.224,0.937-0.272,1.454-0.942c0.307-0.465,0.734-0.935,1.202-1.379c0.589,0.261,1.15,0.561,1.597,0.895
		c0.711,0.456,1.249,0.791,1.685,0.398c0.436-0.393,0.62-0.623,0.62-0.623S21.656,32.717,21.094,32.199z"/>
	<path fill="#E3E6E7" d="M22.993,0.6c0,0-1.955,0.225-2.815,1.052c-0.879,0.846-1.064,2.597-0.954,4.981
		c0.111,2.385,0.229,14.515,0.877,15.177c1.396,1.429,8.476,4.186,12.856,1.329c0,0,5.74-17.471,2.063-21.636
		c-0.939-1.065-1.485-1.241-3.414-1.305c-0.001,0-0.264,1.622-0.542,2.454c-0.464,1.387-1.291,2.272-3.367,2.2
		C25.234,4.766,22.592,4.887,22.993,0.6z"/>
	<path opacity="0.5" fill="none" stroke="#A9A19E" stroke-linecap="round" stroke-miterlimit="10" d="M22.956,5.67
		c0,0-1.285,9.717-0.04,14.593"/>
	<path opacity="0.5" fill="none" stroke="#A9A19E" stroke-linecap="round" stroke-miterlimit="10" d="M27.087,6.543
		c0,0-1.286,9.714-0.04,14.59"/>
	<path opacity="0.5" fill="none" stroke="#A9A19E" stroke-linecap="round" stroke-miterlimit="10" d="M31.064,6.471
		c0,0,1.212,7.06-0.6,14.391"/>
	<path fill="#EEEDDA" d="M15.552,29.349c0,0-1.091-0.186-1.487,0.258c-0.396,0.443-0.636,0.735-0.636,0.735
		s-0.638,0.738,0.424,0.716c1.064-0.021,3.637,0.747,5.065,1.817c0.711,0.456,1.249,0.79,1.686,0.398
		c0.436-0.394,0.619-0.624,0.619-0.624s0.331-0.53-0.232-1.046C20.991,31.605,19.569,30.063,15.552,29.349z"/>
	<path fill="#EEEDDA" d="M18.104,28.908c0,0,0.964-0.544,1.485-0.258c0.523,0.286,0.848,0.478,0.848,0.478s0.85,0.481-0.159,0.819
		c-1.009,0.337-3.173,1.926-4.158,3.415c-0.516,0.669-0.91,1.165-1.452,0.942c-0.543-0.223-0.794-0.379-0.794-0.379
		s-0.489-0.387-0.134-1.062C13.74,32.861,14.561,30.93,18.104,28.908z"/>
	<path fill="none" stroke="#553227" stroke-linecap="round" stroke-miterlimit="10" d="M9.706,48.43c0,0-0.354,2.758,0.27,5.793"/>
	<path fill="none" stroke="#553227" stroke-linecap="round" stroke-miterlimit="10" d="M13.854,49.09c0,0-0.35,2.857,0.28,6.006"/>
	<path fill="none" stroke="#553227" stroke-linecap="round" stroke-miterlimit="10" d="M18.613,49.506c0,0-0.349,2.859,0.28,6.007"
		/>
	<path fill="none" stroke="#553227" stroke-linecap="round" stroke-miterlimit="10" d="M22.738,49.313c0,0-0.349,2.858,0.28,6.007"
		/>
	<path fill="none" stroke="#553227" stroke-linecap="round" stroke-miterlimit="10" d="M27.383,48.811c0,0-0.364,2.526,0.247,5.302"
		/>
	<path fill="#7D3B2E" d="M70.086,40.391c0,0,3.908,14.549-0.693,15.954c0,0-11.1,2.897-23.602-0.958
		c-0.359-0.109-1.543-0.693-1.941-1.617c0,0-2.67-8.819,0.165-12.027C46.85,38.531,70.086,40.391,70.086,40.391z"/>
	<path fill="#C55E4C" d="M42.663,18.645c0,0,1.819,4.933,1.286,8.52c-0.791,5.322-1.351,14.275,0.127,16.544
		c1.971,3.023,4.883,2.56,8.229,3.206c2.376,0.457,12.243,2.148,16.638-0.483c1.816-1.086,2.02-2.666,2.459-5.593
		c0,0,1.49-9.944-3.508-12.389c-4.247-2.078-6.016,0.102-8.413-0.849c-2.609-1.034-3.071-1.907-2.822-5.773
		C56.814,19.417,42.663,18.645,42.663,18.645z"/>
	<path opacity="0.6" fill="#774B38" d="M55.469,32.195c0,0,0.514-0.53,1.765-1.096c-0.392-0.257-0.749-0.453-1.021-0.549
		c-1.002-0.356-0.143-0.822-0.143-0.822s0.328-0.186,0.855-0.461c0.527-0.275,1.482,0.286,1.482,0.286
		c0.43,0.257,0.818,0.512,1.172,0.76c0.418-0.099,0.873-0.191,1.369-0.27c0,0,1.094-0.167,1.48,0.285
		c0.388,0.452,0.623,0.748,0.623,0.748s0.625,0.751-0.438,0.709c-0.288-0.011-0.692,0.038-1.151,0.13
		c0.951,0.99,1.23,1.675,1.23,1.675c0.343,0.682-0.154,1.061-0.154,1.061s-0.252,0.149-0.799,0.361
		c-0.547,0.215-0.931-0.289-1.436-0.969c-0.297-0.471-0.717-0.949-1.175-1.402c-0.594,0.25-1.161,0.539-1.614,0.863
		c-0.719,0.443-1.264,0.768-1.691,0.367c-0.429-0.4-0.608-0.634-0.608-0.634S54.897,32.701,55.469,32.195z"/>
	<path fill="#E3E6E7" d="M54.17,0.564c0,0,1.95,0.263,2.795,1.106c0.863,0.862,1.016,2.617,0.859,4.999
		c-0.156,2.382-0.505,14.508-1.165,15.158c-1.423,1.402-8.554,4.024-12.88,1.084c0,0-5.406-17.577-1.651-21.671
		c0.959-1.047,1.509-1.212,3.438-1.24c0,0,0.232,1.625,0.494,2.463c0.438,1.395,1.248,2.296,3.324,2.264
		C51.85,4.687,54.489,4.858,54.17,0.564z"/>
	<path opacity="0.5" fill="none" stroke="#A9A19E" stroke-linecap="round" stroke-miterlimit="10" d="M54.111,5.635
		c0,0,1.101,9.739-0.238,14.591"/>
	<path opacity="0.5" fill="none" stroke="#A9A19E" stroke-linecap="round" stroke-miterlimit="10" d="M49.963,6.43
		c0,0,1.102,9.737-0.236,14.588"/>
	<path opacity="0.5" fill="none" stroke="#A9A19E" stroke-linecap="round" stroke-miterlimit="10" d="M45.988,6.281
		c0,0-1.346,7.035,0.326,14.4"/>
	<path fill="#EEEDDA" d="M61.064,29.45c0,0,1.094-0.165,1.48,0.286c0.389,0.451,0.623,0.748,0.623,0.748s0.624,0.75-0.438,0.708
		c-1.063-0.041-3.649,0.677-5.099,1.721c-0.72,0.441-1.264,0.766-1.691,0.366c-0.43-0.402-0.607-0.635-0.607-0.635
		s-0.322-0.536,0.251-1.041C55.583,31.603,57.034,30.087,61.064,29.45z"/>
	<path fill="#EEEDDA" d="M58.521,28.96c0,0-0.953-0.562-1.48-0.286c-0.528,0.275-0.856,0.461-0.856,0.461s-0.858,0.465,0.144,0.822
		s3.135,1.986,4.092,3.492c0.504,0.68,0.889,1.184,1.435,0.971c0.548-0.213,0.8-0.363,0.8-0.363s0.498-0.378,0.154-1.061
		C62.809,32.996,62.024,31.05,58.521,28.96z"/>
	<path fill="none" stroke="#553227" stroke-linecap="round" stroke-miterlimit="10" d="M66.546,48.639c0,0,0.302,2.764-0.38,5.787"
		/>
	<path fill="none" stroke="#553227" stroke-linecap="round" stroke-miterlimit="10" d="M62.387,49.221c0,0,0.295,2.862-0.395,5.998"
		/>
	<path fill="none" stroke="#553227" stroke-linecap="round" stroke-miterlimit="10" d="M57.62,49.545c0,0,0.295,2.865-0.395,6.001"
		/>
	<path fill="none" stroke="#553227" stroke-linecap="round" stroke-miterlimit="10" d="M53.5,49.274c0,0,0.294,2.864-0.395,6.001"/>
	<path fill="none" stroke="#553227" stroke-linecap="round" stroke-miterlimit="10" d="M48.865,48.684c0,0,0.316,2.532-0.348,5.295"
		/>
</g>
</svg>
