<?xml version="1.0" encoding="utf-8"?>
<!-- Generator: Adobe Illustrator 16.0.0, SVG Export Plug-In . SVG Version: 6.00 Build 0)  -->
<!DOCTYPE svg PUBLIC "-//W3C//DTD SVG 1.1//EN" "http://www.w3.org/Graphics/SVG/1.1/DTD/svg11.dtd">
<svg version="1.1" id="Calque_1" xmlns="http://www.w3.org/2000/svg" xmlns:xlink="http://www.w3.org/1999/xlink" x="0px" y="0px"
	 width="89px" height="73px" viewBox="0 0 89 73" enable-background="new 0 0 89 73" xml:space="preserve">
<ellipse fill="#E9B4A9" cx="44.5" cy="62.353" rx="32.289" ry="7.362"/>
<g id="chaussure1">
	<g>
		<path fill="#675C52" d="M15.8,55.152c0,0-0.912,5.231,1.898,6.773c3.849,0.604,12.65,1.534,24.758-1.775
			c0.969-1.711,0.677-6.209,0.677-6.209L15.8,55.152z"/>
		<path fill="#918474" d="M41.211,56.798c0,0-23.575,3.919-25.253-0.241c-1.679-4.162,7.419-6.668,17.516-9.254
			C40.858,50.04,41.211,56.798,41.211,56.798z"/>
		<path fill="#7C7264" d="M41.211,56.798c0,0-0.353-6.76-7.737-9.495c-2.48,0.637-5.777,1.527-7.993,2.18l0.877-0.263
			c0.533-0.146,3.551,1.679,6.213,3.466c0.975,0.653,2.136,3.316,2.96,4.916C38.83,57.193,41.211,56.798,41.211,56.798z"/>
		<path fill="#CCBA9F" d="M32.429,14.449c0,0-3.181,4.548-0.83,8.996c2.352,4.447,0.784,20.381-1.002,22.276
			c-1.52,2.635,0.003,3.084,2.298,3.752c4.179,1.215,8.272,10.618,10.083,8.936c1.811-1.684,0.576-6.205,0.644-8.301
			c0.067-2.097,0.28-25.793,0.828-28.214c1.801-5.941-2.074-7.906-2.074-7.906S36.612,25.521,32.429,14.449z"/>
		<path fill="#7C7264" d="M33.467,25.709c0,0,2.102,1.761,5.503,0.216c0.413,1.335-0.024,2.396-0.024,2.396s-3.9,1.162-5.23-0.564
			C33.463,26.717,33.467,25.709,33.467,25.709z"/>
		<path fill="#7C7264" d="M34.067,30.673c0,0,2.101,1.761,5.503,0.216c0.413,1.335-0.024,2.396-0.024,2.396s-3.9,1.162-5.23-0.564
			C34.063,31.681,34.067,30.673,34.067,30.673z"/>
		<path fill="#675C52" d="M75.734,55.965c0,0,0.608,5.276-2.286,6.652c-3.878,0.381-12.718,0.802-24.614-3.201
			c-0.868-1.766-0.316-6.238-0.316-6.238L75.734,55.965z"/>
		<path fill="#918474" d="M50.271,56.141c0,0,23.31,5.273,25.225,1.215c1.916-4.058-7.021-7.084-16.952-10.248
			C51.014,49.413,50.271,56.141,50.271,56.141z"/>
		<path fill="#7C7264" d="M50.271,56.141c0,0,0.742-6.729,8.271-9.033c2.439,0.777,5.68,1.858,7.854,2.638l-0.86-0.312
			c-0.522-0.177-3.642,1.471-6.402,3.102c-1.01,0.597-2.323,3.188-3.239,4.734C52.625,56.673,50.271,56.141,50.271,56.141z"/>
		<path fill="#CCBA9F" d="M61.482,14.369c0,0,2.914,4.725,0.311,9.029S59.834,43.7,61.507,45.695
			c1.365,2.718-0.181,3.078-2.511,3.611c-4.242,0.974-8.871,10.123-10.582,8.338s-0.216-6.229-0.163-8.324
			c0.054-2.096,1.209-25.766,0.802-28.214c-1.453-6.035,2.527-7.773,2.527-7.773S56.669,25.18,61.482,14.369z"/>
		<path fill="#7C7264" d="M59.797,25.551c0,0-2.199,1.636-5.507-0.102c-0.489,1.309-0.113,2.393-0.113,2.393
			s3.827,1.385,5.255-0.261C59.743,26.557,59.797,25.551,59.797,25.551z"/>
		<path fill="#7C7264" d="M58.911,30.472c0,0-2.199,1.636-5.507-0.102c-0.489,1.309-0.113,2.393-0.113,2.393
			s3.828,1.385,5.254-0.261C58.857,31.478,58.911,30.472,58.911,30.472z"/>
	</g>
</g>
<g id="Cheveux_1_2_">
</g>
</svg>
