<?xml version="1.0" encoding="utf-8"?>
<!-- Generator: Adobe Illustrator 16.0.0, SVG Export Plug-In . SVG Version: 6.00 Build 0)  -->
<!DOCTYPE svg PUBLIC "-//W3C//DTD SVG 1.1//EN" "http://www.w3.org/Graphics/SVG/1.1/DTD/svg11.dtd">
<svg version="1.1" id="Calque_1" xmlns="http://www.w3.org/2000/svg" xmlns:xlink="http://www.w3.org/1999/xlink" x="0px" y="0px"
	 width="496.229px" height="399.27px" viewBox="0 0 496.229 399.27" enable-background="new 0 0 496.229 399.27"
	 xml:space="preserve">
<g>
	<path opacity="0.4" fill="#E09790" d="M25.077,0.314c0,0-14-3.58-22,13.42s1,30,11,22S50.077,10.895,25.077,0.314z"/>
	<path opacity="0.4" fill="#E09790" d="M40.868,107.265c0,0,20.49-8.477,14.685-36.716S26.738,34.616,21.81,53.64
		C16.882,72.662,0.429,117.257,40.868,107.265z"/>
	<path opacity="0.4" fill="#E09790" d="M450.55,301.154c0,0-14.106-3.135-21.563,14.11c-7.458,17.245,1.949,29.952,11.69,21.64
		C450.419,328.592,475.873,310.938,450.55,301.154z"/>
	<path opacity="0.4" fill="#E09790" d="M470.561,334.845c0,0-20.912,7.371-16.621,35.88c4.289,28.509,26.855,37.419,32.791,18.686
		C492.667,370.678,511.476,327.024,470.561,334.845z"/>
	<path opacity="0.4" fill="#E09790" d="M14.457,214.734c0,0-4.589,40.943,84.974,32.5c63.646-6,37.646-63.523,18.146-73.75
		C74.171,150.721,8.577,132.234,14.457,214.734z"/>
</g>
</svg>
