<?xml version="1.0" encoding="utf-8"?>
<!-- Generator: Adobe Illustrator 16.0.0, SVG Export Plug-In . SVG Version: 6.00 Build 0)  -->
<!DOCTYPE svg PUBLIC "-//W3C//DTD SVG 1.1//EN" "http://www.w3.org/Graphics/SVG/1.1/DTD/svg11.dtd">
<svg version="1.1" id="Calque_1" xmlns="http://www.w3.org/2000/svg" xmlns:xlink="http://www.w3.org/1999/xlink" x="0px" y="0px"
	 width="1075px" height="571.471px" viewBox="1 0 1075 571.471" enable-background="new 1 0 1075 571.471" xml:space="preserve">
<g id="fond">
	<g>
		<polygon fill="#D8EDEA" points="1074.171,528.388 0,527.163 0,0.112 1076.999,0 		"/>
		<polygon fill="#ABD6BA" points="1077,423.285 0,403.149 0,0.112 1077,0 		"/>
		
			<linearGradient id="SVGID_1_" gradientUnits="userSpaceOnUse" x1="607.7422" y1="468.2383" x2="607.7422" y2="116.8953" gradientTransform="matrix(1 0 0 -1 -47.5 401.4707)">
			<stop  offset="0" style="stop-color:#FFFBF8;stop-opacity:0"/>
			<stop  offset="1" style="stop-color:#FFFBF8"/>
		</linearGradient>
		<polygon opacity="0.6" fill="url(#SVGID_1_)" enable-background="new    " points="1141.865,353.895 -6.781,345.704 
			-21.381,-46.5 1138.061,-34.5 		"/>
		
			<linearGradient id="SVGID_2_" gradientUnits="userSpaceOnUse" x1="586" y1="71.2378" x2="586" y2="-187.6919" gradientTransform="matrix(1 0 0 -1 -47.5 401.4707)">
			<stop  offset="0.0033" style="stop-color:#E0E8AD"/>
			<stop  offset="0.9958" style="stop-color:#4AB9AB"/>
		</linearGradient>
		<path fill="url(#SVGID_2_)" d="M534.281,344.603c-135.198,3.074-243.709-15.123-362.203-14.346
			C87.885,330.81,28,340.257,0,345.376v1.012v1.07v4.969V569.51v16.877l1077,2.775V347.71v-2.322
			C1028.003,337.251,669.479,341.526,534.281,344.603z"/>
		<path fill="#A24A46" d="M0,585.461c0,0,1077,2.361,1077-0.352c0-24.551,0-115.723,0-115.723l-60.012,26.019l-25.594-16.973
			l-36.558,15.614l-67.632,7.883l-38.391,25.001l-47.522-16.177l-21.938,17.874l-71.288-14.479l-40.215,18.327l-40.216-18.327
			l-21.935,22.4l-76.773-17.648l-23.763,21.044l-43.871-20.365l-31.01,23.527l-34.796-21.49c0,0-18.279,25.117-19.791,21.044
			s-32.218-24.438-32.218-24.438l-26.645,14.256l-41.991-14.935l-35.237,23.42l-31.022-59.813l-36.105,28.512l-54.837-25.796
			l-31.075,17.648L57.32,483.866l-22.88,12.558L0,469.436v100.075V469.436l-0.031-0.048"/>
		<path fill="#BC7068" d="M1077.016,485.044l-60.026,26.361l-25.593-16.973l-36.559,15.614l-67.632,7.883l-38.391,25.001
			l-47.522-16.177l-21.938,17.874l-71.289-14.479l-40.215,18.327l-40.216-18.327l-21.935,22.4l-76.773-17.648l-23.763,21.044
			l-43.871-20.365l-31.01,23.527l-34.796-21.49c0,0-18.279,25.117-19.791,21.044s-32.217-24.438-32.217-24.438l-26.646,14.256
			l-41.991-14.935l-35.237,23.42l-31.022-59.813l-36.105,28.512l-54.837-25.796l-31.075,17.648l-29.247-17.648l-22.85,12.558
			l-34.49-26.402l0.014,106.367h1077.008C1077.009,548.084,1077.016,485.044,1077.016,485.044z"/>
	</g>
</g>
<g id="Calque_4" display="none">
	<rect x="1535" y="897.388" display="inline" fill="#A7D2C9" width="331" height="341"/>
	<path display="inline" fill="#FFF7D3" d="M1724.5,899.349c0,0-22.02,61.002-22.5,99.188c-0.496,39.473,19.334,74.625-9.666,145.473
		c0,0,154.217,6.765,204.791,1.66c0,0,26.875-39.947,8.375-122.402c-9.411-41.942,30.5-138.738,30.5-138.738L1724.5,899.349z"/>
	<polygon display="inline" fill="#F4E6B7" points="1721.877,905.396 1926.053,911.031 1936,884.527 1728,886.388 	"/>
	<path display="inline" fill="#FFF7D3" d="M1720.25,869.638c0,0-21,14.998-0.75,29.711c0,0,196.833,2.527,209.833-3.961
		c13-6.487,8.334-27-3.666-27C1925.667,868.388,1832.333,868.388,1720.25,869.638z"/>
	
		<image display="inline" overflow="visible" enable-background="new    " width="413" height="413" xlink:href="AC65EE06052D31A2.jpg"  transform="matrix(0.9976 0 0 0.9976 -81.4507 -451.2666)">
	</image>
	
		<rect x="1478" y="1048.388" display="inline" fill="#F7F8F8" stroke="#FFFFFF" stroke-width="2" stroke-miterlimit="10" width="471" height="200"/>
</g>
<g id="Calque_1_1_" display="none">
</g>
<g id="character" display="none">
	<path display="inline" fill="#E7CAB1" d="M435.334,282.176c0,0,0.763,27.257,1.066,28.861c0.304,1.606-2.075,41.259,1.921,42.698
		c3.996,1.44,7.785-26.469,7.57-37.342c-0.149-7.623,3.921-36.255,3.921-36.255L435.334,282.176z"/>
	<path display="inline" fill="#63848E" d="M427.29,277.022c0,0-0.831,17.157,0,18.028c2.773,2.903,26.854,6.176,27.62,0
		c0.766-6.178,0-21.277,0-21.277L427.29,277.022z"/>
	<path display="inline" fill="#774B38" d="M417.769,371.54c0,0-4.78,13.848,0.056,14.98c0,0,10.477,4.604,23.206,1.576
		c0.364-0.088,1.583-0.593,2.042-1.486c0,0,3.243-8.627,0.625-12.014C441.079,371.208,417.769,371.54,417.769,371.54z"/>
	<path display="inline" fill="#AB7363" d="M446.559,351.638c0,0-2.138,4.803-1.841,8.418c0.441,5.361,0.412,14.334-1.212,16.5
		c-2.165,2.887-5.04,2.232-8.421,2.658c-2.4,0.301-12.358,1.342-16.572-1.572c-1.741-1.203-1.839-2.793-2.087-5.742
		c0,0-0.834-10.021,4.312-12.133c4.375-1.795,5.996,0.496,8.451-0.295c2.671-0.861,3.189-1.701,3.194-5.576
		C432.388,351.479,446.559,351.638,446.559,351.638z"/>
	<path display="inline" opacity="0.6" fill="#774B38" enable-background="new    " d="M432.893,364.319c0,0-0.479-0.562-1.689-1.209
		c0.408-0.23,0.777-0.402,1.055-0.48c1.023-0.29,0.197-0.811,0.197-0.811s-0.315-0.207-0.824-0.518
		c-0.509-0.31-1.497,0.188-1.497,0.188c-0.447,0.229-0.851,0.457-1.219,0.683c-0.412-0.127-0.86-0.248-1.35-0.358
		c0,0-1.081-0.237-1.497,0.188c-0.416,0.426-0.67,0.705-0.67,0.705s-0.673,0.709,0.391,0.736c0.289,0.008,0.688,0.082,1.141,0.205
		c-1.014,0.926-1.338,1.59-1.338,1.59c-0.387,0.658,0.084,1.067,0.084,1.067s0.243,0.166,0.774,0.414
		c0.532,0.249,0.947-0.229,1.495-0.873c0.328-0.45,0.777-0.899,1.265-1.321c0.576,0.287,1.123,0.612,1.553,0.967
		c0.689,0.49,1.211,0.85,1.665,0.478s0.647-0.593,0.647-0.593S433.43,364.862,432.893,364.319z"/>
	<path display="inline" fill="#E3E6E7" d="M436.262,332.843c0,0-1.963,0.135-2.86,0.92c-0.918,0.805-1.186,2.545-1.186,4.932
		c0,2.388-0.447,14.51,0.169,15.201c1.328,1.492,8.271,4.576,12.78,1.928c0,0,6.548-17.186,3.069-21.518
		c-0.89-1.106-1.426-1.309-3.351-1.462c-0.001,0-0.339,1.607-0.655,2.427c-0.528,1.363-1.396,2.209-3.465,2.041
		C438.307,337.108,435.662,337.106,436.262,332.843z"/>
	
		<path display="inline" opacity="0.3" fill="none" stroke="#BDBABA" stroke-linecap="round" stroke-miterlimit="10" enable-background="new    " d="
		M435.988,337.905c0,0-1.737,9.646-0.721,14.574"/>
	
		<path display="inline" opacity="0.3" fill="none" stroke="#BDBABA" stroke-linecap="round" stroke-miterlimit="10" enable-background="new    " d="
		M440.595,338.972c0,0-1.736,9.644-0.72,14.571"/>
	
		<path display="inline" opacity="0.3" fill="none" stroke="#BDBABA" stroke-linecap="round" stroke-miterlimit="10" enable-background="new    " d="
		M444.775,339.083c0,0,0.882,7.107-1.271,14.348"/>
	<path display="inline" fill="#EEEDDA" d="M427.489,361.214c0,0-1.081-0.236-1.497,0.188c-0.416,0.425-0.67,0.705-0.67,0.705
		s-0.672,0.709,0.391,0.735c1.063,0.028,3.597,0.915,4.975,2.052c0.689,0.487,1.212,0.848,1.665,0.477
		c0.454-0.373,0.648-0.594,0.648-0.594s0.354-0.515-0.183-1.057C432.817,363.722,431.469,362.114,427.489,361.214z"/>
	<path display="inline" fill="#EEEDDA" d="M430.058,360.892c0,0,0.989-0.498,1.497-0.188c0.509,0.311,0.824,0.518,0.824,0.518
		s0.826,0.521-0.197,0.811c-1.022,0.29-3.259,1.775-4.312,3.217c-0.547,0.645-0.963,1.122-1.495,0.874s-0.775-0.415-0.775-0.415
		s-0.47-0.409-0.083-1.068C425.516,364.638,426.425,362.747,430.058,360.892z"/>
	<path display="inline" fill="none" stroke="#593D33" stroke-linecap="round" stroke-miterlimit="10" d="M420.761,380.002
		c0,0-0.48,2.737,0,5.799"/>
	<path display="inline" fill="none" stroke="#593D33" stroke-linecap="round" stroke-miterlimit="10" d="M424.873,380.854
		c0,0-0.482,2.838,0,6.012"/>
	<path display="inline" fill="none" stroke="#593D33" stroke-linecap="round" stroke-miterlimit="10" d="M429.608,381.491
		c0,0-0.482,2.84,0,6.014"/>
	<path display="inline" fill="none" stroke="#593D33" stroke-linecap="round" stroke-miterlimit="10" d="M433.737,381.491
		c0,0-0.481,2.84,0,6.014"/>
	<path display="inline" fill="none" stroke="#593D33" stroke-linecap="round" stroke-miterlimit="10" d="M438.4,381.206
		c0,0-0.481,2.506,0,5.307"/>
	<path display="inline" fill="#CCB09F" d="M1793,997.388c0,0,62.587,56.975,13.09,247.281s-80.572,95.736-80.572,95.736
		s-61.92,64.892,128.57,57.981s163.912-17,163.912-17l75-409.889C2093,971.499,1724.003,832.396,1793,997.388z"/>
	<polygon display="inline" fill="#C6E4E0" points="1580.791,857.638 1510,857.138 1510,827.388 1581.636,827.388 	"/>
	<polygon display="inline" fill="#FFFFFF" stroke="#FFFFFF" stroke-width="2" stroke-miterlimit="10" points="1891,1349.637 
		1707,1351.3 1707,1217.409 1891,1213.736 	"/>
	<polygon display="inline" fill="#FFFEF7" points="-198.208,276.373 -337.81,276.373 -342.431,22.701 -188.966,22.701 	"/>
	<path display="inline" fill="#E7CAB1" d="M418.83,187.507c0,0-22.065,4.582-30.691,39.699l-9.242,1.772
		c0,0,12.63-46.442,42.967-51.748C447.543,172.74,418.83,187.507,418.83,187.507z"/>
	<path display="inline" fill="#E7CAB1" d="M411.991,180.455c-2.629,1.455-5.081,3.22-7.362,5.2c0.471,2.579,1.936,4.676,4.747,6.491
		c2.901-2.166,5.786-3.163,7.644-3.934L411.991,180.455z"/>
	<path display="inline" fill="#E7CAB1" d="M388.139,227.206c0,0,5.199,6.944,4.853,8.33c-0.348,1.387-0.446,7.625-2.418,6.816
		c-1.973-0.809-2.935-8.086-2.935-8.086s-2.388,10.627-0.424,13.746c1.964,3.12-11.437,8.202-12.823-3.697
		c-1.387-11.898,7.363-23.76,7.363-23.76L388.139,227.206z"/>
	<polygon display="inline" fill="#D0B19A" points="387.639,234.266 381.133,230.527 386.621,240.629 	"/>
	<path display="inline" fill="#FAE6BF" d="M503.092,187.507c0,0,22.063,4.582,30.689,39.699l9.242,1.772
		c0,0-12.631-46.442-42.966-51.748C474.381,172.74,503.092,187.507,503.092,187.507z"/>
	<path display="inline" fill="#E7CAB1" d="M509.931,180.455c2.627,1.455,5.079,3.22,7.362,5.2c-0.473,2.579-1.936,4.676-4.748,6.491
		c-2.899-2.166-5.787-3.163-7.643-3.934L509.931,180.455z"/>
	<path display="inline" fill="#E7CAB1" d="M496.166,282.176c0,0-0.763,27.257-1.066,28.861c-0.304,1.606,2.075,41.259-1.921,42.698
		c-3.996,1.44-7.785-26.469-7.57-37.342c0.149-7.623-3.921-36.255-3.921-36.255L496.166,282.176z"/>
	<path display="inline" fill="#63848E" d="M504.21,277.022c0,0,0.831,17.157,0,18.028c-2.773,2.903-26.854,6.176-27.62,0
		c-0.766-6.178,0-21.277,0-21.277L504.21,277.022z"/>
	<path display="inline" fill="#63848E" d="M504.227,277.391l-27.862,2.293v4.179c0,0,11.935,2.305,28.054-1.697L504.227,277.391z"/>
	<path display="inline" fill="#D27435" d="M385.286,147.796c0,0,3.044,8.996-4.438,7.467c-15.292-3.125-12.875,13.792-3.174,10.579
		c5.847-1.937,12.807-4.958,14.049-19.066L385.286,147.796z"/>
	<path display="inline" fill="#A4512C" d="M395.595,101.031c0,0-3.432-3-6.034,0.946c-2.604,3.947-1.678,13.172,1.398,25.396
		c3.077,12.222,2.969,35.814-14.283,38.469c0,0,11.706-4.684,8.363-15.939c-2.684-9.034-21.917-40.008-12.983-55.684
		c5.792-10.164,21.734-9.105,27.155,2.743L395.595,101.031z"/>
	<path display="inline" fill="#B7612E" d="M398.354,95.341c0.011,0.018,0.021,0.035,0.031,0.053l0.726,1.681l-3.517,3.956
		c0,0-3.432-3-6.034,0.946c-1.564,2.374-1.848,6.665-1.16,12.358c-0.003-0.021-0.007-0.039-0.013-0.058
		C379.757,86.863,398.134,95.245,398.354,95.341z"/>
	<path display="inline" fill="#E73932" d="M407.938,96.575c0,0-3.5-5.185-8.605-2.356c0,0-6.097,6.121-3.017,11.744
		c1.675,3.058,6.237,5.391,8.316,2.849S407.938,96.575,407.938,96.575z"/>
	<path display="inline" fill="#679C80" d="M505.839,174.195c0,0,8.882,1.88,8.882,3.928s-3.826,12.94-10.98,14.326
		c-7.155,1.386-4.86-17.704-4.86-17.704L505.839,174.195z"/>
	<path display="inline" fill="#679C80" d="M420.264,174.195c0,0-8.882,1.88-8.882,3.928s3.826,12.94,10.981,14.326
		c7.154,1.386,4.859-17.704,4.859-17.704L420.264,174.195z"/>
	<path display="inline" fill="#654439" d="M431.201,156.067l-3.542,13.662c0,0-3.935,11.731-9.312,5.853
		c-5.379-5.879-7.169-17.274-7.169-17.801c0-0.527,11.81-12.696,11.81-12.696L431.201,156.067z"/>
	<path display="inline" fill="#82C5AE" d="M502.685,179.075c0,0,2.89,36.861,3.439,42.406s0.374,32.963,0,37.274
		c0,0-51.125,9.912-82.008,1.54c0,0,1.893-25.26,1.408-29.573c-0.484-4.312-2.133-35.084-3.263-49.904
		C422.262,180.818,481.446,192.425,502.685,179.075z"/>
	<path display="inline" fill="#679C80" d="M455.481,224.013c1.777-21.333,9.739-26.958,9.739-26.958
		c-19.709-4.908-32.581-9.812-38.229-15.396c-2.99-0.498-4.73-0.839-4.73-0.839c1.13,14.819,2.778,45.592,3.263,49.904
		c0.484,4.313-1.408,29.573-1.408,29.573c1.214,0.329,2.462,0.626,3.733,0.901l40.817-2.309
		C459.173,256.204,454.128,240.24,455.481,224.013z"/>
	<path display="inline" fill="#679C80" d="M462.012,204.438c0,0,12.572-1.419,19.699,9.933c5.237,8.339,6.93,16.87,0.253,27.789
		c-6.677,10.92-25.008,10.6-30.646,5.407c-5.639-5.192-11.074-10.771-9.592-25.177C443.211,207.984,459.205,204.61,462.012,204.438z
		"/>
	<path display="inline" fill="#679C80" d="M506.26,176.847c0,0,0.072,2.92,0.195,4.487c-6.395,7.731-24.091,16.94-43.541,17.16
		c-15.852,0.179-33.689-5.088-42.318-17.272c-2.653-3.198-0.793-3.401-0.522-4.374C420.073,176.847,485.021,190.197,506.26,176.847z
		"/>
	<path display="inline" fill="#82C5AE" d="M500.817,167.11c0,0,7.471-3.441,9.55,1.014c2.08,4.455,3.004,12.31-19.869,19.934
		c-22.874,7.624-62.842,6.238-73.008-14.556c0,0-3.242-7.759,9.227-7.657C439.188,165.948,500.817,167.11,500.817,167.11z"/>
	<g display="inline">
		<path fill="#679C80" d="M417.491,173.502c2.596,5.31,7.143,9.348,12.846,12.3c35.247,18.169,32.978,6.005,34.885,6.718
			c-4.237-0.799-4.609-5.299-4.609-5.299c0-4.675,3.902-5.333,3.902-5.333l-32.968-15.985c-1.993-0.027-3.636-0.047-4.828-0.057
			C414.249,165.744,417.491,173.502,417.491,173.502z"/>
	</g>
	<path display="inline" fill="#5C9D84" d="M464.058,168.124c0,0,2.659,0.007,2.659,2.26c0,2.252-4.91,3.812-4.91,3.812l0.058,0.289
		C461.865,174.484,460.993,169.33,464.058,168.124z"/>
	<path display="inline" fill="#5C9D84" d="M464.021,168.672c0,0-2.659,0.007-2.659,2.26s4.91,3.812,4.91,3.812l0.619-1.242
		C466.891,173.502,468.277,169.113,464.021,168.672z"/>
	<ellipse display="inline" fill="#E7CAB1" cx="424.336" cy="153.247" rx="5.99" ry="9.397"/>
	<ellipse display="inline" fill="#E7CAB1" cx="505.884" cy="153.247" rx="5.99" ry="9.397"/>
	
		<linearGradient id="SVGID_3_" gradientUnits="userSpaceOnUse" x1="859.8389" y1="225.0068" x2="861.0713" y2="272.7556" gradientTransform="matrix(-1 0 0 -1 1324.7246 401.4707)">
		<stop  offset="0.0917" style="stop-color:#FFE8BE"/>
		<stop  offset="1" style="stop-color:#FAE6BF"/>
	</linearGradient>
	<path display="inline" fill="url(#SVGID_3_)" d="M504.538,146.471c0,0,0.23,23.797-3.696,27.725
		c-3.928,3.928-48.458,16.462-75.489,0.289c0,0-2.833-20.389-0.522-28.014c2.311-7.624,43.205-37.659,43.205-37.659
		S505.181,130.801,504.538,146.471z"/>
	
		<ellipse display="inline" opacity="0.4" fill="#FEFCEC" enable-background="new    " cx="464.195" cy="157.649" rx="11.305" ry="1.882"/>
	<path display="inline" fill="#E7CAB1" d="M476.656,179.075c-18.416,0-32.156-12.499-32.156-27.307s11.334-24.396,29.75-24.396
		c7.224,0,16.311-0.068,21.771,3.07c-10.79-11.446-27.987-21.631-27.987-21.631s-40.895,30.036-43.205,37.659
		c-2.311,7.625,0.522,28.014,0.522,28.014c27.031,16.173,71.562,3.639,75.489-0.289c0.92-0.92,1.609-2.937,2.129-5.476
		C496.87,175.019,487.354,179.075,476.656,179.075z"/>
	<path display="inline" fill="#E7CAB1" d="M458.292,117.68c5.489-4.245,9.894-7.518,11.271-8.536
		c1.198,0.562,2.607,1.233,4.17,1.989c9.391,6.053,33.305,22.736,32.786,35.337c0,0,0.021,2.169-0.058,5.297
		c-21.768-37.959-57.701-20.237-57.701-20.237L458.292,117.68z"/>
	<path display="inline" fill="#E7CAB1" d="M455.329,119.192c0,0-2.542,24.618-34.733,30.711l1.796-9.746L455.329,119.192z"/>
	<path display="inline" fill="#654439" d="M484.353,147.796c0,0,1.271-1.787,3.235-0.631c1.964,1.155,1.501,7.393,0.693,8.548
		c-0.81,1.155-2.542,1.617-3.929,0C482.966,154.096,483.429,149.352,484.353,147.796z"/>
	<path display="inline" fill="#654439" d="M441.007,148.816c0,0,1.271-1.787,3.234-0.631c1.964,1.155,1.502,7.393,0.692,8.548
		c-0.809,1.156-2.542,1.618-3.928,0C439.621,155.116,440.083,150.373,441.007,148.816z"/>
	<path display="inline" fill="none" stroke="#F29184" stroke-linecap="round" stroke-miterlimit="10" d="M482.577,163.568
		c0,0-5.732,3.411-15.188,4.21c-13.047,1.104-15.979-0.661-21.249-2.131"/>
	<path display="inline" fill="#F29184" d="M494.684,159.062c0,0,2.01,0.204,3.074,0c1.064-0.202,1.462-2.327,0-2.736
		c-1.655-0.461-3.901-0.203-4.493,0C492.674,156.528,490.073,158.455,494.684,159.062z"/>
	<path display="inline" fill="#F29184" d="M434.323,159.062c0,0-2.008,0.204-3.074,0c-1.063-0.202-1.462-2.327,0-2.736
		c1.655-0.461,3.903-0.203,4.493,0C436.334,156.528,438.936,158.455,434.323,159.062z"/>
	<path display="inline" fill="#E7CAB1" d="M425.353,174.484c0,0-0.344-2.5-0.688-5.954c4.51,4.36,15.227,10.544,37.769,10.544
		c34.692,0,40.545-10.398,40.551-10.402c-0.522,2.562-0.812,4.598-1.736,5.523C497.319,178.123,452.383,190.658,425.353,174.484z"/>
	<path display="inline" fill="#679C80" d="M424.116,259.393c0,0,0.226-0.649,0.158-2.172c-0.158-3.583,23.945,0.887,36.657,0.014
		c0,0,13.208-0.167,25.167-1.137c6.351-0.515,20.374-2.551,20.164-1.158c-0.057,0.375-0.072,2.562-0.347,2.947l-40.291,8.283
		L424.116,259.393z"/>
	<path display="inline" fill="#679C80" d="M506.199,257.523c0,0,5.09,2.99,5.024,11.645c-0.049,6.585-4.612,7.578-6.245,8.226
		c-2.505,0.994-68.244,7.13-79.631,0.067c0,0-10.583-6.745-1.231-17.165C424.116,260.295,461.236,264.532,506.199,257.523z"/>
	<path display="inline" fill="#D27435" d="M481.414,78.546c0,0-7.354-15.492-42.708-8.625c-32.97,6.404-51.228,59.524-30.688,89.231
		l48.442-51.649l5.544-5.544l9.621,14.708L481.414,78.546z"/>
	<path display="inline" fill="#B7612E" d="M443.606,75.388c-13.148,0-24.393,7.299-33.239,15.676
		c-12.682,19.829-15.644,48.861-2.35,68.088l48.442-51.649l5.544-5.544l9.621,14.708l6.58-25.63
		C469.362,82.676,460.167,75.388,443.606,75.388z"/>
	<path display="inline" fill="#A4512C" d="M432.739,107.838c0,0-7.948,9.633-16.636,1.307c0,0,1.607,5.794,9.834,6.464
		C440.127,116.764,432.739,107.838,432.739,107.838z"/>
	<path display="inline" fill="#A4512C" d="M430.327,116.668c21.646,3.97-9.774,18.675-10.188,19.197
		c-0.23,0.292-6.774,12.235-12.501,22.712c-11.639-17.423-10.289-42.764-0.597-61.986l4.038-4.622
		C411.078,91.969,408.68,112.698,430.327,116.668z"/>
	<path display="inline" fill="#D27435" d="M474.059,121.172c0,0,4.274-1.589,4.274-5.165c0,0,2.772,4.896,1.386,6.744
		c0,0,17.067-0.054,26.164,21.099c0,0,8.764-7.853,7.84-21.406c-0.924-13.555-12.286-40.201-31.23-36.504
		c-18.945,3.697-18.792,4.775-18.792,4.775L474.059,121.172z"/>
	<path display="inline" fill="#A4512C" d="M471.708,116.348c0,0,2.103-17.612-11.858-21.398
		c-23.565-6.392-39.706,33.397-44.459,45.283l35.911-33.038L471.708,116.348z"/>
	<path display="inline" fill="#A4512C" d="M411.078,142.021c0,0-7.184,5.621-7.854,8.154l3.89,7.609L411.078,142.021z"/>
	<path display="inline" fill="#D27435" d="M472.095,120.364c0,0-0.308-17.25-11.244-21.871c0,0-7.932-2.559-12.09-0.48
		c0,0-4.036,1.092-5.911,4.967c-6.695,13.839-8.875,15.231-22.254,26.533c-23.073,19.491-13.096,36.58-2.972,45.02
		c0,0-11.259-14.678,2.141-24.134c0,0,17.212-8.895,28.996-23.026c0,0,15.112-10.46,20.127-5.699
		C470.703,123.397,472.095,120.364,472.095,120.364z"/>
	<path display="inline" fill="#654439" d="M468.888,121.673c0,0,0.975-14.94-7.497-15.71c0,0-2.156,11.706-12.63,21.41
		C448.76,127.373,459.542,120.903,468.888,121.673z"/>
	<path display="inline" fill="none" stroke="#B7612E" stroke-linecap="round" stroke-miterlimit="10" d="M411.833,155.21
		c1.75-11.361,11.25-15.823,11.25-15.823s13.417-7.25,15.505-14.132"/>
	<path display="inline" fill="none" stroke="#D27435" stroke-miterlimit="10" d="M378.897,91.39c0,0-7.671,2.671-5.41,15.899"/>
	<path display="inline" fill="none" stroke="#D27435" stroke-miterlimit="10" d="M375.585,102.642c0,0,0.119,1.036,0.799,3.113"/>
	<path display="inline" fill="#FAE6BF" d="M533.781,227.206c0,0-5.197,6.944-4.853,8.33c0.348,1.387,0.445,7.625,2.418,6.816
		c1.972-0.809,2.935-8.086,2.935-8.086s2.389,10.627,0.424,13.746c-1.963,3.12,11.438,8.202,12.824-3.697
		c1.385-11.898-7.364-23.76-7.364-23.76L533.781,227.206z"/>
	<path display="inline" fill="#D27435" d="M481.29,79.026c0,0-5.399-9.93-1.357-10.499c0,0,4.869-0.147,6.603,2.279
		c1.732,2.426-2.542,11.667-2.542,11.667s6.647-7.669,9.241-7.278c1.843,0.278,5.43,4.621,4.044,5.545
		c-1.387,0.924-12.015,7.971-12.015,7.971l-11.205-1.437L481.29,79.026z"/>
	<polygon display="inline" fill="#E7CAB1" points="534.281,234.266 540.787,230.527 535.299,240.629 	"/>
	<path display="inline" fill="#B7612E" d="M499.806,135.908c0,0,8.201-21.207-8.462-31.911c0,0-13.7-5.442-10.147,18.87
		c0,0,0.11-4.621,3.499-4.467C488.082,118.552,498.396,117.963,499.806,135.908z"/>
	<path display="inline" fill="#D27435" d="M499.72,140.233c0,0,2.767-29.658-9.5-31.421c0,0-8.96-0.384-8.806,13.324
		c0,0-1.232,0.925,2.156,1.079C486.958,123.368,498.311,122.289,499.72,140.233z"/>
	<path display="inline" fill="#654439" d="M482.371,123.227c0,0,2.585-6.944,6.127-5.558c3.542,1.387,11.222,6.392,11.222,22.564
		C499.72,140.233,499.181,128.259,482.371,123.227z"/>
	<path display="inline" fill="#B7612E" d="M481.195,86.688l-0.437,29.171l-0.734,4.602c-0.345-2.07-1.691-4.453-1.691-4.453
		c0,3.343-3.737,4.95-4.222,5.145l-0.151-0.266l-1.947-5.728l-0.387,1.508l-0.432-0.66C471.195,111.7,474.668,76.369,481.195,86.688
		z"/>
	<path display="inline" fill="#B7612E" d="M473.486,102.788c0,0,1.518-13.672-14.646-12.213c0,0,5.092-13.262,17.627-1.16
		C476.468,89.415,477.739,103.204,473.486,102.788z"/>
	<path display="inline" fill="#B7612E" d="M480.104,99.55c0,0,3.774-7.834,15.558-0.826c0,0-8.278-11.417-17.328-4.564
		C469.183,101.087,480.104,99.55,480.104,99.55z"/>
	<path display="inline" fill="#774B38" d="M513.731,371.54c0,0,4.78,13.848-0.056,14.98c0,0-10.477,4.604-23.206,1.576
		c-0.364-0.088-1.583-0.593-2.042-1.486c0,0-3.243-8.627-0.625-12.014C490.421,371.208,513.731,371.54,513.731,371.54z"/>
	<path display="inline" fill="#AB7363" d="M484.941,351.638c0,0,2.138,4.803,1.841,8.418c-0.441,5.361-0.412,14.334,1.212,16.5
		c2.165,2.887,5.04,2.232,8.421,2.658c2.4,0.301,12.358,1.342,16.572-1.572c1.741-1.203,1.839-2.793,2.087-5.742
		c0,0,0.834-10.021-4.312-12.133c-4.375-1.795-5.996,0.496-8.451-0.295c-2.671-0.861-3.189-1.701-3.194-5.576
		C499.112,351.479,484.941,351.638,484.941,351.638z"/>
	<path display="inline" opacity="0.6" fill="#774B38" enable-background="new    " d="M498.607,364.319c0,0,0.479-0.562,1.689-1.209
		c-0.408-0.23-0.777-0.402-1.055-0.48c-1.023-0.29-0.197-0.811-0.197-0.811s0.315-0.207,0.824-0.518
		c0.509-0.31,1.497,0.188,1.497,0.188c0.447,0.229,0.851,0.457,1.219,0.683c0.412-0.127,0.86-0.248,1.35-0.358
		c0,0,1.081-0.237,1.497,0.188c0.416,0.426,0.67,0.705,0.67,0.705s0.673,0.709-0.391,0.736c-0.289,0.008-0.688,0.082-1.141,0.205
		c1.014,0.926,1.338,1.59,1.338,1.59c0.387,0.658-0.084,1.067-0.084,1.067s-0.243,0.166-0.774,0.414
		c-0.532,0.249-0.947-0.229-1.495-0.873c-0.328-0.45-0.777-0.899-1.265-1.321c-0.576,0.287-1.123,0.612-1.553,0.967
		c-0.689,0.49-1.211,0.85-1.665,0.478s-0.647-0.593-0.647-0.593S498.07,364.862,498.607,364.319z"/>
	<path display="inline" fill="#E3E6E7" d="M495.238,332.843c0,0,1.963,0.135,2.86,0.92c0.918,0.805,1.186,2.545,1.186,4.932
		c0,2.388,0.447,14.51-0.169,15.201c-1.328,1.492-8.271,4.576-12.78,1.928c0,0-6.548-17.186-3.069-21.518
		c0.89-1.106,1.426-1.309,3.351-1.462c0.001,0,0.339,1.607,0.655,2.427c0.528,1.363,1.396,2.209,3.465,2.041
		C493.193,337.108,495.838,337.106,495.238,332.843z"/>
	
		<path display="inline" opacity="0.3" fill="none" stroke="#BDBABA" stroke-linecap="round" stroke-miterlimit="10" enable-background="new    " d="
		M495.512,337.905c0,0,1.737,9.646,0.721,14.574"/>
	
		<path display="inline" opacity="0.3" fill="none" stroke="#BDBABA" stroke-linecap="round" stroke-miterlimit="10" enable-background="new    " d="
		M490.905,338.972c0,0,1.736,9.644,0.72,14.571"/>
	
		<path display="inline" opacity="0.3" fill="none" stroke="#BDBABA" stroke-linecap="round" stroke-miterlimit="10" enable-background="new    " d="
		M486.725,339.083c0,0-0.882,7.107,1.271,14.348"/>
	<path display="inline" fill="#EEEDDA" d="M504.011,361.214c0,0,1.081-0.236,1.497,0.188c0.416,0.425,0.67,0.705,0.67,0.705
		s0.672,0.709-0.391,0.735c-1.063,0.028-3.597,0.915-4.975,2.052c-0.689,0.487-1.212,0.848-1.665,0.477
		c-0.454-0.373-0.648-0.594-0.648-0.594s-0.354-0.515,0.183-1.057C498.683,363.722,500.031,362.114,504.011,361.214z"/>
	<path display="inline" fill="#EEEDDA" d="M501.442,360.892c0,0-0.989-0.498-1.497-0.188c-0.509,0.311-0.824,0.518-0.824,0.518
		s-0.826,0.521,0.197,0.811c1.022,0.29,3.259,1.775,4.312,3.217c0.547,0.645,0.963,1.122,1.495,0.874s0.775-0.415,0.775-0.415
		s0.47-0.409,0.083-1.068C505.984,364.638,505.075,362.747,501.442,360.892z"/>
	<path display="inline" fill="none" stroke="#593D33" stroke-linecap="round" stroke-miterlimit="10" d="M510.739,380.002
		c0,0,0.48,2.737,0,5.799"/>
	<path display="inline" fill="none" stroke="#593D33" stroke-linecap="round" stroke-miterlimit="10" d="M506.627,380.854
		c0,0,0.482,2.838,0,6.012"/>
	<path display="inline" fill="none" stroke="#593D33" stroke-linecap="round" stroke-miterlimit="10" d="M501.892,381.491
		c0,0,0.482,2.84,0,6.014"/>
	<path display="inline" fill="none" stroke="#593D33" stroke-linecap="round" stroke-miterlimit="10" d="M497.763,381.491
		c0,0,0.481,2.84,0,6.014"/>
	<path display="inline" fill="none" stroke="#593D33" stroke-linecap="round" stroke-miterlimit="10" d="M493.1,381.206
		c0,0,0.481,2.506,0,5.307"/>
	<g display="inline">
		<g>
			<path fill="#679C80" d="M480.065,219.349c0,0-0.819,0.626-0.702,1.833c0.118,1.208-0.176,15.299,0.702,15.837
				c0.877,0.537,11.521,0.94,11.521-3.869c0-4.81-4.035-4.722-4.62-4.855c0,0,4.971,0.045,4.62-4.428
				C491.237,219.393,485.211,216.799,480.065,219.349z"/>
			<path fill="#679C80" d="M433.595,235.366c0,0-1.609-12.115-0.671-18.96c0,0,8.12-0.471,8.791,0.201
				c0.671,0.671,4.229,6.777,4.229,6.777l0.671-7.276c0,0,6.441-0.374,6.441,1.639c0,2.013-1.342,17.314-2.416,17.582
				c-1.072,0.269-6.396-1.004-6.396-1.004s-3.066-7.317-3.804-9.196c-0.203-0.515-0.873,0.059-0.873,0.059
				s1.141,10.178-0.067,10.178S437.622,235.366,433.595,235.366z"/>
			<path fill="#EAE9EA" d="M433.595,233.655c0,0-1.609-12.116-0.671-18.96c0,0,8.12-0.47,8.791,0.202
				c0.671,0.67,4.229,6.777,4.229,6.777l0.671-7.276c0,0,6.441-0.374,6.441,1.64c0,2.012-1.342,17.313-2.416,17.581
				c-1.072,0.269-6.396-1.004-6.396-1.004s-3.066-7.317-3.804-9.195c-0.203-0.516-0.873,0.059-0.873,0.059
				s1.141,10.178-0.067,10.178S437.622,233.655,433.595,233.655z"/>
			<path fill="#679C80" d="M461.242,221.674c0,0-4.966-1.075-6.173,3.422c-1.208,4.496,2.55,6.106,4.025,6.173
				c1.478,0.068,6.711-1.543,4.899-6.576C463.993,224.693,463.591,222.613,461.242,221.674z"/>
			<path fill="#FFFFFF" d="M461.242,219.929c0,0-4.966-1.073-6.173,3.422c-1.208,4.496,2.557,6.01,4.025,6.174
				c1.834,0.202,6.711-1.544,4.899-6.577C463.993,222.948,463.591,220.869,461.242,219.929z"/>
			<path fill="#679C80" d="M473.812,221.674c0,0-4.966-1.075-6.174,3.422c-1.208,4.496,2.551,6.106,4.026,6.173
				c1.477,0.068,6.71-1.543,4.899-6.576C476.564,224.693,476.161,222.613,473.812,221.674z"/>
			<path fill="#FFFFFF" d="M473.812,219.929c0,0-4.966-1.073-6.174,3.422c-1.208,4.496,2.56,6.01,4.026,6.174
				c1.835,0.202,6.71-1.544,4.899-6.577C476.564,222.948,476.161,220.869,473.812,219.929z"/>
			<path fill="#679C80" d="M471.699,223.253c0,0,1.429-0.309,1.776,0.988c0.349,1.297-0.734,1.761-1.158,1.78
				c-0.425,0.02-1.93-0.443-1.41-1.896C470.908,224.124,471.025,223.522,471.699,223.253z"/>
			<path fill="#679C80" d="M459.139,223.253c0,0,1.43-0.309,1.777,0.988c0.348,1.297-0.735,1.761-1.159,1.78
				c-0.424,0.02-1.929-0.443-1.41-1.896C458.347,224.124,458.465,223.522,459.139,223.253z"/>
			<path fill="#FFFFFF" d="M480.065,217.47c0,0-0.819,0.625-0.702,1.833c0.118,1.208-0.176,15.3,0.702,15.837
				c0.877,0.536,11.521,0.94,11.521-3.869c0-4.81-4.035-4.723-4.62-4.856c0,0,4.971,0.046,4.62-4.428
				C491.237,217.514,485.211,214.92,480.065,217.47z"/>
			<path fill="#679C80" d="M485.676,220.289c0,0-2.082,1.593-1.389,1.993c0.695,0.398,2.432,0.259,2.519-1.032
				C486.894,219.957,485.676,220.289,485.676,220.289z"/>
			<path fill="#679C80" d="M484.487,229.729c0,0-0.815,1.994,0.485,2.16c1.306,0.164,2.182-0.898,1.525-1.828
				C485.844,229.133,484.487,229.729,484.487,229.729z"/>
		</g>
	</g>
	<path id="XMLID_2_" display="inline" fill="none" stroke="#679C80" stroke-miterlimit="10" d="M473.609,239.188
		c0,0-7.784-6.945-17.883,0.538"/>
	<circle display="inline" fill="#E94B2B" cx="1565.667" cy="920.233" r="34.512"/>
	<g display="inline">
		<text transform="matrix(1 0 0 1 1540.668 940.2471)" fill="#B83820" font-family="'FreightMicroBlackSC'" font-size="48">10</text>
	</g>
	
		<text transform="matrix(1 0 0 1 1542 933.7217)" display="inline" fill="#FFFFFF" font-family="'FreightMicroBlackSC'" font-size="48">10</text>
	
		<text transform="matrix(1 0 0 1 1542 933.7217)" display="inline" fill="none" stroke="#FFFFFF" stroke-width="2" stroke-miterlimit="10" font-family="'FreightMicroBlackSC'" font-size="48">10</text>
	<path display="inline" fill="#82C5AE" d="M472.682,187.106l-4.487-4.807c0,0-22.692,3.05-42.843-7.815
		C437.917,186.638,453.272,188.534,472.682,187.106z"/>
</g>
<g id="level" display="none">
	<rect x="616" y="209.388" display="inline" fill="#C9B097" width="6" height="34"/>
	<rect x="661" y="209.388" display="inline" fill="#C9B097" width="6" height="34"/>
	<path display="inline" fill="#E1C9AA" d="M605,174.388c0,0-16.983,20.658-4.252,40.251l97.838,0.956l-10.216-41.207H605z"/>
	<path display="inline" fill="#E1C9AA" d="M605,167.388c0,0-15.981,22.314-3.25,41.908l88.25-0.701l-1.63-41.207H605z"/>
	<path display="inline" fill="#FEFCEF" d="M599.764,165.728c0,0-10.264,26.302-0.097,46.66H689V167.45L599.764,165.728z"/>
	<path display="inline" fill="#E1C9AA" d="M600.14,240.623c0,0-9.006,97.761,1.36,124.901h222l-6.396-121.359l-0.103-7.647
		L600.14,240.623z"/>
	<path display="inline" fill="#FEFCEF" d="M600.44,236.182c0,0-10.09,99.014,0.06,126.153l218.167-0.57l-1.666-125.248
		L600.44,236.182z"/>
	<path display="inline" opacity="0.2" fill="#DDD1C5" enable-background="new    " d="M600.5,362.335l218.167-0.57l-0.577-43.381
		H595.976C596.017,336.751,597.167,353.42,600.5,362.335z"/>
	<circle display="inline" fill="#A33C34" cx="708.167" cy="192.856" r="31.662"/>
	<circle display="inline" fill="#D6432A" cx="707.167" cy="188.856" r="31.065"/>
	
		<circle display="inline" opacity="0.3" fill="none" stroke="#FFFFFF" stroke-width="2" stroke-miterlimit="10" stroke-dasharray="3,4" enable-background="new    " cx="707.167" cy="188.856" r="28.077"/>
	
		<text transform="matrix(1 0 0 1 697.0127 207.7207)" display="inline" fill="#B93820" font-family="'FreightMicroBlackSC'" font-size="45.914">2</text>
	
		<text transform="matrix(1 0 0 1 696.7627 203.2109)" display="inline" fill="#F2F6E0" font-family="'FreightMicroBlackSC'" font-size="45.914">2</text>
	<g display="inline">
		<text transform="matrix(1 0 0 1 613.999 194.9912)" fill="#B99E75" font-family="'SyntaxLTStd-Bold'" font-size="21">Level</text>
	</g>
	<rect x="605" y="112.388" display="inline" fill="#FEFCEF" width="103.167" height="33"/>
	<polygon display="inline" fill="#977D57" points="601.667,98.387 575,121.939 602,146.796 724.167,148.745 725.167,145.745 	"/>
	<polygon display="inline" fill="#B99E75" points="602.667,95.387 575,121.939 603,143.796 725.167,145.745 725.774,97.601 	"/>
	
		<text transform="matrix(1 0 0 1 611.999 128.9395)" display="inline" fill="#FEFCEC" font-family="'FreightMicroBook'" font-size="31">Naemy</text>
	<g display="inline">
		<text transform="matrix(1 0 0 1 613.999 297.5225)" fill="#B99E75" font-family="'SyntaxLTStd-Bold'" font-size="21">10 </text>
		<text transform="matrix(1 0 0 1 643.1895 297.5225)" fill="#D1BFA6" font-family="'SyntaxLTStd-Bold'" font-size="21">xp – </text>
		<text transform="matrix(1 0 0 1 687.541 297.5225)" fill="#DDD1C5" font-family="'SyntaxLTStd-Bold'" font-size="14">40 left to level up</text>
	</g>
	<rect x="613" y="256.388" display="inline" fill="#82C5AE" width="176" height="13"/>
	<rect x="733" y="256.388" display="inline" fill="#679C80" width="60" height="13"/>
	<g display="inline">
		<g>
			<text transform="matrix(1 0 0 1 742.999 347.9209)" fill="#B99E75" font-family="'SyntaxLTStd-Bold'" font-size="21">100 </text>
		</g>
		<ellipse fill="#DDD1C5" cx="793.918" cy="350.951" rx="7.046" ry="1.494"/>
		<ellipse fill="#F6CB4A" cx="793.918" cy="340.334" rx="9.5" ry="9.877"/>
		
			<ellipse opacity="0.5" fill="#F6CB4A" stroke="#FFF6DF" stroke-miterlimit="10" enable-background="new    " cx="793.918" cy="340.334" rx="7.297" ry="7.587"/>
	</g>
	<polygon display="inline" fill="#4685A6" points="688,353.636 612,352.388 611.999,328.138 688,329.388 	"/>
	<polygon display="inline" fill="#6EABDD" points="688,351.636 612,350.388 611.999,326.138 688,327.388 	"/>
	<g display="inline">
		<text transform="matrix(1 0 0 1 618.999 344.8516)" fill="#FFFFFF" font-family="'SyntaxLTStd-Bold'" font-size="15">Tweet it !</text>
	</g>
</g>
<g id="Calque_5">
</g>
</svg>
