<?xml version="1.0" encoding="utf-8"?>
<!-- Generator: Adobe Illustrator 16.0.0, SVG Export Plug-In . SVG Version: 6.00 Build 0)  -->
<!DOCTYPE svg PUBLIC "-//W3C//DTD SVG 1.1//EN" "http://www.w3.org/Graphics/SVG/1.1/DTD/svg11.dtd">
<svg version="1.1" id="Calque_1" xmlns="http://www.w3.org/2000/svg" xmlns:xlink="http://www.w3.org/1999/xlink" x="0px" y="0px"
	 width="45.073px" height="68.989px" viewBox="0 0 45.073 68.989" enable-background="new 0 0 45.073 68.989" xml:space="preserve">
<g>
	<path fill="#A5A58D" d="M4.152,30.651L2.101,4.247c0,0,20.796-9.955,41.544,1.482l-2.367,24.476L4.152,30.651z"/>
	<path fill="#F1F5E0" d="M8.007,25.975L1.764,4.247c0,0,20.796-9.955,41.545,1.482l-4.914,20.245H8.007z"/>
	<circle fill="#B57D18" cx="22.125" cy="46.927" r="22.063"/>
	<circle fill="#E6B447" cx="22.536" cy="39.382" r="22.536"/>
	<g>
		<path fill="#CB9728" d="M14.676,11.664c0.249,0.585,0.243,1.093-0.016,1.524s-0.75,0.802-1.476,1.109
			c-0.39,0.167-0.772,0.289-1.148,0.37c-0.375,0.082-0.698,0.129-0.968,0.142l-0.79-1.474l0.678-0.287l0.631,0.74
			c0.229-0.024,0.451-0.06,0.665-0.109c0.214-0.05,0.442-0.125,0.684-0.228c0.476-0.202,0.782-0.413,0.919-0.631
			c0.137-0.219,0.148-0.465,0.032-0.739c-0.066-0.155-0.162-0.263-0.288-0.32c-0.125-0.057-0.271-0.087-0.438-0.089
			c-0.167-0.003-0.351,0.015-0.55,0.054c-0.201,0.039-0.41,0.082-0.629,0.128c-0.254,0.052-0.51,0.099-0.769,0.14
			c-0.259,0.041-0.5,0.047-0.725,0.017c-0.224-0.028-0.43-0.106-0.615-0.229c-0.186-0.123-0.337-0.322-0.452-0.594
			c-0.249-0.585-0.237-1.09,0.035-1.514c0.271-0.423,0.777-0.792,1.519-1.106c0.265-0.113,0.499-0.191,0.701-0.235
			s0.4-0.075,0.595-0.093l0.496-0.459l0.908,1.783l-0.678,0.288l-0.655-0.73c-0.172,0.027-0.347,0.061-0.524,0.098
			c-0.177,0.038-0.378,0.105-0.604,0.202c-0.508,0.214-0.83,0.424-0.969,0.63c-0.138,0.205-0.149,0.445-0.033,0.719
			c0.059,0.14,0.148,0.235,0.267,0.287c0.118,0.05,0.258,0.077,0.419,0.078c0.161,0,0.339-0.021,0.533-0.061
			c0.194-0.042,0.397-0.083,0.609-0.127c0.253-0.053,0.512-0.1,0.774-0.142s0.512-0.046,0.747-0.014
			c0.235,0.034,0.45,0.119,0.645,0.251C14.4,11.177,14.557,11.383,14.676,11.664z"/>
		<path fill="#CB9728" d="M18.938,12.399c-0.249,0.198-0.526,0.33-0.833,0.394c-1.053,0.22-1.688-0.253-1.905-1.42l-0.536-3.004
			l-0.977-0.016l-0.109-0.522l0.487-0.466l0.638-1.236l0.413-0.009l0.236,1.131l2.178-0.454l-0.064,0.818l-1.94,0.405l0.545,2.989
			c0.132,0.717,0.518,1.008,1.156,0.875c0.215-0.045,0.41-0.102,0.581-0.173c0.172-0.07,0.355-0.173,0.552-0.31l0.115,0.365
			C19.366,11.989,19.187,12.2,18.938,12.399z"/>
		<path fill="#CB9728" d="M25.017,12.221c-0.177,0.111-0.38,0.166-0.609,0.166c-0.275,0.001-0.486-0.073-0.632-0.221
			c-0.147-0.148-0.22-0.4-0.22-0.756l-0.103,0c-0.203,0.289-0.479,0.524-0.827,0.708c-0.349,0.182-0.714,0.273-1.096,0.275
			c-0.502,0-0.908-0.144-1.219-0.436s-0.467-0.68-0.468-1.163c-0.001-0.304,0.062-0.574,0.189-0.807
			c0.127-0.232,0.335-0.439,0.624-0.618c0.288-0.178,0.667-0.327,1.133-0.447c0.467-0.12,1.038-0.21,1.708-0.271l0-0.496
			c-0.001-0.306-0.108-0.555-0.321-0.75s-0.562-0.291-1.048-0.29c-0.153,0.001-0.302,0.012-0.446,0.034
			c-0.145,0.021-0.275,0.046-0.39,0.076c-0.115,0.031-0.208,0.062-0.28,0.097c-0.073,0.034-0.108,0.063-0.109,0.089
			c0.001,0.017,0.005,0.048,0.014,0.096c0.008,0.045,0.019,0.095,0.032,0.146c0.013,0.05,0.023,0.099,0.032,0.146
			c0.009,0.047,0.013,0.083,0.013,0.108c0,0.085-0.045,0.146-0.133,0.186c-0.089,0.038-0.27,0.057-0.54,0.058
			c-0.187,0-0.31-0.017-0.369-0.05c-0.059-0.034-0.089-0.084-0.089-0.152c0-0.262,0.068-0.498,0.208-0.706
			c0.14-0.207,0.324-0.386,0.552-0.535C20.85,6.56,21.11,6.447,21.402,6.37s0.595-0.116,0.908-0.117
			c0.703,0,1.229,0.142,1.577,0.429c0.348,0.288,0.522,0.778,0.524,1.474l0.007,2.987c0,0.134,0.034,0.228,0.102,0.279
			c0.067,0.049,0.187,0.075,0.356,0.075c0.093,0,0.189-0.008,0.286-0.025c0.098-0.017,0.18-0.034,0.248-0.051
			c0.008,0.068,0.013,0.127,0.013,0.178v0.215C25.331,11.975,25.195,12.109,25.017,12.221z M23.499,9.263
			c-0.502,0.086-0.924,0.175-1.264,0.27c-0.34,0.094-0.615,0.196-0.823,0.308c-0.208,0.111-0.357,0.233-0.446,0.369
			c-0.089,0.136-0.134,0.296-0.133,0.483c0,0.271,0.086,0.478,0.256,0.622c0.17,0.144,0.435,0.214,0.792,0.214
			c0.145,0,0.295-0.018,0.453-0.052c0.157-0.034,0.309-0.077,0.453-0.128c0.145-0.05,0.278-0.11,0.402-0.178
			c0.123-0.068,0.227-0.136,0.312-0.204L23.499,9.263z"/>
		<path fill="#CB9728" d="M28.548,12.918c-0.306,0.085-0.614,0.096-0.921,0.035c-1.055-0.214-1.452-0.899-1.191-2.057l0.691-2.973
			l-0.891-0.4l0.105-0.523l0.631-0.235l1.073-0.886l0.384,0.156L28.202,7.17l2.179,0.44L30,8.337l-1.943-0.393l-0.677,2.962
			c-0.161,0.711,0.078,1.131,0.718,1.26c0.216,0.043,0.416,0.067,0.602,0.07c0.186,0.003,0.395-0.019,0.629-0.067l-0.037,0.382
			C29.103,12.711,28.856,12.834,28.548,12.918z"/>
		<path fill="#CB9728" d="M34.412,13.387c-0.244,0.587-0.61,0.939-1.1,1.058c-0.489,0.117-1.098,0.026-1.825-0.277
			c-0.392-0.162-0.748-0.35-1.067-0.561c-0.321-0.21-0.581-0.409-0.78-0.592l0.498-1.596l0.681,0.283l-0.085,0.969
			c0.176,0.147,0.357,0.279,0.543,0.398c0.185,0.118,0.398,0.228,0.642,0.329c0.477,0.197,0.841,0.27,1.095,0.213
			c0.252-0.055,0.435-0.22,0.549-0.493c0.064-0.157,0.074-0.3,0.027-0.429c-0.048-0.129-0.129-0.255-0.243-0.376
			c-0.115-0.121-0.257-0.239-0.424-0.355c-0.168-0.115-0.345-0.234-0.532-0.359c-0.215-0.145-0.428-0.294-0.639-0.451
			c-0.21-0.155-0.383-0.324-0.52-0.504c-0.136-0.18-0.225-0.38-0.267-0.599c-0.042-0.22-0.007-0.466,0.107-0.741
			c0.244-0.585,0.612-0.931,1.104-1.034c0.492-0.103,1.109,0,1.853,0.309c0.267,0.11,0.486,0.222,0.659,0.335
			c0.174,0.113,0.335,0.233,0.484,0.359l0.674,0.032l-0.637,1.896l-0.681-0.283l0.063-0.978c-0.141-0.105-0.286-0.207-0.438-0.306
			c-0.152-0.099-0.341-0.197-0.567-0.292c-0.509-0.211-0.886-0.293-1.129-0.248S32.036,9.3,31.922,9.574
			c-0.059,0.141-0.064,0.271-0.018,0.391c0.046,0.12,0.126,0.239,0.238,0.353c0.112,0.116,0.251,0.229,0.416,0.338
			c0.166,0.111,0.339,0.226,0.518,0.346c0.215,0.145,0.43,0.296,0.645,0.454c0.214,0.158,0.392,0.333,0.532,0.524
			c0.141,0.192,0.231,0.404,0.272,0.636C34.567,12.849,34.529,13.106,34.412,13.387z"/>
	</g>
	<circle fill="#FFEBCB" cx="22.537" cy="39.382" r="20.123"/>
	<circle fill="#E6B447" cx="22.537" cy="39.382" r="18.684"/>
	<circle fill="#F1F5E0" cx="18.202" cy="44.787" r="5.821"/>
	<circle fill="#F1F5E0" cx="28.202" cy="32.787" r="4.05"/>
	<polygon fill="#F1F5E0" points="21.134,40.465 26.952,34.069 26.952,36.465 21.681,42.927 	"/>
</g>
</svg>
